%TF.GenerationSoftware,KiCad,Pcbnew,(5.1.9-0-10_14)*%
%TF.CreationDate,2021-09-26T16:03:20-07:00*%
%TF.ProjectId,rpi-arcade-hat,7270692d-6172-4636-9164-652d6861742e,rev?*%
%TF.SameCoordinates,Original*%
%TF.FileFunction,Copper,L1,Top*%
%TF.FilePolarity,Positive*%
%FSLAX46Y46*%
G04 Gerber Fmt 4.6, Leading zero omitted, Abs format (unit mm)*
G04 Created by KiCad (PCBNEW (5.1.9-0-10_14)) date 2021-09-26 16:03:20*
%MOMM*%
%LPD*%
G01*
G04 APERTURE LIST*
%TA.AperFunction,ComponentPad*%
%ADD10O,1.950000X1.700000*%
%TD*%
%TA.AperFunction,ComponentPad*%
%ADD11C,1.700000*%
%TD*%
%TA.AperFunction,ComponentPad*%
%ADD12C,6.000000*%
%TD*%
%TA.AperFunction,Conductor*%
%ADD13C,0.250000*%
%TD*%
%TA.AperFunction,NonConductor*%
%ADD14C,0.254000*%
%TD*%
%TA.AperFunction,NonConductor*%
%ADD15C,0.100000*%
%TD*%
G04 APERTURE END LIST*
D10*
%TO.P,J8,4*%
%TO.N,GND*%
X167000000Y-94500000D03*
%TO.P,J8,3*%
X167000000Y-97000000D03*
%TO.P,J8,2*%
%TO.N,Net-(J1-Pad22)*%
X167000000Y-99500000D03*
%TO.P,J8,1*%
%TO.N,Net-(J1-Pad21)*%
%TA.AperFunction,ComponentPad*%
G36*
G01*
X167725000Y-102850000D02*
X166275000Y-102850000D01*
G75*
G02*
X166025000Y-102600000I0J250000D01*
G01*
X166025000Y-101400000D01*
G75*
G02*
X166275000Y-101150000I250000J0D01*
G01*
X167725000Y-101150000D01*
G75*
G02*
X167975000Y-101400000I0J-250000D01*
G01*
X167975000Y-102600000D01*
G75*
G02*
X167725000Y-102850000I-250000J0D01*
G01*
G37*
%TD.AperFunction*%
%TD*%
D11*
%TO.P,J1,40*%
%TO.N,Net-(J1-Pad40)*%
X118540000Y-122260000D03*
%TO.P,J1,38*%
%TO.N,Net-(J1-Pad38)*%
X118540000Y-119720000D03*
%TO.P,J1,36*%
%TO.N,Net-(J1-Pad36)*%
X118540000Y-117180000D03*
%TO.P,J1,34*%
%TO.N,GND*%
X118540000Y-114640000D03*
%TO.P,J1,32*%
%TO.N,Net-(J1-Pad32)*%
X118540000Y-112100000D03*
%TO.P,J1,30*%
%TO.N,GND*%
X118540000Y-109560000D03*
%TO.P,J1,28*%
%TO.N,Net-(J1-Pad28)*%
X118540000Y-107020000D03*
%TO.P,J1,26*%
%TO.N,Net-(J1-Pad26)*%
X118540000Y-104480000D03*
%TO.P,J1,24*%
%TO.N,Net-(J1-Pad24)*%
X118540000Y-101940000D03*
%TO.P,J1,22*%
%TO.N,Net-(J1-Pad22)*%
X118540000Y-99400000D03*
%TO.P,J1,20*%
%TO.N,GND*%
X118540000Y-96860000D03*
%TO.P,J1,18*%
%TO.N,Net-(J1-Pad18)*%
X118540000Y-94320000D03*
%TO.P,J1,16*%
%TO.N,Net-(J1-Pad16)*%
X118540000Y-91780000D03*
%TO.P,J1,14*%
%TO.N,GND*%
X118540000Y-89240000D03*
%TO.P,J1,12*%
%TO.N,Net-(J1-Pad12)*%
X118540000Y-86700000D03*
%TO.P,J1,10*%
%TO.N,Net-(J1-Pad10)*%
X118540000Y-84160000D03*
%TO.P,J1,8*%
%TO.N,Net-(J1-Pad8)*%
X118540000Y-81620000D03*
%TO.P,J1,6*%
%TO.N,GND*%
X118540000Y-79080000D03*
%TO.P,J1,4*%
%TO.N,Net-(J1-Pad4)*%
X118540000Y-76540000D03*
%TO.P,J1,2*%
%TO.N,Net-(J1-Pad2)*%
X118540000Y-74000000D03*
%TO.P,J1,39*%
%TO.N,GND*%
X116000000Y-122260000D03*
%TO.P,J1,37*%
%TO.N,Net-(J1-Pad37)*%
X116000000Y-119720000D03*
%TO.P,J1,35*%
%TO.N,Net-(J1-Pad35)*%
X116000000Y-117180000D03*
%TO.P,J1,33*%
%TO.N,Net-(J1-Pad33)*%
X116000000Y-114640000D03*
%TO.P,J1,31*%
%TO.N,Net-(J1-Pad31)*%
X116000000Y-112100000D03*
%TO.P,J1,29*%
%TO.N,Net-(J1-Pad29)*%
X116000000Y-109560000D03*
%TO.P,J1,27*%
%TO.N,Net-(J1-Pad27)*%
X116000000Y-107020000D03*
%TO.P,J1,25*%
%TO.N,GND*%
X116000000Y-104480000D03*
%TO.P,J1,23*%
%TO.N,Net-(J1-Pad23)*%
X116000000Y-101940000D03*
%TO.P,J1,21*%
%TO.N,Net-(J1-Pad21)*%
X116000000Y-99400000D03*
%TO.P,J1,19*%
%TO.N,Net-(J1-Pad19)*%
X116000000Y-96860000D03*
%TO.P,J1,17*%
%TO.N,Net-(J1-Pad17)*%
X116000000Y-94320000D03*
%TO.P,J1,15*%
%TO.N,Net-(J1-Pad15)*%
X116000000Y-91780000D03*
%TO.P,J1,13*%
%TO.N,Net-(J1-Pad13)*%
X116000000Y-89240000D03*
%TO.P,J1,11*%
%TO.N,Net-(J1-Pad11)*%
X116000000Y-86700000D03*
%TO.P,J1,9*%
%TO.N,GND*%
X116000000Y-84160000D03*
%TO.P,J1,7*%
%TO.N,Net-(J1-Pad7)*%
X116000000Y-81620000D03*
%TO.P,J1,5*%
%TO.N,Net-(J1-Pad5)*%
X116000000Y-79080000D03*
%TO.P,J1,3*%
%TO.N,Net-(J1-Pad3)*%
X116000000Y-76540000D03*
%TO.P,J1,1*%
%TO.N,Net-(J1-Pad1)*%
%TA.AperFunction,ComponentPad*%
G36*
G01*
X115150000Y-74600000D02*
X115150000Y-73400000D01*
G75*
G02*
X115400000Y-73150000I250000J0D01*
G01*
X116600000Y-73150000D01*
G75*
G02*
X116850000Y-73400000I0J-250000D01*
G01*
X116850000Y-74600000D01*
G75*
G02*
X116600000Y-74850000I-250000J0D01*
G01*
X115400000Y-74850000D01*
G75*
G02*
X115150000Y-74600000I0J250000D01*
G01*
G37*
%TD.AperFunction*%
%TD*%
D10*
%TO.P,J7,4*%
%TO.N,Net-(J1-Pad19)*%
X143000000Y-91500000D03*
%TO.P,J7,3*%
%TO.N,Net-(J1-Pad18)*%
X143000000Y-89000000D03*
%TO.P,J7,2*%
%TO.N,Net-(J1-Pad16)*%
X143000000Y-86500000D03*
%TO.P,J7,1*%
%TO.N,Net-(J1-Pad15)*%
%TA.AperFunction,ComponentPad*%
G36*
G01*
X142275000Y-83150000D02*
X143725000Y-83150000D01*
G75*
G02*
X143975000Y-83400000I0J-250000D01*
G01*
X143975000Y-84600000D01*
G75*
G02*
X143725000Y-84850000I-250000J0D01*
G01*
X142275000Y-84850000D01*
G75*
G02*
X142025000Y-84600000I0J250000D01*
G01*
X142025000Y-83400000D01*
G75*
G02*
X142275000Y-83150000I250000J0D01*
G01*
G37*
%TD.AperFunction*%
%TD*%
%TO.P,J6,4*%
%TO.N,Net-(J1-Pad13)*%
X143000000Y-77500000D03*
%TO.P,J6,3*%
%TO.N,Net-(J1-Pad12)*%
X143000000Y-75000000D03*
%TO.P,J6,2*%
%TO.N,Net-(J1-Pad11)*%
X143000000Y-72500000D03*
%TO.P,J6,1*%
%TO.N,Net-(J1-Pad10)*%
%TA.AperFunction,ComponentPad*%
G36*
G01*
X142275000Y-69150000D02*
X143725000Y-69150000D01*
G75*
G02*
X143975000Y-69400000I0J-250000D01*
G01*
X143975000Y-70600000D01*
G75*
G02*
X143725000Y-70850000I-250000J0D01*
G01*
X142275000Y-70850000D01*
G75*
G02*
X142025000Y-70600000I0J250000D01*
G01*
X142025000Y-69400000D01*
G75*
G02*
X142275000Y-69150000I250000J0D01*
G01*
G37*
%TD.AperFunction*%
%TD*%
%TO.P,J5,4*%
%TO.N,Net-(J1-Pad8)*%
X143000000Y-63500000D03*
%TO.P,J5,3*%
%TO.N,Net-(J1-Pad7)*%
X143000000Y-61000000D03*
%TO.P,J5,2*%
%TO.N,Net-(J1-Pad5)*%
X143000000Y-58500000D03*
%TO.P,J5,1*%
%TO.N,Net-(J1-Pad3)*%
%TA.AperFunction,ComponentPad*%
G36*
G01*
X142275000Y-55150000D02*
X143725000Y-55150000D01*
G75*
G02*
X143975000Y-55400000I0J-250000D01*
G01*
X143975000Y-56600000D01*
G75*
G02*
X143725000Y-56850000I-250000J0D01*
G01*
X142275000Y-56850000D01*
G75*
G02*
X142025000Y-56600000I0J250000D01*
G01*
X142025000Y-55400000D01*
G75*
G02*
X142275000Y-55150000I250000J0D01*
G01*
G37*
%TD.AperFunction*%
%TD*%
%TO.P,J4,4*%
%TO.N,Net-(J1-Pad40)*%
X143000000Y-140500000D03*
%TO.P,J4,3*%
%TO.N,Net-(J1-Pad38)*%
X143000000Y-138000000D03*
%TO.P,J4,2*%
%TO.N,Net-(J1-Pad37)*%
X143000000Y-135500000D03*
%TO.P,J4,1*%
%TO.N,Net-(J1-Pad36)*%
%TA.AperFunction,ComponentPad*%
G36*
G01*
X142275000Y-132150000D02*
X143725000Y-132150000D01*
G75*
G02*
X143975000Y-132400000I0J-250000D01*
G01*
X143975000Y-133600000D01*
G75*
G02*
X143725000Y-133850000I-250000J0D01*
G01*
X142275000Y-133850000D01*
G75*
G02*
X142025000Y-133600000I0J250000D01*
G01*
X142025000Y-132400000D01*
G75*
G02*
X142275000Y-132150000I250000J0D01*
G01*
G37*
%TD.AperFunction*%
%TD*%
%TO.P,J3,4*%
%TO.N,Net-(J1-Pad35)*%
X143000000Y-126500000D03*
%TO.P,J3,3*%
%TO.N,Net-(J1-Pad33)*%
X143000000Y-124000000D03*
%TO.P,J3,2*%
%TO.N,Net-(J1-Pad32)*%
X143000000Y-121500000D03*
%TO.P,J3,1*%
%TO.N,Net-(J1-Pad31)*%
%TA.AperFunction,ComponentPad*%
G36*
G01*
X142275000Y-118150000D02*
X143725000Y-118150000D01*
G75*
G02*
X143975000Y-118400000I0J-250000D01*
G01*
X143975000Y-119600000D01*
G75*
G02*
X143725000Y-119850000I-250000J0D01*
G01*
X142275000Y-119850000D01*
G75*
G02*
X142025000Y-119600000I0J250000D01*
G01*
X142025000Y-118400000D01*
G75*
G02*
X142275000Y-118150000I250000J0D01*
G01*
G37*
%TD.AperFunction*%
%TD*%
%TO.P,J2,4*%
%TO.N,Net-(J1-Pad29)*%
X143000000Y-112500000D03*
%TO.P,J2,3*%
%TO.N,Net-(J1-Pad26)*%
X143000000Y-110000000D03*
%TO.P,J2,2*%
%TO.N,Net-(J1-Pad24)*%
X143000000Y-107500000D03*
%TO.P,J2,1*%
%TO.N,Net-(J1-Pad23)*%
%TA.AperFunction,ComponentPad*%
G36*
G01*
X142275000Y-104150000D02*
X143725000Y-104150000D01*
G75*
G02*
X143975000Y-104400000I0J-250000D01*
G01*
X143975000Y-105600000D01*
G75*
G02*
X143725000Y-105850000I-250000J0D01*
G01*
X142275000Y-105850000D01*
G75*
G02*
X142025000Y-105600000I0J250000D01*
G01*
X142025000Y-104400000D01*
G75*
G02*
X142275000Y-104150000I250000J0D01*
G01*
G37*
%TD.AperFunction*%
%TD*%
D12*
%TO.P,REF\u002A\u002A,3*%
%TO.N,GND*%
X105000000Y-144000000D03*
%TD*%
%TO.P,REF\u002A\u002A,4*%
%TO.N,GND*%
X197000000Y-144000000D03*
%TD*%
%TO.P,REF\u002A\u002A,1*%
%TO.N,GND*%
X105000000Y-52000000D03*
%TD*%
%TO.P,REF\u002A\u002A,2*%
%TO.N,GND*%
X197000000Y-52000000D03*
%TD*%
D13*
%TO.N,Net-(J1-Pad40)*%
X124760000Y-122260000D02*
X143000000Y-140500000D01*
X118540000Y-122260000D02*
X124760000Y-122260000D01*
%TO.N,Net-(J1-Pad38)*%
X124720000Y-119720000D02*
X143000000Y-138000000D01*
X118540000Y-119720000D02*
X124720000Y-119720000D01*
%TO.N,Net-(J1-Pad37)*%
X126044999Y-118544999D02*
X143000000Y-135500000D01*
X117175001Y-118544999D02*
X126044999Y-118544999D01*
X116000000Y-119720000D02*
X117175001Y-118544999D01*
%TO.N,Net-(J1-Pad36)*%
X127180000Y-117180000D02*
X143000000Y-133000000D01*
X118540000Y-117180000D02*
X127180000Y-117180000D01*
%TO.N,Net-(J1-Pad35)*%
X116000000Y-117180000D02*
X117180000Y-116000000D01*
X132500000Y-116000000D02*
X143000000Y-126500000D01*
X117180000Y-116000000D02*
X132500000Y-116000000D01*
%TO.N,Net-(J1-Pad33)*%
X132464999Y-113464999D02*
X143000000Y-124000000D01*
X117175001Y-113464999D02*
X132464999Y-113464999D01*
X116000000Y-114640000D02*
X117175001Y-113464999D01*
%TO.N,Net-(J1-Pad32)*%
X133600000Y-112100000D02*
X143000000Y-121500000D01*
X118540000Y-112100000D02*
X133600000Y-112100000D01*
%TO.N,Net-(J1-Pad31)*%
X117175001Y-110924999D02*
X134924999Y-110924999D01*
X134924999Y-110924999D02*
X143000000Y-119000000D01*
X116000000Y-112100000D02*
X117175001Y-110924999D01*
%TO.N,Net-(J1-Pad29)*%
X117175001Y-108384999D02*
X138884999Y-108384999D01*
X138884999Y-108384999D02*
X143000000Y-112500000D01*
X116000000Y-109560000D02*
X117175001Y-108384999D01*
%TO.N,Net-(J1-Pad26)*%
X137480000Y-104480000D02*
X143000000Y-110000000D01*
X118540000Y-104480000D02*
X137480000Y-104480000D01*
%TO.N,Net-(J1-Pad24)*%
X137440000Y-101940000D02*
X143000000Y-107500000D01*
X118540000Y-101940000D02*
X137440000Y-101940000D01*
%TO.N,Net-(J1-Pad23)*%
X138764999Y-100764999D02*
X143000000Y-105000000D01*
X117175001Y-100764999D02*
X138764999Y-100764999D01*
X116000000Y-101940000D02*
X117175001Y-100764999D01*
%TO.N,Net-(J1-Pad22)*%
X166900000Y-99400000D02*
X167000000Y-99500000D01*
X118540000Y-99400000D02*
X166900000Y-99400000D01*
%TO.N,Net-(J1-Pad21)*%
X168300010Y-99013295D02*
X168300010Y-100699990D01*
X167511714Y-98224999D02*
X168300010Y-99013295D01*
X168300010Y-100699990D02*
X167000000Y-102000000D01*
X117175001Y-98224999D02*
X167511714Y-98224999D01*
X116000000Y-99400000D02*
X117175001Y-98224999D01*
%TO.N,Net-(J1-Pad19)*%
X138815001Y-95684999D02*
X143000000Y-91500000D01*
X117175001Y-95684999D02*
X138815001Y-95684999D01*
X116000000Y-96860000D02*
X117175001Y-95684999D01*
%TO.N,Net-(J1-Pad18)*%
X137680000Y-94320000D02*
X143000000Y-89000000D01*
X118540000Y-94320000D02*
X137680000Y-94320000D01*
%TO.N,Net-(J1-Pad16)*%
X137720000Y-91780000D02*
X143000000Y-86500000D01*
X118540000Y-91780000D02*
X137720000Y-91780000D01*
%TO.N,Net-(J1-Pad15)*%
X136395001Y-90604999D02*
X143000000Y-84000000D01*
X117175001Y-90604999D02*
X136395001Y-90604999D01*
X116000000Y-91780000D02*
X117175001Y-90604999D01*
%TO.N,Net-(J1-Pad13)*%
X117175001Y-88064999D02*
X132435001Y-88064999D01*
X132435001Y-88064999D02*
X143000000Y-77500000D01*
X116000000Y-89240000D02*
X117175001Y-88064999D01*
%TO.N,Net-(J1-Pad12)*%
X131300000Y-86700000D02*
X143000000Y-75000000D01*
X118540000Y-86700000D02*
X131300000Y-86700000D01*
%TO.N,Net-(J1-Pad11)*%
X129975001Y-85524999D02*
X143000000Y-72500000D01*
X117175001Y-85524999D02*
X129975001Y-85524999D01*
X116000000Y-86700000D02*
X117175001Y-85524999D01*
%TO.N,Net-(J1-Pad10)*%
X128840000Y-84160000D02*
X143000000Y-70000000D01*
X118540000Y-84160000D02*
X128840000Y-84160000D01*
%TO.N,Net-(J1-Pad8)*%
X124880000Y-81620000D02*
X143000000Y-63500000D01*
X118540000Y-81620000D02*
X124880000Y-81620000D01*
%TO.N,Net-(J1-Pad7)*%
X123555001Y-80444999D02*
X143000000Y-61000000D01*
X117175001Y-80444999D02*
X123555001Y-80444999D01*
X116000000Y-81620000D02*
X117175001Y-80444999D01*
%TO.N,Net-(J1-Pad5)*%
X123595001Y-77904999D02*
X143000000Y-58500000D01*
X117175001Y-77904999D02*
X123595001Y-77904999D01*
X116000000Y-79080000D02*
X117175001Y-77904999D01*
%TO.N,Net-(J1-Pad3)*%
X123824999Y-75175001D02*
X143000000Y-56000000D01*
X117364999Y-75175001D02*
X123824999Y-75175001D01*
X116000000Y-76540000D02*
X117364999Y-75175001D01*
%TD*%
D14*
X193778705Y-50278182D02*
X193504691Y-50939710D01*
X193365000Y-51641984D01*
X193365000Y-52358016D01*
X193504691Y-53060290D01*
X193778705Y-53721818D01*
X194176511Y-54317177D01*
X194682823Y-54823489D01*
X195278182Y-55221295D01*
X195939710Y-55495309D01*
X196641984Y-55635000D01*
X197358016Y-55635000D01*
X198060290Y-55495309D01*
X198721818Y-55221295D01*
X198873000Y-55120278D01*
X198873000Y-140879722D01*
X198721818Y-140778705D01*
X198060290Y-140504691D01*
X197358016Y-140365000D01*
X196641984Y-140365000D01*
X195939710Y-140504691D01*
X195278182Y-140778705D01*
X194682823Y-141176511D01*
X194176511Y-141682823D01*
X193778705Y-142278182D01*
X193504691Y-142939710D01*
X193365000Y-143641984D01*
X193365000Y-144358016D01*
X193504691Y-145060290D01*
X193778705Y-145721818D01*
X193879722Y-145873000D01*
X108120278Y-145873000D01*
X108221295Y-145721818D01*
X108495309Y-145060290D01*
X108635000Y-144358016D01*
X108635000Y-143641984D01*
X108495309Y-142939710D01*
X108221295Y-142278182D01*
X107823489Y-141682823D01*
X107317177Y-141176511D01*
X106721818Y-140778705D01*
X106060290Y-140504691D01*
X105358016Y-140365000D01*
X104641984Y-140365000D01*
X103939710Y-140504691D01*
X103278182Y-140778705D01*
X103127000Y-140879722D01*
X103127000Y-73400000D01*
X114511928Y-73400000D01*
X114511928Y-74600000D01*
X114528992Y-74773254D01*
X114579528Y-74939850D01*
X114661595Y-75093386D01*
X114772038Y-75227962D01*
X114906614Y-75338405D01*
X115033608Y-75406285D01*
X114846525Y-75593368D01*
X114684010Y-75836589D01*
X114572068Y-76106842D01*
X114515000Y-76393740D01*
X114515000Y-76686260D01*
X114572068Y-76973158D01*
X114684010Y-77243411D01*
X114846525Y-77486632D01*
X115053368Y-77693475D01*
X115227760Y-77810000D01*
X115053368Y-77926525D01*
X114846525Y-78133368D01*
X114684010Y-78376589D01*
X114572068Y-78646842D01*
X114515000Y-78933740D01*
X114515000Y-79226260D01*
X114572068Y-79513158D01*
X114684010Y-79783411D01*
X114846525Y-80026632D01*
X115053368Y-80233475D01*
X115227760Y-80350000D01*
X115053368Y-80466525D01*
X114846525Y-80673368D01*
X114684010Y-80916589D01*
X114572068Y-81186842D01*
X114515000Y-81473740D01*
X114515000Y-81766260D01*
X114572068Y-82053158D01*
X114684010Y-82323411D01*
X114846525Y-82566632D01*
X115053368Y-82773475D01*
X115227760Y-82890000D01*
X115053368Y-83006525D01*
X114846525Y-83213368D01*
X114684010Y-83456589D01*
X114572068Y-83726842D01*
X114515000Y-84013740D01*
X114515000Y-84306260D01*
X114572068Y-84593158D01*
X114684010Y-84863411D01*
X114846525Y-85106632D01*
X115053368Y-85313475D01*
X115227760Y-85430000D01*
X115053368Y-85546525D01*
X114846525Y-85753368D01*
X114684010Y-85996589D01*
X114572068Y-86266842D01*
X114515000Y-86553740D01*
X114515000Y-86846260D01*
X114572068Y-87133158D01*
X114684010Y-87403411D01*
X114846525Y-87646632D01*
X115053368Y-87853475D01*
X115227760Y-87970000D01*
X115053368Y-88086525D01*
X114846525Y-88293368D01*
X114684010Y-88536589D01*
X114572068Y-88806842D01*
X114515000Y-89093740D01*
X114515000Y-89386260D01*
X114572068Y-89673158D01*
X114684010Y-89943411D01*
X114846525Y-90186632D01*
X115053368Y-90393475D01*
X115227760Y-90510000D01*
X115053368Y-90626525D01*
X114846525Y-90833368D01*
X114684010Y-91076589D01*
X114572068Y-91346842D01*
X114515000Y-91633740D01*
X114515000Y-91926260D01*
X114572068Y-92213158D01*
X114684010Y-92483411D01*
X114846525Y-92726632D01*
X115053368Y-92933475D01*
X115227760Y-93050000D01*
X115053368Y-93166525D01*
X114846525Y-93373368D01*
X114684010Y-93616589D01*
X114572068Y-93886842D01*
X114515000Y-94173740D01*
X114515000Y-94466260D01*
X114572068Y-94753158D01*
X114684010Y-95023411D01*
X114846525Y-95266632D01*
X115053368Y-95473475D01*
X115227760Y-95590000D01*
X115053368Y-95706525D01*
X114846525Y-95913368D01*
X114684010Y-96156589D01*
X114572068Y-96426842D01*
X114515000Y-96713740D01*
X114515000Y-97006260D01*
X114572068Y-97293158D01*
X114684010Y-97563411D01*
X114846525Y-97806632D01*
X115053368Y-98013475D01*
X115227760Y-98130000D01*
X115053368Y-98246525D01*
X114846525Y-98453368D01*
X114684010Y-98696589D01*
X114572068Y-98966842D01*
X114515000Y-99253740D01*
X114515000Y-99546260D01*
X114572068Y-99833158D01*
X114684010Y-100103411D01*
X114846525Y-100346632D01*
X115053368Y-100553475D01*
X115227760Y-100670000D01*
X115053368Y-100786525D01*
X114846525Y-100993368D01*
X114684010Y-101236589D01*
X114572068Y-101506842D01*
X114515000Y-101793740D01*
X114515000Y-102086260D01*
X114572068Y-102373158D01*
X114684010Y-102643411D01*
X114846525Y-102886632D01*
X115053368Y-103093475D01*
X115227760Y-103210000D01*
X115053368Y-103326525D01*
X114846525Y-103533368D01*
X114684010Y-103776589D01*
X114572068Y-104046842D01*
X114515000Y-104333740D01*
X114515000Y-104626260D01*
X114572068Y-104913158D01*
X114684010Y-105183411D01*
X114846525Y-105426632D01*
X115053368Y-105633475D01*
X115227760Y-105750000D01*
X115053368Y-105866525D01*
X114846525Y-106073368D01*
X114684010Y-106316589D01*
X114572068Y-106586842D01*
X114515000Y-106873740D01*
X114515000Y-107166260D01*
X114572068Y-107453158D01*
X114684010Y-107723411D01*
X114846525Y-107966632D01*
X115053368Y-108173475D01*
X115227760Y-108290000D01*
X115053368Y-108406525D01*
X114846525Y-108613368D01*
X114684010Y-108856589D01*
X114572068Y-109126842D01*
X114515000Y-109413740D01*
X114515000Y-109706260D01*
X114572068Y-109993158D01*
X114684010Y-110263411D01*
X114846525Y-110506632D01*
X115053368Y-110713475D01*
X115227760Y-110830000D01*
X115053368Y-110946525D01*
X114846525Y-111153368D01*
X114684010Y-111396589D01*
X114572068Y-111666842D01*
X114515000Y-111953740D01*
X114515000Y-112246260D01*
X114572068Y-112533158D01*
X114684010Y-112803411D01*
X114846525Y-113046632D01*
X115053368Y-113253475D01*
X115227760Y-113370000D01*
X115053368Y-113486525D01*
X114846525Y-113693368D01*
X114684010Y-113936589D01*
X114572068Y-114206842D01*
X114515000Y-114493740D01*
X114515000Y-114786260D01*
X114572068Y-115073158D01*
X114684010Y-115343411D01*
X114846525Y-115586632D01*
X115053368Y-115793475D01*
X115227760Y-115910000D01*
X115053368Y-116026525D01*
X114846525Y-116233368D01*
X114684010Y-116476589D01*
X114572068Y-116746842D01*
X114515000Y-117033740D01*
X114515000Y-117326260D01*
X114572068Y-117613158D01*
X114684010Y-117883411D01*
X114846525Y-118126632D01*
X115053368Y-118333475D01*
X115227760Y-118450000D01*
X115053368Y-118566525D01*
X114846525Y-118773368D01*
X114684010Y-119016589D01*
X114572068Y-119286842D01*
X114515000Y-119573740D01*
X114515000Y-119866260D01*
X114572068Y-120153158D01*
X114684010Y-120423411D01*
X114846525Y-120666632D01*
X115053368Y-120873475D01*
X115227760Y-120990000D01*
X115053368Y-121106525D01*
X114846525Y-121313368D01*
X114684010Y-121556589D01*
X114572068Y-121826842D01*
X114515000Y-122113740D01*
X114515000Y-122406260D01*
X114572068Y-122693158D01*
X114684010Y-122963411D01*
X114846525Y-123206632D01*
X115053368Y-123413475D01*
X115296589Y-123575990D01*
X115566842Y-123687932D01*
X115853740Y-123745000D01*
X116146260Y-123745000D01*
X116433158Y-123687932D01*
X116703411Y-123575990D01*
X116946632Y-123413475D01*
X117153475Y-123206632D01*
X117270000Y-123032240D01*
X117386525Y-123206632D01*
X117593368Y-123413475D01*
X117836589Y-123575990D01*
X118106842Y-123687932D01*
X118393740Y-123745000D01*
X118686260Y-123745000D01*
X118973158Y-123687932D01*
X119243411Y-123575990D01*
X119486632Y-123413475D01*
X119693475Y-123206632D01*
X119818178Y-123020000D01*
X124445199Y-123020000D01*
X141463296Y-140038099D01*
X141411487Y-140208889D01*
X141382815Y-140500000D01*
X141411487Y-140791111D01*
X141496401Y-141071034D01*
X141634294Y-141329014D01*
X141819866Y-141555134D01*
X142045986Y-141740706D01*
X142303966Y-141878599D01*
X142583889Y-141963513D01*
X142802050Y-141985000D01*
X143197950Y-141985000D01*
X143416111Y-141963513D01*
X143696034Y-141878599D01*
X143954014Y-141740706D01*
X144180134Y-141555134D01*
X144365706Y-141329014D01*
X144503599Y-141071034D01*
X144588513Y-140791111D01*
X144617185Y-140500000D01*
X144588513Y-140208889D01*
X144503599Y-139928966D01*
X144365706Y-139670986D01*
X144180134Y-139444866D01*
X143954014Y-139259294D01*
X143936626Y-139250000D01*
X143954014Y-139240706D01*
X144180134Y-139055134D01*
X144365706Y-138829014D01*
X144503599Y-138571034D01*
X144588513Y-138291111D01*
X144617185Y-138000000D01*
X144588513Y-137708889D01*
X144503599Y-137428966D01*
X144365706Y-137170986D01*
X144180134Y-136944866D01*
X143954014Y-136759294D01*
X143936626Y-136750000D01*
X143954014Y-136740706D01*
X144180134Y-136555134D01*
X144365706Y-136329014D01*
X144503599Y-136071034D01*
X144588513Y-135791111D01*
X144617185Y-135500000D01*
X144588513Y-135208889D01*
X144503599Y-134928966D01*
X144365706Y-134670986D01*
X144180134Y-134444866D01*
X144116663Y-134392777D01*
X144218386Y-134338405D01*
X144352962Y-134227962D01*
X144463405Y-134093386D01*
X144545472Y-133939850D01*
X144596008Y-133773254D01*
X144613072Y-133600000D01*
X144613072Y-132400000D01*
X144596008Y-132226746D01*
X144545472Y-132060150D01*
X144463405Y-131906614D01*
X144352962Y-131772038D01*
X144218386Y-131661595D01*
X144064850Y-131579528D01*
X143898254Y-131528992D01*
X143725000Y-131511928D01*
X142586730Y-131511928D01*
X127834801Y-116760000D01*
X132185199Y-116760000D01*
X141463296Y-126038099D01*
X141411487Y-126208889D01*
X141382815Y-126500000D01*
X141411487Y-126791111D01*
X141496401Y-127071034D01*
X141634294Y-127329014D01*
X141819866Y-127555134D01*
X142045986Y-127740706D01*
X142303966Y-127878599D01*
X142583889Y-127963513D01*
X142802050Y-127985000D01*
X143197950Y-127985000D01*
X143416111Y-127963513D01*
X143696034Y-127878599D01*
X143954014Y-127740706D01*
X144180134Y-127555134D01*
X144365706Y-127329014D01*
X144503599Y-127071034D01*
X144588513Y-126791111D01*
X144617185Y-126500000D01*
X144588513Y-126208889D01*
X144503599Y-125928966D01*
X144365706Y-125670986D01*
X144180134Y-125444866D01*
X143954014Y-125259294D01*
X143936626Y-125250000D01*
X143954014Y-125240706D01*
X144180134Y-125055134D01*
X144365706Y-124829014D01*
X144503599Y-124571034D01*
X144588513Y-124291111D01*
X144617185Y-124000000D01*
X144588513Y-123708889D01*
X144503599Y-123428966D01*
X144365706Y-123170986D01*
X144180134Y-122944866D01*
X143954014Y-122759294D01*
X143936626Y-122750000D01*
X143954014Y-122740706D01*
X144180134Y-122555134D01*
X144365706Y-122329014D01*
X144503599Y-122071034D01*
X144588513Y-121791111D01*
X144617185Y-121500000D01*
X144588513Y-121208889D01*
X144503599Y-120928966D01*
X144365706Y-120670986D01*
X144180134Y-120444866D01*
X144116663Y-120392777D01*
X144218386Y-120338405D01*
X144352962Y-120227962D01*
X144463405Y-120093386D01*
X144545472Y-119939850D01*
X144596008Y-119773254D01*
X144613072Y-119600000D01*
X144613072Y-118400000D01*
X144596008Y-118226746D01*
X144545472Y-118060150D01*
X144463405Y-117906614D01*
X144352962Y-117772038D01*
X144218386Y-117661595D01*
X144064850Y-117579528D01*
X143898254Y-117528992D01*
X143725000Y-117511928D01*
X142586730Y-117511928D01*
X135488803Y-110414002D01*
X135465000Y-110384998D01*
X135349275Y-110290025D01*
X135217246Y-110219453D01*
X135073985Y-110175996D01*
X134962332Y-110164999D01*
X134962321Y-110164999D01*
X134924999Y-110161323D01*
X134887677Y-110164999D01*
X119896753Y-110164999D01*
X119967932Y-109993158D01*
X120025000Y-109706260D01*
X120025000Y-109413740D01*
X119971544Y-109144999D01*
X138570198Y-109144999D01*
X141463296Y-112038098D01*
X141411487Y-112208889D01*
X141382815Y-112500000D01*
X141411487Y-112791111D01*
X141496401Y-113071034D01*
X141634294Y-113329014D01*
X141819866Y-113555134D01*
X142045986Y-113740706D01*
X142303966Y-113878599D01*
X142583889Y-113963513D01*
X142802050Y-113985000D01*
X143197950Y-113985000D01*
X143416111Y-113963513D01*
X143696034Y-113878599D01*
X143954014Y-113740706D01*
X144180134Y-113555134D01*
X144365706Y-113329014D01*
X144503599Y-113071034D01*
X144588513Y-112791111D01*
X144617185Y-112500000D01*
X144588513Y-112208889D01*
X144503599Y-111928966D01*
X144365706Y-111670986D01*
X144180134Y-111444866D01*
X143954014Y-111259294D01*
X143936626Y-111250000D01*
X143954014Y-111240706D01*
X144180134Y-111055134D01*
X144365706Y-110829014D01*
X144503599Y-110571034D01*
X144588513Y-110291111D01*
X144617185Y-110000000D01*
X144588513Y-109708889D01*
X144503599Y-109428966D01*
X144365706Y-109170986D01*
X144180134Y-108944866D01*
X143954014Y-108759294D01*
X143936626Y-108750000D01*
X143954014Y-108740706D01*
X144180134Y-108555134D01*
X144365706Y-108329014D01*
X144503599Y-108071034D01*
X144588513Y-107791111D01*
X144617185Y-107500000D01*
X144588513Y-107208889D01*
X144503599Y-106928966D01*
X144365706Y-106670986D01*
X144180134Y-106444866D01*
X144116663Y-106392777D01*
X144218386Y-106338405D01*
X144352962Y-106227962D01*
X144463405Y-106093386D01*
X144545472Y-105939850D01*
X144596008Y-105773254D01*
X144613072Y-105600000D01*
X144613072Y-104400000D01*
X144596008Y-104226746D01*
X144545472Y-104060150D01*
X144463405Y-103906614D01*
X144352962Y-103772038D01*
X144218386Y-103661595D01*
X144064850Y-103579528D01*
X143898254Y-103528992D01*
X143725000Y-103511928D01*
X142586730Y-103511928D01*
X139328803Y-100254002D01*
X139305000Y-100224998D01*
X139225800Y-100160000D01*
X165543954Y-100160000D01*
X165634294Y-100329014D01*
X165819866Y-100555134D01*
X165883337Y-100607223D01*
X165781614Y-100661595D01*
X165647038Y-100772038D01*
X165536595Y-100906614D01*
X165454528Y-101060150D01*
X165403992Y-101226746D01*
X165386928Y-101400000D01*
X165386928Y-102600000D01*
X165403992Y-102773254D01*
X165454528Y-102939850D01*
X165536595Y-103093386D01*
X165647038Y-103227962D01*
X165781614Y-103338405D01*
X165935150Y-103420472D01*
X166101746Y-103471008D01*
X166275000Y-103488072D01*
X167725000Y-103488072D01*
X167898254Y-103471008D01*
X168064850Y-103420472D01*
X168218386Y-103338405D01*
X168352962Y-103227962D01*
X168463405Y-103093386D01*
X168545472Y-102939850D01*
X168596008Y-102773254D01*
X168613072Y-102600000D01*
X168613072Y-101461730D01*
X168811013Y-101263789D01*
X168840011Y-101239991D01*
X168934984Y-101124266D01*
X169005556Y-100992237D01*
X169049013Y-100848976D01*
X169060010Y-100737323D01*
X169060010Y-100737315D01*
X169063686Y-100699990D01*
X169060010Y-100662665D01*
X169060010Y-99050618D01*
X169063686Y-99013295D01*
X169060010Y-98975972D01*
X169060010Y-98975962D01*
X169049013Y-98864309D01*
X169005556Y-98721048D01*
X168968113Y-98650998D01*
X168934984Y-98589018D01*
X168863809Y-98502292D01*
X168840011Y-98473294D01*
X168811014Y-98449497D01*
X168286745Y-97925228D01*
X168365706Y-97829014D01*
X168503599Y-97571034D01*
X168588513Y-97291111D01*
X168617185Y-97000000D01*
X168588513Y-96708889D01*
X168503599Y-96428966D01*
X168365706Y-96170986D01*
X168180134Y-95944866D01*
X167954014Y-95759294D01*
X167936626Y-95750000D01*
X167954014Y-95740706D01*
X168180134Y-95555134D01*
X168365706Y-95329014D01*
X168503599Y-95071034D01*
X168588513Y-94791111D01*
X168617185Y-94500000D01*
X168588513Y-94208889D01*
X168503599Y-93928966D01*
X168365706Y-93670986D01*
X168180134Y-93444866D01*
X167954014Y-93259294D01*
X167696034Y-93121401D01*
X167416111Y-93036487D01*
X167197950Y-93015000D01*
X166802050Y-93015000D01*
X166583889Y-93036487D01*
X166303966Y-93121401D01*
X166045986Y-93259294D01*
X165819866Y-93444866D01*
X165634294Y-93670986D01*
X165496401Y-93928966D01*
X165411487Y-94208889D01*
X165382815Y-94500000D01*
X165411487Y-94791111D01*
X165496401Y-95071034D01*
X165634294Y-95329014D01*
X165819866Y-95555134D01*
X166045986Y-95740706D01*
X166063374Y-95750000D01*
X166045986Y-95759294D01*
X165819866Y-95944866D01*
X165634294Y-96170986D01*
X165496401Y-96428966D01*
X165411487Y-96708889D01*
X165382815Y-97000000D01*
X165411487Y-97291111D01*
X165464236Y-97464999D01*
X119896753Y-97464999D01*
X119967932Y-97293158D01*
X120025000Y-97006260D01*
X120025000Y-96713740D01*
X119971544Y-96444999D01*
X138777679Y-96444999D01*
X138815001Y-96448675D01*
X138852323Y-96444999D01*
X138852334Y-96444999D01*
X138963987Y-96434002D01*
X139107248Y-96390545D01*
X139239277Y-96319973D01*
X139355002Y-96225000D01*
X139378805Y-96195996D01*
X142608832Y-92965970D01*
X142802050Y-92985000D01*
X143197950Y-92985000D01*
X143416111Y-92963513D01*
X143696034Y-92878599D01*
X143954014Y-92740706D01*
X144180134Y-92555134D01*
X144365706Y-92329014D01*
X144503599Y-92071034D01*
X144588513Y-91791111D01*
X144617185Y-91500000D01*
X144588513Y-91208889D01*
X144503599Y-90928966D01*
X144365706Y-90670986D01*
X144180134Y-90444866D01*
X143954014Y-90259294D01*
X143936626Y-90250000D01*
X143954014Y-90240706D01*
X144180134Y-90055134D01*
X144365706Y-89829014D01*
X144503599Y-89571034D01*
X144588513Y-89291111D01*
X144617185Y-89000000D01*
X144588513Y-88708889D01*
X144503599Y-88428966D01*
X144365706Y-88170986D01*
X144180134Y-87944866D01*
X143954014Y-87759294D01*
X143936626Y-87750000D01*
X143954014Y-87740706D01*
X144180134Y-87555134D01*
X144365706Y-87329014D01*
X144503599Y-87071034D01*
X144588513Y-86791111D01*
X144617185Y-86500000D01*
X144588513Y-86208889D01*
X144503599Y-85928966D01*
X144365706Y-85670986D01*
X144180134Y-85444866D01*
X144116663Y-85392777D01*
X144218386Y-85338405D01*
X144352962Y-85227962D01*
X144463405Y-85093386D01*
X144545472Y-84939850D01*
X144596008Y-84773254D01*
X144613072Y-84600000D01*
X144613072Y-83400000D01*
X144596008Y-83226746D01*
X144545472Y-83060150D01*
X144463405Y-82906614D01*
X144352962Y-82772038D01*
X144218386Y-82661595D01*
X144064850Y-82579528D01*
X143898254Y-82528992D01*
X143725000Y-82511928D01*
X142275000Y-82511928D01*
X142101746Y-82528992D01*
X141935150Y-82579528D01*
X141781614Y-82661595D01*
X141647038Y-82772038D01*
X141536595Y-82906614D01*
X141454528Y-83060150D01*
X141403992Y-83226746D01*
X141386928Y-83400000D01*
X141386928Y-84538270D01*
X136080200Y-89844999D01*
X119896753Y-89844999D01*
X119967932Y-89673158D01*
X120025000Y-89386260D01*
X120025000Y-89093740D01*
X119971544Y-88824999D01*
X132397679Y-88824999D01*
X132435001Y-88828675D01*
X132472323Y-88824999D01*
X132472334Y-88824999D01*
X132583987Y-88814002D01*
X132727248Y-88770545D01*
X132859277Y-88699973D01*
X132975002Y-88605000D01*
X132998805Y-88575996D01*
X142608832Y-78965970D01*
X142802050Y-78985000D01*
X143197950Y-78985000D01*
X143416111Y-78963513D01*
X143696034Y-78878599D01*
X143954014Y-78740706D01*
X144180134Y-78555134D01*
X144365706Y-78329014D01*
X144503599Y-78071034D01*
X144588513Y-77791111D01*
X144617185Y-77500000D01*
X144588513Y-77208889D01*
X144503599Y-76928966D01*
X144365706Y-76670986D01*
X144180134Y-76444866D01*
X143954014Y-76259294D01*
X143936626Y-76250000D01*
X143954014Y-76240706D01*
X144180134Y-76055134D01*
X144365706Y-75829014D01*
X144503599Y-75571034D01*
X144588513Y-75291111D01*
X144617185Y-75000000D01*
X144588513Y-74708889D01*
X144503599Y-74428966D01*
X144365706Y-74170986D01*
X144180134Y-73944866D01*
X143954014Y-73759294D01*
X143936626Y-73750000D01*
X143954014Y-73740706D01*
X144180134Y-73555134D01*
X144365706Y-73329014D01*
X144503599Y-73071034D01*
X144588513Y-72791111D01*
X144617185Y-72500000D01*
X144588513Y-72208889D01*
X144503599Y-71928966D01*
X144365706Y-71670986D01*
X144180134Y-71444866D01*
X144116663Y-71392777D01*
X144218386Y-71338405D01*
X144352962Y-71227962D01*
X144463405Y-71093386D01*
X144545472Y-70939850D01*
X144596008Y-70773254D01*
X144613072Y-70600000D01*
X144613072Y-69400000D01*
X144596008Y-69226746D01*
X144545472Y-69060150D01*
X144463405Y-68906614D01*
X144352962Y-68772038D01*
X144218386Y-68661595D01*
X144064850Y-68579528D01*
X143898254Y-68528992D01*
X143725000Y-68511928D01*
X142275000Y-68511928D01*
X142101746Y-68528992D01*
X141935150Y-68579528D01*
X141781614Y-68661595D01*
X141647038Y-68772038D01*
X141536595Y-68906614D01*
X141454528Y-69060150D01*
X141403992Y-69226746D01*
X141386928Y-69400000D01*
X141386928Y-70538270D01*
X128525199Y-83400000D01*
X119818178Y-83400000D01*
X119693475Y-83213368D01*
X119486632Y-83006525D01*
X119312240Y-82890000D01*
X119486632Y-82773475D01*
X119693475Y-82566632D01*
X119818178Y-82380000D01*
X124842678Y-82380000D01*
X124880000Y-82383676D01*
X124917322Y-82380000D01*
X124917333Y-82380000D01*
X125028986Y-82369003D01*
X125172247Y-82325546D01*
X125304276Y-82254974D01*
X125420001Y-82160001D01*
X125443804Y-82130997D01*
X142608832Y-64965970D01*
X142802050Y-64985000D01*
X143197950Y-64985000D01*
X143416111Y-64963513D01*
X143696034Y-64878599D01*
X143954014Y-64740706D01*
X144180134Y-64555134D01*
X144365706Y-64329014D01*
X144503599Y-64071034D01*
X144588513Y-63791111D01*
X144617185Y-63500000D01*
X144588513Y-63208889D01*
X144503599Y-62928966D01*
X144365706Y-62670986D01*
X144180134Y-62444866D01*
X143954014Y-62259294D01*
X143936626Y-62250000D01*
X143954014Y-62240706D01*
X144180134Y-62055134D01*
X144365706Y-61829014D01*
X144503599Y-61571034D01*
X144588513Y-61291111D01*
X144617185Y-61000000D01*
X144588513Y-60708889D01*
X144503599Y-60428966D01*
X144365706Y-60170986D01*
X144180134Y-59944866D01*
X143954014Y-59759294D01*
X143936626Y-59750000D01*
X143954014Y-59740706D01*
X144180134Y-59555134D01*
X144365706Y-59329014D01*
X144503599Y-59071034D01*
X144588513Y-58791111D01*
X144617185Y-58500000D01*
X144588513Y-58208889D01*
X144503599Y-57928966D01*
X144365706Y-57670986D01*
X144180134Y-57444866D01*
X144116663Y-57392777D01*
X144218386Y-57338405D01*
X144352962Y-57227962D01*
X144463405Y-57093386D01*
X144545472Y-56939850D01*
X144596008Y-56773254D01*
X144613072Y-56600000D01*
X144613072Y-55400000D01*
X144596008Y-55226746D01*
X144545472Y-55060150D01*
X144463405Y-54906614D01*
X144352962Y-54772038D01*
X144218386Y-54661595D01*
X144064850Y-54579528D01*
X143898254Y-54528992D01*
X143725000Y-54511928D01*
X142275000Y-54511928D01*
X142101746Y-54528992D01*
X141935150Y-54579528D01*
X141781614Y-54661595D01*
X141647038Y-54772038D01*
X141536595Y-54906614D01*
X141454528Y-55060150D01*
X141403992Y-55226746D01*
X141386928Y-55400000D01*
X141386928Y-56538269D01*
X123510198Y-74415001D01*
X119971544Y-74415001D01*
X120025000Y-74146260D01*
X120025000Y-73853740D01*
X119967932Y-73566842D01*
X119855990Y-73296589D01*
X119693475Y-73053368D01*
X119486632Y-72846525D01*
X119243411Y-72684010D01*
X118973158Y-72572068D01*
X118686260Y-72515000D01*
X118393740Y-72515000D01*
X118106842Y-72572068D01*
X117836589Y-72684010D01*
X117593368Y-72846525D01*
X117406285Y-73033608D01*
X117338405Y-72906614D01*
X117227962Y-72772038D01*
X117093386Y-72661595D01*
X116939850Y-72579528D01*
X116773254Y-72528992D01*
X116600000Y-72511928D01*
X115400000Y-72511928D01*
X115226746Y-72528992D01*
X115060150Y-72579528D01*
X114906614Y-72661595D01*
X114772038Y-72772038D01*
X114661595Y-72906614D01*
X114579528Y-73060150D01*
X114528992Y-73226746D01*
X114511928Y-73400000D01*
X103127000Y-73400000D01*
X103127000Y-55120278D01*
X103278182Y-55221295D01*
X103939710Y-55495309D01*
X104641984Y-55635000D01*
X105358016Y-55635000D01*
X106060290Y-55495309D01*
X106721818Y-55221295D01*
X107317177Y-54823489D01*
X107823489Y-54317177D01*
X108221295Y-53721818D01*
X108495309Y-53060290D01*
X108635000Y-52358016D01*
X108635000Y-51641984D01*
X108495309Y-50939710D01*
X108221295Y-50278182D01*
X108120278Y-50127000D01*
X193879722Y-50127000D01*
X193778705Y-50278182D01*
%TA.AperFunction,NonConductor*%
D15*
G36*
X193778705Y-50278182D02*
G01*
X193504691Y-50939710D01*
X193365000Y-51641984D01*
X193365000Y-52358016D01*
X193504691Y-53060290D01*
X193778705Y-53721818D01*
X194176511Y-54317177D01*
X194682823Y-54823489D01*
X195278182Y-55221295D01*
X195939710Y-55495309D01*
X196641984Y-55635000D01*
X197358016Y-55635000D01*
X198060290Y-55495309D01*
X198721818Y-55221295D01*
X198873000Y-55120278D01*
X198873000Y-140879722D01*
X198721818Y-140778705D01*
X198060290Y-140504691D01*
X197358016Y-140365000D01*
X196641984Y-140365000D01*
X195939710Y-140504691D01*
X195278182Y-140778705D01*
X194682823Y-141176511D01*
X194176511Y-141682823D01*
X193778705Y-142278182D01*
X193504691Y-142939710D01*
X193365000Y-143641984D01*
X193365000Y-144358016D01*
X193504691Y-145060290D01*
X193778705Y-145721818D01*
X193879722Y-145873000D01*
X108120278Y-145873000D01*
X108221295Y-145721818D01*
X108495309Y-145060290D01*
X108635000Y-144358016D01*
X108635000Y-143641984D01*
X108495309Y-142939710D01*
X108221295Y-142278182D01*
X107823489Y-141682823D01*
X107317177Y-141176511D01*
X106721818Y-140778705D01*
X106060290Y-140504691D01*
X105358016Y-140365000D01*
X104641984Y-140365000D01*
X103939710Y-140504691D01*
X103278182Y-140778705D01*
X103127000Y-140879722D01*
X103127000Y-73400000D01*
X114511928Y-73400000D01*
X114511928Y-74600000D01*
X114528992Y-74773254D01*
X114579528Y-74939850D01*
X114661595Y-75093386D01*
X114772038Y-75227962D01*
X114906614Y-75338405D01*
X115033608Y-75406285D01*
X114846525Y-75593368D01*
X114684010Y-75836589D01*
X114572068Y-76106842D01*
X114515000Y-76393740D01*
X114515000Y-76686260D01*
X114572068Y-76973158D01*
X114684010Y-77243411D01*
X114846525Y-77486632D01*
X115053368Y-77693475D01*
X115227760Y-77810000D01*
X115053368Y-77926525D01*
X114846525Y-78133368D01*
X114684010Y-78376589D01*
X114572068Y-78646842D01*
X114515000Y-78933740D01*
X114515000Y-79226260D01*
X114572068Y-79513158D01*
X114684010Y-79783411D01*
X114846525Y-80026632D01*
X115053368Y-80233475D01*
X115227760Y-80350000D01*
X115053368Y-80466525D01*
X114846525Y-80673368D01*
X114684010Y-80916589D01*
X114572068Y-81186842D01*
X114515000Y-81473740D01*
X114515000Y-81766260D01*
X114572068Y-82053158D01*
X114684010Y-82323411D01*
X114846525Y-82566632D01*
X115053368Y-82773475D01*
X115227760Y-82890000D01*
X115053368Y-83006525D01*
X114846525Y-83213368D01*
X114684010Y-83456589D01*
X114572068Y-83726842D01*
X114515000Y-84013740D01*
X114515000Y-84306260D01*
X114572068Y-84593158D01*
X114684010Y-84863411D01*
X114846525Y-85106632D01*
X115053368Y-85313475D01*
X115227760Y-85430000D01*
X115053368Y-85546525D01*
X114846525Y-85753368D01*
X114684010Y-85996589D01*
X114572068Y-86266842D01*
X114515000Y-86553740D01*
X114515000Y-86846260D01*
X114572068Y-87133158D01*
X114684010Y-87403411D01*
X114846525Y-87646632D01*
X115053368Y-87853475D01*
X115227760Y-87970000D01*
X115053368Y-88086525D01*
X114846525Y-88293368D01*
X114684010Y-88536589D01*
X114572068Y-88806842D01*
X114515000Y-89093740D01*
X114515000Y-89386260D01*
X114572068Y-89673158D01*
X114684010Y-89943411D01*
X114846525Y-90186632D01*
X115053368Y-90393475D01*
X115227760Y-90510000D01*
X115053368Y-90626525D01*
X114846525Y-90833368D01*
X114684010Y-91076589D01*
X114572068Y-91346842D01*
X114515000Y-91633740D01*
X114515000Y-91926260D01*
X114572068Y-92213158D01*
X114684010Y-92483411D01*
X114846525Y-92726632D01*
X115053368Y-92933475D01*
X115227760Y-93050000D01*
X115053368Y-93166525D01*
X114846525Y-93373368D01*
X114684010Y-93616589D01*
X114572068Y-93886842D01*
X114515000Y-94173740D01*
X114515000Y-94466260D01*
X114572068Y-94753158D01*
X114684010Y-95023411D01*
X114846525Y-95266632D01*
X115053368Y-95473475D01*
X115227760Y-95590000D01*
X115053368Y-95706525D01*
X114846525Y-95913368D01*
X114684010Y-96156589D01*
X114572068Y-96426842D01*
X114515000Y-96713740D01*
X114515000Y-97006260D01*
X114572068Y-97293158D01*
X114684010Y-97563411D01*
X114846525Y-97806632D01*
X115053368Y-98013475D01*
X115227760Y-98130000D01*
X115053368Y-98246525D01*
X114846525Y-98453368D01*
X114684010Y-98696589D01*
X114572068Y-98966842D01*
X114515000Y-99253740D01*
X114515000Y-99546260D01*
X114572068Y-99833158D01*
X114684010Y-100103411D01*
X114846525Y-100346632D01*
X115053368Y-100553475D01*
X115227760Y-100670000D01*
X115053368Y-100786525D01*
X114846525Y-100993368D01*
X114684010Y-101236589D01*
X114572068Y-101506842D01*
X114515000Y-101793740D01*
X114515000Y-102086260D01*
X114572068Y-102373158D01*
X114684010Y-102643411D01*
X114846525Y-102886632D01*
X115053368Y-103093475D01*
X115227760Y-103210000D01*
X115053368Y-103326525D01*
X114846525Y-103533368D01*
X114684010Y-103776589D01*
X114572068Y-104046842D01*
X114515000Y-104333740D01*
X114515000Y-104626260D01*
X114572068Y-104913158D01*
X114684010Y-105183411D01*
X114846525Y-105426632D01*
X115053368Y-105633475D01*
X115227760Y-105750000D01*
X115053368Y-105866525D01*
X114846525Y-106073368D01*
X114684010Y-106316589D01*
X114572068Y-106586842D01*
X114515000Y-106873740D01*
X114515000Y-107166260D01*
X114572068Y-107453158D01*
X114684010Y-107723411D01*
X114846525Y-107966632D01*
X115053368Y-108173475D01*
X115227760Y-108290000D01*
X115053368Y-108406525D01*
X114846525Y-108613368D01*
X114684010Y-108856589D01*
X114572068Y-109126842D01*
X114515000Y-109413740D01*
X114515000Y-109706260D01*
X114572068Y-109993158D01*
X114684010Y-110263411D01*
X114846525Y-110506632D01*
X115053368Y-110713475D01*
X115227760Y-110830000D01*
X115053368Y-110946525D01*
X114846525Y-111153368D01*
X114684010Y-111396589D01*
X114572068Y-111666842D01*
X114515000Y-111953740D01*
X114515000Y-112246260D01*
X114572068Y-112533158D01*
X114684010Y-112803411D01*
X114846525Y-113046632D01*
X115053368Y-113253475D01*
X115227760Y-113370000D01*
X115053368Y-113486525D01*
X114846525Y-113693368D01*
X114684010Y-113936589D01*
X114572068Y-114206842D01*
X114515000Y-114493740D01*
X114515000Y-114786260D01*
X114572068Y-115073158D01*
X114684010Y-115343411D01*
X114846525Y-115586632D01*
X115053368Y-115793475D01*
X115227760Y-115910000D01*
X115053368Y-116026525D01*
X114846525Y-116233368D01*
X114684010Y-116476589D01*
X114572068Y-116746842D01*
X114515000Y-117033740D01*
X114515000Y-117326260D01*
X114572068Y-117613158D01*
X114684010Y-117883411D01*
X114846525Y-118126632D01*
X115053368Y-118333475D01*
X115227760Y-118450000D01*
X115053368Y-118566525D01*
X114846525Y-118773368D01*
X114684010Y-119016589D01*
X114572068Y-119286842D01*
X114515000Y-119573740D01*
X114515000Y-119866260D01*
X114572068Y-120153158D01*
X114684010Y-120423411D01*
X114846525Y-120666632D01*
X115053368Y-120873475D01*
X115227760Y-120990000D01*
X115053368Y-121106525D01*
X114846525Y-121313368D01*
X114684010Y-121556589D01*
X114572068Y-121826842D01*
X114515000Y-122113740D01*
X114515000Y-122406260D01*
X114572068Y-122693158D01*
X114684010Y-122963411D01*
X114846525Y-123206632D01*
X115053368Y-123413475D01*
X115296589Y-123575990D01*
X115566842Y-123687932D01*
X115853740Y-123745000D01*
X116146260Y-123745000D01*
X116433158Y-123687932D01*
X116703411Y-123575990D01*
X116946632Y-123413475D01*
X117153475Y-123206632D01*
X117270000Y-123032240D01*
X117386525Y-123206632D01*
X117593368Y-123413475D01*
X117836589Y-123575990D01*
X118106842Y-123687932D01*
X118393740Y-123745000D01*
X118686260Y-123745000D01*
X118973158Y-123687932D01*
X119243411Y-123575990D01*
X119486632Y-123413475D01*
X119693475Y-123206632D01*
X119818178Y-123020000D01*
X124445199Y-123020000D01*
X141463296Y-140038099D01*
X141411487Y-140208889D01*
X141382815Y-140500000D01*
X141411487Y-140791111D01*
X141496401Y-141071034D01*
X141634294Y-141329014D01*
X141819866Y-141555134D01*
X142045986Y-141740706D01*
X142303966Y-141878599D01*
X142583889Y-141963513D01*
X142802050Y-141985000D01*
X143197950Y-141985000D01*
X143416111Y-141963513D01*
X143696034Y-141878599D01*
X143954014Y-141740706D01*
X144180134Y-141555134D01*
X144365706Y-141329014D01*
X144503599Y-141071034D01*
X144588513Y-140791111D01*
X144617185Y-140500000D01*
X144588513Y-140208889D01*
X144503599Y-139928966D01*
X144365706Y-139670986D01*
X144180134Y-139444866D01*
X143954014Y-139259294D01*
X143936626Y-139250000D01*
X143954014Y-139240706D01*
X144180134Y-139055134D01*
X144365706Y-138829014D01*
X144503599Y-138571034D01*
X144588513Y-138291111D01*
X144617185Y-138000000D01*
X144588513Y-137708889D01*
X144503599Y-137428966D01*
X144365706Y-137170986D01*
X144180134Y-136944866D01*
X143954014Y-136759294D01*
X143936626Y-136750000D01*
X143954014Y-136740706D01*
X144180134Y-136555134D01*
X144365706Y-136329014D01*
X144503599Y-136071034D01*
X144588513Y-135791111D01*
X144617185Y-135500000D01*
X144588513Y-135208889D01*
X144503599Y-134928966D01*
X144365706Y-134670986D01*
X144180134Y-134444866D01*
X144116663Y-134392777D01*
X144218386Y-134338405D01*
X144352962Y-134227962D01*
X144463405Y-134093386D01*
X144545472Y-133939850D01*
X144596008Y-133773254D01*
X144613072Y-133600000D01*
X144613072Y-132400000D01*
X144596008Y-132226746D01*
X144545472Y-132060150D01*
X144463405Y-131906614D01*
X144352962Y-131772038D01*
X144218386Y-131661595D01*
X144064850Y-131579528D01*
X143898254Y-131528992D01*
X143725000Y-131511928D01*
X142586730Y-131511928D01*
X127834801Y-116760000D01*
X132185199Y-116760000D01*
X141463296Y-126038099D01*
X141411487Y-126208889D01*
X141382815Y-126500000D01*
X141411487Y-126791111D01*
X141496401Y-127071034D01*
X141634294Y-127329014D01*
X141819866Y-127555134D01*
X142045986Y-127740706D01*
X142303966Y-127878599D01*
X142583889Y-127963513D01*
X142802050Y-127985000D01*
X143197950Y-127985000D01*
X143416111Y-127963513D01*
X143696034Y-127878599D01*
X143954014Y-127740706D01*
X144180134Y-127555134D01*
X144365706Y-127329014D01*
X144503599Y-127071034D01*
X144588513Y-126791111D01*
X144617185Y-126500000D01*
X144588513Y-126208889D01*
X144503599Y-125928966D01*
X144365706Y-125670986D01*
X144180134Y-125444866D01*
X143954014Y-125259294D01*
X143936626Y-125250000D01*
X143954014Y-125240706D01*
X144180134Y-125055134D01*
X144365706Y-124829014D01*
X144503599Y-124571034D01*
X144588513Y-124291111D01*
X144617185Y-124000000D01*
X144588513Y-123708889D01*
X144503599Y-123428966D01*
X144365706Y-123170986D01*
X144180134Y-122944866D01*
X143954014Y-122759294D01*
X143936626Y-122750000D01*
X143954014Y-122740706D01*
X144180134Y-122555134D01*
X144365706Y-122329014D01*
X144503599Y-122071034D01*
X144588513Y-121791111D01*
X144617185Y-121500000D01*
X144588513Y-121208889D01*
X144503599Y-120928966D01*
X144365706Y-120670986D01*
X144180134Y-120444866D01*
X144116663Y-120392777D01*
X144218386Y-120338405D01*
X144352962Y-120227962D01*
X144463405Y-120093386D01*
X144545472Y-119939850D01*
X144596008Y-119773254D01*
X144613072Y-119600000D01*
X144613072Y-118400000D01*
X144596008Y-118226746D01*
X144545472Y-118060150D01*
X144463405Y-117906614D01*
X144352962Y-117772038D01*
X144218386Y-117661595D01*
X144064850Y-117579528D01*
X143898254Y-117528992D01*
X143725000Y-117511928D01*
X142586730Y-117511928D01*
X135488803Y-110414002D01*
X135465000Y-110384998D01*
X135349275Y-110290025D01*
X135217246Y-110219453D01*
X135073985Y-110175996D01*
X134962332Y-110164999D01*
X134962321Y-110164999D01*
X134924999Y-110161323D01*
X134887677Y-110164999D01*
X119896753Y-110164999D01*
X119967932Y-109993158D01*
X120025000Y-109706260D01*
X120025000Y-109413740D01*
X119971544Y-109144999D01*
X138570198Y-109144999D01*
X141463296Y-112038098D01*
X141411487Y-112208889D01*
X141382815Y-112500000D01*
X141411487Y-112791111D01*
X141496401Y-113071034D01*
X141634294Y-113329014D01*
X141819866Y-113555134D01*
X142045986Y-113740706D01*
X142303966Y-113878599D01*
X142583889Y-113963513D01*
X142802050Y-113985000D01*
X143197950Y-113985000D01*
X143416111Y-113963513D01*
X143696034Y-113878599D01*
X143954014Y-113740706D01*
X144180134Y-113555134D01*
X144365706Y-113329014D01*
X144503599Y-113071034D01*
X144588513Y-112791111D01*
X144617185Y-112500000D01*
X144588513Y-112208889D01*
X144503599Y-111928966D01*
X144365706Y-111670986D01*
X144180134Y-111444866D01*
X143954014Y-111259294D01*
X143936626Y-111250000D01*
X143954014Y-111240706D01*
X144180134Y-111055134D01*
X144365706Y-110829014D01*
X144503599Y-110571034D01*
X144588513Y-110291111D01*
X144617185Y-110000000D01*
X144588513Y-109708889D01*
X144503599Y-109428966D01*
X144365706Y-109170986D01*
X144180134Y-108944866D01*
X143954014Y-108759294D01*
X143936626Y-108750000D01*
X143954014Y-108740706D01*
X144180134Y-108555134D01*
X144365706Y-108329014D01*
X144503599Y-108071034D01*
X144588513Y-107791111D01*
X144617185Y-107500000D01*
X144588513Y-107208889D01*
X144503599Y-106928966D01*
X144365706Y-106670986D01*
X144180134Y-106444866D01*
X144116663Y-106392777D01*
X144218386Y-106338405D01*
X144352962Y-106227962D01*
X144463405Y-106093386D01*
X144545472Y-105939850D01*
X144596008Y-105773254D01*
X144613072Y-105600000D01*
X144613072Y-104400000D01*
X144596008Y-104226746D01*
X144545472Y-104060150D01*
X144463405Y-103906614D01*
X144352962Y-103772038D01*
X144218386Y-103661595D01*
X144064850Y-103579528D01*
X143898254Y-103528992D01*
X143725000Y-103511928D01*
X142586730Y-103511928D01*
X139328803Y-100254002D01*
X139305000Y-100224998D01*
X139225800Y-100160000D01*
X165543954Y-100160000D01*
X165634294Y-100329014D01*
X165819866Y-100555134D01*
X165883337Y-100607223D01*
X165781614Y-100661595D01*
X165647038Y-100772038D01*
X165536595Y-100906614D01*
X165454528Y-101060150D01*
X165403992Y-101226746D01*
X165386928Y-101400000D01*
X165386928Y-102600000D01*
X165403992Y-102773254D01*
X165454528Y-102939850D01*
X165536595Y-103093386D01*
X165647038Y-103227962D01*
X165781614Y-103338405D01*
X165935150Y-103420472D01*
X166101746Y-103471008D01*
X166275000Y-103488072D01*
X167725000Y-103488072D01*
X167898254Y-103471008D01*
X168064850Y-103420472D01*
X168218386Y-103338405D01*
X168352962Y-103227962D01*
X168463405Y-103093386D01*
X168545472Y-102939850D01*
X168596008Y-102773254D01*
X168613072Y-102600000D01*
X168613072Y-101461730D01*
X168811013Y-101263789D01*
X168840011Y-101239991D01*
X168934984Y-101124266D01*
X169005556Y-100992237D01*
X169049013Y-100848976D01*
X169060010Y-100737323D01*
X169060010Y-100737315D01*
X169063686Y-100699990D01*
X169060010Y-100662665D01*
X169060010Y-99050618D01*
X169063686Y-99013295D01*
X169060010Y-98975972D01*
X169060010Y-98975962D01*
X169049013Y-98864309D01*
X169005556Y-98721048D01*
X168968113Y-98650998D01*
X168934984Y-98589018D01*
X168863809Y-98502292D01*
X168840011Y-98473294D01*
X168811014Y-98449497D01*
X168286745Y-97925228D01*
X168365706Y-97829014D01*
X168503599Y-97571034D01*
X168588513Y-97291111D01*
X168617185Y-97000000D01*
X168588513Y-96708889D01*
X168503599Y-96428966D01*
X168365706Y-96170986D01*
X168180134Y-95944866D01*
X167954014Y-95759294D01*
X167936626Y-95750000D01*
X167954014Y-95740706D01*
X168180134Y-95555134D01*
X168365706Y-95329014D01*
X168503599Y-95071034D01*
X168588513Y-94791111D01*
X168617185Y-94500000D01*
X168588513Y-94208889D01*
X168503599Y-93928966D01*
X168365706Y-93670986D01*
X168180134Y-93444866D01*
X167954014Y-93259294D01*
X167696034Y-93121401D01*
X167416111Y-93036487D01*
X167197950Y-93015000D01*
X166802050Y-93015000D01*
X166583889Y-93036487D01*
X166303966Y-93121401D01*
X166045986Y-93259294D01*
X165819866Y-93444866D01*
X165634294Y-93670986D01*
X165496401Y-93928966D01*
X165411487Y-94208889D01*
X165382815Y-94500000D01*
X165411487Y-94791111D01*
X165496401Y-95071034D01*
X165634294Y-95329014D01*
X165819866Y-95555134D01*
X166045986Y-95740706D01*
X166063374Y-95750000D01*
X166045986Y-95759294D01*
X165819866Y-95944866D01*
X165634294Y-96170986D01*
X165496401Y-96428966D01*
X165411487Y-96708889D01*
X165382815Y-97000000D01*
X165411487Y-97291111D01*
X165464236Y-97464999D01*
X119896753Y-97464999D01*
X119967932Y-97293158D01*
X120025000Y-97006260D01*
X120025000Y-96713740D01*
X119971544Y-96444999D01*
X138777679Y-96444999D01*
X138815001Y-96448675D01*
X138852323Y-96444999D01*
X138852334Y-96444999D01*
X138963987Y-96434002D01*
X139107248Y-96390545D01*
X139239277Y-96319973D01*
X139355002Y-96225000D01*
X139378805Y-96195996D01*
X142608832Y-92965970D01*
X142802050Y-92985000D01*
X143197950Y-92985000D01*
X143416111Y-92963513D01*
X143696034Y-92878599D01*
X143954014Y-92740706D01*
X144180134Y-92555134D01*
X144365706Y-92329014D01*
X144503599Y-92071034D01*
X144588513Y-91791111D01*
X144617185Y-91500000D01*
X144588513Y-91208889D01*
X144503599Y-90928966D01*
X144365706Y-90670986D01*
X144180134Y-90444866D01*
X143954014Y-90259294D01*
X143936626Y-90250000D01*
X143954014Y-90240706D01*
X144180134Y-90055134D01*
X144365706Y-89829014D01*
X144503599Y-89571034D01*
X144588513Y-89291111D01*
X144617185Y-89000000D01*
X144588513Y-88708889D01*
X144503599Y-88428966D01*
X144365706Y-88170986D01*
X144180134Y-87944866D01*
X143954014Y-87759294D01*
X143936626Y-87750000D01*
X143954014Y-87740706D01*
X144180134Y-87555134D01*
X144365706Y-87329014D01*
X144503599Y-87071034D01*
X144588513Y-86791111D01*
X144617185Y-86500000D01*
X144588513Y-86208889D01*
X144503599Y-85928966D01*
X144365706Y-85670986D01*
X144180134Y-85444866D01*
X144116663Y-85392777D01*
X144218386Y-85338405D01*
X144352962Y-85227962D01*
X144463405Y-85093386D01*
X144545472Y-84939850D01*
X144596008Y-84773254D01*
X144613072Y-84600000D01*
X144613072Y-83400000D01*
X144596008Y-83226746D01*
X144545472Y-83060150D01*
X144463405Y-82906614D01*
X144352962Y-82772038D01*
X144218386Y-82661595D01*
X144064850Y-82579528D01*
X143898254Y-82528992D01*
X143725000Y-82511928D01*
X142275000Y-82511928D01*
X142101746Y-82528992D01*
X141935150Y-82579528D01*
X141781614Y-82661595D01*
X141647038Y-82772038D01*
X141536595Y-82906614D01*
X141454528Y-83060150D01*
X141403992Y-83226746D01*
X141386928Y-83400000D01*
X141386928Y-84538270D01*
X136080200Y-89844999D01*
X119896753Y-89844999D01*
X119967932Y-89673158D01*
X120025000Y-89386260D01*
X120025000Y-89093740D01*
X119971544Y-88824999D01*
X132397679Y-88824999D01*
X132435001Y-88828675D01*
X132472323Y-88824999D01*
X132472334Y-88824999D01*
X132583987Y-88814002D01*
X132727248Y-88770545D01*
X132859277Y-88699973D01*
X132975002Y-88605000D01*
X132998805Y-88575996D01*
X142608832Y-78965970D01*
X142802050Y-78985000D01*
X143197950Y-78985000D01*
X143416111Y-78963513D01*
X143696034Y-78878599D01*
X143954014Y-78740706D01*
X144180134Y-78555134D01*
X144365706Y-78329014D01*
X144503599Y-78071034D01*
X144588513Y-77791111D01*
X144617185Y-77500000D01*
X144588513Y-77208889D01*
X144503599Y-76928966D01*
X144365706Y-76670986D01*
X144180134Y-76444866D01*
X143954014Y-76259294D01*
X143936626Y-76250000D01*
X143954014Y-76240706D01*
X144180134Y-76055134D01*
X144365706Y-75829014D01*
X144503599Y-75571034D01*
X144588513Y-75291111D01*
X144617185Y-75000000D01*
X144588513Y-74708889D01*
X144503599Y-74428966D01*
X144365706Y-74170986D01*
X144180134Y-73944866D01*
X143954014Y-73759294D01*
X143936626Y-73750000D01*
X143954014Y-73740706D01*
X144180134Y-73555134D01*
X144365706Y-73329014D01*
X144503599Y-73071034D01*
X144588513Y-72791111D01*
X144617185Y-72500000D01*
X144588513Y-72208889D01*
X144503599Y-71928966D01*
X144365706Y-71670986D01*
X144180134Y-71444866D01*
X144116663Y-71392777D01*
X144218386Y-71338405D01*
X144352962Y-71227962D01*
X144463405Y-71093386D01*
X144545472Y-70939850D01*
X144596008Y-70773254D01*
X144613072Y-70600000D01*
X144613072Y-69400000D01*
X144596008Y-69226746D01*
X144545472Y-69060150D01*
X144463405Y-68906614D01*
X144352962Y-68772038D01*
X144218386Y-68661595D01*
X144064850Y-68579528D01*
X143898254Y-68528992D01*
X143725000Y-68511928D01*
X142275000Y-68511928D01*
X142101746Y-68528992D01*
X141935150Y-68579528D01*
X141781614Y-68661595D01*
X141647038Y-68772038D01*
X141536595Y-68906614D01*
X141454528Y-69060150D01*
X141403992Y-69226746D01*
X141386928Y-69400000D01*
X141386928Y-70538270D01*
X128525199Y-83400000D01*
X119818178Y-83400000D01*
X119693475Y-83213368D01*
X119486632Y-83006525D01*
X119312240Y-82890000D01*
X119486632Y-82773475D01*
X119693475Y-82566632D01*
X119818178Y-82380000D01*
X124842678Y-82380000D01*
X124880000Y-82383676D01*
X124917322Y-82380000D01*
X124917333Y-82380000D01*
X125028986Y-82369003D01*
X125172247Y-82325546D01*
X125304276Y-82254974D01*
X125420001Y-82160001D01*
X125443804Y-82130997D01*
X142608832Y-64965970D01*
X142802050Y-64985000D01*
X143197950Y-64985000D01*
X143416111Y-64963513D01*
X143696034Y-64878599D01*
X143954014Y-64740706D01*
X144180134Y-64555134D01*
X144365706Y-64329014D01*
X144503599Y-64071034D01*
X144588513Y-63791111D01*
X144617185Y-63500000D01*
X144588513Y-63208889D01*
X144503599Y-62928966D01*
X144365706Y-62670986D01*
X144180134Y-62444866D01*
X143954014Y-62259294D01*
X143936626Y-62250000D01*
X143954014Y-62240706D01*
X144180134Y-62055134D01*
X144365706Y-61829014D01*
X144503599Y-61571034D01*
X144588513Y-61291111D01*
X144617185Y-61000000D01*
X144588513Y-60708889D01*
X144503599Y-60428966D01*
X144365706Y-60170986D01*
X144180134Y-59944866D01*
X143954014Y-59759294D01*
X143936626Y-59750000D01*
X143954014Y-59740706D01*
X144180134Y-59555134D01*
X144365706Y-59329014D01*
X144503599Y-59071034D01*
X144588513Y-58791111D01*
X144617185Y-58500000D01*
X144588513Y-58208889D01*
X144503599Y-57928966D01*
X144365706Y-57670986D01*
X144180134Y-57444866D01*
X144116663Y-57392777D01*
X144218386Y-57338405D01*
X144352962Y-57227962D01*
X144463405Y-57093386D01*
X144545472Y-56939850D01*
X144596008Y-56773254D01*
X144613072Y-56600000D01*
X144613072Y-55400000D01*
X144596008Y-55226746D01*
X144545472Y-55060150D01*
X144463405Y-54906614D01*
X144352962Y-54772038D01*
X144218386Y-54661595D01*
X144064850Y-54579528D01*
X143898254Y-54528992D01*
X143725000Y-54511928D01*
X142275000Y-54511928D01*
X142101746Y-54528992D01*
X141935150Y-54579528D01*
X141781614Y-54661595D01*
X141647038Y-54772038D01*
X141536595Y-54906614D01*
X141454528Y-55060150D01*
X141403992Y-55226746D01*
X141386928Y-55400000D01*
X141386928Y-56538269D01*
X123510198Y-74415001D01*
X119971544Y-74415001D01*
X120025000Y-74146260D01*
X120025000Y-73853740D01*
X119967932Y-73566842D01*
X119855990Y-73296589D01*
X119693475Y-73053368D01*
X119486632Y-72846525D01*
X119243411Y-72684010D01*
X118973158Y-72572068D01*
X118686260Y-72515000D01*
X118393740Y-72515000D01*
X118106842Y-72572068D01*
X117836589Y-72684010D01*
X117593368Y-72846525D01*
X117406285Y-73033608D01*
X117338405Y-72906614D01*
X117227962Y-72772038D01*
X117093386Y-72661595D01*
X116939850Y-72579528D01*
X116773254Y-72528992D01*
X116600000Y-72511928D01*
X115400000Y-72511928D01*
X115226746Y-72528992D01*
X115060150Y-72579528D01*
X114906614Y-72661595D01*
X114772038Y-72772038D01*
X114661595Y-72906614D01*
X114579528Y-73060150D01*
X114528992Y-73226746D01*
X114511928Y-73400000D01*
X103127000Y-73400000D01*
X103127000Y-55120278D01*
X103278182Y-55221295D01*
X103939710Y-55495309D01*
X104641984Y-55635000D01*
X105358016Y-55635000D01*
X106060290Y-55495309D01*
X106721818Y-55221295D01*
X107317177Y-54823489D01*
X107823489Y-54317177D01*
X108221295Y-53721818D01*
X108495309Y-53060290D01*
X108635000Y-52358016D01*
X108635000Y-51641984D01*
X108495309Y-50939710D01*
X108221295Y-50278182D01*
X108120278Y-50127000D01*
X193879722Y-50127000D01*
X193778705Y-50278182D01*
G37*
%TD.AperFunction*%
D14*
X141463296Y-137538098D02*
X141411487Y-137708889D01*
X141400029Y-137825226D01*
X125323804Y-121749003D01*
X125300001Y-121719999D01*
X125184276Y-121625026D01*
X125052247Y-121554454D01*
X124908986Y-121510997D01*
X124797333Y-121500000D01*
X124797322Y-121500000D01*
X124760000Y-121496324D01*
X124722678Y-121500000D01*
X119818178Y-121500000D01*
X119693475Y-121313368D01*
X119486632Y-121106525D01*
X119312240Y-120990000D01*
X119486632Y-120873475D01*
X119693475Y-120666632D01*
X119818178Y-120480000D01*
X124405199Y-120480000D01*
X141463296Y-137538098D01*
%TA.AperFunction,NonConductor*%
D15*
G36*
X141463296Y-137538098D02*
G01*
X141411487Y-137708889D01*
X141400029Y-137825226D01*
X125323804Y-121749003D01*
X125300001Y-121719999D01*
X125184276Y-121625026D01*
X125052247Y-121554454D01*
X124908986Y-121510997D01*
X124797333Y-121500000D01*
X124797322Y-121500000D01*
X124760000Y-121496324D01*
X124722678Y-121500000D01*
X119818178Y-121500000D01*
X119693475Y-121313368D01*
X119486632Y-121106525D01*
X119312240Y-120990000D01*
X119486632Y-120873475D01*
X119693475Y-120666632D01*
X119818178Y-120480000D01*
X124405199Y-120480000D01*
X141463296Y-137538098D01*
G37*
%TD.AperFunction*%
D14*
X141463296Y-135038098D02*
X141411487Y-135208889D01*
X141400029Y-135325227D01*
X125379800Y-119304999D01*
X125730198Y-119304999D01*
X141463296Y-135038098D01*
%TA.AperFunction,NonConductor*%
D15*
G36*
X141463296Y-135038098D02*
G01*
X141411487Y-135208889D01*
X141400029Y-135325227D01*
X125379800Y-119304999D01*
X125730198Y-119304999D01*
X141463296Y-135038098D01*
G37*
%TD.AperFunction*%
D14*
X141386928Y-132461730D02*
X141386928Y-132812126D01*
X126608803Y-118034002D01*
X126585000Y-118004998D01*
X126505800Y-117940000D01*
X126865199Y-117940000D01*
X141386928Y-132461730D01*
%TA.AperFunction,NonConductor*%
D15*
G36*
X141386928Y-132461730D02*
G01*
X141386928Y-132812126D01*
X126608803Y-118034002D01*
X126585000Y-118004998D01*
X126505800Y-117940000D01*
X126865199Y-117940000D01*
X141386928Y-132461730D01*
G37*
%TD.AperFunction*%
D14*
X141463296Y-123538098D02*
X141411487Y-123708889D01*
X141400029Y-123825226D01*
X133063804Y-115489003D01*
X133040001Y-115459999D01*
X132924276Y-115365026D01*
X132792247Y-115294454D01*
X132648986Y-115250997D01*
X132537333Y-115240000D01*
X132537322Y-115240000D01*
X132500000Y-115236324D01*
X132462678Y-115240000D01*
X119898824Y-115240000D01*
X119967932Y-115073158D01*
X120025000Y-114786260D01*
X120025000Y-114493740D01*
X119971544Y-114224999D01*
X132150198Y-114224999D01*
X141463296Y-123538098D01*
%TA.AperFunction,NonConductor*%
D15*
G36*
X141463296Y-123538098D02*
G01*
X141411487Y-123708889D01*
X141400029Y-123825226D01*
X133063804Y-115489003D01*
X133040001Y-115459999D01*
X132924276Y-115365026D01*
X132792247Y-115294454D01*
X132648986Y-115250997D01*
X132537333Y-115240000D01*
X132537322Y-115240000D01*
X132500000Y-115236324D01*
X132462678Y-115240000D01*
X119898824Y-115240000D01*
X119967932Y-115073158D01*
X120025000Y-114786260D01*
X120025000Y-114493740D01*
X119971544Y-114224999D01*
X132150198Y-114224999D01*
X141463296Y-123538098D01*
G37*
%TD.AperFunction*%
D14*
X117386525Y-120666632D02*
X117593368Y-120873475D01*
X117767760Y-120990000D01*
X117593368Y-121106525D01*
X117386525Y-121313368D01*
X117270000Y-121487760D01*
X117153475Y-121313368D01*
X116946632Y-121106525D01*
X116772240Y-120990000D01*
X116946632Y-120873475D01*
X117153475Y-120666632D01*
X117270000Y-120492240D01*
X117386525Y-120666632D01*
%TA.AperFunction,NonConductor*%
D15*
G36*
X117386525Y-120666632D02*
G01*
X117593368Y-120873475D01*
X117767760Y-120990000D01*
X117593368Y-121106525D01*
X117386525Y-121313368D01*
X117270000Y-121487760D01*
X117153475Y-121313368D01*
X116946632Y-121106525D01*
X116772240Y-120990000D01*
X116946632Y-120873475D01*
X117153475Y-120666632D01*
X117270000Y-120492240D01*
X117386525Y-120666632D01*
G37*
%TD.AperFunction*%
D14*
X141463296Y-121038099D02*
X141411487Y-121208889D01*
X141400029Y-121325227D01*
X133028803Y-112954002D01*
X133005000Y-112924998D01*
X132925800Y-112860000D01*
X133285199Y-112860000D01*
X141463296Y-121038099D01*
%TA.AperFunction,NonConductor*%
D15*
G36*
X141463296Y-121038099D02*
G01*
X141411487Y-121208889D01*
X141400029Y-121325227D01*
X133028803Y-112954002D01*
X133005000Y-112924998D01*
X132925800Y-112860000D01*
X133285199Y-112860000D01*
X141463296Y-121038099D01*
G37*
%TD.AperFunction*%
D14*
X141386928Y-118461730D02*
X141386928Y-118812125D01*
X134259800Y-111684999D01*
X134610198Y-111684999D01*
X141386928Y-118461730D01*
%TA.AperFunction,NonConductor*%
D15*
G36*
X141386928Y-118461730D02*
G01*
X141386928Y-118812125D01*
X134259800Y-111684999D01*
X134610198Y-111684999D01*
X141386928Y-118461730D01*
G37*
%TD.AperFunction*%
D14*
X141463296Y-109538098D02*
X141411487Y-109708889D01*
X141400029Y-109825227D01*
X139448803Y-107874002D01*
X139425000Y-107844998D01*
X139309275Y-107750025D01*
X139177246Y-107679453D01*
X139033985Y-107635996D01*
X138922332Y-107624999D01*
X138922321Y-107624999D01*
X138884999Y-107621323D01*
X138847677Y-107624999D01*
X119896753Y-107624999D01*
X119967932Y-107453158D01*
X120025000Y-107166260D01*
X120025000Y-106873740D01*
X119967932Y-106586842D01*
X119855990Y-106316589D01*
X119693475Y-106073368D01*
X119486632Y-105866525D01*
X119312240Y-105750000D01*
X119486632Y-105633475D01*
X119693475Y-105426632D01*
X119818178Y-105240000D01*
X137165199Y-105240000D01*
X141463296Y-109538098D01*
%TA.AperFunction,NonConductor*%
D15*
G36*
X141463296Y-109538098D02*
G01*
X141411487Y-109708889D01*
X141400029Y-109825227D01*
X139448803Y-107874002D01*
X139425000Y-107844998D01*
X139309275Y-107750025D01*
X139177246Y-107679453D01*
X139033985Y-107635996D01*
X138922332Y-107624999D01*
X138922321Y-107624999D01*
X138884999Y-107621323D01*
X138847677Y-107624999D01*
X119896753Y-107624999D01*
X119967932Y-107453158D01*
X120025000Y-107166260D01*
X120025000Y-106873740D01*
X119967932Y-106586842D01*
X119855990Y-106316589D01*
X119693475Y-106073368D01*
X119486632Y-105866525D01*
X119312240Y-105750000D01*
X119486632Y-105633475D01*
X119693475Y-105426632D01*
X119818178Y-105240000D01*
X137165199Y-105240000D01*
X141463296Y-109538098D01*
G37*
%TD.AperFunction*%
D14*
X141463296Y-107038099D02*
X141411487Y-107208889D01*
X141400029Y-107325227D01*
X138043804Y-103969003D01*
X138020001Y-103939999D01*
X137904276Y-103845026D01*
X137772247Y-103774454D01*
X137628986Y-103730997D01*
X137517333Y-103720000D01*
X137517322Y-103720000D01*
X137480000Y-103716324D01*
X137442678Y-103720000D01*
X119818178Y-103720000D01*
X119693475Y-103533368D01*
X119486632Y-103326525D01*
X119312240Y-103210000D01*
X119486632Y-103093475D01*
X119693475Y-102886632D01*
X119818178Y-102700000D01*
X137125199Y-102700000D01*
X141463296Y-107038099D01*
%TA.AperFunction,NonConductor*%
D15*
G36*
X141463296Y-107038099D02*
G01*
X141411487Y-107208889D01*
X141400029Y-107325227D01*
X138043804Y-103969003D01*
X138020001Y-103939999D01*
X137904276Y-103845026D01*
X137772247Y-103774454D01*
X137628986Y-103730997D01*
X137517333Y-103720000D01*
X137517322Y-103720000D01*
X137480000Y-103716324D01*
X137442678Y-103720000D01*
X119818178Y-103720000D01*
X119693475Y-103533368D01*
X119486632Y-103326525D01*
X119312240Y-103210000D01*
X119486632Y-103093475D01*
X119693475Y-102886632D01*
X119818178Y-102700000D01*
X137125199Y-102700000D01*
X141463296Y-107038099D01*
G37*
%TD.AperFunction*%
D14*
X117386525Y-105426632D02*
X117593368Y-105633475D01*
X117767760Y-105750000D01*
X117593368Y-105866525D01*
X117386525Y-106073368D01*
X117270000Y-106247760D01*
X117153475Y-106073368D01*
X116946632Y-105866525D01*
X116772240Y-105750000D01*
X116946632Y-105633475D01*
X117153475Y-105426632D01*
X117270000Y-105252240D01*
X117386525Y-105426632D01*
%TA.AperFunction,NonConductor*%
D15*
G36*
X117386525Y-105426632D02*
G01*
X117593368Y-105633475D01*
X117767760Y-105750000D01*
X117593368Y-105866525D01*
X117386525Y-106073368D01*
X117270000Y-106247760D01*
X117153475Y-106073368D01*
X116946632Y-105866525D01*
X116772240Y-105750000D01*
X116946632Y-105633475D01*
X117153475Y-105426632D01*
X117270000Y-105252240D01*
X117386525Y-105426632D01*
G37*
%TD.AperFunction*%
D14*
X141386928Y-104461730D02*
X141386928Y-104812126D01*
X138099800Y-101524999D01*
X138450198Y-101524999D01*
X141386928Y-104461730D01*
%TA.AperFunction,NonConductor*%
D15*
G36*
X141386928Y-104461730D02*
G01*
X141386928Y-104812126D01*
X138099800Y-101524999D01*
X138450198Y-101524999D01*
X141386928Y-104461730D01*
G37*
%TD.AperFunction*%
D14*
X117386525Y-102886632D02*
X117593368Y-103093475D01*
X117767760Y-103210000D01*
X117593368Y-103326525D01*
X117386525Y-103533368D01*
X117270000Y-103707760D01*
X117153475Y-103533368D01*
X116946632Y-103326525D01*
X116772240Y-103210000D01*
X116946632Y-103093475D01*
X117153475Y-102886632D01*
X117270000Y-102712240D01*
X117386525Y-102886632D01*
%TA.AperFunction,NonConductor*%
D15*
G36*
X117386525Y-102886632D02*
G01*
X117593368Y-103093475D01*
X117767760Y-103210000D01*
X117593368Y-103326525D01*
X117386525Y-103533368D01*
X117270000Y-103707760D01*
X117153475Y-103533368D01*
X116946632Y-103326525D01*
X116772240Y-103210000D01*
X116946632Y-103093475D01*
X117153475Y-102886632D01*
X117270000Y-102712240D01*
X117386525Y-102886632D01*
G37*
%TD.AperFunction*%
D14*
X141411487Y-91791111D02*
X141463296Y-91961902D01*
X138500200Y-94924999D01*
X138140801Y-94924999D01*
X138220001Y-94860001D01*
X138243804Y-94830997D01*
X141400029Y-91674773D01*
X141411487Y-91791111D01*
%TA.AperFunction,NonConductor*%
D15*
G36*
X141411487Y-91791111D02*
G01*
X141463296Y-91961902D01*
X138500200Y-94924999D01*
X138140801Y-94924999D01*
X138220001Y-94860001D01*
X138243804Y-94830997D01*
X141400029Y-91674773D01*
X141411487Y-91791111D01*
G37*
%TD.AperFunction*%
D14*
X141411487Y-89291111D02*
X141463296Y-89461902D01*
X137365199Y-93560000D01*
X119818178Y-93560000D01*
X119693475Y-93373368D01*
X119486632Y-93166525D01*
X119312240Y-93050000D01*
X119486632Y-92933475D01*
X119693475Y-92726632D01*
X119818178Y-92540000D01*
X137682678Y-92540000D01*
X137720000Y-92543676D01*
X137757322Y-92540000D01*
X137757333Y-92540000D01*
X137868986Y-92529003D01*
X138012247Y-92485546D01*
X138144276Y-92414974D01*
X138260001Y-92320001D01*
X138283804Y-92290997D01*
X141400029Y-89174773D01*
X141411487Y-89291111D01*
%TA.AperFunction,NonConductor*%
D15*
G36*
X141411487Y-89291111D02*
G01*
X141463296Y-89461902D01*
X137365199Y-93560000D01*
X119818178Y-93560000D01*
X119693475Y-93373368D01*
X119486632Y-93166525D01*
X119312240Y-93050000D01*
X119486632Y-92933475D01*
X119693475Y-92726632D01*
X119818178Y-92540000D01*
X137682678Y-92540000D01*
X137720000Y-92543676D01*
X137757322Y-92540000D01*
X137757333Y-92540000D01*
X137868986Y-92529003D01*
X138012247Y-92485546D01*
X138144276Y-92414974D01*
X138260001Y-92320001D01*
X138283804Y-92290997D01*
X141400029Y-89174773D01*
X141411487Y-89291111D01*
G37*
%TD.AperFunction*%
D14*
X117386525Y-92726632D02*
X117593368Y-92933475D01*
X117767760Y-93050000D01*
X117593368Y-93166525D01*
X117386525Y-93373368D01*
X117270000Y-93547760D01*
X117153475Y-93373368D01*
X116946632Y-93166525D01*
X116772240Y-93050000D01*
X116946632Y-92933475D01*
X117153475Y-92726632D01*
X117270000Y-92552240D01*
X117386525Y-92726632D01*
%TA.AperFunction,NonConductor*%
D15*
G36*
X117386525Y-92726632D02*
G01*
X117593368Y-92933475D01*
X117767760Y-93050000D01*
X117593368Y-93166525D01*
X117386525Y-93373368D01*
X117270000Y-93547760D01*
X117153475Y-93373368D01*
X116946632Y-93166525D01*
X116772240Y-93050000D01*
X116946632Y-92933475D01*
X117153475Y-92726632D01*
X117270000Y-92552240D01*
X117386525Y-92726632D01*
G37*
%TD.AperFunction*%
D14*
X141411487Y-86791111D02*
X141463296Y-86961902D01*
X137405199Y-91020000D01*
X137054801Y-91020000D01*
X141400029Y-86674773D01*
X141411487Y-86791111D01*
%TA.AperFunction,NonConductor*%
D15*
G36*
X141411487Y-86791111D02*
G01*
X141463296Y-86961902D01*
X137405199Y-91020000D01*
X137054801Y-91020000D01*
X141400029Y-86674773D01*
X141411487Y-86791111D01*
G37*
%TD.AperFunction*%
D14*
X141411487Y-77791111D02*
X141463296Y-77961902D01*
X132120200Y-87304999D01*
X131760801Y-87304999D01*
X131840001Y-87240001D01*
X131863804Y-87210997D01*
X141400029Y-77674773D01*
X141411487Y-77791111D01*
%TA.AperFunction,NonConductor*%
D15*
G36*
X141411487Y-77791111D02*
G01*
X141463296Y-77961902D01*
X132120200Y-87304999D01*
X131760801Y-87304999D01*
X131840001Y-87240001D01*
X131863804Y-87210997D01*
X141400029Y-77674773D01*
X141411487Y-77791111D01*
G37*
%TD.AperFunction*%
D14*
X141411487Y-75291111D02*
X141463296Y-75461902D01*
X130985199Y-85940000D01*
X130634801Y-85940000D01*
X141400029Y-75174773D01*
X141411487Y-75291111D01*
%TA.AperFunction,NonConductor*%
D15*
G36*
X141411487Y-75291111D02*
G01*
X141463296Y-75461902D01*
X130985199Y-85940000D01*
X130634801Y-85940000D01*
X141400029Y-75174773D01*
X141411487Y-75291111D01*
G37*
%TD.AperFunction*%
D14*
X141411487Y-72791111D02*
X141463296Y-72961902D01*
X129660200Y-84764999D01*
X129300801Y-84764999D01*
X129380001Y-84700001D01*
X129403804Y-84670997D01*
X141400029Y-72674773D01*
X141411487Y-72791111D01*
%TA.AperFunction,NonConductor*%
D15*
G36*
X141411487Y-72791111D02*
G01*
X141463296Y-72961902D01*
X129660200Y-84764999D01*
X129300801Y-84764999D01*
X129380001Y-84700001D01*
X129403804Y-84670997D01*
X141400029Y-72674773D01*
X141411487Y-72791111D01*
G37*
%TD.AperFunction*%
D14*
X117386525Y-82566632D02*
X117593368Y-82773475D01*
X117767760Y-82890000D01*
X117593368Y-83006525D01*
X117386525Y-83213368D01*
X117270000Y-83387760D01*
X117153475Y-83213368D01*
X116946632Y-83006525D01*
X116772240Y-82890000D01*
X116946632Y-82773475D01*
X117153475Y-82566632D01*
X117270000Y-82392240D01*
X117386525Y-82566632D01*
%TA.AperFunction,NonConductor*%
D15*
G36*
X117386525Y-82566632D02*
G01*
X117593368Y-82773475D01*
X117767760Y-82890000D01*
X117593368Y-83006525D01*
X117386525Y-83213368D01*
X117270000Y-83387760D01*
X117153475Y-83213368D01*
X116946632Y-83006525D01*
X116772240Y-82890000D01*
X116946632Y-82773475D01*
X117153475Y-82566632D01*
X117270000Y-82392240D01*
X117386525Y-82566632D01*
G37*
%TD.AperFunction*%
D14*
X141411487Y-63791111D02*
X141463296Y-63961902D01*
X124565199Y-80860000D01*
X124214801Y-80860000D01*
X141400029Y-63674773D01*
X141411487Y-63791111D01*
%TA.AperFunction,NonConductor*%
D15*
G36*
X141411487Y-63791111D02*
G01*
X141463296Y-63961902D01*
X124565199Y-80860000D01*
X124214801Y-80860000D01*
X141400029Y-63674773D01*
X141411487Y-63791111D01*
G37*
%TD.AperFunction*%
D14*
X141411487Y-61291111D02*
X141463296Y-61461902D01*
X123240200Y-79684999D01*
X119896753Y-79684999D01*
X119967932Y-79513158D01*
X120025000Y-79226260D01*
X120025000Y-78933740D01*
X119971544Y-78664999D01*
X123557679Y-78664999D01*
X123595001Y-78668675D01*
X123632323Y-78664999D01*
X123632334Y-78664999D01*
X123743987Y-78654002D01*
X123887248Y-78610545D01*
X124019277Y-78539973D01*
X124135002Y-78445000D01*
X124158805Y-78415996D01*
X141400029Y-61174773D01*
X141411487Y-61291111D01*
%TA.AperFunction,NonConductor*%
D15*
G36*
X141411487Y-61291111D02*
G01*
X141463296Y-61461902D01*
X123240200Y-79684999D01*
X119896753Y-79684999D01*
X119967932Y-79513158D01*
X120025000Y-79226260D01*
X120025000Y-78933740D01*
X119971544Y-78664999D01*
X123557679Y-78664999D01*
X123595001Y-78668675D01*
X123632323Y-78664999D01*
X123632334Y-78664999D01*
X123743987Y-78654002D01*
X123887248Y-78610545D01*
X124019277Y-78539973D01*
X124135002Y-78445000D01*
X124158805Y-78415996D01*
X141400029Y-61174773D01*
X141411487Y-61291111D01*
G37*
%TD.AperFunction*%
D14*
X141411487Y-58791111D02*
X141463296Y-58961902D01*
X123280200Y-77144999D01*
X119896753Y-77144999D01*
X119967932Y-76973158D01*
X120025000Y-76686260D01*
X120025000Y-76393740D01*
X119967932Y-76106842D01*
X119896753Y-75935001D01*
X123787677Y-75935001D01*
X123824999Y-75938677D01*
X123862321Y-75935001D01*
X123862332Y-75935001D01*
X123973985Y-75924004D01*
X124117246Y-75880547D01*
X124249275Y-75809975D01*
X124365000Y-75715002D01*
X124388803Y-75685998D01*
X141400029Y-58674774D01*
X141411487Y-58791111D01*
%TA.AperFunction,NonConductor*%
D15*
G36*
X141411487Y-58791111D02*
G01*
X141463296Y-58961902D01*
X123280200Y-77144999D01*
X119896753Y-77144999D01*
X119967932Y-76973158D01*
X120025000Y-76686260D01*
X120025000Y-76393740D01*
X119967932Y-76106842D01*
X119896753Y-75935001D01*
X123787677Y-75935001D01*
X123824999Y-75938677D01*
X123862321Y-75935001D01*
X123862332Y-75935001D01*
X123973985Y-75924004D01*
X124117246Y-75880547D01*
X124249275Y-75809975D01*
X124365000Y-75715002D01*
X124388803Y-75685998D01*
X141400029Y-58674774D01*
X141411487Y-58791111D01*
G37*
%TD.AperFunction*%
M02*
