%TF.GenerationSoftware,KiCad,Pcbnew,(5.1.9-0-10_14)*%
%TF.CreationDate,2021-09-26T12:14:21-07:00*%
%TF.ProjectId,rpi-arcade-hat,7270692d-6172-4636-9164-652d6861742e,rev?*%
%TF.SameCoordinates,Original*%
%TF.FileFunction,Copper,L2,Bot*%
%TF.FilePolarity,Positive*%
%FSLAX46Y46*%
G04 Gerber Fmt 4.6, Leading zero omitted, Abs format (unit mm)*
G04 Created by KiCad (PCBNEW (5.1.9-0-10_14)) date 2021-09-26 12:14:21*
%MOMM*%
%LPD*%
G01*
G04 APERTURE LIST*
%TA.AperFunction,ComponentPad*%
%ADD10O,1.950000X1.700000*%
%TD*%
%TA.AperFunction,ComponentPad*%
%ADD11C,1.700000*%
%TD*%
%TA.AperFunction,ComponentPad*%
%ADD12O,1.700000X1.950000*%
%TD*%
%TA.AperFunction,ComponentPad*%
%ADD13C,6.000000*%
%TD*%
%TA.AperFunction,Conductor*%
%ADD14C,0.250000*%
%TD*%
%TA.AperFunction,Conductor*%
%ADD15C,0.254000*%
%TD*%
%TA.AperFunction,Conductor*%
%ADD16C,0.100000*%
%TD*%
G04 APERTURE END LIST*
D10*
%TO.P,J8,4*%
%TO.N,GND*%
X160020000Y-91560000D03*
%TO.P,J8,3*%
X160020000Y-94060000D03*
%TO.P,J8,2*%
%TO.N,Net-(J1-Pad22)*%
X160020000Y-96560000D03*
%TO.P,J8,1*%
%TO.N,Net-(J1-Pad21)*%
%TA.AperFunction,ComponentPad*%
G36*
G01*
X160745000Y-99910000D02*
X159295000Y-99910000D01*
G75*
G02*
X159045000Y-99660000I0J250000D01*
G01*
X159045000Y-98460000D01*
G75*
G02*
X159295000Y-98210000I250000J0D01*
G01*
X160745000Y-98210000D01*
G75*
G02*
X160995000Y-98460000I0J-250000D01*
G01*
X160995000Y-99660000D01*
G75*
G02*
X160745000Y-99910000I-250000J0D01*
G01*
G37*
%TD.AperFunction*%
%TD*%
D11*
%TO.P,J1,40*%
%TO.N,Net-(J1-Pad40)*%
X134620000Y-119380000D03*
%TO.P,J1,38*%
%TO.N,Net-(J1-Pad38)*%
X134620000Y-116840000D03*
%TO.P,J1,36*%
%TO.N,Net-(J1-Pad36)*%
X134620000Y-114300000D03*
%TO.P,J1,34*%
%TO.N,GND*%
X134620000Y-111760000D03*
%TO.P,J1,32*%
%TO.N,Net-(J1-Pad32)*%
X134620000Y-109220000D03*
%TO.P,J1,30*%
%TO.N,GND*%
X134620000Y-106680000D03*
%TO.P,J1,28*%
%TO.N,Net-(J1-Pad28)*%
X134620000Y-104140000D03*
%TO.P,J1,26*%
%TO.N,Net-(J1-Pad26)*%
X134620000Y-101600000D03*
%TO.P,J1,24*%
%TO.N,Net-(J1-Pad24)*%
X134620000Y-99060000D03*
%TO.P,J1,22*%
%TO.N,Net-(J1-Pad22)*%
X134620000Y-96520000D03*
%TO.P,J1,20*%
%TO.N,GND*%
X134620000Y-93980000D03*
%TO.P,J1,18*%
%TO.N,Net-(J1-Pad18)*%
X134620000Y-91440000D03*
%TO.P,J1,16*%
%TO.N,Net-(J1-Pad16)*%
X134620000Y-88900000D03*
%TO.P,J1,14*%
%TO.N,GND*%
X134620000Y-86360000D03*
%TO.P,J1,12*%
%TO.N,Net-(J1-Pad12)*%
X134620000Y-83820000D03*
%TO.P,J1,10*%
%TO.N,Net-(J1-Pad10)*%
X134620000Y-81280000D03*
%TO.P,J1,8*%
%TO.N,Net-(J1-Pad8)*%
X134620000Y-78740000D03*
%TO.P,J1,6*%
%TO.N,GND*%
X134620000Y-76200000D03*
%TO.P,J1,4*%
%TO.N,Net-(J1-Pad4)*%
X134620000Y-73660000D03*
%TO.P,J1,2*%
%TO.N,Net-(J1-Pad2)*%
X134620000Y-71120000D03*
%TO.P,J1,39*%
%TO.N,GND*%
X132080000Y-119380000D03*
%TO.P,J1,37*%
%TO.N,Net-(J1-Pad37)*%
X132080000Y-116840000D03*
%TO.P,J1,35*%
%TO.N,Net-(J1-Pad35)*%
X132080000Y-114300000D03*
%TO.P,J1,33*%
%TO.N,Net-(J1-Pad33)*%
X132080000Y-111760000D03*
%TO.P,J1,31*%
%TO.N,Net-(J1-Pad31)*%
X132080000Y-109220000D03*
%TO.P,J1,29*%
%TO.N,Net-(J1-Pad29)*%
X132080000Y-106680000D03*
%TO.P,J1,27*%
%TO.N,Net-(J1-Pad27)*%
X132080000Y-104140000D03*
%TO.P,J1,25*%
%TO.N,GND*%
X132080000Y-101600000D03*
%TO.P,J1,23*%
%TO.N,Net-(J1-Pad23)*%
X132080000Y-99060000D03*
%TO.P,J1,21*%
%TO.N,Net-(J1-Pad21)*%
X132080000Y-96520000D03*
%TO.P,J1,19*%
%TO.N,Net-(J1-Pad19)*%
X132080000Y-93980000D03*
%TO.P,J1,17*%
%TO.N,Net-(J1-Pad17)*%
X132080000Y-91440000D03*
%TO.P,J1,15*%
%TO.N,Net-(J1-Pad15)*%
X132080000Y-88900000D03*
%TO.P,J1,13*%
%TO.N,Net-(J1-Pad13)*%
X132080000Y-86360000D03*
%TO.P,J1,11*%
%TO.N,Net-(J1-Pad11)*%
X132080000Y-83820000D03*
%TO.P,J1,9*%
%TO.N,GND*%
X132080000Y-81280000D03*
%TO.P,J1,7*%
%TO.N,Net-(J1-Pad7)*%
X132080000Y-78740000D03*
%TO.P,J1,5*%
%TO.N,Net-(J1-Pad5)*%
X132080000Y-76200000D03*
%TO.P,J1,3*%
%TO.N,Net-(J1-Pad3)*%
X132080000Y-73660000D03*
%TO.P,J1,1*%
%TO.N,Net-(J1-Pad1)*%
%TA.AperFunction,ComponentPad*%
G36*
G01*
X131230000Y-71720000D02*
X131230000Y-70520000D01*
G75*
G02*
X131480000Y-70270000I250000J0D01*
G01*
X132680000Y-70270000D01*
G75*
G02*
X132930000Y-70520000I0J-250000D01*
G01*
X132930000Y-71720000D01*
G75*
G02*
X132680000Y-71970000I-250000J0D01*
G01*
X131480000Y-71970000D01*
G75*
G02*
X131230000Y-71720000I0J250000D01*
G01*
G37*
%TD.AperFunction*%
%TD*%
D12*
%TO.P,J7,4*%
%TO.N,Net-(J1-Pad19)*%
X151010000Y-87630000D03*
%TO.P,J7,3*%
%TO.N,Net-(J1-Pad18)*%
X148510000Y-87630000D03*
%TO.P,J7,2*%
%TO.N,Net-(J1-Pad16)*%
X146010000Y-87630000D03*
%TO.P,J7,1*%
%TO.N,Net-(J1-Pad15)*%
%TA.AperFunction,ComponentPad*%
G36*
G01*
X142660000Y-88355000D02*
X142660000Y-86905000D01*
G75*
G02*
X142910000Y-86655000I250000J0D01*
G01*
X144110000Y-86655000D01*
G75*
G02*
X144360000Y-86905000I0J-250000D01*
G01*
X144360000Y-88355000D01*
G75*
G02*
X144110000Y-88605000I-250000J0D01*
G01*
X142910000Y-88605000D01*
G75*
G02*
X142660000Y-88355000I0J250000D01*
G01*
G37*
%TD.AperFunction*%
%TD*%
%TO.P,J6,4*%
%TO.N,Net-(J1-Pad13)*%
X151010000Y-78740000D03*
%TO.P,J6,3*%
%TO.N,Net-(J1-Pad12)*%
X148510000Y-78740000D03*
%TO.P,J6,2*%
%TO.N,Net-(J1-Pad11)*%
X146010000Y-78740000D03*
%TO.P,J6,1*%
%TO.N,Net-(J1-Pad10)*%
%TA.AperFunction,ComponentPad*%
G36*
G01*
X142660000Y-79465000D02*
X142660000Y-78015000D01*
G75*
G02*
X142910000Y-77765000I250000J0D01*
G01*
X144110000Y-77765000D01*
G75*
G02*
X144360000Y-78015000I0J-250000D01*
G01*
X144360000Y-79465000D01*
G75*
G02*
X144110000Y-79715000I-250000J0D01*
G01*
X142910000Y-79715000D01*
G75*
G02*
X142660000Y-79465000I0J250000D01*
G01*
G37*
%TD.AperFunction*%
%TD*%
%TO.P,J5,4*%
%TO.N,Net-(J1-Pad8)*%
X151010000Y-69850000D03*
%TO.P,J5,3*%
%TO.N,Net-(J1-Pad7)*%
X148510000Y-69850000D03*
%TO.P,J5,2*%
%TO.N,Net-(J1-Pad5)*%
X146010000Y-69850000D03*
%TO.P,J5,1*%
%TO.N,Net-(J1-Pad3)*%
%TA.AperFunction,ComponentPad*%
G36*
G01*
X142660000Y-70575000D02*
X142660000Y-69125000D01*
G75*
G02*
X142910000Y-68875000I250000J0D01*
G01*
X144110000Y-68875000D01*
G75*
G02*
X144360000Y-69125000I0J-250000D01*
G01*
X144360000Y-70575000D01*
G75*
G02*
X144110000Y-70825000I-250000J0D01*
G01*
X142910000Y-70825000D01*
G75*
G02*
X142660000Y-70575000I0J250000D01*
G01*
G37*
%TD.AperFunction*%
%TD*%
%TO.P,J4,4*%
%TO.N,Net-(J1-Pad40)*%
X151010000Y-118110000D03*
%TO.P,J4,3*%
%TO.N,Net-(J1-Pad38)*%
X148510000Y-118110000D03*
%TO.P,J4,2*%
%TO.N,Net-(J1-Pad37)*%
X146010000Y-118110000D03*
%TO.P,J4,1*%
%TO.N,Net-(J1-Pad36)*%
%TA.AperFunction,ComponentPad*%
G36*
G01*
X142660000Y-118835000D02*
X142660000Y-117385000D01*
G75*
G02*
X142910000Y-117135000I250000J0D01*
G01*
X144110000Y-117135000D01*
G75*
G02*
X144360000Y-117385000I0J-250000D01*
G01*
X144360000Y-118835000D01*
G75*
G02*
X144110000Y-119085000I-250000J0D01*
G01*
X142910000Y-119085000D01*
G75*
G02*
X142660000Y-118835000I0J250000D01*
G01*
G37*
%TD.AperFunction*%
%TD*%
%TO.P,J3,4*%
%TO.N,Net-(J1-Pad35)*%
X151010000Y-109220000D03*
%TO.P,J3,3*%
%TO.N,Net-(J1-Pad33)*%
X148510000Y-109220000D03*
%TO.P,J3,2*%
%TO.N,Net-(J1-Pad32)*%
X146010000Y-109220000D03*
%TO.P,J3,1*%
%TO.N,Net-(J1-Pad31)*%
%TA.AperFunction,ComponentPad*%
G36*
G01*
X142660000Y-109945000D02*
X142660000Y-108495000D01*
G75*
G02*
X142910000Y-108245000I250000J0D01*
G01*
X144110000Y-108245000D01*
G75*
G02*
X144360000Y-108495000I0J-250000D01*
G01*
X144360000Y-109945000D01*
G75*
G02*
X144110000Y-110195000I-250000J0D01*
G01*
X142910000Y-110195000D01*
G75*
G02*
X142660000Y-109945000I0J250000D01*
G01*
G37*
%TD.AperFunction*%
%TD*%
%TO.P,J2,4*%
%TO.N,Net-(J1-Pad29)*%
X151010000Y-100330000D03*
%TO.P,J2,3*%
%TO.N,Net-(J1-Pad26)*%
X148510000Y-100330000D03*
%TO.P,J2,2*%
%TO.N,Net-(J1-Pad24)*%
X146010000Y-100330000D03*
%TO.P,J2,1*%
%TO.N,Net-(J1-Pad23)*%
%TA.AperFunction,ComponentPad*%
G36*
G01*
X142660000Y-101055000D02*
X142660000Y-99605000D01*
G75*
G02*
X142910000Y-99355000I250000J0D01*
G01*
X144110000Y-99355000D01*
G75*
G02*
X144360000Y-99605000I0J-250000D01*
G01*
X144360000Y-101055000D01*
G75*
G02*
X144110000Y-101305000I-250000J0D01*
G01*
X142910000Y-101305000D01*
G75*
G02*
X142660000Y-101055000I0J250000D01*
G01*
G37*
%TD.AperFunction*%
%TD*%
D13*
%TO.P,REF\u002A\u002A,3*%
%TO.N,GND*%
X128270000Y-128270000D03*
%TD*%
%TO.P,REF\u002A\u002A,4*%
%TO.N,GND*%
X162560000Y-128270000D03*
%TD*%
%TO.P,REF\u002A\u002A,1*%
%TO.N,GND*%
X128270000Y-62230000D03*
%TD*%
%TO.P,REF\u002A\u002A,2*%
%TO.N,GND*%
X162560000Y-62230000D03*
%TD*%
D14*
%TO.N,GND*%
X133355199Y-113024801D02*
X134620000Y-111760000D01*
X133355199Y-118104801D02*
X133355199Y-113024801D01*
X132080000Y-119380000D02*
X133355199Y-118104801D01*
X134620000Y-111760000D02*
X133350000Y-110490000D01*
X133350000Y-107950000D02*
X134620000Y-106680000D01*
X133350000Y-110490000D02*
X133350000Y-107950000D01*
X133355199Y-102875199D02*
X132080000Y-101600000D01*
X133355199Y-105415199D02*
X133355199Y-102875199D01*
X134620000Y-106680000D02*
X133355199Y-105415199D01*
X133355199Y-95244801D02*
X134620000Y-93980000D01*
X133355199Y-100324801D02*
X133355199Y-95244801D01*
X132080000Y-101600000D02*
X133355199Y-100324801D01*
X134620000Y-93980000D02*
X133350000Y-92710000D01*
X133350000Y-87630000D02*
X134620000Y-86360000D01*
X133350000Y-92710000D02*
X133350000Y-87630000D01*
X133344801Y-82544801D02*
X132080000Y-81280000D01*
X133344801Y-85084801D02*
X133344801Y-82544801D01*
X134620000Y-86360000D02*
X133344801Y-85084801D01*
X133344801Y-77475199D02*
X134620000Y-76200000D01*
X133344801Y-80015199D02*
X133344801Y-77475199D01*
X132080000Y-81280000D02*
X133344801Y-80015199D01*
%TD*%
D15*
%TO.N,GND*%
X160001312Y-59850920D02*
X159532132Y-60187106D01*
X159191763Y-60817068D01*
X158980834Y-61501327D01*
X158907450Y-62213589D01*
X158974431Y-62926482D01*
X159179204Y-63612609D01*
X159513898Y-64245603D01*
X159532132Y-64272894D01*
X160001314Y-64609081D01*
X162380395Y-62230000D01*
X162366253Y-62215858D01*
X162545858Y-62036253D01*
X162560000Y-62050395D01*
X162574143Y-62036253D01*
X162753748Y-62215858D01*
X162739605Y-62230000D01*
X162753748Y-62244143D01*
X162574143Y-62423748D01*
X162560000Y-62409605D01*
X160180919Y-64788686D01*
X160517106Y-65257868D01*
X161147068Y-65598237D01*
X161831327Y-65809166D01*
X162543589Y-65882550D01*
X163256482Y-65815569D01*
X163942609Y-65610796D01*
X164575603Y-65276102D01*
X164602894Y-65257868D01*
X164939080Y-64788688D01*
X164973000Y-64822608D01*
X164973000Y-125677392D01*
X164939080Y-125711312D01*
X164602894Y-125242132D01*
X163972932Y-124901763D01*
X163288673Y-124690834D01*
X162576411Y-124617450D01*
X161863518Y-124684431D01*
X161177391Y-124889204D01*
X160544397Y-125223898D01*
X160517106Y-125242132D01*
X160180919Y-125711314D01*
X162560000Y-128090395D01*
X162574143Y-128076253D01*
X162753748Y-128255858D01*
X162739605Y-128270000D01*
X162753748Y-128284143D01*
X162574143Y-128463748D01*
X162560000Y-128449605D01*
X162545858Y-128463748D01*
X162366253Y-128284143D01*
X162380395Y-128270000D01*
X160001314Y-125890919D01*
X159532132Y-126227106D01*
X159191763Y-126857068D01*
X158980834Y-127541327D01*
X158907450Y-128253589D01*
X158974431Y-128966482D01*
X159179204Y-129652609D01*
X159513898Y-130285603D01*
X159532132Y-130312894D01*
X160001312Y-130649080D01*
X159967392Y-130683000D01*
X130862608Y-130683000D01*
X130828688Y-130649080D01*
X131297868Y-130312894D01*
X131638237Y-129682932D01*
X131849166Y-128998673D01*
X131922550Y-128286411D01*
X131855569Y-127573518D01*
X131650796Y-126887391D01*
X131316102Y-126254397D01*
X131297868Y-126227106D01*
X130828686Y-125890919D01*
X128449605Y-128270000D01*
X128463748Y-128284143D01*
X128284143Y-128463748D01*
X128270000Y-128449605D01*
X128255858Y-128463748D01*
X128076253Y-128284143D01*
X128090395Y-128270000D01*
X128076253Y-128255858D01*
X128255858Y-128076253D01*
X128270000Y-128090395D01*
X130649081Y-125711314D01*
X130312894Y-125242132D01*
X129682932Y-124901763D01*
X128998673Y-124690834D01*
X128286411Y-124617450D01*
X127573518Y-124684431D01*
X126887391Y-124889204D01*
X126254397Y-125223898D01*
X126227106Y-125242132D01*
X125890920Y-125711312D01*
X125857000Y-125677392D01*
X125857000Y-120408397D01*
X131231208Y-120408397D01*
X131308843Y-120657472D01*
X131572883Y-120783371D01*
X131856411Y-120855339D01*
X132148531Y-120870611D01*
X132438019Y-120828599D01*
X132713747Y-120730919D01*
X132851157Y-120657472D01*
X132928792Y-120408397D01*
X132080000Y-119559605D01*
X131231208Y-120408397D01*
X125857000Y-120408397D01*
X125857000Y-119448531D01*
X130589389Y-119448531D01*
X130631401Y-119738019D01*
X130729081Y-120013747D01*
X130802528Y-120151157D01*
X131051603Y-120228792D01*
X131900395Y-119380000D01*
X131051603Y-118531208D01*
X130802528Y-118608843D01*
X130676629Y-118872883D01*
X130604661Y-119156411D01*
X130589389Y-119448531D01*
X125857000Y-119448531D01*
X125857000Y-101668531D01*
X130589389Y-101668531D01*
X130631401Y-101958019D01*
X130729081Y-102233747D01*
X130802528Y-102371157D01*
X131051603Y-102448792D01*
X131900395Y-101600000D01*
X131051603Y-100751208D01*
X130802528Y-100828843D01*
X130676629Y-101092883D01*
X130604661Y-101376411D01*
X130589389Y-101668531D01*
X125857000Y-101668531D01*
X125857000Y-81348531D01*
X130589389Y-81348531D01*
X130631401Y-81638019D01*
X130729081Y-81913747D01*
X130802528Y-82051157D01*
X131051603Y-82128792D01*
X131900395Y-81280000D01*
X131051603Y-80431208D01*
X130802528Y-80508843D01*
X130676629Y-80772883D01*
X130604661Y-81056411D01*
X130589389Y-81348531D01*
X125857000Y-81348531D01*
X125857000Y-70520000D01*
X130591928Y-70520000D01*
X130591928Y-71720000D01*
X130608992Y-71893254D01*
X130659528Y-72059850D01*
X130741595Y-72213386D01*
X130852038Y-72347962D01*
X130986614Y-72458405D01*
X131113608Y-72526285D01*
X130926525Y-72713368D01*
X130764010Y-72956589D01*
X130652068Y-73226842D01*
X130595000Y-73513740D01*
X130595000Y-73806260D01*
X130652068Y-74093158D01*
X130764010Y-74363411D01*
X130926525Y-74606632D01*
X131133368Y-74813475D01*
X131307760Y-74930000D01*
X131133368Y-75046525D01*
X130926525Y-75253368D01*
X130764010Y-75496589D01*
X130652068Y-75766842D01*
X130595000Y-76053740D01*
X130595000Y-76346260D01*
X130652068Y-76633158D01*
X130764010Y-76903411D01*
X130926525Y-77146632D01*
X131133368Y-77353475D01*
X131307760Y-77470000D01*
X131133368Y-77586525D01*
X130926525Y-77793368D01*
X130764010Y-78036589D01*
X130652068Y-78306842D01*
X130595000Y-78593740D01*
X130595000Y-78886260D01*
X130652068Y-79173158D01*
X130764010Y-79443411D01*
X130926525Y-79686632D01*
X131133368Y-79893475D01*
X131306729Y-80009311D01*
X131231208Y-80251603D01*
X132080000Y-81100395D01*
X132928792Y-80251603D01*
X132853271Y-80009311D01*
X133026632Y-79893475D01*
X133233475Y-79686632D01*
X133350000Y-79512240D01*
X133466525Y-79686632D01*
X133673368Y-79893475D01*
X133847760Y-80010000D01*
X133673368Y-80126525D01*
X133466525Y-80333368D01*
X133350689Y-80506729D01*
X133108397Y-80431208D01*
X132259605Y-81280000D01*
X133108397Y-82128792D01*
X133350689Y-82053271D01*
X133466525Y-82226632D01*
X133673368Y-82433475D01*
X133847760Y-82550000D01*
X133673368Y-82666525D01*
X133466525Y-82873368D01*
X133350000Y-83047760D01*
X133233475Y-82873368D01*
X133026632Y-82666525D01*
X132853271Y-82550689D01*
X132928792Y-82308397D01*
X132080000Y-81459605D01*
X131231208Y-82308397D01*
X131306729Y-82550689D01*
X131133368Y-82666525D01*
X130926525Y-82873368D01*
X130764010Y-83116589D01*
X130652068Y-83386842D01*
X130595000Y-83673740D01*
X130595000Y-83966260D01*
X130652068Y-84253158D01*
X130764010Y-84523411D01*
X130926525Y-84766632D01*
X131133368Y-84973475D01*
X131307760Y-85090000D01*
X131133368Y-85206525D01*
X130926525Y-85413368D01*
X130764010Y-85656589D01*
X130652068Y-85926842D01*
X130595000Y-86213740D01*
X130595000Y-86506260D01*
X130652068Y-86793158D01*
X130764010Y-87063411D01*
X130926525Y-87306632D01*
X131133368Y-87513475D01*
X131307760Y-87630000D01*
X131133368Y-87746525D01*
X130926525Y-87953368D01*
X130764010Y-88196589D01*
X130652068Y-88466842D01*
X130595000Y-88753740D01*
X130595000Y-89046260D01*
X130652068Y-89333158D01*
X130764010Y-89603411D01*
X130926525Y-89846632D01*
X131133368Y-90053475D01*
X131307760Y-90170000D01*
X131133368Y-90286525D01*
X130926525Y-90493368D01*
X130764010Y-90736589D01*
X130652068Y-91006842D01*
X130595000Y-91293740D01*
X130595000Y-91586260D01*
X130652068Y-91873158D01*
X130764010Y-92143411D01*
X130926525Y-92386632D01*
X131133368Y-92593475D01*
X131307760Y-92710000D01*
X131133368Y-92826525D01*
X130926525Y-93033368D01*
X130764010Y-93276589D01*
X130652068Y-93546842D01*
X130595000Y-93833740D01*
X130595000Y-94126260D01*
X130652068Y-94413158D01*
X130764010Y-94683411D01*
X130926525Y-94926632D01*
X131133368Y-95133475D01*
X131307760Y-95250000D01*
X131133368Y-95366525D01*
X130926525Y-95573368D01*
X130764010Y-95816589D01*
X130652068Y-96086842D01*
X130595000Y-96373740D01*
X130595000Y-96666260D01*
X130652068Y-96953158D01*
X130764010Y-97223411D01*
X130926525Y-97466632D01*
X131133368Y-97673475D01*
X131307760Y-97790000D01*
X131133368Y-97906525D01*
X130926525Y-98113368D01*
X130764010Y-98356589D01*
X130652068Y-98626842D01*
X130595000Y-98913740D01*
X130595000Y-99206260D01*
X130652068Y-99493158D01*
X130764010Y-99763411D01*
X130926525Y-100006632D01*
X131133368Y-100213475D01*
X131306729Y-100329311D01*
X131231208Y-100571603D01*
X132080000Y-101420395D01*
X132928792Y-100571603D01*
X132853271Y-100329311D01*
X133026632Y-100213475D01*
X133233475Y-100006632D01*
X133350000Y-99832240D01*
X133466525Y-100006632D01*
X133673368Y-100213475D01*
X133847760Y-100330000D01*
X133673368Y-100446525D01*
X133466525Y-100653368D01*
X133350689Y-100826729D01*
X133108397Y-100751208D01*
X132259605Y-101600000D01*
X133108397Y-102448792D01*
X133350689Y-102373271D01*
X133466525Y-102546632D01*
X133673368Y-102753475D01*
X133847760Y-102870000D01*
X133673368Y-102986525D01*
X133466525Y-103193368D01*
X133350000Y-103367760D01*
X133233475Y-103193368D01*
X133026632Y-102986525D01*
X132853271Y-102870689D01*
X132928792Y-102628397D01*
X132080000Y-101779605D01*
X131231208Y-102628397D01*
X131306729Y-102870689D01*
X131133368Y-102986525D01*
X130926525Y-103193368D01*
X130764010Y-103436589D01*
X130652068Y-103706842D01*
X130595000Y-103993740D01*
X130595000Y-104286260D01*
X130652068Y-104573158D01*
X130764010Y-104843411D01*
X130926525Y-105086632D01*
X131133368Y-105293475D01*
X131307760Y-105410000D01*
X131133368Y-105526525D01*
X130926525Y-105733368D01*
X130764010Y-105976589D01*
X130652068Y-106246842D01*
X130595000Y-106533740D01*
X130595000Y-106826260D01*
X130652068Y-107113158D01*
X130764010Y-107383411D01*
X130926525Y-107626632D01*
X131133368Y-107833475D01*
X131307760Y-107950000D01*
X131133368Y-108066525D01*
X130926525Y-108273368D01*
X130764010Y-108516589D01*
X130652068Y-108786842D01*
X130595000Y-109073740D01*
X130595000Y-109366260D01*
X130652068Y-109653158D01*
X130764010Y-109923411D01*
X130926525Y-110166632D01*
X131133368Y-110373475D01*
X131307760Y-110490000D01*
X131133368Y-110606525D01*
X130926525Y-110813368D01*
X130764010Y-111056589D01*
X130652068Y-111326842D01*
X130595000Y-111613740D01*
X130595000Y-111906260D01*
X130652068Y-112193158D01*
X130764010Y-112463411D01*
X130926525Y-112706632D01*
X131133368Y-112913475D01*
X131307760Y-113030000D01*
X131133368Y-113146525D01*
X130926525Y-113353368D01*
X130764010Y-113596589D01*
X130652068Y-113866842D01*
X130595000Y-114153740D01*
X130595000Y-114446260D01*
X130652068Y-114733158D01*
X130764010Y-115003411D01*
X130926525Y-115246632D01*
X131133368Y-115453475D01*
X131307760Y-115570000D01*
X131133368Y-115686525D01*
X130926525Y-115893368D01*
X130764010Y-116136589D01*
X130652068Y-116406842D01*
X130595000Y-116693740D01*
X130595000Y-116986260D01*
X130652068Y-117273158D01*
X130764010Y-117543411D01*
X130926525Y-117786632D01*
X131133368Y-117993475D01*
X131306729Y-118109311D01*
X131231208Y-118351603D01*
X132080000Y-119200395D01*
X132928792Y-118351603D01*
X132853271Y-118109311D01*
X133026632Y-117993475D01*
X133233475Y-117786632D01*
X133350000Y-117612240D01*
X133466525Y-117786632D01*
X133673368Y-117993475D01*
X133847760Y-118110000D01*
X133673368Y-118226525D01*
X133466525Y-118433368D01*
X133350689Y-118606729D01*
X133108397Y-118531208D01*
X132259605Y-119380000D01*
X133108397Y-120228792D01*
X133350689Y-120153271D01*
X133466525Y-120326632D01*
X133673368Y-120533475D01*
X133916589Y-120695990D01*
X134186842Y-120807932D01*
X134473740Y-120865000D01*
X134766260Y-120865000D01*
X135053158Y-120807932D01*
X135323411Y-120695990D01*
X135566632Y-120533475D01*
X135773475Y-120326632D01*
X135935990Y-120083411D01*
X136047932Y-119813158D01*
X136105000Y-119526260D01*
X136105000Y-119233740D01*
X136047932Y-118946842D01*
X135935990Y-118676589D01*
X135773475Y-118433368D01*
X135566632Y-118226525D01*
X135392240Y-118110000D01*
X135566632Y-117993475D01*
X135773475Y-117786632D01*
X135935990Y-117543411D01*
X136001605Y-117385000D01*
X142021928Y-117385000D01*
X142021928Y-118835000D01*
X142038992Y-119008254D01*
X142089528Y-119174850D01*
X142171595Y-119328386D01*
X142282038Y-119462962D01*
X142416614Y-119573405D01*
X142570150Y-119655472D01*
X142736746Y-119706008D01*
X142910000Y-119723072D01*
X144110000Y-119723072D01*
X144283254Y-119706008D01*
X144449850Y-119655472D01*
X144603386Y-119573405D01*
X144737962Y-119462962D01*
X144848405Y-119328386D01*
X144902777Y-119226663D01*
X144954866Y-119290134D01*
X145180987Y-119475706D01*
X145438967Y-119613599D01*
X145718890Y-119698513D01*
X146010000Y-119727185D01*
X146301111Y-119698513D01*
X146581034Y-119613599D01*
X146839014Y-119475706D01*
X147065134Y-119290134D01*
X147250706Y-119064014D01*
X147260000Y-119046626D01*
X147269294Y-119064014D01*
X147454866Y-119290134D01*
X147680987Y-119475706D01*
X147938967Y-119613599D01*
X148218890Y-119698513D01*
X148510000Y-119727185D01*
X148801111Y-119698513D01*
X149081034Y-119613599D01*
X149339014Y-119475706D01*
X149565134Y-119290134D01*
X149750706Y-119064014D01*
X149760000Y-119046626D01*
X149769294Y-119064014D01*
X149954866Y-119290134D01*
X150180987Y-119475706D01*
X150438967Y-119613599D01*
X150718890Y-119698513D01*
X151010000Y-119727185D01*
X151301111Y-119698513D01*
X151581034Y-119613599D01*
X151839014Y-119475706D01*
X152065134Y-119290134D01*
X152250706Y-119064014D01*
X152388599Y-118806033D01*
X152473513Y-118526110D01*
X152495000Y-118307949D01*
X152495000Y-117912050D01*
X152473513Y-117693889D01*
X152388599Y-117413966D01*
X152250706Y-117155986D01*
X152065134Y-116929866D01*
X151839013Y-116744294D01*
X151581033Y-116606401D01*
X151301110Y-116521487D01*
X151010000Y-116492815D01*
X150718889Y-116521487D01*
X150438966Y-116606401D01*
X150180986Y-116744294D01*
X149954866Y-116929866D01*
X149769294Y-117155987D01*
X149760000Y-117173374D01*
X149750706Y-117155986D01*
X149565134Y-116929866D01*
X149339013Y-116744294D01*
X149081033Y-116606401D01*
X148801110Y-116521487D01*
X148510000Y-116492815D01*
X148218889Y-116521487D01*
X147938966Y-116606401D01*
X147680986Y-116744294D01*
X147454866Y-116929866D01*
X147269294Y-117155987D01*
X147260000Y-117173374D01*
X147250706Y-117155986D01*
X147065134Y-116929866D01*
X146839013Y-116744294D01*
X146581033Y-116606401D01*
X146301110Y-116521487D01*
X146010000Y-116492815D01*
X145718889Y-116521487D01*
X145438966Y-116606401D01*
X145180986Y-116744294D01*
X144954866Y-116929866D01*
X144902777Y-116993337D01*
X144848405Y-116891614D01*
X144737962Y-116757038D01*
X144603386Y-116646595D01*
X144449850Y-116564528D01*
X144283254Y-116513992D01*
X144110000Y-116496928D01*
X142910000Y-116496928D01*
X142736746Y-116513992D01*
X142570150Y-116564528D01*
X142416614Y-116646595D01*
X142282038Y-116757038D01*
X142171595Y-116891614D01*
X142089528Y-117045150D01*
X142038992Y-117211746D01*
X142021928Y-117385000D01*
X136001605Y-117385000D01*
X136047932Y-117273158D01*
X136105000Y-116986260D01*
X136105000Y-116693740D01*
X136047932Y-116406842D01*
X135935990Y-116136589D01*
X135773475Y-115893368D01*
X135566632Y-115686525D01*
X135392240Y-115570000D01*
X135566632Y-115453475D01*
X135773475Y-115246632D01*
X135935990Y-115003411D01*
X136047932Y-114733158D01*
X136105000Y-114446260D01*
X136105000Y-114153740D01*
X136047932Y-113866842D01*
X135935990Y-113596589D01*
X135773475Y-113353368D01*
X135566632Y-113146525D01*
X135393271Y-113030689D01*
X135468792Y-112788397D01*
X134620000Y-111939605D01*
X133771208Y-112788397D01*
X133846729Y-113030689D01*
X133673368Y-113146525D01*
X133466525Y-113353368D01*
X133350000Y-113527760D01*
X133233475Y-113353368D01*
X133026632Y-113146525D01*
X132852240Y-113030000D01*
X133026632Y-112913475D01*
X133233475Y-112706632D01*
X133349311Y-112533271D01*
X133591603Y-112608792D01*
X134440395Y-111760000D01*
X134799605Y-111760000D01*
X135648397Y-112608792D01*
X135897472Y-112531157D01*
X136023371Y-112267117D01*
X136095339Y-111983589D01*
X136110611Y-111691469D01*
X136068599Y-111401981D01*
X135970919Y-111126253D01*
X135897472Y-110988843D01*
X135648397Y-110911208D01*
X134799605Y-111760000D01*
X134440395Y-111760000D01*
X133591603Y-110911208D01*
X133349311Y-110986729D01*
X133233475Y-110813368D01*
X133026632Y-110606525D01*
X132852240Y-110490000D01*
X133026632Y-110373475D01*
X133233475Y-110166632D01*
X133350000Y-109992240D01*
X133466525Y-110166632D01*
X133673368Y-110373475D01*
X133846729Y-110489311D01*
X133771208Y-110731603D01*
X134620000Y-111580395D01*
X135468792Y-110731603D01*
X135393271Y-110489311D01*
X135566632Y-110373475D01*
X135773475Y-110166632D01*
X135935990Y-109923411D01*
X136047932Y-109653158D01*
X136105000Y-109366260D01*
X136105000Y-109073740D01*
X136047932Y-108786842D01*
X135935990Y-108516589D01*
X135921565Y-108495000D01*
X142021928Y-108495000D01*
X142021928Y-109945000D01*
X142038992Y-110118254D01*
X142089528Y-110284850D01*
X142171595Y-110438386D01*
X142282038Y-110572962D01*
X142416614Y-110683405D01*
X142570150Y-110765472D01*
X142736746Y-110816008D01*
X142910000Y-110833072D01*
X144110000Y-110833072D01*
X144283254Y-110816008D01*
X144449850Y-110765472D01*
X144603386Y-110683405D01*
X144737962Y-110572962D01*
X144848405Y-110438386D01*
X144902777Y-110336663D01*
X144954866Y-110400134D01*
X145180987Y-110585706D01*
X145438967Y-110723599D01*
X145718890Y-110808513D01*
X146010000Y-110837185D01*
X146301111Y-110808513D01*
X146581034Y-110723599D01*
X146839014Y-110585706D01*
X147065134Y-110400134D01*
X147250706Y-110174014D01*
X147260000Y-110156626D01*
X147269294Y-110174014D01*
X147454866Y-110400134D01*
X147680987Y-110585706D01*
X147938967Y-110723599D01*
X148218890Y-110808513D01*
X148510000Y-110837185D01*
X148801111Y-110808513D01*
X149081034Y-110723599D01*
X149339014Y-110585706D01*
X149565134Y-110400134D01*
X149750706Y-110174014D01*
X149760000Y-110156626D01*
X149769294Y-110174014D01*
X149954866Y-110400134D01*
X150180987Y-110585706D01*
X150438967Y-110723599D01*
X150718890Y-110808513D01*
X151010000Y-110837185D01*
X151301111Y-110808513D01*
X151581034Y-110723599D01*
X151839014Y-110585706D01*
X152065134Y-110400134D01*
X152250706Y-110174014D01*
X152388599Y-109916033D01*
X152473513Y-109636110D01*
X152495000Y-109417949D01*
X152495000Y-109022050D01*
X152473513Y-108803889D01*
X152388599Y-108523966D01*
X152250706Y-108265986D01*
X152065134Y-108039866D01*
X151839013Y-107854294D01*
X151581033Y-107716401D01*
X151301110Y-107631487D01*
X151010000Y-107602815D01*
X150718889Y-107631487D01*
X150438966Y-107716401D01*
X150180986Y-107854294D01*
X149954866Y-108039866D01*
X149769294Y-108265987D01*
X149760000Y-108283374D01*
X149750706Y-108265986D01*
X149565134Y-108039866D01*
X149339013Y-107854294D01*
X149081033Y-107716401D01*
X148801110Y-107631487D01*
X148510000Y-107602815D01*
X148218889Y-107631487D01*
X147938966Y-107716401D01*
X147680986Y-107854294D01*
X147454866Y-108039866D01*
X147269294Y-108265987D01*
X147260000Y-108283374D01*
X147250706Y-108265986D01*
X147065134Y-108039866D01*
X146839013Y-107854294D01*
X146581033Y-107716401D01*
X146301110Y-107631487D01*
X146010000Y-107602815D01*
X145718889Y-107631487D01*
X145438966Y-107716401D01*
X145180986Y-107854294D01*
X144954866Y-108039866D01*
X144902777Y-108103337D01*
X144848405Y-108001614D01*
X144737962Y-107867038D01*
X144603386Y-107756595D01*
X144449850Y-107674528D01*
X144283254Y-107623992D01*
X144110000Y-107606928D01*
X142910000Y-107606928D01*
X142736746Y-107623992D01*
X142570150Y-107674528D01*
X142416614Y-107756595D01*
X142282038Y-107867038D01*
X142171595Y-108001614D01*
X142089528Y-108155150D01*
X142038992Y-108321746D01*
X142021928Y-108495000D01*
X135921565Y-108495000D01*
X135773475Y-108273368D01*
X135566632Y-108066525D01*
X135393271Y-107950689D01*
X135468792Y-107708397D01*
X134620000Y-106859605D01*
X133771208Y-107708397D01*
X133846729Y-107950689D01*
X133673368Y-108066525D01*
X133466525Y-108273368D01*
X133350000Y-108447760D01*
X133233475Y-108273368D01*
X133026632Y-108066525D01*
X132852240Y-107950000D01*
X133026632Y-107833475D01*
X133233475Y-107626632D01*
X133349311Y-107453271D01*
X133591603Y-107528792D01*
X134440395Y-106680000D01*
X134799605Y-106680000D01*
X135648397Y-107528792D01*
X135897472Y-107451157D01*
X136023371Y-107187117D01*
X136095339Y-106903589D01*
X136110611Y-106611469D01*
X136068599Y-106321981D01*
X135970919Y-106046253D01*
X135897472Y-105908843D01*
X135648397Y-105831208D01*
X134799605Y-106680000D01*
X134440395Y-106680000D01*
X133591603Y-105831208D01*
X133349311Y-105906729D01*
X133233475Y-105733368D01*
X133026632Y-105526525D01*
X132852240Y-105410000D01*
X133026632Y-105293475D01*
X133233475Y-105086632D01*
X133350000Y-104912240D01*
X133466525Y-105086632D01*
X133673368Y-105293475D01*
X133846729Y-105409311D01*
X133771208Y-105651603D01*
X134620000Y-106500395D01*
X135468792Y-105651603D01*
X135393271Y-105409311D01*
X135566632Y-105293475D01*
X135773475Y-105086632D01*
X135935990Y-104843411D01*
X136047932Y-104573158D01*
X136105000Y-104286260D01*
X136105000Y-103993740D01*
X136047932Y-103706842D01*
X135935990Y-103436589D01*
X135773475Y-103193368D01*
X135566632Y-102986525D01*
X135392240Y-102870000D01*
X135566632Y-102753475D01*
X135773475Y-102546632D01*
X135935990Y-102303411D01*
X136047932Y-102033158D01*
X136105000Y-101746260D01*
X136105000Y-101453740D01*
X136047932Y-101166842D01*
X135935990Y-100896589D01*
X135773475Y-100653368D01*
X135566632Y-100446525D01*
X135392240Y-100330000D01*
X135566632Y-100213475D01*
X135773475Y-100006632D01*
X135935990Y-99763411D01*
X136001605Y-99605000D01*
X142021928Y-99605000D01*
X142021928Y-101055000D01*
X142038992Y-101228254D01*
X142089528Y-101394850D01*
X142171595Y-101548386D01*
X142282038Y-101682962D01*
X142416614Y-101793405D01*
X142570150Y-101875472D01*
X142736746Y-101926008D01*
X142910000Y-101943072D01*
X144110000Y-101943072D01*
X144283254Y-101926008D01*
X144449850Y-101875472D01*
X144603386Y-101793405D01*
X144737962Y-101682962D01*
X144848405Y-101548386D01*
X144902777Y-101446663D01*
X144954866Y-101510134D01*
X145180987Y-101695706D01*
X145438967Y-101833599D01*
X145718890Y-101918513D01*
X146010000Y-101947185D01*
X146301111Y-101918513D01*
X146581034Y-101833599D01*
X146839014Y-101695706D01*
X147065134Y-101510134D01*
X147250706Y-101284014D01*
X147260000Y-101266626D01*
X147269294Y-101284014D01*
X147454866Y-101510134D01*
X147680987Y-101695706D01*
X147938967Y-101833599D01*
X148218890Y-101918513D01*
X148510000Y-101947185D01*
X148801111Y-101918513D01*
X149081034Y-101833599D01*
X149339014Y-101695706D01*
X149565134Y-101510134D01*
X149750706Y-101284014D01*
X149760000Y-101266626D01*
X149769294Y-101284014D01*
X149954866Y-101510134D01*
X150180987Y-101695706D01*
X150438967Y-101833599D01*
X150718890Y-101918513D01*
X151010000Y-101947185D01*
X151301111Y-101918513D01*
X151581034Y-101833599D01*
X151839014Y-101695706D01*
X152065134Y-101510134D01*
X152250706Y-101284014D01*
X152388599Y-101026033D01*
X152473513Y-100746110D01*
X152495000Y-100527949D01*
X152495000Y-100132050D01*
X152473513Y-99913889D01*
X152388599Y-99633966D01*
X152250706Y-99375986D01*
X152065134Y-99149866D01*
X151839013Y-98964294D01*
X151581033Y-98826401D01*
X151301110Y-98741487D01*
X151010000Y-98712815D01*
X150718889Y-98741487D01*
X150438966Y-98826401D01*
X150180986Y-98964294D01*
X149954866Y-99149866D01*
X149769294Y-99375987D01*
X149760000Y-99393374D01*
X149750706Y-99375986D01*
X149565134Y-99149866D01*
X149339013Y-98964294D01*
X149081033Y-98826401D01*
X148801110Y-98741487D01*
X148510000Y-98712815D01*
X148218889Y-98741487D01*
X147938966Y-98826401D01*
X147680986Y-98964294D01*
X147454866Y-99149866D01*
X147269294Y-99375987D01*
X147260000Y-99393374D01*
X147250706Y-99375986D01*
X147065134Y-99149866D01*
X146839013Y-98964294D01*
X146581033Y-98826401D01*
X146301110Y-98741487D01*
X146010000Y-98712815D01*
X145718889Y-98741487D01*
X145438966Y-98826401D01*
X145180986Y-98964294D01*
X144954866Y-99149866D01*
X144902777Y-99213337D01*
X144848405Y-99111614D01*
X144737962Y-98977038D01*
X144603386Y-98866595D01*
X144449850Y-98784528D01*
X144283254Y-98733992D01*
X144110000Y-98716928D01*
X142910000Y-98716928D01*
X142736746Y-98733992D01*
X142570150Y-98784528D01*
X142416614Y-98866595D01*
X142282038Y-98977038D01*
X142171595Y-99111614D01*
X142089528Y-99265150D01*
X142038992Y-99431746D01*
X142021928Y-99605000D01*
X136001605Y-99605000D01*
X136047932Y-99493158D01*
X136105000Y-99206260D01*
X136105000Y-98913740D01*
X136047932Y-98626842D01*
X135935990Y-98356589D01*
X135773475Y-98113368D01*
X135566632Y-97906525D01*
X135392240Y-97790000D01*
X135566632Y-97673475D01*
X135773475Y-97466632D01*
X135935990Y-97223411D01*
X136047932Y-96953158D01*
X136105000Y-96666260D01*
X136105000Y-96560000D01*
X158402815Y-96560000D01*
X158431487Y-96851111D01*
X158516401Y-97131034D01*
X158654294Y-97389014D01*
X158839866Y-97615134D01*
X158903337Y-97667223D01*
X158801614Y-97721595D01*
X158667038Y-97832038D01*
X158556595Y-97966614D01*
X158474528Y-98120150D01*
X158423992Y-98286746D01*
X158406928Y-98460000D01*
X158406928Y-99660000D01*
X158423992Y-99833254D01*
X158474528Y-99999850D01*
X158556595Y-100153386D01*
X158667038Y-100287962D01*
X158801614Y-100398405D01*
X158955150Y-100480472D01*
X159121746Y-100531008D01*
X159295000Y-100548072D01*
X160745000Y-100548072D01*
X160918254Y-100531008D01*
X161084850Y-100480472D01*
X161238386Y-100398405D01*
X161372962Y-100287962D01*
X161483405Y-100153386D01*
X161565472Y-99999850D01*
X161616008Y-99833254D01*
X161633072Y-99660000D01*
X161633072Y-98460000D01*
X161616008Y-98286746D01*
X161565472Y-98120150D01*
X161483405Y-97966614D01*
X161372962Y-97832038D01*
X161238386Y-97721595D01*
X161136663Y-97667223D01*
X161200134Y-97615134D01*
X161385706Y-97389014D01*
X161523599Y-97131034D01*
X161608513Y-96851111D01*
X161637185Y-96560000D01*
X161608513Y-96268889D01*
X161523599Y-95988966D01*
X161385706Y-95730986D01*
X161200134Y-95504866D01*
X160974014Y-95319294D01*
X160948278Y-95305538D01*
X161154429Y-95149049D01*
X161347496Y-94931193D01*
X161494352Y-94679858D01*
X161586476Y-94416890D01*
X161465155Y-94187000D01*
X160147000Y-94187000D01*
X160147000Y-94207000D01*
X159893000Y-94207000D01*
X159893000Y-94187000D01*
X158574845Y-94187000D01*
X158453524Y-94416890D01*
X158545648Y-94679858D01*
X158692504Y-94931193D01*
X158885571Y-95149049D01*
X159091722Y-95305538D01*
X159065986Y-95319294D01*
X158839866Y-95504866D01*
X158654294Y-95730986D01*
X158516401Y-95988966D01*
X158431487Y-96268889D01*
X158402815Y-96560000D01*
X136105000Y-96560000D01*
X136105000Y-96373740D01*
X136047932Y-96086842D01*
X135935990Y-95816589D01*
X135773475Y-95573368D01*
X135566632Y-95366525D01*
X135393271Y-95250689D01*
X135468792Y-95008397D01*
X134620000Y-94159605D01*
X133771208Y-95008397D01*
X133846729Y-95250689D01*
X133673368Y-95366525D01*
X133466525Y-95573368D01*
X133350000Y-95747760D01*
X133233475Y-95573368D01*
X133026632Y-95366525D01*
X132852240Y-95250000D01*
X133026632Y-95133475D01*
X133233475Y-94926632D01*
X133349311Y-94753271D01*
X133591603Y-94828792D01*
X134440395Y-93980000D01*
X134799605Y-93980000D01*
X135648397Y-94828792D01*
X135897472Y-94751157D01*
X136023371Y-94487117D01*
X136095339Y-94203589D01*
X136110611Y-93911469D01*
X136068599Y-93621981D01*
X135970919Y-93346253D01*
X135897472Y-93208843D01*
X135648397Y-93131208D01*
X134799605Y-93980000D01*
X134440395Y-93980000D01*
X133591603Y-93131208D01*
X133349311Y-93206729D01*
X133233475Y-93033368D01*
X133026632Y-92826525D01*
X132852240Y-92710000D01*
X133026632Y-92593475D01*
X133233475Y-92386632D01*
X133350000Y-92212240D01*
X133466525Y-92386632D01*
X133673368Y-92593475D01*
X133846729Y-92709311D01*
X133771208Y-92951603D01*
X134620000Y-93800395D01*
X135468792Y-92951603D01*
X135393271Y-92709311D01*
X135566632Y-92593475D01*
X135773475Y-92386632D01*
X135935990Y-92143411D01*
X136029817Y-91916890D01*
X158453524Y-91916890D01*
X158545648Y-92179858D01*
X158692504Y-92431193D01*
X158885571Y-92649049D01*
X159097600Y-92810000D01*
X158885571Y-92970951D01*
X158692504Y-93188807D01*
X158545648Y-93440142D01*
X158453524Y-93703110D01*
X158574845Y-93933000D01*
X159893000Y-93933000D01*
X159893000Y-91687000D01*
X160147000Y-91687000D01*
X160147000Y-93933000D01*
X161465155Y-93933000D01*
X161586476Y-93703110D01*
X161494352Y-93440142D01*
X161347496Y-93188807D01*
X161154429Y-92970951D01*
X160942400Y-92810000D01*
X161154429Y-92649049D01*
X161347496Y-92431193D01*
X161494352Y-92179858D01*
X161586476Y-91916890D01*
X161465155Y-91687000D01*
X160147000Y-91687000D01*
X159893000Y-91687000D01*
X158574845Y-91687000D01*
X158453524Y-91916890D01*
X136029817Y-91916890D01*
X136047932Y-91873158D01*
X136105000Y-91586260D01*
X136105000Y-91293740D01*
X136086973Y-91203110D01*
X158453524Y-91203110D01*
X158574845Y-91433000D01*
X159893000Y-91433000D01*
X159893000Y-90233835D01*
X160147000Y-90233835D01*
X160147000Y-91433000D01*
X161465155Y-91433000D01*
X161586476Y-91203110D01*
X161494352Y-90940142D01*
X161347496Y-90688807D01*
X161154429Y-90470951D01*
X160922570Y-90294947D01*
X160660830Y-90167558D01*
X160379267Y-90093680D01*
X160147000Y-90233835D01*
X159893000Y-90233835D01*
X159660733Y-90093680D01*
X159379170Y-90167558D01*
X159117430Y-90294947D01*
X158885571Y-90470951D01*
X158692504Y-90688807D01*
X158545648Y-90940142D01*
X158453524Y-91203110D01*
X136086973Y-91203110D01*
X136047932Y-91006842D01*
X135935990Y-90736589D01*
X135773475Y-90493368D01*
X135566632Y-90286525D01*
X135392240Y-90170000D01*
X135566632Y-90053475D01*
X135773475Y-89846632D01*
X135935990Y-89603411D01*
X136047932Y-89333158D01*
X136105000Y-89046260D01*
X136105000Y-88753740D01*
X136047932Y-88466842D01*
X135935990Y-88196589D01*
X135773475Y-87953368D01*
X135566632Y-87746525D01*
X135393271Y-87630689D01*
X135468792Y-87388397D01*
X134620000Y-86539605D01*
X133771208Y-87388397D01*
X133846729Y-87630689D01*
X133673368Y-87746525D01*
X133466525Y-87953368D01*
X133350000Y-88127760D01*
X133233475Y-87953368D01*
X133026632Y-87746525D01*
X132852240Y-87630000D01*
X133026632Y-87513475D01*
X133233475Y-87306632D01*
X133349311Y-87133271D01*
X133591603Y-87208792D01*
X134440395Y-86360000D01*
X134799605Y-86360000D01*
X135648397Y-87208792D01*
X135897472Y-87131157D01*
X136005307Y-86905000D01*
X142021928Y-86905000D01*
X142021928Y-88355000D01*
X142038992Y-88528254D01*
X142089528Y-88694850D01*
X142171595Y-88848386D01*
X142282038Y-88982962D01*
X142416614Y-89093405D01*
X142570150Y-89175472D01*
X142736746Y-89226008D01*
X142910000Y-89243072D01*
X144110000Y-89243072D01*
X144283254Y-89226008D01*
X144449850Y-89175472D01*
X144603386Y-89093405D01*
X144737962Y-88982962D01*
X144848405Y-88848386D01*
X144902777Y-88746663D01*
X144954866Y-88810134D01*
X145180987Y-88995706D01*
X145438967Y-89133599D01*
X145718890Y-89218513D01*
X146010000Y-89247185D01*
X146301111Y-89218513D01*
X146581034Y-89133599D01*
X146839014Y-88995706D01*
X147065134Y-88810134D01*
X147250706Y-88584014D01*
X147260000Y-88566626D01*
X147269294Y-88584014D01*
X147454866Y-88810134D01*
X147680987Y-88995706D01*
X147938967Y-89133599D01*
X148218890Y-89218513D01*
X148510000Y-89247185D01*
X148801111Y-89218513D01*
X149081034Y-89133599D01*
X149339014Y-88995706D01*
X149565134Y-88810134D01*
X149750706Y-88584014D01*
X149760000Y-88566626D01*
X149769294Y-88584014D01*
X149954866Y-88810134D01*
X150180987Y-88995706D01*
X150438967Y-89133599D01*
X150718890Y-89218513D01*
X151010000Y-89247185D01*
X151301111Y-89218513D01*
X151581034Y-89133599D01*
X151839014Y-88995706D01*
X152065134Y-88810134D01*
X152250706Y-88584014D01*
X152388599Y-88326033D01*
X152473513Y-88046110D01*
X152495000Y-87827949D01*
X152495000Y-87432050D01*
X152473513Y-87213889D01*
X152388599Y-86933966D01*
X152250706Y-86675986D01*
X152065134Y-86449866D01*
X151839013Y-86264294D01*
X151581033Y-86126401D01*
X151301110Y-86041487D01*
X151010000Y-86012815D01*
X150718889Y-86041487D01*
X150438966Y-86126401D01*
X150180986Y-86264294D01*
X149954866Y-86449866D01*
X149769294Y-86675987D01*
X149760000Y-86693374D01*
X149750706Y-86675986D01*
X149565134Y-86449866D01*
X149339013Y-86264294D01*
X149081033Y-86126401D01*
X148801110Y-86041487D01*
X148510000Y-86012815D01*
X148218889Y-86041487D01*
X147938966Y-86126401D01*
X147680986Y-86264294D01*
X147454866Y-86449866D01*
X147269294Y-86675987D01*
X147260000Y-86693374D01*
X147250706Y-86675986D01*
X147065134Y-86449866D01*
X146839013Y-86264294D01*
X146581033Y-86126401D01*
X146301110Y-86041487D01*
X146010000Y-86012815D01*
X145718889Y-86041487D01*
X145438966Y-86126401D01*
X145180986Y-86264294D01*
X144954866Y-86449866D01*
X144902777Y-86513337D01*
X144848405Y-86411614D01*
X144737962Y-86277038D01*
X144603386Y-86166595D01*
X144449850Y-86084528D01*
X144283254Y-86033992D01*
X144110000Y-86016928D01*
X142910000Y-86016928D01*
X142736746Y-86033992D01*
X142570150Y-86084528D01*
X142416614Y-86166595D01*
X142282038Y-86277038D01*
X142171595Y-86411614D01*
X142089528Y-86565150D01*
X142038992Y-86731746D01*
X142021928Y-86905000D01*
X136005307Y-86905000D01*
X136023371Y-86867117D01*
X136095339Y-86583589D01*
X136110611Y-86291469D01*
X136068599Y-86001981D01*
X135970919Y-85726253D01*
X135897472Y-85588843D01*
X135648397Y-85511208D01*
X134799605Y-86360000D01*
X134440395Y-86360000D01*
X133591603Y-85511208D01*
X133349311Y-85586729D01*
X133233475Y-85413368D01*
X133026632Y-85206525D01*
X132852240Y-85090000D01*
X133026632Y-84973475D01*
X133233475Y-84766632D01*
X133350000Y-84592240D01*
X133466525Y-84766632D01*
X133673368Y-84973475D01*
X133846729Y-85089311D01*
X133771208Y-85331603D01*
X134620000Y-86180395D01*
X135468792Y-85331603D01*
X135393271Y-85089311D01*
X135566632Y-84973475D01*
X135773475Y-84766632D01*
X135935990Y-84523411D01*
X136047932Y-84253158D01*
X136105000Y-83966260D01*
X136105000Y-83673740D01*
X136047932Y-83386842D01*
X135935990Y-83116589D01*
X135773475Y-82873368D01*
X135566632Y-82666525D01*
X135392240Y-82550000D01*
X135566632Y-82433475D01*
X135773475Y-82226632D01*
X135935990Y-81983411D01*
X136047932Y-81713158D01*
X136105000Y-81426260D01*
X136105000Y-81133740D01*
X136047932Y-80846842D01*
X135935990Y-80576589D01*
X135773475Y-80333368D01*
X135566632Y-80126525D01*
X135392240Y-80010000D01*
X135566632Y-79893475D01*
X135773475Y-79686632D01*
X135935990Y-79443411D01*
X136047932Y-79173158D01*
X136105000Y-78886260D01*
X136105000Y-78593740D01*
X136047932Y-78306842D01*
X135935990Y-78036589D01*
X135921565Y-78015000D01*
X142021928Y-78015000D01*
X142021928Y-79465000D01*
X142038992Y-79638254D01*
X142089528Y-79804850D01*
X142171595Y-79958386D01*
X142282038Y-80092962D01*
X142416614Y-80203405D01*
X142570150Y-80285472D01*
X142736746Y-80336008D01*
X142910000Y-80353072D01*
X144110000Y-80353072D01*
X144283254Y-80336008D01*
X144449850Y-80285472D01*
X144603386Y-80203405D01*
X144737962Y-80092962D01*
X144848405Y-79958386D01*
X144902777Y-79856663D01*
X144954866Y-79920134D01*
X145180987Y-80105706D01*
X145438967Y-80243599D01*
X145718890Y-80328513D01*
X146010000Y-80357185D01*
X146301111Y-80328513D01*
X146581034Y-80243599D01*
X146839014Y-80105706D01*
X147065134Y-79920134D01*
X147250706Y-79694014D01*
X147260000Y-79676626D01*
X147269294Y-79694014D01*
X147454866Y-79920134D01*
X147680987Y-80105706D01*
X147938967Y-80243599D01*
X148218890Y-80328513D01*
X148510000Y-80357185D01*
X148801111Y-80328513D01*
X149081034Y-80243599D01*
X149339014Y-80105706D01*
X149565134Y-79920134D01*
X149750706Y-79694014D01*
X149760000Y-79676626D01*
X149769294Y-79694014D01*
X149954866Y-79920134D01*
X150180987Y-80105706D01*
X150438967Y-80243599D01*
X150718890Y-80328513D01*
X151010000Y-80357185D01*
X151301111Y-80328513D01*
X151581034Y-80243599D01*
X151839014Y-80105706D01*
X152065134Y-79920134D01*
X152250706Y-79694014D01*
X152388599Y-79436033D01*
X152473513Y-79156110D01*
X152495000Y-78937949D01*
X152495000Y-78542050D01*
X152473513Y-78323889D01*
X152388599Y-78043966D01*
X152250706Y-77785986D01*
X152065134Y-77559866D01*
X151839013Y-77374294D01*
X151581033Y-77236401D01*
X151301110Y-77151487D01*
X151010000Y-77122815D01*
X150718889Y-77151487D01*
X150438966Y-77236401D01*
X150180986Y-77374294D01*
X149954866Y-77559866D01*
X149769294Y-77785987D01*
X149760000Y-77803374D01*
X149750706Y-77785986D01*
X149565134Y-77559866D01*
X149339013Y-77374294D01*
X149081033Y-77236401D01*
X148801110Y-77151487D01*
X148510000Y-77122815D01*
X148218889Y-77151487D01*
X147938966Y-77236401D01*
X147680986Y-77374294D01*
X147454866Y-77559866D01*
X147269294Y-77785987D01*
X147260000Y-77803374D01*
X147250706Y-77785986D01*
X147065134Y-77559866D01*
X146839013Y-77374294D01*
X146581033Y-77236401D01*
X146301110Y-77151487D01*
X146010000Y-77122815D01*
X145718889Y-77151487D01*
X145438966Y-77236401D01*
X145180986Y-77374294D01*
X144954866Y-77559866D01*
X144902777Y-77623337D01*
X144848405Y-77521614D01*
X144737962Y-77387038D01*
X144603386Y-77276595D01*
X144449850Y-77194528D01*
X144283254Y-77143992D01*
X144110000Y-77126928D01*
X142910000Y-77126928D01*
X142736746Y-77143992D01*
X142570150Y-77194528D01*
X142416614Y-77276595D01*
X142282038Y-77387038D01*
X142171595Y-77521614D01*
X142089528Y-77675150D01*
X142038992Y-77841746D01*
X142021928Y-78015000D01*
X135921565Y-78015000D01*
X135773475Y-77793368D01*
X135566632Y-77586525D01*
X135393271Y-77470689D01*
X135468792Y-77228397D01*
X134620000Y-76379605D01*
X133771208Y-77228397D01*
X133846729Y-77470689D01*
X133673368Y-77586525D01*
X133466525Y-77793368D01*
X133350000Y-77967760D01*
X133233475Y-77793368D01*
X133026632Y-77586525D01*
X132852240Y-77470000D01*
X133026632Y-77353475D01*
X133233475Y-77146632D01*
X133349311Y-76973271D01*
X133591603Y-77048792D01*
X134440395Y-76200000D01*
X134799605Y-76200000D01*
X135648397Y-77048792D01*
X135897472Y-76971157D01*
X136023371Y-76707117D01*
X136095339Y-76423589D01*
X136110611Y-76131469D01*
X136068599Y-75841981D01*
X135970919Y-75566253D01*
X135897472Y-75428843D01*
X135648397Y-75351208D01*
X134799605Y-76200000D01*
X134440395Y-76200000D01*
X133591603Y-75351208D01*
X133349311Y-75426729D01*
X133233475Y-75253368D01*
X133026632Y-75046525D01*
X132852240Y-74930000D01*
X133026632Y-74813475D01*
X133233475Y-74606632D01*
X133350000Y-74432240D01*
X133466525Y-74606632D01*
X133673368Y-74813475D01*
X133846729Y-74929311D01*
X133771208Y-75171603D01*
X134620000Y-76020395D01*
X135468792Y-75171603D01*
X135393271Y-74929311D01*
X135566632Y-74813475D01*
X135773475Y-74606632D01*
X135935990Y-74363411D01*
X136047932Y-74093158D01*
X136105000Y-73806260D01*
X136105000Y-73513740D01*
X136047932Y-73226842D01*
X135935990Y-72956589D01*
X135773475Y-72713368D01*
X135566632Y-72506525D01*
X135392240Y-72390000D01*
X135566632Y-72273475D01*
X135773475Y-72066632D01*
X135935990Y-71823411D01*
X136047932Y-71553158D01*
X136105000Y-71266260D01*
X136105000Y-70973740D01*
X136047932Y-70686842D01*
X135935990Y-70416589D01*
X135773475Y-70173368D01*
X135566632Y-69966525D01*
X135323411Y-69804010D01*
X135053158Y-69692068D01*
X134766260Y-69635000D01*
X134473740Y-69635000D01*
X134186842Y-69692068D01*
X133916589Y-69804010D01*
X133673368Y-69966525D01*
X133486285Y-70153608D01*
X133418405Y-70026614D01*
X133307962Y-69892038D01*
X133173386Y-69781595D01*
X133019850Y-69699528D01*
X132853254Y-69648992D01*
X132680000Y-69631928D01*
X131480000Y-69631928D01*
X131306746Y-69648992D01*
X131140150Y-69699528D01*
X130986614Y-69781595D01*
X130852038Y-69892038D01*
X130741595Y-70026614D01*
X130659528Y-70180150D01*
X130608992Y-70346746D01*
X130591928Y-70520000D01*
X125857000Y-70520000D01*
X125857000Y-69125000D01*
X142021928Y-69125000D01*
X142021928Y-70575000D01*
X142038992Y-70748254D01*
X142089528Y-70914850D01*
X142171595Y-71068386D01*
X142282038Y-71202962D01*
X142416614Y-71313405D01*
X142570150Y-71395472D01*
X142736746Y-71446008D01*
X142910000Y-71463072D01*
X144110000Y-71463072D01*
X144283254Y-71446008D01*
X144449850Y-71395472D01*
X144603386Y-71313405D01*
X144737962Y-71202962D01*
X144848405Y-71068386D01*
X144902777Y-70966663D01*
X144954866Y-71030134D01*
X145180987Y-71215706D01*
X145438967Y-71353599D01*
X145718890Y-71438513D01*
X146010000Y-71467185D01*
X146301111Y-71438513D01*
X146581034Y-71353599D01*
X146839014Y-71215706D01*
X147065134Y-71030134D01*
X147250706Y-70804014D01*
X147260000Y-70786626D01*
X147269294Y-70804014D01*
X147454866Y-71030134D01*
X147680987Y-71215706D01*
X147938967Y-71353599D01*
X148218890Y-71438513D01*
X148510000Y-71467185D01*
X148801111Y-71438513D01*
X149081034Y-71353599D01*
X149339014Y-71215706D01*
X149565134Y-71030134D01*
X149750706Y-70804014D01*
X149760000Y-70786626D01*
X149769294Y-70804014D01*
X149954866Y-71030134D01*
X150180987Y-71215706D01*
X150438967Y-71353599D01*
X150718890Y-71438513D01*
X151010000Y-71467185D01*
X151301111Y-71438513D01*
X151581034Y-71353599D01*
X151839014Y-71215706D01*
X152065134Y-71030134D01*
X152250706Y-70804014D01*
X152388599Y-70546033D01*
X152473513Y-70266110D01*
X152495000Y-70047949D01*
X152495000Y-69652050D01*
X152473513Y-69433889D01*
X152388599Y-69153966D01*
X152250706Y-68895986D01*
X152065134Y-68669866D01*
X151839013Y-68484294D01*
X151581033Y-68346401D01*
X151301110Y-68261487D01*
X151010000Y-68232815D01*
X150718889Y-68261487D01*
X150438966Y-68346401D01*
X150180986Y-68484294D01*
X149954866Y-68669866D01*
X149769294Y-68895987D01*
X149760000Y-68913374D01*
X149750706Y-68895986D01*
X149565134Y-68669866D01*
X149339013Y-68484294D01*
X149081033Y-68346401D01*
X148801110Y-68261487D01*
X148510000Y-68232815D01*
X148218889Y-68261487D01*
X147938966Y-68346401D01*
X147680986Y-68484294D01*
X147454866Y-68669866D01*
X147269294Y-68895987D01*
X147260000Y-68913374D01*
X147250706Y-68895986D01*
X147065134Y-68669866D01*
X146839013Y-68484294D01*
X146581033Y-68346401D01*
X146301110Y-68261487D01*
X146010000Y-68232815D01*
X145718889Y-68261487D01*
X145438966Y-68346401D01*
X145180986Y-68484294D01*
X144954866Y-68669866D01*
X144902777Y-68733337D01*
X144848405Y-68631614D01*
X144737962Y-68497038D01*
X144603386Y-68386595D01*
X144449850Y-68304528D01*
X144283254Y-68253992D01*
X144110000Y-68236928D01*
X142910000Y-68236928D01*
X142736746Y-68253992D01*
X142570150Y-68304528D01*
X142416614Y-68386595D01*
X142282038Y-68497038D01*
X142171595Y-68631614D01*
X142089528Y-68785150D01*
X142038992Y-68951746D01*
X142021928Y-69125000D01*
X125857000Y-69125000D01*
X125857000Y-64822608D01*
X125890920Y-64788688D01*
X126227106Y-65257868D01*
X126857068Y-65598237D01*
X127541327Y-65809166D01*
X128253589Y-65882550D01*
X128966482Y-65815569D01*
X129652609Y-65610796D01*
X130285603Y-65276102D01*
X130312894Y-65257868D01*
X130649081Y-64788686D01*
X128270000Y-62409605D01*
X128255858Y-62423748D01*
X128076253Y-62244143D01*
X128090395Y-62230000D01*
X128076253Y-62215858D01*
X128255858Y-62036253D01*
X128270000Y-62050395D01*
X128284143Y-62036253D01*
X128463748Y-62215858D01*
X128449605Y-62230000D01*
X130828686Y-64609081D01*
X131297868Y-64272894D01*
X131638237Y-63642932D01*
X131849166Y-62958673D01*
X131922550Y-62246411D01*
X131855569Y-61533518D01*
X131650796Y-60847391D01*
X131316102Y-60214397D01*
X131297868Y-60187106D01*
X130828688Y-59850920D01*
X130862608Y-59817000D01*
X159967392Y-59817000D01*
X160001312Y-59850920D01*
%TA.AperFunction,Conductor*%
D16*
G36*
X160001312Y-59850920D02*
G01*
X159532132Y-60187106D01*
X159191763Y-60817068D01*
X158980834Y-61501327D01*
X158907450Y-62213589D01*
X158974431Y-62926482D01*
X159179204Y-63612609D01*
X159513898Y-64245603D01*
X159532132Y-64272894D01*
X160001314Y-64609081D01*
X162380395Y-62230000D01*
X162366253Y-62215858D01*
X162545858Y-62036253D01*
X162560000Y-62050395D01*
X162574143Y-62036253D01*
X162753748Y-62215858D01*
X162739605Y-62230000D01*
X162753748Y-62244143D01*
X162574143Y-62423748D01*
X162560000Y-62409605D01*
X160180919Y-64788686D01*
X160517106Y-65257868D01*
X161147068Y-65598237D01*
X161831327Y-65809166D01*
X162543589Y-65882550D01*
X163256482Y-65815569D01*
X163942609Y-65610796D01*
X164575603Y-65276102D01*
X164602894Y-65257868D01*
X164939080Y-64788688D01*
X164973000Y-64822608D01*
X164973000Y-125677392D01*
X164939080Y-125711312D01*
X164602894Y-125242132D01*
X163972932Y-124901763D01*
X163288673Y-124690834D01*
X162576411Y-124617450D01*
X161863518Y-124684431D01*
X161177391Y-124889204D01*
X160544397Y-125223898D01*
X160517106Y-125242132D01*
X160180919Y-125711314D01*
X162560000Y-128090395D01*
X162574143Y-128076253D01*
X162753748Y-128255858D01*
X162739605Y-128270000D01*
X162753748Y-128284143D01*
X162574143Y-128463748D01*
X162560000Y-128449605D01*
X162545858Y-128463748D01*
X162366253Y-128284143D01*
X162380395Y-128270000D01*
X160001314Y-125890919D01*
X159532132Y-126227106D01*
X159191763Y-126857068D01*
X158980834Y-127541327D01*
X158907450Y-128253589D01*
X158974431Y-128966482D01*
X159179204Y-129652609D01*
X159513898Y-130285603D01*
X159532132Y-130312894D01*
X160001312Y-130649080D01*
X159967392Y-130683000D01*
X130862608Y-130683000D01*
X130828688Y-130649080D01*
X131297868Y-130312894D01*
X131638237Y-129682932D01*
X131849166Y-128998673D01*
X131922550Y-128286411D01*
X131855569Y-127573518D01*
X131650796Y-126887391D01*
X131316102Y-126254397D01*
X131297868Y-126227106D01*
X130828686Y-125890919D01*
X128449605Y-128270000D01*
X128463748Y-128284143D01*
X128284143Y-128463748D01*
X128270000Y-128449605D01*
X128255858Y-128463748D01*
X128076253Y-128284143D01*
X128090395Y-128270000D01*
X128076253Y-128255858D01*
X128255858Y-128076253D01*
X128270000Y-128090395D01*
X130649081Y-125711314D01*
X130312894Y-125242132D01*
X129682932Y-124901763D01*
X128998673Y-124690834D01*
X128286411Y-124617450D01*
X127573518Y-124684431D01*
X126887391Y-124889204D01*
X126254397Y-125223898D01*
X126227106Y-125242132D01*
X125890920Y-125711312D01*
X125857000Y-125677392D01*
X125857000Y-120408397D01*
X131231208Y-120408397D01*
X131308843Y-120657472D01*
X131572883Y-120783371D01*
X131856411Y-120855339D01*
X132148531Y-120870611D01*
X132438019Y-120828599D01*
X132713747Y-120730919D01*
X132851157Y-120657472D01*
X132928792Y-120408397D01*
X132080000Y-119559605D01*
X131231208Y-120408397D01*
X125857000Y-120408397D01*
X125857000Y-119448531D01*
X130589389Y-119448531D01*
X130631401Y-119738019D01*
X130729081Y-120013747D01*
X130802528Y-120151157D01*
X131051603Y-120228792D01*
X131900395Y-119380000D01*
X131051603Y-118531208D01*
X130802528Y-118608843D01*
X130676629Y-118872883D01*
X130604661Y-119156411D01*
X130589389Y-119448531D01*
X125857000Y-119448531D01*
X125857000Y-101668531D01*
X130589389Y-101668531D01*
X130631401Y-101958019D01*
X130729081Y-102233747D01*
X130802528Y-102371157D01*
X131051603Y-102448792D01*
X131900395Y-101600000D01*
X131051603Y-100751208D01*
X130802528Y-100828843D01*
X130676629Y-101092883D01*
X130604661Y-101376411D01*
X130589389Y-101668531D01*
X125857000Y-101668531D01*
X125857000Y-81348531D01*
X130589389Y-81348531D01*
X130631401Y-81638019D01*
X130729081Y-81913747D01*
X130802528Y-82051157D01*
X131051603Y-82128792D01*
X131900395Y-81280000D01*
X131051603Y-80431208D01*
X130802528Y-80508843D01*
X130676629Y-80772883D01*
X130604661Y-81056411D01*
X130589389Y-81348531D01*
X125857000Y-81348531D01*
X125857000Y-70520000D01*
X130591928Y-70520000D01*
X130591928Y-71720000D01*
X130608992Y-71893254D01*
X130659528Y-72059850D01*
X130741595Y-72213386D01*
X130852038Y-72347962D01*
X130986614Y-72458405D01*
X131113608Y-72526285D01*
X130926525Y-72713368D01*
X130764010Y-72956589D01*
X130652068Y-73226842D01*
X130595000Y-73513740D01*
X130595000Y-73806260D01*
X130652068Y-74093158D01*
X130764010Y-74363411D01*
X130926525Y-74606632D01*
X131133368Y-74813475D01*
X131307760Y-74930000D01*
X131133368Y-75046525D01*
X130926525Y-75253368D01*
X130764010Y-75496589D01*
X130652068Y-75766842D01*
X130595000Y-76053740D01*
X130595000Y-76346260D01*
X130652068Y-76633158D01*
X130764010Y-76903411D01*
X130926525Y-77146632D01*
X131133368Y-77353475D01*
X131307760Y-77470000D01*
X131133368Y-77586525D01*
X130926525Y-77793368D01*
X130764010Y-78036589D01*
X130652068Y-78306842D01*
X130595000Y-78593740D01*
X130595000Y-78886260D01*
X130652068Y-79173158D01*
X130764010Y-79443411D01*
X130926525Y-79686632D01*
X131133368Y-79893475D01*
X131306729Y-80009311D01*
X131231208Y-80251603D01*
X132080000Y-81100395D01*
X132928792Y-80251603D01*
X132853271Y-80009311D01*
X133026632Y-79893475D01*
X133233475Y-79686632D01*
X133350000Y-79512240D01*
X133466525Y-79686632D01*
X133673368Y-79893475D01*
X133847760Y-80010000D01*
X133673368Y-80126525D01*
X133466525Y-80333368D01*
X133350689Y-80506729D01*
X133108397Y-80431208D01*
X132259605Y-81280000D01*
X133108397Y-82128792D01*
X133350689Y-82053271D01*
X133466525Y-82226632D01*
X133673368Y-82433475D01*
X133847760Y-82550000D01*
X133673368Y-82666525D01*
X133466525Y-82873368D01*
X133350000Y-83047760D01*
X133233475Y-82873368D01*
X133026632Y-82666525D01*
X132853271Y-82550689D01*
X132928792Y-82308397D01*
X132080000Y-81459605D01*
X131231208Y-82308397D01*
X131306729Y-82550689D01*
X131133368Y-82666525D01*
X130926525Y-82873368D01*
X130764010Y-83116589D01*
X130652068Y-83386842D01*
X130595000Y-83673740D01*
X130595000Y-83966260D01*
X130652068Y-84253158D01*
X130764010Y-84523411D01*
X130926525Y-84766632D01*
X131133368Y-84973475D01*
X131307760Y-85090000D01*
X131133368Y-85206525D01*
X130926525Y-85413368D01*
X130764010Y-85656589D01*
X130652068Y-85926842D01*
X130595000Y-86213740D01*
X130595000Y-86506260D01*
X130652068Y-86793158D01*
X130764010Y-87063411D01*
X130926525Y-87306632D01*
X131133368Y-87513475D01*
X131307760Y-87630000D01*
X131133368Y-87746525D01*
X130926525Y-87953368D01*
X130764010Y-88196589D01*
X130652068Y-88466842D01*
X130595000Y-88753740D01*
X130595000Y-89046260D01*
X130652068Y-89333158D01*
X130764010Y-89603411D01*
X130926525Y-89846632D01*
X131133368Y-90053475D01*
X131307760Y-90170000D01*
X131133368Y-90286525D01*
X130926525Y-90493368D01*
X130764010Y-90736589D01*
X130652068Y-91006842D01*
X130595000Y-91293740D01*
X130595000Y-91586260D01*
X130652068Y-91873158D01*
X130764010Y-92143411D01*
X130926525Y-92386632D01*
X131133368Y-92593475D01*
X131307760Y-92710000D01*
X131133368Y-92826525D01*
X130926525Y-93033368D01*
X130764010Y-93276589D01*
X130652068Y-93546842D01*
X130595000Y-93833740D01*
X130595000Y-94126260D01*
X130652068Y-94413158D01*
X130764010Y-94683411D01*
X130926525Y-94926632D01*
X131133368Y-95133475D01*
X131307760Y-95250000D01*
X131133368Y-95366525D01*
X130926525Y-95573368D01*
X130764010Y-95816589D01*
X130652068Y-96086842D01*
X130595000Y-96373740D01*
X130595000Y-96666260D01*
X130652068Y-96953158D01*
X130764010Y-97223411D01*
X130926525Y-97466632D01*
X131133368Y-97673475D01*
X131307760Y-97790000D01*
X131133368Y-97906525D01*
X130926525Y-98113368D01*
X130764010Y-98356589D01*
X130652068Y-98626842D01*
X130595000Y-98913740D01*
X130595000Y-99206260D01*
X130652068Y-99493158D01*
X130764010Y-99763411D01*
X130926525Y-100006632D01*
X131133368Y-100213475D01*
X131306729Y-100329311D01*
X131231208Y-100571603D01*
X132080000Y-101420395D01*
X132928792Y-100571603D01*
X132853271Y-100329311D01*
X133026632Y-100213475D01*
X133233475Y-100006632D01*
X133350000Y-99832240D01*
X133466525Y-100006632D01*
X133673368Y-100213475D01*
X133847760Y-100330000D01*
X133673368Y-100446525D01*
X133466525Y-100653368D01*
X133350689Y-100826729D01*
X133108397Y-100751208D01*
X132259605Y-101600000D01*
X133108397Y-102448792D01*
X133350689Y-102373271D01*
X133466525Y-102546632D01*
X133673368Y-102753475D01*
X133847760Y-102870000D01*
X133673368Y-102986525D01*
X133466525Y-103193368D01*
X133350000Y-103367760D01*
X133233475Y-103193368D01*
X133026632Y-102986525D01*
X132853271Y-102870689D01*
X132928792Y-102628397D01*
X132080000Y-101779605D01*
X131231208Y-102628397D01*
X131306729Y-102870689D01*
X131133368Y-102986525D01*
X130926525Y-103193368D01*
X130764010Y-103436589D01*
X130652068Y-103706842D01*
X130595000Y-103993740D01*
X130595000Y-104286260D01*
X130652068Y-104573158D01*
X130764010Y-104843411D01*
X130926525Y-105086632D01*
X131133368Y-105293475D01*
X131307760Y-105410000D01*
X131133368Y-105526525D01*
X130926525Y-105733368D01*
X130764010Y-105976589D01*
X130652068Y-106246842D01*
X130595000Y-106533740D01*
X130595000Y-106826260D01*
X130652068Y-107113158D01*
X130764010Y-107383411D01*
X130926525Y-107626632D01*
X131133368Y-107833475D01*
X131307760Y-107950000D01*
X131133368Y-108066525D01*
X130926525Y-108273368D01*
X130764010Y-108516589D01*
X130652068Y-108786842D01*
X130595000Y-109073740D01*
X130595000Y-109366260D01*
X130652068Y-109653158D01*
X130764010Y-109923411D01*
X130926525Y-110166632D01*
X131133368Y-110373475D01*
X131307760Y-110490000D01*
X131133368Y-110606525D01*
X130926525Y-110813368D01*
X130764010Y-111056589D01*
X130652068Y-111326842D01*
X130595000Y-111613740D01*
X130595000Y-111906260D01*
X130652068Y-112193158D01*
X130764010Y-112463411D01*
X130926525Y-112706632D01*
X131133368Y-112913475D01*
X131307760Y-113030000D01*
X131133368Y-113146525D01*
X130926525Y-113353368D01*
X130764010Y-113596589D01*
X130652068Y-113866842D01*
X130595000Y-114153740D01*
X130595000Y-114446260D01*
X130652068Y-114733158D01*
X130764010Y-115003411D01*
X130926525Y-115246632D01*
X131133368Y-115453475D01*
X131307760Y-115570000D01*
X131133368Y-115686525D01*
X130926525Y-115893368D01*
X130764010Y-116136589D01*
X130652068Y-116406842D01*
X130595000Y-116693740D01*
X130595000Y-116986260D01*
X130652068Y-117273158D01*
X130764010Y-117543411D01*
X130926525Y-117786632D01*
X131133368Y-117993475D01*
X131306729Y-118109311D01*
X131231208Y-118351603D01*
X132080000Y-119200395D01*
X132928792Y-118351603D01*
X132853271Y-118109311D01*
X133026632Y-117993475D01*
X133233475Y-117786632D01*
X133350000Y-117612240D01*
X133466525Y-117786632D01*
X133673368Y-117993475D01*
X133847760Y-118110000D01*
X133673368Y-118226525D01*
X133466525Y-118433368D01*
X133350689Y-118606729D01*
X133108397Y-118531208D01*
X132259605Y-119380000D01*
X133108397Y-120228792D01*
X133350689Y-120153271D01*
X133466525Y-120326632D01*
X133673368Y-120533475D01*
X133916589Y-120695990D01*
X134186842Y-120807932D01*
X134473740Y-120865000D01*
X134766260Y-120865000D01*
X135053158Y-120807932D01*
X135323411Y-120695990D01*
X135566632Y-120533475D01*
X135773475Y-120326632D01*
X135935990Y-120083411D01*
X136047932Y-119813158D01*
X136105000Y-119526260D01*
X136105000Y-119233740D01*
X136047932Y-118946842D01*
X135935990Y-118676589D01*
X135773475Y-118433368D01*
X135566632Y-118226525D01*
X135392240Y-118110000D01*
X135566632Y-117993475D01*
X135773475Y-117786632D01*
X135935990Y-117543411D01*
X136001605Y-117385000D01*
X142021928Y-117385000D01*
X142021928Y-118835000D01*
X142038992Y-119008254D01*
X142089528Y-119174850D01*
X142171595Y-119328386D01*
X142282038Y-119462962D01*
X142416614Y-119573405D01*
X142570150Y-119655472D01*
X142736746Y-119706008D01*
X142910000Y-119723072D01*
X144110000Y-119723072D01*
X144283254Y-119706008D01*
X144449850Y-119655472D01*
X144603386Y-119573405D01*
X144737962Y-119462962D01*
X144848405Y-119328386D01*
X144902777Y-119226663D01*
X144954866Y-119290134D01*
X145180987Y-119475706D01*
X145438967Y-119613599D01*
X145718890Y-119698513D01*
X146010000Y-119727185D01*
X146301111Y-119698513D01*
X146581034Y-119613599D01*
X146839014Y-119475706D01*
X147065134Y-119290134D01*
X147250706Y-119064014D01*
X147260000Y-119046626D01*
X147269294Y-119064014D01*
X147454866Y-119290134D01*
X147680987Y-119475706D01*
X147938967Y-119613599D01*
X148218890Y-119698513D01*
X148510000Y-119727185D01*
X148801111Y-119698513D01*
X149081034Y-119613599D01*
X149339014Y-119475706D01*
X149565134Y-119290134D01*
X149750706Y-119064014D01*
X149760000Y-119046626D01*
X149769294Y-119064014D01*
X149954866Y-119290134D01*
X150180987Y-119475706D01*
X150438967Y-119613599D01*
X150718890Y-119698513D01*
X151010000Y-119727185D01*
X151301111Y-119698513D01*
X151581034Y-119613599D01*
X151839014Y-119475706D01*
X152065134Y-119290134D01*
X152250706Y-119064014D01*
X152388599Y-118806033D01*
X152473513Y-118526110D01*
X152495000Y-118307949D01*
X152495000Y-117912050D01*
X152473513Y-117693889D01*
X152388599Y-117413966D01*
X152250706Y-117155986D01*
X152065134Y-116929866D01*
X151839013Y-116744294D01*
X151581033Y-116606401D01*
X151301110Y-116521487D01*
X151010000Y-116492815D01*
X150718889Y-116521487D01*
X150438966Y-116606401D01*
X150180986Y-116744294D01*
X149954866Y-116929866D01*
X149769294Y-117155987D01*
X149760000Y-117173374D01*
X149750706Y-117155986D01*
X149565134Y-116929866D01*
X149339013Y-116744294D01*
X149081033Y-116606401D01*
X148801110Y-116521487D01*
X148510000Y-116492815D01*
X148218889Y-116521487D01*
X147938966Y-116606401D01*
X147680986Y-116744294D01*
X147454866Y-116929866D01*
X147269294Y-117155987D01*
X147260000Y-117173374D01*
X147250706Y-117155986D01*
X147065134Y-116929866D01*
X146839013Y-116744294D01*
X146581033Y-116606401D01*
X146301110Y-116521487D01*
X146010000Y-116492815D01*
X145718889Y-116521487D01*
X145438966Y-116606401D01*
X145180986Y-116744294D01*
X144954866Y-116929866D01*
X144902777Y-116993337D01*
X144848405Y-116891614D01*
X144737962Y-116757038D01*
X144603386Y-116646595D01*
X144449850Y-116564528D01*
X144283254Y-116513992D01*
X144110000Y-116496928D01*
X142910000Y-116496928D01*
X142736746Y-116513992D01*
X142570150Y-116564528D01*
X142416614Y-116646595D01*
X142282038Y-116757038D01*
X142171595Y-116891614D01*
X142089528Y-117045150D01*
X142038992Y-117211746D01*
X142021928Y-117385000D01*
X136001605Y-117385000D01*
X136047932Y-117273158D01*
X136105000Y-116986260D01*
X136105000Y-116693740D01*
X136047932Y-116406842D01*
X135935990Y-116136589D01*
X135773475Y-115893368D01*
X135566632Y-115686525D01*
X135392240Y-115570000D01*
X135566632Y-115453475D01*
X135773475Y-115246632D01*
X135935990Y-115003411D01*
X136047932Y-114733158D01*
X136105000Y-114446260D01*
X136105000Y-114153740D01*
X136047932Y-113866842D01*
X135935990Y-113596589D01*
X135773475Y-113353368D01*
X135566632Y-113146525D01*
X135393271Y-113030689D01*
X135468792Y-112788397D01*
X134620000Y-111939605D01*
X133771208Y-112788397D01*
X133846729Y-113030689D01*
X133673368Y-113146525D01*
X133466525Y-113353368D01*
X133350000Y-113527760D01*
X133233475Y-113353368D01*
X133026632Y-113146525D01*
X132852240Y-113030000D01*
X133026632Y-112913475D01*
X133233475Y-112706632D01*
X133349311Y-112533271D01*
X133591603Y-112608792D01*
X134440395Y-111760000D01*
X134799605Y-111760000D01*
X135648397Y-112608792D01*
X135897472Y-112531157D01*
X136023371Y-112267117D01*
X136095339Y-111983589D01*
X136110611Y-111691469D01*
X136068599Y-111401981D01*
X135970919Y-111126253D01*
X135897472Y-110988843D01*
X135648397Y-110911208D01*
X134799605Y-111760000D01*
X134440395Y-111760000D01*
X133591603Y-110911208D01*
X133349311Y-110986729D01*
X133233475Y-110813368D01*
X133026632Y-110606525D01*
X132852240Y-110490000D01*
X133026632Y-110373475D01*
X133233475Y-110166632D01*
X133350000Y-109992240D01*
X133466525Y-110166632D01*
X133673368Y-110373475D01*
X133846729Y-110489311D01*
X133771208Y-110731603D01*
X134620000Y-111580395D01*
X135468792Y-110731603D01*
X135393271Y-110489311D01*
X135566632Y-110373475D01*
X135773475Y-110166632D01*
X135935990Y-109923411D01*
X136047932Y-109653158D01*
X136105000Y-109366260D01*
X136105000Y-109073740D01*
X136047932Y-108786842D01*
X135935990Y-108516589D01*
X135921565Y-108495000D01*
X142021928Y-108495000D01*
X142021928Y-109945000D01*
X142038992Y-110118254D01*
X142089528Y-110284850D01*
X142171595Y-110438386D01*
X142282038Y-110572962D01*
X142416614Y-110683405D01*
X142570150Y-110765472D01*
X142736746Y-110816008D01*
X142910000Y-110833072D01*
X144110000Y-110833072D01*
X144283254Y-110816008D01*
X144449850Y-110765472D01*
X144603386Y-110683405D01*
X144737962Y-110572962D01*
X144848405Y-110438386D01*
X144902777Y-110336663D01*
X144954866Y-110400134D01*
X145180987Y-110585706D01*
X145438967Y-110723599D01*
X145718890Y-110808513D01*
X146010000Y-110837185D01*
X146301111Y-110808513D01*
X146581034Y-110723599D01*
X146839014Y-110585706D01*
X147065134Y-110400134D01*
X147250706Y-110174014D01*
X147260000Y-110156626D01*
X147269294Y-110174014D01*
X147454866Y-110400134D01*
X147680987Y-110585706D01*
X147938967Y-110723599D01*
X148218890Y-110808513D01*
X148510000Y-110837185D01*
X148801111Y-110808513D01*
X149081034Y-110723599D01*
X149339014Y-110585706D01*
X149565134Y-110400134D01*
X149750706Y-110174014D01*
X149760000Y-110156626D01*
X149769294Y-110174014D01*
X149954866Y-110400134D01*
X150180987Y-110585706D01*
X150438967Y-110723599D01*
X150718890Y-110808513D01*
X151010000Y-110837185D01*
X151301111Y-110808513D01*
X151581034Y-110723599D01*
X151839014Y-110585706D01*
X152065134Y-110400134D01*
X152250706Y-110174014D01*
X152388599Y-109916033D01*
X152473513Y-109636110D01*
X152495000Y-109417949D01*
X152495000Y-109022050D01*
X152473513Y-108803889D01*
X152388599Y-108523966D01*
X152250706Y-108265986D01*
X152065134Y-108039866D01*
X151839013Y-107854294D01*
X151581033Y-107716401D01*
X151301110Y-107631487D01*
X151010000Y-107602815D01*
X150718889Y-107631487D01*
X150438966Y-107716401D01*
X150180986Y-107854294D01*
X149954866Y-108039866D01*
X149769294Y-108265987D01*
X149760000Y-108283374D01*
X149750706Y-108265986D01*
X149565134Y-108039866D01*
X149339013Y-107854294D01*
X149081033Y-107716401D01*
X148801110Y-107631487D01*
X148510000Y-107602815D01*
X148218889Y-107631487D01*
X147938966Y-107716401D01*
X147680986Y-107854294D01*
X147454866Y-108039866D01*
X147269294Y-108265987D01*
X147260000Y-108283374D01*
X147250706Y-108265986D01*
X147065134Y-108039866D01*
X146839013Y-107854294D01*
X146581033Y-107716401D01*
X146301110Y-107631487D01*
X146010000Y-107602815D01*
X145718889Y-107631487D01*
X145438966Y-107716401D01*
X145180986Y-107854294D01*
X144954866Y-108039866D01*
X144902777Y-108103337D01*
X144848405Y-108001614D01*
X144737962Y-107867038D01*
X144603386Y-107756595D01*
X144449850Y-107674528D01*
X144283254Y-107623992D01*
X144110000Y-107606928D01*
X142910000Y-107606928D01*
X142736746Y-107623992D01*
X142570150Y-107674528D01*
X142416614Y-107756595D01*
X142282038Y-107867038D01*
X142171595Y-108001614D01*
X142089528Y-108155150D01*
X142038992Y-108321746D01*
X142021928Y-108495000D01*
X135921565Y-108495000D01*
X135773475Y-108273368D01*
X135566632Y-108066525D01*
X135393271Y-107950689D01*
X135468792Y-107708397D01*
X134620000Y-106859605D01*
X133771208Y-107708397D01*
X133846729Y-107950689D01*
X133673368Y-108066525D01*
X133466525Y-108273368D01*
X133350000Y-108447760D01*
X133233475Y-108273368D01*
X133026632Y-108066525D01*
X132852240Y-107950000D01*
X133026632Y-107833475D01*
X133233475Y-107626632D01*
X133349311Y-107453271D01*
X133591603Y-107528792D01*
X134440395Y-106680000D01*
X134799605Y-106680000D01*
X135648397Y-107528792D01*
X135897472Y-107451157D01*
X136023371Y-107187117D01*
X136095339Y-106903589D01*
X136110611Y-106611469D01*
X136068599Y-106321981D01*
X135970919Y-106046253D01*
X135897472Y-105908843D01*
X135648397Y-105831208D01*
X134799605Y-106680000D01*
X134440395Y-106680000D01*
X133591603Y-105831208D01*
X133349311Y-105906729D01*
X133233475Y-105733368D01*
X133026632Y-105526525D01*
X132852240Y-105410000D01*
X133026632Y-105293475D01*
X133233475Y-105086632D01*
X133350000Y-104912240D01*
X133466525Y-105086632D01*
X133673368Y-105293475D01*
X133846729Y-105409311D01*
X133771208Y-105651603D01*
X134620000Y-106500395D01*
X135468792Y-105651603D01*
X135393271Y-105409311D01*
X135566632Y-105293475D01*
X135773475Y-105086632D01*
X135935990Y-104843411D01*
X136047932Y-104573158D01*
X136105000Y-104286260D01*
X136105000Y-103993740D01*
X136047932Y-103706842D01*
X135935990Y-103436589D01*
X135773475Y-103193368D01*
X135566632Y-102986525D01*
X135392240Y-102870000D01*
X135566632Y-102753475D01*
X135773475Y-102546632D01*
X135935990Y-102303411D01*
X136047932Y-102033158D01*
X136105000Y-101746260D01*
X136105000Y-101453740D01*
X136047932Y-101166842D01*
X135935990Y-100896589D01*
X135773475Y-100653368D01*
X135566632Y-100446525D01*
X135392240Y-100330000D01*
X135566632Y-100213475D01*
X135773475Y-100006632D01*
X135935990Y-99763411D01*
X136001605Y-99605000D01*
X142021928Y-99605000D01*
X142021928Y-101055000D01*
X142038992Y-101228254D01*
X142089528Y-101394850D01*
X142171595Y-101548386D01*
X142282038Y-101682962D01*
X142416614Y-101793405D01*
X142570150Y-101875472D01*
X142736746Y-101926008D01*
X142910000Y-101943072D01*
X144110000Y-101943072D01*
X144283254Y-101926008D01*
X144449850Y-101875472D01*
X144603386Y-101793405D01*
X144737962Y-101682962D01*
X144848405Y-101548386D01*
X144902777Y-101446663D01*
X144954866Y-101510134D01*
X145180987Y-101695706D01*
X145438967Y-101833599D01*
X145718890Y-101918513D01*
X146010000Y-101947185D01*
X146301111Y-101918513D01*
X146581034Y-101833599D01*
X146839014Y-101695706D01*
X147065134Y-101510134D01*
X147250706Y-101284014D01*
X147260000Y-101266626D01*
X147269294Y-101284014D01*
X147454866Y-101510134D01*
X147680987Y-101695706D01*
X147938967Y-101833599D01*
X148218890Y-101918513D01*
X148510000Y-101947185D01*
X148801111Y-101918513D01*
X149081034Y-101833599D01*
X149339014Y-101695706D01*
X149565134Y-101510134D01*
X149750706Y-101284014D01*
X149760000Y-101266626D01*
X149769294Y-101284014D01*
X149954866Y-101510134D01*
X150180987Y-101695706D01*
X150438967Y-101833599D01*
X150718890Y-101918513D01*
X151010000Y-101947185D01*
X151301111Y-101918513D01*
X151581034Y-101833599D01*
X151839014Y-101695706D01*
X152065134Y-101510134D01*
X152250706Y-101284014D01*
X152388599Y-101026033D01*
X152473513Y-100746110D01*
X152495000Y-100527949D01*
X152495000Y-100132050D01*
X152473513Y-99913889D01*
X152388599Y-99633966D01*
X152250706Y-99375986D01*
X152065134Y-99149866D01*
X151839013Y-98964294D01*
X151581033Y-98826401D01*
X151301110Y-98741487D01*
X151010000Y-98712815D01*
X150718889Y-98741487D01*
X150438966Y-98826401D01*
X150180986Y-98964294D01*
X149954866Y-99149866D01*
X149769294Y-99375987D01*
X149760000Y-99393374D01*
X149750706Y-99375986D01*
X149565134Y-99149866D01*
X149339013Y-98964294D01*
X149081033Y-98826401D01*
X148801110Y-98741487D01*
X148510000Y-98712815D01*
X148218889Y-98741487D01*
X147938966Y-98826401D01*
X147680986Y-98964294D01*
X147454866Y-99149866D01*
X147269294Y-99375987D01*
X147260000Y-99393374D01*
X147250706Y-99375986D01*
X147065134Y-99149866D01*
X146839013Y-98964294D01*
X146581033Y-98826401D01*
X146301110Y-98741487D01*
X146010000Y-98712815D01*
X145718889Y-98741487D01*
X145438966Y-98826401D01*
X145180986Y-98964294D01*
X144954866Y-99149866D01*
X144902777Y-99213337D01*
X144848405Y-99111614D01*
X144737962Y-98977038D01*
X144603386Y-98866595D01*
X144449850Y-98784528D01*
X144283254Y-98733992D01*
X144110000Y-98716928D01*
X142910000Y-98716928D01*
X142736746Y-98733992D01*
X142570150Y-98784528D01*
X142416614Y-98866595D01*
X142282038Y-98977038D01*
X142171595Y-99111614D01*
X142089528Y-99265150D01*
X142038992Y-99431746D01*
X142021928Y-99605000D01*
X136001605Y-99605000D01*
X136047932Y-99493158D01*
X136105000Y-99206260D01*
X136105000Y-98913740D01*
X136047932Y-98626842D01*
X135935990Y-98356589D01*
X135773475Y-98113368D01*
X135566632Y-97906525D01*
X135392240Y-97790000D01*
X135566632Y-97673475D01*
X135773475Y-97466632D01*
X135935990Y-97223411D01*
X136047932Y-96953158D01*
X136105000Y-96666260D01*
X136105000Y-96560000D01*
X158402815Y-96560000D01*
X158431487Y-96851111D01*
X158516401Y-97131034D01*
X158654294Y-97389014D01*
X158839866Y-97615134D01*
X158903337Y-97667223D01*
X158801614Y-97721595D01*
X158667038Y-97832038D01*
X158556595Y-97966614D01*
X158474528Y-98120150D01*
X158423992Y-98286746D01*
X158406928Y-98460000D01*
X158406928Y-99660000D01*
X158423992Y-99833254D01*
X158474528Y-99999850D01*
X158556595Y-100153386D01*
X158667038Y-100287962D01*
X158801614Y-100398405D01*
X158955150Y-100480472D01*
X159121746Y-100531008D01*
X159295000Y-100548072D01*
X160745000Y-100548072D01*
X160918254Y-100531008D01*
X161084850Y-100480472D01*
X161238386Y-100398405D01*
X161372962Y-100287962D01*
X161483405Y-100153386D01*
X161565472Y-99999850D01*
X161616008Y-99833254D01*
X161633072Y-99660000D01*
X161633072Y-98460000D01*
X161616008Y-98286746D01*
X161565472Y-98120150D01*
X161483405Y-97966614D01*
X161372962Y-97832038D01*
X161238386Y-97721595D01*
X161136663Y-97667223D01*
X161200134Y-97615134D01*
X161385706Y-97389014D01*
X161523599Y-97131034D01*
X161608513Y-96851111D01*
X161637185Y-96560000D01*
X161608513Y-96268889D01*
X161523599Y-95988966D01*
X161385706Y-95730986D01*
X161200134Y-95504866D01*
X160974014Y-95319294D01*
X160948278Y-95305538D01*
X161154429Y-95149049D01*
X161347496Y-94931193D01*
X161494352Y-94679858D01*
X161586476Y-94416890D01*
X161465155Y-94187000D01*
X160147000Y-94187000D01*
X160147000Y-94207000D01*
X159893000Y-94207000D01*
X159893000Y-94187000D01*
X158574845Y-94187000D01*
X158453524Y-94416890D01*
X158545648Y-94679858D01*
X158692504Y-94931193D01*
X158885571Y-95149049D01*
X159091722Y-95305538D01*
X159065986Y-95319294D01*
X158839866Y-95504866D01*
X158654294Y-95730986D01*
X158516401Y-95988966D01*
X158431487Y-96268889D01*
X158402815Y-96560000D01*
X136105000Y-96560000D01*
X136105000Y-96373740D01*
X136047932Y-96086842D01*
X135935990Y-95816589D01*
X135773475Y-95573368D01*
X135566632Y-95366525D01*
X135393271Y-95250689D01*
X135468792Y-95008397D01*
X134620000Y-94159605D01*
X133771208Y-95008397D01*
X133846729Y-95250689D01*
X133673368Y-95366525D01*
X133466525Y-95573368D01*
X133350000Y-95747760D01*
X133233475Y-95573368D01*
X133026632Y-95366525D01*
X132852240Y-95250000D01*
X133026632Y-95133475D01*
X133233475Y-94926632D01*
X133349311Y-94753271D01*
X133591603Y-94828792D01*
X134440395Y-93980000D01*
X134799605Y-93980000D01*
X135648397Y-94828792D01*
X135897472Y-94751157D01*
X136023371Y-94487117D01*
X136095339Y-94203589D01*
X136110611Y-93911469D01*
X136068599Y-93621981D01*
X135970919Y-93346253D01*
X135897472Y-93208843D01*
X135648397Y-93131208D01*
X134799605Y-93980000D01*
X134440395Y-93980000D01*
X133591603Y-93131208D01*
X133349311Y-93206729D01*
X133233475Y-93033368D01*
X133026632Y-92826525D01*
X132852240Y-92710000D01*
X133026632Y-92593475D01*
X133233475Y-92386632D01*
X133350000Y-92212240D01*
X133466525Y-92386632D01*
X133673368Y-92593475D01*
X133846729Y-92709311D01*
X133771208Y-92951603D01*
X134620000Y-93800395D01*
X135468792Y-92951603D01*
X135393271Y-92709311D01*
X135566632Y-92593475D01*
X135773475Y-92386632D01*
X135935990Y-92143411D01*
X136029817Y-91916890D01*
X158453524Y-91916890D01*
X158545648Y-92179858D01*
X158692504Y-92431193D01*
X158885571Y-92649049D01*
X159097600Y-92810000D01*
X158885571Y-92970951D01*
X158692504Y-93188807D01*
X158545648Y-93440142D01*
X158453524Y-93703110D01*
X158574845Y-93933000D01*
X159893000Y-93933000D01*
X159893000Y-91687000D01*
X160147000Y-91687000D01*
X160147000Y-93933000D01*
X161465155Y-93933000D01*
X161586476Y-93703110D01*
X161494352Y-93440142D01*
X161347496Y-93188807D01*
X161154429Y-92970951D01*
X160942400Y-92810000D01*
X161154429Y-92649049D01*
X161347496Y-92431193D01*
X161494352Y-92179858D01*
X161586476Y-91916890D01*
X161465155Y-91687000D01*
X160147000Y-91687000D01*
X159893000Y-91687000D01*
X158574845Y-91687000D01*
X158453524Y-91916890D01*
X136029817Y-91916890D01*
X136047932Y-91873158D01*
X136105000Y-91586260D01*
X136105000Y-91293740D01*
X136086973Y-91203110D01*
X158453524Y-91203110D01*
X158574845Y-91433000D01*
X159893000Y-91433000D01*
X159893000Y-90233835D01*
X160147000Y-90233835D01*
X160147000Y-91433000D01*
X161465155Y-91433000D01*
X161586476Y-91203110D01*
X161494352Y-90940142D01*
X161347496Y-90688807D01*
X161154429Y-90470951D01*
X160922570Y-90294947D01*
X160660830Y-90167558D01*
X160379267Y-90093680D01*
X160147000Y-90233835D01*
X159893000Y-90233835D01*
X159660733Y-90093680D01*
X159379170Y-90167558D01*
X159117430Y-90294947D01*
X158885571Y-90470951D01*
X158692504Y-90688807D01*
X158545648Y-90940142D01*
X158453524Y-91203110D01*
X136086973Y-91203110D01*
X136047932Y-91006842D01*
X135935990Y-90736589D01*
X135773475Y-90493368D01*
X135566632Y-90286525D01*
X135392240Y-90170000D01*
X135566632Y-90053475D01*
X135773475Y-89846632D01*
X135935990Y-89603411D01*
X136047932Y-89333158D01*
X136105000Y-89046260D01*
X136105000Y-88753740D01*
X136047932Y-88466842D01*
X135935990Y-88196589D01*
X135773475Y-87953368D01*
X135566632Y-87746525D01*
X135393271Y-87630689D01*
X135468792Y-87388397D01*
X134620000Y-86539605D01*
X133771208Y-87388397D01*
X133846729Y-87630689D01*
X133673368Y-87746525D01*
X133466525Y-87953368D01*
X133350000Y-88127760D01*
X133233475Y-87953368D01*
X133026632Y-87746525D01*
X132852240Y-87630000D01*
X133026632Y-87513475D01*
X133233475Y-87306632D01*
X133349311Y-87133271D01*
X133591603Y-87208792D01*
X134440395Y-86360000D01*
X134799605Y-86360000D01*
X135648397Y-87208792D01*
X135897472Y-87131157D01*
X136005307Y-86905000D01*
X142021928Y-86905000D01*
X142021928Y-88355000D01*
X142038992Y-88528254D01*
X142089528Y-88694850D01*
X142171595Y-88848386D01*
X142282038Y-88982962D01*
X142416614Y-89093405D01*
X142570150Y-89175472D01*
X142736746Y-89226008D01*
X142910000Y-89243072D01*
X144110000Y-89243072D01*
X144283254Y-89226008D01*
X144449850Y-89175472D01*
X144603386Y-89093405D01*
X144737962Y-88982962D01*
X144848405Y-88848386D01*
X144902777Y-88746663D01*
X144954866Y-88810134D01*
X145180987Y-88995706D01*
X145438967Y-89133599D01*
X145718890Y-89218513D01*
X146010000Y-89247185D01*
X146301111Y-89218513D01*
X146581034Y-89133599D01*
X146839014Y-88995706D01*
X147065134Y-88810134D01*
X147250706Y-88584014D01*
X147260000Y-88566626D01*
X147269294Y-88584014D01*
X147454866Y-88810134D01*
X147680987Y-88995706D01*
X147938967Y-89133599D01*
X148218890Y-89218513D01*
X148510000Y-89247185D01*
X148801111Y-89218513D01*
X149081034Y-89133599D01*
X149339014Y-88995706D01*
X149565134Y-88810134D01*
X149750706Y-88584014D01*
X149760000Y-88566626D01*
X149769294Y-88584014D01*
X149954866Y-88810134D01*
X150180987Y-88995706D01*
X150438967Y-89133599D01*
X150718890Y-89218513D01*
X151010000Y-89247185D01*
X151301111Y-89218513D01*
X151581034Y-89133599D01*
X151839014Y-88995706D01*
X152065134Y-88810134D01*
X152250706Y-88584014D01*
X152388599Y-88326033D01*
X152473513Y-88046110D01*
X152495000Y-87827949D01*
X152495000Y-87432050D01*
X152473513Y-87213889D01*
X152388599Y-86933966D01*
X152250706Y-86675986D01*
X152065134Y-86449866D01*
X151839013Y-86264294D01*
X151581033Y-86126401D01*
X151301110Y-86041487D01*
X151010000Y-86012815D01*
X150718889Y-86041487D01*
X150438966Y-86126401D01*
X150180986Y-86264294D01*
X149954866Y-86449866D01*
X149769294Y-86675987D01*
X149760000Y-86693374D01*
X149750706Y-86675986D01*
X149565134Y-86449866D01*
X149339013Y-86264294D01*
X149081033Y-86126401D01*
X148801110Y-86041487D01*
X148510000Y-86012815D01*
X148218889Y-86041487D01*
X147938966Y-86126401D01*
X147680986Y-86264294D01*
X147454866Y-86449866D01*
X147269294Y-86675987D01*
X147260000Y-86693374D01*
X147250706Y-86675986D01*
X147065134Y-86449866D01*
X146839013Y-86264294D01*
X146581033Y-86126401D01*
X146301110Y-86041487D01*
X146010000Y-86012815D01*
X145718889Y-86041487D01*
X145438966Y-86126401D01*
X145180986Y-86264294D01*
X144954866Y-86449866D01*
X144902777Y-86513337D01*
X144848405Y-86411614D01*
X144737962Y-86277038D01*
X144603386Y-86166595D01*
X144449850Y-86084528D01*
X144283254Y-86033992D01*
X144110000Y-86016928D01*
X142910000Y-86016928D01*
X142736746Y-86033992D01*
X142570150Y-86084528D01*
X142416614Y-86166595D01*
X142282038Y-86277038D01*
X142171595Y-86411614D01*
X142089528Y-86565150D01*
X142038992Y-86731746D01*
X142021928Y-86905000D01*
X136005307Y-86905000D01*
X136023371Y-86867117D01*
X136095339Y-86583589D01*
X136110611Y-86291469D01*
X136068599Y-86001981D01*
X135970919Y-85726253D01*
X135897472Y-85588843D01*
X135648397Y-85511208D01*
X134799605Y-86360000D01*
X134440395Y-86360000D01*
X133591603Y-85511208D01*
X133349311Y-85586729D01*
X133233475Y-85413368D01*
X133026632Y-85206525D01*
X132852240Y-85090000D01*
X133026632Y-84973475D01*
X133233475Y-84766632D01*
X133350000Y-84592240D01*
X133466525Y-84766632D01*
X133673368Y-84973475D01*
X133846729Y-85089311D01*
X133771208Y-85331603D01*
X134620000Y-86180395D01*
X135468792Y-85331603D01*
X135393271Y-85089311D01*
X135566632Y-84973475D01*
X135773475Y-84766632D01*
X135935990Y-84523411D01*
X136047932Y-84253158D01*
X136105000Y-83966260D01*
X136105000Y-83673740D01*
X136047932Y-83386842D01*
X135935990Y-83116589D01*
X135773475Y-82873368D01*
X135566632Y-82666525D01*
X135392240Y-82550000D01*
X135566632Y-82433475D01*
X135773475Y-82226632D01*
X135935990Y-81983411D01*
X136047932Y-81713158D01*
X136105000Y-81426260D01*
X136105000Y-81133740D01*
X136047932Y-80846842D01*
X135935990Y-80576589D01*
X135773475Y-80333368D01*
X135566632Y-80126525D01*
X135392240Y-80010000D01*
X135566632Y-79893475D01*
X135773475Y-79686632D01*
X135935990Y-79443411D01*
X136047932Y-79173158D01*
X136105000Y-78886260D01*
X136105000Y-78593740D01*
X136047932Y-78306842D01*
X135935990Y-78036589D01*
X135921565Y-78015000D01*
X142021928Y-78015000D01*
X142021928Y-79465000D01*
X142038992Y-79638254D01*
X142089528Y-79804850D01*
X142171595Y-79958386D01*
X142282038Y-80092962D01*
X142416614Y-80203405D01*
X142570150Y-80285472D01*
X142736746Y-80336008D01*
X142910000Y-80353072D01*
X144110000Y-80353072D01*
X144283254Y-80336008D01*
X144449850Y-80285472D01*
X144603386Y-80203405D01*
X144737962Y-80092962D01*
X144848405Y-79958386D01*
X144902777Y-79856663D01*
X144954866Y-79920134D01*
X145180987Y-80105706D01*
X145438967Y-80243599D01*
X145718890Y-80328513D01*
X146010000Y-80357185D01*
X146301111Y-80328513D01*
X146581034Y-80243599D01*
X146839014Y-80105706D01*
X147065134Y-79920134D01*
X147250706Y-79694014D01*
X147260000Y-79676626D01*
X147269294Y-79694014D01*
X147454866Y-79920134D01*
X147680987Y-80105706D01*
X147938967Y-80243599D01*
X148218890Y-80328513D01*
X148510000Y-80357185D01*
X148801111Y-80328513D01*
X149081034Y-80243599D01*
X149339014Y-80105706D01*
X149565134Y-79920134D01*
X149750706Y-79694014D01*
X149760000Y-79676626D01*
X149769294Y-79694014D01*
X149954866Y-79920134D01*
X150180987Y-80105706D01*
X150438967Y-80243599D01*
X150718890Y-80328513D01*
X151010000Y-80357185D01*
X151301111Y-80328513D01*
X151581034Y-80243599D01*
X151839014Y-80105706D01*
X152065134Y-79920134D01*
X152250706Y-79694014D01*
X152388599Y-79436033D01*
X152473513Y-79156110D01*
X152495000Y-78937949D01*
X152495000Y-78542050D01*
X152473513Y-78323889D01*
X152388599Y-78043966D01*
X152250706Y-77785986D01*
X152065134Y-77559866D01*
X151839013Y-77374294D01*
X151581033Y-77236401D01*
X151301110Y-77151487D01*
X151010000Y-77122815D01*
X150718889Y-77151487D01*
X150438966Y-77236401D01*
X150180986Y-77374294D01*
X149954866Y-77559866D01*
X149769294Y-77785987D01*
X149760000Y-77803374D01*
X149750706Y-77785986D01*
X149565134Y-77559866D01*
X149339013Y-77374294D01*
X149081033Y-77236401D01*
X148801110Y-77151487D01*
X148510000Y-77122815D01*
X148218889Y-77151487D01*
X147938966Y-77236401D01*
X147680986Y-77374294D01*
X147454866Y-77559866D01*
X147269294Y-77785987D01*
X147260000Y-77803374D01*
X147250706Y-77785986D01*
X147065134Y-77559866D01*
X146839013Y-77374294D01*
X146581033Y-77236401D01*
X146301110Y-77151487D01*
X146010000Y-77122815D01*
X145718889Y-77151487D01*
X145438966Y-77236401D01*
X145180986Y-77374294D01*
X144954866Y-77559866D01*
X144902777Y-77623337D01*
X144848405Y-77521614D01*
X144737962Y-77387038D01*
X144603386Y-77276595D01*
X144449850Y-77194528D01*
X144283254Y-77143992D01*
X144110000Y-77126928D01*
X142910000Y-77126928D01*
X142736746Y-77143992D01*
X142570150Y-77194528D01*
X142416614Y-77276595D01*
X142282038Y-77387038D01*
X142171595Y-77521614D01*
X142089528Y-77675150D01*
X142038992Y-77841746D01*
X142021928Y-78015000D01*
X135921565Y-78015000D01*
X135773475Y-77793368D01*
X135566632Y-77586525D01*
X135393271Y-77470689D01*
X135468792Y-77228397D01*
X134620000Y-76379605D01*
X133771208Y-77228397D01*
X133846729Y-77470689D01*
X133673368Y-77586525D01*
X133466525Y-77793368D01*
X133350000Y-77967760D01*
X133233475Y-77793368D01*
X133026632Y-77586525D01*
X132852240Y-77470000D01*
X133026632Y-77353475D01*
X133233475Y-77146632D01*
X133349311Y-76973271D01*
X133591603Y-77048792D01*
X134440395Y-76200000D01*
X134799605Y-76200000D01*
X135648397Y-77048792D01*
X135897472Y-76971157D01*
X136023371Y-76707117D01*
X136095339Y-76423589D01*
X136110611Y-76131469D01*
X136068599Y-75841981D01*
X135970919Y-75566253D01*
X135897472Y-75428843D01*
X135648397Y-75351208D01*
X134799605Y-76200000D01*
X134440395Y-76200000D01*
X133591603Y-75351208D01*
X133349311Y-75426729D01*
X133233475Y-75253368D01*
X133026632Y-75046525D01*
X132852240Y-74930000D01*
X133026632Y-74813475D01*
X133233475Y-74606632D01*
X133350000Y-74432240D01*
X133466525Y-74606632D01*
X133673368Y-74813475D01*
X133846729Y-74929311D01*
X133771208Y-75171603D01*
X134620000Y-76020395D01*
X135468792Y-75171603D01*
X135393271Y-74929311D01*
X135566632Y-74813475D01*
X135773475Y-74606632D01*
X135935990Y-74363411D01*
X136047932Y-74093158D01*
X136105000Y-73806260D01*
X136105000Y-73513740D01*
X136047932Y-73226842D01*
X135935990Y-72956589D01*
X135773475Y-72713368D01*
X135566632Y-72506525D01*
X135392240Y-72390000D01*
X135566632Y-72273475D01*
X135773475Y-72066632D01*
X135935990Y-71823411D01*
X136047932Y-71553158D01*
X136105000Y-71266260D01*
X136105000Y-70973740D01*
X136047932Y-70686842D01*
X135935990Y-70416589D01*
X135773475Y-70173368D01*
X135566632Y-69966525D01*
X135323411Y-69804010D01*
X135053158Y-69692068D01*
X134766260Y-69635000D01*
X134473740Y-69635000D01*
X134186842Y-69692068D01*
X133916589Y-69804010D01*
X133673368Y-69966525D01*
X133486285Y-70153608D01*
X133418405Y-70026614D01*
X133307962Y-69892038D01*
X133173386Y-69781595D01*
X133019850Y-69699528D01*
X132853254Y-69648992D01*
X132680000Y-69631928D01*
X131480000Y-69631928D01*
X131306746Y-69648992D01*
X131140150Y-69699528D01*
X130986614Y-69781595D01*
X130852038Y-69892038D01*
X130741595Y-70026614D01*
X130659528Y-70180150D01*
X130608992Y-70346746D01*
X130591928Y-70520000D01*
X125857000Y-70520000D01*
X125857000Y-69125000D01*
X142021928Y-69125000D01*
X142021928Y-70575000D01*
X142038992Y-70748254D01*
X142089528Y-70914850D01*
X142171595Y-71068386D01*
X142282038Y-71202962D01*
X142416614Y-71313405D01*
X142570150Y-71395472D01*
X142736746Y-71446008D01*
X142910000Y-71463072D01*
X144110000Y-71463072D01*
X144283254Y-71446008D01*
X144449850Y-71395472D01*
X144603386Y-71313405D01*
X144737962Y-71202962D01*
X144848405Y-71068386D01*
X144902777Y-70966663D01*
X144954866Y-71030134D01*
X145180987Y-71215706D01*
X145438967Y-71353599D01*
X145718890Y-71438513D01*
X146010000Y-71467185D01*
X146301111Y-71438513D01*
X146581034Y-71353599D01*
X146839014Y-71215706D01*
X147065134Y-71030134D01*
X147250706Y-70804014D01*
X147260000Y-70786626D01*
X147269294Y-70804014D01*
X147454866Y-71030134D01*
X147680987Y-71215706D01*
X147938967Y-71353599D01*
X148218890Y-71438513D01*
X148510000Y-71467185D01*
X148801111Y-71438513D01*
X149081034Y-71353599D01*
X149339014Y-71215706D01*
X149565134Y-71030134D01*
X149750706Y-70804014D01*
X149760000Y-70786626D01*
X149769294Y-70804014D01*
X149954866Y-71030134D01*
X150180987Y-71215706D01*
X150438967Y-71353599D01*
X150718890Y-71438513D01*
X151010000Y-71467185D01*
X151301111Y-71438513D01*
X151581034Y-71353599D01*
X151839014Y-71215706D01*
X152065134Y-71030134D01*
X152250706Y-70804014D01*
X152388599Y-70546033D01*
X152473513Y-70266110D01*
X152495000Y-70047949D01*
X152495000Y-69652050D01*
X152473513Y-69433889D01*
X152388599Y-69153966D01*
X152250706Y-68895986D01*
X152065134Y-68669866D01*
X151839013Y-68484294D01*
X151581033Y-68346401D01*
X151301110Y-68261487D01*
X151010000Y-68232815D01*
X150718889Y-68261487D01*
X150438966Y-68346401D01*
X150180986Y-68484294D01*
X149954866Y-68669866D01*
X149769294Y-68895987D01*
X149760000Y-68913374D01*
X149750706Y-68895986D01*
X149565134Y-68669866D01*
X149339013Y-68484294D01*
X149081033Y-68346401D01*
X148801110Y-68261487D01*
X148510000Y-68232815D01*
X148218889Y-68261487D01*
X147938966Y-68346401D01*
X147680986Y-68484294D01*
X147454866Y-68669866D01*
X147269294Y-68895987D01*
X147260000Y-68913374D01*
X147250706Y-68895986D01*
X147065134Y-68669866D01*
X146839013Y-68484294D01*
X146581033Y-68346401D01*
X146301110Y-68261487D01*
X146010000Y-68232815D01*
X145718889Y-68261487D01*
X145438966Y-68346401D01*
X145180986Y-68484294D01*
X144954866Y-68669866D01*
X144902777Y-68733337D01*
X144848405Y-68631614D01*
X144737962Y-68497038D01*
X144603386Y-68386595D01*
X144449850Y-68304528D01*
X144283254Y-68253992D01*
X144110000Y-68236928D01*
X142910000Y-68236928D01*
X142736746Y-68253992D01*
X142570150Y-68304528D01*
X142416614Y-68386595D01*
X142282038Y-68497038D01*
X142171595Y-68631614D01*
X142089528Y-68785150D01*
X142038992Y-68951746D01*
X142021928Y-69125000D01*
X125857000Y-69125000D01*
X125857000Y-64822608D01*
X125890920Y-64788688D01*
X126227106Y-65257868D01*
X126857068Y-65598237D01*
X127541327Y-65809166D01*
X128253589Y-65882550D01*
X128966482Y-65815569D01*
X129652609Y-65610796D01*
X130285603Y-65276102D01*
X130312894Y-65257868D01*
X130649081Y-64788686D01*
X128270000Y-62409605D01*
X128255858Y-62423748D01*
X128076253Y-62244143D01*
X128090395Y-62230000D01*
X128076253Y-62215858D01*
X128255858Y-62036253D01*
X128270000Y-62050395D01*
X128284143Y-62036253D01*
X128463748Y-62215858D01*
X128449605Y-62230000D01*
X130828686Y-64609081D01*
X131297868Y-64272894D01*
X131638237Y-63642932D01*
X131849166Y-62958673D01*
X131922550Y-62246411D01*
X131855569Y-61533518D01*
X131650796Y-60847391D01*
X131316102Y-60214397D01*
X131297868Y-60187106D01*
X130828688Y-59850920D01*
X130862608Y-59817000D01*
X159967392Y-59817000D01*
X160001312Y-59850920D01*
G37*
%TD.AperFunction*%
%TD*%
M02*
