%TF.GenerationSoftware,KiCad,Pcbnew,(5.1.9-0-10_14)*%
%TF.CreationDate,2021-09-26T16:03:20-07:00*%
%TF.ProjectId,rpi-arcade-hat,7270692d-6172-4636-9164-652d6861742e,rev?*%
%TF.SameCoordinates,Original*%
%TF.FileFunction,Soldermask,Top*%
%TF.FilePolarity,Negative*%
%FSLAX46Y46*%
G04 Gerber Fmt 4.6, Leading zero omitted, Abs format (unit mm)*
G04 Created by KiCad (PCBNEW (5.1.9-0-10_14)) date 2021-09-26 16:03:20*
%MOMM*%
%LPD*%
G01*
G04 APERTURE LIST*
%ADD10O,1.950000X1.700000*%
%ADD11C,1.700000*%
%ADD12C,6.000000*%
G04 APERTURE END LIST*
D10*
%TO.C,J8*%
X167000000Y-94500000D03*
X167000000Y-97000000D03*
X167000000Y-99500000D03*
G36*
G01*
X167725000Y-102850000D02*
X166275000Y-102850000D01*
G75*
G02*
X166025000Y-102600000I0J250000D01*
G01*
X166025000Y-101400000D01*
G75*
G02*
X166275000Y-101150000I250000J0D01*
G01*
X167725000Y-101150000D01*
G75*
G02*
X167975000Y-101400000I0J-250000D01*
G01*
X167975000Y-102600000D01*
G75*
G02*
X167725000Y-102850000I-250000J0D01*
G01*
G37*
%TD*%
D11*
%TO.C,J1*%
X118540000Y-122260000D03*
X118540000Y-119720000D03*
X118540000Y-117180000D03*
X118540000Y-114640000D03*
X118540000Y-112100000D03*
X118540000Y-109560000D03*
X118540000Y-107020000D03*
X118540000Y-104480000D03*
X118540000Y-101940000D03*
X118540000Y-99400000D03*
X118540000Y-96860000D03*
X118540000Y-94320000D03*
X118540000Y-91780000D03*
X118540000Y-89240000D03*
X118540000Y-86700000D03*
X118540000Y-84160000D03*
X118540000Y-81620000D03*
X118540000Y-79080000D03*
X118540000Y-76540000D03*
X118540000Y-74000000D03*
X116000000Y-122260000D03*
X116000000Y-119720000D03*
X116000000Y-117180000D03*
X116000000Y-114640000D03*
X116000000Y-112100000D03*
X116000000Y-109560000D03*
X116000000Y-107020000D03*
X116000000Y-104480000D03*
X116000000Y-101940000D03*
X116000000Y-99400000D03*
X116000000Y-96860000D03*
X116000000Y-94320000D03*
X116000000Y-91780000D03*
X116000000Y-89240000D03*
X116000000Y-86700000D03*
X116000000Y-84160000D03*
X116000000Y-81620000D03*
X116000000Y-79080000D03*
X116000000Y-76540000D03*
G36*
G01*
X115150000Y-74600000D02*
X115150000Y-73400000D01*
G75*
G02*
X115400000Y-73150000I250000J0D01*
G01*
X116600000Y-73150000D01*
G75*
G02*
X116850000Y-73400000I0J-250000D01*
G01*
X116850000Y-74600000D01*
G75*
G02*
X116600000Y-74850000I-250000J0D01*
G01*
X115400000Y-74850000D01*
G75*
G02*
X115150000Y-74600000I0J250000D01*
G01*
G37*
%TD*%
D10*
%TO.C,J7*%
X143000000Y-91500000D03*
X143000000Y-89000000D03*
X143000000Y-86500000D03*
G36*
G01*
X142275000Y-83150000D02*
X143725000Y-83150000D01*
G75*
G02*
X143975000Y-83400000I0J-250000D01*
G01*
X143975000Y-84600000D01*
G75*
G02*
X143725000Y-84850000I-250000J0D01*
G01*
X142275000Y-84850000D01*
G75*
G02*
X142025000Y-84600000I0J250000D01*
G01*
X142025000Y-83400000D01*
G75*
G02*
X142275000Y-83150000I250000J0D01*
G01*
G37*
%TD*%
%TO.C,J6*%
X143000000Y-77500000D03*
X143000000Y-75000000D03*
X143000000Y-72500000D03*
G36*
G01*
X142275000Y-69150000D02*
X143725000Y-69150000D01*
G75*
G02*
X143975000Y-69400000I0J-250000D01*
G01*
X143975000Y-70600000D01*
G75*
G02*
X143725000Y-70850000I-250000J0D01*
G01*
X142275000Y-70850000D01*
G75*
G02*
X142025000Y-70600000I0J250000D01*
G01*
X142025000Y-69400000D01*
G75*
G02*
X142275000Y-69150000I250000J0D01*
G01*
G37*
%TD*%
%TO.C,J5*%
X143000000Y-63500000D03*
X143000000Y-61000000D03*
X143000000Y-58500000D03*
G36*
G01*
X142275000Y-55150000D02*
X143725000Y-55150000D01*
G75*
G02*
X143975000Y-55400000I0J-250000D01*
G01*
X143975000Y-56600000D01*
G75*
G02*
X143725000Y-56850000I-250000J0D01*
G01*
X142275000Y-56850000D01*
G75*
G02*
X142025000Y-56600000I0J250000D01*
G01*
X142025000Y-55400000D01*
G75*
G02*
X142275000Y-55150000I250000J0D01*
G01*
G37*
%TD*%
%TO.C,J4*%
X143000000Y-140500000D03*
X143000000Y-138000000D03*
X143000000Y-135500000D03*
G36*
G01*
X142275000Y-132150000D02*
X143725000Y-132150000D01*
G75*
G02*
X143975000Y-132400000I0J-250000D01*
G01*
X143975000Y-133600000D01*
G75*
G02*
X143725000Y-133850000I-250000J0D01*
G01*
X142275000Y-133850000D01*
G75*
G02*
X142025000Y-133600000I0J250000D01*
G01*
X142025000Y-132400000D01*
G75*
G02*
X142275000Y-132150000I250000J0D01*
G01*
G37*
%TD*%
%TO.C,J3*%
X143000000Y-126500000D03*
X143000000Y-124000000D03*
X143000000Y-121500000D03*
G36*
G01*
X142275000Y-118150000D02*
X143725000Y-118150000D01*
G75*
G02*
X143975000Y-118400000I0J-250000D01*
G01*
X143975000Y-119600000D01*
G75*
G02*
X143725000Y-119850000I-250000J0D01*
G01*
X142275000Y-119850000D01*
G75*
G02*
X142025000Y-119600000I0J250000D01*
G01*
X142025000Y-118400000D01*
G75*
G02*
X142275000Y-118150000I250000J0D01*
G01*
G37*
%TD*%
%TO.C,J2*%
X143000000Y-112500000D03*
X143000000Y-110000000D03*
X143000000Y-107500000D03*
G36*
G01*
X142275000Y-104150000D02*
X143725000Y-104150000D01*
G75*
G02*
X143975000Y-104400000I0J-250000D01*
G01*
X143975000Y-105600000D01*
G75*
G02*
X143725000Y-105850000I-250000J0D01*
G01*
X142275000Y-105850000D01*
G75*
G02*
X142025000Y-105600000I0J250000D01*
G01*
X142025000Y-104400000D01*
G75*
G02*
X142275000Y-104150000I250000J0D01*
G01*
G37*
%TD*%
D12*
%TO.C,REF\u002A\u002A*%
X105000000Y-144000000D03*
%TD*%
%TO.C,REF\u002A\u002A*%
X197000000Y-144000000D03*
%TD*%
%TO.C,REF\u002A\u002A*%
X105000000Y-52000000D03*
%TD*%
%TO.C,REF\u002A\u002A*%
X197000000Y-52000000D03*
%TD*%
M02*
