%TF.GenerationSoftware,KiCad,Pcbnew,(5.1.9-0-10_14)*%
%TF.CreationDate,2021-09-26T12:14:21-07:00*%
%TF.ProjectId,rpi-arcade-hat,7270692d-6172-4636-9164-652d6861742e,rev?*%
%TF.SameCoordinates,Original*%
%TF.FileFunction,Copper,L1,Top*%
%TF.FilePolarity,Positive*%
%FSLAX46Y46*%
G04 Gerber Fmt 4.6, Leading zero omitted, Abs format (unit mm)*
G04 Created by KiCad (PCBNEW (5.1.9-0-10_14)) date 2021-09-26 12:14:21*
%MOMM*%
%LPD*%
G01*
G04 APERTURE LIST*
%TA.AperFunction,ComponentPad*%
%ADD10O,1.950000X1.700000*%
%TD*%
%TA.AperFunction,ComponentPad*%
%ADD11C,1.700000*%
%TD*%
%TA.AperFunction,ComponentPad*%
%ADD12O,1.700000X1.950000*%
%TD*%
%TA.AperFunction,ComponentPad*%
%ADD13C,6.000000*%
%TD*%
%TA.AperFunction,Conductor*%
%ADD14C,0.250000*%
%TD*%
%TA.AperFunction,Conductor*%
%ADD15C,0.254000*%
%TD*%
%TA.AperFunction,Conductor*%
%ADD16C,0.100000*%
%TD*%
G04 APERTURE END LIST*
D10*
%TO.P,J8,4*%
%TO.N,GND*%
X160020000Y-91560000D03*
%TO.P,J8,3*%
X160020000Y-94060000D03*
%TO.P,J8,2*%
%TO.N,Net-(J1-Pad22)*%
X160020000Y-96560000D03*
%TO.P,J8,1*%
%TO.N,Net-(J1-Pad21)*%
%TA.AperFunction,ComponentPad*%
G36*
G01*
X160745000Y-99910000D02*
X159295000Y-99910000D01*
G75*
G02*
X159045000Y-99660000I0J250000D01*
G01*
X159045000Y-98460000D01*
G75*
G02*
X159295000Y-98210000I250000J0D01*
G01*
X160745000Y-98210000D01*
G75*
G02*
X160995000Y-98460000I0J-250000D01*
G01*
X160995000Y-99660000D01*
G75*
G02*
X160745000Y-99910000I-250000J0D01*
G01*
G37*
%TD.AperFunction*%
%TD*%
D11*
%TO.P,J1,40*%
%TO.N,Net-(J1-Pad40)*%
X134620000Y-119380000D03*
%TO.P,J1,38*%
%TO.N,Net-(J1-Pad38)*%
X134620000Y-116840000D03*
%TO.P,J1,36*%
%TO.N,Net-(J1-Pad36)*%
X134620000Y-114300000D03*
%TO.P,J1,34*%
%TO.N,GND*%
X134620000Y-111760000D03*
%TO.P,J1,32*%
%TO.N,Net-(J1-Pad32)*%
X134620000Y-109220000D03*
%TO.P,J1,30*%
%TO.N,GND*%
X134620000Y-106680000D03*
%TO.P,J1,28*%
%TO.N,Net-(J1-Pad28)*%
X134620000Y-104140000D03*
%TO.P,J1,26*%
%TO.N,Net-(J1-Pad26)*%
X134620000Y-101600000D03*
%TO.P,J1,24*%
%TO.N,Net-(J1-Pad24)*%
X134620000Y-99060000D03*
%TO.P,J1,22*%
%TO.N,Net-(J1-Pad22)*%
X134620000Y-96520000D03*
%TO.P,J1,20*%
%TO.N,GND*%
X134620000Y-93980000D03*
%TO.P,J1,18*%
%TO.N,Net-(J1-Pad18)*%
X134620000Y-91440000D03*
%TO.P,J1,16*%
%TO.N,Net-(J1-Pad16)*%
X134620000Y-88900000D03*
%TO.P,J1,14*%
%TO.N,GND*%
X134620000Y-86360000D03*
%TO.P,J1,12*%
%TO.N,Net-(J1-Pad12)*%
X134620000Y-83820000D03*
%TO.P,J1,10*%
%TO.N,Net-(J1-Pad10)*%
X134620000Y-81280000D03*
%TO.P,J1,8*%
%TO.N,Net-(J1-Pad8)*%
X134620000Y-78740000D03*
%TO.P,J1,6*%
%TO.N,GND*%
X134620000Y-76200000D03*
%TO.P,J1,4*%
%TO.N,Net-(J1-Pad4)*%
X134620000Y-73660000D03*
%TO.P,J1,2*%
%TO.N,Net-(J1-Pad2)*%
X134620000Y-71120000D03*
%TO.P,J1,39*%
%TO.N,GND*%
X132080000Y-119380000D03*
%TO.P,J1,37*%
%TO.N,Net-(J1-Pad37)*%
X132080000Y-116840000D03*
%TO.P,J1,35*%
%TO.N,Net-(J1-Pad35)*%
X132080000Y-114300000D03*
%TO.P,J1,33*%
%TO.N,Net-(J1-Pad33)*%
X132080000Y-111760000D03*
%TO.P,J1,31*%
%TO.N,Net-(J1-Pad31)*%
X132080000Y-109220000D03*
%TO.P,J1,29*%
%TO.N,Net-(J1-Pad29)*%
X132080000Y-106680000D03*
%TO.P,J1,27*%
%TO.N,Net-(J1-Pad27)*%
X132080000Y-104140000D03*
%TO.P,J1,25*%
%TO.N,GND*%
X132080000Y-101600000D03*
%TO.P,J1,23*%
%TO.N,Net-(J1-Pad23)*%
X132080000Y-99060000D03*
%TO.P,J1,21*%
%TO.N,Net-(J1-Pad21)*%
X132080000Y-96520000D03*
%TO.P,J1,19*%
%TO.N,Net-(J1-Pad19)*%
X132080000Y-93980000D03*
%TO.P,J1,17*%
%TO.N,Net-(J1-Pad17)*%
X132080000Y-91440000D03*
%TO.P,J1,15*%
%TO.N,Net-(J1-Pad15)*%
X132080000Y-88900000D03*
%TO.P,J1,13*%
%TO.N,Net-(J1-Pad13)*%
X132080000Y-86360000D03*
%TO.P,J1,11*%
%TO.N,Net-(J1-Pad11)*%
X132080000Y-83820000D03*
%TO.P,J1,9*%
%TO.N,GND*%
X132080000Y-81280000D03*
%TO.P,J1,7*%
%TO.N,Net-(J1-Pad7)*%
X132080000Y-78740000D03*
%TO.P,J1,5*%
%TO.N,Net-(J1-Pad5)*%
X132080000Y-76200000D03*
%TO.P,J1,3*%
%TO.N,Net-(J1-Pad3)*%
X132080000Y-73660000D03*
%TO.P,J1,1*%
%TO.N,Net-(J1-Pad1)*%
%TA.AperFunction,ComponentPad*%
G36*
G01*
X131230000Y-71720000D02*
X131230000Y-70520000D01*
G75*
G02*
X131480000Y-70270000I250000J0D01*
G01*
X132680000Y-70270000D01*
G75*
G02*
X132930000Y-70520000I0J-250000D01*
G01*
X132930000Y-71720000D01*
G75*
G02*
X132680000Y-71970000I-250000J0D01*
G01*
X131480000Y-71970000D01*
G75*
G02*
X131230000Y-71720000I0J250000D01*
G01*
G37*
%TD.AperFunction*%
%TD*%
D12*
%TO.P,J7,4*%
%TO.N,Net-(J1-Pad19)*%
X151010000Y-87630000D03*
%TO.P,J7,3*%
%TO.N,Net-(J1-Pad18)*%
X148510000Y-87630000D03*
%TO.P,J7,2*%
%TO.N,Net-(J1-Pad16)*%
X146010000Y-87630000D03*
%TO.P,J7,1*%
%TO.N,Net-(J1-Pad15)*%
%TA.AperFunction,ComponentPad*%
G36*
G01*
X142660000Y-88355000D02*
X142660000Y-86905000D01*
G75*
G02*
X142910000Y-86655000I250000J0D01*
G01*
X144110000Y-86655000D01*
G75*
G02*
X144360000Y-86905000I0J-250000D01*
G01*
X144360000Y-88355000D01*
G75*
G02*
X144110000Y-88605000I-250000J0D01*
G01*
X142910000Y-88605000D01*
G75*
G02*
X142660000Y-88355000I0J250000D01*
G01*
G37*
%TD.AperFunction*%
%TD*%
%TO.P,J6,4*%
%TO.N,Net-(J1-Pad13)*%
X151010000Y-78740000D03*
%TO.P,J6,3*%
%TO.N,Net-(J1-Pad12)*%
X148510000Y-78740000D03*
%TO.P,J6,2*%
%TO.N,Net-(J1-Pad11)*%
X146010000Y-78740000D03*
%TO.P,J6,1*%
%TO.N,Net-(J1-Pad10)*%
%TA.AperFunction,ComponentPad*%
G36*
G01*
X142660000Y-79465000D02*
X142660000Y-78015000D01*
G75*
G02*
X142910000Y-77765000I250000J0D01*
G01*
X144110000Y-77765000D01*
G75*
G02*
X144360000Y-78015000I0J-250000D01*
G01*
X144360000Y-79465000D01*
G75*
G02*
X144110000Y-79715000I-250000J0D01*
G01*
X142910000Y-79715000D01*
G75*
G02*
X142660000Y-79465000I0J250000D01*
G01*
G37*
%TD.AperFunction*%
%TD*%
%TO.P,J5,4*%
%TO.N,Net-(J1-Pad8)*%
X151010000Y-69850000D03*
%TO.P,J5,3*%
%TO.N,Net-(J1-Pad7)*%
X148510000Y-69850000D03*
%TO.P,J5,2*%
%TO.N,Net-(J1-Pad5)*%
X146010000Y-69850000D03*
%TO.P,J5,1*%
%TO.N,Net-(J1-Pad3)*%
%TA.AperFunction,ComponentPad*%
G36*
G01*
X142660000Y-70575000D02*
X142660000Y-69125000D01*
G75*
G02*
X142910000Y-68875000I250000J0D01*
G01*
X144110000Y-68875000D01*
G75*
G02*
X144360000Y-69125000I0J-250000D01*
G01*
X144360000Y-70575000D01*
G75*
G02*
X144110000Y-70825000I-250000J0D01*
G01*
X142910000Y-70825000D01*
G75*
G02*
X142660000Y-70575000I0J250000D01*
G01*
G37*
%TD.AperFunction*%
%TD*%
%TO.P,J4,4*%
%TO.N,Net-(J1-Pad40)*%
X151010000Y-118110000D03*
%TO.P,J4,3*%
%TO.N,Net-(J1-Pad38)*%
X148510000Y-118110000D03*
%TO.P,J4,2*%
%TO.N,Net-(J1-Pad37)*%
X146010000Y-118110000D03*
%TO.P,J4,1*%
%TO.N,Net-(J1-Pad36)*%
%TA.AperFunction,ComponentPad*%
G36*
G01*
X142660000Y-118835000D02*
X142660000Y-117385000D01*
G75*
G02*
X142910000Y-117135000I250000J0D01*
G01*
X144110000Y-117135000D01*
G75*
G02*
X144360000Y-117385000I0J-250000D01*
G01*
X144360000Y-118835000D01*
G75*
G02*
X144110000Y-119085000I-250000J0D01*
G01*
X142910000Y-119085000D01*
G75*
G02*
X142660000Y-118835000I0J250000D01*
G01*
G37*
%TD.AperFunction*%
%TD*%
%TO.P,J3,4*%
%TO.N,Net-(J1-Pad35)*%
X151010000Y-109220000D03*
%TO.P,J3,3*%
%TO.N,Net-(J1-Pad33)*%
X148510000Y-109220000D03*
%TO.P,J3,2*%
%TO.N,Net-(J1-Pad32)*%
X146010000Y-109220000D03*
%TO.P,J3,1*%
%TO.N,Net-(J1-Pad31)*%
%TA.AperFunction,ComponentPad*%
G36*
G01*
X142660000Y-109945000D02*
X142660000Y-108495000D01*
G75*
G02*
X142910000Y-108245000I250000J0D01*
G01*
X144110000Y-108245000D01*
G75*
G02*
X144360000Y-108495000I0J-250000D01*
G01*
X144360000Y-109945000D01*
G75*
G02*
X144110000Y-110195000I-250000J0D01*
G01*
X142910000Y-110195000D01*
G75*
G02*
X142660000Y-109945000I0J250000D01*
G01*
G37*
%TD.AperFunction*%
%TD*%
%TO.P,J2,4*%
%TO.N,Net-(J1-Pad29)*%
X151010000Y-100330000D03*
%TO.P,J2,3*%
%TO.N,Net-(J1-Pad26)*%
X148510000Y-100330000D03*
%TO.P,J2,2*%
%TO.N,Net-(J1-Pad24)*%
X146010000Y-100330000D03*
%TO.P,J2,1*%
%TO.N,Net-(J1-Pad23)*%
%TA.AperFunction,ComponentPad*%
G36*
G01*
X142660000Y-101055000D02*
X142660000Y-99605000D01*
G75*
G02*
X142910000Y-99355000I250000J0D01*
G01*
X144110000Y-99355000D01*
G75*
G02*
X144360000Y-99605000I0J-250000D01*
G01*
X144360000Y-101055000D01*
G75*
G02*
X144110000Y-101305000I-250000J0D01*
G01*
X142910000Y-101305000D01*
G75*
G02*
X142660000Y-101055000I0J250000D01*
G01*
G37*
%TD.AperFunction*%
%TD*%
D13*
%TO.P,REF\u002A\u002A,3*%
%TO.N,GND*%
X128270000Y-128270000D03*
%TD*%
%TO.P,REF\u002A\u002A,4*%
%TO.N,GND*%
X162560000Y-128270000D03*
%TD*%
%TO.P,REF\u002A\u002A,1*%
%TO.N,GND*%
X128270000Y-62230000D03*
%TD*%
%TO.P,REF\u002A\u002A,2*%
%TO.N,GND*%
X162560000Y-62230000D03*
%TD*%
D14*
%TO.N,Net-(J1-Pad40)*%
X148890001Y-120229999D02*
X151010000Y-118110000D01*
X135469999Y-120229999D02*
X148890001Y-120229999D01*
X134620000Y-119380000D02*
X135469999Y-120229999D01*
%TO.N,Net-(J1-Pad38)*%
X134620000Y-116840000D02*
X137559988Y-119779988D01*
X137559988Y-119779988D02*
X146840012Y-119779988D01*
X146840012Y-119779988D02*
X148510000Y-118110000D01*
%TO.N,Net-(J1-Pad36)*%
X139700000Y-114300000D02*
X143510000Y-118110000D01*
X134620000Y-114300000D02*
X139700000Y-114300000D01*
%TO.N,Net-(J1-Pad35)*%
X132080000Y-114300000D02*
X133350000Y-113030000D01*
X147200000Y-113030000D02*
X151010000Y-109220000D01*
X133350000Y-113030000D02*
X147200000Y-113030000D01*
%TO.N,Net-(J1-Pad33)*%
X140970000Y-111760000D02*
X145970000Y-111760000D01*
X139700000Y-110490000D02*
X140970000Y-111760000D01*
X145970000Y-111760000D02*
X148510000Y-109220000D01*
X133350000Y-110490000D02*
X139700000Y-110490000D01*
X132080000Y-111760000D02*
X133350000Y-110490000D01*
%TO.N,Net-(J1-Pad32)*%
X134620000Y-109220000D02*
X140970000Y-109220000D01*
X144709990Y-110520010D02*
X146010000Y-109220000D01*
X142270010Y-110520010D02*
X144709990Y-110520010D01*
X140970000Y-109220000D02*
X142270010Y-110520010D01*
%TO.N,Net-(J1-Pad31)*%
X132080000Y-109220000D02*
X133350000Y-107950000D01*
X133350000Y-107950000D02*
X142240000Y-107950000D01*
X142240000Y-107950000D02*
X143510000Y-109220000D01*
%TO.N,Net-(J1-Pad29)*%
X145930000Y-105410000D02*
X151010000Y-100330000D01*
X133350000Y-105410000D02*
X145930000Y-105410000D01*
X132080000Y-106680000D02*
X133350000Y-105410000D01*
%TO.N,Net-(J1-Pad26)*%
X146390001Y-102449999D02*
X148510000Y-100330000D01*
X135469999Y-102449999D02*
X146390001Y-102449999D01*
X134620000Y-101600000D02*
X135469999Y-102449999D01*
%TO.N,Net-(J1-Pad24)*%
X134650010Y-99029990D02*
X144709990Y-99029990D01*
X144709990Y-99029990D02*
X146010000Y-100330000D01*
X134620000Y-99060000D02*
X134650010Y-99029990D01*
%TO.N,Net-(J1-Pad23)*%
X133350000Y-100330000D02*
X132080000Y-99060000D01*
X143510000Y-100330000D02*
X133350000Y-100330000D01*
%TO.N,Net-(J1-Pad22)*%
X159980000Y-96520000D02*
X160020000Y-96560000D01*
X134620000Y-96520000D02*
X159980000Y-96520000D01*
%TO.N,Net-(J1-Pad21)*%
X158844999Y-97884999D02*
X160020000Y-99060000D01*
X133444999Y-97884999D02*
X158844999Y-97884999D01*
X132080000Y-96520000D02*
X133444999Y-97884999D01*
%TO.N,Net-(J1-Pad19)*%
X132080000Y-93980000D02*
X133255001Y-92804999D01*
X133255001Y-92804999D02*
X145835001Y-92804999D01*
X145835001Y-92804999D02*
X151010000Y-87630000D01*
%TO.N,Net-(J1-Pad18)*%
X147796715Y-87630000D02*
X148510000Y-87630000D01*
X143986715Y-91440000D02*
X147796715Y-87630000D01*
X134620000Y-91440000D02*
X143986715Y-91440000D01*
%TO.N,Net-(J1-Pad16)*%
X143890001Y-89749999D02*
X146010000Y-87630000D01*
X135469999Y-89749999D02*
X143890001Y-89749999D01*
X134620000Y-88900000D02*
X135469999Y-89749999D01*
%TO.N,Net-(J1-Pad15)*%
X133350000Y-87630000D02*
X143510000Y-87630000D01*
X132080000Y-88900000D02*
X133350000Y-87630000D01*
%TO.N,Net-(J1-Pad13)*%
X144660000Y-85090000D02*
X151010000Y-78740000D01*
X133350000Y-85090000D02*
X144660000Y-85090000D01*
X132080000Y-86360000D02*
X133350000Y-85090000D01*
%TO.N,Net-(J1-Pad12)*%
X143430000Y-83820000D02*
X148510000Y-78740000D01*
X134620000Y-83820000D02*
X143430000Y-83820000D01*
%TO.N,Net-(J1-Pad11)*%
X142105001Y-82644999D02*
X146010000Y-78740000D01*
X133255001Y-82644999D02*
X142105001Y-82644999D01*
X132080000Y-83820000D02*
X133255001Y-82644999D01*
%TO.N,Net-(J1-Pad10)*%
X134620000Y-81280000D02*
X135890000Y-81280000D01*
X138430000Y-78740000D02*
X143510000Y-78740000D01*
X135890000Y-81280000D02*
X138430000Y-78740000D01*
%TO.N,Net-(J1-Pad8)*%
X133444999Y-79915001D02*
X134620000Y-78740000D01*
X131515999Y-79915001D02*
X133444999Y-79915001D01*
X130904999Y-79304001D02*
X131515999Y-79915001D01*
X130904999Y-70281811D02*
X130904999Y-79304001D01*
X149709990Y-68549990D02*
X132636820Y-68549990D01*
X132636820Y-68549990D02*
X130904999Y-70281811D01*
X151010000Y-69850000D02*
X149709990Y-68549990D01*
%TO.N,Net-(J1-Pad7)*%
X140984999Y-77375001D02*
X148510000Y-69850000D01*
X133444999Y-77375001D02*
X140984999Y-77375001D01*
X132080000Y-78740000D02*
X133444999Y-77375001D01*
%TO.N,Net-(J1-Pad5)*%
X141024999Y-74835001D02*
X146010000Y-69850000D01*
X133444999Y-74835001D02*
X141024999Y-74835001D01*
X132080000Y-76200000D02*
X133444999Y-74835001D01*
%TO.N,Net-(J1-Pad3)*%
X140875001Y-72484999D02*
X143510000Y-69850000D01*
X133255001Y-72484999D02*
X140875001Y-72484999D01*
X132080000Y-73660000D02*
X133255001Y-72484999D01*
%TD*%
D15*
%TO.N,Net-(J1-Pad10)*%
X159736511Y-59912823D02*
X159338705Y-60508182D01*
X159064691Y-61169710D01*
X158925000Y-61871984D01*
X158925000Y-62588016D01*
X159064691Y-63290290D01*
X159338705Y-63951818D01*
X159736511Y-64547177D01*
X160242823Y-65053489D01*
X160838182Y-65451295D01*
X161499710Y-65725309D01*
X162201984Y-65865000D01*
X162918016Y-65865000D01*
X163620290Y-65725309D01*
X164281818Y-65451295D01*
X164877177Y-65053489D01*
X164973000Y-64957666D01*
X164973000Y-125542334D01*
X164877177Y-125446511D01*
X164281818Y-125048705D01*
X163620290Y-124774691D01*
X162918016Y-124635000D01*
X162201984Y-124635000D01*
X161499710Y-124774691D01*
X160838182Y-125048705D01*
X160242823Y-125446511D01*
X159736511Y-125952823D01*
X159338705Y-126548182D01*
X159064691Y-127209710D01*
X158925000Y-127911984D01*
X158925000Y-128628016D01*
X159064691Y-129330290D01*
X159338705Y-129991818D01*
X159736511Y-130587177D01*
X159832334Y-130683000D01*
X130997666Y-130683000D01*
X131093489Y-130587177D01*
X131491295Y-129991818D01*
X131765309Y-129330290D01*
X131905000Y-128628016D01*
X131905000Y-127911984D01*
X131765309Y-127209710D01*
X131491295Y-126548182D01*
X131093489Y-125952823D01*
X130587177Y-125446511D01*
X129991818Y-125048705D01*
X129330290Y-124774691D01*
X128628016Y-124635000D01*
X127911984Y-124635000D01*
X127209710Y-124774691D01*
X126548182Y-125048705D01*
X125952823Y-125446511D01*
X125857000Y-125542334D01*
X125857000Y-70281811D01*
X130141323Y-70281811D01*
X130144999Y-70319133D01*
X130145000Y-79266669D01*
X130141323Y-79304001D01*
X130145000Y-79341334D01*
X130155997Y-79452987D01*
X130169179Y-79496443D01*
X130199453Y-79596247D01*
X130270025Y-79728277D01*
X130341200Y-79815003D01*
X130364999Y-79844002D01*
X130393996Y-79867799D01*
X130899704Y-80373509D01*
X130764010Y-80576589D01*
X130652068Y-80846842D01*
X130595000Y-81133740D01*
X130595000Y-81426260D01*
X130652068Y-81713158D01*
X130764010Y-81983411D01*
X130926525Y-82226632D01*
X131133368Y-82433475D01*
X131307760Y-82550000D01*
X131133368Y-82666525D01*
X130926525Y-82873368D01*
X130764010Y-83116589D01*
X130652068Y-83386842D01*
X130595000Y-83673740D01*
X130595000Y-83966260D01*
X130652068Y-84253158D01*
X130764010Y-84523411D01*
X130926525Y-84766632D01*
X131133368Y-84973475D01*
X131307760Y-85090000D01*
X131133368Y-85206525D01*
X130926525Y-85413368D01*
X130764010Y-85656589D01*
X130652068Y-85926842D01*
X130595000Y-86213740D01*
X130595000Y-86506260D01*
X130652068Y-86793158D01*
X130764010Y-87063411D01*
X130926525Y-87306632D01*
X131133368Y-87513475D01*
X131307760Y-87630000D01*
X131133368Y-87746525D01*
X130926525Y-87953368D01*
X130764010Y-88196589D01*
X130652068Y-88466842D01*
X130595000Y-88753740D01*
X130595000Y-89046260D01*
X130652068Y-89333158D01*
X130764010Y-89603411D01*
X130926525Y-89846632D01*
X131133368Y-90053475D01*
X131307760Y-90170000D01*
X131133368Y-90286525D01*
X130926525Y-90493368D01*
X130764010Y-90736589D01*
X130652068Y-91006842D01*
X130595000Y-91293740D01*
X130595000Y-91586260D01*
X130652068Y-91873158D01*
X130764010Y-92143411D01*
X130926525Y-92386632D01*
X131133368Y-92593475D01*
X131307760Y-92710000D01*
X131133368Y-92826525D01*
X130926525Y-93033368D01*
X130764010Y-93276589D01*
X130652068Y-93546842D01*
X130595000Y-93833740D01*
X130595000Y-94126260D01*
X130652068Y-94413158D01*
X130764010Y-94683411D01*
X130926525Y-94926632D01*
X131133368Y-95133475D01*
X131307760Y-95250000D01*
X131133368Y-95366525D01*
X130926525Y-95573368D01*
X130764010Y-95816589D01*
X130652068Y-96086842D01*
X130595000Y-96373740D01*
X130595000Y-96666260D01*
X130652068Y-96953158D01*
X130764010Y-97223411D01*
X130926525Y-97466632D01*
X131133368Y-97673475D01*
X131307760Y-97790000D01*
X131133368Y-97906525D01*
X130926525Y-98113368D01*
X130764010Y-98356589D01*
X130652068Y-98626842D01*
X130595000Y-98913740D01*
X130595000Y-99206260D01*
X130652068Y-99493158D01*
X130764010Y-99763411D01*
X130926525Y-100006632D01*
X131133368Y-100213475D01*
X131307760Y-100330000D01*
X131133368Y-100446525D01*
X130926525Y-100653368D01*
X130764010Y-100896589D01*
X130652068Y-101166842D01*
X130595000Y-101453740D01*
X130595000Y-101746260D01*
X130652068Y-102033158D01*
X130764010Y-102303411D01*
X130926525Y-102546632D01*
X131133368Y-102753475D01*
X131307760Y-102870000D01*
X131133368Y-102986525D01*
X130926525Y-103193368D01*
X130764010Y-103436589D01*
X130652068Y-103706842D01*
X130595000Y-103993740D01*
X130595000Y-104286260D01*
X130652068Y-104573158D01*
X130764010Y-104843411D01*
X130926525Y-105086632D01*
X131133368Y-105293475D01*
X131307760Y-105410000D01*
X131133368Y-105526525D01*
X130926525Y-105733368D01*
X130764010Y-105976589D01*
X130652068Y-106246842D01*
X130595000Y-106533740D01*
X130595000Y-106826260D01*
X130652068Y-107113158D01*
X130764010Y-107383411D01*
X130926525Y-107626632D01*
X131133368Y-107833475D01*
X131307760Y-107950000D01*
X131133368Y-108066525D01*
X130926525Y-108273368D01*
X130764010Y-108516589D01*
X130652068Y-108786842D01*
X130595000Y-109073740D01*
X130595000Y-109366260D01*
X130652068Y-109653158D01*
X130764010Y-109923411D01*
X130926525Y-110166632D01*
X131133368Y-110373475D01*
X131307760Y-110490000D01*
X131133368Y-110606525D01*
X130926525Y-110813368D01*
X130764010Y-111056589D01*
X130652068Y-111326842D01*
X130595000Y-111613740D01*
X130595000Y-111906260D01*
X130652068Y-112193158D01*
X130764010Y-112463411D01*
X130926525Y-112706632D01*
X131133368Y-112913475D01*
X131307760Y-113030000D01*
X131133368Y-113146525D01*
X130926525Y-113353368D01*
X130764010Y-113596589D01*
X130652068Y-113866842D01*
X130595000Y-114153740D01*
X130595000Y-114446260D01*
X130652068Y-114733158D01*
X130764010Y-115003411D01*
X130926525Y-115246632D01*
X131133368Y-115453475D01*
X131307760Y-115570000D01*
X131133368Y-115686525D01*
X130926525Y-115893368D01*
X130764010Y-116136589D01*
X130652068Y-116406842D01*
X130595000Y-116693740D01*
X130595000Y-116986260D01*
X130652068Y-117273158D01*
X130764010Y-117543411D01*
X130926525Y-117786632D01*
X131133368Y-117993475D01*
X131307760Y-118110000D01*
X131133368Y-118226525D01*
X130926525Y-118433368D01*
X130764010Y-118676589D01*
X130652068Y-118946842D01*
X130595000Y-119233740D01*
X130595000Y-119526260D01*
X130652068Y-119813158D01*
X130764010Y-120083411D01*
X130926525Y-120326632D01*
X131133368Y-120533475D01*
X131376589Y-120695990D01*
X131646842Y-120807932D01*
X131933740Y-120865000D01*
X132226260Y-120865000D01*
X132513158Y-120807932D01*
X132783411Y-120695990D01*
X133026632Y-120533475D01*
X133233475Y-120326632D01*
X133350000Y-120152240D01*
X133466525Y-120326632D01*
X133673368Y-120533475D01*
X133916589Y-120695990D01*
X134186842Y-120807932D01*
X134473740Y-120865000D01*
X134766260Y-120865000D01*
X134991228Y-120820251D01*
X135045722Y-120864973D01*
X135177752Y-120935545D01*
X135321013Y-120979002D01*
X135432666Y-120989999D01*
X135432675Y-120989999D01*
X135469998Y-120993675D01*
X135507321Y-120989999D01*
X148852679Y-120989999D01*
X148890001Y-120993675D01*
X148927323Y-120989999D01*
X148927334Y-120989999D01*
X149038987Y-120979002D01*
X149182248Y-120935545D01*
X149314277Y-120864973D01*
X149430002Y-120770000D01*
X149453805Y-120740996D01*
X150548098Y-119646704D01*
X150718890Y-119698513D01*
X151010000Y-119727185D01*
X151301111Y-119698513D01*
X151581034Y-119613599D01*
X151839014Y-119475706D01*
X152065134Y-119290134D01*
X152250706Y-119064014D01*
X152388599Y-118806033D01*
X152473513Y-118526110D01*
X152495000Y-118307949D01*
X152495000Y-117912050D01*
X152473513Y-117693889D01*
X152388599Y-117413966D01*
X152250706Y-117155986D01*
X152065134Y-116929866D01*
X151839013Y-116744294D01*
X151581033Y-116606401D01*
X151301110Y-116521487D01*
X151010000Y-116492815D01*
X150718889Y-116521487D01*
X150438966Y-116606401D01*
X150180986Y-116744294D01*
X149954866Y-116929866D01*
X149769294Y-117155987D01*
X149760000Y-117173374D01*
X149750706Y-117155986D01*
X149565134Y-116929866D01*
X149339013Y-116744294D01*
X149081033Y-116606401D01*
X148801110Y-116521487D01*
X148510000Y-116492815D01*
X148218889Y-116521487D01*
X147938966Y-116606401D01*
X147680986Y-116744294D01*
X147454866Y-116929866D01*
X147269294Y-117155987D01*
X147260000Y-117173374D01*
X147250706Y-117155986D01*
X147065134Y-116929866D01*
X146839013Y-116744294D01*
X146581033Y-116606401D01*
X146301110Y-116521487D01*
X146010000Y-116492815D01*
X145718889Y-116521487D01*
X145438966Y-116606401D01*
X145180986Y-116744294D01*
X144954866Y-116929866D01*
X144902777Y-116993337D01*
X144848405Y-116891614D01*
X144737962Y-116757038D01*
X144603386Y-116646595D01*
X144449850Y-116564528D01*
X144283254Y-116513992D01*
X144110000Y-116496928D01*
X142971730Y-116496928D01*
X140264801Y-113790000D01*
X147162678Y-113790000D01*
X147200000Y-113793676D01*
X147237322Y-113790000D01*
X147237333Y-113790000D01*
X147348986Y-113779003D01*
X147492247Y-113735546D01*
X147624276Y-113664974D01*
X147740001Y-113570001D01*
X147763804Y-113540997D01*
X150548098Y-110756704D01*
X150718890Y-110808513D01*
X151010000Y-110837185D01*
X151301111Y-110808513D01*
X151581034Y-110723599D01*
X151839014Y-110585706D01*
X152065134Y-110400134D01*
X152250706Y-110174014D01*
X152388599Y-109916033D01*
X152473513Y-109636110D01*
X152495000Y-109417949D01*
X152495000Y-109022050D01*
X152473513Y-108803889D01*
X152388599Y-108523966D01*
X152250706Y-108265986D01*
X152065134Y-108039866D01*
X151839013Y-107854294D01*
X151581033Y-107716401D01*
X151301110Y-107631487D01*
X151010000Y-107602815D01*
X150718889Y-107631487D01*
X150438966Y-107716401D01*
X150180986Y-107854294D01*
X149954866Y-108039866D01*
X149769294Y-108265987D01*
X149760000Y-108283374D01*
X149750706Y-108265986D01*
X149565134Y-108039866D01*
X149339013Y-107854294D01*
X149081033Y-107716401D01*
X148801110Y-107631487D01*
X148510000Y-107602815D01*
X148218889Y-107631487D01*
X147938966Y-107716401D01*
X147680986Y-107854294D01*
X147454866Y-108039866D01*
X147269294Y-108265987D01*
X147260000Y-108283374D01*
X147250706Y-108265986D01*
X147065134Y-108039866D01*
X146839013Y-107854294D01*
X146581033Y-107716401D01*
X146301110Y-107631487D01*
X146010000Y-107602815D01*
X145718889Y-107631487D01*
X145438966Y-107716401D01*
X145180986Y-107854294D01*
X144954866Y-108039866D01*
X144902777Y-108103337D01*
X144848405Y-108001614D01*
X144737962Y-107867038D01*
X144603386Y-107756595D01*
X144449850Y-107674528D01*
X144283254Y-107623992D01*
X144110000Y-107606928D01*
X142971729Y-107606928D01*
X142803804Y-107439003D01*
X142780001Y-107409999D01*
X142664276Y-107315026D01*
X142532247Y-107244454D01*
X142388986Y-107200997D01*
X142277333Y-107190000D01*
X142277322Y-107190000D01*
X142240000Y-107186324D01*
X142202678Y-107190000D01*
X136016103Y-107190000D01*
X136047932Y-107113158D01*
X136105000Y-106826260D01*
X136105000Y-106533740D01*
X136047932Y-106246842D01*
X136016103Y-106170000D01*
X145892678Y-106170000D01*
X145930000Y-106173676D01*
X145967322Y-106170000D01*
X145967333Y-106170000D01*
X146078986Y-106159003D01*
X146222247Y-106115546D01*
X146354276Y-106044974D01*
X146470001Y-105950001D01*
X146493804Y-105920997D01*
X150548098Y-101866704D01*
X150718890Y-101918513D01*
X151010000Y-101947185D01*
X151301111Y-101918513D01*
X151581034Y-101833599D01*
X151839014Y-101695706D01*
X152065134Y-101510134D01*
X152250706Y-101284014D01*
X152388599Y-101026033D01*
X152473513Y-100746110D01*
X152495000Y-100527949D01*
X152495000Y-100132050D01*
X152473513Y-99913889D01*
X152388599Y-99633966D01*
X152250706Y-99375986D01*
X152065134Y-99149866D01*
X151839013Y-98964294D01*
X151581033Y-98826401D01*
X151301110Y-98741487D01*
X151010000Y-98712815D01*
X150718889Y-98741487D01*
X150438966Y-98826401D01*
X150180986Y-98964294D01*
X149954866Y-99149866D01*
X149769294Y-99375987D01*
X149760000Y-99393374D01*
X149750706Y-99375986D01*
X149565134Y-99149866D01*
X149339013Y-98964294D01*
X149081033Y-98826401D01*
X148801110Y-98741487D01*
X148510000Y-98712815D01*
X148218889Y-98741487D01*
X147938966Y-98826401D01*
X147680986Y-98964294D01*
X147454866Y-99149866D01*
X147269294Y-99375987D01*
X147260000Y-99393374D01*
X147250706Y-99375986D01*
X147065134Y-99149866D01*
X146839013Y-98964294D01*
X146581033Y-98826401D01*
X146301110Y-98741487D01*
X146010000Y-98712815D01*
X145718889Y-98741487D01*
X145548097Y-98793296D01*
X145399800Y-98644999D01*
X158406928Y-98644999D01*
X158406928Y-99660000D01*
X158423992Y-99833254D01*
X158474528Y-99999850D01*
X158556595Y-100153386D01*
X158667038Y-100287962D01*
X158801614Y-100398405D01*
X158955150Y-100480472D01*
X159121746Y-100531008D01*
X159295000Y-100548072D01*
X160745000Y-100548072D01*
X160918254Y-100531008D01*
X161084850Y-100480472D01*
X161238386Y-100398405D01*
X161372962Y-100287962D01*
X161483405Y-100153386D01*
X161565472Y-99999850D01*
X161616008Y-99833254D01*
X161633072Y-99660000D01*
X161633072Y-98460000D01*
X161616008Y-98286746D01*
X161565472Y-98120150D01*
X161483405Y-97966614D01*
X161372962Y-97832038D01*
X161238386Y-97721595D01*
X161136663Y-97667223D01*
X161200134Y-97615134D01*
X161385706Y-97389014D01*
X161523599Y-97131034D01*
X161608513Y-96851111D01*
X161637185Y-96560000D01*
X161608513Y-96268889D01*
X161523599Y-95988966D01*
X161385706Y-95730986D01*
X161200134Y-95504866D01*
X160974014Y-95319294D01*
X160956626Y-95310000D01*
X160974014Y-95300706D01*
X161200134Y-95115134D01*
X161385706Y-94889014D01*
X161523599Y-94631034D01*
X161608513Y-94351111D01*
X161637185Y-94060000D01*
X161608513Y-93768889D01*
X161523599Y-93488966D01*
X161385706Y-93230986D01*
X161200134Y-93004866D01*
X160974014Y-92819294D01*
X160956626Y-92810000D01*
X160974014Y-92800706D01*
X161200134Y-92615134D01*
X161385706Y-92389014D01*
X161523599Y-92131034D01*
X161608513Y-91851111D01*
X161637185Y-91560000D01*
X161608513Y-91268889D01*
X161523599Y-90988966D01*
X161385706Y-90730986D01*
X161200134Y-90504866D01*
X160974014Y-90319294D01*
X160716034Y-90181401D01*
X160436111Y-90096487D01*
X160217950Y-90075000D01*
X159822050Y-90075000D01*
X159603889Y-90096487D01*
X159323966Y-90181401D01*
X159065986Y-90319294D01*
X158839866Y-90504866D01*
X158654294Y-90730986D01*
X158516401Y-90988966D01*
X158431487Y-91268889D01*
X158402815Y-91560000D01*
X158431487Y-91851111D01*
X158516401Y-92131034D01*
X158654294Y-92389014D01*
X158839866Y-92615134D01*
X159065986Y-92800706D01*
X159083374Y-92810000D01*
X159065986Y-92819294D01*
X158839866Y-93004866D01*
X158654294Y-93230986D01*
X158516401Y-93488966D01*
X158431487Y-93768889D01*
X158402815Y-94060000D01*
X158431487Y-94351111D01*
X158516401Y-94631034D01*
X158654294Y-94889014D01*
X158839866Y-95115134D01*
X159065986Y-95300706D01*
X159083374Y-95310000D01*
X159065986Y-95319294D01*
X158839866Y-95504866D01*
X158654294Y-95730986D01*
X158638786Y-95760000D01*
X135898178Y-95760000D01*
X135773475Y-95573368D01*
X135566632Y-95366525D01*
X135392240Y-95250000D01*
X135566632Y-95133475D01*
X135773475Y-94926632D01*
X135935990Y-94683411D01*
X136047932Y-94413158D01*
X136105000Y-94126260D01*
X136105000Y-93833740D01*
X136051544Y-93564999D01*
X145797679Y-93564999D01*
X145835001Y-93568675D01*
X145872323Y-93564999D01*
X145872334Y-93564999D01*
X145983987Y-93554002D01*
X146127248Y-93510545D01*
X146259277Y-93439973D01*
X146375002Y-93345000D01*
X146398805Y-93315996D01*
X150548098Y-89166704D01*
X150718890Y-89218513D01*
X151010000Y-89247185D01*
X151301111Y-89218513D01*
X151581034Y-89133599D01*
X151839014Y-88995706D01*
X152065134Y-88810134D01*
X152250706Y-88584014D01*
X152388599Y-88326033D01*
X152473513Y-88046110D01*
X152495000Y-87827949D01*
X152495000Y-87432050D01*
X152473513Y-87213889D01*
X152388599Y-86933966D01*
X152250706Y-86675986D01*
X152065134Y-86449866D01*
X151839013Y-86264294D01*
X151581033Y-86126401D01*
X151301110Y-86041487D01*
X151010000Y-86012815D01*
X150718889Y-86041487D01*
X150438966Y-86126401D01*
X150180986Y-86264294D01*
X149954866Y-86449866D01*
X149769294Y-86675987D01*
X149760000Y-86693374D01*
X149750706Y-86675986D01*
X149565134Y-86449866D01*
X149339013Y-86264294D01*
X149081033Y-86126401D01*
X148801110Y-86041487D01*
X148510000Y-86012815D01*
X148218889Y-86041487D01*
X147938966Y-86126401D01*
X147680986Y-86264294D01*
X147454866Y-86449866D01*
X147269294Y-86675987D01*
X147260000Y-86693374D01*
X147250706Y-86675986D01*
X147065134Y-86449866D01*
X146839013Y-86264294D01*
X146581033Y-86126401D01*
X146301110Y-86041487D01*
X146010000Y-86012815D01*
X145718889Y-86041487D01*
X145438966Y-86126401D01*
X145180986Y-86264294D01*
X144954866Y-86449866D01*
X144902777Y-86513337D01*
X144848405Y-86411614D01*
X144737962Y-86277038D01*
X144603386Y-86166595D01*
X144449850Y-86084528D01*
X144283254Y-86033992D01*
X144110000Y-86016928D01*
X142910000Y-86016928D01*
X142736746Y-86033992D01*
X142570150Y-86084528D01*
X142416614Y-86166595D01*
X142282038Y-86277038D01*
X142171595Y-86411614D01*
X142089528Y-86565150D01*
X142038992Y-86731746D01*
X142025375Y-86870000D01*
X136016103Y-86870000D01*
X136047932Y-86793158D01*
X136105000Y-86506260D01*
X136105000Y-86213740D01*
X136047932Y-85926842D01*
X136016103Y-85850000D01*
X144622678Y-85850000D01*
X144660000Y-85853676D01*
X144697322Y-85850000D01*
X144697333Y-85850000D01*
X144808986Y-85839003D01*
X144952247Y-85795546D01*
X145084276Y-85724974D01*
X145200001Y-85630001D01*
X145223804Y-85600997D01*
X150548098Y-80276704D01*
X150718890Y-80328513D01*
X151010000Y-80357185D01*
X151301111Y-80328513D01*
X151581034Y-80243599D01*
X151839014Y-80105706D01*
X152065134Y-79920134D01*
X152250706Y-79694014D01*
X152388599Y-79436033D01*
X152473513Y-79156110D01*
X152495000Y-78937949D01*
X152495000Y-78542050D01*
X152473513Y-78323889D01*
X152388599Y-78043966D01*
X152250706Y-77785986D01*
X152065134Y-77559866D01*
X151839013Y-77374294D01*
X151581033Y-77236401D01*
X151301110Y-77151487D01*
X151010000Y-77122815D01*
X150718889Y-77151487D01*
X150438966Y-77236401D01*
X150180986Y-77374294D01*
X149954866Y-77559866D01*
X149769294Y-77785987D01*
X149760000Y-77803374D01*
X149750706Y-77785986D01*
X149565134Y-77559866D01*
X149339013Y-77374294D01*
X149081033Y-77236401D01*
X148801110Y-77151487D01*
X148510000Y-77122815D01*
X148218889Y-77151487D01*
X147938966Y-77236401D01*
X147680986Y-77374294D01*
X147454866Y-77559866D01*
X147269294Y-77785987D01*
X147260000Y-77803374D01*
X147250706Y-77785986D01*
X147065134Y-77559866D01*
X146839013Y-77374294D01*
X146581033Y-77236401D01*
X146301110Y-77151487D01*
X146010000Y-77122815D01*
X145718889Y-77151487D01*
X145438966Y-77236401D01*
X145180986Y-77374294D01*
X144960055Y-77555608D01*
X144949502Y-77520820D01*
X144890537Y-77410506D01*
X144811185Y-77313815D01*
X144714494Y-77234463D01*
X144604180Y-77175498D01*
X144484482Y-77139188D01*
X144360000Y-77126928D01*
X143795750Y-77130000D01*
X143637000Y-77288750D01*
X143637000Y-78613000D01*
X143657000Y-78613000D01*
X143657000Y-78867000D01*
X143637000Y-78867000D01*
X143637000Y-78887000D01*
X143383000Y-78887000D01*
X143383000Y-78867000D01*
X142183750Y-78867000D01*
X142025000Y-79025750D01*
X142021928Y-79715000D01*
X142034188Y-79839482D01*
X142070498Y-79959180D01*
X142129463Y-80069494D01*
X142208815Y-80166185D01*
X142305506Y-80245537D01*
X142415820Y-80304502D01*
X142535518Y-80340812D01*
X142660000Y-80353072D01*
X143224250Y-80350000D01*
X143382998Y-80191252D01*
X143382998Y-80292200D01*
X141790200Y-81884999D01*
X135976699Y-81884999D01*
X136023371Y-81787117D01*
X136095339Y-81503589D01*
X136110611Y-81211469D01*
X136068599Y-80921981D01*
X135970919Y-80646253D01*
X135897472Y-80508843D01*
X135648397Y-80431208D01*
X134799605Y-81280000D01*
X134813748Y-81294143D01*
X134634143Y-81473748D01*
X134620000Y-81459605D01*
X134605858Y-81473748D01*
X134426253Y-81294143D01*
X134440395Y-81280000D01*
X134426253Y-81265858D01*
X134605858Y-81086253D01*
X134620000Y-81100395D01*
X135468792Y-80251603D01*
X135393271Y-80009311D01*
X135566632Y-79893475D01*
X135773475Y-79686632D01*
X135935990Y-79443411D01*
X136047932Y-79173158D01*
X136105000Y-78886260D01*
X136105000Y-78593740D01*
X136047932Y-78306842D01*
X135976753Y-78135001D01*
X140947677Y-78135001D01*
X140984999Y-78138677D01*
X141022321Y-78135001D01*
X141022332Y-78135001D01*
X141133985Y-78124004D01*
X141277246Y-78080547D01*
X141409275Y-78009975D01*
X141525000Y-77915002D01*
X141548803Y-77885998D01*
X141669801Y-77765000D01*
X142021928Y-77765000D01*
X142025000Y-78454250D01*
X142183750Y-78613000D01*
X143383000Y-78613000D01*
X143383000Y-77288750D01*
X143224250Y-77130000D01*
X142660000Y-77126928D01*
X142535518Y-77139188D01*
X142415820Y-77175498D01*
X142305506Y-77234463D01*
X142208815Y-77313815D01*
X142129463Y-77410506D01*
X142070498Y-77520820D01*
X142034188Y-77640518D01*
X142021928Y-77765000D01*
X141669801Y-77765000D01*
X148048099Y-71386704D01*
X148218890Y-71438513D01*
X148510000Y-71467185D01*
X148801111Y-71438513D01*
X149081034Y-71353599D01*
X149339014Y-71215706D01*
X149565134Y-71030134D01*
X149750706Y-70804014D01*
X149760000Y-70786626D01*
X149769294Y-70804014D01*
X149954866Y-71030134D01*
X150180987Y-71215706D01*
X150438967Y-71353599D01*
X150718890Y-71438513D01*
X151010000Y-71467185D01*
X151301111Y-71438513D01*
X151581034Y-71353599D01*
X151839014Y-71215706D01*
X152065134Y-71030134D01*
X152250706Y-70804014D01*
X152388599Y-70546033D01*
X152473513Y-70266110D01*
X152495000Y-70047949D01*
X152495000Y-69652050D01*
X152473513Y-69433889D01*
X152388599Y-69153966D01*
X152250706Y-68895986D01*
X152065134Y-68669866D01*
X151839013Y-68484294D01*
X151581033Y-68346401D01*
X151301110Y-68261487D01*
X151010000Y-68232815D01*
X150718889Y-68261487D01*
X150548097Y-68313296D01*
X150273794Y-68038993D01*
X150249991Y-68009989D01*
X150134266Y-67915016D01*
X150002237Y-67844444D01*
X149858976Y-67800987D01*
X149747323Y-67789990D01*
X149747312Y-67789990D01*
X149709990Y-67786314D01*
X149672668Y-67789990D01*
X132674145Y-67789990D01*
X132636820Y-67786314D01*
X132599495Y-67789990D01*
X132599487Y-67789990D01*
X132487834Y-67800987D01*
X132344573Y-67844444D01*
X132212544Y-67915016D01*
X132096819Y-68009989D01*
X132073021Y-68038987D01*
X130394002Y-69718007D01*
X130364998Y-69741810D01*
X130332348Y-69781595D01*
X130270025Y-69857535D01*
X130251583Y-69892038D01*
X130199453Y-69989565D01*
X130155996Y-70132826D01*
X130144999Y-70244479D01*
X130144999Y-70244489D01*
X130141323Y-70281811D01*
X125857000Y-70281811D01*
X125857000Y-64957666D01*
X125952823Y-65053489D01*
X126548182Y-65451295D01*
X127209710Y-65725309D01*
X127911984Y-65865000D01*
X128628016Y-65865000D01*
X129330290Y-65725309D01*
X129991818Y-65451295D01*
X130587177Y-65053489D01*
X131093489Y-64547177D01*
X131491295Y-63951818D01*
X131765309Y-63290290D01*
X131905000Y-62588016D01*
X131905000Y-61871984D01*
X131765309Y-61169710D01*
X131491295Y-60508182D01*
X131093489Y-59912823D01*
X130997666Y-59817000D01*
X159832334Y-59817000D01*
X159736511Y-59912823D01*
%TA.AperFunction,Conductor*%
D16*
G36*
X159736511Y-59912823D02*
G01*
X159338705Y-60508182D01*
X159064691Y-61169710D01*
X158925000Y-61871984D01*
X158925000Y-62588016D01*
X159064691Y-63290290D01*
X159338705Y-63951818D01*
X159736511Y-64547177D01*
X160242823Y-65053489D01*
X160838182Y-65451295D01*
X161499710Y-65725309D01*
X162201984Y-65865000D01*
X162918016Y-65865000D01*
X163620290Y-65725309D01*
X164281818Y-65451295D01*
X164877177Y-65053489D01*
X164973000Y-64957666D01*
X164973000Y-125542334D01*
X164877177Y-125446511D01*
X164281818Y-125048705D01*
X163620290Y-124774691D01*
X162918016Y-124635000D01*
X162201984Y-124635000D01*
X161499710Y-124774691D01*
X160838182Y-125048705D01*
X160242823Y-125446511D01*
X159736511Y-125952823D01*
X159338705Y-126548182D01*
X159064691Y-127209710D01*
X158925000Y-127911984D01*
X158925000Y-128628016D01*
X159064691Y-129330290D01*
X159338705Y-129991818D01*
X159736511Y-130587177D01*
X159832334Y-130683000D01*
X130997666Y-130683000D01*
X131093489Y-130587177D01*
X131491295Y-129991818D01*
X131765309Y-129330290D01*
X131905000Y-128628016D01*
X131905000Y-127911984D01*
X131765309Y-127209710D01*
X131491295Y-126548182D01*
X131093489Y-125952823D01*
X130587177Y-125446511D01*
X129991818Y-125048705D01*
X129330290Y-124774691D01*
X128628016Y-124635000D01*
X127911984Y-124635000D01*
X127209710Y-124774691D01*
X126548182Y-125048705D01*
X125952823Y-125446511D01*
X125857000Y-125542334D01*
X125857000Y-70281811D01*
X130141323Y-70281811D01*
X130144999Y-70319133D01*
X130145000Y-79266669D01*
X130141323Y-79304001D01*
X130145000Y-79341334D01*
X130155997Y-79452987D01*
X130169179Y-79496443D01*
X130199453Y-79596247D01*
X130270025Y-79728277D01*
X130341200Y-79815003D01*
X130364999Y-79844002D01*
X130393996Y-79867799D01*
X130899704Y-80373509D01*
X130764010Y-80576589D01*
X130652068Y-80846842D01*
X130595000Y-81133740D01*
X130595000Y-81426260D01*
X130652068Y-81713158D01*
X130764010Y-81983411D01*
X130926525Y-82226632D01*
X131133368Y-82433475D01*
X131307760Y-82550000D01*
X131133368Y-82666525D01*
X130926525Y-82873368D01*
X130764010Y-83116589D01*
X130652068Y-83386842D01*
X130595000Y-83673740D01*
X130595000Y-83966260D01*
X130652068Y-84253158D01*
X130764010Y-84523411D01*
X130926525Y-84766632D01*
X131133368Y-84973475D01*
X131307760Y-85090000D01*
X131133368Y-85206525D01*
X130926525Y-85413368D01*
X130764010Y-85656589D01*
X130652068Y-85926842D01*
X130595000Y-86213740D01*
X130595000Y-86506260D01*
X130652068Y-86793158D01*
X130764010Y-87063411D01*
X130926525Y-87306632D01*
X131133368Y-87513475D01*
X131307760Y-87630000D01*
X131133368Y-87746525D01*
X130926525Y-87953368D01*
X130764010Y-88196589D01*
X130652068Y-88466842D01*
X130595000Y-88753740D01*
X130595000Y-89046260D01*
X130652068Y-89333158D01*
X130764010Y-89603411D01*
X130926525Y-89846632D01*
X131133368Y-90053475D01*
X131307760Y-90170000D01*
X131133368Y-90286525D01*
X130926525Y-90493368D01*
X130764010Y-90736589D01*
X130652068Y-91006842D01*
X130595000Y-91293740D01*
X130595000Y-91586260D01*
X130652068Y-91873158D01*
X130764010Y-92143411D01*
X130926525Y-92386632D01*
X131133368Y-92593475D01*
X131307760Y-92710000D01*
X131133368Y-92826525D01*
X130926525Y-93033368D01*
X130764010Y-93276589D01*
X130652068Y-93546842D01*
X130595000Y-93833740D01*
X130595000Y-94126260D01*
X130652068Y-94413158D01*
X130764010Y-94683411D01*
X130926525Y-94926632D01*
X131133368Y-95133475D01*
X131307760Y-95250000D01*
X131133368Y-95366525D01*
X130926525Y-95573368D01*
X130764010Y-95816589D01*
X130652068Y-96086842D01*
X130595000Y-96373740D01*
X130595000Y-96666260D01*
X130652068Y-96953158D01*
X130764010Y-97223411D01*
X130926525Y-97466632D01*
X131133368Y-97673475D01*
X131307760Y-97790000D01*
X131133368Y-97906525D01*
X130926525Y-98113368D01*
X130764010Y-98356589D01*
X130652068Y-98626842D01*
X130595000Y-98913740D01*
X130595000Y-99206260D01*
X130652068Y-99493158D01*
X130764010Y-99763411D01*
X130926525Y-100006632D01*
X131133368Y-100213475D01*
X131307760Y-100330000D01*
X131133368Y-100446525D01*
X130926525Y-100653368D01*
X130764010Y-100896589D01*
X130652068Y-101166842D01*
X130595000Y-101453740D01*
X130595000Y-101746260D01*
X130652068Y-102033158D01*
X130764010Y-102303411D01*
X130926525Y-102546632D01*
X131133368Y-102753475D01*
X131307760Y-102870000D01*
X131133368Y-102986525D01*
X130926525Y-103193368D01*
X130764010Y-103436589D01*
X130652068Y-103706842D01*
X130595000Y-103993740D01*
X130595000Y-104286260D01*
X130652068Y-104573158D01*
X130764010Y-104843411D01*
X130926525Y-105086632D01*
X131133368Y-105293475D01*
X131307760Y-105410000D01*
X131133368Y-105526525D01*
X130926525Y-105733368D01*
X130764010Y-105976589D01*
X130652068Y-106246842D01*
X130595000Y-106533740D01*
X130595000Y-106826260D01*
X130652068Y-107113158D01*
X130764010Y-107383411D01*
X130926525Y-107626632D01*
X131133368Y-107833475D01*
X131307760Y-107950000D01*
X131133368Y-108066525D01*
X130926525Y-108273368D01*
X130764010Y-108516589D01*
X130652068Y-108786842D01*
X130595000Y-109073740D01*
X130595000Y-109366260D01*
X130652068Y-109653158D01*
X130764010Y-109923411D01*
X130926525Y-110166632D01*
X131133368Y-110373475D01*
X131307760Y-110490000D01*
X131133368Y-110606525D01*
X130926525Y-110813368D01*
X130764010Y-111056589D01*
X130652068Y-111326842D01*
X130595000Y-111613740D01*
X130595000Y-111906260D01*
X130652068Y-112193158D01*
X130764010Y-112463411D01*
X130926525Y-112706632D01*
X131133368Y-112913475D01*
X131307760Y-113030000D01*
X131133368Y-113146525D01*
X130926525Y-113353368D01*
X130764010Y-113596589D01*
X130652068Y-113866842D01*
X130595000Y-114153740D01*
X130595000Y-114446260D01*
X130652068Y-114733158D01*
X130764010Y-115003411D01*
X130926525Y-115246632D01*
X131133368Y-115453475D01*
X131307760Y-115570000D01*
X131133368Y-115686525D01*
X130926525Y-115893368D01*
X130764010Y-116136589D01*
X130652068Y-116406842D01*
X130595000Y-116693740D01*
X130595000Y-116986260D01*
X130652068Y-117273158D01*
X130764010Y-117543411D01*
X130926525Y-117786632D01*
X131133368Y-117993475D01*
X131307760Y-118110000D01*
X131133368Y-118226525D01*
X130926525Y-118433368D01*
X130764010Y-118676589D01*
X130652068Y-118946842D01*
X130595000Y-119233740D01*
X130595000Y-119526260D01*
X130652068Y-119813158D01*
X130764010Y-120083411D01*
X130926525Y-120326632D01*
X131133368Y-120533475D01*
X131376589Y-120695990D01*
X131646842Y-120807932D01*
X131933740Y-120865000D01*
X132226260Y-120865000D01*
X132513158Y-120807932D01*
X132783411Y-120695990D01*
X133026632Y-120533475D01*
X133233475Y-120326632D01*
X133350000Y-120152240D01*
X133466525Y-120326632D01*
X133673368Y-120533475D01*
X133916589Y-120695990D01*
X134186842Y-120807932D01*
X134473740Y-120865000D01*
X134766260Y-120865000D01*
X134991228Y-120820251D01*
X135045722Y-120864973D01*
X135177752Y-120935545D01*
X135321013Y-120979002D01*
X135432666Y-120989999D01*
X135432675Y-120989999D01*
X135469998Y-120993675D01*
X135507321Y-120989999D01*
X148852679Y-120989999D01*
X148890001Y-120993675D01*
X148927323Y-120989999D01*
X148927334Y-120989999D01*
X149038987Y-120979002D01*
X149182248Y-120935545D01*
X149314277Y-120864973D01*
X149430002Y-120770000D01*
X149453805Y-120740996D01*
X150548098Y-119646704D01*
X150718890Y-119698513D01*
X151010000Y-119727185D01*
X151301111Y-119698513D01*
X151581034Y-119613599D01*
X151839014Y-119475706D01*
X152065134Y-119290134D01*
X152250706Y-119064014D01*
X152388599Y-118806033D01*
X152473513Y-118526110D01*
X152495000Y-118307949D01*
X152495000Y-117912050D01*
X152473513Y-117693889D01*
X152388599Y-117413966D01*
X152250706Y-117155986D01*
X152065134Y-116929866D01*
X151839013Y-116744294D01*
X151581033Y-116606401D01*
X151301110Y-116521487D01*
X151010000Y-116492815D01*
X150718889Y-116521487D01*
X150438966Y-116606401D01*
X150180986Y-116744294D01*
X149954866Y-116929866D01*
X149769294Y-117155987D01*
X149760000Y-117173374D01*
X149750706Y-117155986D01*
X149565134Y-116929866D01*
X149339013Y-116744294D01*
X149081033Y-116606401D01*
X148801110Y-116521487D01*
X148510000Y-116492815D01*
X148218889Y-116521487D01*
X147938966Y-116606401D01*
X147680986Y-116744294D01*
X147454866Y-116929866D01*
X147269294Y-117155987D01*
X147260000Y-117173374D01*
X147250706Y-117155986D01*
X147065134Y-116929866D01*
X146839013Y-116744294D01*
X146581033Y-116606401D01*
X146301110Y-116521487D01*
X146010000Y-116492815D01*
X145718889Y-116521487D01*
X145438966Y-116606401D01*
X145180986Y-116744294D01*
X144954866Y-116929866D01*
X144902777Y-116993337D01*
X144848405Y-116891614D01*
X144737962Y-116757038D01*
X144603386Y-116646595D01*
X144449850Y-116564528D01*
X144283254Y-116513992D01*
X144110000Y-116496928D01*
X142971730Y-116496928D01*
X140264801Y-113790000D01*
X147162678Y-113790000D01*
X147200000Y-113793676D01*
X147237322Y-113790000D01*
X147237333Y-113790000D01*
X147348986Y-113779003D01*
X147492247Y-113735546D01*
X147624276Y-113664974D01*
X147740001Y-113570001D01*
X147763804Y-113540997D01*
X150548098Y-110756704D01*
X150718890Y-110808513D01*
X151010000Y-110837185D01*
X151301111Y-110808513D01*
X151581034Y-110723599D01*
X151839014Y-110585706D01*
X152065134Y-110400134D01*
X152250706Y-110174014D01*
X152388599Y-109916033D01*
X152473513Y-109636110D01*
X152495000Y-109417949D01*
X152495000Y-109022050D01*
X152473513Y-108803889D01*
X152388599Y-108523966D01*
X152250706Y-108265986D01*
X152065134Y-108039866D01*
X151839013Y-107854294D01*
X151581033Y-107716401D01*
X151301110Y-107631487D01*
X151010000Y-107602815D01*
X150718889Y-107631487D01*
X150438966Y-107716401D01*
X150180986Y-107854294D01*
X149954866Y-108039866D01*
X149769294Y-108265987D01*
X149760000Y-108283374D01*
X149750706Y-108265986D01*
X149565134Y-108039866D01*
X149339013Y-107854294D01*
X149081033Y-107716401D01*
X148801110Y-107631487D01*
X148510000Y-107602815D01*
X148218889Y-107631487D01*
X147938966Y-107716401D01*
X147680986Y-107854294D01*
X147454866Y-108039866D01*
X147269294Y-108265987D01*
X147260000Y-108283374D01*
X147250706Y-108265986D01*
X147065134Y-108039866D01*
X146839013Y-107854294D01*
X146581033Y-107716401D01*
X146301110Y-107631487D01*
X146010000Y-107602815D01*
X145718889Y-107631487D01*
X145438966Y-107716401D01*
X145180986Y-107854294D01*
X144954866Y-108039866D01*
X144902777Y-108103337D01*
X144848405Y-108001614D01*
X144737962Y-107867038D01*
X144603386Y-107756595D01*
X144449850Y-107674528D01*
X144283254Y-107623992D01*
X144110000Y-107606928D01*
X142971729Y-107606928D01*
X142803804Y-107439003D01*
X142780001Y-107409999D01*
X142664276Y-107315026D01*
X142532247Y-107244454D01*
X142388986Y-107200997D01*
X142277333Y-107190000D01*
X142277322Y-107190000D01*
X142240000Y-107186324D01*
X142202678Y-107190000D01*
X136016103Y-107190000D01*
X136047932Y-107113158D01*
X136105000Y-106826260D01*
X136105000Y-106533740D01*
X136047932Y-106246842D01*
X136016103Y-106170000D01*
X145892678Y-106170000D01*
X145930000Y-106173676D01*
X145967322Y-106170000D01*
X145967333Y-106170000D01*
X146078986Y-106159003D01*
X146222247Y-106115546D01*
X146354276Y-106044974D01*
X146470001Y-105950001D01*
X146493804Y-105920997D01*
X150548098Y-101866704D01*
X150718890Y-101918513D01*
X151010000Y-101947185D01*
X151301111Y-101918513D01*
X151581034Y-101833599D01*
X151839014Y-101695706D01*
X152065134Y-101510134D01*
X152250706Y-101284014D01*
X152388599Y-101026033D01*
X152473513Y-100746110D01*
X152495000Y-100527949D01*
X152495000Y-100132050D01*
X152473513Y-99913889D01*
X152388599Y-99633966D01*
X152250706Y-99375986D01*
X152065134Y-99149866D01*
X151839013Y-98964294D01*
X151581033Y-98826401D01*
X151301110Y-98741487D01*
X151010000Y-98712815D01*
X150718889Y-98741487D01*
X150438966Y-98826401D01*
X150180986Y-98964294D01*
X149954866Y-99149866D01*
X149769294Y-99375987D01*
X149760000Y-99393374D01*
X149750706Y-99375986D01*
X149565134Y-99149866D01*
X149339013Y-98964294D01*
X149081033Y-98826401D01*
X148801110Y-98741487D01*
X148510000Y-98712815D01*
X148218889Y-98741487D01*
X147938966Y-98826401D01*
X147680986Y-98964294D01*
X147454866Y-99149866D01*
X147269294Y-99375987D01*
X147260000Y-99393374D01*
X147250706Y-99375986D01*
X147065134Y-99149866D01*
X146839013Y-98964294D01*
X146581033Y-98826401D01*
X146301110Y-98741487D01*
X146010000Y-98712815D01*
X145718889Y-98741487D01*
X145548097Y-98793296D01*
X145399800Y-98644999D01*
X158406928Y-98644999D01*
X158406928Y-99660000D01*
X158423992Y-99833254D01*
X158474528Y-99999850D01*
X158556595Y-100153386D01*
X158667038Y-100287962D01*
X158801614Y-100398405D01*
X158955150Y-100480472D01*
X159121746Y-100531008D01*
X159295000Y-100548072D01*
X160745000Y-100548072D01*
X160918254Y-100531008D01*
X161084850Y-100480472D01*
X161238386Y-100398405D01*
X161372962Y-100287962D01*
X161483405Y-100153386D01*
X161565472Y-99999850D01*
X161616008Y-99833254D01*
X161633072Y-99660000D01*
X161633072Y-98460000D01*
X161616008Y-98286746D01*
X161565472Y-98120150D01*
X161483405Y-97966614D01*
X161372962Y-97832038D01*
X161238386Y-97721595D01*
X161136663Y-97667223D01*
X161200134Y-97615134D01*
X161385706Y-97389014D01*
X161523599Y-97131034D01*
X161608513Y-96851111D01*
X161637185Y-96560000D01*
X161608513Y-96268889D01*
X161523599Y-95988966D01*
X161385706Y-95730986D01*
X161200134Y-95504866D01*
X160974014Y-95319294D01*
X160956626Y-95310000D01*
X160974014Y-95300706D01*
X161200134Y-95115134D01*
X161385706Y-94889014D01*
X161523599Y-94631034D01*
X161608513Y-94351111D01*
X161637185Y-94060000D01*
X161608513Y-93768889D01*
X161523599Y-93488966D01*
X161385706Y-93230986D01*
X161200134Y-93004866D01*
X160974014Y-92819294D01*
X160956626Y-92810000D01*
X160974014Y-92800706D01*
X161200134Y-92615134D01*
X161385706Y-92389014D01*
X161523599Y-92131034D01*
X161608513Y-91851111D01*
X161637185Y-91560000D01*
X161608513Y-91268889D01*
X161523599Y-90988966D01*
X161385706Y-90730986D01*
X161200134Y-90504866D01*
X160974014Y-90319294D01*
X160716034Y-90181401D01*
X160436111Y-90096487D01*
X160217950Y-90075000D01*
X159822050Y-90075000D01*
X159603889Y-90096487D01*
X159323966Y-90181401D01*
X159065986Y-90319294D01*
X158839866Y-90504866D01*
X158654294Y-90730986D01*
X158516401Y-90988966D01*
X158431487Y-91268889D01*
X158402815Y-91560000D01*
X158431487Y-91851111D01*
X158516401Y-92131034D01*
X158654294Y-92389014D01*
X158839866Y-92615134D01*
X159065986Y-92800706D01*
X159083374Y-92810000D01*
X159065986Y-92819294D01*
X158839866Y-93004866D01*
X158654294Y-93230986D01*
X158516401Y-93488966D01*
X158431487Y-93768889D01*
X158402815Y-94060000D01*
X158431487Y-94351111D01*
X158516401Y-94631034D01*
X158654294Y-94889014D01*
X158839866Y-95115134D01*
X159065986Y-95300706D01*
X159083374Y-95310000D01*
X159065986Y-95319294D01*
X158839866Y-95504866D01*
X158654294Y-95730986D01*
X158638786Y-95760000D01*
X135898178Y-95760000D01*
X135773475Y-95573368D01*
X135566632Y-95366525D01*
X135392240Y-95250000D01*
X135566632Y-95133475D01*
X135773475Y-94926632D01*
X135935990Y-94683411D01*
X136047932Y-94413158D01*
X136105000Y-94126260D01*
X136105000Y-93833740D01*
X136051544Y-93564999D01*
X145797679Y-93564999D01*
X145835001Y-93568675D01*
X145872323Y-93564999D01*
X145872334Y-93564999D01*
X145983987Y-93554002D01*
X146127248Y-93510545D01*
X146259277Y-93439973D01*
X146375002Y-93345000D01*
X146398805Y-93315996D01*
X150548098Y-89166704D01*
X150718890Y-89218513D01*
X151010000Y-89247185D01*
X151301111Y-89218513D01*
X151581034Y-89133599D01*
X151839014Y-88995706D01*
X152065134Y-88810134D01*
X152250706Y-88584014D01*
X152388599Y-88326033D01*
X152473513Y-88046110D01*
X152495000Y-87827949D01*
X152495000Y-87432050D01*
X152473513Y-87213889D01*
X152388599Y-86933966D01*
X152250706Y-86675986D01*
X152065134Y-86449866D01*
X151839013Y-86264294D01*
X151581033Y-86126401D01*
X151301110Y-86041487D01*
X151010000Y-86012815D01*
X150718889Y-86041487D01*
X150438966Y-86126401D01*
X150180986Y-86264294D01*
X149954866Y-86449866D01*
X149769294Y-86675987D01*
X149760000Y-86693374D01*
X149750706Y-86675986D01*
X149565134Y-86449866D01*
X149339013Y-86264294D01*
X149081033Y-86126401D01*
X148801110Y-86041487D01*
X148510000Y-86012815D01*
X148218889Y-86041487D01*
X147938966Y-86126401D01*
X147680986Y-86264294D01*
X147454866Y-86449866D01*
X147269294Y-86675987D01*
X147260000Y-86693374D01*
X147250706Y-86675986D01*
X147065134Y-86449866D01*
X146839013Y-86264294D01*
X146581033Y-86126401D01*
X146301110Y-86041487D01*
X146010000Y-86012815D01*
X145718889Y-86041487D01*
X145438966Y-86126401D01*
X145180986Y-86264294D01*
X144954866Y-86449866D01*
X144902777Y-86513337D01*
X144848405Y-86411614D01*
X144737962Y-86277038D01*
X144603386Y-86166595D01*
X144449850Y-86084528D01*
X144283254Y-86033992D01*
X144110000Y-86016928D01*
X142910000Y-86016928D01*
X142736746Y-86033992D01*
X142570150Y-86084528D01*
X142416614Y-86166595D01*
X142282038Y-86277038D01*
X142171595Y-86411614D01*
X142089528Y-86565150D01*
X142038992Y-86731746D01*
X142025375Y-86870000D01*
X136016103Y-86870000D01*
X136047932Y-86793158D01*
X136105000Y-86506260D01*
X136105000Y-86213740D01*
X136047932Y-85926842D01*
X136016103Y-85850000D01*
X144622678Y-85850000D01*
X144660000Y-85853676D01*
X144697322Y-85850000D01*
X144697333Y-85850000D01*
X144808986Y-85839003D01*
X144952247Y-85795546D01*
X145084276Y-85724974D01*
X145200001Y-85630001D01*
X145223804Y-85600997D01*
X150548098Y-80276704D01*
X150718890Y-80328513D01*
X151010000Y-80357185D01*
X151301111Y-80328513D01*
X151581034Y-80243599D01*
X151839014Y-80105706D01*
X152065134Y-79920134D01*
X152250706Y-79694014D01*
X152388599Y-79436033D01*
X152473513Y-79156110D01*
X152495000Y-78937949D01*
X152495000Y-78542050D01*
X152473513Y-78323889D01*
X152388599Y-78043966D01*
X152250706Y-77785986D01*
X152065134Y-77559866D01*
X151839013Y-77374294D01*
X151581033Y-77236401D01*
X151301110Y-77151487D01*
X151010000Y-77122815D01*
X150718889Y-77151487D01*
X150438966Y-77236401D01*
X150180986Y-77374294D01*
X149954866Y-77559866D01*
X149769294Y-77785987D01*
X149760000Y-77803374D01*
X149750706Y-77785986D01*
X149565134Y-77559866D01*
X149339013Y-77374294D01*
X149081033Y-77236401D01*
X148801110Y-77151487D01*
X148510000Y-77122815D01*
X148218889Y-77151487D01*
X147938966Y-77236401D01*
X147680986Y-77374294D01*
X147454866Y-77559866D01*
X147269294Y-77785987D01*
X147260000Y-77803374D01*
X147250706Y-77785986D01*
X147065134Y-77559866D01*
X146839013Y-77374294D01*
X146581033Y-77236401D01*
X146301110Y-77151487D01*
X146010000Y-77122815D01*
X145718889Y-77151487D01*
X145438966Y-77236401D01*
X145180986Y-77374294D01*
X144960055Y-77555608D01*
X144949502Y-77520820D01*
X144890537Y-77410506D01*
X144811185Y-77313815D01*
X144714494Y-77234463D01*
X144604180Y-77175498D01*
X144484482Y-77139188D01*
X144360000Y-77126928D01*
X143795750Y-77130000D01*
X143637000Y-77288750D01*
X143637000Y-78613000D01*
X143657000Y-78613000D01*
X143657000Y-78867000D01*
X143637000Y-78867000D01*
X143637000Y-78887000D01*
X143383000Y-78887000D01*
X143383000Y-78867000D01*
X142183750Y-78867000D01*
X142025000Y-79025750D01*
X142021928Y-79715000D01*
X142034188Y-79839482D01*
X142070498Y-79959180D01*
X142129463Y-80069494D01*
X142208815Y-80166185D01*
X142305506Y-80245537D01*
X142415820Y-80304502D01*
X142535518Y-80340812D01*
X142660000Y-80353072D01*
X143224250Y-80350000D01*
X143382998Y-80191252D01*
X143382998Y-80292200D01*
X141790200Y-81884999D01*
X135976699Y-81884999D01*
X136023371Y-81787117D01*
X136095339Y-81503589D01*
X136110611Y-81211469D01*
X136068599Y-80921981D01*
X135970919Y-80646253D01*
X135897472Y-80508843D01*
X135648397Y-80431208D01*
X134799605Y-81280000D01*
X134813748Y-81294143D01*
X134634143Y-81473748D01*
X134620000Y-81459605D01*
X134605858Y-81473748D01*
X134426253Y-81294143D01*
X134440395Y-81280000D01*
X134426253Y-81265858D01*
X134605858Y-81086253D01*
X134620000Y-81100395D01*
X135468792Y-80251603D01*
X135393271Y-80009311D01*
X135566632Y-79893475D01*
X135773475Y-79686632D01*
X135935990Y-79443411D01*
X136047932Y-79173158D01*
X136105000Y-78886260D01*
X136105000Y-78593740D01*
X136047932Y-78306842D01*
X135976753Y-78135001D01*
X140947677Y-78135001D01*
X140984999Y-78138677D01*
X141022321Y-78135001D01*
X141022332Y-78135001D01*
X141133985Y-78124004D01*
X141277246Y-78080547D01*
X141409275Y-78009975D01*
X141525000Y-77915002D01*
X141548803Y-77885998D01*
X141669801Y-77765000D01*
X142021928Y-77765000D01*
X142025000Y-78454250D01*
X142183750Y-78613000D01*
X143383000Y-78613000D01*
X143383000Y-77288750D01*
X143224250Y-77130000D01*
X142660000Y-77126928D01*
X142535518Y-77139188D01*
X142415820Y-77175498D01*
X142305506Y-77234463D01*
X142208815Y-77313815D01*
X142129463Y-77410506D01*
X142070498Y-77520820D01*
X142034188Y-77640518D01*
X142021928Y-77765000D01*
X141669801Y-77765000D01*
X148048099Y-71386704D01*
X148218890Y-71438513D01*
X148510000Y-71467185D01*
X148801111Y-71438513D01*
X149081034Y-71353599D01*
X149339014Y-71215706D01*
X149565134Y-71030134D01*
X149750706Y-70804014D01*
X149760000Y-70786626D01*
X149769294Y-70804014D01*
X149954866Y-71030134D01*
X150180987Y-71215706D01*
X150438967Y-71353599D01*
X150718890Y-71438513D01*
X151010000Y-71467185D01*
X151301111Y-71438513D01*
X151581034Y-71353599D01*
X151839014Y-71215706D01*
X152065134Y-71030134D01*
X152250706Y-70804014D01*
X152388599Y-70546033D01*
X152473513Y-70266110D01*
X152495000Y-70047949D01*
X152495000Y-69652050D01*
X152473513Y-69433889D01*
X152388599Y-69153966D01*
X152250706Y-68895986D01*
X152065134Y-68669866D01*
X151839013Y-68484294D01*
X151581033Y-68346401D01*
X151301110Y-68261487D01*
X151010000Y-68232815D01*
X150718889Y-68261487D01*
X150548097Y-68313296D01*
X150273794Y-68038993D01*
X150249991Y-68009989D01*
X150134266Y-67915016D01*
X150002237Y-67844444D01*
X149858976Y-67800987D01*
X149747323Y-67789990D01*
X149747312Y-67789990D01*
X149709990Y-67786314D01*
X149672668Y-67789990D01*
X132674145Y-67789990D01*
X132636820Y-67786314D01*
X132599495Y-67789990D01*
X132599487Y-67789990D01*
X132487834Y-67800987D01*
X132344573Y-67844444D01*
X132212544Y-67915016D01*
X132096819Y-68009989D01*
X132073021Y-68038987D01*
X130394002Y-69718007D01*
X130364998Y-69741810D01*
X130332348Y-69781595D01*
X130270025Y-69857535D01*
X130251583Y-69892038D01*
X130199453Y-69989565D01*
X130155996Y-70132826D01*
X130144999Y-70244479D01*
X130144999Y-70244489D01*
X130141323Y-70281811D01*
X125857000Y-70281811D01*
X125857000Y-64957666D01*
X125952823Y-65053489D01*
X126548182Y-65451295D01*
X127209710Y-65725309D01*
X127911984Y-65865000D01*
X128628016Y-65865000D01*
X129330290Y-65725309D01*
X129991818Y-65451295D01*
X130587177Y-65053489D01*
X131093489Y-64547177D01*
X131491295Y-63951818D01*
X131765309Y-63290290D01*
X131905000Y-62588016D01*
X131905000Y-61871984D01*
X131765309Y-61169710D01*
X131491295Y-60508182D01*
X131093489Y-59912823D01*
X130997666Y-59817000D01*
X159832334Y-59817000D01*
X159736511Y-59912823D01*
G37*
%TD.AperFunction*%
%TD*%
M02*
