%TF.GenerationSoftware,KiCad,Pcbnew,(5.1.9-0-10_14)*%
%TF.CreationDate,2021-09-26T12:14:21-07:00*%
%TF.ProjectId,rpi-arcade-hat,7270692d-6172-4636-9164-652d6861742e,rev?*%
%TF.SameCoordinates,Original*%
%TF.FileFunction,Legend,Top*%
%TF.FilePolarity,Positive*%
%FSLAX46Y46*%
G04 Gerber Fmt 4.6, Leading zero omitted, Abs format (unit mm)*
G04 Created by KiCad (PCBNEW (5.1.9-0-10_14)) date 2021-09-26 12:14:21*
%MOMM*%
%LPD*%
G01*
G04 APERTURE LIST*
%ADD10C,0.150000*%
%ADD11C,0.120000*%
G04 APERTURE END LIST*
D10*
X140867619Y-124912380D02*
X140867619Y-123912380D01*
X141248571Y-123912380D01*
X141343809Y-123960000D01*
X141391428Y-124007619D01*
X141439047Y-124102857D01*
X141439047Y-124245714D01*
X141391428Y-124340952D01*
X141343809Y-124388571D01*
X141248571Y-124436190D01*
X140867619Y-124436190D01*
X142010476Y-124912380D02*
X141915238Y-124864761D01*
X141867619Y-124769523D01*
X141867619Y-123912380D01*
X142820000Y-124912380D02*
X142820000Y-124388571D01*
X142772380Y-124293333D01*
X142677142Y-124245714D01*
X142486666Y-124245714D01*
X142391428Y-124293333D01*
X142820000Y-124864761D02*
X142724761Y-124912380D01*
X142486666Y-124912380D01*
X142391428Y-124864761D01*
X142343809Y-124769523D01*
X142343809Y-124674285D01*
X142391428Y-124579047D01*
X142486666Y-124531428D01*
X142724761Y-124531428D01*
X142820000Y-124483809D01*
X143200952Y-124245714D02*
X143439047Y-124912380D01*
X143677142Y-124245714D02*
X143439047Y-124912380D01*
X143343809Y-125150476D01*
X143296190Y-125198095D01*
X143200952Y-125245714D01*
X144439047Y-124864761D02*
X144343809Y-124912380D01*
X144153333Y-124912380D01*
X144058095Y-124864761D01*
X144010476Y-124769523D01*
X144010476Y-124388571D01*
X144058095Y-124293333D01*
X144153333Y-124245714D01*
X144343809Y-124245714D01*
X144439047Y-124293333D01*
X144486666Y-124388571D01*
X144486666Y-124483809D01*
X144010476Y-124579047D01*
X144915238Y-124912380D02*
X144915238Y-124245714D01*
X144915238Y-124436190D02*
X144962857Y-124340952D01*
X145010476Y-124293333D01*
X145105714Y-124245714D01*
X145200952Y-124245714D01*
X146248571Y-124007619D02*
X146296190Y-123960000D01*
X146391428Y-123912380D01*
X146629523Y-123912380D01*
X146724761Y-123960000D01*
X146772380Y-124007619D01*
X146820000Y-124102857D01*
X146820000Y-124198095D01*
X146772380Y-124340952D01*
X146200952Y-124912380D01*
X146820000Y-124912380D01*
X148581904Y-124817142D02*
X148534285Y-124864761D01*
X148391428Y-124912380D01*
X148296190Y-124912380D01*
X148153333Y-124864761D01*
X148058095Y-124769523D01*
X148010476Y-124674285D01*
X147962857Y-124483809D01*
X147962857Y-124340952D01*
X148010476Y-124150476D01*
X148058095Y-124055238D01*
X148153333Y-123960000D01*
X148296190Y-123912380D01*
X148391428Y-123912380D01*
X148534285Y-123960000D01*
X148581904Y-124007619D01*
X149153333Y-124912380D02*
X149058095Y-124864761D01*
X149010476Y-124817142D01*
X148962857Y-124721904D01*
X148962857Y-124436190D01*
X149010476Y-124340952D01*
X149058095Y-124293333D01*
X149153333Y-124245714D01*
X149296190Y-124245714D01*
X149391428Y-124293333D01*
X149439047Y-124340952D01*
X149486666Y-124436190D01*
X149486666Y-124721904D01*
X149439047Y-124817142D01*
X149391428Y-124864761D01*
X149296190Y-124912380D01*
X149153333Y-124912380D01*
X149915238Y-124245714D02*
X149915238Y-124912380D01*
X149915238Y-124340952D02*
X149962857Y-124293333D01*
X150058095Y-124245714D01*
X150200952Y-124245714D01*
X150296190Y-124293333D01*
X150343809Y-124388571D01*
X150343809Y-124912380D01*
X150677142Y-124245714D02*
X151058095Y-124245714D01*
X150820000Y-123912380D02*
X150820000Y-124769523D01*
X150867619Y-124864761D01*
X150962857Y-124912380D01*
X151058095Y-124912380D01*
X151391428Y-124912380D02*
X151391428Y-124245714D01*
X151391428Y-124436190D02*
X151439047Y-124340952D01*
X151486666Y-124293333D01*
X151581904Y-124245714D01*
X151677142Y-124245714D01*
X152153333Y-124912380D02*
X152058095Y-124864761D01*
X152010476Y-124817142D01*
X151962857Y-124721904D01*
X151962857Y-124436190D01*
X152010476Y-124340952D01*
X152058095Y-124293333D01*
X152153333Y-124245714D01*
X152296190Y-124245714D01*
X152391428Y-124293333D01*
X152439047Y-124340952D01*
X152486666Y-124436190D01*
X152486666Y-124721904D01*
X152439047Y-124817142D01*
X152391428Y-124864761D01*
X152296190Y-124912380D01*
X152153333Y-124912380D01*
X153058095Y-124912380D02*
X152962857Y-124864761D01*
X152915238Y-124769523D01*
X152915238Y-123912380D01*
X153391428Y-124864761D02*
X153486666Y-124912380D01*
X153677142Y-124912380D01*
X153772380Y-124864761D01*
X153820000Y-124769523D01*
X153820000Y-124721904D01*
X153772380Y-124626666D01*
X153677142Y-124579047D01*
X153534285Y-124579047D01*
X153439047Y-124531428D01*
X153391428Y-124436190D01*
X153391428Y-124388571D01*
X153439047Y-124293333D01*
X153534285Y-124245714D01*
X153677142Y-124245714D01*
X153772380Y-124293333D01*
X140867619Y-63952380D02*
X140867619Y-62952380D01*
X141248571Y-62952380D01*
X141343809Y-63000000D01*
X141391428Y-63047619D01*
X141439047Y-63142857D01*
X141439047Y-63285714D01*
X141391428Y-63380952D01*
X141343809Y-63428571D01*
X141248571Y-63476190D01*
X140867619Y-63476190D01*
X142010476Y-63952380D02*
X141915238Y-63904761D01*
X141867619Y-63809523D01*
X141867619Y-62952380D01*
X142820000Y-63952380D02*
X142820000Y-63428571D01*
X142772380Y-63333333D01*
X142677142Y-63285714D01*
X142486666Y-63285714D01*
X142391428Y-63333333D01*
X142820000Y-63904761D02*
X142724761Y-63952380D01*
X142486666Y-63952380D01*
X142391428Y-63904761D01*
X142343809Y-63809523D01*
X142343809Y-63714285D01*
X142391428Y-63619047D01*
X142486666Y-63571428D01*
X142724761Y-63571428D01*
X142820000Y-63523809D01*
X143200952Y-63285714D02*
X143439047Y-63952380D01*
X143677142Y-63285714D02*
X143439047Y-63952380D01*
X143343809Y-64190476D01*
X143296190Y-64238095D01*
X143200952Y-64285714D01*
X144439047Y-63904761D02*
X144343809Y-63952380D01*
X144153333Y-63952380D01*
X144058095Y-63904761D01*
X144010476Y-63809523D01*
X144010476Y-63428571D01*
X144058095Y-63333333D01*
X144153333Y-63285714D01*
X144343809Y-63285714D01*
X144439047Y-63333333D01*
X144486666Y-63428571D01*
X144486666Y-63523809D01*
X144010476Y-63619047D01*
X144915238Y-63952380D02*
X144915238Y-63285714D01*
X144915238Y-63476190D02*
X144962857Y-63380952D01*
X145010476Y-63333333D01*
X145105714Y-63285714D01*
X145200952Y-63285714D01*
X146820000Y-63952380D02*
X146248571Y-63952380D01*
X146534285Y-63952380D02*
X146534285Y-62952380D01*
X146439047Y-63095238D01*
X146343809Y-63190476D01*
X146248571Y-63238095D01*
X148581904Y-63857142D02*
X148534285Y-63904761D01*
X148391428Y-63952380D01*
X148296190Y-63952380D01*
X148153333Y-63904761D01*
X148058095Y-63809523D01*
X148010476Y-63714285D01*
X147962857Y-63523809D01*
X147962857Y-63380952D01*
X148010476Y-63190476D01*
X148058095Y-63095238D01*
X148153333Y-63000000D01*
X148296190Y-62952380D01*
X148391428Y-62952380D01*
X148534285Y-63000000D01*
X148581904Y-63047619D01*
X149153333Y-63952380D02*
X149058095Y-63904761D01*
X149010476Y-63857142D01*
X148962857Y-63761904D01*
X148962857Y-63476190D01*
X149010476Y-63380952D01*
X149058095Y-63333333D01*
X149153333Y-63285714D01*
X149296190Y-63285714D01*
X149391428Y-63333333D01*
X149439047Y-63380952D01*
X149486666Y-63476190D01*
X149486666Y-63761904D01*
X149439047Y-63857142D01*
X149391428Y-63904761D01*
X149296190Y-63952380D01*
X149153333Y-63952380D01*
X149915238Y-63285714D02*
X149915238Y-63952380D01*
X149915238Y-63380952D02*
X149962857Y-63333333D01*
X150058095Y-63285714D01*
X150200952Y-63285714D01*
X150296190Y-63333333D01*
X150343809Y-63428571D01*
X150343809Y-63952380D01*
X150677142Y-63285714D02*
X151058095Y-63285714D01*
X150820000Y-62952380D02*
X150820000Y-63809523D01*
X150867619Y-63904761D01*
X150962857Y-63952380D01*
X151058095Y-63952380D01*
X151391428Y-63952380D02*
X151391428Y-63285714D01*
X151391428Y-63476190D02*
X151439047Y-63380952D01*
X151486666Y-63333333D01*
X151581904Y-63285714D01*
X151677142Y-63285714D01*
X152153333Y-63952380D02*
X152058095Y-63904761D01*
X152010476Y-63857142D01*
X151962857Y-63761904D01*
X151962857Y-63476190D01*
X152010476Y-63380952D01*
X152058095Y-63333333D01*
X152153333Y-63285714D01*
X152296190Y-63285714D01*
X152391428Y-63333333D01*
X152439047Y-63380952D01*
X152486666Y-63476190D01*
X152486666Y-63761904D01*
X152439047Y-63857142D01*
X152391428Y-63904761D01*
X152296190Y-63952380D01*
X152153333Y-63952380D01*
X153058095Y-63952380D02*
X152962857Y-63904761D01*
X152915238Y-63809523D01*
X152915238Y-62952380D01*
X153391428Y-63904761D02*
X153486666Y-63952380D01*
X153677142Y-63952380D01*
X153772380Y-63904761D01*
X153820000Y-63809523D01*
X153820000Y-63761904D01*
X153772380Y-63666666D01*
X153677142Y-63619047D01*
X153534285Y-63619047D01*
X153439047Y-63571428D01*
X153391428Y-63476190D01*
X153391428Y-63428571D01*
X153439047Y-63333333D01*
X153534285Y-63285714D01*
X153677142Y-63285714D01*
X153772380Y-63333333D01*
D11*
X139700000Y-64770000D02*
X154940000Y-64770000D01*
X154940000Y-64770000D02*
X154940000Y-92710000D01*
X139700000Y-92710000D02*
X139700000Y-64770000D01*
X139700000Y-92710000D02*
X154940000Y-92710000D01*
X139700000Y-123190000D02*
X139700000Y-95250000D01*
X154940000Y-123190000D02*
X139700000Y-123190000D01*
X154940000Y-95250000D02*
X154940000Y-123190000D01*
X139700000Y-95250000D02*
X154940000Y-95250000D01*
%TO.C,J8*%
X157560000Y-101620000D02*
X163530000Y-101620000D01*
X163530000Y-101620000D02*
X163530000Y-89000000D01*
X163530000Y-89000000D02*
X157560000Y-89000000D01*
X157560000Y-89000000D02*
X157560000Y-101620000D01*
X157570000Y-98310000D02*
X158320000Y-98310000D01*
X158320000Y-98310000D02*
X158320000Y-92310000D01*
X158320000Y-92310000D02*
X157570000Y-92310000D01*
X157570000Y-92310000D02*
X157570000Y-98310000D01*
X157570000Y-101610000D02*
X158320000Y-101610000D01*
X158320000Y-101610000D02*
X158320000Y-99810000D01*
X158320000Y-99810000D02*
X157570000Y-99810000D01*
X157570000Y-99810000D02*
X157570000Y-101610000D01*
X157570000Y-90810000D02*
X158320000Y-90810000D01*
X158320000Y-90810000D02*
X158320000Y-89010000D01*
X158320000Y-89010000D02*
X157570000Y-89010000D01*
X157570000Y-89010000D02*
X157570000Y-90810000D01*
X159820000Y-101610000D02*
X159820000Y-100860000D01*
X159820000Y-100860000D02*
X162770000Y-100860000D01*
X162770000Y-100860000D02*
X162770000Y-95310000D01*
X159820000Y-89010000D02*
X159820000Y-89760000D01*
X159820000Y-89760000D02*
X162770000Y-89760000D01*
X162770000Y-89760000D02*
X162770000Y-95310000D01*
X157270000Y-100660000D02*
X157270000Y-101910000D01*
X157270000Y-101910000D02*
X158520000Y-101910000D01*
%TO.C,J1*%
X128790000Y-65910000D02*
X137910000Y-65910000D01*
X137910000Y-65910000D02*
X137910000Y-124590000D01*
X137910000Y-124590000D02*
X128790000Y-124590000D01*
X128790000Y-124590000D02*
X128790000Y-65910000D01*
X128790000Y-93200000D02*
X130100000Y-93200000D01*
X130100000Y-93200000D02*
X130100000Y-67210000D01*
X130100000Y-67210000D02*
X136600000Y-67210000D01*
X136600000Y-67210000D02*
X136600000Y-123290000D01*
X136600000Y-123290000D02*
X130100000Y-123290000D01*
X130100000Y-123290000D02*
X130100000Y-97300000D01*
X130100000Y-97300000D02*
X130100000Y-97300000D01*
X130100000Y-97300000D02*
X128790000Y-97300000D01*
X128400000Y-71120000D02*
X127400000Y-70620000D01*
X127400000Y-70620000D02*
X127400000Y-71620000D01*
X127400000Y-71620000D02*
X128400000Y-71120000D01*
%TO.C,J7*%
X140950000Y-85170000D02*
X140950000Y-91140000D01*
X140950000Y-91140000D02*
X153570000Y-91140000D01*
X153570000Y-91140000D02*
X153570000Y-85170000D01*
X153570000Y-85170000D02*
X140950000Y-85170000D01*
X144260000Y-85180000D02*
X144260000Y-85930000D01*
X144260000Y-85930000D02*
X150260000Y-85930000D01*
X150260000Y-85930000D02*
X150260000Y-85180000D01*
X150260000Y-85180000D02*
X144260000Y-85180000D01*
X140960000Y-85180000D02*
X140960000Y-85930000D01*
X140960000Y-85930000D02*
X142760000Y-85930000D01*
X142760000Y-85930000D02*
X142760000Y-85180000D01*
X142760000Y-85180000D02*
X140960000Y-85180000D01*
X151760000Y-85180000D02*
X151760000Y-85930000D01*
X151760000Y-85930000D02*
X153560000Y-85930000D01*
X153560000Y-85930000D02*
X153560000Y-85180000D01*
X153560000Y-85180000D02*
X151760000Y-85180000D01*
X140960000Y-87430000D02*
X141710000Y-87430000D01*
X141710000Y-87430000D02*
X141710000Y-90380000D01*
X141710000Y-90380000D02*
X147260000Y-90380000D01*
X153560000Y-87430000D02*
X152810000Y-87430000D01*
X152810000Y-87430000D02*
X152810000Y-90380000D01*
X152810000Y-90380000D02*
X147260000Y-90380000D01*
X141910000Y-84880000D02*
X140660000Y-84880000D01*
X140660000Y-84880000D02*
X140660000Y-86130000D01*
%TO.C,J6*%
X140950000Y-76280000D02*
X140950000Y-82250000D01*
X140950000Y-82250000D02*
X153570000Y-82250000D01*
X153570000Y-82250000D02*
X153570000Y-76280000D01*
X153570000Y-76280000D02*
X140950000Y-76280000D01*
X144260000Y-76290000D02*
X144260000Y-77040000D01*
X144260000Y-77040000D02*
X150260000Y-77040000D01*
X150260000Y-77040000D02*
X150260000Y-76290000D01*
X150260000Y-76290000D02*
X144260000Y-76290000D01*
X140960000Y-76290000D02*
X140960000Y-77040000D01*
X140960000Y-77040000D02*
X142760000Y-77040000D01*
X142760000Y-77040000D02*
X142760000Y-76290000D01*
X142760000Y-76290000D02*
X140960000Y-76290000D01*
X151760000Y-76290000D02*
X151760000Y-77040000D01*
X151760000Y-77040000D02*
X153560000Y-77040000D01*
X153560000Y-77040000D02*
X153560000Y-76290000D01*
X153560000Y-76290000D02*
X151760000Y-76290000D01*
X140960000Y-78540000D02*
X141710000Y-78540000D01*
X141710000Y-78540000D02*
X141710000Y-81490000D01*
X141710000Y-81490000D02*
X147260000Y-81490000D01*
X153560000Y-78540000D02*
X152810000Y-78540000D01*
X152810000Y-78540000D02*
X152810000Y-81490000D01*
X152810000Y-81490000D02*
X147260000Y-81490000D01*
X141910000Y-75990000D02*
X140660000Y-75990000D01*
X140660000Y-75990000D02*
X140660000Y-77240000D01*
%TO.C,J5*%
X140950000Y-67390000D02*
X140950000Y-73360000D01*
X140950000Y-73360000D02*
X153570000Y-73360000D01*
X153570000Y-73360000D02*
X153570000Y-67390000D01*
X153570000Y-67390000D02*
X140950000Y-67390000D01*
X144260000Y-67400000D02*
X144260000Y-68150000D01*
X144260000Y-68150000D02*
X150260000Y-68150000D01*
X150260000Y-68150000D02*
X150260000Y-67400000D01*
X150260000Y-67400000D02*
X144260000Y-67400000D01*
X140960000Y-67400000D02*
X140960000Y-68150000D01*
X140960000Y-68150000D02*
X142760000Y-68150000D01*
X142760000Y-68150000D02*
X142760000Y-67400000D01*
X142760000Y-67400000D02*
X140960000Y-67400000D01*
X151760000Y-67400000D02*
X151760000Y-68150000D01*
X151760000Y-68150000D02*
X153560000Y-68150000D01*
X153560000Y-68150000D02*
X153560000Y-67400000D01*
X153560000Y-67400000D02*
X151760000Y-67400000D01*
X140960000Y-69650000D02*
X141710000Y-69650000D01*
X141710000Y-69650000D02*
X141710000Y-72600000D01*
X141710000Y-72600000D02*
X147260000Y-72600000D01*
X153560000Y-69650000D02*
X152810000Y-69650000D01*
X152810000Y-69650000D02*
X152810000Y-72600000D01*
X152810000Y-72600000D02*
X147260000Y-72600000D01*
X141910000Y-67100000D02*
X140660000Y-67100000D01*
X140660000Y-67100000D02*
X140660000Y-68350000D01*
%TO.C,J4*%
X140950000Y-115650000D02*
X140950000Y-121620000D01*
X140950000Y-121620000D02*
X153570000Y-121620000D01*
X153570000Y-121620000D02*
X153570000Y-115650000D01*
X153570000Y-115650000D02*
X140950000Y-115650000D01*
X144260000Y-115660000D02*
X144260000Y-116410000D01*
X144260000Y-116410000D02*
X150260000Y-116410000D01*
X150260000Y-116410000D02*
X150260000Y-115660000D01*
X150260000Y-115660000D02*
X144260000Y-115660000D01*
X140960000Y-115660000D02*
X140960000Y-116410000D01*
X140960000Y-116410000D02*
X142760000Y-116410000D01*
X142760000Y-116410000D02*
X142760000Y-115660000D01*
X142760000Y-115660000D02*
X140960000Y-115660000D01*
X151760000Y-115660000D02*
X151760000Y-116410000D01*
X151760000Y-116410000D02*
X153560000Y-116410000D01*
X153560000Y-116410000D02*
X153560000Y-115660000D01*
X153560000Y-115660000D02*
X151760000Y-115660000D01*
X140960000Y-117910000D02*
X141710000Y-117910000D01*
X141710000Y-117910000D02*
X141710000Y-120860000D01*
X141710000Y-120860000D02*
X147260000Y-120860000D01*
X153560000Y-117910000D02*
X152810000Y-117910000D01*
X152810000Y-117910000D02*
X152810000Y-120860000D01*
X152810000Y-120860000D02*
X147260000Y-120860000D01*
X141910000Y-115360000D02*
X140660000Y-115360000D01*
X140660000Y-115360000D02*
X140660000Y-116610000D01*
%TO.C,J3*%
X140950000Y-106760000D02*
X140950000Y-112730000D01*
X140950000Y-112730000D02*
X153570000Y-112730000D01*
X153570000Y-112730000D02*
X153570000Y-106760000D01*
X153570000Y-106760000D02*
X140950000Y-106760000D01*
X144260000Y-106770000D02*
X144260000Y-107520000D01*
X144260000Y-107520000D02*
X150260000Y-107520000D01*
X150260000Y-107520000D02*
X150260000Y-106770000D01*
X150260000Y-106770000D02*
X144260000Y-106770000D01*
X140960000Y-106770000D02*
X140960000Y-107520000D01*
X140960000Y-107520000D02*
X142760000Y-107520000D01*
X142760000Y-107520000D02*
X142760000Y-106770000D01*
X142760000Y-106770000D02*
X140960000Y-106770000D01*
X151760000Y-106770000D02*
X151760000Y-107520000D01*
X151760000Y-107520000D02*
X153560000Y-107520000D01*
X153560000Y-107520000D02*
X153560000Y-106770000D01*
X153560000Y-106770000D02*
X151760000Y-106770000D01*
X140960000Y-109020000D02*
X141710000Y-109020000D01*
X141710000Y-109020000D02*
X141710000Y-111970000D01*
X141710000Y-111970000D02*
X147260000Y-111970000D01*
X153560000Y-109020000D02*
X152810000Y-109020000D01*
X152810000Y-109020000D02*
X152810000Y-111970000D01*
X152810000Y-111970000D02*
X147260000Y-111970000D01*
X141910000Y-106470000D02*
X140660000Y-106470000D01*
X140660000Y-106470000D02*
X140660000Y-107720000D01*
%TO.C,J2*%
X140950000Y-97870000D02*
X140950000Y-103840000D01*
X140950000Y-103840000D02*
X153570000Y-103840000D01*
X153570000Y-103840000D02*
X153570000Y-97870000D01*
X153570000Y-97870000D02*
X140950000Y-97870000D01*
X144260000Y-97880000D02*
X144260000Y-98630000D01*
X144260000Y-98630000D02*
X150260000Y-98630000D01*
X150260000Y-98630000D02*
X150260000Y-97880000D01*
X150260000Y-97880000D02*
X144260000Y-97880000D01*
X140960000Y-97880000D02*
X140960000Y-98630000D01*
X140960000Y-98630000D02*
X142760000Y-98630000D01*
X142760000Y-98630000D02*
X142760000Y-97880000D01*
X142760000Y-97880000D02*
X140960000Y-97880000D01*
X151760000Y-97880000D02*
X151760000Y-98630000D01*
X151760000Y-98630000D02*
X153560000Y-98630000D01*
X153560000Y-98630000D02*
X153560000Y-97880000D01*
X153560000Y-97880000D02*
X151760000Y-97880000D01*
X140960000Y-100130000D02*
X141710000Y-100130000D01*
X141710000Y-100130000D02*
X141710000Y-103080000D01*
X141710000Y-103080000D02*
X147260000Y-103080000D01*
X153560000Y-100130000D02*
X152810000Y-100130000D01*
X152810000Y-100130000D02*
X152810000Y-103080000D01*
X152810000Y-103080000D02*
X147260000Y-103080000D01*
X141910000Y-97580000D02*
X140660000Y-97580000D01*
X140660000Y-97580000D02*
X140660000Y-98830000D01*
%TO.C,J8*%
D10*
X155662380Y-90503333D02*
X156376666Y-90503333D01*
X156519523Y-90550952D01*
X156614761Y-90646190D01*
X156662380Y-90789047D01*
X156662380Y-90884285D01*
X156090952Y-89884285D02*
X156043333Y-89979523D01*
X155995714Y-90027142D01*
X155900476Y-90074761D01*
X155852857Y-90074761D01*
X155757619Y-90027142D01*
X155710000Y-89979523D01*
X155662380Y-89884285D01*
X155662380Y-89693809D01*
X155710000Y-89598571D01*
X155757619Y-89550952D01*
X155852857Y-89503333D01*
X155900476Y-89503333D01*
X155995714Y-89550952D01*
X156043333Y-89598571D01*
X156090952Y-89693809D01*
X156090952Y-89884285D01*
X156138571Y-89979523D01*
X156186190Y-90027142D01*
X156281428Y-90074761D01*
X156471904Y-90074761D01*
X156567142Y-90027142D01*
X156614761Y-89979523D01*
X156662380Y-89884285D01*
X156662380Y-89693809D01*
X156614761Y-89598571D01*
X156567142Y-89550952D01*
X156471904Y-89503333D01*
X156281428Y-89503333D01*
X156186190Y-89550952D01*
X156138571Y-89598571D01*
X156090952Y-89693809D01*
%TO.C,J1*%
X133016666Y-64472380D02*
X133016666Y-65186666D01*
X132969047Y-65329523D01*
X132873809Y-65424761D01*
X132730952Y-65472380D01*
X132635714Y-65472380D01*
X134016666Y-65472380D02*
X133445238Y-65472380D01*
X133730952Y-65472380D02*
X133730952Y-64472380D01*
X133635714Y-64615238D01*
X133540476Y-64710476D01*
X133445238Y-64758095D01*
%TO.C,J7*%
X152066666Y-83532380D02*
X152066666Y-84246666D01*
X152019047Y-84389523D01*
X151923809Y-84484761D01*
X151780952Y-84532380D01*
X151685714Y-84532380D01*
X152447619Y-83532380D02*
X153114285Y-83532380D01*
X152685714Y-84532380D01*
%TO.C,J6*%
X152066666Y-74642380D02*
X152066666Y-75356666D01*
X152019047Y-75499523D01*
X151923809Y-75594761D01*
X151780952Y-75642380D01*
X151685714Y-75642380D01*
X152971428Y-74642380D02*
X152780952Y-74642380D01*
X152685714Y-74690000D01*
X152638095Y-74737619D01*
X152542857Y-74880476D01*
X152495238Y-75070952D01*
X152495238Y-75451904D01*
X152542857Y-75547142D01*
X152590476Y-75594761D01*
X152685714Y-75642380D01*
X152876190Y-75642380D01*
X152971428Y-75594761D01*
X153019047Y-75547142D01*
X153066666Y-75451904D01*
X153066666Y-75213809D01*
X153019047Y-75118571D01*
X152971428Y-75070952D01*
X152876190Y-75023333D01*
X152685714Y-75023333D01*
X152590476Y-75070952D01*
X152542857Y-75118571D01*
X152495238Y-75213809D01*
%TO.C,J5*%
X152066666Y-65752380D02*
X152066666Y-66466666D01*
X152019047Y-66609523D01*
X151923809Y-66704761D01*
X151780952Y-66752380D01*
X151685714Y-66752380D01*
X153019047Y-65752380D02*
X152542857Y-65752380D01*
X152495238Y-66228571D01*
X152542857Y-66180952D01*
X152638095Y-66133333D01*
X152876190Y-66133333D01*
X152971428Y-66180952D01*
X153019047Y-66228571D01*
X153066666Y-66323809D01*
X153066666Y-66561904D01*
X153019047Y-66657142D01*
X152971428Y-66704761D01*
X152876190Y-66752380D01*
X152638095Y-66752380D01*
X152542857Y-66704761D01*
X152495238Y-66657142D01*
%TO.C,J4*%
X152066666Y-114012380D02*
X152066666Y-114726666D01*
X152019047Y-114869523D01*
X151923809Y-114964761D01*
X151780952Y-115012380D01*
X151685714Y-115012380D01*
X152971428Y-114345714D02*
X152971428Y-115012380D01*
X152733333Y-113964761D02*
X152495238Y-114679047D01*
X153114285Y-114679047D01*
%TO.C,J3*%
X152066666Y-105122380D02*
X152066666Y-105836666D01*
X152019047Y-105979523D01*
X151923809Y-106074761D01*
X151780952Y-106122380D01*
X151685714Y-106122380D01*
X152447619Y-105122380D02*
X153066666Y-105122380D01*
X152733333Y-105503333D01*
X152876190Y-105503333D01*
X152971428Y-105550952D01*
X153019047Y-105598571D01*
X153066666Y-105693809D01*
X153066666Y-105931904D01*
X153019047Y-106027142D01*
X152971428Y-106074761D01*
X152876190Y-106122380D01*
X152590476Y-106122380D01*
X152495238Y-106074761D01*
X152447619Y-106027142D01*
%TO.C,J2*%
X152066666Y-96232380D02*
X152066666Y-96946666D01*
X152019047Y-97089523D01*
X151923809Y-97184761D01*
X151780952Y-97232380D01*
X151685714Y-97232380D01*
X152495238Y-96327619D02*
X152542857Y-96280000D01*
X152638095Y-96232380D01*
X152876190Y-96232380D01*
X152971428Y-96280000D01*
X153019047Y-96327619D01*
X153066666Y-96422857D01*
X153066666Y-96518095D01*
X153019047Y-96660952D01*
X152447619Y-97232380D01*
X153066666Y-97232380D01*
%TD*%
M02*
