%TF.GenerationSoftware,KiCad,Pcbnew,(5.1.9-0-10_14)*%
%TF.CreationDate,2021-09-26T16:03:20-07:00*%
%TF.ProjectId,rpi-arcade-hat,7270692d-6172-4636-9164-652d6861742e,rev?*%
%TF.SameCoordinates,Original*%
%TF.FileFunction,Legend,Top*%
%TF.FilePolarity,Positive*%
%FSLAX46Y46*%
G04 Gerber Fmt 4.6, Leading zero omitted, Abs format (unit mm)*
G04 Created by KiCad (PCBNEW (5.1.9-0-10_14)) date 2021-09-26 16:03:20*
%MOMM*%
%LPD*%
G01*
G04 APERTURE LIST*
%ADD10C,0.150000*%
%ADD11C,0.120000*%
%ADD12C,0.200000*%
%ADD13C,0.010000*%
G04 APERTURE END LIST*
D10*
X147573690Y-54179761D02*
X147573690Y-55798809D01*
X147668928Y-55989285D01*
X147764166Y-56084523D01*
X147954642Y-56179761D01*
X148335595Y-56179761D01*
X148526071Y-56084523D01*
X148621309Y-55989285D01*
X148716547Y-55798809D01*
X148716547Y-54179761D01*
X149668928Y-54846428D02*
X149668928Y-56846428D01*
X149668928Y-54941666D02*
X149859404Y-54846428D01*
X150240357Y-54846428D01*
X150430833Y-54941666D01*
X150526071Y-55036904D01*
X150621309Y-55227380D01*
X150621309Y-55798809D01*
X150526071Y-55989285D01*
X150430833Y-56084523D01*
X150240357Y-56179761D01*
X149859404Y-56179761D01*
X149668928Y-56084523D01*
X147573690Y-59329761D02*
X147573690Y-57329761D01*
X148049880Y-57329761D01*
X148335595Y-57425000D01*
X148526071Y-57615476D01*
X148621309Y-57805952D01*
X148716547Y-58186904D01*
X148716547Y-58472619D01*
X148621309Y-58853571D01*
X148526071Y-59044047D01*
X148335595Y-59234523D01*
X148049880Y-59329761D01*
X147573690Y-59329761D01*
X149859404Y-59329761D02*
X149668928Y-59234523D01*
X149573690Y-59139285D01*
X149478452Y-58948809D01*
X149478452Y-58377380D01*
X149573690Y-58186904D01*
X149668928Y-58091666D01*
X149859404Y-57996428D01*
X150145119Y-57996428D01*
X150335595Y-58091666D01*
X150430833Y-58186904D01*
X150526071Y-58377380D01*
X150526071Y-58948809D01*
X150430833Y-59139285D01*
X150335595Y-59234523D01*
X150145119Y-59329761D01*
X149859404Y-59329761D01*
X151192738Y-57996428D02*
X151573690Y-59329761D01*
X151954642Y-58377380D01*
X152335595Y-59329761D01*
X152716547Y-57996428D01*
X153478452Y-57996428D02*
X153478452Y-59329761D01*
X153478452Y-58186904D02*
X153573690Y-58091666D01*
X153764166Y-57996428D01*
X154049880Y-57996428D01*
X154240357Y-58091666D01*
X154335595Y-58282142D01*
X154335595Y-59329761D01*
X148526071Y-62479761D02*
X147573690Y-62479761D01*
X147573690Y-60479761D01*
X149954642Y-62384523D02*
X149764166Y-62479761D01*
X149383214Y-62479761D01*
X149192738Y-62384523D01*
X149097500Y-62194047D01*
X149097500Y-61432142D01*
X149192738Y-61241666D01*
X149383214Y-61146428D01*
X149764166Y-61146428D01*
X149954642Y-61241666D01*
X150049880Y-61432142D01*
X150049880Y-61622619D01*
X149097500Y-61813095D01*
X150621309Y-61146428D02*
X151383214Y-61146428D01*
X150907023Y-62479761D02*
X150907023Y-60765476D01*
X151002261Y-60575000D01*
X151192738Y-60479761D01*
X151383214Y-60479761D01*
X151764166Y-61146428D02*
X152526071Y-61146428D01*
X152049880Y-60479761D02*
X152049880Y-62194047D01*
X152145119Y-62384523D01*
X152335595Y-62479761D01*
X152526071Y-62479761D01*
X148716547Y-65629761D02*
X148049880Y-64677380D01*
X147573690Y-65629761D02*
X147573690Y-63629761D01*
X148335595Y-63629761D01*
X148526071Y-63725000D01*
X148621309Y-63820238D01*
X148716547Y-64010714D01*
X148716547Y-64296428D01*
X148621309Y-64486904D01*
X148526071Y-64582142D01*
X148335595Y-64677380D01*
X147573690Y-64677380D01*
X149573690Y-65629761D02*
X149573690Y-64296428D01*
X149573690Y-63629761D02*
X149478452Y-63725000D01*
X149573690Y-63820238D01*
X149668928Y-63725000D01*
X149573690Y-63629761D01*
X149573690Y-63820238D01*
X151383214Y-64296428D02*
X151383214Y-65915476D01*
X151287976Y-66105952D01*
X151192738Y-66201190D01*
X151002261Y-66296428D01*
X150716547Y-66296428D01*
X150526071Y-66201190D01*
X151383214Y-65534523D02*
X151192738Y-65629761D01*
X150811785Y-65629761D01*
X150621309Y-65534523D01*
X150526071Y-65439285D01*
X150430833Y-65248809D01*
X150430833Y-64677380D01*
X150526071Y-64486904D01*
X150621309Y-64391666D01*
X150811785Y-64296428D01*
X151192738Y-64296428D01*
X151383214Y-64391666D01*
X152335595Y-65629761D02*
X152335595Y-63629761D01*
X153192738Y-65629761D02*
X153192738Y-64582142D01*
X153097500Y-64391666D01*
X152907023Y-64296428D01*
X152621309Y-64296428D01*
X152430833Y-64391666D01*
X152335595Y-64486904D01*
X153859404Y-64296428D02*
X154621309Y-64296428D01*
X154145119Y-63629761D02*
X154145119Y-65344047D01*
X154240357Y-65534523D01*
X154430833Y-65629761D01*
X154621309Y-65629761D01*
X147478452Y-69608333D02*
X148430833Y-69608333D01*
X147287976Y-70179761D02*
X147954642Y-68179761D01*
X148621309Y-70179761D01*
X148240357Y-72282142D02*
X148526071Y-72377380D01*
X148621309Y-72472619D01*
X148716547Y-72663095D01*
X148716547Y-72948809D01*
X148621309Y-73139285D01*
X148526071Y-73234523D01*
X148335595Y-73329761D01*
X147573690Y-73329761D01*
X147573690Y-71329761D01*
X148240357Y-71329761D01*
X148430833Y-71425000D01*
X148526071Y-71520238D01*
X148621309Y-71710714D01*
X148621309Y-71901190D01*
X148526071Y-72091666D01*
X148430833Y-72186904D01*
X148240357Y-72282142D01*
X147573690Y-72282142D01*
X147383214Y-74479761D02*
X148716547Y-76479761D01*
X148716547Y-74479761D02*
X147383214Y-76479761D01*
X147954642Y-78677380D02*
X147954642Y-79629761D01*
X147287976Y-77629761D02*
X147954642Y-78677380D01*
X148621309Y-77629761D01*
X147478452Y-84084523D02*
X147764166Y-84179761D01*
X148240357Y-84179761D01*
X148430833Y-84084523D01*
X148526071Y-83989285D01*
X148621309Y-83798809D01*
X148621309Y-83608333D01*
X148526071Y-83417857D01*
X148430833Y-83322619D01*
X148240357Y-83227380D01*
X147859404Y-83132142D01*
X147668928Y-83036904D01*
X147573690Y-82941666D01*
X147478452Y-82751190D01*
X147478452Y-82560714D01*
X147573690Y-82370238D01*
X147668928Y-82275000D01*
X147859404Y-82179761D01*
X148335595Y-82179761D01*
X148621309Y-82275000D01*
X149192738Y-82846428D02*
X149954642Y-82846428D01*
X149478452Y-82179761D02*
X149478452Y-83894047D01*
X149573690Y-84084523D01*
X149764166Y-84179761D01*
X149954642Y-84179761D01*
X151478452Y-84179761D02*
X151478452Y-83132142D01*
X151383214Y-82941666D01*
X151192738Y-82846428D01*
X150811785Y-82846428D01*
X150621309Y-82941666D01*
X151478452Y-84084523D02*
X151287976Y-84179761D01*
X150811785Y-84179761D01*
X150621309Y-84084523D01*
X150526071Y-83894047D01*
X150526071Y-83703571D01*
X150621309Y-83513095D01*
X150811785Y-83417857D01*
X151287976Y-83417857D01*
X151478452Y-83322619D01*
X152430833Y-84179761D02*
X152430833Y-82846428D01*
X152430833Y-83227380D02*
X152526071Y-83036904D01*
X152621309Y-82941666D01*
X152811785Y-82846428D01*
X153002261Y-82846428D01*
X153383214Y-82846428D02*
X154145119Y-82846428D01*
X153668928Y-82179761D02*
X153668928Y-83894047D01*
X153764166Y-84084523D01*
X153954642Y-84179761D01*
X154145119Y-84179761D01*
X147478452Y-87234523D02*
X147764166Y-87329761D01*
X148240357Y-87329761D01*
X148430833Y-87234523D01*
X148526071Y-87139285D01*
X148621309Y-86948809D01*
X148621309Y-86758333D01*
X148526071Y-86567857D01*
X148430833Y-86472619D01*
X148240357Y-86377380D01*
X147859404Y-86282142D01*
X147668928Y-86186904D01*
X147573690Y-86091666D01*
X147478452Y-85901190D01*
X147478452Y-85710714D01*
X147573690Y-85520238D01*
X147668928Y-85425000D01*
X147859404Y-85329761D01*
X148335595Y-85329761D01*
X148621309Y-85425000D01*
X150240357Y-87234523D02*
X150049880Y-87329761D01*
X149668928Y-87329761D01*
X149478452Y-87234523D01*
X149383214Y-87044047D01*
X149383214Y-86282142D01*
X149478452Y-86091666D01*
X149668928Y-85996428D01*
X150049880Y-85996428D01*
X150240357Y-86091666D01*
X150335595Y-86282142D01*
X150335595Y-86472619D01*
X149383214Y-86663095D01*
X151478452Y-87329761D02*
X151287976Y-87234523D01*
X151192738Y-87044047D01*
X151192738Y-85329761D01*
X153002261Y-87234523D02*
X152811785Y-87329761D01*
X152430833Y-87329761D01*
X152240357Y-87234523D01*
X152145119Y-87044047D01*
X152145119Y-86282142D01*
X152240357Y-86091666D01*
X152430833Y-85996428D01*
X152811785Y-85996428D01*
X153002261Y-86091666D01*
X153097500Y-86282142D01*
X153097500Y-86472619D01*
X152145119Y-86663095D01*
X154811785Y-87234523D02*
X154621309Y-87329761D01*
X154240357Y-87329761D01*
X154049880Y-87234523D01*
X153954642Y-87139285D01*
X153859404Y-86948809D01*
X153859404Y-86377380D01*
X153954642Y-86186904D01*
X154049880Y-86091666D01*
X154240357Y-85996428D01*
X154621309Y-85996428D01*
X154811785Y-86091666D01*
X155383214Y-85996428D02*
X156145119Y-85996428D01*
X155668928Y-85329761D02*
X155668928Y-87044047D01*
X155764166Y-87234523D01*
X155954642Y-87329761D01*
X156145119Y-87329761D01*
X148526071Y-90479761D02*
X147573690Y-90479761D01*
X147573690Y-88479761D01*
X150240357Y-90479761D02*
X149097500Y-90479761D01*
X149668928Y-90479761D02*
X149668928Y-88479761D01*
X149478452Y-88765476D01*
X149287976Y-88955952D01*
X149097500Y-89051190D01*
X148716547Y-93629761D02*
X148049880Y-92677380D01*
X147573690Y-93629761D02*
X147573690Y-91629761D01*
X148335595Y-91629761D01*
X148526071Y-91725000D01*
X148621309Y-91820238D01*
X148716547Y-92010714D01*
X148716547Y-92296428D01*
X148621309Y-92486904D01*
X148526071Y-92582142D01*
X148335595Y-92677380D01*
X147573690Y-92677380D01*
X150621309Y-93629761D02*
X149478452Y-93629761D01*
X150049880Y-93629761D02*
X150049880Y-91629761D01*
X149859404Y-91915476D01*
X149668928Y-92105952D01*
X149478452Y-92201190D01*
X147478452Y-133084523D02*
X147764166Y-133179761D01*
X148240357Y-133179761D01*
X148430833Y-133084523D01*
X148526071Y-132989285D01*
X148621309Y-132798809D01*
X148621309Y-132608333D01*
X148526071Y-132417857D01*
X148430833Y-132322619D01*
X148240357Y-132227380D01*
X147859404Y-132132142D01*
X147668928Y-132036904D01*
X147573690Y-131941666D01*
X147478452Y-131751190D01*
X147478452Y-131560714D01*
X147573690Y-131370238D01*
X147668928Y-131275000D01*
X147859404Y-131179761D01*
X148335595Y-131179761D01*
X148621309Y-131275000D01*
X149192738Y-131846428D02*
X149954642Y-131846428D01*
X149478452Y-131179761D02*
X149478452Y-132894047D01*
X149573690Y-133084523D01*
X149764166Y-133179761D01*
X149954642Y-133179761D01*
X151478452Y-133179761D02*
X151478452Y-132132142D01*
X151383214Y-131941666D01*
X151192738Y-131846428D01*
X150811785Y-131846428D01*
X150621309Y-131941666D01*
X151478452Y-133084523D02*
X151287976Y-133179761D01*
X150811785Y-133179761D01*
X150621309Y-133084523D01*
X150526071Y-132894047D01*
X150526071Y-132703571D01*
X150621309Y-132513095D01*
X150811785Y-132417857D01*
X151287976Y-132417857D01*
X151478452Y-132322619D01*
X152430833Y-133179761D02*
X152430833Y-131846428D01*
X152430833Y-132227380D02*
X152526071Y-132036904D01*
X152621309Y-131941666D01*
X152811785Y-131846428D01*
X153002261Y-131846428D01*
X153383214Y-131846428D02*
X154145119Y-131846428D01*
X153668928Y-131179761D02*
X153668928Y-132894047D01*
X153764166Y-133084523D01*
X153954642Y-133179761D01*
X154145119Y-133179761D01*
X147478452Y-136234523D02*
X147764166Y-136329761D01*
X148240357Y-136329761D01*
X148430833Y-136234523D01*
X148526071Y-136139285D01*
X148621309Y-135948809D01*
X148621309Y-135758333D01*
X148526071Y-135567857D01*
X148430833Y-135472619D01*
X148240357Y-135377380D01*
X147859404Y-135282142D01*
X147668928Y-135186904D01*
X147573690Y-135091666D01*
X147478452Y-134901190D01*
X147478452Y-134710714D01*
X147573690Y-134520238D01*
X147668928Y-134425000D01*
X147859404Y-134329761D01*
X148335595Y-134329761D01*
X148621309Y-134425000D01*
X150240357Y-136234523D02*
X150049880Y-136329761D01*
X149668928Y-136329761D01*
X149478452Y-136234523D01*
X149383214Y-136044047D01*
X149383214Y-135282142D01*
X149478452Y-135091666D01*
X149668928Y-134996428D01*
X150049880Y-134996428D01*
X150240357Y-135091666D01*
X150335595Y-135282142D01*
X150335595Y-135472619D01*
X149383214Y-135663095D01*
X151478452Y-136329761D02*
X151287976Y-136234523D01*
X151192738Y-136044047D01*
X151192738Y-134329761D01*
X153002261Y-136234523D02*
X152811785Y-136329761D01*
X152430833Y-136329761D01*
X152240357Y-136234523D01*
X152145119Y-136044047D01*
X152145119Y-135282142D01*
X152240357Y-135091666D01*
X152430833Y-134996428D01*
X152811785Y-134996428D01*
X153002261Y-135091666D01*
X153097500Y-135282142D01*
X153097500Y-135472619D01*
X152145119Y-135663095D01*
X154811785Y-136234523D02*
X154621309Y-136329761D01*
X154240357Y-136329761D01*
X154049880Y-136234523D01*
X153954642Y-136139285D01*
X153859404Y-135948809D01*
X153859404Y-135377380D01*
X153954642Y-135186904D01*
X154049880Y-135091666D01*
X154240357Y-134996428D01*
X154621309Y-134996428D01*
X154811785Y-135091666D01*
X155383214Y-134996428D02*
X156145119Y-134996428D01*
X155668928Y-134329761D02*
X155668928Y-136044047D01*
X155764166Y-136234523D01*
X155954642Y-136329761D01*
X156145119Y-136329761D01*
X148526071Y-139479761D02*
X147573690Y-139479761D01*
X147573690Y-137479761D01*
X150240357Y-139479761D02*
X149097500Y-139479761D01*
X149668928Y-139479761D02*
X149668928Y-137479761D01*
X149478452Y-137765476D01*
X149287976Y-137955952D01*
X149097500Y-138051190D01*
X148716547Y-142629761D02*
X148049880Y-141677380D01*
X147573690Y-142629761D02*
X147573690Y-140629761D01*
X148335595Y-140629761D01*
X148526071Y-140725000D01*
X148621309Y-140820238D01*
X148716547Y-141010714D01*
X148716547Y-141296428D01*
X148621309Y-141486904D01*
X148526071Y-141582142D01*
X148335595Y-141677380D01*
X147573690Y-141677380D01*
X150621309Y-142629761D02*
X149478452Y-142629761D01*
X150049880Y-142629761D02*
X150049880Y-140629761D01*
X149859404Y-140915476D01*
X149668928Y-141105952D01*
X149478452Y-141201190D01*
X147478452Y-118608333D02*
X148430833Y-118608333D01*
X147287976Y-119179761D02*
X147954642Y-117179761D01*
X148621309Y-119179761D01*
X148240357Y-121282142D02*
X148526071Y-121377380D01*
X148621309Y-121472619D01*
X148716547Y-121663095D01*
X148716547Y-121948809D01*
X148621309Y-122139285D01*
X148526071Y-122234523D01*
X148335595Y-122329761D01*
X147573690Y-122329761D01*
X147573690Y-120329761D01*
X148240357Y-120329761D01*
X148430833Y-120425000D01*
X148526071Y-120520238D01*
X148621309Y-120710714D01*
X148621309Y-120901190D01*
X148526071Y-121091666D01*
X148430833Y-121186904D01*
X148240357Y-121282142D01*
X147573690Y-121282142D01*
X147383214Y-123479761D02*
X148716547Y-125479761D01*
X148716547Y-123479761D02*
X147383214Y-125479761D01*
X147954642Y-127677380D02*
X147954642Y-128629761D01*
X147287976Y-126629761D02*
X147954642Y-127677380D01*
X148621309Y-126629761D01*
X147573690Y-103179761D02*
X147573690Y-104798809D01*
X147668928Y-104989285D01*
X147764166Y-105084523D01*
X147954642Y-105179761D01*
X148335595Y-105179761D01*
X148526071Y-105084523D01*
X148621309Y-104989285D01*
X148716547Y-104798809D01*
X148716547Y-103179761D01*
X149668928Y-103846428D02*
X149668928Y-105846428D01*
X149668928Y-103941666D02*
X149859404Y-103846428D01*
X150240357Y-103846428D01*
X150430833Y-103941666D01*
X150526071Y-104036904D01*
X150621309Y-104227380D01*
X150621309Y-104798809D01*
X150526071Y-104989285D01*
X150430833Y-105084523D01*
X150240357Y-105179761D01*
X149859404Y-105179761D01*
X149668928Y-105084523D01*
X147573690Y-108329761D02*
X147573690Y-106329761D01*
X148049880Y-106329761D01*
X148335595Y-106425000D01*
X148526071Y-106615476D01*
X148621309Y-106805952D01*
X148716547Y-107186904D01*
X148716547Y-107472619D01*
X148621309Y-107853571D01*
X148526071Y-108044047D01*
X148335595Y-108234523D01*
X148049880Y-108329761D01*
X147573690Y-108329761D01*
X149859404Y-108329761D02*
X149668928Y-108234523D01*
X149573690Y-108139285D01*
X149478452Y-107948809D01*
X149478452Y-107377380D01*
X149573690Y-107186904D01*
X149668928Y-107091666D01*
X149859404Y-106996428D01*
X150145119Y-106996428D01*
X150335595Y-107091666D01*
X150430833Y-107186904D01*
X150526071Y-107377380D01*
X150526071Y-107948809D01*
X150430833Y-108139285D01*
X150335595Y-108234523D01*
X150145119Y-108329761D01*
X149859404Y-108329761D01*
X151192738Y-106996428D02*
X151573690Y-108329761D01*
X151954642Y-107377380D01*
X152335595Y-108329761D01*
X152716547Y-106996428D01*
X153478452Y-106996428D02*
X153478452Y-108329761D01*
X153478452Y-107186904D02*
X153573690Y-107091666D01*
X153764166Y-106996428D01*
X154049880Y-106996428D01*
X154240357Y-107091666D01*
X154335595Y-107282142D01*
X154335595Y-108329761D01*
X148526071Y-111479761D02*
X147573690Y-111479761D01*
X147573690Y-109479761D01*
X149954642Y-111384523D02*
X149764166Y-111479761D01*
X149383214Y-111479761D01*
X149192738Y-111384523D01*
X149097500Y-111194047D01*
X149097500Y-110432142D01*
X149192738Y-110241666D01*
X149383214Y-110146428D01*
X149764166Y-110146428D01*
X149954642Y-110241666D01*
X150049880Y-110432142D01*
X150049880Y-110622619D01*
X149097500Y-110813095D01*
X150621309Y-110146428D02*
X151383214Y-110146428D01*
X150907023Y-111479761D02*
X150907023Y-109765476D01*
X151002261Y-109575000D01*
X151192738Y-109479761D01*
X151383214Y-109479761D01*
X151764166Y-110146428D02*
X152526071Y-110146428D01*
X152049880Y-109479761D02*
X152049880Y-111194047D01*
X152145119Y-111384523D01*
X152335595Y-111479761D01*
X152526071Y-111479761D01*
X148716547Y-114629761D02*
X148049880Y-113677380D01*
X147573690Y-114629761D02*
X147573690Y-112629761D01*
X148335595Y-112629761D01*
X148526071Y-112725000D01*
X148621309Y-112820238D01*
X148716547Y-113010714D01*
X148716547Y-113296428D01*
X148621309Y-113486904D01*
X148526071Y-113582142D01*
X148335595Y-113677380D01*
X147573690Y-113677380D01*
X149573690Y-114629761D02*
X149573690Y-113296428D01*
X149573690Y-112629761D02*
X149478452Y-112725000D01*
X149573690Y-112820238D01*
X149668928Y-112725000D01*
X149573690Y-112629761D01*
X149573690Y-112820238D01*
X151383214Y-113296428D02*
X151383214Y-114915476D01*
X151287976Y-115105952D01*
X151192738Y-115201190D01*
X151002261Y-115296428D01*
X150716547Y-115296428D01*
X150526071Y-115201190D01*
X151383214Y-114534523D02*
X151192738Y-114629761D01*
X150811785Y-114629761D01*
X150621309Y-114534523D01*
X150526071Y-114439285D01*
X150430833Y-114248809D01*
X150430833Y-113677380D01*
X150526071Y-113486904D01*
X150621309Y-113391666D01*
X150811785Y-113296428D01*
X151192738Y-113296428D01*
X151383214Y-113391666D01*
X152335595Y-114629761D02*
X152335595Y-112629761D01*
X153192738Y-114629761D02*
X153192738Y-113582142D01*
X153097500Y-113391666D01*
X152907023Y-113296428D01*
X152621309Y-113296428D01*
X152430833Y-113391666D01*
X152335595Y-113486904D01*
X153859404Y-113296428D02*
X154621309Y-113296428D01*
X154145119Y-112629761D02*
X154145119Y-114344047D01*
X154240357Y-114534523D01*
X154430833Y-114629761D01*
X154621309Y-114629761D01*
X172621309Y-92275000D02*
X172430833Y-92179761D01*
X172145119Y-92179761D01*
X171859404Y-92275000D01*
X171668928Y-92465476D01*
X171573690Y-92655952D01*
X171478452Y-93036904D01*
X171478452Y-93322619D01*
X171573690Y-93703571D01*
X171668928Y-93894047D01*
X171859404Y-94084523D01*
X172145119Y-94179761D01*
X172335595Y-94179761D01*
X172621309Y-94084523D01*
X172716547Y-93989285D01*
X172716547Y-93322619D01*
X172335595Y-93322619D01*
X173573690Y-94179761D02*
X173573690Y-92846428D01*
X173573690Y-93227380D02*
X173668928Y-93036904D01*
X173764166Y-92941666D01*
X173954642Y-92846428D01*
X174145119Y-92846428D01*
X175097500Y-94179761D02*
X174907023Y-94084523D01*
X174811785Y-93989285D01*
X174716547Y-93798809D01*
X174716547Y-93227380D01*
X174811785Y-93036904D01*
X174907023Y-92941666D01*
X175097500Y-92846428D01*
X175383214Y-92846428D01*
X175573690Y-92941666D01*
X175668928Y-93036904D01*
X175764166Y-93227380D01*
X175764166Y-93798809D01*
X175668928Y-93989285D01*
X175573690Y-94084523D01*
X175383214Y-94179761D01*
X175097500Y-94179761D01*
X177478452Y-92846428D02*
X177478452Y-94179761D01*
X176621309Y-92846428D02*
X176621309Y-93894047D01*
X176716547Y-94084523D01*
X176907023Y-94179761D01*
X177192738Y-94179761D01*
X177383214Y-94084523D01*
X177478452Y-93989285D01*
X178430833Y-92846428D02*
X178430833Y-94179761D01*
X178430833Y-93036904D02*
X178526071Y-92941666D01*
X178716547Y-92846428D01*
X179002261Y-92846428D01*
X179192738Y-92941666D01*
X179287976Y-93132142D01*
X179287976Y-94179761D01*
X181097500Y-94179761D02*
X181097500Y-92179761D01*
X181097500Y-94084523D02*
X180907023Y-94179761D01*
X180526071Y-94179761D01*
X180335595Y-94084523D01*
X180240357Y-93989285D01*
X180145119Y-93798809D01*
X180145119Y-93227380D01*
X180240357Y-93036904D01*
X180335595Y-92941666D01*
X180526071Y-92846428D01*
X180907023Y-92846428D01*
X181097500Y-92941666D01*
X172621309Y-95425000D02*
X172430833Y-95329761D01*
X172145119Y-95329761D01*
X171859404Y-95425000D01*
X171668928Y-95615476D01*
X171573690Y-95805952D01*
X171478452Y-96186904D01*
X171478452Y-96472619D01*
X171573690Y-96853571D01*
X171668928Y-97044047D01*
X171859404Y-97234523D01*
X172145119Y-97329761D01*
X172335595Y-97329761D01*
X172621309Y-97234523D01*
X172716547Y-97139285D01*
X172716547Y-96472619D01*
X172335595Y-96472619D01*
X173573690Y-97329761D02*
X173573690Y-95996428D01*
X173573690Y-96377380D02*
X173668928Y-96186904D01*
X173764166Y-96091666D01*
X173954642Y-95996428D01*
X174145119Y-95996428D01*
X175097500Y-97329761D02*
X174907023Y-97234523D01*
X174811785Y-97139285D01*
X174716547Y-96948809D01*
X174716547Y-96377380D01*
X174811785Y-96186904D01*
X174907023Y-96091666D01*
X175097500Y-95996428D01*
X175383214Y-95996428D01*
X175573690Y-96091666D01*
X175668928Y-96186904D01*
X175764166Y-96377380D01*
X175764166Y-96948809D01*
X175668928Y-97139285D01*
X175573690Y-97234523D01*
X175383214Y-97329761D01*
X175097500Y-97329761D01*
X177478452Y-95996428D02*
X177478452Y-97329761D01*
X176621309Y-95996428D02*
X176621309Y-97044047D01*
X176716547Y-97234523D01*
X176907023Y-97329761D01*
X177192738Y-97329761D01*
X177383214Y-97234523D01*
X177478452Y-97139285D01*
X178430833Y-95996428D02*
X178430833Y-97329761D01*
X178430833Y-96186904D02*
X178526071Y-96091666D01*
X178716547Y-95996428D01*
X179002261Y-95996428D01*
X179192738Y-96091666D01*
X179287976Y-96282142D01*
X179287976Y-97329761D01*
X181097500Y-97329761D02*
X181097500Y-95329761D01*
X181097500Y-97234523D02*
X180907023Y-97329761D01*
X180526071Y-97329761D01*
X180335595Y-97234523D01*
X180240357Y-97139285D01*
X180145119Y-96948809D01*
X180145119Y-96377380D01*
X180240357Y-96186904D01*
X180335595Y-96091666D01*
X180526071Y-95996428D01*
X180907023Y-95996428D01*
X181097500Y-96091666D01*
X171573690Y-100479761D02*
X171573690Y-98479761D01*
X171573690Y-99432142D02*
X172716547Y-99432142D01*
X172716547Y-100479761D02*
X172716547Y-98479761D01*
X173954642Y-100479761D02*
X173764166Y-100384523D01*
X173668928Y-100289285D01*
X173573690Y-100098809D01*
X173573690Y-99527380D01*
X173668928Y-99336904D01*
X173764166Y-99241666D01*
X173954642Y-99146428D01*
X174240357Y-99146428D01*
X174430833Y-99241666D01*
X174526071Y-99336904D01*
X174621309Y-99527380D01*
X174621309Y-100098809D01*
X174526071Y-100289285D01*
X174430833Y-100384523D01*
X174240357Y-100479761D01*
X173954642Y-100479761D01*
X175192738Y-99146428D02*
X175954642Y-99146428D01*
X175478452Y-98479761D02*
X175478452Y-100194047D01*
X175573690Y-100384523D01*
X175764166Y-100479761D01*
X175954642Y-100479761D01*
X176621309Y-100479761D02*
X176621309Y-98479761D01*
X176811785Y-99717857D02*
X177383214Y-100479761D01*
X177383214Y-99146428D02*
X176621309Y-99908333D01*
X179002261Y-100384523D02*
X178811785Y-100479761D01*
X178430833Y-100479761D01*
X178240357Y-100384523D01*
X178145119Y-100194047D01*
X178145119Y-99432142D01*
X178240357Y-99241666D01*
X178430833Y-99146428D01*
X178811785Y-99146428D01*
X179002261Y-99241666D01*
X179097500Y-99432142D01*
X179097500Y-99622619D01*
X178145119Y-99813095D01*
X179764166Y-99146428D02*
X180240357Y-100479761D01*
X180716547Y-99146428D02*
X180240357Y-100479761D01*
X180049880Y-100955952D01*
X179954642Y-101051190D01*
X179764166Y-101146428D01*
X171573690Y-103629761D02*
X171573690Y-101629761D01*
X171573690Y-102582142D02*
X172716547Y-102582142D01*
X172716547Y-103629761D02*
X172716547Y-101629761D01*
X173954642Y-103629761D02*
X173764166Y-103534523D01*
X173668928Y-103439285D01*
X173573690Y-103248809D01*
X173573690Y-102677380D01*
X173668928Y-102486904D01*
X173764166Y-102391666D01*
X173954642Y-102296428D01*
X174240357Y-102296428D01*
X174430833Y-102391666D01*
X174526071Y-102486904D01*
X174621309Y-102677380D01*
X174621309Y-103248809D01*
X174526071Y-103439285D01*
X174430833Y-103534523D01*
X174240357Y-103629761D01*
X173954642Y-103629761D01*
X175192738Y-102296428D02*
X175954642Y-102296428D01*
X175478452Y-101629761D02*
X175478452Y-103344047D01*
X175573690Y-103534523D01*
X175764166Y-103629761D01*
X175954642Y-103629761D01*
X176621309Y-103629761D02*
X176621309Y-101629761D01*
X176811785Y-102867857D02*
X177383214Y-103629761D01*
X177383214Y-102296428D02*
X176621309Y-103058333D01*
X179002261Y-103534523D02*
X178811785Y-103629761D01*
X178430833Y-103629761D01*
X178240357Y-103534523D01*
X178145119Y-103344047D01*
X178145119Y-102582142D01*
X178240357Y-102391666D01*
X178430833Y-102296428D01*
X178811785Y-102296428D01*
X179002261Y-102391666D01*
X179097500Y-102582142D01*
X179097500Y-102772619D01*
X178145119Y-102963095D01*
X179764166Y-102296428D02*
X180240357Y-103629761D01*
X180716547Y-102296428D02*
X180240357Y-103629761D01*
X180049880Y-104105952D01*
X179954642Y-104201190D01*
X179764166Y-104296428D01*
X160500000Y-100023809D02*
X160452380Y-100119047D01*
X160452380Y-100261904D01*
X160500000Y-100404761D01*
X160595238Y-100500000D01*
X160690476Y-100547619D01*
X160880952Y-100595238D01*
X161023809Y-100595238D01*
X161214285Y-100547619D01*
X161309523Y-100500000D01*
X161404761Y-100404761D01*
X161452380Y-100261904D01*
X161452380Y-100166666D01*
X161404761Y-100023809D01*
X161357142Y-99976190D01*
X161023809Y-99976190D01*
X161023809Y-100166666D01*
X161452380Y-99404761D02*
X161404761Y-99500000D01*
X161309523Y-99547619D01*
X160452380Y-99547619D01*
X161452380Y-98880952D02*
X161404761Y-98976190D01*
X161357142Y-99023809D01*
X161261904Y-99071428D01*
X160976190Y-99071428D01*
X160880952Y-99023809D01*
X160833333Y-98976190D01*
X160785714Y-98880952D01*
X160785714Y-98738095D01*
X160833333Y-98642857D01*
X160880952Y-98595238D01*
X160976190Y-98547619D01*
X161261904Y-98547619D01*
X161357142Y-98595238D01*
X161404761Y-98642857D01*
X161452380Y-98738095D01*
X161452380Y-98880952D01*
X161452380Y-98119047D02*
X160452380Y-98119047D01*
X160833333Y-98119047D02*
X160785714Y-98023809D01*
X160785714Y-97833333D01*
X160833333Y-97738095D01*
X160880952Y-97690476D01*
X160976190Y-97642857D01*
X161261904Y-97642857D01*
X161357142Y-97690476D01*
X161404761Y-97738095D01*
X161452380Y-97833333D01*
X161452380Y-98023809D01*
X161404761Y-98119047D01*
X161452380Y-96785714D02*
X160928571Y-96785714D01*
X160833333Y-96833333D01*
X160785714Y-96928571D01*
X160785714Y-97119047D01*
X160833333Y-97214285D01*
X161404761Y-96785714D02*
X161452380Y-96880952D01*
X161452380Y-97119047D01*
X161404761Y-97214285D01*
X161309523Y-97261904D01*
X161214285Y-97261904D01*
X161119047Y-97214285D01*
X161071428Y-97119047D01*
X161071428Y-96880952D01*
X161023809Y-96785714D01*
X161452380Y-96166666D02*
X161404761Y-96261904D01*
X161309523Y-96309523D01*
X160452380Y-96309523D01*
X161404761Y-95833333D02*
X161452380Y-95738095D01*
X161452380Y-95547619D01*
X161404761Y-95452380D01*
X161309523Y-95404761D01*
X161261904Y-95404761D01*
X161166666Y-95452380D01*
X161119047Y-95547619D01*
X161119047Y-95690476D01*
X161071428Y-95785714D01*
X160976190Y-95833333D01*
X160928571Y-95833333D01*
X160833333Y-95785714D01*
X160785714Y-95690476D01*
X160785714Y-95547619D01*
X160833333Y-95452380D01*
D11*
X162000000Y-106000000D02*
X162000000Y-90000000D01*
X182000000Y-106000000D02*
X162000000Y-106000000D01*
X182000000Y-90000000D02*
X182000000Y-106000000D01*
X162000000Y-90000000D02*
X182000000Y-90000000D01*
D12*
X186104761Y-136761904D02*
X185152380Y-137428571D01*
X186104761Y-137904761D02*
X184104761Y-137904761D01*
X184104761Y-137142857D01*
X184200000Y-136952380D01*
X184295238Y-136857142D01*
X184485714Y-136761904D01*
X184771428Y-136761904D01*
X184961904Y-136857142D01*
X185057142Y-136952380D01*
X185152380Y-137142857D01*
X185152380Y-137904761D01*
X186009523Y-135142857D02*
X186104761Y-135333333D01*
X186104761Y-135714285D01*
X186009523Y-135904761D01*
X185819047Y-136000000D01*
X185057142Y-136000000D01*
X184866666Y-135904761D01*
X184771428Y-135714285D01*
X184771428Y-135333333D01*
X184866666Y-135142857D01*
X185057142Y-135047619D01*
X185247619Y-135047619D01*
X185438095Y-136000000D01*
X186009523Y-133333333D02*
X186104761Y-133523809D01*
X186104761Y-133904761D01*
X186009523Y-134095238D01*
X185914285Y-134190476D01*
X185723809Y-134285714D01*
X185152380Y-134285714D01*
X184961904Y-134190476D01*
X184866666Y-134095238D01*
X184771428Y-133904761D01*
X184771428Y-133523809D01*
X184866666Y-133333333D01*
X186104761Y-131619047D02*
X185057142Y-131619047D01*
X184866666Y-131714285D01*
X184771428Y-131904761D01*
X184771428Y-132285714D01*
X184866666Y-132476190D01*
X186009523Y-131619047D02*
X186104761Y-131809523D01*
X186104761Y-132285714D01*
X186009523Y-132476190D01*
X185819047Y-132571428D01*
X185628571Y-132571428D01*
X185438095Y-132476190D01*
X185342857Y-132285714D01*
X185342857Y-131809523D01*
X185247619Y-131619047D01*
X186104761Y-130380952D02*
X186009523Y-130571428D01*
X185819047Y-130666666D01*
X184104761Y-130666666D01*
X185057142Y-128952380D02*
X185152380Y-128666666D01*
X185247619Y-128571428D01*
X185438095Y-128476190D01*
X185723809Y-128476190D01*
X185914285Y-128571428D01*
X186009523Y-128666666D01*
X186104761Y-128857142D01*
X186104761Y-129619047D01*
X184104761Y-129619047D01*
X184104761Y-128952380D01*
X184200000Y-128761904D01*
X184295238Y-128666666D01*
X184485714Y-128571428D01*
X184676190Y-128571428D01*
X184866666Y-128666666D01*
X184961904Y-128761904D01*
X185057142Y-128952380D01*
X185057142Y-129619047D01*
X186104761Y-127333333D02*
X186009523Y-127523809D01*
X185914285Y-127619047D01*
X185723809Y-127714285D01*
X185152380Y-127714285D01*
X184961904Y-127619047D01*
X184866666Y-127523809D01*
X184771428Y-127333333D01*
X184771428Y-127047619D01*
X184866666Y-126857142D01*
X184961904Y-126761904D01*
X185152380Y-126666666D01*
X185723809Y-126666666D01*
X185914285Y-126761904D01*
X186009523Y-126857142D01*
X186104761Y-127047619D01*
X186104761Y-127333333D01*
X186104761Y-126000000D02*
X184771428Y-124952380D01*
X184771428Y-126000000D02*
X186104761Y-124952380D01*
X185533333Y-122761904D02*
X185533333Y-121809523D01*
X186104761Y-122952380D02*
X184104761Y-122285714D01*
X186104761Y-121619047D01*
X186104761Y-120952380D02*
X184771428Y-120952380D01*
X185152380Y-120952380D02*
X184961904Y-120857142D01*
X184866666Y-120761904D01*
X184771428Y-120571428D01*
X184771428Y-120380952D01*
X186009523Y-118857142D02*
X186104761Y-119047619D01*
X186104761Y-119428571D01*
X186009523Y-119619047D01*
X185914285Y-119714285D01*
X185723809Y-119809523D01*
X185152380Y-119809523D01*
X184961904Y-119714285D01*
X184866666Y-119619047D01*
X184771428Y-119428571D01*
X184771428Y-119047619D01*
X184866666Y-118857142D01*
X186104761Y-117142857D02*
X185057142Y-117142857D01*
X184866666Y-117238095D01*
X184771428Y-117428571D01*
X184771428Y-117809523D01*
X184866666Y-118000000D01*
X186009523Y-117142857D02*
X186104761Y-117333333D01*
X186104761Y-117809523D01*
X186009523Y-118000000D01*
X185819047Y-118095238D01*
X185628571Y-118095238D01*
X185438095Y-118000000D01*
X185342857Y-117809523D01*
X185342857Y-117333333D01*
X185247619Y-117142857D01*
X186104761Y-115333333D02*
X184104761Y-115333333D01*
X186009523Y-115333333D02*
X186104761Y-115523809D01*
X186104761Y-115904761D01*
X186009523Y-116095238D01*
X185914285Y-116190476D01*
X185723809Y-116285714D01*
X185152380Y-116285714D01*
X184961904Y-116190476D01*
X184866666Y-116095238D01*
X184771428Y-115904761D01*
X184771428Y-115523809D01*
X184866666Y-115333333D01*
X186009523Y-113619047D02*
X186104761Y-113809523D01*
X186104761Y-114190476D01*
X186009523Y-114380952D01*
X185819047Y-114476190D01*
X185057142Y-114476190D01*
X184866666Y-114380952D01*
X184771428Y-114190476D01*
X184771428Y-113809523D01*
X184866666Y-113619047D01*
X185057142Y-113523809D01*
X185247619Y-113523809D01*
X185438095Y-114476190D01*
X189114285Y-142190476D02*
X189209523Y-142285714D01*
X189304761Y-142571428D01*
X189304761Y-142761904D01*
X189209523Y-143047619D01*
X189019047Y-143238095D01*
X188828571Y-143333333D01*
X188447619Y-143428571D01*
X188161904Y-143428571D01*
X187780952Y-143333333D01*
X187590476Y-143238095D01*
X187400000Y-143047619D01*
X187304761Y-142761904D01*
X187304761Y-142571428D01*
X187400000Y-142285714D01*
X187495238Y-142190476D01*
X189304761Y-141047619D02*
X189209523Y-141238095D01*
X189114285Y-141333333D01*
X188923809Y-141428571D01*
X188352380Y-141428571D01*
X188161904Y-141333333D01*
X188066666Y-141238095D01*
X187971428Y-141047619D01*
X187971428Y-140761904D01*
X188066666Y-140571428D01*
X188161904Y-140476190D01*
X188352380Y-140380952D01*
X188923809Y-140380952D01*
X189114285Y-140476190D01*
X189209523Y-140571428D01*
X189304761Y-140761904D01*
X189304761Y-141047619D01*
X187971428Y-139523809D02*
X189304761Y-139523809D01*
X188161904Y-139523809D02*
X188066666Y-139428571D01*
X187971428Y-139238095D01*
X187971428Y-138952380D01*
X188066666Y-138761904D01*
X188257142Y-138666666D01*
X189304761Y-138666666D01*
X187971428Y-138000000D02*
X187971428Y-137238095D01*
X187304761Y-137714285D02*
X189019047Y-137714285D01*
X189209523Y-137619047D01*
X189304761Y-137428571D01*
X189304761Y-137238095D01*
X189304761Y-136571428D02*
X187971428Y-136571428D01*
X188352380Y-136571428D02*
X188161904Y-136476190D01*
X188066666Y-136380952D01*
X187971428Y-136190476D01*
X187971428Y-136000000D01*
X189304761Y-135047619D02*
X189209523Y-135238095D01*
X189114285Y-135333333D01*
X188923809Y-135428571D01*
X188352380Y-135428571D01*
X188161904Y-135333333D01*
X188066666Y-135238095D01*
X187971428Y-135047619D01*
X187971428Y-134761904D01*
X188066666Y-134571428D01*
X188161904Y-134476190D01*
X188352380Y-134380952D01*
X188923809Y-134380952D01*
X189114285Y-134476190D01*
X189209523Y-134571428D01*
X189304761Y-134761904D01*
X189304761Y-135047619D01*
X189304761Y-133238095D02*
X189209523Y-133428571D01*
X189019047Y-133523809D01*
X187304761Y-133523809D01*
X189304761Y-130952380D02*
X187304761Y-130952380D01*
X187971428Y-130000000D02*
X189304761Y-130000000D01*
X188161904Y-130000000D02*
X188066666Y-129904761D01*
X187971428Y-129714285D01*
X187971428Y-129428571D01*
X188066666Y-129238095D01*
X188257142Y-129142857D01*
X189304761Y-129142857D01*
X187971428Y-128476190D02*
X187971428Y-127714285D01*
X187304761Y-128190476D02*
X189019047Y-128190476D01*
X189209523Y-128095238D01*
X189304761Y-127904761D01*
X189304761Y-127714285D01*
X189209523Y-126285714D02*
X189304761Y-126476190D01*
X189304761Y-126857142D01*
X189209523Y-127047619D01*
X189019047Y-127142857D01*
X188257142Y-127142857D01*
X188066666Y-127047619D01*
X187971428Y-126857142D01*
X187971428Y-126476190D01*
X188066666Y-126285714D01*
X188257142Y-126190476D01*
X188447619Y-126190476D01*
X188638095Y-127142857D01*
X189304761Y-125333333D02*
X187971428Y-125333333D01*
X188352380Y-125333333D02*
X188161904Y-125238095D01*
X188066666Y-125142857D01*
X187971428Y-124952380D01*
X187971428Y-124761904D01*
X187971428Y-124380952D02*
X187971428Y-123619047D01*
X189304761Y-124095238D02*
X187590476Y-124095238D01*
X187400000Y-124000000D01*
X187304761Y-123809523D01*
X187304761Y-123619047D01*
X189304761Y-122095238D02*
X188257142Y-122095238D01*
X188066666Y-122190476D01*
X187971428Y-122380952D01*
X187971428Y-122761904D01*
X188066666Y-122952380D01*
X189209523Y-122095238D02*
X189304761Y-122285714D01*
X189304761Y-122761904D01*
X189209523Y-122952380D01*
X189019047Y-123047619D01*
X188828571Y-123047619D01*
X188638095Y-122952380D01*
X188542857Y-122761904D01*
X188542857Y-122285714D01*
X188447619Y-122095238D01*
X189209523Y-120285714D02*
X189304761Y-120476190D01*
X189304761Y-120857142D01*
X189209523Y-121047619D01*
X189114285Y-121142857D01*
X188923809Y-121238095D01*
X188352380Y-121238095D01*
X188161904Y-121142857D01*
X188066666Y-121047619D01*
X187971428Y-120857142D01*
X187971428Y-120476190D01*
X188066666Y-120285714D01*
X189209523Y-118666666D02*
X189304761Y-118857142D01*
X189304761Y-119238095D01*
X189209523Y-119428571D01*
X189019047Y-119523809D01*
X188257142Y-119523809D01*
X188066666Y-119428571D01*
X187971428Y-119238095D01*
X187971428Y-118857142D01*
X188066666Y-118666666D01*
X188257142Y-118571428D01*
X188447619Y-118571428D01*
X188638095Y-119523809D01*
X189304761Y-116190476D02*
X187304761Y-116190476D01*
X188733333Y-115523809D01*
X187304761Y-114857142D01*
X189304761Y-114857142D01*
X189304761Y-113619047D02*
X189209523Y-113809523D01*
X189114285Y-113904761D01*
X188923809Y-114000000D01*
X188352380Y-114000000D01*
X188161904Y-113904761D01*
X188066666Y-113809523D01*
X187971428Y-113619047D01*
X187971428Y-113333333D01*
X188066666Y-113142857D01*
X188161904Y-113047619D01*
X188352380Y-112952380D01*
X188923809Y-112952380D01*
X189114285Y-113047619D01*
X189209523Y-113142857D01*
X189304761Y-113333333D01*
X189304761Y-113619047D01*
X189304761Y-111238095D02*
X187304761Y-111238095D01*
X189209523Y-111238095D02*
X189304761Y-111428571D01*
X189304761Y-111809523D01*
X189209523Y-112000000D01*
X189114285Y-112095238D01*
X188923809Y-112190476D01*
X188352380Y-112190476D01*
X188161904Y-112095238D01*
X188066666Y-112000000D01*
X187971428Y-111809523D01*
X187971428Y-111428571D01*
X188066666Y-111238095D01*
X187971428Y-109428571D02*
X189304761Y-109428571D01*
X187971428Y-110285714D02*
X189019047Y-110285714D01*
X189209523Y-110190476D01*
X189304761Y-110000000D01*
X189304761Y-109714285D01*
X189209523Y-109523809D01*
X189114285Y-109428571D01*
X189304761Y-108190476D02*
X189209523Y-108380952D01*
X189019047Y-108476190D01*
X187304761Y-108476190D01*
X189209523Y-106666666D02*
X189304761Y-106857142D01*
X189304761Y-107238095D01*
X189209523Y-107428571D01*
X189019047Y-107523809D01*
X188257142Y-107523809D01*
X188066666Y-107428571D01*
X187971428Y-107238095D01*
X187971428Y-106857142D01*
X188066666Y-106666666D01*
X188257142Y-106571428D01*
X188447619Y-106571428D01*
X188638095Y-107523809D01*
X192504761Y-132714285D02*
X191552380Y-133380952D01*
X192504761Y-133857142D02*
X190504761Y-133857142D01*
X190504761Y-133095238D01*
X190600000Y-132904761D01*
X190695238Y-132809523D01*
X190885714Y-132714285D01*
X191171428Y-132714285D01*
X191361904Y-132809523D01*
X191457142Y-132904761D01*
X191552380Y-133095238D01*
X191552380Y-133857142D01*
X192409523Y-131095238D02*
X192504761Y-131285714D01*
X192504761Y-131666666D01*
X192409523Y-131857142D01*
X192219047Y-131952380D01*
X191457142Y-131952380D01*
X191266666Y-131857142D01*
X191171428Y-131666666D01*
X191171428Y-131285714D01*
X191266666Y-131095238D01*
X191457142Y-131000000D01*
X191647619Y-131000000D01*
X191838095Y-131952380D01*
X191171428Y-130333333D02*
X192504761Y-129857142D01*
X191171428Y-129380952D01*
X192504761Y-128619047D02*
X191171428Y-128619047D01*
X190504761Y-128619047D02*
X190600000Y-128714285D01*
X190695238Y-128619047D01*
X190600000Y-128523809D01*
X190504761Y-128619047D01*
X190695238Y-128619047D01*
X192409523Y-127761904D02*
X192504761Y-127571428D01*
X192504761Y-127190476D01*
X192409523Y-127000000D01*
X192219047Y-126904761D01*
X192123809Y-126904761D01*
X191933333Y-127000000D01*
X191838095Y-127190476D01*
X191838095Y-127476190D01*
X191742857Y-127666666D01*
X191552380Y-127761904D01*
X191457142Y-127761904D01*
X191266666Y-127666666D01*
X191171428Y-127476190D01*
X191171428Y-127190476D01*
X191266666Y-127000000D01*
X192504761Y-126047619D02*
X191171428Y-126047619D01*
X190504761Y-126047619D02*
X190600000Y-126142857D01*
X190695238Y-126047619D01*
X190600000Y-125952380D01*
X190504761Y-126047619D01*
X190695238Y-126047619D01*
X192504761Y-124809523D02*
X192409523Y-125000000D01*
X192314285Y-125095238D01*
X192123809Y-125190476D01*
X191552380Y-125190476D01*
X191361904Y-125095238D01*
X191266666Y-125000000D01*
X191171428Y-124809523D01*
X191171428Y-124523809D01*
X191266666Y-124333333D01*
X191361904Y-124238095D01*
X191552380Y-124142857D01*
X192123809Y-124142857D01*
X192314285Y-124238095D01*
X192409523Y-124333333D01*
X192504761Y-124523809D01*
X192504761Y-124809523D01*
X191171428Y-123285714D02*
X192504761Y-123285714D01*
X191361904Y-123285714D02*
X191266666Y-123190476D01*
X191171428Y-123000000D01*
X191171428Y-122714285D01*
X191266666Y-122523809D01*
X191457142Y-122428571D01*
X192504761Y-122428571D01*
X192504761Y-118904761D02*
X192504761Y-120047619D01*
X192504761Y-119476190D02*
X190504761Y-119476190D01*
X190790476Y-119666666D01*
X190980952Y-119857142D01*
X191076190Y-120047619D01*
X192314285Y-118047619D02*
X192409523Y-117952380D01*
X192504761Y-118047619D01*
X192409523Y-118142857D01*
X192314285Y-118047619D01*
X192504761Y-118047619D01*
X190504761Y-116714285D02*
X190504761Y-116523809D01*
X190600000Y-116333333D01*
X190695238Y-116238095D01*
X190885714Y-116142857D01*
X191266666Y-116047619D01*
X191742857Y-116047619D01*
X192123809Y-116142857D01*
X192314285Y-116238095D01*
X192409523Y-116333333D01*
X192504761Y-116523809D01*
X192504761Y-116714285D01*
X192409523Y-116904761D01*
X192314285Y-117000000D01*
X192123809Y-117095238D01*
X191742857Y-117190476D01*
X191266666Y-117190476D01*
X190885714Y-117095238D01*
X190695238Y-117000000D01*
X190600000Y-116904761D01*
X190504761Y-116714285D01*
X195704761Y-135761904D02*
X193704761Y-135761904D01*
X194466666Y-135761904D02*
X194371428Y-135571428D01*
X194371428Y-135190476D01*
X194466666Y-135000000D01*
X194561904Y-134904761D01*
X194752380Y-134809523D01*
X195323809Y-134809523D01*
X195514285Y-134904761D01*
X195609523Y-135000000D01*
X195704761Y-135190476D01*
X195704761Y-135571428D01*
X195609523Y-135761904D01*
X194371428Y-134142857D02*
X195704761Y-133666666D01*
X194371428Y-133190476D02*
X195704761Y-133666666D01*
X196180952Y-133857142D01*
X196276190Y-133952380D01*
X196371428Y-134142857D01*
X195704761Y-129761904D02*
X194752380Y-130428571D01*
X195704761Y-130904761D02*
X193704761Y-130904761D01*
X193704761Y-130142857D01*
X193800000Y-129952380D01*
X193895238Y-129857142D01*
X194085714Y-129761904D01*
X194371428Y-129761904D01*
X194561904Y-129857142D01*
X194657142Y-129952380D01*
X194752380Y-130142857D01*
X194752380Y-130904761D01*
X195704761Y-128619047D02*
X195609523Y-128809523D01*
X195514285Y-128904761D01*
X195323809Y-129000000D01*
X194752380Y-129000000D01*
X194561904Y-128904761D01*
X194466666Y-128809523D01*
X194371428Y-128619047D01*
X194371428Y-128333333D01*
X194466666Y-128142857D01*
X194561904Y-128047619D01*
X194752380Y-127952380D01*
X195323809Y-127952380D01*
X195514285Y-128047619D01*
X195609523Y-128142857D01*
X195704761Y-128333333D01*
X195704761Y-128619047D01*
X194371428Y-127285714D02*
X195704761Y-126809523D01*
X194371428Y-126333333D02*
X195704761Y-126809523D01*
X196180952Y-127000000D01*
X196276190Y-127095238D01*
X196371428Y-127285714D01*
X195609523Y-124714285D02*
X195704761Y-124904761D01*
X195704761Y-125285714D01*
X195609523Y-125476190D01*
X195514285Y-125571428D01*
X195323809Y-125666666D01*
X194752380Y-125666666D01*
X194561904Y-125571428D01*
X194466666Y-125476190D01*
X194371428Y-125285714D01*
X194371428Y-124904761D01*
X194466666Y-124714285D01*
X195609523Y-123095238D02*
X195704761Y-123285714D01*
X195704761Y-123666666D01*
X195609523Y-123857142D01*
X195419047Y-123952380D01*
X194657142Y-123952380D01*
X194466666Y-123857142D01*
X194371428Y-123666666D01*
X194371428Y-123285714D01*
X194466666Y-123095238D01*
X194657142Y-123000000D01*
X194847619Y-123000000D01*
X195038095Y-123952380D01*
X195704761Y-120619047D02*
X193704761Y-120619047D01*
X193704761Y-119857142D01*
X193800000Y-119666666D01*
X193895238Y-119571428D01*
X194085714Y-119476190D01*
X194371428Y-119476190D01*
X194561904Y-119571428D01*
X194657142Y-119666666D01*
X194752380Y-119857142D01*
X194752380Y-120619047D01*
X195704761Y-118333333D02*
X195609523Y-118523809D01*
X195514285Y-118619047D01*
X195323809Y-118714285D01*
X194752380Y-118714285D01*
X194561904Y-118619047D01*
X194466666Y-118523809D01*
X194371428Y-118333333D01*
X194371428Y-118047619D01*
X194466666Y-117857142D01*
X194561904Y-117761904D01*
X194752380Y-117666666D01*
X195323809Y-117666666D01*
X195514285Y-117761904D01*
X195609523Y-117857142D01*
X195704761Y-118047619D01*
X195704761Y-118333333D01*
X194371428Y-116809523D02*
X196371428Y-116809523D01*
X194466666Y-116809523D02*
X194371428Y-116619047D01*
X194371428Y-116238095D01*
X194466666Y-116047619D01*
X194561904Y-115952380D01*
X194752380Y-115857142D01*
X195323809Y-115857142D01*
X195514285Y-115952380D01*
X195609523Y-116047619D01*
X195704761Y-116238095D01*
X195704761Y-116619047D01*
X195609523Y-116809523D01*
X195609523Y-114238095D02*
X195704761Y-114428571D01*
X195704761Y-114809523D01*
X195609523Y-115000000D01*
X195419047Y-115095238D01*
X194657142Y-115095238D01*
X194466666Y-115000000D01*
X194371428Y-114809523D01*
X194371428Y-114428571D01*
X194466666Y-114238095D01*
X194657142Y-114142857D01*
X194847619Y-114142857D01*
X195038095Y-115095238D01*
D10*
X111452380Y-104095238D02*
X110976190Y-104428571D01*
X111452380Y-104666666D02*
X110452380Y-104666666D01*
X110452380Y-104285714D01*
X110500000Y-104190476D01*
X110547619Y-104142857D01*
X110642857Y-104095238D01*
X110785714Y-104095238D01*
X110880952Y-104142857D01*
X110928571Y-104190476D01*
X110976190Y-104285714D01*
X110976190Y-104666666D01*
X111452380Y-103238095D02*
X110928571Y-103238095D01*
X110833333Y-103285714D01*
X110785714Y-103380952D01*
X110785714Y-103571428D01*
X110833333Y-103666666D01*
X111404761Y-103238095D02*
X111452380Y-103333333D01*
X111452380Y-103571428D01*
X111404761Y-103666666D01*
X111309523Y-103714285D01*
X111214285Y-103714285D01*
X111119047Y-103666666D01*
X111071428Y-103571428D01*
X111071428Y-103333333D01*
X111023809Y-103238095D01*
X111404761Y-102809523D02*
X111452380Y-102714285D01*
X111452380Y-102523809D01*
X111404761Y-102428571D01*
X111309523Y-102380952D01*
X111261904Y-102380952D01*
X111166666Y-102428571D01*
X111119047Y-102523809D01*
X111119047Y-102666666D01*
X111071428Y-102761904D01*
X110976190Y-102809523D01*
X110928571Y-102809523D01*
X110833333Y-102761904D01*
X110785714Y-102666666D01*
X110785714Y-102523809D01*
X110833333Y-102428571D01*
X110785714Y-101952380D02*
X111785714Y-101952380D01*
X110833333Y-101952380D02*
X110785714Y-101857142D01*
X110785714Y-101666666D01*
X110833333Y-101571428D01*
X110880952Y-101523809D01*
X110976190Y-101476190D01*
X111261904Y-101476190D01*
X111357142Y-101523809D01*
X111404761Y-101571428D01*
X111452380Y-101666666D01*
X111452380Y-101857142D01*
X111404761Y-101952380D01*
X111452380Y-101047619D02*
X110452380Y-101047619D01*
X110833333Y-101047619D02*
X110785714Y-100952380D01*
X110785714Y-100761904D01*
X110833333Y-100666666D01*
X110880952Y-100619047D01*
X110976190Y-100571428D01*
X111261904Y-100571428D01*
X111357142Y-100619047D01*
X111404761Y-100666666D01*
X111452380Y-100761904D01*
X111452380Y-100952380D01*
X111404761Y-101047619D01*
X111404761Y-99761904D02*
X111452380Y-99857142D01*
X111452380Y-100047619D01*
X111404761Y-100142857D01*
X111309523Y-100190476D01*
X110928571Y-100190476D01*
X110833333Y-100142857D01*
X110785714Y-100047619D01*
X110785714Y-99857142D01*
X110833333Y-99761904D01*
X110928571Y-99714285D01*
X111023809Y-99714285D01*
X111119047Y-100190476D01*
X111452380Y-99285714D02*
X110785714Y-99285714D01*
X110976190Y-99285714D02*
X110880952Y-99238095D01*
X110833333Y-99190476D01*
X110785714Y-99095238D01*
X110785714Y-99000000D01*
X111452380Y-98666666D02*
X110785714Y-98666666D01*
X110976190Y-98666666D02*
X110880952Y-98619047D01*
X110833333Y-98571428D01*
X110785714Y-98476190D01*
X110785714Y-98380952D01*
X110785714Y-98142857D02*
X111452380Y-97904761D01*
X110785714Y-97666666D02*
X111452380Y-97904761D01*
X111690476Y-98000000D01*
X111738095Y-98047619D01*
X111785714Y-98142857D01*
X111452380Y-97285714D02*
X110452380Y-97285714D01*
X110452380Y-96904761D01*
X110500000Y-96809523D01*
X110547619Y-96761904D01*
X110642857Y-96714285D01*
X110785714Y-96714285D01*
X110880952Y-96761904D01*
X110928571Y-96809523D01*
X110976190Y-96904761D01*
X110976190Y-97285714D01*
X111452380Y-96285714D02*
X110785714Y-96285714D01*
X110452380Y-96285714D02*
X110500000Y-96333333D01*
X110547619Y-96285714D01*
X110500000Y-96238095D01*
X110452380Y-96285714D01*
X110547619Y-96285714D01*
X110785714Y-94619047D02*
X111452380Y-94619047D01*
X110404761Y-94857142D02*
X111119047Y-95095238D01*
X111119047Y-94476190D01*
X110452380Y-93904761D02*
X110452380Y-93809523D01*
X110500000Y-93714285D01*
X110547619Y-93666666D01*
X110642857Y-93619047D01*
X110833333Y-93571428D01*
X111071428Y-93571428D01*
X111261904Y-93619047D01*
X111357142Y-93666666D01*
X111404761Y-93714285D01*
X111452380Y-93809523D01*
X111452380Y-93904761D01*
X111404761Y-94000000D01*
X111357142Y-94047619D01*
X111261904Y-94095238D01*
X111071428Y-94142857D01*
X110833333Y-94142857D01*
X110642857Y-94095238D01*
X110547619Y-94047619D01*
X110500000Y-94000000D01*
X110452380Y-93904761D01*
X110785714Y-93142857D02*
X111785714Y-93142857D01*
X110833333Y-93142857D02*
X110785714Y-93047619D01*
X110785714Y-92857142D01*
X110833333Y-92761904D01*
X110880952Y-92714285D01*
X110976190Y-92666666D01*
X111261904Y-92666666D01*
X111357142Y-92714285D01*
X111404761Y-92761904D01*
X111452380Y-92857142D01*
X111452380Y-93047619D01*
X111404761Y-93142857D01*
X111452380Y-92238095D02*
X110785714Y-92238095D01*
X110452380Y-92238095D02*
X110500000Y-92285714D01*
X110547619Y-92238095D01*
X110500000Y-92190476D01*
X110452380Y-92238095D01*
X110547619Y-92238095D01*
X110785714Y-91761904D02*
X111452380Y-91761904D01*
X110880952Y-91761904D02*
X110833333Y-91714285D01*
X110785714Y-91619047D01*
X110785714Y-91476190D01*
X110833333Y-91380952D01*
X110928571Y-91333333D01*
X111452380Y-91333333D01*
D11*
X138000000Y-52000000D02*
X138000000Y-95000000D01*
X157000000Y-52000000D02*
X138000000Y-52000000D01*
X157000000Y-95000000D02*
X157000000Y-52000000D01*
X138000000Y-95000000D02*
X157000000Y-95000000D01*
X138000000Y-144000000D02*
X138000000Y-101000000D01*
X157000000Y-144000000D02*
X138000000Y-144000000D01*
X157000000Y-101000000D02*
X157000000Y-144000000D01*
X138000000Y-101000000D02*
X157000000Y-101000000D01*
D10*
X136904761Y-135904761D02*
X134904761Y-135904761D01*
X134904761Y-135142857D01*
X135000000Y-134952380D01*
X135095238Y-134857142D01*
X135285714Y-134761904D01*
X135571428Y-134761904D01*
X135761904Y-134857142D01*
X135857142Y-134952380D01*
X135952380Y-135142857D01*
X135952380Y-135904761D01*
X136904761Y-133619047D02*
X136809523Y-133809523D01*
X136619047Y-133904761D01*
X134904761Y-133904761D01*
X136904761Y-132000000D02*
X135857142Y-132000000D01*
X135666666Y-132095238D01*
X135571428Y-132285714D01*
X135571428Y-132666666D01*
X135666666Y-132857142D01*
X136809523Y-132000000D02*
X136904761Y-132190476D01*
X136904761Y-132666666D01*
X136809523Y-132857142D01*
X136619047Y-132952380D01*
X136428571Y-132952380D01*
X136238095Y-132857142D01*
X136142857Y-132666666D01*
X136142857Y-132190476D01*
X136047619Y-132000000D01*
X135571428Y-131238095D02*
X136904761Y-130761904D01*
X135571428Y-130285714D02*
X136904761Y-130761904D01*
X137380952Y-130952380D01*
X137476190Y-131047619D01*
X137571428Y-131238095D01*
X136809523Y-128761904D02*
X136904761Y-128952380D01*
X136904761Y-129333333D01*
X136809523Y-129523809D01*
X136619047Y-129619047D01*
X135857142Y-129619047D01*
X135666666Y-129523809D01*
X135571428Y-129333333D01*
X135571428Y-128952380D01*
X135666666Y-128761904D01*
X135857142Y-128666666D01*
X136047619Y-128666666D01*
X136238095Y-129619047D01*
X136904761Y-127809523D02*
X135571428Y-127809523D01*
X135952380Y-127809523D02*
X135761904Y-127714285D01*
X135666666Y-127619047D01*
X135571428Y-127428571D01*
X135571428Y-127238095D01*
X135095238Y-125142857D02*
X135000000Y-125047619D01*
X134904761Y-124857142D01*
X134904761Y-124380952D01*
X135000000Y-124190476D01*
X135095238Y-124095238D01*
X135285714Y-124000000D01*
X135476190Y-124000000D01*
X135761904Y-124095238D01*
X136904761Y-125238095D01*
X136904761Y-124000000D01*
X136714285Y-120476190D02*
X136809523Y-120571428D01*
X136904761Y-120857142D01*
X136904761Y-121047619D01*
X136809523Y-121333333D01*
X136619047Y-121523809D01*
X136428571Y-121619047D01*
X136047619Y-121714285D01*
X135761904Y-121714285D01*
X135380952Y-121619047D01*
X135190476Y-121523809D01*
X135000000Y-121333333D01*
X134904761Y-121047619D01*
X134904761Y-120857142D01*
X135000000Y-120571428D01*
X135095238Y-120476190D01*
X136904761Y-119333333D02*
X136809523Y-119523809D01*
X136714285Y-119619047D01*
X136523809Y-119714285D01*
X135952380Y-119714285D01*
X135761904Y-119619047D01*
X135666666Y-119523809D01*
X135571428Y-119333333D01*
X135571428Y-119047619D01*
X135666666Y-118857142D01*
X135761904Y-118761904D01*
X135952380Y-118666666D01*
X136523809Y-118666666D01*
X136714285Y-118761904D01*
X136809523Y-118857142D01*
X136904761Y-119047619D01*
X136904761Y-119333333D01*
X135571428Y-117809523D02*
X136904761Y-117809523D01*
X135761904Y-117809523D02*
X135666666Y-117714285D01*
X135571428Y-117523809D01*
X135571428Y-117238095D01*
X135666666Y-117047619D01*
X135857142Y-116952380D01*
X136904761Y-116952380D01*
X135571428Y-116285714D02*
X135571428Y-115523809D01*
X134904761Y-116000000D02*
X136619047Y-116000000D01*
X136809523Y-115904761D01*
X136904761Y-115714285D01*
X136904761Y-115523809D01*
X136904761Y-114857142D02*
X135571428Y-114857142D01*
X135952380Y-114857142D02*
X135761904Y-114761904D01*
X135666666Y-114666666D01*
X135571428Y-114476190D01*
X135571428Y-114285714D01*
X136904761Y-113333333D02*
X136809523Y-113523809D01*
X136714285Y-113619047D01*
X136523809Y-113714285D01*
X135952380Y-113714285D01*
X135761904Y-113619047D01*
X135666666Y-113523809D01*
X135571428Y-113333333D01*
X135571428Y-113047619D01*
X135666666Y-112857142D01*
X135761904Y-112761904D01*
X135952380Y-112666666D01*
X136523809Y-112666666D01*
X136714285Y-112761904D01*
X136809523Y-112857142D01*
X136904761Y-113047619D01*
X136904761Y-113333333D01*
X136904761Y-111523809D02*
X136809523Y-111714285D01*
X136619047Y-111809523D01*
X134904761Y-111809523D01*
X136809523Y-110857142D02*
X136904761Y-110666666D01*
X136904761Y-110285714D01*
X136809523Y-110095238D01*
X136619047Y-110000000D01*
X136523809Y-110000000D01*
X136333333Y-110095238D01*
X136238095Y-110285714D01*
X136238095Y-110571428D01*
X136142857Y-110761904D01*
X135952380Y-110857142D01*
X135857142Y-110857142D01*
X135666666Y-110761904D01*
X135571428Y-110571428D01*
X135571428Y-110285714D01*
X135666666Y-110095238D01*
X136904761Y-84904761D02*
X134904761Y-84904761D01*
X134904761Y-84142857D01*
X135000000Y-83952380D01*
X135095238Y-83857142D01*
X135285714Y-83761904D01*
X135571428Y-83761904D01*
X135761904Y-83857142D01*
X135857142Y-83952380D01*
X135952380Y-84142857D01*
X135952380Y-84904761D01*
X136904761Y-82619047D02*
X136809523Y-82809523D01*
X136619047Y-82904761D01*
X134904761Y-82904761D01*
X136904761Y-81000000D02*
X135857142Y-81000000D01*
X135666666Y-81095238D01*
X135571428Y-81285714D01*
X135571428Y-81666666D01*
X135666666Y-81857142D01*
X136809523Y-81000000D02*
X136904761Y-81190476D01*
X136904761Y-81666666D01*
X136809523Y-81857142D01*
X136619047Y-81952380D01*
X136428571Y-81952380D01*
X136238095Y-81857142D01*
X136142857Y-81666666D01*
X136142857Y-81190476D01*
X136047619Y-81000000D01*
X135571428Y-80238095D02*
X136904761Y-79761904D01*
X135571428Y-79285714D02*
X136904761Y-79761904D01*
X137380952Y-79952380D01*
X137476190Y-80047619D01*
X137571428Y-80238095D01*
X136809523Y-77761904D02*
X136904761Y-77952380D01*
X136904761Y-78333333D01*
X136809523Y-78523809D01*
X136619047Y-78619047D01*
X135857142Y-78619047D01*
X135666666Y-78523809D01*
X135571428Y-78333333D01*
X135571428Y-77952380D01*
X135666666Y-77761904D01*
X135857142Y-77666666D01*
X136047619Y-77666666D01*
X136238095Y-78619047D01*
X136904761Y-76809523D02*
X135571428Y-76809523D01*
X135952380Y-76809523D02*
X135761904Y-76714285D01*
X135666666Y-76619047D01*
X135571428Y-76428571D01*
X135571428Y-76238095D01*
X136904761Y-73000000D02*
X136904761Y-74142857D01*
X136904761Y-73571428D02*
X134904761Y-73571428D01*
X135190476Y-73761904D01*
X135380952Y-73952380D01*
X135476190Y-74142857D01*
X136714285Y-69476190D02*
X136809523Y-69571428D01*
X136904761Y-69857142D01*
X136904761Y-70047619D01*
X136809523Y-70333333D01*
X136619047Y-70523809D01*
X136428571Y-70619047D01*
X136047619Y-70714285D01*
X135761904Y-70714285D01*
X135380952Y-70619047D01*
X135190476Y-70523809D01*
X135000000Y-70333333D01*
X134904761Y-70047619D01*
X134904761Y-69857142D01*
X135000000Y-69571428D01*
X135095238Y-69476190D01*
X136904761Y-68333333D02*
X136809523Y-68523809D01*
X136714285Y-68619047D01*
X136523809Y-68714285D01*
X135952380Y-68714285D01*
X135761904Y-68619047D01*
X135666666Y-68523809D01*
X135571428Y-68333333D01*
X135571428Y-68047619D01*
X135666666Y-67857142D01*
X135761904Y-67761904D01*
X135952380Y-67666666D01*
X136523809Y-67666666D01*
X136714285Y-67761904D01*
X136809523Y-67857142D01*
X136904761Y-68047619D01*
X136904761Y-68333333D01*
X135571428Y-66809523D02*
X136904761Y-66809523D01*
X135761904Y-66809523D02*
X135666666Y-66714285D01*
X135571428Y-66523809D01*
X135571428Y-66238095D01*
X135666666Y-66047619D01*
X135857142Y-65952380D01*
X136904761Y-65952380D01*
X135571428Y-65285714D02*
X135571428Y-64523809D01*
X134904761Y-65000000D02*
X136619047Y-65000000D01*
X136809523Y-64904761D01*
X136904761Y-64714285D01*
X136904761Y-64523809D01*
X136904761Y-63857142D02*
X135571428Y-63857142D01*
X135952380Y-63857142D02*
X135761904Y-63761904D01*
X135666666Y-63666666D01*
X135571428Y-63476190D01*
X135571428Y-63285714D01*
X136904761Y-62333333D02*
X136809523Y-62523809D01*
X136714285Y-62619047D01*
X136523809Y-62714285D01*
X135952380Y-62714285D01*
X135761904Y-62619047D01*
X135666666Y-62523809D01*
X135571428Y-62333333D01*
X135571428Y-62047619D01*
X135666666Y-61857142D01*
X135761904Y-61761904D01*
X135952380Y-61666666D01*
X136523809Y-61666666D01*
X136714285Y-61761904D01*
X136809523Y-61857142D01*
X136904761Y-62047619D01*
X136904761Y-62333333D01*
X136904761Y-60523809D02*
X136809523Y-60714285D01*
X136619047Y-60809523D01*
X134904761Y-60809523D01*
X136809523Y-59857142D02*
X136904761Y-59666666D01*
X136904761Y-59285714D01*
X136809523Y-59095238D01*
X136619047Y-59000000D01*
X136523809Y-59000000D01*
X136333333Y-59095238D01*
X136238095Y-59285714D01*
X136238095Y-59571428D01*
X136142857Y-59761904D01*
X135952380Y-59857142D01*
X135857142Y-59857142D01*
X135666666Y-59761904D01*
X135571428Y-59571428D01*
X135571428Y-59285714D01*
X135666666Y-59095238D01*
D13*
%TO.C,REF\u002A\u002A*%
G36*
X182974541Y-81847446D02*
G01*
X182974613Y-81321244D01*
X182974623Y-81076303D01*
X182974623Y-77155699D01*
X183205734Y-77155699D01*
X183486976Y-77131032D01*
X183746359Y-77056584D01*
X183985424Y-76931686D01*
X184205714Y-76755670D01*
X184265210Y-76696118D01*
X184433971Y-76481895D01*
X184557052Y-76245690D01*
X184634510Y-75994517D01*
X184666399Y-75735393D01*
X184652776Y-75475333D01*
X184593697Y-75221353D01*
X184489217Y-74980469D01*
X184339393Y-74759696D01*
X184249001Y-74660543D01*
X184027376Y-74475773D01*
X183783661Y-74340284D01*
X183520643Y-74255256D01*
X183241106Y-74221872D01*
X183213606Y-74221428D01*
X182974632Y-74219678D01*
X182974628Y-74114645D01*
X182987273Y-74021470D01*
X183018040Y-73936356D01*
X183021219Y-73930731D01*
X183031194Y-73911508D01*
X183038962Y-73893855D01*
X183046787Y-73877708D01*
X183056930Y-73863005D01*
X183071655Y-73849681D01*
X183093225Y-73837672D01*
X183123901Y-73826915D01*
X183165947Y-73817346D01*
X183221626Y-73808901D01*
X183293199Y-73801516D01*
X183382930Y-73795127D01*
X183493082Y-73789671D01*
X183625916Y-73785084D01*
X183783696Y-73781302D01*
X183968684Y-73778260D01*
X184183144Y-73775897D01*
X184429337Y-73774147D01*
X184709527Y-73772947D01*
X185025975Y-73772232D01*
X185380946Y-73771940D01*
X185776700Y-73772007D01*
X186215502Y-73772368D01*
X186699614Y-73772960D01*
X187231298Y-73773719D01*
X187812817Y-73774581D01*
X188446433Y-73775482D01*
X188523629Y-73775587D01*
X189161287Y-73776395D01*
X189746582Y-73777081D01*
X190281778Y-73777717D01*
X190769136Y-73778376D01*
X191210917Y-73779131D01*
X191609382Y-73780053D01*
X191966795Y-73781216D01*
X192285415Y-73782693D01*
X192567506Y-73784555D01*
X192815328Y-73786876D01*
X193031143Y-73789729D01*
X193217213Y-73793185D01*
X193375800Y-73797318D01*
X193509164Y-73802200D01*
X193619569Y-73807904D01*
X193709275Y-73814502D01*
X193780544Y-73822068D01*
X193835638Y-73830673D01*
X193876818Y-73840390D01*
X193906346Y-73851293D01*
X193926484Y-73863453D01*
X193939493Y-73876943D01*
X193947636Y-73891837D01*
X193953173Y-73908206D01*
X193958366Y-73926123D01*
X193965477Y-73945661D01*
X193967642Y-73950434D01*
X193972506Y-73965434D01*
X193976976Y-73990541D01*
X193981066Y-74027946D01*
X193984793Y-74079842D01*
X193988173Y-74148420D01*
X193991221Y-74235873D01*
X193993954Y-74344394D01*
X193996387Y-74476174D01*
X193998537Y-74633406D01*
X194000419Y-74818281D01*
X194002049Y-75032993D01*
X194003443Y-75279734D01*
X194004617Y-75560694D01*
X194005587Y-75878068D01*
X194006369Y-76234047D01*
X194006979Y-76630822D01*
X194007432Y-77070588D01*
X194007745Y-77555535D01*
X194007934Y-78087856D01*
X194008013Y-78669743D01*
X194008000Y-79303389D01*
X194007980Y-79508644D01*
X194007876Y-80156347D01*
X194007706Y-80751644D01*
X194007453Y-81296755D01*
X194007098Y-81793897D01*
X194006626Y-82245290D01*
X194006018Y-82653151D01*
X194005258Y-83019700D01*
X194004327Y-83347154D01*
X194003209Y-83637732D01*
X194001886Y-83893652D01*
X194000341Y-84117133D01*
X193998557Y-84310394D01*
X193996516Y-84475652D01*
X193994201Y-84615127D01*
X193991594Y-84731037D01*
X193988678Y-84825600D01*
X193985436Y-84901034D01*
X193981851Y-84959558D01*
X193977905Y-85003391D01*
X193973581Y-85034752D01*
X193968862Y-85055857D01*
X193964540Y-85067363D01*
X193955916Y-85087812D01*
X193949557Y-85106587D01*
X193943203Y-85123760D01*
X193934597Y-85139402D01*
X193921480Y-85153584D01*
X193901594Y-85166377D01*
X193872679Y-85177852D01*
X193832479Y-85188080D01*
X193778733Y-85197133D01*
X193709185Y-85205080D01*
X193621574Y-85211994D01*
X193513644Y-85217945D01*
X193383135Y-85223005D01*
X193227789Y-85227245D01*
X193045348Y-85230735D01*
X192833553Y-85233547D01*
X192752258Y-85234283D01*
X192752258Y-84505361D01*
X192752258Y-81928987D01*
X192677150Y-81978561D01*
X192599968Y-82027878D01*
X192526469Y-82069640D01*
X192451512Y-82104441D01*
X192369953Y-82132877D01*
X192276648Y-82155540D01*
X192166453Y-82173025D01*
X192034225Y-82185926D01*
X191874820Y-82194837D01*
X191683095Y-82200352D01*
X191453907Y-82203064D01*
X191182112Y-82203569D01*
X190862566Y-82202459D01*
X190743932Y-82201830D01*
X189472123Y-82194732D01*
X190569010Y-81389033D01*
X190880183Y-81160779D01*
X191151143Y-80963025D01*
X191385478Y-80793635D01*
X191586780Y-80650473D01*
X191758637Y-80531405D01*
X191904640Y-80434295D01*
X192028378Y-80357007D01*
X192133441Y-80297407D01*
X192223420Y-80253359D01*
X192301903Y-80222728D01*
X192372480Y-80203378D01*
X192438742Y-80193175D01*
X192504277Y-80189983D01*
X192572677Y-80191667D01*
X192581274Y-80192097D01*
X192752372Y-80200968D01*
X192752315Y-78789236D01*
X192752258Y-77377505D01*
X192540500Y-77587516D01*
X192482582Y-77644504D01*
X192426225Y-77698566D01*
X192368322Y-77752076D01*
X192305764Y-77807404D01*
X192235443Y-77866925D01*
X192154251Y-77933011D01*
X192059081Y-78008034D01*
X191946823Y-78094367D01*
X191814370Y-78194383D01*
X191658614Y-78310454D01*
X191476446Y-78444952D01*
X191264760Y-78600251D01*
X191020446Y-78778722D01*
X190740397Y-78982740D01*
X190421504Y-79214675D01*
X190159920Y-79404782D01*
X189831292Y-79643372D01*
X189543957Y-79851508D01*
X189295187Y-80031075D01*
X189082254Y-80183957D01*
X188902430Y-80312041D01*
X188752986Y-80417212D01*
X188631196Y-80501355D01*
X188534331Y-80566357D01*
X188459662Y-80614103D01*
X188404463Y-80646477D01*
X188366004Y-80665366D01*
X188341559Y-80672655D01*
X188328706Y-80670464D01*
X188294504Y-80643913D01*
X188222108Y-80586508D01*
X188115820Y-80501713D01*
X187979945Y-80392992D01*
X187818784Y-80263808D01*
X187636643Y-80117626D01*
X187437822Y-79957909D01*
X187226627Y-79788121D01*
X187007359Y-79611726D01*
X186784323Y-79432187D01*
X186661720Y-79333435D01*
X186661720Y-76881548D01*
X187030430Y-76677742D01*
X192383548Y-76677742D01*
X192752258Y-76881548D01*
X192752258Y-75676111D01*
X192752174Y-75388341D01*
X192751797Y-75150647D01*
X192750935Y-74958482D01*
X192749400Y-74807298D01*
X192747000Y-74692548D01*
X192743546Y-74609685D01*
X192738849Y-74554162D01*
X192732717Y-74521430D01*
X192724961Y-74506943D01*
X192715391Y-74506153D01*
X192703817Y-74514513D01*
X192703721Y-74514599D01*
X192653907Y-74549036D01*
X192572910Y-74594637D01*
X192492055Y-74634908D01*
X192328925Y-74711291D01*
X189495322Y-74719081D01*
X186661720Y-74726871D01*
X186661720Y-76881548D01*
X186661720Y-79333435D01*
X186561821Y-79252969D01*
X186344157Y-79077536D01*
X186135633Y-78909350D01*
X185940554Y-78751877D01*
X185763221Y-78608579D01*
X185607939Y-78482921D01*
X185479010Y-78378366D01*
X185380738Y-78298379D01*
X185323441Y-78251398D01*
X185109180Y-78068963D01*
X184915830Y-77893452D01*
X184749720Y-77731016D01*
X184617180Y-77587805D01*
X184535921Y-77486171D01*
X184449462Y-77365998D01*
X184449462Y-80129840D01*
X184611646Y-80129064D01*
X184730883Y-80136788D01*
X184841426Y-80165828D01*
X184946216Y-80210782D01*
X185005416Y-80240004D01*
X185064074Y-80271423D01*
X185126086Y-80307909D01*
X185195345Y-80352331D01*
X185275746Y-80407561D01*
X185371181Y-80476469D01*
X185485547Y-80561923D01*
X185622735Y-80666796D01*
X185786642Y-80793955D01*
X185981160Y-80946273D01*
X186210185Y-81126618D01*
X186477609Y-81337862D01*
X186507783Y-81361721D01*
X187561195Y-82194732D01*
X186394522Y-82202796D01*
X186045069Y-82204420D01*
X185749230Y-82204074D01*
X185506030Y-82201742D01*
X185314493Y-82197407D01*
X185173644Y-82191051D01*
X185082508Y-82182659D01*
X185065220Y-82179838D01*
X184883117Y-82135584D01*
X184718950Y-82077602D01*
X184586954Y-82011437D01*
X184530972Y-81971687D01*
X184449462Y-81903102D01*
X184449462Y-83204453D01*
X184449728Y-83514885D01*
X184450591Y-83774477D01*
X184452154Y-83987014D01*
X184454517Y-84156276D01*
X184457780Y-84286048D01*
X184462045Y-84380111D01*
X184467413Y-84442248D01*
X184473983Y-84476241D01*
X184481858Y-84485874D01*
X184483602Y-84485208D01*
X184525243Y-84457620D01*
X184591248Y-84411564D01*
X184624631Y-84387735D01*
X184657944Y-84363099D01*
X184687734Y-84340955D01*
X184716933Y-84321164D01*
X184748474Y-84303586D01*
X184785286Y-84288081D01*
X184830303Y-84274511D01*
X184886455Y-84262736D01*
X184956675Y-84252616D01*
X185043894Y-84244013D01*
X185151043Y-84236786D01*
X185281055Y-84230796D01*
X185436861Y-84225904D01*
X185621393Y-84221971D01*
X185837581Y-84218857D01*
X186088359Y-84216422D01*
X186376658Y-84214527D01*
X186705409Y-84213033D01*
X187077543Y-84211801D01*
X187495994Y-84210690D01*
X187963691Y-84209562D01*
X188393354Y-84208508D01*
X188872353Y-84207512D01*
X189329362Y-84206994D01*
X189761464Y-84206941D01*
X190165738Y-84207338D01*
X190539265Y-84208172D01*
X190879127Y-84209429D01*
X191182404Y-84211094D01*
X191446177Y-84213156D01*
X191667527Y-84215599D01*
X191843535Y-84218410D01*
X191971283Y-84221576D01*
X192047849Y-84225082D01*
X192055941Y-84225745D01*
X192241568Y-84249905D01*
X192390647Y-84287624D01*
X192520750Y-84345064D01*
X192649452Y-84428389D01*
X192663494Y-84438811D01*
X192752258Y-84505361D01*
X192752258Y-85234283D01*
X192590145Y-85235752D01*
X192312867Y-85237421D01*
X191999459Y-85238625D01*
X191647664Y-85239435D01*
X191255223Y-85239922D01*
X190819877Y-85240156D01*
X190339368Y-85240211D01*
X189811438Y-85240156D01*
X189233828Y-85240062D01*
X188604279Y-85240002D01*
X188479301Y-85240000D01*
X187843122Y-85239965D01*
X187259325Y-85239847D01*
X186725668Y-85239628D01*
X186239909Y-85239292D01*
X185799805Y-85238822D01*
X185403116Y-85238198D01*
X185047599Y-85237406D01*
X184731012Y-85236426D01*
X184451113Y-85235242D01*
X184205661Y-85233836D01*
X183992413Y-85232190D01*
X183809128Y-85230288D01*
X183653564Y-85228113D01*
X183523478Y-85225645D01*
X183416629Y-85222869D01*
X183330775Y-85219767D01*
X183263674Y-85216321D01*
X183213084Y-85212515D01*
X183176764Y-85208330D01*
X183152470Y-85203749D01*
X183137962Y-85198755D01*
X183137600Y-85198570D01*
X183115437Y-85188285D01*
X183095372Y-85179718D01*
X183077301Y-85170241D01*
X183061121Y-85157226D01*
X183046726Y-85138043D01*
X183034014Y-85110065D01*
X183022880Y-85070663D01*
X183013221Y-85017208D01*
X183004932Y-84947071D01*
X182997910Y-84857624D01*
X182992050Y-84746238D01*
X182987250Y-84610284D01*
X182983404Y-84447135D01*
X182980409Y-84254161D01*
X182978161Y-84028733D01*
X182976556Y-83768224D01*
X182975491Y-83470004D01*
X182974860Y-83131445D01*
X182974561Y-82749918D01*
X182974490Y-82322794D01*
X182974541Y-81847446D01*
G37*
X182974541Y-81847446D02*
X182974613Y-81321244D01*
X182974623Y-81076303D01*
X182974623Y-77155699D01*
X183205734Y-77155699D01*
X183486976Y-77131032D01*
X183746359Y-77056584D01*
X183985424Y-76931686D01*
X184205714Y-76755670D01*
X184265210Y-76696118D01*
X184433971Y-76481895D01*
X184557052Y-76245690D01*
X184634510Y-75994517D01*
X184666399Y-75735393D01*
X184652776Y-75475333D01*
X184593697Y-75221353D01*
X184489217Y-74980469D01*
X184339393Y-74759696D01*
X184249001Y-74660543D01*
X184027376Y-74475773D01*
X183783661Y-74340284D01*
X183520643Y-74255256D01*
X183241106Y-74221872D01*
X183213606Y-74221428D01*
X182974632Y-74219678D01*
X182974628Y-74114645D01*
X182987273Y-74021470D01*
X183018040Y-73936356D01*
X183021219Y-73930731D01*
X183031194Y-73911508D01*
X183038962Y-73893855D01*
X183046787Y-73877708D01*
X183056930Y-73863005D01*
X183071655Y-73849681D01*
X183093225Y-73837672D01*
X183123901Y-73826915D01*
X183165947Y-73817346D01*
X183221626Y-73808901D01*
X183293199Y-73801516D01*
X183382930Y-73795127D01*
X183493082Y-73789671D01*
X183625916Y-73785084D01*
X183783696Y-73781302D01*
X183968684Y-73778260D01*
X184183144Y-73775897D01*
X184429337Y-73774147D01*
X184709527Y-73772947D01*
X185025975Y-73772232D01*
X185380946Y-73771940D01*
X185776700Y-73772007D01*
X186215502Y-73772368D01*
X186699614Y-73772960D01*
X187231298Y-73773719D01*
X187812817Y-73774581D01*
X188446433Y-73775482D01*
X188523629Y-73775587D01*
X189161287Y-73776395D01*
X189746582Y-73777081D01*
X190281778Y-73777717D01*
X190769136Y-73778376D01*
X191210917Y-73779131D01*
X191609382Y-73780053D01*
X191966795Y-73781216D01*
X192285415Y-73782693D01*
X192567506Y-73784555D01*
X192815328Y-73786876D01*
X193031143Y-73789729D01*
X193217213Y-73793185D01*
X193375800Y-73797318D01*
X193509164Y-73802200D01*
X193619569Y-73807904D01*
X193709275Y-73814502D01*
X193780544Y-73822068D01*
X193835638Y-73830673D01*
X193876818Y-73840390D01*
X193906346Y-73851293D01*
X193926484Y-73863453D01*
X193939493Y-73876943D01*
X193947636Y-73891837D01*
X193953173Y-73908206D01*
X193958366Y-73926123D01*
X193965477Y-73945661D01*
X193967642Y-73950434D01*
X193972506Y-73965434D01*
X193976976Y-73990541D01*
X193981066Y-74027946D01*
X193984793Y-74079842D01*
X193988173Y-74148420D01*
X193991221Y-74235873D01*
X193993954Y-74344394D01*
X193996387Y-74476174D01*
X193998537Y-74633406D01*
X194000419Y-74818281D01*
X194002049Y-75032993D01*
X194003443Y-75279734D01*
X194004617Y-75560694D01*
X194005587Y-75878068D01*
X194006369Y-76234047D01*
X194006979Y-76630822D01*
X194007432Y-77070588D01*
X194007745Y-77555535D01*
X194007934Y-78087856D01*
X194008013Y-78669743D01*
X194008000Y-79303389D01*
X194007980Y-79508644D01*
X194007876Y-80156347D01*
X194007706Y-80751644D01*
X194007453Y-81296755D01*
X194007098Y-81793897D01*
X194006626Y-82245290D01*
X194006018Y-82653151D01*
X194005258Y-83019700D01*
X194004327Y-83347154D01*
X194003209Y-83637732D01*
X194001886Y-83893652D01*
X194000341Y-84117133D01*
X193998557Y-84310394D01*
X193996516Y-84475652D01*
X193994201Y-84615127D01*
X193991594Y-84731037D01*
X193988678Y-84825600D01*
X193985436Y-84901034D01*
X193981851Y-84959558D01*
X193977905Y-85003391D01*
X193973581Y-85034752D01*
X193968862Y-85055857D01*
X193964540Y-85067363D01*
X193955916Y-85087812D01*
X193949557Y-85106587D01*
X193943203Y-85123760D01*
X193934597Y-85139402D01*
X193921480Y-85153584D01*
X193901594Y-85166377D01*
X193872679Y-85177852D01*
X193832479Y-85188080D01*
X193778733Y-85197133D01*
X193709185Y-85205080D01*
X193621574Y-85211994D01*
X193513644Y-85217945D01*
X193383135Y-85223005D01*
X193227789Y-85227245D01*
X193045348Y-85230735D01*
X192833553Y-85233547D01*
X192752258Y-85234283D01*
X192752258Y-84505361D01*
X192752258Y-81928987D01*
X192677150Y-81978561D01*
X192599968Y-82027878D01*
X192526469Y-82069640D01*
X192451512Y-82104441D01*
X192369953Y-82132877D01*
X192276648Y-82155540D01*
X192166453Y-82173025D01*
X192034225Y-82185926D01*
X191874820Y-82194837D01*
X191683095Y-82200352D01*
X191453907Y-82203064D01*
X191182112Y-82203569D01*
X190862566Y-82202459D01*
X190743932Y-82201830D01*
X189472123Y-82194732D01*
X190569010Y-81389033D01*
X190880183Y-81160779D01*
X191151143Y-80963025D01*
X191385478Y-80793635D01*
X191586780Y-80650473D01*
X191758637Y-80531405D01*
X191904640Y-80434295D01*
X192028378Y-80357007D01*
X192133441Y-80297407D01*
X192223420Y-80253359D01*
X192301903Y-80222728D01*
X192372480Y-80203378D01*
X192438742Y-80193175D01*
X192504277Y-80189983D01*
X192572677Y-80191667D01*
X192581274Y-80192097D01*
X192752372Y-80200968D01*
X192752315Y-78789236D01*
X192752258Y-77377505D01*
X192540500Y-77587516D01*
X192482582Y-77644504D01*
X192426225Y-77698566D01*
X192368322Y-77752076D01*
X192305764Y-77807404D01*
X192235443Y-77866925D01*
X192154251Y-77933011D01*
X192059081Y-78008034D01*
X191946823Y-78094367D01*
X191814370Y-78194383D01*
X191658614Y-78310454D01*
X191476446Y-78444952D01*
X191264760Y-78600251D01*
X191020446Y-78778722D01*
X190740397Y-78982740D01*
X190421504Y-79214675D01*
X190159920Y-79404782D01*
X189831292Y-79643372D01*
X189543957Y-79851508D01*
X189295187Y-80031075D01*
X189082254Y-80183957D01*
X188902430Y-80312041D01*
X188752986Y-80417212D01*
X188631196Y-80501355D01*
X188534331Y-80566357D01*
X188459662Y-80614103D01*
X188404463Y-80646477D01*
X188366004Y-80665366D01*
X188341559Y-80672655D01*
X188328706Y-80670464D01*
X188294504Y-80643913D01*
X188222108Y-80586508D01*
X188115820Y-80501713D01*
X187979945Y-80392992D01*
X187818784Y-80263808D01*
X187636643Y-80117626D01*
X187437822Y-79957909D01*
X187226627Y-79788121D01*
X187007359Y-79611726D01*
X186784323Y-79432187D01*
X186661720Y-79333435D01*
X186661720Y-76881548D01*
X187030430Y-76677742D01*
X192383548Y-76677742D01*
X192752258Y-76881548D01*
X192752258Y-75676111D01*
X192752174Y-75388341D01*
X192751797Y-75150647D01*
X192750935Y-74958482D01*
X192749400Y-74807298D01*
X192747000Y-74692548D01*
X192743546Y-74609685D01*
X192738849Y-74554162D01*
X192732717Y-74521430D01*
X192724961Y-74506943D01*
X192715391Y-74506153D01*
X192703817Y-74514513D01*
X192703721Y-74514599D01*
X192653907Y-74549036D01*
X192572910Y-74594637D01*
X192492055Y-74634908D01*
X192328925Y-74711291D01*
X189495322Y-74719081D01*
X186661720Y-74726871D01*
X186661720Y-76881548D01*
X186661720Y-79333435D01*
X186561821Y-79252969D01*
X186344157Y-79077536D01*
X186135633Y-78909350D01*
X185940554Y-78751877D01*
X185763221Y-78608579D01*
X185607939Y-78482921D01*
X185479010Y-78378366D01*
X185380738Y-78298379D01*
X185323441Y-78251398D01*
X185109180Y-78068963D01*
X184915830Y-77893452D01*
X184749720Y-77731016D01*
X184617180Y-77587805D01*
X184535921Y-77486171D01*
X184449462Y-77365998D01*
X184449462Y-80129840D01*
X184611646Y-80129064D01*
X184730883Y-80136788D01*
X184841426Y-80165828D01*
X184946216Y-80210782D01*
X185005416Y-80240004D01*
X185064074Y-80271423D01*
X185126086Y-80307909D01*
X185195345Y-80352331D01*
X185275746Y-80407561D01*
X185371181Y-80476469D01*
X185485547Y-80561923D01*
X185622735Y-80666796D01*
X185786642Y-80793955D01*
X185981160Y-80946273D01*
X186210185Y-81126618D01*
X186477609Y-81337862D01*
X186507783Y-81361721D01*
X187561195Y-82194732D01*
X186394522Y-82202796D01*
X186045069Y-82204420D01*
X185749230Y-82204074D01*
X185506030Y-82201742D01*
X185314493Y-82197407D01*
X185173644Y-82191051D01*
X185082508Y-82182659D01*
X185065220Y-82179838D01*
X184883117Y-82135584D01*
X184718950Y-82077602D01*
X184586954Y-82011437D01*
X184530972Y-81971687D01*
X184449462Y-81903102D01*
X184449462Y-83204453D01*
X184449728Y-83514885D01*
X184450591Y-83774477D01*
X184452154Y-83987014D01*
X184454517Y-84156276D01*
X184457780Y-84286048D01*
X184462045Y-84380111D01*
X184467413Y-84442248D01*
X184473983Y-84476241D01*
X184481858Y-84485874D01*
X184483602Y-84485208D01*
X184525243Y-84457620D01*
X184591248Y-84411564D01*
X184624631Y-84387735D01*
X184657944Y-84363099D01*
X184687734Y-84340955D01*
X184716933Y-84321164D01*
X184748474Y-84303586D01*
X184785286Y-84288081D01*
X184830303Y-84274511D01*
X184886455Y-84262736D01*
X184956675Y-84252616D01*
X185043894Y-84244013D01*
X185151043Y-84236786D01*
X185281055Y-84230796D01*
X185436861Y-84225904D01*
X185621393Y-84221971D01*
X185837581Y-84218857D01*
X186088359Y-84216422D01*
X186376658Y-84214527D01*
X186705409Y-84213033D01*
X187077543Y-84211801D01*
X187495994Y-84210690D01*
X187963691Y-84209562D01*
X188393354Y-84208508D01*
X188872353Y-84207512D01*
X189329362Y-84206994D01*
X189761464Y-84206941D01*
X190165738Y-84207338D01*
X190539265Y-84208172D01*
X190879127Y-84209429D01*
X191182404Y-84211094D01*
X191446177Y-84213156D01*
X191667527Y-84215599D01*
X191843535Y-84218410D01*
X191971283Y-84221576D01*
X192047849Y-84225082D01*
X192055941Y-84225745D01*
X192241568Y-84249905D01*
X192390647Y-84287624D01*
X192520750Y-84345064D01*
X192649452Y-84428389D01*
X192663494Y-84438811D01*
X192752258Y-84505361D01*
X192752258Y-85234283D01*
X192590145Y-85235752D01*
X192312867Y-85237421D01*
X191999459Y-85238625D01*
X191647664Y-85239435D01*
X191255223Y-85239922D01*
X190819877Y-85240156D01*
X190339368Y-85240211D01*
X189811438Y-85240156D01*
X189233828Y-85240062D01*
X188604279Y-85240002D01*
X188479301Y-85240000D01*
X187843122Y-85239965D01*
X187259325Y-85239847D01*
X186725668Y-85239628D01*
X186239909Y-85239292D01*
X185799805Y-85238822D01*
X185403116Y-85238198D01*
X185047599Y-85237406D01*
X184731012Y-85236426D01*
X184451113Y-85235242D01*
X184205661Y-85233836D01*
X183992413Y-85232190D01*
X183809128Y-85230288D01*
X183653564Y-85228113D01*
X183523478Y-85225645D01*
X183416629Y-85222869D01*
X183330775Y-85219767D01*
X183263674Y-85216321D01*
X183213084Y-85212515D01*
X183176764Y-85208330D01*
X183152470Y-85203749D01*
X183137962Y-85198755D01*
X183137600Y-85198570D01*
X183115437Y-85188285D01*
X183095372Y-85179718D01*
X183077301Y-85170241D01*
X183061121Y-85157226D01*
X183046726Y-85138043D01*
X183034014Y-85110065D01*
X183022880Y-85070663D01*
X183013221Y-85017208D01*
X183004932Y-84947071D01*
X182997910Y-84857624D01*
X182992050Y-84746238D01*
X182987250Y-84610284D01*
X182983404Y-84447135D01*
X182980409Y-84254161D01*
X182978161Y-84028733D01*
X182976556Y-83768224D01*
X182975491Y-83470004D01*
X182974860Y-83131445D01*
X182974561Y-82749918D01*
X182974490Y-82322794D01*
X182974541Y-81847446D01*
G36*
X184340777Y-69124807D02*
G01*
X184373019Y-68830294D01*
X184430729Y-68544961D01*
X184516917Y-68257200D01*
X184634593Y-67955404D01*
X184786767Y-67627966D01*
X184816243Y-67568999D01*
X184882910Y-67433676D01*
X184942939Y-67306049D01*
X184990599Y-67198713D01*
X185020155Y-67124264D01*
X185023876Y-67112827D01*
X185056714Y-67003226D01*
X185770453Y-67493845D01*
X185944895Y-67613794D01*
X186104270Y-67723461D01*
X186243168Y-67819117D01*
X186356178Y-67897031D01*
X186437890Y-67953475D01*
X186482891Y-67984719D01*
X186490018Y-67989795D01*
X186475117Y-68010412D01*
X186430320Y-68061161D01*
X186363765Y-68132966D01*
X186326147Y-68172594D01*
X186147568Y-68397118D01*
X186011868Y-68649274D01*
X185937537Y-68866560D01*
X185914193Y-68996993D01*
X185899967Y-69160307D01*
X185895124Y-69337293D01*
X185899926Y-69508744D01*
X185914638Y-69655452D01*
X185925905Y-69713993D01*
X186016685Y-69977853D01*
X186155296Y-70215622D01*
X186341485Y-70427124D01*
X186574999Y-70612184D01*
X186855584Y-70770625D01*
X187182987Y-70902271D01*
X187556955Y-71006946D01*
X187877097Y-71069155D01*
X188018426Y-71085386D01*
X188201004Y-71096444D01*
X188411709Y-71102437D01*
X188637422Y-71103473D01*
X188865022Y-71099657D01*
X189081389Y-71091097D01*
X189273402Y-71077899D01*
X189427943Y-71060170D01*
X189451786Y-71056333D01*
X189835860Y-70971749D01*
X190175783Y-70856505D01*
X190473078Y-70709897D01*
X190729268Y-70531226D01*
X190867775Y-70404400D01*
X191055828Y-70176475D01*
X191195220Y-69926512D01*
X191285195Y-69658730D01*
X191324994Y-69377344D01*
X191313857Y-69086571D01*
X191251026Y-68790627D01*
X191189547Y-68615660D01*
X191066436Y-68373534D01*
X190889837Y-68123980D01*
X190770412Y-67984191D01*
X190701291Y-67905699D01*
X190650579Y-67844030D01*
X190626144Y-67808928D01*
X190625398Y-67804570D01*
X190650367Y-67788903D01*
X190716348Y-67748308D01*
X190817685Y-67686243D01*
X190948721Y-67606167D01*
X191103800Y-67511538D01*
X191277265Y-67405814D01*
X191373896Y-67346967D01*
X192112201Y-66897474D01*
X192389549Y-67458683D01*
X192489172Y-67661596D01*
X192567729Y-67825973D01*
X192629122Y-67961861D01*
X192677253Y-68079309D01*
X192716023Y-68188364D01*
X192749333Y-68299074D01*
X192781086Y-68421487D01*
X192808969Y-68538818D01*
X192830546Y-68643105D01*
X192846851Y-68752168D01*
X192858791Y-68876927D01*
X192867270Y-69028297D01*
X192873192Y-69217199D01*
X192875749Y-69344517D01*
X192877494Y-69526177D01*
X192876614Y-69700367D01*
X192873360Y-69855557D01*
X192867984Y-69980223D01*
X192860735Y-70062834D01*
X192860012Y-70067730D01*
X192767205Y-70496709D01*
X192626449Y-70899551D01*
X192437839Y-71276112D01*
X192201466Y-71626252D01*
X191917424Y-71949828D01*
X191585805Y-72246700D01*
X191291075Y-72461701D01*
X190905298Y-72690589D01*
X190497895Y-72875611D01*
X190065600Y-73017662D01*
X189605146Y-73117636D01*
X189113267Y-73176428D01*
X188613799Y-73194951D01*
X188130634Y-73179717D01*
X187684842Y-73131844D01*
X187268905Y-73049811D01*
X186875304Y-72932097D01*
X186496518Y-72777181D01*
X186457275Y-72758683D01*
X186090440Y-72554894D01*
X185741360Y-72304598D01*
X185417260Y-72014885D01*
X185125366Y-71692846D01*
X184872904Y-71345574D01*
X184687714Y-71021987D01*
X184542670Y-70695096D01*
X184437603Y-70367511D01*
X184369653Y-70026552D01*
X184335960Y-69659535D01*
X184330992Y-69440108D01*
X184340777Y-69124807D01*
G37*
X184340777Y-69124807D02*
X184373019Y-68830294D01*
X184430729Y-68544961D01*
X184516917Y-68257200D01*
X184634593Y-67955404D01*
X184786767Y-67627966D01*
X184816243Y-67568999D01*
X184882910Y-67433676D01*
X184942939Y-67306049D01*
X184990599Y-67198713D01*
X185020155Y-67124264D01*
X185023876Y-67112827D01*
X185056714Y-67003226D01*
X185770453Y-67493845D01*
X185944895Y-67613794D01*
X186104270Y-67723461D01*
X186243168Y-67819117D01*
X186356178Y-67897031D01*
X186437890Y-67953475D01*
X186482891Y-67984719D01*
X186490018Y-67989795D01*
X186475117Y-68010412D01*
X186430320Y-68061161D01*
X186363765Y-68132966D01*
X186326147Y-68172594D01*
X186147568Y-68397118D01*
X186011868Y-68649274D01*
X185937537Y-68866560D01*
X185914193Y-68996993D01*
X185899967Y-69160307D01*
X185895124Y-69337293D01*
X185899926Y-69508744D01*
X185914638Y-69655452D01*
X185925905Y-69713993D01*
X186016685Y-69977853D01*
X186155296Y-70215622D01*
X186341485Y-70427124D01*
X186574999Y-70612184D01*
X186855584Y-70770625D01*
X187182987Y-70902271D01*
X187556955Y-71006946D01*
X187877097Y-71069155D01*
X188018426Y-71085386D01*
X188201004Y-71096444D01*
X188411709Y-71102437D01*
X188637422Y-71103473D01*
X188865022Y-71099657D01*
X189081389Y-71091097D01*
X189273402Y-71077899D01*
X189427943Y-71060170D01*
X189451786Y-71056333D01*
X189835860Y-70971749D01*
X190175783Y-70856505D01*
X190473078Y-70709897D01*
X190729268Y-70531226D01*
X190867775Y-70404400D01*
X191055828Y-70176475D01*
X191195220Y-69926512D01*
X191285195Y-69658730D01*
X191324994Y-69377344D01*
X191313857Y-69086571D01*
X191251026Y-68790627D01*
X191189547Y-68615660D01*
X191066436Y-68373534D01*
X190889837Y-68123980D01*
X190770412Y-67984191D01*
X190701291Y-67905699D01*
X190650579Y-67844030D01*
X190626144Y-67808928D01*
X190625398Y-67804570D01*
X190650367Y-67788903D01*
X190716348Y-67748308D01*
X190817685Y-67686243D01*
X190948721Y-67606167D01*
X191103800Y-67511538D01*
X191277265Y-67405814D01*
X191373896Y-67346967D01*
X192112201Y-66897474D01*
X192389549Y-67458683D01*
X192489172Y-67661596D01*
X192567729Y-67825973D01*
X192629122Y-67961861D01*
X192677253Y-68079309D01*
X192716023Y-68188364D01*
X192749333Y-68299074D01*
X192781086Y-68421487D01*
X192808969Y-68538818D01*
X192830546Y-68643105D01*
X192846851Y-68752168D01*
X192858791Y-68876927D01*
X192867270Y-69028297D01*
X192873192Y-69217199D01*
X192875749Y-69344517D01*
X192877494Y-69526177D01*
X192876614Y-69700367D01*
X192873360Y-69855557D01*
X192867984Y-69980223D01*
X192860735Y-70062834D01*
X192860012Y-70067730D01*
X192767205Y-70496709D01*
X192626449Y-70899551D01*
X192437839Y-71276112D01*
X192201466Y-71626252D01*
X191917424Y-71949828D01*
X191585805Y-72246700D01*
X191291075Y-72461701D01*
X190905298Y-72690589D01*
X190497895Y-72875611D01*
X190065600Y-73017662D01*
X189605146Y-73117636D01*
X189113267Y-73176428D01*
X188613799Y-73194951D01*
X188130634Y-73179717D01*
X187684842Y-73131844D01*
X187268905Y-73049811D01*
X186875304Y-72932097D01*
X186496518Y-72777181D01*
X186457275Y-72758683D01*
X186090440Y-72554894D01*
X185741360Y-72304598D01*
X185417260Y-72014885D01*
X185125366Y-71692846D01*
X184872904Y-71345574D01*
X184687714Y-71021987D01*
X184542670Y-70695096D01*
X184437603Y-70367511D01*
X184369653Y-70026552D01*
X184335960Y-69659535D01*
X184330992Y-69440108D01*
X184340777Y-69124807D01*
G36*
X186536368Y-63699049D02*
G01*
X186546611Y-63563728D01*
X186598122Y-63176558D01*
X186680283Y-62833679D01*
X186794222Y-62533420D01*
X186941072Y-62274112D01*
X187121962Y-62054084D01*
X187338022Y-61871666D01*
X187590384Y-61725189D01*
X187863441Y-61618229D01*
X187950541Y-61591079D01*
X188032107Y-61567436D01*
X188112529Y-61547023D01*
X188196199Y-61529561D01*
X188287508Y-61514770D01*
X188390847Y-61502373D01*
X188510609Y-61492089D01*
X188651183Y-61483642D01*
X188816962Y-61476752D01*
X189012336Y-61471139D01*
X189241698Y-61466527D01*
X189509437Y-61462635D01*
X189819947Y-61459185D01*
X190177618Y-61455898D01*
X190458064Y-61453549D01*
X192383548Y-61437742D01*
X192568843Y-61335323D01*
X192658111Y-61286825D01*
X192727448Y-61250734D01*
X192764354Y-61233517D01*
X192766854Y-61232904D01*
X192769715Y-61259220D01*
X192772351Y-61334189D01*
X192774689Y-61451839D01*
X192776653Y-61606200D01*
X192778170Y-61791300D01*
X192779165Y-62001168D01*
X192779565Y-62229833D01*
X192779570Y-62257097D01*
X192779570Y-63281291D01*
X192547419Y-63281291D01*
X192442507Y-63283037D01*
X192362271Y-63287698D01*
X192319251Y-63294404D01*
X192315269Y-63297368D01*
X192331950Y-63324477D01*
X192375731Y-63380269D01*
X192437216Y-63452785D01*
X192438638Y-63454411D01*
X192537160Y-63586743D01*
X192636089Y-63753867D01*
X192725706Y-63936900D01*
X192796293Y-64116957D01*
X192820414Y-64196237D01*
X192851051Y-64354009D01*
X192870602Y-64547603D01*
X192878787Y-64759296D01*
X192875327Y-64971368D01*
X192859945Y-65166096D01*
X192837811Y-65302366D01*
X192739676Y-65636546D01*
X192599819Y-65937397D01*
X192419974Y-66202961D01*
X192201876Y-66431279D01*
X191947261Y-66620394D01*
X191657864Y-66768347D01*
X191482258Y-66832175D01*
X191311576Y-66872177D01*
X191106678Y-66898687D01*
X190886464Y-66910953D01*
X190854420Y-66910550D01*
X190854420Y-65063388D01*
X191018053Y-65048070D01*
X191154042Y-64997065D01*
X191280208Y-64902796D01*
X191317203Y-64866589D01*
X191417221Y-64737880D01*
X191481294Y-64589115D01*
X191512309Y-64410887D01*
X191514593Y-64223202D01*
X191499514Y-64045186D01*
X191470021Y-63908888D01*
X191447869Y-63849694D01*
X191387496Y-63743005D01*
X191302589Y-63629963D01*
X191207295Y-63526825D01*
X191115760Y-63449849D01*
X191082181Y-63429409D01*
X191035157Y-63413519D01*
X190960333Y-63402222D01*
X190850560Y-63394991D01*
X190698692Y-63391300D01*
X190554155Y-63390538D01*
X190385644Y-63391054D01*
X190263799Y-63393140D01*
X190180666Y-63397598D01*
X190128292Y-63405235D01*
X190098726Y-63416854D01*
X190084013Y-63433260D01*
X190081670Y-63438334D01*
X190074453Y-63482430D01*
X190068550Y-63569400D01*
X190064493Y-63687500D01*
X190062815Y-63824986D01*
X190062813Y-63854839D01*
X190065746Y-64038614D01*
X190074469Y-64180593D01*
X190090177Y-64293409D01*
X190113118Y-64386598D01*
X190200535Y-64617754D01*
X190308010Y-64799027D01*
X190437262Y-64931986D01*
X190590010Y-65018199D01*
X190767972Y-65059238D01*
X190854420Y-65063388D01*
X190854420Y-66910550D01*
X190669834Y-66908224D01*
X190475689Y-66889748D01*
X190397252Y-66875336D01*
X190106017Y-66783310D01*
X189838054Y-66643377D01*
X189595932Y-66458177D01*
X189382221Y-66230352D01*
X189199492Y-65962543D01*
X189050314Y-65657393D01*
X188959727Y-65397957D01*
X188912136Y-65224566D01*
X188875155Y-65058718D01*
X188847585Y-64889671D01*
X188828224Y-64706683D01*
X188815871Y-64499011D01*
X188809326Y-64255913D01*
X188807483Y-64036128D01*
X188805699Y-63384406D01*
X188609798Y-63396891D01*
X188397243Y-63432343D01*
X188214543Y-63507759D01*
X188066262Y-63619927D01*
X187956960Y-63765636D01*
X187903624Y-63893936D01*
X187870010Y-64077765D01*
X187865183Y-64296606D01*
X187887363Y-64540200D01*
X187934772Y-64798290D01*
X188005629Y-65060615D01*
X188098155Y-65316918D01*
X188182778Y-65503176D01*
X188226231Y-65592789D01*
X188256580Y-65661142D01*
X188268423Y-65695903D01*
X188268043Y-65697789D01*
X188241518Y-65709785D01*
X188171210Y-65739738D01*
X188063855Y-65784830D01*
X187926190Y-65842243D01*
X187764949Y-65909158D01*
X187600395Y-65977176D01*
X186941328Y-66249103D01*
X186909559Y-66055681D01*
X186893619Y-65971846D01*
X186866847Y-65845817D01*
X186831673Y-65688392D01*
X186790528Y-65510367D01*
X186745842Y-65322537D01*
X186727683Y-65247742D01*
X186652631Y-64924162D01*
X186596362Y-64640868D01*
X186557738Y-64387285D01*
X186535623Y-64152838D01*
X186528878Y-63926951D01*
X186536368Y-63699049D01*
G37*
X186536368Y-63699049D02*
X186546611Y-63563728D01*
X186598122Y-63176558D01*
X186680283Y-62833679D01*
X186794222Y-62533420D01*
X186941072Y-62274112D01*
X187121962Y-62054084D01*
X187338022Y-61871666D01*
X187590384Y-61725189D01*
X187863441Y-61618229D01*
X187950541Y-61591079D01*
X188032107Y-61567436D01*
X188112529Y-61547023D01*
X188196199Y-61529561D01*
X188287508Y-61514770D01*
X188390847Y-61502373D01*
X188510609Y-61492089D01*
X188651183Y-61483642D01*
X188816962Y-61476752D01*
X189012336Y-61471139D01*
X189241698Y-61466527D01*
X189509437Y-61462635D01*
X189819947Y-61459185D01*
X190177618Y-61455898D01*
X190458064Y-61453549D01*
X192383548Y-61437742D01*
X192568843Y-61335323D01*
X192658111Y-61286825D01*
X192727448Y-61250734D01*
X192764354Y-61233517D01*
X192766854Y-61232904D01*
X192769715Y-61259220D01*
X192772351Y-61334189D01*
X192774689Y-61451839D01*
X192776653Y-61606200D01*
X192778170Y-61791300D01*
X192779165Y-62001168D01*
X192779565Y-62229833D01*
X192779570Y-62257097D01*
X192779570Y-63281291D01*
X192547419Y-63281291D01*
X192442507Y-63283037D01*
X192362271Y-63287698D01*
X192319251Y-63294404D01*
X192315269Y-63297368D01*
X192331950Y-63324477D01*
X192375731Y-63380269D01*
X192437216Y-63452785D01*
X192438638Y-63454411D01*
X192537160Y-63586743D01*
X192636089Y-63753867D01*
X192725706Y-63936900D01*
X192796293Y-64116957D01*
X192820414Y-64196237D01*
X192851051Y-64354009D01*
X192870602Y-64547603D01*
X192878787Y-64759296D01*
X192875327Y-64971368D01*
X192859945Y-65166096D01*
X192837811Y-65302366D01*
X192739676Y-65636546D01*
X192599819Y-65937397D01*
X192419974Y-66202961D01*
X192201876Y-66431279D01*
X191947261Y-66620394D01*
X191657864Y-66768347D01*
X191482258Y-66832175D01*
X191311576Y-66872177D01*
X191106678Y-66898687D01*
X190886464Y-66910953D01*
X190854420Y-66910550D01*
X190854420Y-65063388D01*
X191018053Y-65048070D01*
X191154042Y-64997065D01*
X191280208Y-64902796D01*
X191317203Y-64866589D01*
X191417221Y-64737880D01*
X191481294Y-64589115D01*
X191512309Y-64410887D01*
X191514593Y-64223202D01*
X191499514Y-64045186D01*
X191470021Y-63908888D01*
X191447869Y-63849694D01*
X191387496Y-63743005D01*
X191302589Y-63629963D01*
X191207295Y-63526825D01*
X191115760Y-63449849D01*
X191082181Y-63429409D01*
X191035157Y-63413519D01*
X190960333Y-63402222D01*
X190850560Y-63394991D01*
X190698692Y-63391300D01*
X190554155Y-63390538D01*
X190385644Y-63391054D01*
X190263799Y-63393140D01*
X190180666Y-63397598D01*
X190128292Y-63405235D01*
X190098726Y-63416854D01*
X190084013Y-63433260D01*
X190081670Y-63438334D01*
X190074453Y-63482430D01*
X190068550Y-63569400D01*
X190064493Y-63687500D01*
X190062815Y-63824986D01*
X190062813Y-63854839D01*
X190065746Y-64038614D01*
X190074469Y-64180593D01*
X190090177Y-64293409D01*
X190113118Y-64386598D01*
X190200535Y-64617754D01*
X190308010Y-64799027D01*
X190437262Y-64931986D01*
X190590010Y-65018199D01*
X190767972Y-65059238D01*
X190854420Y-65063388D01*
X190854420Y-66910550D01*
X190669834Y-66908224D01*
X190475689Y-66889748D01*
X190397252Y-66875336D01*
X190106017Y-66783310D01*
X189838054Y-66643377D01*
X189595932Y-66458177D01*
X189382221Y-66230352D01*
X189199492Y-65962543D01*
X189050314Y-65657393D01*
X188959727Y-65397957D01*
X188912136Y-65224566D01*
X188875155Y-65058718D01*
X188847585Y-64889671D01*
X188828224Y-64706683D01*
X188815871Y-64499011D01*
X188809326Y-64255913D01*
X188807483Y-64036128D01*
X188805699Y-63384406D01*
X188609798Y-63396891D01*
X188397243Y-63432343D01*
X188214543Y-63507759D01*
X188066262Y-63619927D01*
X187956960Y-63765636D01*
X187903624Y-63893936D01*
X187870010Y-64077765D01*
X187865183Y-64296606D01*
X187887363Y-64540200D01*
X187934772Y-64798290D01*
X188005629Y-65060615D01*
X188098155Y-65316918D01*
X188182778Y-65503176D01*
X188226231Y-65592789D01*
X188256580Y-65661142D01*
X188268423Y-65695903D01*
X188268043Y-65697789D01*
X188241518Y-65709785D01*
X188171210Y-65739738D01*
X188063855Y-65784830D01*
X187926190Y-65842243D01*
X187764949Y-65909158D01*
X187600395Y-65977176D01*
X186941328Y-66249103D01*
X186909559Y-66055681D01*
X186893619Y-65971846D01*
X186866847Y-65845817D01*
X186831673Y-65688392D01*
X186790528Y-65510367D01*
X186745842Y-65322537D01*
X186727683Y-65247742D01*
X186652631Y-64924162D01*
X186596362Y-64640868D01*
X186557738Y-64387285D01*
X186535623Y-64152838D01*
X186528878Y-63926951D01*
X186536368Y-63699049D01*
G36*
X183935618Y-56389033D02*
G01*
X183936571Y-56156746D01*
X183937052Y-56077796D01*
X183944193Y-54992151D01*
X188109247Y-54978495D01*
X188674041Y-54976692D01*
X189186864Y-54975092D01*
X189650371Y-54973594D01*
X190067214Y-54972094D01*
X190440045Y-54970491D01*
X190771519Y-54968680D01*
X191064286Y-54966560D01*
X191321002Y-54964028D01*
X191544318Y-54960980D01*
X191736887Y-54957315D01*
X191901363Y-54952929D01*
X192040398Y-54947720D01*
X192156644Y-54941584D01*
X192252756Y-54934420D01*
X192331386Y-54926125D01*
X192395187Y-54916595D01*
X192446811Y-54905728D01*
X192488912Y-54893421D01*
X192524143Y-54879572D01*
X192555156Y-54864077D01*
X192584604Y-54846835D01*
X192615141Y-54827742D01*
X192649418Y-54806695D01*
X192656720Y-54802381D01*
X192780221Y-54730004D01*
X192773068Y-55776024D01*
X192765914Y-56822044D01*
X192536142Y-56835699D01*
X192425873Y-56843135D01*
X192362122Y-56850883D01*
X192336827Y-56861397D01*
X192341922Y-56877128D01*
X192356498Y-56890323D01*
X192409591Y-56947803D01*
X192477837Y-57041487D01*
X192553080Y-57158175D01*
X192627167Y-57284669D01*
X192691943Y-57407769D01*
X192734561Y-57502287D01*
X192804595Y-57723726D01*
X192854204Y-57977793D01*
X192881494Y-58245734D01*
X192884569Y-58508789D01*
X192861532Y-58748205D01*
X192860873Y-58752147D01*
X192778669Y-59079747D01*
X192647700Y-59386413D01*
X192470780Y-59669186D01*
X192250726Y-59925108D01*
X191990351Y-60151222D01*
X191692472Y-60344570D01*
X191359904Y-60502194D01*
X191113548Y-60588016D01*
X190907445Y-60644611D01*
X190707867Y-60686582D01*
X190502690Y-60715211D01*
X190279791Y-60731782D01*
X190027045Y-60737577D01*
X189820662Y-60735011D01*
X189820662Y-58719675D01*
X190166732Y-58710138D01*
X190464467Y-58680054D01*
X190716510Y-58628497D01*
X190925502Y-58554542D01*
X191094086Y-58457262D01*
X191224906Y-58335734D01*
X191317385Y-58195454D01*
X191351909Y-58122460D01*
X191372607Y-58059153D01*
X191382077Y-57988573D01*
X191382915Y-57893758D01*
X191379228Y-57791613D01*
X191361510Y-57590739D01*
X191326813Y-57431866D01*
X191309433Y-57381936D01*
X191258102Y-57267925D01*
X191193643Y-57147677D01*
X191161376Y-57095162D01*
X191071805Y-56958603D01*
X188232706Y-56958603D01*
X188142665Y-57108818D01*
X188040923Y-57318308D01*
X187980751Y-57532342D01*
X187961796Y-57743091D01*
X187983701Y-57942727D01*
X188046113Y-58123423D01*
X188148676Y-58277351D01*
X188197906Y-58327019D01*
X188359211Y-58446738D01*
X188554471Y-58543636D01*
X188787031Y-58618523D01*
X189060239Y-58672207D01*
X189377441Y-58705500D01*
X189741984Y-58719211D01*
X189820662Y-58719675D01*
X189820662Y-60735011D01*
X189734756Y-60733942D01*
X189285158Y-60710918D01*
X188879628Y-60664622D01*
X188512257Y-60593836D01*
X188177137Y-60497339D01*
X187868363Y-60373913D01*
X187776822Y-60329869D01*
X187478296Y-60152460D01*
X187213007Y-59938070D01*
X186985237Y-59691741D01*
X186799268Y-59418513D01*
X186659382Y-59123426D01*
X186601678Y-58946541D01*
X186567422Y-58772822D01*
X186547041Y-58563795D01*
X186540525Y-58336986D01*
X186547866Y-58109916D01*
X186569055Y-57900108D01*
X186602295Y-57731648D01*
X186667482Y-57531143D01*
X186751307Y-57336805D01*
X186845280Y-57166776D01*
X186909058Y-57076279D01*
X186956484Y-57013856D01*
X186985361Y-56970147D01*
X186989462Y-56960204D01*
X186963041Y-56957121D01*
X186887339Y-56954247D01*
X186767698Y-56951645D01*
X186609462Y-56949379D01*
X186417973Y-56947512D01*
X186198574Y-56946109D01*
X185956607Y-56945233D01*
X185710147Y-56944947D01*
X185394476Y-56945106D01*
X185128337Y-56945892D01*
X184906641Y-56947762D01*
X184724296Y-56951175D01*
X184576212Y-56956591D01*
X184457299Y-56964469D01*
X184362465Y-56975267D01*
X184286620Y-56989445D01*
X184224674Y-57007461D01*
X184171536Y-57029775D01*
X184122115Y-57056846D01*
X184071321Y-57089133D01*
X184065031Y-57093287D01*
X183999245Y-57134929D01*
X183954008Y-57160071D01*
X183944466Y-57163441D01*
X183941455Y-57137097D01*
X183939006Y-57061931D01*
X183937158Y-56943743D01*
X183935951Y-56788331D01*
X183935424Y-56601494D01*
X183935618Y-56389033D01*
G37*
X183935618Y-56389033D02*
X183936571Y-56156746D01*
X183937052Y-56077796D01*
X183944193Y-54992151D01*
X188109247Y-54978495D01*
X188674041Y-54976692D01*
X189186864Y-54975092D01*
X189650371Y-54973594D01*
X190067214Y-54972094D01*
X190440045Y-54970491D01*
X190771519Y-54968680D01*
X191064286Y-54966560D01*
X191321002Y-54964028D01*
X191544318Y-54960980D01*
X191736887Y-54957315D01*
X191901363Y-54952929D01*
X192040398Y-54947720D01*
X192156644Y-54941584D01*
X192252756Y-54934420D01*
X192331386Y-54926125D01*
X192395187Y-54916595D01*
X192446811Y-54905728D01*
X192488912Y-54893421D01*
X192524143Y-54879572D01*
X192555156Y-54864077D01*
X192584604Y-54846835D01*
X192615141Y-54827742D01*
X192649418Y-54806695D01*
X192656720Y-54802381D01*
X192780221Y-54730004D01*
X192773068Y-55776024D01*
X192765914Y-56822044D01*
X192536142Y-56835699D01*
X192425873Y-56843135D01*
X192362122Y-56850883D01*
X192336827Y-56861397D01*
X192341922Y-56877128D01*
X192356498Y-56890323D01*
X192409591Y-56947803D01*
X192477837Y-57041487D01*
X192553080Y-57158175D01*
X192627167Y-57284669D01*
X192691943Y-57407769D01*
X192734561Y-57502287D01*
X192804595Y-57723726D01*
X192854204Y-57977793D01*
X192881494Y-58245734D01*
X192884569Y-58508789D01*
X192861532Y-58748205D01*
X192860873Y-58752147D01*
X192778669Y-59079747D01*
X192647700Y-59386413D01*
X192470780Y-59669186D01*
X192250726Y-59925108D01*
X191990351Y-60151222D01*
X191692472Y-60344570D01*
X191359904Y-60502194D01*
X191113548Y-60588016D01*
X190907445Y-60644611D01*
X190707867Y-60686582D01*
X190502690Y-60715211D01*
X190279791Y-60731782D01*
X190027045Y-60737577D01*
X189820662Y-60735011D01*
X189820662Y-58719675D01*
X190166732Y-58710138D01*
X190464467Y-58680054D01*
X190716510Y-58628497D01*
X190925502Y-58554542D01*
X191094086Y-58457262D01*
X191224906Y-58335734D01*
X191317385Y-58195454D01*
X191351909Y-58122460D01*
X191372607Y-58059153D01*
X191382077Y-57988573D01*
X191382915Y-57893758D01*
X191379228Y-57791613D01*
X191361510Y-57590739D01*
X191326813Y-57431866D01*
X191309433Y-57381936D01*
X191258102Y-57267925D01*
X191193643Y-57147677D01*
X191161376Y-57095162D01*
X191071805Y-56958603D01*
X188232706Y-56958603D01*
X188142665Y-57108818D01*
X188040923Y-57318308D01*
X187980751Y-57532342D01*
X187961796Y-57743091D01*
X187983701Y-57942727D01*
X188046113Y-58123423D01*
X188148676Y-58277351D01*
X188197906Y-58327019D01*
X188359211Y-58446738D01*
X188554471Y-58543636D01*
X188787031Y-58618523D01*
X189060239Y-58672207D01*
X189377441Y-58705500D01*
X189741984Y-58719211D01*
X189820662Y-58719675D01*
X189820662Y-60735011D01*
X189734756Y-60733942D01*
X189285158Y-60710918D01*
X188879628Y-60664622D01*
X188512257Y-60593836D01*
X188177137Y-60497339D01*
X187868363Y-60373913D01*
X187776822Y-60329869D01*
X187478296Y-60152460D01*
X187213007Y-59938070D01*
X186985237Y-59691741D01*
X186799268Y-59418513D01*
X186659382Y-59123426D01*
X186601678Y-58946541D01*
X186567422Y-58772822D01*
X186547041Y-58563795D01*
X186540525Y-58336986D01*
X186547866Y-58109916D01*
X186569055Y-57900108D01*
X186602295Y-57731648D01*
X186667482Y-57531143D01*
X186751307Y-57336805D01*
X186845280Y-57166776D01*
X186909058Y-57076279D01*
X186956484Y-57013856D01*
X186985361Y-56970147D01*
X186989462Y-56960204D01*
X186963041Y-56957121D01*
X186887339Y-56954247D01*
X186767698Y-56951645D01*
X186609462Y-56949379D01*
X186417973Y-56947512D01*
X186198574Y-56946109D01*
X185956607Y-56945233D01*
X185710147Y-56944947D01*
X185394476Y-56945106D01*
X185128337Y-56945892D01*
X184906641Y-56947762D01*
X184724296Y-56951175D01*
X184576212Y-56956591D01*
X184457299Y-56964469D01*
X184362465Y-56975267D01*
X184286620Y-56989445D01*
X184224674Y-57007461D01*
X184171536Y-57029775D01*
X184122115Y-57056846D01*
X184071321Y-57089133D01*
X184065031Y-57093287D01*
X183999245Y-57134929D01*
X183954008Y-57160071D01*
X183944466Y-57163441D01*
X183941455Y-57137097D01*
X183939006Y-57061931D01*
X183937158Y-56943743D01*
X183935951Y-56788331D01*
X183935424Y-56601494D01*
X183935618Y-56389033D01*
G36*
X182104844Y-75422844D02*
G01*
X182175957Y-75217742D01*
X182287889Y-75026785D01*
X182440625Y-74856243D01*
X182634151Y-74712387D01*
X182756129Y-74647768D01*
X182926743Y-74591842D01*
X183123711Y-74564735D01*
X183326205Y-74567738D01*
X183509699Y-74601067D01*
X183733924Y-74692162D01*
X183928422Y-74824258D01*
X184089367Y-74990642D01*
X184212933Y-75184598D01*
X184295292Y-75399414D01*
X184332617Y-75628375D01*
X184321082Y-75864767D01*
X184296430Y-75981291D01*
X184208091Y-76208385D01*
X184073290Y-76410081D01*
X183896183Y-76581515D01*
X183680927Y-76717820D01*
X183657419Y-76729352D01*
X183569205Y-76769217D01*
X183494910Y-76794249D01*
X183416535Y-76807839D01*
X183316080Y-76813382D01*
X183206774Y-76814302D01*
X183075448Y-76812780D01*
X182980509Y-76805914D01*
X182903753Y-76790250D01*
X182826974Y-76762333D01*
X182751223Y-76727873D01*
X182536190Y-76599338D01*
X182362080Y-76441052D01*
X182228876Y-76259287D01*
X182136566Y-76060313D01*
X182085134Y-75850400D01*
X182074565Y-75635821D01*
X182104844Y-75422844D01*
G37*
X182104844Y-75422844D02*
X182175957Y-75217742D01*
X182287889Y-75026785D01*
X182440625Y-74856243D01*
X182634151Y-74712387D01*
X182756129Y-74647768D01*
X182926743Y-74591842D01*
X183123711Y-74564735D01*
X183326205Y-74567738D01*
X183509699Y-74601067D01*
X183733924Y-74692162D01*
X183928422Y-74824258D01*
X184089367Y-74990642D01*
X184212933Y-75184598D01*
X184295292Y-75399414D01*
X184332617Y-75628375D01*
X184321082Y-75864767D01*
X184296430Y-75981291D01*
X184208091Y-76208385D01*
X184073290Y-76410081D01*
X183896183Y-76581515D01*
X183680927Y-76717820D01*
X183657419Y-76729352D01*
X183569205Y-76769217D01*
X183494910Y-76794249D01*
X183416535Y-76807839D01*
X183316080Y-76813382D01*
X183206774Y-76814302D01*
X183075448Y-76812780D01*
X182980509Y-76805914D01*
X182903753Y-76790250D01*
X182826974Y-76762333D01*
X182751223Y-76727873D01*
X182536190Y-76599338D01*
X182362080Y-76441052D01*
X182228876Y-76259287D01*
X182136566Y-76060313D01*
X182085134Y-75850400D01*
X182074565Y-75635821D01*
X182104844Y-75422844D01*
G36*
X194917114Y-82092377D02*
G01*
X194917920Y-82013060D01*
X194923528Y-81780649D01*
X194940185Y-81586006D01*
X194969680Y-81422496D01*
X195013797Y-81283486D01*
X195074325Y-81162341D01*
X195153050Y-81052429D01*
X195187248Y-81013171D01*
X195267265Y-80948049D01*
X195375846Y-80889328D01*
X195496203Y-80844069D01*
X195611547Y-80819335D01*
X195654169Y-80816765D01*
X195772322Y-80832870D01*
X195901382Y-80876027D01*
X196023542Y-80938504D01*
X196120992Y-81012567D01*
X196132750Y-81024597D01*
X196215394Y-81126499D01*
X196279909Y-81238088D01*
X196327983Y-81365798D01*
X196361307Y-81516062D01*
X196381572Y-81695314D01*
X196390469Y-81909987D01*
X196391223Y-82008317D01*
X196390621Y-82133340D01*
X196388104Y-82221262D01*
X196382604Y-82280333D01*
X196373055Y-82318800D01*
X196358389Y-82344912D01*
X196345866Y-82358908D01*
X196330652Y-82372129D01*
X196311025Y-82382500D01*
X196281728Y-82390365D01*
X196237503Y-82396071D01*
X196173092Y-82399961D01*
X196083237Y-82402380D01*
X195962682Y-82403674D01*
X195806167Y-82404186D01*
X195654169Y-82404265D01*
X195451440Y-82404765D01*
X195289491Y-82404657D01*
X195211937Y-82402728D01*
X195211937Y-82109444D01*
X196096402Y-82109444D01*
X196096230Y-81922346D01*
X196093001Y-81809764D01*
X196084683Y-81691852D01*
X196073048Y-81593473D01*
X196072569Y-81590480D01*
X196034127Y-81431480D01*
X195974256Y-81308154D01*
X195889058Y-81214343D01*
X195796814Y-81154737D01*
X195694489Y-81118010D01*
X195598409Y-81120858D01*
X195495419Y-81163482D01*
X195388876Y-81246854D01*
X195309927Y-81362386D01*
X195257156Y-81512557D01*
X195238481Y-81612919D01*
X195225366Y-81726843D01*
X195215873Y-81847585D01*
X195211927Y-81950281D01*
X195211908Y-81956364D01*
X195211937Y-82109444D01*
X195211937Y-82402728D01*
X195163782Y-82401529D01*
X195069771Y-82392966D01*
X195002920Y-82376558D01*
X194958686Y-82349890D01*
X194932529Y-82310551D01*
X194919909Y-82256128D01*
X194916284Y-82184207D01*
X194917114Y-82092377D01*
G37*
X194917114Y-82092377D02*
X194917920Y-82013060D01*
X194923528Y-81780649D01*
X194940185Y-81586006D01*
X194969680Y-81422496D01*
X195013797Y-81283486D01*
X195074325Y-81162341D01*
X195153050Y-81052429D01*
X195187248Y-81013171D01*
X195267265Y-80948049D01*
X195375846Y-80889328D01*
X195496203Y-80844069D01*
X195611547Y-80819335D01*
X195654169Y-80816765D01*
X195772322Y-80832870D01*
X195901382Y-80876027D01*
X196023542Y-80938504D01*
X196120992Y-81012567D01*
X196132750Y-81024597D01*
X196215394Y-81126499D01*
X196279909Y-81238088D01*
X196327983Y-81365798D01*
X196361307Y-81516062D01*
X196381572Y-81695314D01*
X196390469Y-81909987D01*
X196391223Y-82008317D01*
X196390621Y-82133340D01*
X196388104Y-82221262D01*
X196382604Y-82280333D01*
X196373055Y-82318800D01*
X196358389Y-82344912D01*
X196345866Y-82358908D01*
X196330652Y-82372129D01*
X196311025Y-82382500D01*
X196281728Y-82390365D01*
X196237503Y-82396071D01*
X196173092Y-82399961D01*
X196083237Y-82402380D01*
X195962682Y-82403674D01*
X195806167Y-82404186D01*
X195654169Y-82404265D01*
X195451440Y-82404765D01*
X195289491Y-82404657D01*
X195211937Y-82402728D01*
X195211937Y-82109444D01*
X196096402Y-82109444D01*
X196096230Y-81922346D01*
X196093001Y-81809764D01*
X196084683Y-81691852D01*
X196073048Y-81593473D01*
X196072569Y-81590480D01*
X196034127Y-81431480D01*
X195974256Y-81308154D01*
X195889058Y-81214343D01*
X195796814Y-81154737D01*
X195694489Y-81118010D01*
X195598409Y-81120858D01*
X195495419Y-81163482D01*
X195388876Y-81246854D01*
X195309927Y-81362386D01*
X195257156Y-81512557D01*
X195238481Y-81612919D01*
X195225366Y-81726843D01*
X195215873Y-81847585D01*
X195211927Y-81950281D01*
X195211908Y-81956364D01*
X195211937Y-82109444D01*
X195211937Y-82402728D01*
X195163782Y-82401529D01*
X195069771Y-82392966D01*
X195002920Y-82376558D01*
X194958686Y-82349890D01*
X194932529Y-82310551D01*
X194919909Y-82256128D01*
X194916284Y-82184207D01*
X194917114Y-82092377D01*
G36*
X194917275Y-79262646D02*
G01*
X194918023Y-79123210D01*
X194919763Y-79017963D01*
X194922900Y-78941324D01*
X194927836Y-78887710D01*
X194934976Y-78851537D01*
X194944724Y-78827221D01*
X194957484Y-78809181D01*
X194963356Y-78802649D01*
X195025750Y-78762922D01*
X195097441Y-78755769D01*
X195161087Y-78781903D01*
X195173950Y-78793987D01*
X195186421Y-78813532D01*
X195196043Y-78845003D01*
X195203282Y-78894236D01*
X195208606Y-78967066D01*
X195212485Y-79069329D01*
X195215387Y-79206862D01*
X195217152Y-79332603D01*
X195223277Y-79830248D01*
X195353678Y-79837049D01*
X195484080Y-79843850D01*
X195484080Y-79506055D01*
X195485345Y-79359406D01*
X195490637Y-79252044D01*
X195502201Y-79177937D01*
X195522281Y-79131049D01*
X195553121Y-79105347D01*
X195596967Y-79094796D01*
X195637660Y-79093194D01*
X195687591Y-79098173D01*
X195724383Y-79116964D01*
X195749958Y-79155347D01*
X195766239Y-79219100D01*
X195775149Y-79314004D01*
X195778610Y-79445838D01*
X195778902Y-79517794D01*
X195778902Y-79841587D01*
X196096402Y-79841587D01*
X196096402Y-79342658D01*
X196096629Y-79179113D01*
X196097652Y-79054817D01*
X196099979Y-78963666D01*
X196104118Y-78899552D01*
X196110580Y-78856370D01*
X196119871Y-78828013D01*
X196132502Y-78808375D01*
X196141759Y-78798373D01*
X196195786Y-78764062D01*
X196243812Y-78753015D01*
X196302474Y-78768789D01*
X196345866Y-78798373D01*
X196359526Y-78814156D01*
X196370133Y-78834531D01*
X196378071Y-78864978D01*
X196383726Y-78910977D01*
X196387482Y-78978010D01*
X196389723Y-79071558D01*
X196390834Y-79197100D01*
X196391199Y-79360118D01*
X196391223Y-79444712D01*
X196391063Y-79625868D01*
X196390325Y-79767148D01*
X196388627Y-79874032D01*
X196385582Y-79952002D01*
X196380806Y-80006539D01*
X196373915Y-80043122D01*
X196364524Y-80067233D01*
X196352248Y-80084353D01*
X196345866Y-80091051D01*
X196330605Y-80104308D01*
X196310916Y-80114699D01*
X196281524Y-80122571D01*
X196237153Y-80128273D01*
X196172526Y-80132152D01*
X196082367Y-80134557D01*
X195961401Y-80135836D01*
X195804351Y-80136335D01*
X195658123Y-80136408D01*
X195470857Y-80136341D01*
X195323651Y-80135870D01*
X195211205Y-80134593D01*
X195128222Y-80132109D01*
X195069403Y-80128016D01*
X195029450Y-80121911D01*
X195003064Y-80113392D01*
X194984948Y-80102058D01*
X194969803Y-80087505D01*
X194966426Y-80083920D01*
X194951478Y-80066521D01*
X194939903Y-80046305D01*
X194931268Y-80017664D01*
X194925145Y-79974989D01*
X194921102Y-79912675D01*
X194918709Y-79825112D01*
X194917534Y-79706693D01*
X194917148Y-79551811D01*
X194917116Y-79441857D01*
X194917275Y-79262646D01*
G37*
X194917275Y-79262646D02*
X194918023Y-79123210D01*
X194919763Y-79017963D01*
X194922900Y-78941324D01*
X194927836Y-78887710D01*
X194934976Y-78851537D01*
X194944724Y-78827221D01*
X194957484Y-78809181D01*
X194963356Y-78802649D01*
X195025750Y-78762922D01*
X195097441Y-78755769D01*
X195161087Y-78781903D01*
X195173950Y-78793987D01*
X195186421Y-78813532D01*
X195196043Y-78845003D01*
X195203282Y-78894236D01*
X195208606Y-78967066D01*
X195212485Y-79069329D01*
X195215387Y-79206862D01*
X195217152Y-79332603D01*
X195223277Y-79830248D01*
X195353678Y-79837049D01*
X195484080Y-79843850D01*
X195484080Y-79506055D01*
X195485345Y-79359406D01*
X195490637Y-79252044D01*
X195502201Y-79177937D01*
X195522281Y-79131049D01*
X195553121Y-79105347D01*
X195596967Y-79094796D01*
X195637660Y-79093194D01*
X195687591Y-79098173D01*
X195724383Y-79116964D01*
X195749958Y-79155347D01*
X195766239Y-79219100D01*
X195775149Y-79314004D01*
X195778610Y-79445838D01*
X195778902Y-79517794D01*
X195778902Y-79841587D01*
X196096402Y-79841587D01*
X196096402Y-79342658D01*
X196096629Y-79179113D01*
X196097652Y-79054817D01*
X196099979Y-78963666D01*
X196104118Y-78899552D01*
X196110580Y-78856370D01*
X196119871Y-78828013D01*
X196132502Y-78808375D01*
X196141759Y-78798373D01*
X196195786Y-78764062D01*
X196243812Y-78753015D01*
X196302474Y-78768789D01*
X196345866Y-78798373D01*
X196359526Y-78814156D01*
X196370133Y-78834531D01*
X196378071Y-78864978D01*
X196383726Y-78910977D01*
X196387482Y-78978010D01*
X196389723Y-79071558D01*
X196390834Y-79197100D01*
X196391199Y-79360118D01*
X196391223Y-79444712D01*
X196391063Y-79625868D01*
X196390325Y-79767148D01*
X196388627Y-79874032D01*
X196385582Y-79952002D01*
X196380806Y-80006539D01*
X196373915Y-80043122D01*
X196364524Y-80067233D01*
X196352248Y-80084353D01*
X196345866Y-80091051D01*
X196330605Y-80104308D01*
X196310916Y-80114699D01*
X196281524Y-80122571D01*
X196237153Y-80128273D01*
X196172526Y-80132152D01*
X196082367Y-80134557D01*
X195961401Y-80135836D01*
X195804351Y-80136335D01*
X195658123Y-80136408D01*
X195470857Y-80136341D01*
X195323651Y-80135870D01*
X195211205Y-80134593D01*
X195128222Y-80132109D01*
X195069403Y-80128016D01*
X195029450Y-80121911D01*
X195003064Y-80113392D01*
X194984948Y-80102058D01*
X194969803Y-80087505D01*
X194966426Y-80083920D01*
X194951478Y-80066521D01*
X194939903Y-80046305D01*
X194931268Y-80017664D01*
X194925145Y-79974989D01*
X194921102Y-79912675D01*
X194918709Y-79825112D01*
X194917534Y-79706693D01*
X194917148Y-79551811D01*
X194917116Y-79441857D01*
X194917275Y-79262646D01*
G36*
X194919696Y-77211346D02*
G01*
X194930203Y-77061048D01*
X194946614Y-76921263D01*
X194968310Y-76800117D01*
X194994673Y-76705734D01*
X195025087Y-76646241D01*
X195034040Y-76637109D01*
X195103511Y-76605355D01*
X195174831Y-76614984D01*
X195235850Y-76664237D01*
X195237598Y-76666587D01*
X195256399Y-76695557D01*
X195266285Y-76725799D01*
X195267486Y-76767981D01*
X195260230Y-76832772D01*
X195244747Y-76930841D01*
X195243444Y-76938730D01*
X195225492Y-77084857D01*
X195216636Y-77242514D01*
X195216550Y-77400636D01*
X195224908Y-77548160D01*
X195241382Y-77674020D01*
X195265646Y-77767152D01*
X195268085Y-77773271D01*
X195305940Y-77840835D01*
X195344250Y-77864573D01*
X195381927Y-77845990D01*
X195417883Y-77786591D01*
X195451029Y-77687881D01*
X195480277Y-77551365D01*
X195494359Y-77460337D01*
X195521446Y-77271118D01*
X195546207Y-77120625D01*
X195570786Y-77002446D01*
X195597328Y-76910171D01*
X195627976Y-76837390D01*
X195664875Y-76777690D01*
X195710168Y-76724662D01*
X195754646Y-76682049D01*
X195816618Y-76631494D01*
X195869907Y-76606615D01*
X195935562Y-76598834D01*
X195959606Y-76598551D01*
X196039394Y-76604395D01*
X196098753Y-76627751D01*
X196151439Y-76668173D01*
X196231977Y-76750324D01*
X196293397Y-76841932D01*
X196337702Y-76949804D01*
X196366895Y-77080745D01*
X196382979Y-77241564D01*
X196387956Y-77439066D01*
X196387872Y-77471676D01*
X196385142Y-77603381D01*
X196378939Y-77733995D01*
X196370153Y-77849281D01*
X196359673Y-77935000D01*
X196358470Y-77941933D01*
X196338281Y-78027159D01*
X196312778Y-78099447D01*
X196289462Y-78140370D01*
X196227952Y-78178454D01*
X196156325Y-78181105D01*
X196092494Y-78148275D01*
X196085276Y-78140930D01*
X196063830Y-78110568D01*
X196054590Y-78072598D01*
X196056163Y-78013832D01*
X196064336Y-77942492D01*
X196071637Y-77862777D01*
X196077797Y-77751029D01*
X196082267Y-77620572D01*
X196084499Y-77484726D01*
X196084646Y-77448998D01*
X196084096Y-77312646D01*
X196081449Y-77212856D01*
X196075786Y-77140848D01*
X196066189Y-77087840D01*
X196051740Y-77045053D01*
X196039705Y-77019340D01*
X196006288Y-76962837D01*
X195976024Y-76926813D01*
X195967445Y-76921548D01*
X195932019Y-76932655D01*
X195897724Y-76985457D01*
X195866117Y-77076296D01*
X195838754Y-77201512D01*
X195832659Y-77238404D01*
X195802393Y-77431098D01*
X195777096Y-77584884D01*
X195754929Y-77705697D01*
X195734053Y-77799475D01*
X195712630Y-77872151D01*
X195688822Y-77929663D01*
X195660791Y-77977945D01*
X195626698Y-78022933D01*
X195584705Y-78070563D01*
X195569982Y-78086591D01*
X195515037Y-78142786D01*
X195471504Y-78172532D01*
X195421688Y-78184169D01*
X195358912Y-78186051D01*
X195235808Y-78165331D01*
X195131214Y-78103409D01*
X195045468Y-78000639D01*
X194978907Y-77857378D01*
X194949052Y-77755158D01*
X194929770Y-77644063D01*
X194918862Y-77510979D01*
X194915710Y-77364032D01*
X194919696Y-77211346D01*
G37*
X194919696Y-77211346D02*
X194930203Y-77061048D01*
X194946614Y-76921263D01*
X194968310Y-76800117D01*
X194994673Y-76705734D01*
X195025087Y-76646241D01*
X195034040Y-76637109D01*
X195103511Y-76605355D01*
X195174831Y-76614984D01*
X195235850Y-76664237D01*
X195237598Y-76666587D01*
X195256399Y-76695557D01*
X195266285Y-76725799D01*
X195267486Y-76767981D01*
X195260230Y-76832772D01*
X195244747Y-76930841D01*
X195243444Y-76938730D01*
X195225492Y-77084857D01*
X195216636Y-77242514D01*
X195216550Y-77400636D01*
X195224908Y-77548160D01*
X195241382Y-77674020D01*
X195265646Y-77767152D01*
X195268085Y-77773271D01*
X195305940Y-77840835D01*
X195344250Y-77864573D01*
X195381927Y-77845990D01*
X195417883Y-77786591D01*
X195451029Y-77687881D01*
X195480277Y-77551365D01*
X195494359Y-77460337D01*
X195521446Y-77271118D01*
X195546207Y-77120625D01*
X195570786Y-77002446D01*
X195597328Y-76910171D01*
X195627976Y-76837390D01*
X195664875Y-76777690D01*
X195710168Y-76724662D01*
X195754646Y-76682049D01*
X195816618Y-76631494D01*
X195869907Y-76606615D01*
X195935562Y-76598834D01*
X195959606Y-76598551D01*
X196039394Y-76604395D01*
X196098753Y-76627751D01*
X196151439Y-76668173D01*
X196231977Y-76750324D01*
X196293397Y-76841932D01*
X196337702Y-76949804D01*
X196366895Y-77080745D01*
X196382979Y-77241564D01*
X196387956Y-77439066D01*
X196387872Y-77471676D01*
X196385142Y-77603381D01*
X196378939Y-77733995D01*
X196370153Y-77849281D01*
X196359673Y-77935000D01*
X196358470Y-77941933D01*
X196338281Y-78027159D01*
X196312778Y-78099447D01*
X196289462Y-78140370D01*
X196227952Y-78178454D01*
X196156325Y-78181105D01*
X196092494Y-78148275D01*
X196085276Y-78140930D01*
X196063830Y-78110568D01*
X196054590Y-78072598D01*
X196056163Y-78013832D01*
X196064336Y-77942492D01*
X196071637Y-77862777D01*
X196077797Y-77751029D01*
X196082267Y-77620572D01*
X196084499Y-77484726D01*
X196084646Y-77448998D01*
X196084096Y-77312646D01*
X196081449Y-77212856D01*
X196075786Y-77140848D01*
X196066189Y-77087840D01*
X196051740Y-77045053D01*
X196039705Y-77019340D01*
X196006288Y-76962837D01*
X195976024Y-76926813D01*
X195967445Y-76921548D01*
X195932019Y-76932655D01*
X195897724Y-76985457D01*
X195866117Y-77076296D01*
X195838754Y-77201512D01*
X195832659Y-77238404D01*
X195802393Y-77431098D01*
X195777096Y-77584884D01*
X195754929Y-77705697D01*
X195734053Y-77799475D01*
X195712630Y-77872151D01*
X195688822Y-77929663D01*
X195660791Y-77977945D01*
X195626698Y-78022933D01*
X195584705Y-78070563D01*
X195569982Y-78086591D01*
X195515037Y-78142786D01*
X195471504Y-78172532D01*
X195421688Y-78184169D01*
X195358912Y-78186051D01*
X195235808Y-78165331D01*
X195131214Y-78103409D01*
X195045468Y-78000639D01*
X194978907Y-77857378D01*
X194949052Y-77755158D01*
X194929770Y-77644063D01*
X194918862Y-77510979D01*
X194915710Y-77364032D01*
X194919696Y-77211346D01*
G36*
X194962473Y-75668730D02*
G01*
X194977687Y-75655509D01*
X194997314Y-75645139D01*
X195026611Y-75637273D01*
X195070836Y-75631567D01*
X195135247Y-75627677D01*
X195225101Y-75625258D01*
X195345657Y-75623964D01*
X195502171Y-75623452D01*
X195654169Y-75623373D01*
X195842701Y-75623513D01*
X195991133Y-75624162D01*
X196104724Y-75625666D01*
X196188732Y-75628369D01*
X196248413Y-75632616D01*
X196289025Y-75638752D01*
X196315827Y-75647121D01*
X196334076Y-75658069D01*
X196345866Y-75668730D01*
X196385403Y-75735031D01*
X196381854Y-75805676D01*
X196338734Y-75868884D01*
X196321900Y-75883407D01*
X196302367Y-75894757D01*
X196274738Y-75903325D01*
X196233612Y-75909502D01*
X196173591Y-75913678D01*
X196089274Y-75916245D01*
X195975263Y-75917592D01*
X195826157Y-75918112D01*
X195657346Y-75918194D01*
X195028447Y-75918194D01*
X194972781Y-75862528D01*
X194925948Y-75793914D01*
X194924261Y-75727357D01*
X194962473Y-75668730D01*
G37*
X194962473Y-75668730D02*
X194977687Y-75655509D01*
X194997314Y-75645139D01*
X195026611Y-75637273D01*
X195070836Y-75631567D01*
X195135247Y-75627677D01*
X195225101Y-75625258D01*
X195345657Y-75623964D01*
X195502171Y-75623452D01*
X195654169Y-75623373D01*
X195842701Y-75623513D01*
X195991133Y-75624162D01*
X196104724Y-75625666D01*
X196188732Y-75628369D01*
X196248413Y-75632616D01*
X196289025Y-75638752D01*
X196315827Y-75647121D01*
X196334076Y-75658069D01*
X196345866Y-75668730D01*
X196385403Y-75735031D01*
X196381854Y-75805676D01*
X196338734Y-75868884D01*
X196321900Y-75883407D01*
X196302367Y-75894757D01*
X196274738Y-75903325D01*
X196233612Y-75909502D01*
X196173591Y-75913678D01*
X196089274Y-75916245D01*
X195975263Y-75917592D01*
X195826157Y-75918112D01*
X195657346Y-75918194D01*
X195028447Y-75918194D01*
X194972781Y-75862528D01*
X194925948Y-75793914D01*
X194924261Y-75727357D01*
X194962473Y-75668730D01*
G36*
X194928229Y-73712553D02*
G01*
X194951325Y-73574908D01*
X194987228Y-73469194D01*
X195034501Y-73400420D01*
X195061471Y-73381679D01*
X195124198Y-73362621D01*
X195180945Y-73375446D01*
X195234758Y-73415933D01*
X195259933Y-73478842D01*
X195257888Y-73570123D01*
X195244249Y-73640724D01*
X195218263Y-73797606D01*
X195215793Y-73957934D01*
X195236886Y-74137389D01*
X195245823Y-74186958D01*
X195292869Y-74353823D01*
X195362852Y-74484366D01*
X195454579Y-74577156D01*
X195566857Y-74630761D01*
X195624905Y-74641848D01*
X195742676Y-74634591D01*
X195846873Y-74587739D01*
X195935465Y-74505562D01*
X196006421Y-74392329D01*
X196057710Y-74252309D01*
X196087302Y-74089771D01*
X196093166Y-73908985D01*
X196073271Y-73714218D01*
X196071395Y-73703221D01*
X196056966Y-73625754D01*
X196043029Y-73582802D01*
X196022349Y-73564185D01*
X195987693Y-73559724D01*
X195969341Y-73559623D01*
X195892294Y-73559623D01*
X195892294Y-73697185D01*
X195883973Y-73818662D01*
X195857455Y-73901561D01*
X195810412Y-73949794D01*
X195740513Y-73967276D01*
X195731390Y-73967490D01*
X195671645Y-73957261D01*
X195628984Y-73922188D01*
X195600752Y-73856910D01*
X195584294Y-73756070D01*
X195578243Y-73658395D01*
X195574771Y-73516431D01*
X195580069Y-73413457D01*
X195599616Y-73343227D01*
X195638896Y-73299494D01*
X195703389Y-73276010D01*
X195798577Y-73266529D01*
X195923598Y-73264801D01*
X196063146Y-73267632D01*
X196158070Y-73276147D01*
X196208747Y-73290386D01*
X196212716Y-73293149D01*
X196276039Y-73371330D01*
X196326185Y-73485955D01*
X196362085Y-73629760D01*
X196382667Y-73795476D01*
X196386860Y-73975838D01*
X196373592Y-74163578D01*
X196357295Y-74273998D01*
X196308274Y-74447188D01*
X196228133Y-74608154D01*
X196124121Y-74742924D01*
X196103332Y-74763408D01*
X196015936Y-74829961D01*
X195907621Y-74890011D01*
X195794063Y-74936544D01*
X195690940Y-74962543D01*
X195651334Y-74965676D01*
X195568717Y-74952336D01*
X195465926Y-74916880D01*
X195357729Y-74866111D01*
X195258892Y-74806832D01*
X195192875Y-74754459D01*
X195094675Y-74632006D01*
X195016515Y-74473712D01*
X194960162Y-74285249D01*
X194927386Y-74072290D01*
X194919377Y-73877123D01*
X194928229Y-73712553D01*
G37*
X194928229Y-73712553D02*
X194951325Y-73574908D01*
X194987228Y-73469194D01*
X195034501Y-73400420D01*
X195061471Y-73381679D01*
X195124198Y-73362621D01*
X195180945Y-73375446D01*
X195234758Y-73415933D01*
X195259933Y-73478842D01*
X195257888Y-73570123D01*
X195244249Y-73640724D01*
X195218263Y-73797606D01*
X195215793Y-73957934D01*
X195236886Y-74137389D01*
X195245823Y-74186958D01*
X195292869Y-74353823D01*
X195362852Y-74484366D01*
X195454579Y-74577156D01*
X195566857Y-74630761D01*
X195624905Y-74641848D01*
X195742676Y-74634591D01*
X195846873Y-74587739D01*
X195935465Y-74505562D01*
X196006421Y-74392329D01*
X196057710Y-74252309D01*
X196087302Y-74089771D01*
X196093166Y-73908985D01*
X196073271Y-73714218D01*
X196071395Y-73703221D01*
X196056966Y-73625754D01*
X196043029Y-73582802D01*
X196022349Y-73564185D01*
X195987693Y-73559724D01*
X195969341Y-73559623D01*
X195892294Y-73559623D01*
X195892294Y-73697185D01*
X195883973Y-73818662D01*
X195857455Y-73901561D01*
X195810412Y-73949794D01*
X195740513Y-73967276D01*
X195731390Y-73967490D01*
X195671645Y-73957261D01*
X195628984Y-73922188D01*
X195600752Y-73856910D01*
X195584294Y-73756070D01*
X195578243Y-73658395D01*
X195574771Y-73516431D01*
X195580069Y-73413457D01*
X195599616Y-73343227D01*
X195638896Y-73299494D01*
X195703389Y-73276010D01*
X195798577Y-73266529D01*
X195923598Y-73264801D01*
X196063146Y-73267632D01*
X196158070Y-73276147D01*
X196208747Y-73290386D01*
X196212716Y-73293149D01*
X196276039Y-73371330D01*
X196326185Y-73485955D01*
X196362085Y-73629760D01*
X196382667Y-73795476D01*
X196386860Y-73975838D01*
X196373592Y-74163578D01*
X196357295Y-74273998D01*
X196308274Y-74447188D01*
X196228133Y-74608154D01*
X196124121Y-74742924D01*
X196103332Y-74763408D01*
X196015936Y-74829961D01*
X195907621Y-74890011D01*
X195794063Y-74936544D01*
X195690940Y-74962543D01*
X195651334Y-74965676D01*
X195568717Y-74952336D01*
X195465926Y-74916880D01*
X195357729Y-74866111D01*
X195258892Y-74806832D01*
X195192875Y-74754459D01*
X195094675Y-74632006D01*
X195016515Y-74473712D01*
X194960162Y-74285249D01*
X194927386Y-74072290D01*
X194919377Y-73877123D01*
X194928229Y-73712553D01*
G36*
X194925918Y-72406815D02*
G01*
X194953690Y-72359473D01*
X194999108Y-72297572D01*
X195064312Y-72217903D01*
X195151440Y-72117260D01*
X195262633Y-71992432D01*
X195400030Y-71840212D01*
X195557999Y-71665962D01*
X195887050Y-71303105D01*
X195445388Y-71291765D01*
X195293357Y-71287671D01*
X195180140Y-71283722D01*
X195099203Y-71279042D01*
X195044016Y-71272759D01*
X195008045Y-71263998D01*
X194984758Y-71251886D01*
X194967622Y-71235549D01*
X194960421Y-71226887D01*
X194922346Y-71157517D01*
X194927913Y-71091507D01*
X194960440Y-71039144D01*
X195003765Y-70985605D01*
X195636482Y-70978946D01*
X195822564Y-70977103D01*
X195968744Y-70976165D01*
X196080474Y-70976457D01*
X196163205Y-70978303D01*
X196222389Y-70982030D01*
X196263476Y-70987960D01*
X196291919Y-70996420D01*
X196313168Y-71007733D01*
X196330211Y-71020280D01*
X196361818Y-71047424D01*
X196382769Y-71074433D01*
X196390811Y-71105050D01*
X196383688Y-71143023D01*
X196359149Y-71192098D01*
X196314937Y-71256020D01*
X196248799Y-71338535D01*
X196158482Y-71443390D01*
X196041731Y-71574331D01*
X195907582Y-71722658D01*
X195424152Y-72255605D01*
X195864370Y-72266944D01*
X196016124Y-72271045D01*
X196129077Y-72275005D01*
X196209775Y-72279701D01*
X196264764Y-72286013D01*
X196300588Y-72294817D01*
X196323793Y-72306992D01*
X196340924Y-72323417D01*
X196347906Y-72331823D01*
X196386257Y-72406114D01*
X196380472Y-72476312D01*
X196331468Y-72537441D01*
X196311753Y-72551425D01*
X196288729Y-72562324D01*
X196256872Y-72570521D01*
X196210658Y-72576400D01*
X196144563Y-72580344D01*
X196053062Y-72582736D01*
X195930634Y-72583959D01*
X195771752Y-72584398D01*
X195654169Y-72584444D01*
X195470256Y-72584297D01*
X195326175Y-72583599D01*
X195216403Y-72581967D01*
X195135416Y-72579019D01*
X195077691Y-72574369D01*
X195037704Y-72567637D01*
X195009930Y-72558437D01*
X194988846Y-72546386D01*
X194976871Y-72537441D01*
X194948503Y-72514766D01*
X194927085Y-72493575D01*
X194914755Y-72470658D01*
X194913653Y-72442808D01*
X194925918Y-72406815D01*
G37*
X194925918Y-72406815D02*
X194953690Y-72359473D01*
X194999108Y-72297572D01*
X195064312Y-72217903D01*
X195151440Y-72117260D01*
X195262633Y-71992432D01*
X195400030Y-71840212D01*
X195557999Y-71665962D01*
X195887050Y-71303105D01*
X195445388Y-71291765D01*
X195293357Y-71287671D01*
X195180140Y-71283722D01*
X195099203Y-71279042D01*
X195044016Y-71272759D01*
X195008045Y-71263998D01*
X194984758Y-71251886D01*
X194967622Y-71235549D01*
X194960421Y-71226887D01*
X194922346Y-71157517D01*
X194927913Y-71091507D01*
X194960440Y-71039144D01*
X195003765Y-70985605D01*
X195636482Y-70978946D01*
X195822564Y-70977103D01*
X195968744Y-70976165D01*
X196080474Y-70976457D01*
X196163205Y-70978303D01*
X196222389Y-70982030D01*
X196263476Y-70987960D01*
X196291919Y-70996420D01*
X196313168Y-71007733D01*
X196330211Y-71020280D01*
X196361818Y-71047424D01*
X196382769Y-71074433D01*
X196390811Y-71105050D01*
X196383688Y-71143023D01*
X196359149Y-71192098D01*
X196314937Y-71256020D01*
X196248799Y-71338535D01*
X196158482Y-71443390D01*
X196041731Y-71574331D01*
X195907582Y-71722658D01*
X195424152Y-72255605D01*
X195864370Y-72266944D01*
X196016124Y-72271045D01*
X196129077Y-72275005D01*
X196209775Y-72279701D01*
X196264764Y-72286013D01*
X196300588Y-72294817D01*
X196323793Y-72306992D01*
X196340924Y-72323417D01*
X196347906Y-72331823D01*
X196386257Y-72406114D01*
X196380472Y-72476312D01*
X196331468Y-72537441D01*
X196311753Y-72551425D01*
X196288729Y-72562324D01*
X196256872Y-72570521D01*
X196210658Y-72576400D01*
X196144563Y-72580344D01*
X196053062Y-72582736D01*
X195930634Y-72583959D01*
X195771752Y-72584398D01*
X195654169Y-72584444D01*
X195470256Y-72584297D01*
X195326175Y-72583599D01*
X195216403Y-72581967D01*
X195135416Y-72579019D01*
X195077691Y-72574369D01*
X195037704Y-72567637D01*
X195009930Y-72558437D01*
X194988846Y-72546386D01*
X194976871Y-72537441D01*
X194948503Y-72514766D01*
X194927085Y-72493575D01*
X194914755Y-72470658D01*
X194913653Y-72442808D01*
X194925918Y-72406815D01*
G36*
X194917503Y-69332237D02*
G01*
X194919340Y-69178838D01*
X194923634Y-69061285D01*
X194931395Y-68974824D01*
X194943633Y-68914700D01*
X194961358Y-68876160D01*
X194985579Y-68854448D01*
X195017305Y-68844810D01*
X195057546Y-68842492D01*
X195062298Y-68842480D01*
X195107814Y-68844492D01*
X195142992Y-68854005D01*
X195169251Y-68876229D01*
X195188012Y-68916378D01*
X195200696Y-68979664D01*
X195208722Y-69071298D01*
X195213512Y-69196493D01*
X195216484Y-69360461D01*
X195217143Y-69410717D01*
X195223277Y-69897033D01*
X195353678Y-69903835D01*
X195484080Y-69910636D01*
X195484080Y-69572841D01*
X195484567Y-69440873D01*
X195486626Y-69346643D01*
X195491155Y-69282535D01*
X195499053Y-69240936D01*
X195511218Y-69214230D01*
X195528548Y-69194802D01*
X195528686Y-69194678D01*
X195596224Y-69159443D01*
X195669221Y-69160717D01*
X195731448Y-69197696D01*
X195737844Y-69205015D01*
X195754328Y-69230990D01*
X195765796Y-69266583D01*
X195773111Y-69319727D01*
X195777138Y-69398352D01*
X195778740Y-69510390D01*
X195778902Y-69582046D01*
X195778902Y-69908373D01*
X196096402Y-69908373D01*
X196096402Y-69412959D01*
X196096688Y-69249394D01*
X196097857Y-69125183D01*
X196100377Y-69034325D01*
X196104715Y-68970820D01*
X196111337Y-68928667D01*
X196120710Y-68901864D01*
X196133302Y-68884411D01*
X196137875Y-68880013D01*
X196201249Y-68847540D01*
X196273347Y-68845164D01*
X196335858Y-68871805D01*
X196355919Y-68892883D01*
X196366963Y-68914810D01*
X196375508Y-68948785D01*
X196381852Y-69000182D01*
X196386295Y-69074375D01*
X196389136Y-69176739D01*
X196390675Y-69312647D01*
X196391210Y-69487475D01*
X196391223Y-69527000D01*
X196391107Y-69704756D01*
X196390465Y-69842738D01*
X196388857Y-69946524D01*
X196385844Y-70021697D01*
X196380986Y-70073839D01*
X196373844Y-70108529D01*
X196363977Y-70131350D01*
X196350946Y-70147883D01*
X196341589Y-70156953D01*
X196325017Y-70170606D01*
X196304487Y-70181272D01*
X196274616Y-70189320D01*
X196230021Y-70195116D01*
X196165317Y-70199027D01*
X196075120Y-70201423D01*
X195954047Y-70202670D01*
X195796713Y-70203136D01*
X195664291Y-70203194D01*
X195478735Y-70203051D01*
X195333065Y-70202374D01*
X195221811Y-70200788D01*
X195139501Y-70197919D01*
X195080666Y-70193393D01*
X195039834Y-70186836D01*
X195011535Y-70177874D01*
X194990298Y-70166133D01*
X194976871Y-70156191D01*
X194917116Y-70109188D01*
X194917116Y-69526237D01*
X194917503Y-69332237D01*
G37*
X194917503Y-69332237D02*
X194919340Y-69178838D01*
X194923634Y-69061285D01*
X194931395Y-68974824D01*
X194943633Y-68914700D01*
X194961358Y-68876160D01*
X194985579Y-68854448D01*
X195017305Y-68844810D01*
X195057546Y-68842492D01*
X195062298Y-68842480D01*
X195107814Y-68844492D01*
X195142992Y-68854005D01*
X195169251Y-68876229D01*
X195188012Y-68916378D01*
X195200696Y-68979664D01*
X195208722Y-69071298D01*
X195213512Y-69196493D01*
X195216484Y-69360461D01*
X195217143Y-69410717D01*
X195223277Y-69897033D01*
X195353678Y-69903835D01*
X195484080Y-69910636D01*
X195484080Y-69572841D01*
X195484567Y-69440873D01*
X195486626Y-69346643D01*
X195491155Y-69282535D01*
X195499053Y-69240936D01*
X195511218Y-69214230D01*
X195528548Y-69194802D01*
X195528686Y-69194678D01*
X195596224Y-69159443D01*
X195669221Y-69160717D01*
X195731448Y-69197696D01*
X195737844Y-69205015D01*
X195754328Y-69230990D01*
X195765796Y-69266583D01*
X195773111Y-69319727D01*
X195777138Y-69398352D01*
X195778740Y-69510390D01*
X195778902Y-69582046D01*
X195778902Y-69908373D01*
X196096402Y-69908373D01*
X196096402Y-69412959D01*
X196096688Y-69249394D01*
X196097857Y-69125183D01*
X196100377Y-69034325D01*
X196104715Y-68970820D01*
X196111337Y-68928667D01*
X196120710Y-68901864D01*
X196133302Y-68884411D01*
X196137875Y-68880013D01*
X196201249Y-68847540D01*
X196273347Y-68845164D01*
X196335858Y-68871805D01*
X196355919Y-68892883D01*
X196366963Y-68914810D01*
X196375508Y-68948785D01*
X196381852Y-69000182D01*
X196386295Y-69074375D01*
X196389136Y-69176739D01*
X196390675Y-69312647D01*
X196391210Y-69487475D01*
X196391223Y-69527000D01*
X196391107Y-69704756D01*
X196390465Y-69842738D01*
X196388857Y-69946524D01*
X196385844Y-70021697D01*
X196380986Y-70073839D01*
X196373844Y-70108529D01*
X196363977Y-70131350D01*
X196350946Y-70147883D01*
X196341589Y-70156953D01*
X196325017Y-70170606D01*
X196304487Y-70181272D01*
X196274616Y-70189320D01*
X196230021Y-70195116D01*
X196165317Y-70199027D01*
X196075120Y-70201423D01*
X195954047Y-70202670D01*
X195796713Y-70203136D01*
X195664291Y-70203194D01*
X195478735Y-70203051D01*
X195333065Y-70202374D01*
X195221811Y-70200788D01*
X195139501Y-70197919D01*
X195080666Y-70193393D01*
X195039834Y-70186836D01*
X195011535Y-70177874D01*
X194990298Y-70166133D01*
X194976871Y-70156191D01*
X194917116Y-70109188D01*
X194917116Y-69526237D01*
X194917503Y-69332237D01*
G36*
X194917534Y-67749270D02*
G01*
X194926295Y-67490159D01*
X194952863Y-67269774D01*
X194998828Y-67084481D01*
X195065783Y-66930645D01*
X195155316Y-66804634D01*
X195269019Y-66702813D01*
X195408482Y-66621549D01*
X195411883Y-66619950D01*
X195536702Y-66571451D01*
X195647246Y-66554171D01*
X195758497Y-66568175D01*
X195885433Y-66613532D01*
X195904749Y-66622134D01*
X196017806Y-66680794D01*
X196105165Y-66746720D01*
X196179427Y-66831806D01*
X196253191Y-66947946D01*
X196257042Y-66954693D01*
X196305608Y-67055796D01*
X196341879Y-67170071D01*
X196367106Y-67304859D01*
X196382539Y-67467505D01*
X196389431Y-67665351D01*
X196390030Y-67735253D01*
X196391223Y-68068116D01*
X196331468Y-68115119D01*
X196311819Y-68129062D01*
X196288873Y-68139939D01*
X196257129Y-68148129D01*
X196211082Y-68154013D01*
X196145233Y-68157969D01*
X196096402Y-68159259D01*
X196096402Y-67844623D01*
X196096402Y-67656020D01*
X196093174Y-67545655D01*
X196084681Y-67432359D01*
X196072703Y-67339375D01*
X196071694Y-67333762D01*
X196027388Y-67168610D01*
X195960822Y-67040510D01*
X195868907Y-66945410D01*
X195748555Y-66879257D01*
X195716658Y-66867753D01*
X195666980Y-66856478D01*
X195617900Y-66861360D01*
X195552607Y-66885113D01*
X195520532Y-66899431D01*
X195435297Y-66946318D01*
X195375499Y-67002809D01*
X195333857Y-67064965D01*
X195279668Y-67189468D01*
X195240415Y-67348806D01*
X195217812Y-67534427D01*
X195212837Y-67668864D01*
X195211937Y-67844623D01*
X196096402Y-67844623D01*
X196096402Y-68159259D01*
X196054078Y-68160378D01*
X195932115Y-68161619D01*
X195773841Y-68162072D01*
X195650080Y-68162123D01*
X195028447Y-68162123D01*
X194972781Y-68106457D01*
X194950218Y-68081752D01*
X194934766Y-68055039D01*
X194925098Y-68017736D01*
X194919887Y-67961257D01*
X194917805Y-67877022D01*
X194917524Y-67756445D01*
X194917534Y-67749270D01*
G37*
X194917534Y-67749270D02*
X194926295Y-67490159D01*
X194952863Y-67269774D01*
X194998828Y-67084481D01*
X195065783Y-66930645D01*
X195155316Y-66804634D01*
X195269019Y-66702813D01*
X195408482Y-66621549D01*
X195411883Y-66619950D01*
X195536702Y-66571451D01*
X195647246Y-66554171D01*
X195758497Y-66568175D01*
X195885433Y-66613532D01*
X195904749Y-66622134D01*
X196017806Y-66680794D01*
X196105165Y-66746720D01*
X196179427Y-66831806D01*
X196253191Y-66947946D01*
X196257042Y-66954693D01*
X196305608Y-67055796D01*
X196341879Y-67170071D01*
X196367106Y-67304859D01*
X196382539Y-67467505D01*
X196389431Y-67665351D01*
X196390030Y-67735253D01*
X196391223Y-68068116D01*
X196331468Y-68115119D01*
X196311819Y-68129062D01*
X196288873Y-68139939D01*
X196257129Y-68148129D01*
X196211082Y-68154013D01*
X196145233Y-68157969D01*
X196096402Y-68159259D01*
X196096402Y-67844623D01*
X196096402Y-67656020D01*
X196093174Y-67545655D01*
X196084681Y-67432359D01*
X196072703Y-67339375D01*
X196071694Y-67333762D01*
X196027388Y-67168610D01*
X195960822Y-67040510D01*
X195868907Y-66945410D01*
X195748555Y-66879257D01*
X195716658Y-66867753D01*
X195666980Y-66856478D01*
X195617900Y-66861360D01*
X195552607Y-66885113D01*
X195520532Y-66899431D01*
X195435297Y-66946318D01*
X195375499Y-67002809D01*
X195333857Y-67064965D01*
X195279668Y-67189468D01*
X195240415Y-67348806D01*
X195217812Y-67534427D01*
X195212837Y-67668864D01*
X195211937Y-67844623D01*
X196096402Y-67844623D01*
X196096402Y-68159259D01*
X196054078Y-68160378D01*
X195932115Y-68161619D01*
X195773841Y-68162072D01*
X195650080Y-68162123D01*
X195028447Y-68162123D01*
X194972781Y-68106457D01*
X194950218Y-68081752D01*
X194934766Y-68055039D01*
X194925098Y-68017736D01*
X194919887Y-67961257D01*
X194917805Y-67877022D01*
X194917524Y-67756445D01*
X194917534Y-67749270D01*
G36*
X194921068Y-62272215D02*
G01*
X194935132Y-62232861D01*
X194935820Y-62231342D01*
X194976604Y-62177900D01*
X195018555Y-62148455D01*
X195038224Y-62142693D01*
X195064360Y-62142978D01*
X195101591Y-62151085D01*
X195154551Y-62168792D01*
X195227868Y-62197876D01*
X195326174Y-62240113D01*
X195454099Y-62297280D01*
X195616275Y-62371154D01*
X195704916Y-62411816D01*
X195863158Y-62485241D01*
X196008680Y-62554169D01*
X196136160Y-62615968D01*
X196240279Y-62668009D01*
X196315716Y-62707659D01*
X196357151Y-62732289D01*
X196362875Y-62737163D01*
X196388125Y-62799522D01*
X196384743Y-62869960D01*
X196354033Y-62926452D01*
X196351535Y-62928754D01*
X196317515Y-62951226D01*
X196251251Y-62988922D01*
X196161272Y-63037194D01*
X196056109Y-63091392D01*
X196017356Y-63110870D01*
X195722863Y-63257898D01*
X196042772Y-63418157D01*
X196153306Y-63475359D01*
X196249167Y-63528429D01*
X196323016Y-63573031D01*
X196367516Y-63604830D01*
X196376952Y-63615607D01*
X196389732Y-63699374D01*
X196362875Y-63768496D01*
X196334172Y-63788829D01*
X196270381Y-63824014D01*
X196177779Y-63871181D01*
X196062643Y-63927460D01*
X195931249Y-63989981D01*
X195789875Y-64055873D01*
X195644797Y-64122266D01*
X195502293Y-64186290D01*
X195368640Y-64245074D01*
X195250114Y-64295748D01*
X195152992Y-64335442D01*
X195083552Y-64361285D01*
X195048070Y-64370408D01*
X195046785Y-64370315D01*
X195002137Y-64348119D01*
X194956663Y-64303754D01*
X194954685Y-64301141D01*
X194923863Y-64246614D01*
X194924161Y-64196179D01*
X194929972Y-64177276D01*
X194942530Y-64154241D01*
X194967234Y-64129780D01*
X195009207Y-64100958D01*
X195073575Y-64064840D01*
X195165463Y-64018492D01*
X195289994Y-63958981D01*
X195404946Y-63905313D01*
X195538195Y-63843568D01*
X195658023Y-63788240D01*
X195758171Y-63742203D01*
X195832378Y-63708330D01*
X195874384Y-63689498D01*
X195880955Y-63686751D01*
X195870213Y-63674398D01*
X195825236Y-63646007D01*
X195752588Y-63605355D01*
X195658834Y-63556221D01*
X195620152Y-63536669D01*
X195489535Y-63470435D01*
X195394411Y-63419356D01*
X195329252Y-63379240D01*
X195288525Y-63345896D01*
X195266701Y-63315131D01*
X195258249Y-63282755D01*
X195257294Y-63261656D01*
X195260592Y-63224438D01*
X195274232Y-63191824D01*
X195303834Y-63159418D01*
X195355016Y-63122824D01*
X195433398Y-63077646D01*
X195544600Y-63019488D01*
X195607858Y-62987400D01*
X195708675Y-62935352D01*
X195792280Y-62889956D01*
X195851620Y-62855220D01*
X195879639Y-62835147D01*
X195880806Y-62832417D01*
X195858754Y-62819454D01*
X195801493Y-62790431D01*
X195715016Y-62748255D01*
X195605316Y-62695832D01*
X195478386Y-62636069D01*
X195415339Y-62606671D01*
X195252630Y-62530192D01*
X195127429Y-62468608D01*
X195035651Y-62418722D01*
X194973210Y-62377337D01*
X194936023Y-62341256D01*
X194920004Y-62307281D01*
X194921068Y-62272215D01*
G37*
X194921068Y-62272215D02*
X194935132Y-62232861D01*
X194935820Y-62231342D01*
X194976604Y-62177900D01*
X195018555Y-62148455D01*
X195038224Y-62142693D01*
X195064360Y-62142978D01*
X195101591Y-62151085D01*
X195154551Y-62168792D01*
X195227868Y-62197876D01*
X195326174Y-62240113D01*
X195454099Y-62297280D01*
X195616275Y-62371154D01*
X195704916Y-62411816D01*
X195863158Y-62485241D01*
X196008680Y-62554169D01*
X196136160Y-62615968D01*
X196240279Y-62668009D01*
X196315716Y-62707659D01*
X196357151Y-62732289D01*
X196362875Y-62737163D01*
X196388125Y-62799522D01*
X196384743Y-62869960D01*
X196354033Y-62926452D01*
X196351535Y-62928754D01*
X196317515Y-62951226D01*
X196251251Y-62988922D01*
X196161272Y-63037194D01*
X196056109Y-63091392D01*
X196017356Y-63110870D01*
X195722863Y-63257898D01*
X196042772Y-63418157D01*
X196153306Y-63475359D01*
X196249167Y-63528429D01*
X196323016Y-63573031D01*
X196367516Y-63604830D01*
X196376952Y-63615607D01*
X196389732Y-63699374D01*
X196362875Y-63768496D01*
X196334172Y-63788829D01*
X196270381Y-63824014D01*
X196177779Y-63871181D01*
X196062643Y-63927460D01*
X195931249Y-63989981D01*
X195789875Y-64055873D01*
X195644797Y-64122266D01*
X195502293Y-64186290D01*
X195368640Y-64245074D01*
X195250114Y-64295748D01*
X195152992Y-64335442D01*
X195083552Y-64361285D01*
X195048070Y-64370408D01*
X195046785Y-64370315D01*
X195002137Y-64348119D01*
X194956663Y-64303754D01*
X194954685Y-64301141D01*
X194923863Y-64246614D01*
X194924161Y-64196179D01*
X194929972Y-64177276D01*
X194942530Y-64154241D01*
X194967234Y-64129780D01*
X195009207Y-64100958D01*
X195073575Y-64064840D01*
X195165463Y-64018492D01*
X195289994Y-63958981D01*
X195404946Y-63905313D01*
X195538195Y-63843568D01*
X195658023Y-63788240D01*
X195758171Y-63742203D01*
X195832378Y-63708330D01*
X195874384Y-63689498D01*
X195880955Y-63686751D01*
X195870213Y-63674398D01*
X195825236Y-63646007D01*
X195752588Y-63605355D01*
X195658834Y-63556221D01*
X195620152Y-63536669D01*
X195489535Y-63470435D01*
X195394411Y-63419356D01*
X195329252Y-63379240D01*
X195288525Y-63345896D01*
X195266701Y-63315131D01*
X195258249Y-63282755D01*
X195257294Y-63261656D01*
X195260592Y-63224438D01*
X195274232Y-63191824D01*
X195303834Y-63159418D01*
X195355016Y-63122824D01*
X195433398Y-63077646D01*
X195544600Y-63019488D01*
X195607858Y-62987400D01*
X195708675Y-62935352D01*
X195792280Y-62889956D01*
X195851620Y-62855220D01*
X195879639Y-62835147D01*
X195880806Y-62832417D01*
X195858754Y-62819454D01*
X195801493Y-62790431D01*
X195715016Y-62748255D01*
X195605316Y-62695832D01*
X195478386Y-62636069D01*
X195415339Y-62606671D01*
X195252630Y-62530192D01*
X195127429Y-62468608D01*
X195035651Y-62418722D01*
X194973210Y-62377337D01*
X194936023Y-62341256D01*
X194920004Y-62307281D01*
X194921068Y-62272215D01*
G36*
X194930797Y-61380353D02*
G01*
X194960469Y-61332715D01*
X195003823Y-61279176D01*
X195649785Y-61279176D01*
X195838738Y-61279347D01*
X195987604Y-61280077D01*
X196101655Y-61281695D01*
X196186159Y-61284529D01*
X196246386Y-61288908D01*
X196287608Y-61295159D01*
X196315093Y-61303611D01*
X196334113Y-61314592D01*
X196343485Y-61322379D01*
X196384654Y-61385537D01*
X196382975Y-61457457D01*
X196347870Y-61520458D01*
X196304516Y-61573998D01*
X195003823Y-61573998D01*
X194960469Y-61520458D01*
X194928933Y-61468785D01*
X194917116Y-61426587D01*
X194930797Y-61380353D01*
G37*
X194930797Y-61380353D02*
X194960469Y-61332715D01*
X195003823Y-61279176D01*
X195649785Y-61279176D01*
X195838738Y-61279347D01*
X195987604Y-61280077D01*
X196101655Y-61281695D01*
X196186159Y-61284529D01*
X196246386Y-61288908D01*
X196287608Y-61295159D01*
X196315093Y-61303611D01*
X196334113Y-61314592D01*
X196343485Y-61322379D01*
X196384654Y-61385537D01*
X196382975Y-61457457D01*
X196347870Y-61520458D01*
X196304516Y-61573998D01*
X195003823Y-61573998D01*
X194960469Y-61520458D01*
X194928933Y-61468785D01*
X194917116Y-61426587D01*
X194930797Y-61380353D01*
G36*
X194917310Y-59824537D02*
G01*
X194918070Y-59666419D01*
X194919660Y-59543692D01*
X194922345Y-59451374D01*
X194926390Y-59384481D01*
X194932060Y-59338032D01*
X194939620Y-59307043D01*
X194949335Y-59286532D01*
X194956803Y-59276606D01*
X195022165Y-59225089D01*
X195090028Y-59218857D01*
X195151677Y-59250693D01*
X195176312Y-59271512D01*
X195193110Y-59293915D01*
X195203570Y-59326383D01*
X195209195Y-59377394D01*
X195211483Y-59455430D01*
X195211935Y-59568970D01*
X195211937Y-59591269D01*
X195211937Y-59884444D01*
X195756223Y-59884444D01*
X195927782Y-59884637D01*
X196059789Y-59885514D01*
X196158045Y-59887522D01*
X196228356Y-59891106D01*
X196276523Y-59896713D01*
X196308351Y-59904789D01*
X196329642Y-59915782D01*
X196345866Y-59929801D01*
X196385734Y-59995961D01*
X196382592Y-60065026D01*
X196337105Y-60127660D01*
X196331468Y-60132262D01*
X196310158Y-60147243D01*
X196285225Y-60158657D01*
X196250609Y-60166986D01*
X196200253Y-60172713D01*
X196128098Y-60176321D01*
X196028086Y-60178294D01*
X195894158Y-60179114D01*
X195741825Y-60179265D01*
X195211937Y-60179265D01*
X195211937Y-60459233D01*
X195211124Y-60579378D01*
X195207956Y-60662555D01*
X195201339Y-60717137D01*
X195190179Y-60751494D01*
X195173384Y-60774000D01*
X195170464Y-60776733D01*
X195103690Y-60809594D01*
X195028200Y-60806688D01*
X194962473Y-60768908D01*
X194949724Y-60754298D01*
X194939615Y-60735460D01*
X194931840Y-60707372D01*
X194926095Y-60665010D01*
X194922074Y-60603350D01*
X194919472Y-60517368D01*
X194917982Y-60402042D01*
X194917299Y-60252348D01*
X194917119Y-60063262D01*
X194917116Y-60023028D01*
X194917310Y-59824537D01*
G37*
X194917310Y-59824537D02*
X194918070Y-59666419D01*
X194919660Y-59543692D01*
X194922345Y-59451374D01*
X194926390Y-59384481D01*
X194932060Y-59338032D01*
X194939620Y-59307043D01*
X194949335Y-59286532D01*
X194956803Y-59276606D01*
X195022165Y-59225089D01*
X195090028Y-59218857D01*
X195151677Y-59250693D01*
X195176312Y-59271512D01*
X195193110Y-59293915D01*
X195203570Y-59326383D01*
X195209195Y-59377394D01*
X195211483Y-59455430D01*
X195211935Y-59568970D01*
X195211937Y-59591269D01*
X195211937Y-59884444D01*
X195756223Y-59884444D01*
X195927782Y-59884637D01*
X196059789Y-59885514D01*
X196158045Y-59887522D01*
X196228356Y-59891106D01*
X196276523Y-59896713D01*
X196308351Y-59904789D01*
X196329642Y-59915782D01*
X196345866Y-59929801D01*
X196385734Y-59995961D01*
X196382592Y-60065026D01*
X196337105Y-60127660D01*
X196331468Y-60132262D01*
X196310158Y-60147243D01*
X196285225Y-60158657D01*
X196250609Y-60166986D01*
X196200253Y-60172713D01*
X196128098Y-60176321D01*
X196028086Y-60178294D01*
X195894158Y-60179114D01*
X195741825Y-60179265D01*
X195211937Y-60179265D01*
X195211937Y-60459233D01*
X195211124Y-60579378D01*
X195207956Y-60662555D01*
X195201339Y-60717137D01*
X195190179Y-60751494D01*
X195173384Y-60774000D01*
X195170464Y-60776733D01*
X195103690Y-60809594D01*
X195028200Y-60806688D01*
X194962473Y-60768908D01*
X194949724Y-60754298D01*
X194939615Y-60735460D01*
X194931840Y-60707372D01*
X194926095Y-60665010D01*
X194922074Y-60603350D01*
X194919472Y-60517368D01*
X194917982Y-60402042D01*
X194917299Y-60252348D01*
X194917119Y-60063262D01*
X194917116Y-60023028D01*
X194917310Y-59824537D01*
G36*
X194928097Y-57281718D02*
G01*
X194972781Y-57218681D01*
X195028447Y-57163015D01*
X195650080Y-57163015D01*
X195834659Y-57163161D01*
X195979383Y-57163850D01*
X196089755Y-57165463D01*
X196171276Y-57168380D01*
X196229449Y-57172978D01*
X196269777Y-57179639D01*
X196297760Y-57188742D01*
X196318903Y-57200666D01*
X196331468Y-57210019D01*
X196380835Y-57271755D01*
X196386193Y-57342643D01*
X196355919Y-57407434D01*
X196338046Y-57428843D01*
X196314305Y-57443154D01*
X196276075Y-57451786D01*
X196214733Y-57456158D01*
X196121660Y-57457690D01*
X196049758Y-57457837D01*
X195778902Y-57457837D01*
X195778902Y-58455694D01*
X196025307Y-58455694D01*
X196137982Y-58456726D01*
X196215418Y-58460854D01*
X196267708Y-58469629D01*
X196304944Y-58484598D01*
X196331468Y-58502697D01*
X196380696Y-58564779D01*
X196386525Y-58634988D01*
X196351535Y-58702201D01*
X196333193Y-58720552D01*
X196308877Y-58733512D01*
X196271001Y-58742061D01*
X196211978Y-58747175D01*
X196124222Y-58749831D01*
X196000146Y-58751009D01*
X195971669Y-58751146D01*
X195737892Y-58752118D01*
X195545228Y-58752619D01*
X195389435Y-58752456D01*
X195266271Y-58751435D01*
X195171493Y-58749363D01*
X195100859Y-58746047D01*
X195050126Y-58741293D01*
X195015052Y-58734909D01*
X194991393Y-58726700D01*
X194974909Y-58716473D01*
X194962473Y-58705158D01*
X194922694Y-58641151D01*
X194928097Y-58574397D01*
X194972781Y-58511360D01*
X195001610Y-58485851D01*
X195033455Y-58469591D01*
X195078808Y-58460519D01*
X195148166Y-58456574D01*
X195252022Y-58455695D01*
X195256264Y-58455694D01*
X195484080Y-58455694D01*
X195484080Y-57457837D01*
X195245955Y-57457837D01*
X195136251Y-57456819D01*
X195062176Y-57452729D01*
X195014027Y-57444015D01*
X194982101Y-57429125D01*
X194962473Y-57412480D01*
X194922694Y-57348473D01*
X194928097Y-57281718D01*
G37*
X194928097Y-57281718D02*
X194972781Y-57218681D01*
X195028447Y-57163015D01*
X195650080Y-57163015D01*
X195834659Y-57163161D01*
X195979383Y-57163850D01*
X196089755Y-57165463D01*
X196171276Y-57168380D01*
X196229449Y-57172978D01*
X196269777Y-57179639D01*
X196297760Y-57188742D01*
X196318903Y-57200666D01*
X196331468Y-57210019D01*
X196380835Y-57271755D01*
X196386193Y-57342643D01*
X196355919Y-57407434D01*
X196338046Y-57428843D01*
X196314305Y-57443154D01*
X196276075Y-57451786D01*
X196214733Y-57456158D01*
X196121660Y-57457690D01*
X196049758Y-57457837D01*
X195778902Y-57457837D01*
X195778902Y-58455694D01*
X196025307Y-58455694D01*
X196137982Y-58456726D01*
X196215418Y-58460854D01*
X196267708Y-58469629D01*
X196304944Y-58484598D01*
X196331468Y-58502697D01*
X196380696Y-58564779D01*
X196386525Y-58634988D01*
X196351535Y-58702201D01*
X196333193Y-58720552D01*
X196308877Y-58733512D01*
X196271001Y-58742061D01*
X196211978Y-58747175D01*
X196124222Y-58749831D01*
X196000146Y-58751009D01*
X195971669Y-58751146D01*
X195737892Y-58752118D01*
X195545228Y-58752619D01*
X195389435Y-58752456D01*
X195266271Y-58751435D01*
X195171493Y-58749363D01*
X195100859Y-58746047D01*
X195050126Y-58741293D01*
X195015052Y-58734909D01*
X194991393Y-58726700D01*
X194974909Y-58716473D01*
X194962473Y-58705158D01*
X194922694Y-58641151D01*
X194928097Y-58574397D01*
X194972781Y-58511360D01*
X195001610Y-58485851D01*
X195033455Y-58469591D01*
X195078808Y-58460519D01*
X195148166Y-58456574D01*
X195252022Y-58455695D01*
X195256264Y-58455694D01*
X195484080Y-58455694D01*
X195484080Y-57457837D01*
X195245955Y-57457837D01*
X195136251Y-57456819D01*
X195062176Y-57452729D01*
X195014027Y-57444015D01*
X194982101Y-57429125D01*
X194962473Y-57412480D01*
X194922694Y-57348473D01*
X194928097Y-57281718D01*
D11*
%TO.C,J8*%
X164250000Y-104850000D02*
X165500000Y-104850000D01*
X164250000Y-103600000D02*
X164250000Y-104850000D01*
X169750000Y-92700000D02*
X169750000Y-98250000D01*
X166800000Y-92700000D02*
X169750000Y-92700000D01*
X166800000Y-91950000D02*
X166800000Y-92700000D01*
X169750000Y-103800000D02*
X169750000Y-98250000D01*
X166800000Y-103800000D02*
X169750000Y-103800000D01*
X166800000Y-104550000D02*
X166800000Y-103800000D01*
X164550000Y-91950000D02*
X164550000Y-93750000D01*
X165300000Y-91950000D02*
X164550000Y-91950000D01*
X165300000Y-93750000D02*
X165300000Y-91950000D01*
X164550000Y-93750000D02*
X165300000Y-93750000D01*
X164550000Y-102750000D02*
X164550000Y-104550000D01*
X165300000Y-102750000D02*
X164550000Y-102750000D01*
X165300000Y-104550000D02*
X165300000Y-102750000D01*
X164550000Y-104550000D02*
X165300000Y-104550000D01*
X164550000Y-95250000D02*
X164550000Y-101250000D01*
X165300000Y-95250000D02*
X164550000Y-95250000D01*
X165300000Y-101250000D02*
X165300000Y-95250000D01*
X164550000Y-101250000D02*
X165300000Y-101250000D01*
X164540000Y-91940000D02*
X164540000Y-104560000D01*
X170510000Y-91940000D02*
X164540000Y-91940000D01*
X170510000Y-104560000D02*
X170510000Y-91940000D01*
X164540000Y-104560000D02*
X170510000Y-104560000D01*
%TO.C,J1*%
X111320000Y-74500000D02*
X112320000Y-74000000D01*
X111320000Y-73500000D02*
X111320000Y-74500000D01*
X112320000Y-74000000D02*
X111320000Y-73500000D01*
X114020000Y-100180000D02*
X112710000Y-100180000D01*
X114020000Y-100180000D02*
X114020000Y-100180000D01*
X114020000Y-126170000D02*
X114020000Y-100180000D01*
X120520000Y-126170000D02*
X114020000Y-126170000D01*
X120520000Y-70090000D02*
X120520000Y-126170000D01*
X114020000Y-70090000D02*
X120520000Y-70090000D01*
X114020000Y-96080000D02*
X114020000Y-70090000D01*
X112710000Y-96080000D02*
X114020000Y-96080000D01*
X112710000Y-127470000D02*
X112710000Y-68790000D01*
X121830000Y-127470000D02*
X112710000Y-127470000D01*
X121830000Y-68790000D02*
X121830000Y-127470000D01*
X112710000Y-68790000D02*
X121830000Y-68790000D01*
%TO.C,J7*%
X145750000Y-81150000D02*
X144500000Y-81150000D01*
X145750000Y-82400000D02*
X145750000Y-81150000D01*
X140250000Y-93300000D02*
X140250000Y-87750000D01*
X143200000Y-93300000D02*
X140250000Y-93300000D01*
X143200000Y-94050000D02*
X143200000Y-93300000D01*
X140250000Y-82200000D02*
X140250000Y-87750000D01*
X143200000Y-82200000D02*
X140250000Y-82200000D01*
X143200000Y-81450000D02*
X143200000Y-82200000D01*
X145450000Y-94050000D02*
X145450000Y-92250000D01*
X144700000Y-94050000D02*
X145450000Y-94050000D01*
X144700000Y-92250000D02*
X144700000Y-94050000D01*
X145450000Y-92250000D02*
X144700000Y-92250000D01*
X145450000Y-83250000D02*
X145450000Y-81450000D01*
X144700000Y-83250000D02*
X145450000Y-83250000D01*
X144700000Y-81450000D02*
X144700000Y-83250000D01*
X145450000Y-81450000D02*
X144700000Y-81450000D01*
X145450000Y-90750000D02*
X145450000Y-84750000D01*
X144700000Y-90750000D02*
X145450000Y-90750000D01*
X144700000Y-84750000D02*
X144700000Y-90750000D01*
X145450000Y-84750000D02*
X144700000Y-84750000D01*
X145460000Y-94060000D02*
X145460000Y-81440000D01*
X139490000Y-94060000D02*
X145460000Y-94060000D01*
X139490000Y-81440000D02*
X139490000Y-94060000D01*
X145460000Y-81440000D02*
X139490000Y-81440000D01*
%TO.C,J6*%
X145750000Y-67150000D02*
X144500000Y-67150000D01*
X145750000Y-68400000D02*
X145750000Y-67150000D01*
X140250000Y-79300000D02*
X140250000Y-73750000D01*
X143200000Y-79300000D02*
X140250000Y-79300000D01*
X143200000Y-80050000D02*
X143200000Y-79300000D01*
X140250000Y-68200000D02*
X140250000Y-73750000D01*
X143200000Y-68200000D02*
X140250000Y-68200000D01*
X143200000Y-67450000D02*
X143200000Y-68200000D01*
X145450000Y-80050000D02*
X145450000Y-78250000D01*
X144700000Y-80050000D02*
X145450000Y-80050000D01*
X144700000Y-78250000D02*
X144700000Y-80050000D01*
X145450000Y-78250000D02*
X144700000Y-78250000D01*
X145450000Y-69250000D02*
X145450000Y-67450000D01*
X144700000Y-69250000D02*
X145450000Y-69250000D01*
X144700000Y-67450000D02*
X144700000Y-69250000D01*
X145450000Y-67450000D02*
X144700000Y-67450000D01*
X145450000Y-76750000D02*
X145450000Y-70750000D01*
X144700000Y-76750000D02*
X145450000Y-76750000D01*
X144700000Y-70750000D02*
X144700000Y-76750000D01*
X145450000Y-70750000D02*
X144700000Y-70750000D01*
X145460000Y-80060000D02*
X145460000Y-67440000D01*
X139490000Y-80060000D02*
X145460000Y-80060000D01*
X139490000Y-67440000D02*
X139490000Y-80060000D01*
X145460000Y-67440000D02*
X139490000Y-67440000D01*
%TO.C,J5*%
X145750000Y-53150000D02*
X144500000Y-53150000D01*
X145750000Y-54400000D02*
X145750000Y-53150000D01*
X140250000Y-65300000D02*
X140250000Y-59750000D01*
X143200000Y-65300000D02*
X140250000Y-65300000D01*
X143200000Y-66050000D02*
X143200000Y-65300000D01*
X140250000Y-54200000D02*
X140250000Y-59750000D01*
X143200000Y-54200000D02*
X140250000Y-54200000D01*
X143200000Y-53450000D02*
X143200000Y-54200000D01*
X145450000Y-66050000D02*
X145450000Y-64250000D01*
X144700000Y-66050000D02*
X145450000Y-66050000D01*
X144700000Y-64250000D02*
X144700000Y-66050000D01*
X145450000Y-64250000D02*
X144700000Y-64250000D01*
X145450000Y-55250000D02*
X145450000Y-53450000D01*
X144700000Y-55250000D02*
X145450000Y-55250000D01*
X144700000Y-53450000D02*
X144700000Y-55250000D01*
X145450000Y-53450000D02*
X144700000Y-53450000D01*
X145450000Y-62750000D02*
X145450000Y-56750000D01*
X144700000Y-62750000D02*
X145450000Y-62750000D01*
X144700000Y-56750000D02*
X144700000Y-62750000D01*
X145450000Y-56750000D02*
X144700000Y-56750000D01*
X145460000Y-66060000D02*
X145460000Y-53440000D01*
X139490000Y-66060000D02*
X145460000Y-66060000D01*
X139490000Y-53440000D02*
X139490000Y-66060000D01*
X145460000Y-53440000D02*
X139490000Y-53440000D01*
%TO.C,J4*%
X145750000Y-130150000D02*
X144500000Y-130150000D01*
X145750000Y-131400000D02*
X145750000Y-130150000D01*
X140250000Y-142300000D02*
X140250000Y-136750000D01*
X143200000Y-142300000D02*
X140250000Y-142300000D01*
X143200000Y-143050000D02*
X143200000Y-142300000D01*
X140250000Y-131200000D02*
X140250000Y-136750000D01*
X143200000Y-131200000D02*
X140250000Y-131200000D01*
X143200000Y-130450000D02*
X143200000Y-131200000D01*
X145450000Y-143050000D02*
X145450000Y-141250000D01*
X144700000Y-143050000D02*
X145450000Y-143050000D01*
X144700000Y-141250000D02*
X144700000Y-143050000D01*
X145450000Y-141250000D02*
X144700000Y-141250000D01*
X145450000Y-132250000D02*
X145450000Y-130450000D01*
X144700000Y-132250000D02*
X145450000Y-132250000D01*
X144700000Y-130450000D02*
X144700000Y-132250000D01*
X145450000Y-130450000D02*
X144700000Y-130450000D01*
X145450000Y-139750000D02*
X145450000Y-133750000D01*
X144700000Y-139750000D02*
X145450000Y-139750000D01*
X144700000Y-133750000D02*
X144700000Y-139750000D01*
X145450000Y-133750000D02*
X144700000Y-133750000D01*
X145460000Y-143060000D02*
X145460000Y-130440000D01*
X139490000Y-143060000D02*
X145460000Y-143060000D01*
X139490000Y-130440000D02*
X139490000Y-143060000D01*
X145460000Y-130440000D02*
X139490000Y-130440000D01*
%TO.C,J3*%
X145750000Y-116150000D02*
X144500000Y-116150000D01*
X145750000Y-117400000D02*
X145750000Y-116150000D01*
X140250000Y-128300000D02*
X140250000Y-122750000D01*
X143200000Y-128300000D02*
X140250000Y-128300000D01*
X143200000Y-129050000D02*
X143200000Y-128300000D01*
X140250000Y-117200000D02*
X140250000Y-122750000D01*
X143200000Y-117200000D02*
X140250000Y-117200000D01*
X143200000Y-116450000D02*
X143200000Y-117200000D01*
X145450000Y-129050000D02*
X145450000Y-127250000D01*
X144700000Y-129050000D02*
X145450000Y-129050000D01*
X144700000Y-127250000D02*
X144700000Y-129050000D01*
X145450000Y-127250000D02*
X144700000Y-127250000D01*
X145450000Y-118250000D02*
X145450000Y-116450000D01*
X144700000Y-118250000D02*
X145450000Y-118250000D01*
X144700000Y-116450000D02*
X144700000Y-118250000D01*
X145450000Y-116450000D02*
X144700000Y-116450000D01*
X145450000Y-125750000D02*
X145450000Y-119750000D01*
X144700000Y-125750000D02*
X145450000Y-125750000D01*
X144700000Y-119750000D02*
X144700000Y-125750000D01*
X145450000Y-119750000D02*
X144700000Y-119750000D01*
X145460000Y-129060000D02*
X145460000Y-116440000D01*
X139490000Y-129060000D02*
X145460000Y-129060000D01*
X139490000Y-116440000D02*
X139490000Y-129060000D01*
X145460000Y-116440000D02*
X139490000Y-116440000D01*
%TO.C,J2*%
X145750000Y-102150000D02*
X144500000Y-102150000D01*
X145750000Y-103400000D02*
X145750000Y-102150000D01*
X140250000Y-114300000D02*
X140250000Y-108750000D01*
X143200000Y-114300000D02*
X140250000Y-114300000D01*
X143200000Y-115050000D02*
X143200000Y-114300000D01*
X140250000Y-103200000D02*
X140250000Y-108750000D01*
X143200000Y-103200000D02*
X140250000Y-103200000D01*
X143200000Y-102450000D02*
X143200000Y-103200000D01*
X145450000Y-115050000D02*
X145450000Y-113250000D01*
X144700000Y-115050000D02*
X145450000Y-115050000D01*
X144700000Y-113250000D02*
X144700000Y-115050000D01*
X145450000Y-113250000D02*
X144700000Y-113250000D01*
X145450000Y-104250000D02*
X145450000Y-102450000D01*
X144700000Y-104250000D02*
X145450000Y-104250000D01*
X144700000Y-102450000D02*
X144700000Y-104250000D01*
X145450000Y-102450000D02*
X144700000Y-102450000D01*
X145450000Y-111750000D02*
X145450000Y-105750000D01*
X144700000Y-111750000D02*
X145450000Y-111750000D01*
X144700000Y-105750000D02*
X144700000Y-111750000D01*
X145450000Y-105750000D02*
X144700000Y-105750000D01*
X145460000Y-115060000D02*
X145460000Y-102440000D01*
X139490000Y-115060000D02*
X145460000Y-115060000D01*
X139490000Y-102440000D02*
X139490000Y-115060000D01*
X145460000Y-102440000D02*
X139490000Y-102440000D01*
%TO.C,J8*%
D10*
X162642380Y-93443333D02*
X163356666Y-93443333D01*
X163499523Y-93490952D01*
X163594761Y-93586190D01*
X163642380Y-93729047D01*
X163642380Y-93824285D01*
X163070952Y-92824285D02*
X163023333Y-92919523D01*
X162975714Y-92967142D01*
X162880476Y-93014761D01*
X162832857Y-93014761D01*
X162737619Y-92967142D01*
X162690000Y-92919523D01*
X162642380Y-92824285D01*
X162642380Y-92633809D01*
X162690000Y-92538571D01*
X162737619Y-92490952D01*
X162832857Y-92443333D01*
X162880476Y-92443333D01*
X162975714Y-92490952D01*
X163023333Y-92538571D01*
X163070952Y-92633809D01*
X163070952Y-92824285D01*
X163118571Y-92919523D01*
X163166190Y-92967142D01*
X163261428Y-93014761D01*
X163451904Y-93014761D01*
X163547142Y-92967142D01*
X163594761Y-92919523D01*
X163642380Y-92824285D01*
X163642380Y-92633809D01*
X163594761Y-92538571D01*
X163547142Y-92490952D01*
X163451904Y-92443333D01*
X163261428Y-92443333D01*
X163166190Y-92490952D01*
X163118571Y-92538571D01*
X163070952Y-92633809D01*
%TO.C,J1*%
X116936666Y-67352380D02*
X116936666Y-68066666D01*
X116889047Y-68209523D01*
X116793809Y-68304761D01*
X116650952Y-68352380D01*
X116555714Y-68352380D01*
X117936666Y-68352380D02*
X117365238Y-68352380D01*
X117650952Y-68352380D02*
X117650952Y-67352380D01*
X117555714Y-67495238D01*
X117460476Y-67590476D01*
X117365238Y-67638095D01*
%TO.C,J7*%
X146666666Y-80452380D02*
X146666666Y-81166666D01*
X146619047Y-81309523D01*
X146523809Y-81404761D01*
X146380952Y-81452380D01*
X146285714Y-81452380D01*
X147047619Y-80452380D02*
X147714285Y-80452380D01*
X147285714Y-81452380D01*
%TO.C,J6*%
X146666666Y-66452380D02*
X146666666Y-67166666D01*
X146619047Y-67309523D01*
X146523809Y-67404761D01*
X146380952Y-67452380D01*
X146285714Y-67452380D01*
X147571428Y-66452380D02*
X147380952Y-66452380D01*
X147285714Y-66500000D01*
X147238095Y-66547619D01*
X147142857Y-66690476D01*
X147095238Y-66880952D01*
X147095238Y-67261904D01*
X147142857Y-67357142D01*
X147190476Y-67404761D01*
X147285714Y-67452380D01*
X147476190Y-67452380D01*
X147571428Y-67404761D01*
X147619047Y-67357142D01*
X147666666Y-67261904D01*
X147666666Y-67023809D01*
X147619047Y-66928571D01*
X147571428Y-66880952D01*
X147476190Y-66833333D01*
X147285714Y-66833333D01*
X147190476Y-66880952D01*
X147142857Y-66928571D01*
X147095238Y-67023809D01*
%TO.C,J5*%
X146666666Y-52452380D02*
X146666666Y-53166666D01*
X146619047Y-53309523D01*
X146523809Y-53404761D01*
X146380952Y-53452380D01*
X146285714Y-53452380D01*
X147619047Y-52452380D02*
X147142857Y-52452380D01*
X147095238Y-52928571D01*
X147142857Y-52880952D01*
X147238095Y-52833333D01*
X147476190Y-52833333D01*
X147571428Y-52880952D01*
X147619047Y-52928571D01*
X147666666Y-53023809D01*
X147666666Y-53261904D01*
X147619047Y-53357142D01*
X147571428Y-53404761D01*
X147476190Y-53452380D01*
X147238095Y-53452380D01*
X147142857Y-53404761D01*
X147095238Y-53357142D01*
%TO.C,J4*%
X146666666Y-129452380D02*
X146666666Y-130166666D01*
X146619047Y-130309523D01*
X146523809Y-130404761D01*
X146380952Y-130452380D01*
X146285714Y-130452380D01*
X147571428Y-129785714D02*
X147571428Y-130452380D01*
X147333333Y-129404761D02*
X147095238Y-130119047D01*
X147714285Y-130119047D01*
%TO.C,J3*%
X146666666Y-115452380D02*
X146666666Y-116166666D01*
X146619047Y-116309523D01*
X146523809Y-116404761D01*
X146380952Y-116452380D01*
X146285714Y-116452380D01*
X147047619Y-115452380D02*
X147666666Y-115452380D01*
X147333333Y-115833333D01*
X147476190Y-115833333D01*
X147571428Y-115880952D01*
X147619047Y-115928571D01*
X147666666Y-116023809D01*
X147666666Y-116261904D01*
X147619047Y-116357142D01*
X147571428Y-116404761D01*
X147476190Y-116452380D01*
X147190476Y-116452380D01*
X147095238Y-116404761D01*
X147047619Y-116357142D01*
%TO.C,J2*%
X146666666Y-101452380D02*
X146666666Y-102166666D01*
X146619047Y-102309523D01*
X146523809Y-102404761D01*
X146380952Y-102452380D01*
X146285714Y-102452380D01*
X147095238Y-101547619D02*
X147142857Y-101500000D01*
X147238095Y-101452380D01*
X147476190Y-101452380D01*
X147571428Y-101500000D01*
X147619047Y-101547619D01*
X147666666Y-101642857D01*
X147666666Y-101738095D01*
X147619047Y-101880952D01*
X147047619Y-102452380D01*
X147666666Y-102452380D01*
%TD*%
M02*
