<?xml version="1.0" standalone="no"?>
 <!DOCTYPE svg PUBLIC "-//W3C//DTD SVG 1.1//EN" 
 "http://www.w3.org/Graphics/SVG/1.1/DTD/svg11.dtd"> 
<svg
  xmlns:svg="http://www.w3.org/2000/svg"
  xmlns="http://www.w3.org/2000/svg"
  xmlns:xlink="http://www.w3.org/1999/xlink"
  version="1.1"
  width="29.700220cm" height="21.000720cm" viewBox="0 0 116930 82680">
<title>SVG Picture created as rpi-arcade-hat-B_Mask.svg date 2021/09/26 16:06:12 </title>
  <desc>Picture generated by PCBNEW </desc>
<g style="fill:#000000; fill-opacity:1;stroke:#000000; stroke-opacity:1;
stroke-linecap:round; stroke-linejoin:round;"
 transform="translate(0 0) scale(1 1)">
</g>
<g style="fill:#000000; fill-opacity:0.0; 
stroke:#000000; stroke-width:-0.000393701; stroke-opacity:1; 
stroke-linecap:round; stroke-linejoin:round;">
<g >
</g>
<g >
</g>
<g style="fill:#000000; fill-opacity:0.0; 
stroke:#000000; stroke-width:-0.000393701; stroke-opacity:1; 
stroke-linecap:round; stroke-linejoin:round;">
</g>
<g style="fill:#000000; fill-opacity:0.0; 
stroke:#000000; stroke-width:669.291; stroke-opacity:1; 
stroke-linecap:round; stroke-linejoin:round;">
<path d="M65698 37204
L65797 37204
" />
<path d="M65698 38188
L65797 38188
" />
<path d="M65698 39173
L65797 39173
" />
</g>
<g style="fill:#000000; fill-opacity:0.0; 
stroke:#000000; stroke-width:0; stroke-opacity:1; 
stroke-linecap:round; stroke-linejoin:round;">
</g>
<g style="fill:#000000; fill-opacity:1.0; 
stroke:#000000; stroke-width:0; stroke-opacity:1; 
stroke-linecap:round; stroke-linejoin:round;">
<path style="fill:#000000; fill-opacity:1.0; 
stroke:#000000; stroke-width:0; stroke-opacity:1; 
stroke-linecap:round; stroke-linejoin:round;fill-rule:evenodd;"
d="M 66043.1,39823.3
66052.7,39824.7
66062,39827.1
66071.1,39830.3
66079.9,39834.5
66088.1,39839.4
66095.9,39845.2
66103.1,39851.7
66109.5,39858.8
66115.3,39866.6
66120.3,39874.9
66124.4,39883.6
66127.7,39892.7
66130,39902.1
66131.4,39911.6
66131.9,39921.3
66131.9,40393.7
66131.4,40403.3
66130,40412.9
66127.7,40422.3
66124.4,40431.4
66120.3,40440.1
66115.3,40448.4
66109.5,40456.1
66103.1,40463.3
66095.9,40469.8
66088.1,40475.5
66079.9,40480.5
66071.1,40484.6
66062,40487.9
66052.7,40490.2
66043.1,40491.7
66033.5,40492.1
65462.6,40492.1
65453,40491.7
65443.4,40490.2
65434,40487.9
65424.9,40484.6
65416.2,40480.5
65407.9,40475.5
65400.2,40469.8
65393,40463.3
65386.5,40456.1
65380.8,40448.4
65375.8,40440.1
65371.7,40431.4
65368.4,40422.3
65366.1,40412.9
65364.6,40403.3
65364.2,40393.7
65364.2,39921.3
65364.6,39911.6
65366.1,39902.1
65368.4,39892.7
65371.7,39883.6
65375.8,39874.9
65380.8,39866.6
65386.5,39858.8
65393,39851.7
65400.2,39845.2
65407.9,39839.4
65416.2,39834.5
65424.9,39830.3
65434,39827.1
65443.4,39824.7
65453,39823.3
65462.6,39822.8
66033.5,39822.8
Z" /> 
</g>
<g >
</g>
<g style="fill:#000000; fill-opacity:1.0; 
stroke:#000000; stroke-width:0; stroke-opacity:1; 
stroke-linecap:round; stroke-linejoin:round;">
<circle cx="46669.3" cy="48133.9" r="334.646" /> 
</g>
<g style="fill:#000000; fill-opacity:1.0; 
stroke:#000000; stroke-width:39.3701; stroke-opacity:1; 
stroke-linecap:round; stroke-linejoin:round;">
</g>
<g style="fill:#000000; fill-opacity:1.0; 
stroke:#000000; stroke-width:0; stroke-opacity:1; 
stroke-linecap:round; stroke-linejoin:round;">
<circle cx="46669.3" cy="47133.9" r="334.646" /> 
</g>
<g style="fill:#000000; fill-opacity:1.0; 
stroke:#000000; stroke-width:39.3701; stroke-opacity:1; 
stroke-linecap:round; stroke-linejoin:round;">
</g>
<g style="fill:#000000; fill-opacity:1.0; 
stroke:#000000; stroke-width:0; stroke-opacity:1; 
stroke-linecap:round; stroke-linejoin:round;">
<circle cx="46669.3" cy="46133.9" r="334.646" /> 
</g>
<g style="fill:#000000; fill-opacity:1.0; 
stroke:#000000; stroke-width:39.3701; stroke-opacity:1; 
stroke-linecap:round; stroke-linejoin:round;">
</g>
<g style="fill:#000000; fill-opacity:1.0; 
stroke:#000000; stroke-width:0; stroke-opacity:1; 
stroke-linecap:round; stroke-linejoin:round;">
<circle cx="46669.3" cy="45133.9" r="334.646" /> 
</g>
<g style="fill:#000000; fill-opacity:1.0; 
stroke:#000000; stroke-width:39.3701; stroke-opacity:1; 
stroke-linecap:round; stroke-linejoin:round;">
</g>
<g style="fill:#000000; fill-opacity:1.0; 
stroke:#000000; stroke-width:0; stroke-opacity:1; 
stroke-linecap:round; stroke-linejoin:round;">
<circle cx="46669.3" cy="44133.9" r="334.646" /> 
</g>
<g style="fill:#000000; fill-opacity:1.0; 
stroke:#000000; stroke-width:39.3701; stroke-opacity:1; 
stroke-linecap:round; stroke-linejoin:round;">
</g>
<g style="fill:#000000; fill-opacity:1.0; 
stroke:#000000; stroke-width:0; stroke-opacity:1; 
stroke-linecap:round; stroke-linejoin:round;">
<circle cx="46669.3" cy="43133.9" r="334.646" /> 
</g>
<g style="fill:#000000; fill-opacity:1.0; 
stroke:#000000; stroke-width:39.3701; stroke-opacity:1; 
stroke-linecap:round; stroke-linejoin:round;">
</g>
<g style="fill:#000000; fill-opacity:1.0; 
stroke:#000000; stroke-width:0; stroke-opacity:1; 
stroke-linecap:round; stroke-linejoin:round;">
<circle cx="46669.3" cy="42133.9" r="334.646" /> 
</g>
<g style="fill:#000000; fill-opacity:1.0; 
stroke:#000000; stroke-width:39.3701; stroke-opacity:1; 
stroke-linecap:round; stroke-linejoin:round;">
</g>
<g style="fill:#000000; fill-opacity:1.0; 
stroke:#000000; stroke-width:0; stroke-opacity:1; 
stroke-linecap:round; stroke-linejoin:round;">
<circle cx="46669.3" cy="41133.9" r="334.646" /> 
</g>
<g style="fill:#000000; fill-opacity:1.0; 
stroke:#000000; stroke-width:39.3701; stroke-opacity:1; 
stroke-linecap:round; stroke-linejoin:round;">
</g>
<g style="fill:#000000; fill-opacity:1.0; 
stroke:#000000; stroke-width:0; stroke-opacity:1; 
stroke-linecap:round; stroke-linejoin:round;">
<circle cx="46669.3" cy="40133.9" r="334.646" /> 
</g>
<g style="fill:#000000; fill-opacity:1.0; 
stroke:#000000; stroke-width:39.3701; stroke-opacity:1; 
stroke-linecap:round; stroke-linejoin:round;">
</g>
<g style="fill:#000000; fill-opacity:1.0; 
stroke:#000000; stroke-width:0; stroke-opacity:1; 
stroke-linecap:round; stroke-linejoin:round;">
<circle cx="46669.3" cy="39133.9" r="334.646" /> 
</g>
<g style="fill:#000000; fill-opacity:1.0; 
stroke:#000000; stroke-width:39.3701; stroke-opacity:1; 
stroke-linecap:round; stroke-linejoin:round;">
</g>
<g style="fill:#000000; fill-opacity:1.0; 
stroke:#000000; stroke-width:0; stroke-opacity:1; 
stroke-linecap:round; stroke-linejoin:round;">
<circle cx="46669.3" cy="38133.9" r="334.646" /> 
</g>
<g style="fill:#000000; fill-opacity:1.0; 
stroke:#000000; stroke-width:39.3701; stroke-opacity:1; 
stroke-linecap:round; stroke-linejoin:round;">
</g>
<g style="fill:#000000; fill-opacity:1.0; 
stroke:#000000; stroke-width:0; stroke-opacity:1; 
stroke-linecap:round; stroke-linejoin:round;">
<circle cx="46669.3" cy="37133.9" r="334.646" /> 
</g>
<g style="fill:#000000; fill-opacity:1.0; 
stroke:#000000; stroke-width:39.3701; stroke-opacity:1; 
stroke-linecap:round; stroke-linejoin:round;">
</g>
<g style="fill:#000000; fill-opacity:1.0; 
stroke:#000000; stroke-width:0; stroke-opacity:1; 
stroke-linecap:round; stroke-linejoin:round;">
<circle cx="46669.3" cy="36133.9" r="334.646" /> 
</g>
<g style="fill:#000000; fill-opacity:1.0; 
stroke:#000000; stroke-width:39.3701; stroke-opacity:1; 
stroke-linecap:round; stroke-linejoin:round;">
</g>
<g style="fill:#000000; fill-opacity:1.0; 
stroke:#000000; stroke-width:0; stroke-opacity:1; 
stroke-linecap:round; stroke-linejoin:round;">
<circle cx="46669.3" cy="35133.9" r="334.646" /> 
</g>
<g style="fill:#000000; fill-opacity:1.0; 
stroke:#000000; stroke-width:39.3701; stroke-opacity:1; 
stroke-linecap:round; stroke-linejoin:round;">
</g>
<g style="fill:#000000; fill-opacity:1.0; 
stroke:#000000; stroke-width:0; stroke-opacity:1; 
stroke-linecap:round; stroke-linejoin:round;">
<circle cx="46669.3" cy="34133.9" r="334.646" /> 
</g>
<g style="fill:#000000; fill-opacity:1.0; 
stroke:#000000; stroke-width:39.3701; stroke-opacity:1; 
stroke-linecap:round; stroke-linejoin:round;">
</g>
<g style="fill:#000000; fill-opacity:1.0; 
stroke:#000000; stroke-width:0; stroke-opacity:1; 
stroke-linecap:round; stroke-linejoin:round;">
<circle cx="46669.3" cy="33133.9" r="334.646" /> 
</g>
<g style="fill:#000000; fill-opacity:1.0; 
stroke:#000000; stroke-width:39.3701; stroke-opacity:1; 
stroke-linecap:round; stroke-linejoin:round;">
</g>
<g style="fill:#000000; fill-opacity:1.0; 
stroke:#000000; stroke-width:0; stroke-opacity:1; 
stroke-linecap:round; stroke-linejoin:round;">
<circle cx="46669.3" cy="32133.9" r="334.646" /> 
</g>
<g style="fill:#000000; fill-opacity:1.0; 
stroke:#000000; stroke-width:39.3701; stroke-opacity:1; 
stroke-linecap:round; stroke-linejoin:round;">
</g>
<g style="fill:#000000; fill-opacity:1.0; 
stroke:#000000; stroke-width:0; stroke-opacity:1; 
stroke-linecap:round; stroke-linejoin:round;">
<circle cx="46669.3" cy="31133.9" r="334.646" /> 
</g>
<g style="fill:#000000; fill-opacity:1.0; 
stroke:#000000; stroke-width:39.3701; stroke-opacity:1; 
stroke-linecap:round; stroke-linejoin:round;">
</g>
<g style="fill:#000000; fill-opacity:1.0; 
stroke:#000000; stroke-width:0; stroke-opacity:1; 
stroke-linecap:round; stroke-linejoin:round;">
<circle cx="46669.3" cy="30133.9" r="334.646" /> 
</g>
<g style="fill:#000000; fill-opacity:1.0; 
stroke:#000000; stroke-width:39.3701; stroke-opacity:1; 
stroke-linecap:round; stroke-linejoin:round;">
</g>
<g style="fill:#000000; fill-opacity:1.0; 
stroke:#000000; stroke-width:0; stroke-opacity:1; 
stroke-linecap:round; stroke-linejoin:round;">
<circle cx="46669.3" cy="29133.9" r="334.646" /> 
</g>
<g style="fill:#000000; fill-opacity:1.0; 
stroke:#000000; stroke-width:39.3701; stroke-opacity:1; 
stroke-linecap:round; stroke-linejoin:round;">
</g>
<g style="fill:#000000; fill-opacity:1.0; 
stroke:#000000; stroke-width:0; stroke-opacity:1; 
stroke-linecap:round; stroke-linejoin:round;">
<circle cx="45669.3" cy="48133.9" r="334.646" /> 
</g>
<g style="fill:#000000; fill-opacity:1.0; 
stroke:#000000; stroke-width:39.3701; stroke-opacity:1; 
stroke-linecap:round; stroke-linejoin:round;">
</g>
<g style="fill:#000000; fill-opacity:1.0; 
stroke:#000000; stroke-width:0; stroke-opacity:1; 
stroke-linecap:round; stroke-linejoin:round;">
<circle cx="45669.3" cy="47133.9" r="334.646" /> 
</g>
<g style="fill:#000000; fill-opacity:1.0; 
stroke:#000000; stroke-width:39.3701; stroke-opacity:1; 
stroke-linecap:round; stroke-linejoin:round;">
</g>
<g style="fill:#000000; fill-opacity:1.0; 
stroke:#000000; stroke-width:0; stroke-opacity:1; 
stroke-linecap:round; stroke-linejoin:round;">
<circle cx="45669.3" cy="46133.9" r="334.646" /> 
</g>
<g style="fill:#000000; fill-opacity:1.0; 
stroke:#000000; stroke-width:39.3701; stroke-opacity:1; 
stroke-linecap:round; stroke-linejoin:round;">
</g>
<g style="fill:#000000; fill-opacity:1.0; 
stroke:#000000; stroke-width:0; stroke-opacity:1; 
stroke-linecap:round; stroke-linejoin:round;">
<circle cx="45669.3" cy="45133.9" r="334.646" /> 
</g>
<g style="fill:#000000; fill-opacity:1.0; 
stroke:#000000; stroke-width:39.3701; stroke-opacity:1; 
stroke-linecap:round; stroke-linejoin:round;">
</g>
<g style="fill:#000000; fill-opacity:1.0; 
stroke:#000000; stroke-width:0; stroke-opacity:1; 
stroke-linecap:round; stroke-linejoin:round;">
<circle cx="45669.3" cy="44133.9" r="334.646" /> 
</g>
<g style="fill:#000000; fill-opacity:1.0; 
stroke:#000000; stroke-width:39.3701; stroke-opacity:1; 
stroke-linecap:round; stroke-linejoin:round;">
</g>
<g style="fill:#000000; fill-opacity:1.0; 
stroke:#000000; stroke-width:0; stroke-opacity:1; 
stroke-linecap:round; stroke-linejoin:round;">
<circle cx="45669.3" cy="43133.9" r="334.646" /> 
</g>
<g style="fill:#000000; fill-opacity:1.0; 
stroke:#000000; stroke-width:39.3701; stroke-opacity:1; 
stroke-linecap:round; stroke-linejoin:round;">
</g>
<g style="fill:#000000; fill-opacity:1.0; 
stroke:#000000; stroke-width:0; stroke-opacity:1; 
stroke-linecap:round; stroke-linejoin:round;">
<circle cx="45669.3" cy="42133.9" r="334.646" /> 
</g>
<g style="fill:#000000; fill-opacity:1.0; 
stroke:#000000; stroke-width:39.3701; stroke-opacity:1; 
stroke-linecap:round; stroke-linejoin:round;">
</g>
<g style="fill:#000000; fill-opacity:1.0; 
stroke:#000000; stroke-width:0; stroke-opacity:1; 
stroke-linecap:round; stroke-linejoin:round;">
<circle cx="45669.3" cy="41133.9" r="334.646" /> 
</g>
<g style="fill:#000000; fill-opacity:1.0; 
stroke:#000000; stroke-width:39.3701; stroke-opacity:1; 
stroke-linecap:round; stroke-linejoin:round;">
</g>
<g style="fill:#000000; fill-opacity:1.0; 
stroke:#000000; stroke-width:0; stroke-opacity:1; 
stroke-linecap:round; stroke-linejoin:round;">
<circle cx="45669.3" cy="40133.9" r="334.646" /> 
</g>
<g style="fill:#000000; fill-opacity:1.0; 
stroke:#000000; stroke-width:39.3701; stroke-opacity:1; 
stroke-linecap:round; stroke-linejoin:round;">
</g>
<g style="fill:#000000; fill-opacity:1.0; 
stroke:#000000; stroke-width:0; stroke-opacity:1; 
stroke-linecap:round; stroke-linejoin:round;">
<circle cx="45669.3" cy="39133.9" r="334.646" /> 
</g>
<g style="fill:#000000; fill-opacity:1.0; 
stroke:#000000; stroke-width:39.3701; stroke-opacity:1; 
stroke-linecap:round; stroke-linejoin:round;">
</g>
<g style="fill:#000000; fill-opacity:1.0; 
stroke:#000000; stroke-width:0; stroke-opacity:1; 
stroke-linecap:round; stroke-linejoin:round;">
<circle cx="45669.3" cy="38133.9" r="334.646" /> 
</g>
<g style="fill:#000000; fill-opacity:1.0; 
stroke:#000000; stroke-width:39.3701; stroke-opacity:1; 
stroke-linecap:round; stroke-linejoin:round;">
</g>
<g style="fill:#000000; fill-opacity:1.0; 
stroke:#000000; stroke-width:0; stroke-opacity:1; 
stroke-linecap:round; stroke-linejoin:round;">
<circle cx="45669.3" cy="37133.9" r="334.646" /> 
</g>
<g style="fill:#000000; fill-opacity:1.0; 
stroke:#000000; stroke-width:39.3701; stroke-opacity:1; 
stroke-linecap:round; stroke-linejoin:round;">
</g>
<g style="fill:#000000; fill-opacity:1.0; 
stroke:#000000; stroke-width:0; stroke-opacity:1; 
stroke-linecap:round; stroke-linejoin:round;">
<circle cx="45669.3" cy="36133.9" r="334.646" /> 
</g>
<g style="fill:#000000; fill-opacity:1.0; 
stroke:#000000; stroke-width:39.3701; stroke-opacity:1; 
stroke-linecap:round; stroke-linejoin:round;">
</g>
<g style="fill:#000000; fill-opacity:1.0; 
stroke:#000000; stroke-width:0; stroke-opacity:1; 
stroke-linecap:round; stroke-linejoin:round;">
<circle cx="45669.3" cy="35133.9" r="334.646" /> 
</g>
<g style="fill:#000000; fill-opacity:1.0; 
stroke:#000000; stroke-width:39.3701; stroke-opacity:1; 
stroke-linecap:round; stroke-linejoin:round;">
</g>
<g style="fill:#000000; fill-opacity:1.0; 
stroke:#000000; stroke-width:0; stroke-opacity:1; 
stroke-linecap:round; stroke-linejoin:round;">
<circle cx="45669.3" cy="34133.9" r="334.646" /> 
</g>
<g style="fill:#000000; fill-opacity:1.0; 
stroke:#000000; stroke-width:39.3701; stroke-opacity:1; 
stroke-linecap:round; stroke-linejoin:round;">
</g>
<g style="fill:#000000; fill-opacity:1.0; 
stroke:#000000; stroke-width:0; stroke-opacity:1; 
stroke-linecap:round; stroke-linejoin:round;">
<circle cx="45669.3" cy="33133.9" r="334.646" /> 
</g>
<g style="fill:#000000; fill-opacity:1.0; 
stroke:#000000; stroke-width:39.3701; stroke-opacity:1; 
stroke-linecap:round; stroke-linejoin:round;">
</g>
<g style="fill:#000000; fill-opacity:1.0; 
stroke:#000000; stroke-width:0; stroke-opacity:1; 
stroke-linecap:round; stroke-linejoin:round;">
<circle cx="45669.3" cy="32133.9" r="334.646" /> 
</g>
<g style="fill:#000000; fill-opacity:1.0; 
stroke:#000000; stroke-width:39.3701; stroke-opacity:1; 
stroke-linecap:round; stroke-linejoin:round;">
</g>
<g style="fill:#000000; fill-opacity:1.0; 
stroke:#000000; stroke-width:0; stroke-opacity:1; 
stroke-linecap:round; stroke-linejoin:round;">
<circle cx="45669.3" cy="31133.9" r="334.646" /> 
</g>
<g style="fill:#000000; fill-opacity:1.0; 
stroke:#000000; stroke-width:39.3701; stroke-opacity:1; 
stroke-linecap:round; stroke-linejoin:round;">
</g>
<g style="fill:#000000; fill-opacity:1.0; 
stroke:#000000; stroke-width:0; stroke-opacity:1; 
stroke-linecap:round; stroke-linejoin:round;">
<circle cx="45669.3" cy="30133.9" r="334.646" /> 
</g>
<g style="fill:#000000; fill-opacity:1.0; 
stroke:#000000; stroke-width:39.3701; stroke-opacity:1; 
stroke-linecap:round; stroke-linejoin:round;">
</g>
<g style="fill:#000000; fill-opacity:1.0; 
stroke:#000000; stroke-width:0; stroke-opacity:1; 
stroke-linecap:round; stroke-linejoin:round;">
<path style="fill:#000000; fill-opacity:1.0; 
stroke:#000000; stroke-width:0; stroke-opacity:1; 
stroke-linecap:round; stroke-linejoin:round;fill-rule:evenodd;"
d="M 45915.2,28799.7
45924.7,28801.1
45934.1,28803.5
45943.2,28806.7
45951.9,28810.8
45960.2,28815.8
45968,28821.6
45975.1,28828
45981.6,28835.2
45987.3,28843
45992.3,28851.2
45996.4,28860
45999.7,28869.1
46002,28878.4
46003.5,28888
46003.9,28897.6
46003.9,29370.1
46003.5,29379.7
46002,29389.3
45999.7,29398.6
45996.4,29407.7
45992.3,29416.5
45987.3,29424.8
45981.6,29432.5
45975.1,29439.7
45968,29446.2
45960.2,29451.9
45951.9,29456.9
45943.2,29461
45934.1,29464.3
45924.7,29466.6
45915.2,29468
45905.5,29468.5
45433.1,29468.5
45423.4,29468
45413.9,29466.6
45404.5,29464.3
45395.4,29461
45386.7,29456.9
45378.4,29451.9
45370.6,29446.2
45363.5,29439.7
45357,29432.5
45351.2,29424.8
45346.3,29416.5
45342.1,29407.7
45338.9,29398.6
45336.5,29389.3
45335.1,29379.7
45334.6,29370.1
45334.6,28897.6
45335.1,28888
45336.5,28878.4
45338.9,28869.1
45342.1,28860
45346.3,28851.2
45351.2,28843
45357,28835.2
45363.5,28828
45370.6,28821.6
45378.4,28815.8
45386.7,28810.8
45395.4,28806.7
45404.5,28803.5
45413.9,28801.1
45423.4,28799.7
45433.1,28799.2
45905.5,28799.2
Z" /> 
</g>
<g >
</g>
<g style="fill:#000000; fill-opacity:1.0; 
stroke:#000000; stroke-width:0; stroke-opacity:1; 
stroke-linecap:round; stroke-linejoin:round;">
</g>
<g style="fill:#000000; fill-opacity:1.0; 
stroke:#000000; stroke-width:669.291; stroke-opacity:1; 
stroke-linecap:round; stroke-linejoin:round;">
</g>
<g style="fill:#000000; fill-opacity:0.0; 
stroke:#000000; stroke-width:669.291; stroke-opacity:1; 
stroke-linecap:round; stroke-linejoin:round;">
<path d="M56348 36023
L56250 36023
" />
<path d="M56348 35039
L56250 35039
" />
<path d="M56348 34055
L56250 34055
" />
</g>
<g style="fill:#000000; fill-opacity:0.0; 
stroke:#000000; stroke-width:0; stroke-opacity:1; 
stroke-linecap:round; stroke-linejoin:round;">
</g>
<g style="fill:#000000; fill-opacity:1.0; 
stroke:#000000; stroke-width:0; stroke-opacity:1; 
stroke-linecap:round; stroke-linejoin:round;">
<path style="fill:#000000; fill-opacity:1.0; 
stroke:#000000; stroke-width:0; stroke-opacity:1; 
stroke-linecap:round; stroke-linejoin:round;fill-rule:evenodd;"
d="M 56594.3,32736.7
56603.8,32738.1
56613.2,32740.5
56622.3,32743.7
56631,32747.8
56639.3,32752.8
56647.1,32758.6
56654.2,32765
56660.7,32772.2
56666.5,32780
56671.4,32788.2
56675.6,32797
56678.8,32806.1
56681.2,32815.4
56682.6,32825
56683.1,32834.6
56683.1,33307.1
56682.6,33316.7
56681.2,33326.3
56678.8,33335.7
56675.6,33344.8
56671.4,33353.5
56666.5,33361.8
56660.7,33369.5
56654.2,33376.7
56647.1,33383.2
56639.3,33388.9
56631,33393.9
56622.3,33398
56613.2,33401.3
56603.8,33403.6
56594.3,33405
56584.6,33405.5
56013.8,33405.5
56004.1,33405
55994.6,33403.6
55985.2,33401.3
55976.1,33398
55967.4,33393.9
55959.1,33388.9
55951.3,33383.2
55944.2,33376.7
55937.7,33369.5
55931.9,33361.8
55927,33353.5
55922.8,33344.8
55919.6,33335.7
55917.2,33326.3
55915.8,33316.7
55915.4,33307.1
55915.4,32834.6
55915.8,32825
55917.2,32815.4
55919.6,32806.1
55922.8,32797
55927,32788.2
55931.9,32780
55937.7,32772.2
55944.2,32765
55951.3,32758.6
55959.1,32752.8
55967.4,32747.8
55976.1,32743.7
55985.2,32740.5
55994.6,32738.1
56004.1,32736.7
56013.8,32736.2
56584.6,32736.2
Z" /> 
</g>
<g >
</g>
<g style="fill:#000000; fill-opacity:1.0; 
stroke:#000000; stroke-width:0; stroke-opacity:1; 
stroke-linecap:round; stroke-linejoin:round;">
</g>
<g style="fill:#000000; fill-opacity:1.0; 
stroke:#000000; stroke-width:669.291; stroke-opacity:1; 
stroke-linecap:round; stroke-linejoin:round;">
</g>
<g style="fill:#000000; fill-opacity:0.0; 
stroke:#000000; stroke-width:669.291; stroke-opacity:1; 
stroke-linecap:round; stroke-linejoin:round;">
<path d="M56348 30511
L56250 30511
" />
<path d="M56348 29527
L56250 29527
" />
<path d="M56348 28543
L56250 28543
" />
</g>
<g style="fill:#000000; fill-opacity:0.0; 
stroke:#000000; stroke-width:0; stroke-opacity:1; 
stroke-linecap:round; stroke-linejoin:round;">
</g>
<g style="fill:#000000; fill-opacity:1.0; 
stroke:#000000; stroke-width:0; stroke-opacity:1; 
stroke-linecap:round; stroke-linejoin:round;">
<path style="fill:#000000; fill-opacity:1.0; 
stroke:#000000; stroke-width:0; stroke-opacity:1; 
stroke-linecap:round; stroke-linejoin:round;fill-rule:evenodd;"
d="M 56594.3,27224.9
56603.8,27226.3
56613.2,27228.6
56622.3,27231.9
56631,27236
56639.3,27241
56647.1,27246.8
56654.2,27253.2
56660.7,27260.4
56666.5,27268.2
56671.4,27276.4
56675.6,27285.2
56678.8,27294.3
56681.2,27303.6
56682.6,27313.2
56683.1,27322.8
56683.1,27795.3
56682.6,27804.9
56681.2,27814.5
56678.8,27823.8
56675.6,27832.9
56671.4,27841.7
56666.5,27850
56660.7,27857.7
56654.2,27864.9
56647.1,27871.4
56639.3,27877.1
56631,27882.1
56622.3,27886.2
56613.2,27889.5
56603.8,27891.8
56594.3,27893.2
56584.6,27893.7
56013.8,27893.7
56004.1,27893.2
55994.6,27891.8
55985.2,27889.5
55976.1,27886.2
55967.4,27882.1
55959.1,27877.1
55951.3,27871.4
55944.2,27864.9
55937.7,27857.7
55931.9,27850
55927,27841.7
55922.8,27832.9
55919.6,27823.8
55917.2,27814.5
55915.8,27804.9
55915.4,27795.3
55915.4,27322.8
55915.8,27313.2
55917.2,27303.6
55919.6,27294.3
55922.8,27285.2
55927,27276.4
55931.9,27268.2
55937.7,27260.4
55944.2,27253.2
55951.3,27246.8
55959.1,27241
55967.4,27236
55976.1,27231.9
55985.2,27228.6
55994.6,27226.3
56004.1,27224.9
56013.8,27224.4
56584.6,27224.4
Z" /> 
</g>
<g >
</g>
<g style="fill:#000000; fill-opacity:1.0; 
stroke:#000000; stroke-width:0; stroke-opacity:1; 
stroke-linecap:round; stroke-linejoin:round;">
</g>
<g style="fill:#000000; fill-opacity:1.0; 
stroke:#000000; stroke-width:669.291; stroke-opacity:1; 
stroke-linecap:round; stroke-linejoin:round;">
</g>
<g style="fill:#000000; fill-opacity:0.0; 
stroke:#000000; stroke-width:669.291; stroke-opacity:1; 
stroke-linecap:round; stroke-linejoin:round;">
<path d="M56348 25000
L56250 25000
" />
<path d="M56348 24015
L56250 24015
" />
<path d="M56348 23031
L56250 23031
" />
</g>
<g style="fill:#000000; fill-opacity:0.0; 
stroke:#000000; stroke-width:0; stroke-opacity:1; 
stroke-linecap:round; stroke-linejoin:round;">
</g>
<g style="fill:#000000; fill-opacity:1.0; 
stroke:#000000; stroke-width:0; stroke-opacity:1; 
stroke-linecap:round; stroke-linejoin:round;">
<path style="fill:#000000; fill-opacity:1.0; 
stroke:#000000; stroke-width:0; stroke-opacity:1; 
stroke-linecap:round; stroke-linejoin:round;fill-rule:evenodd;"
d="M 56594.3,21713.1
56603.8,21714.5
56613.2,21716.8
56622.3,21720.1
56631,21724.2
56639.3,21729.2
56647.1,21734.9
56654.2,21741.4
56660.7,21748.6
56666.5,21756.3
56671.4,21764.6
56675.6,21773.4
56678.8,21782.5
56681.2,21791.8
56682.6,21801.4
56683.1,21811
56683.1,22283.5
56682.6,22293.1
56681.2,22302.7
56678.8,22312
56675.6,22321.1
56671.4,22329.9
56666.5,22338.1
56660.7,22345.9
56654.2,22353.1
56647.1,22359.5
56639.3,22365.3
56631,22370.3
56622.3,22374.4
56613.2,22377.7
56603.8,22380
56594.3,22381.4
56584.6,22381.9
56013.8,22381.9
56004.1,22381.4
55994.6,22380
55985.2,22377.7
55976.1,22374.4
55967.4,22370.3
55959.1,22365.3
55951.3,22359.5
55944.2,22353.1
55937.7,22345.9
55931.9,22338.1
55927,22329.9
55922.8,22321.1
55919.6,22312
55917.2,22302.7
55915.8,22293.1
55915.4,22283.5
55915.4,21811
55915.8,21801.4
55917.2,21791.8
55919.6,21782.5
55922.8,21773.4
55927,21764.6
55931.9,21756.3
55937.7,21748.6
55944.2,21741.4
55951.3,21734.9
55959.1,21729.2
55967.4,21724.2
55976.1,21720.1
55985.2,21716.8
55994.6,21714.5
56004.1,21713.1
56013.8,21712.6
56584.6,21712.6
Z" /> 
</g>
<g >
</g>
<g style="fill:#000000; fill-opacity:1.0; 
stroke:#000000; stroke-width:0; stroke-opacity:1; 
stroke-linecap:round; stroke-linejoin:round;">
</g>
<g style="fill:#000000; fill-opacity:1.0; 
stroke:#000000; stroke-width:669.291; stroke-opacity:1; 
stroke-linecap:round; stroke-linejoin:round;">
</g>
<g style="fill:#000000; fill-opacity:0.0; 
stroke:#000000; stroke-width:669.291; stroke-opacity:1; 
stroke-linecap:round; stroke-linejoin:round;">
<path d="M56348 55314
L56250 55314
" />
<path d="M56348 54330
L56250 54330
" />
<path d="M56348 53346
L56250 53346
" />
</g>
<g style="fill:#000000; fill-opacity:0.0; 
stroke:#000000; stroke-width:0; stroke-opacity:1; 
stroke-linecap:round; stroke-linejoin:round;">
</g>
<g style="fill:#000000; fill-opacity:1.0; 
stroke:#000000; stroke-width:0; stroke-opacity:1; 
stroke-linecap:round; stroke-linejoin:round;">
<path style="fill:#000000; fill-opacity:1.0; 
stroke:#000000; stroke-width:0; stroke-opacity:1; 
stroke-linecap:round; stroke-linejoin:round;fill-rule:evenodd;"
d="M 56594.3,52028
56603.8,52029.5
56613.2,52031.8
56622.3,52035.1
56631,52039.2
56639.3,52044.1
56647.1,52049.9
56654.2,52056.4
56660.7,52063.5
56666.5,52071.3
56671.4,52079.6
56675.6,52088.3
56678.8,52097.4
56681.2,52106.8
56682.6,52116.3
56683.1,52126
56683.1,52598.4
56682.6,52608.1
56681.2,52617.6
56678.8,52627
56675.6,52636.1
56671.4,52644.8
56666.5,52653.1
56660.7,52660.9
56654.2,52668
56647.1,52674.5
56639.3,52680.3
56631,52685.2
56622.3,52689.4
56613.2,52692.6
56603.8,52695
56594.3,52696.4
56584.6,52696.9
56013.8,52696.9
56004.1,52696.4
55994.6,52695
55985.2,52692.6
55976.1,52689.4
55967.4,52685.2
55959.1,52680.3
55951.3,52674.5
55944.2,52668
55937.7,52660.9
55931.9,52653.1
55927,52644.8
55922.8,52636.1
55919.6,52627
55917.2,52617.6
55915.8,52608.1
55915.4,52598.4
55915.4,52126
55915.8,52116.3
55917.2,52106.8
55919.6,52097.4
55922.8,52088.3
55927,52079.6
55931.9,52071.3
55937.7,52063.5
55944.2,52056.4
55951.3,52049.9
55959.1,52044.1
55967.4,52039.2
55976.1,52035.1
55985.2,52031.8
55994.6,52029.5
56004.1,52028
56013.8,52027.6
56584.6,52027.6
Z" /> 
</g>
<g >
</g>
<g style="fill:#000000; fill-opacity:1.0; 
stroke:#000000; stroke-width:0; stroke-opacity:1; 
stroke-linecap:round; stroke-linejoin:round;">
</g>
<g style="fill:#000000; fill-opacity:1.0; 
stroke:#000000; stroke-width:669.291; stroke-opacity:1; 
stroke-linecap:round; stroke-linejoin:round;">
</g>
<g style="fill:#000000; fill-opacity:0.0; 
stroke:#000000; stroke-width:669.291; stroke-opacity:1; 
stroke-linecap:round; stroke-linejoin:round;">
<path d="M56348 49803
L56250 49803
" />
<path d="M56348 48818
L56250 48818
" />
<path d="M56348 47834
L56250 47834
" />
</g>
<g style="fill:#000000; fill-opacity:0.0; 
stroke:#000000; stroke-width:0; stroke-opacity:1; 
stroke-linecap:round; stroke-linejoin:round;">
</g>
<g style="fill:#000000; fill-opacity:1.0; 
stroke:#000000; stroke-width:0; stroke-opacity:1; 
stroke-linecap:round; stroke-linejoin:round;">
<path style="fill:#000000; fill-opacity:1.0; 
stroke:#000000; stroke-width:0; stroke-opacity:1; 
stroke-linecap:round; stroke-linejoin:round;fill-rule:evenodd;"
d="M 56594.3,46516.2
56603.8,46517.6
56613.2,46520
56622.3,46523.2
56631,46527.4
56639.3,46532.3
56647.1,46538.1
56654.2,46544.6
56660.7,46551.7
56666.5,46559.5
56671.4,46567.8
56675.6,46576.5
56678.8,46585.6
56681.2,46595
56682.6,46604.5
56683.1,46614.2
56683.1,47086.6
56682.6,47096.3
56681.2,47105.8
56678.8,47115.2
56675.6,47124.3
56671.4,47133
56666.5,47141.3
56660.7,47149.1
56654.2,47156.2
56647.1,47162.7
56639.3,47168.5
56631,47173.4
56622.3,47177.5
56613.2,47180.8
56603.8,47183.1
56594.3,47184.6
56584.6,47185
56013.8,47185
56004.1,47184.6
55994.6,47183.1
55985.2,47180.8
55976.1,47177.5
55967.4,47173.4
55959.1,47168.5
55951.3,47162.7
55944.2,47156.2
55937.7,47149.1
55931.9,47141.3
55927,47133
55922.8,47124.3
55919.6,47115.2
55917.2,47105.8
55915.8,47096.3
55915.4,47086.6
55915.4,46614.2
55915.8,46604.5
55917.2,46595
55919.6,46585.6
55922.8,46576.5
55927,46567.8
55931.9,46559.5
55937.7,46551.7
55944.2,46544.6
55951.3,46538.1
55959.1,46532.3
55967.4,46527.4
55976.1,46523.2
55985.2,46520
55994.6,46517.6
56004.1,46516.2
56013.8,46515.7
56584.6,46515.7
Z" /> 
</g>
<g >
</g>
<g style="fill:#000000; fill-opacity:1.0; 
stroke:#000000; stroke-width:0; stroke-opacity:1; 
stroke-linecap:round; stroke-linejoin:round;">
</g>
<g style="fill:#000000; fill-opacity:1.0; 
stroke:#000000; stroke-width:669.291; stroke-opacity:1; 
stroke-linecap:round; stroke-linejoin:round;">
</g>
<g style="fill:#000000; fill-opacity:0.0; 
stroke:#000000; stroke-width:669.291; stroke-opacity:1; 
stroke-linecap:round; stroke-linejoin:round;">
<path d="M56348 44291
L56250 44291
" />
<path d="M56348 43307
L56250 43307
" />
<path d="M56348 42322
L56250 42322
" />
</g>
<g style="fill:#000000; fill-opacity:0.0; 
stroke:#000000; stroke-width:0; stroke-opacity:1; 
stroke-linecap:round; stroke-linejoin:round;">
</g>
<g style="fill:#000000; fill-opacity:1.0; 
stroke:#000000; stroke-width:0; stroke-opacity:1; 
stroke-linecap:round; stroke-linejoin:round;">
<path style="fill:#000000; fill-opacity:1.0; 
stroke:#000000; stroke-width:0; stroke-opacity:1; 
stroke-linecap:round; stroke-linejoin:round;fill-rule:evenodd;"
d="M 56594.3,41004.4
56603.8,41005.8
56613.2,41008.2
56622.3,41011.4
56631,41015.6
56639.3,41020.5
56647.1,41026.3
56654.2,41032.8
56660.7,41039.9
56666.5,41047.7
56671.4,41056
56675.6,41064.7
56678.8,41073.8
56681.2,41083.2
56682.6,41092.7
56683.1,41102.4
56683.1,41574.8
56682.6,41584.5
56681.2,41594
56678.8,41603.4
56675.6,41612.5
56671.4,41621.2
56666.5,41629.5
56660.7,41637.2
56654.2,41644.4
56647.1,41650.9
56639.3,41656.6
56631,41661.6
56622.3,41665.7
56613.2,41669
56603.8,41671.3
56594.3,41672.8
56584.6,41673.2
56013.8,41673.2
56004.1,41672.8
55994.6,41671.3
55985.2,41669
55976.1,41665.7
55967.4,41661.6
55959.1,41656.6
55951.3,41650.9
55944.2,41644.4
55937.7,41637.2
55931.9,41629.5
55927,41621.2
55922.8,41612.5
55919.6,41603.4
55917.2,41594
55915.8,41584.5
55915.4,41574.8
55915.4,41102.4
55915.8,41092.7
55917.2,41083.2
55919.6,41073.8
55922.8,41064.7
55927,41056
55931.9,41047.7
55937.7,41039.9
55944.2,41032.8
55951.3,41026.3
55959.1,41020.5
55967.4,41015.6
55976.1,41011.4
55985.2,41008.2
55994.6,41005.8
56004.1,41004.4
56013.8,41003.9
56584.6,41003.9
Z" /> 
</g>
<g >
</g>
<g style="fill:#000000; fill-opacity:1.0; 
stroke:#000000; stroke-width:0; stroke-opacity:1; 
stroke-linecap:round; stroke-linejoin:round;">
<circle cx="41338.6" cy="56692.9" r="1181.1" /> 
</g>
<g style="fill:#000000; fill-opacity:1.0; 
stroke:#000000; stroke-width:39.3701; stroke-opacity:1; 
stroke-linecap:round; stroke-linejoin:round;">
</g>
<g >
</g>
<g style="fill:#000000; fill-opacity:1.0; 
stroke:#000000; stroke-width:39.3701; stroke-opacity:1; 
stroke-linecap:round; stroke-linejoin:round;">
</g>
<g style="fill:#000000; fill-opacity:1.0; 
stroke:#000000; stroke-width:0; stroke-opacity:1; 
stroke-linecap:round; stroke-linejoin:round;">
<circle cx="77559.1" cy="56692.9" r="1181.1" /> 
</g>
<g style="fill:#000000; fill-opacity:1.0; 
stroke:#000000; stroke-width:39.3701; stroke-opacity:1; 
stroke-linecap:round; stroke-linejoin:round;">
</g>
<g >
</g>
<g style="fill:#000000; fill-opacity:1.0; 
stroke:#000000; stroke-width:39.3701; stroke-opacity:1; 
stroke-linecap:round; stroke-linejoin:round;">
</g>
<g style="fill:#000000; fill-opacity:1.0; 
stroke:#000000; stroke-width:0; stroke-opacity:1; 
stroke-linecap:round; stroke-linejoin:round;">
<circle cx="41338.6" cy="20472.4" r="1181.1" /> 
</g>
<g style="fill:#000000; fill-opacity:1.0; 
stroke:#000000; stroke-width:39.3701; stroke-opacity:1; 
stroke-linecap:round; stroke-linejoin:round;">
</g>
<g >
</g>
<g style="fill:#000000; fill-opacity:1.0; 
stroke:#000000; stroke-width:39.3701; stroke-opacity:1; 
stroke-linecap:round; stroke-linejoin:round;">
</g>
<g style="fill:#000000; fill-opacity:1.0; 
stroke:#000000; stroke-width:0; stroke-opacity:1; 
stroke-linecap:round; stroke-linejoin:round;">
<circle cx="77559.1" cy="20472.4" r="1181.1" /> 
</g>
<g style="fill:#000000; fill-opacity:1.0; 
stroke:#000000; stroke-width:39.3701; stroke-opacity:1; 
stroke-linecap:round; stroke-linejoin:round;">
</g>
<g >
</g>
<g >
</g>
<g >
</g>
</g> 
</svg>
