<?xml version="1.0" standalone="no"?>
 <!DOCTYPE svg PUBLIC "-//W3C//DTD SVG 1.1//EN" 
 "http://www.w3.org/Graphics/SVG/1.1/DTD/svg11.dtd"> 
<svg
  xmlns:svg="http://www.w3.org/2000/svg"
  xmlns="http://www.w3.org/2000/svg"
  xmlns:xlink="http://www.w3.org/1999/xlink"
  version="1.1"
  width="29.700220cm" height="21.000720cm" viewBox="0 0 116930 82680">
<title>SVG Picture created as rpi-arcade-hat-B_Cu.svg date 2021/09/26 16:06:12 </title>
  <desc>Picture generated by PCBNEW </desc>
<g style="fill:#000000; fill-opacity:1;stroke:#000000; stroke-opacity:1;
stroke-linecap:round; stroke-linejoin:round;"
 transform="translate(0 0) scale(1 1)">
</g>
<g style="fill:#000000; fill-opacity:0.0; 
stroke:#000000; stroke-width:-0.000393701; stroke-opacity:1; 
stroke-linecap:round; stroke-linejoin:round;">
<g >
</g>
<g >
</g>
<g style="fill:#000000; fill-opacity:0.0; 
stroke:#000000; stroke-width:-0.000393701; stroke-opacity:1; 
stroke-linecap:round; stroke-linejoin:round;">
</g>
<g style="fill:#000000; fill-opacity:0.0; 
stroke:#000000; stroke-width:669.291; stroke-opacity:1; 
stroke-linecap:round; stroke-linejoin:round;">
<path d="M65698 37204
L65797 37204
" />
<path d="M65698 38188
L65797 38188
" />
<path d="M65698 39173
L65797 39173
" />
</g>
<g style="fill:#000000; fill-opacity:0.0; 
stroke:#000000; stroke-width:0; stroke-opacity:1; 
stroke-linecap:round; stroke-linejoin:round;">
</g>
<g style="fill:#000000; fill-opacity:1.0; 
stroke:#000000; stroke-width:0; stroke-opacity:1; 
stroke-linecap:round; stroke-linejoin:round;">
<path style="fill:#000000; fill-opacity:1.0; 
stroke:#000000; stroke-width:0; stroke-opacity:1; 
stroke-linecap:round; stroke-linejoin:round;fill-rule:evenodd;"
d="M 66043.1,39823.3
66052.7,39824.7
66062,39827.1
66071.1,39830.3
66079.9,39834.5
66088.1,39839.4
66095.9,39845.2
66103.1,39851.7
66109.5,39858.8
66115.3,39866.6
66120.3,39874.9
66124.4,39883.6
66127.7,39892.7
66130,39902.1
66131.4,39911.6
66131.9,39921.3
66131.9,40393.7
66131.4,40403.3
66130,40412.9
66127.7,40422.3
66124.4,40431.4
66120.3,40440.1
66115.3,40448.4
66109.5,40456.1
66103.1,40463.3
66095.9,40469.8
66088.1,40475.5
66079.9,40480.5
66071.1,40484.6
66062,40487.9
66052.7,40490.2
66043.1,40491.7
66033.5,40492.1
65462.6,40492.1
65453,40491.7
65443.4,40490.2
65434,40487.9
65424.9,40484.6
65416.2,40480.5
65407.9,40475.5
65400.2,40469.8
65393,40463.3
65386.5,40456.1
65380.8,40448.4
65375.8,40440.1
65371.7,40431.4
65368.4,40422.3
65366.1,40412.9
65364.6,40403.3
65364.2,40393.7
65364.2,39921.3
65364.6,39911.6
65366.1,39902.1
65368.4,39892.7
65371.7,39883.6
65375.8,39874.9
65380.8,39866.6
65386.5,39858.8
65393,39851.7
65400.2,39845.2
65407.9,39839.4
65416.2,39834.5
65424.9,39830.3
65434,39827.1
65443.4,39824.7
65453,39823.3
65462.6,39822.8
66033.5,39822.8
Z" /> 
</g>
<g >
</g>
<g style="fill:#000000; fill-opacity:1.0; 
stroke:#000000; stroke-width:0; stroke-opacity:1; 
stroke-linecap:round; stroke-linejoin:round;">
<circle cx="46669.3" cy="48133.9" r="334.646" /> 
</g>
<g style="fill:#000000; fill-opacity:1.0; 
stroke:#000000; stroke-width:39.3701; stroke-opacity:1; 
stroke-linecap:round; stroke-linejoin:round;">
</g>
<g style="fill:#000000; fill-opacity:1.0; 
stroke:#000000; stroke-width:0; stroke-opacity:1; 
stroke-linecap:round; stroke-linejoin:round;">
<circle cx="46669.3" cy="47133.9" r="334.646" /> 
</g>
<g style="fill:#000000; fill-opacity:1.0; 
stroke:#000000; stroke-width:39.3701; stroke-opacity:1; 
stroke-linecap:round; stroke-linejoin:round;">
</g>
<g style="fill:#000000; fill-opacity:1.0; 
stroke:#000000; stroke-width:0; stroke-opacity:1; 
stroke-linecap:round; stroke-linejoin:round;">
<circle cx="46669.3" cy="46133.9" r="334.646" /> 
</g>
<g style="fill:#000000; fill-opacity:1.0; 
stroke:#000000; stroke-width:39.3701; stroke-opacity:1; 
stroke-linecap:round; stroke-linejoin:round;">
</g>
<g style="fill:#000000; fill-opacity:1.0; 
stroke:#000000; stroke-width:0; stroke-opacity:1; 
stroke-linecap:round; stroke-linejoin:round;">
<circle cx="46669.3" cy="45133.9" r="334.646" /> 
</g>
<g style="fill:#000000; fill-opacity:1.0; 
stroke:#000000; stroke-width:39.3701; stroke-opacity:1; 
stroke-linecap:round; stroke-linejoin:round;">
</g>
<g style="fill:#000000; fill-opacity:1.0; 
stroke:#000000; stroke-width:0; stroke-opacity:1; 
stroke-linecap:round; stroke-linejoin:round;">
<circle cx="46669.3" cy="44133.9" r="334.646" /> 
</g>
<g style="fill:#000000; fill-opacity:1.0; 
stroke:#000000; stroke-width:39.3701; stroke-opacity:1; 
stroke-linecap:round; stroke-linejoin:round;">
</g>
<g style="fill:#000000; fill-opacity:1.0; 
stroke:#000000; stroke-width:0; stroke-opacity:1; 
stroke-linecap:round; stroke-linejoin:round;">
<circle cx="46669.3" cy="43133.9" r="334.646" /> 
</g>
<g style="fill:#000000; fill-opacity:1.0; 
stroke:#000000; stroke-width:39.3701; stroke-opacity:1; 
stroke-linecap:round; stroke-linejoin:round;">
</g>
<g style="fill:#000000; fill-opacity:1.0; 
stroke:#000000; stroke-width:0; stroke-opacity:1; 
stroke-linecap:round; stroke-linejoin:round;">
<circle cx="46669.3" cy="42133.9" r="334.646" /> 
</g>
<g style="fill:#000000; fill-opacity:1.0; 
stroke:#000000; stroke-width:39.3701; stroke-opacity:1; 
stroke-linecap:round; stroke-linejoin:round;">
</g>
<g style="fill:#000000; fill-opacity:1.0; 
stroke:#000000; stroke-width:0; stroke-opacity:1; 
stroke-linecap:round; stroke-linejoin:round;">
<circle cx="46669.3" cy="41133.9" r="334.646" /> 
</g>
<g style="fill:#000000; fill-opacity:1.0; 
stroke:#000000; stroke-width:39.3701; stroke-opacity:1; 
stroke-linecap:round; stroke-linejoin:round;">
</g>
<g style="fill:#000000; fill-opacity:1.0; 
stroke:#000000; stroke-width:0; stroke-opacity:1; 
stroke-linecap:round; stroke-linejoin:round;">
<circle cx="46669.3" cy="40133.9" r="334.646" /> 
</g>
<g style="fill:#000000; fill-opacity:1.0; 
stroke:#000000; stroke-width:39.3701; stroke-opacity:1; 
stroke-linecap:round; stroke-linejoin:round;">
</g>
<g style="fill:#000000; fill-opacity:1.0; 
stroke:#000000; stroke-width:0; stroke-opacity:1; 
stroke-linecap:round; stroke-linejoin:round;">
<circle cx="46669.3" cy="39133.9" r="334.646" /> 
</g>
<g style="fill:#000000; fill-opacity:1.0; 
stroke:#000000; stroke-width:39.3701; stroke-opacity:1; 
stroke-linecap:round; stroke-linejoin:round;">
</g>
<g style="fill:#000000; fill-opacity:1.0; 
stroke:#000000; stroke-width:0; stroke-opacity:1; 
stroke-linecap:round; stroke-linejoin:round;">
<circle cx="46669.3" cy="38133.9" r="334.646" /> 
</g>
<g style="fill:#000000; fill-opacity:1.0; 
stroke:#000000; stroke-width:39.3701; stroke-opacity:1; 
stroke-linecap:round; stroke-linejoin:round;">
</g>
<g style="fill:#000000; fill-opacity:1.0; 
stroke:#000000; stroke-width:0; stroke-opacity:1; 
stroke-linecap:round; stroke-linejoin:round;">
<circle cx="46669.3" cy="37133.9" r="334.646" /> 
</g>
<g style="fill:#000000; fill-opacity:1.0; 
stroke:#000000; stroke-width:39.3701; stroke-opacity:1; 
stroke-linecap:round; stroke-linejoin:round;">
</g>
<g style="fill:#000000; fill-opacity:1.0; 
stroke:#000000; stroke-width:0; stroke-opacity:1; 
stroke-linecap:round; stroke-linejoin:round;">
<circle cx="46669.3" cy="36133.9" r="334.646" /> 
</g>
<g style="fill:#000000; fill-opacity:1.0; 
stroke:#000000; stroke-width:39.3701; stroke-opacity:1; 
stroke-linecap:round; stroke-linejoin:round;">
</g>
<g style="fill:#000000; fill-opacity:1.0; 
stroke:#000000; stroke-width:0; stroke-opacity:1; 
stroke-linecap:round; stroke-linejoin:round;">
<circle cx="46669.3" cy="35133.9" r="334.646" /> 
</g>
<g style="fill:#000000; fill-opacity:1.0; 
stroke:#000000; stroke-width:39.3701; stroke-opacity:1; 
stroke-linecap:round; stroke-linejoin:round;">
</g>
<g style="fill:#000000; fill-opacity:1.0; 
stroke:#000000; stroke-width:0; stroke-opacity:1; 
stroke-linecap:round; stroke-linejoin:round;">
<circle cx="46669.3" cy="34133.9" r="334.646" /> 
</g>
<g style="fill:#000000; fill-opacity:1.0; 
stroke:#000000; stroke-width:39.3701; stroke-opacity:1; 
stroke-linecap:round; stroke-linejoin:round;">
</g>
<g style="fill:#000000; fill-opacity:1.0; 
stroke:#000000; stroke-width:0; stroke-opacity:1; 
stroke-linecap:round; stroke-linejoin:round;">
<circle cx="46669.3" cy="33133.9" r="334.646" /> 
</g>
<g style="fill:#000000; fill-opacity:1.0; 
stroke:#000000; stroke-width:39.3701; stroke-opacity:1; 
stroke-linecap:round; stroke-linejoin:round;">
</g>
<g style="fill:#000000; fill-opacity:1.0; 
stroke:#000000; stroke-width:0; stroke-opacity:1; 
stroke-linecap:round; stroke-linejoin:round;">
<circle cx="46669.3" cy="32133.9" r="334.646" /> 
</g>
<g style="fill:#000000; fill-opacity:1.0; 
stroke:#000000; stroke-width:39.3701; stroke-opacity:1; 
stroke-linecap:round; stroke-linejoin:round;">
</g>
<g style="fill:#000000; fill-opacity:1.0; 
stroke:#000000; stroke-width:0; stroke-opacity:1; 
stroke-linecap:round; stroke-linejoin:round;">
<circle cx="46669.3" cy="31133.9" r="334.646" /> 
</g>
<g style="fill:#000000; fill-opacity:1.0; 
stroke:#000000; stroke-width:39.3701; stroke-opacity:1; 
stroke-linecap:round; stroke-linejoin:round;">
</g>
<g style="fill:#000000; fill-opacity:1.0; 
stroke:#000000; stroke-width:0; stroke-opacity:1; 
stroke-linecap:round; stroke-linejoin:round;">
<circle cx="46669.3" cy="30133.9" r="334.646" /> 
</g>
<g style="fill:#000000; fill-opacity:1.0; 
stroke:#000000; stroke-width:39.3701; stroke-opacity:1; 
stroke-linecap:round; stroke-linejoin:round;">
</g>
<g style="fill:#000000; fill-opacity:1.0; 
stroke:#000000; stroke-width:0; stroke-opacity:1; 
stroke-linecap:round; stroke-linejoin:round;">
<circle cx="46669.3" cy="29133.9" r="334.646" /> 
</g>
<g style="fill:#000000; fill-opacity:1.0; 
stroke:#000000; stroke-width:39.3701; stroke-opacity:1; 
stroke-linecap:round; stroke-linejoin:round;">
</g>
<g style="fill:#000000; fill-opacity:1.0; 
stroke:#000000; stroke-width:0; stroke-opacity:1; 
stroke-linecap:round; stroke-linejoin:round;">
<circle cx="45669.3" cy="48133.9" r="334.646" /> 
</g>
<g style="fill:#000000; fill-opacity:1.0; 
stroke:#000000; stroke-width:39.3701; stroke-opacity:1; 
stroke-linecap:round; stroke-linejoin:round;">
</g>
<g style="fill:#000000; fill-opacity:1.0; 
stroke:#000000; stroke-width:0; stroke-opacity:1; 
stroke-linecap:round; stroke-linejoin:round;">
<circle cx="45669.3" cy="47133.9" r="334.646" /> 
</g>
<g style="fill:#000000; fill-opacity:1.0; 
stroke:#000000; stroke-width:39.3701; stroke-opacity:1; 
stroke-linecap:round; stroke-linejoin:round;">
</g>
<g style="fill:#000000; fill-opacity:1.0; 
stroke:#000000; stroke-width:0; stroke-opacity:1; 
stroke-linecap:round; stroke-linejoin:round;">
<circle cx="45669.3" cy="46133.9" r="334.646" /> 
</g>
<g style="fill:#000000; fill-opacity:1.0; 
stroke:#000000; stroke-width:39.3701; stroke-opacity:1; 
stroke-linecap:round; stroke-linejoin:round;">
</g>
<g style="fill:#000000; fill-opacity:1.0; 
stroke:#000000; stroke-width:0; stroke-opacity:1; 
stroke-linecap:round; stroke-linejoin:round;">
<circle cx="45669.3" cy="45133.9" r="334.646" /> 
</g>
<g style="fill:#000000; fill-opacity:1.0; 
stroke:#000000; stroke-width:39.3701; stroke-opacity:1; 
stroke-linecap:round; stroke-linejoin:round;">
</g>
<g style="fill:#000000; fill-opacity:1.0; 
stroke:#000000; stroke-width:0; stroke-opacity:1; 
stroke-linecap:round; stroke-linejoin:round;">
<circle cx="45669.3" cy="44133.9" r="334.646" /> 
</g>
<g style="fill:#000000; fill-opacity:1.0; 
stroke:#000000; stroke-width:39.3701; stroke-opacity:1; 
stroke-linecap:round; stroke-linejoin:round;">
</g>
<g style="fill:#000000; fill-opacity:1.0; 
stroke:#000000; stroke-width:0; stroke-opacity:1; 
stroke-linecap:round; stroke-linejoin:round;">
<circle cx="45669.3" cy="43133.9" r="334.646" /> 
</g>
<g style="fill:#000000; fill-opacity:1.0; 
stroke:#000000; stroke-width:39.3701; stroke-opacity:1; 
stroke-linecap:round; stroke-linejoin:round;">
</g>
<g style="fill:#000000; fill-opacity:1.0; 
stroke:#000000; stroke-width:0; stroke-opacity:1; 
stroke-linecap:round; stroke-linejoin:round;">
<circle cx="45669.3" cy="42133.9" r="334.646" /> 
</g>
<g style="fill:#000000; fill-opacity:1.0; 
stroke:#000000; stroke-width:39.3701; stroke-opacity:1; 
stroke-linecap:round; stroke-linejoin:round;">
</g>
<g style="fill:#000000; fill-opacity:1.0; 
stroke:#000000; stroke-width:0; stroke-opacity:1; 
stroke-linecap:round; stroke-linejoin:round;">
<circle cx="45669.3" cy="41133.9" r="334.646" /> 
</g>
<g style="fill:#000000; fill-opacity:1.0; 
stroke:#000000; stroke-width:39.3701; stroke-opacity:1; 
stroke-linecap:round; stroke-linejoin:round;">
</g>
<g style="fill:#000000; fill-opacity:1.0; 
stroke:#000000; stroke-width:0; stroke-opacity:1; 
stroke-linecap:round; stroke-linejoin:round;">
<circle cx="45669.3" cy="40133.9" r="334.646" /> 
</g>
<g style="fill:#000000; fill-opacity:1.0; 
stroke:#000000; stroke-width:39.3701; stroke-opacity:1; 
stroke-linecap:round; stroke-linejoin:round;">
</g>
<g style="fill:#000000; fill-opacity:1.0; 
stroke:#000000; stroke-width:0; stroke-opacity:1; 
stroke-linecap:round; stroke-linejoin:round;">
<circle cx="45669.3" cy="39133.9" r="334.646" /> 
</g>
<g style="fill:#000000; fill-opacity:1.0; 
stroke:#000000; stroke-width:39.3701; stroke-opacity:1; 
stroke-linecap:round; stroke-linejoin:round;">
</g>
<g style="fill:#000000; fill-opacity:1.0; 
stroke:#000000; stroke-width:0; stroke-opacity:1; 
stroke-linecap:round; stroke-linejoin:round;">
<circle cx="45669.3" cy="38133.9" r="334.646" /> 
</g>
<g style="fill:#000000; fill-opacity:1.0; 
stroke:#000000; stroke-width:39.3701; stroke-opacity:1; 
stroke-linecap:round; stroke-linejoin:round;">
</g>
<g style="fill:#000000; fill-opacity:1.0; 
stroke:#000000; stroke-width:0; stroke-opacity:1; 
stroke-linecap:round; stroke-linejoin:round;">
<circle cx="45669.3" cy="37133.9" r="334.646" /> 
</g>
<g style="fill:#000000; fill-opacity:1.0; 
stroke:#000000; stroke-width:39.3701; stroke-opacity:1; 
stroke-linecap:round; stroke-linejoin:round;">
</g>
<g style="fill:#000000; fill-opacity:1.0; 
stroke:#000000; stroke-width:0; stroke-opacity:1; 
stroke-linecap:round; stroke-linejoin:round;">
<circle cx="45669.3" cy="36133.9" r="334.646" /> 
</g>
<g style="fill:#000000; fill-opacity:1.0; 
stroke:#000000; stroke-width:39.3701; stroke-opacity:1; 
stroke-linecap:round; stroke-linejoin:round;">
</g>
<g style="fill:#000000; fill-opacity:1.0; 
stroke:#000000; stroke-width:0; stroke-opacity:1; 
stroke-linecap:round; stroke-linejoin:round;">
<circle cx="45669.3" cy="35133.9" r="334.646" /> 
</g>
<g style="fill:#000000; fill-opacity:1.0; 
stroke:#000000; stroke-width:39.3701; stroke-opacity:1; 
stroke-linecap:round; stroke-linejoin:round;">
</g>
<g style="fill:#000000; fill-opacity:1.0; 
stroke:#000000; stroke-width:0; stroke-opacity:1; 
stroke-linecap:round; stroke-linejoin:round;">
<circle cx="45669.3" cy="34133.9" r="334.646" /> 
</g>
<g style="fill:#000000; fill-opacity:1.0; 
stroke:#000000; stroke-width:39.3701; stroke-opacity:1; 
stroke-linecap:round; stroke-linejoin:round;">
</g>
<g style="fill:#000000; fill-opacity:1.0; 
stroke:#000000; stroke-width:0; stroke-opacity:1; 
stroke-linecap:round; stroke-linejoin:round;">
<circle cx="45669.3" cy="33133.9" r="334.646" /> 
</g>
<g style="fill:#000000; fill-opacity:1.0; 
stroke:#000000; stroke-width:39.3701; stroke-opacity:1; 
stroke-linecap:round; stroke-linejoin:round;">
</g>
<g style="fill:#000000; fill-opacity:1.0; 
stroke:#000000; stroke-width:0; stroke-opacity:1; 
stroke-linecap:round; stroke-linejoin:round;">
<circle cx="45669.3" cy="32133.9" r="334.646" /> 
</g>
<g style="fill:#000000; fill-opacity:1.0; 
stroke:#000000; stroke-width:39.3701; stroke-opacity:1; 
stroke-linecap:round; stroke-linejoin:round;">
</g>
<g style="fill:#000000; fill-opacity:1.0; 
stroke:#000000; stroke-width:0; stroke-opacity:1; 
stroke-linecap:round; stroke-linejoin:round;">
<circle cx="45669.3" cy="31133.9" r="334.646" /> 
</g>
<g style="fill:#000000; fill-opacity:1.0; 
stroke:#000000; stroke-width:39.3701; stroke-opacity:1; 
stroke-linecap:round; stroke-linejoin:round;">
</g>
<g style="fill:#000000; fill-opacity:1.0; 
stroke:#000000; stroke-width:0; stroke-opacity:1; 
stroke-linecap:round; stroke-linejoin:round;">
<circle cx="45669.3" cy="30133.9" r="334.646" /> 
</g>
<g style="fill:#000000; fill-opacity:1.0; 
stroke:#000000; stroke-width:39.3701; stroke-opacity:1; 
stroke-linecap:round; stroke-linejoin:round;">
</g>
<g style="fill:#000000; fill-opacity:1.0; 
stroke:#000000; stroke-width:0; stroke-opacity:1; 
stroke-linecap:round; stroke-linejoin:round;">
<path style="fill:#000000; fill-opacity:1.0; 
stroke:#000000; stroke-width:0; stroke-opacity:1; 
stroke-linecap:round; stroke-linejoin:round;fill-rule:evenodd;"
d="M 45915.2,28799.7
45924.7,28801.1
45934.1,28803.5
45943.2,28806.7
45951.9,28810.8
45960.2,28815.8
45968,28821.6
45975.1,28828
45981.6,28835.2
45987.3,28843
45992.3,28851.2
45996.4,28860
45999.7,28869.1
46002,28878.4
46003.5,28888
46003.9,28897.6
46003.9,29370.1
46003.5,29379.7
46002,29389.3
45999.7,29398.6
45996.4,29407.7
45992.3,29416.5
45987.3,29424.8
45981.6,29432.5
45975.1,29439.7
45968,29446.2
45960.2,29451.9
45951.9,29456.9
45943.2,29461
45934.1,29464.3
45924.7,29466.6
45915.2,29468
45905.5,29468.5
45433.1,29468.5
45423.4,29468
45413.9,29466.6
45404.5,29464.3
45395.4,29461
45386.7,29456.9
45378.4,29451.9
45370.6,29446.2
45363.5,29439.7
45357,29432.5
45351.2,29424.8
45346.3,29416.5
45342.1,29407.7
45338.9,29398.6
45336.5,29389.3
45335.1,29379.7
45334.6,29370.1
45334.6,28897.6
45335.1,28888
45336.5,28878.4
45338.9,28869.1
45342.1,28860
45346.3,28851.2
45351.2,28843
45357,28835.2
45363.5,28828
45370.6,28821.6
45378.4,28815.8
45386.7,28810.8
45395.4,28806.7
45404.5,28803.5
45413.9,28801.1
45423.4,28799.7
45433.1,28799.2
45905.5,28799.2
Z" /> 
</g>
<g >
</g>
<g style="fill:#000000; fill-opacity:1.0; 
stroke:#000000; stroke-width:0; stroke-opacity:1; 
stroke-linecap:round; stroke-linejoin:round;">
</g>
<g style="fill:#000000; fill-opacity:1.0; 
stroke:#000000; stroke-width:669.291; stroke-opacity:1; 
stroke-linecap:round; stroke-linejoin:round;">
</g>
<g style="fill:#000000; fill-opacity:0.0; 
stroke:#000000; stroke-width:669.291; stroke-opacity:1; 
stroke-linecap:round; stroke-linejoin:round;">
<path d="M56348 36023
L56250 36023
" />
<path d="M56348 35039
L56250 35039
" />
<path d="M56348 34055
L56250 34055
" />
</g>
<g style="fill:#000000; fill-opacity:0.0; 
stroke:#000000; stroke-width:0; stroke-opacity:1; 
stroke-linecap:round; stroke-linejoin:round;">
</g>
<g style="fill:#000000; fill-opacity:1.0; 
stroke:#000000; stroke-width:0; stroke-opacity:1; 
stroke-linecap:round; stroke-linejoin:round;">
<path style="fill:#000000; fill-opacity:1.0; 
stroke:#000000; stroke-width:0; stroke-opacity:1; 
stroke-linecap:round; stroke-linejoin:round;fill-rule:evenodd;"
d="M 56594.3,32736.7
56603.8,32738.1
56613.2,32740.5
56622.3,32743.7
56631,32747.8
56639.3,32752.8
56647.1,32758.6
56654.2,32765
56660.7,32772.2
56666.5,32780
56671.4,32788.2
56675.6,32797
56678.8,32806.1
56681.2,32815.4
56682.6,32825
56683.1,32834.6
56683.1,33307.1
56682.6,33316.7
56681.2,33326.3
56678.8,33335.7
56675.6,33344.8
56671.4,33353.5
56666.5,33361.8
56660.7,33369.5
56654.2,33376.7
56647.1,33383.2
56639.3,33388.9
56631,33393.9
56622.3,33398
56613.2,33401.3
56603.8,33403.6
56594.3,33405
56584.6,33405.5
56013.8,33405.5
56004.1,33405
55994.6,33403.6
55985.2,33401.3
55976.1,33398
55967.4,33393.9
55959.1,33388.9
55951.3,33383.2
55944.2,33376.7
55937.7,33369.5
55931.9,33361.8
55927,33353.5
55922.8,33344.8
55919.6,33335.7
55917.2,33326.3
55915.8,33316.7
55915.4,33307.1
55915.4,32834.6
55915.8,32825
55917.2,32815.4
55919.6,32806.1
55922.8,32797
55927,32788.2
55931.9,32780
55937.7,32772.2
55944.2,32765
55951.3,32758.6
55959.1,32752.8
55967.4,32747.8
55976.1,32743.7
55985.2,32740.5
55994.6,32738.1
56004.1,32736.7
56013.8,32736.2
56584.6,32736.2
Z" /> 
</g>
<g >
</g>
<g style="fill:#000000; fill-opacity:1.0; 
stroke:#000000; stroke-width:0; stroke-opacity:1; 
stroke-linecap:round; stroke-linejoin:round;">
</g>
<g style="fill:#000000; fill-opacity:1.0; 
stroke:#000000; stroke-width:669.291; stroke-opacity:1; 
stroke-linecap:round; stroke-linejoin:round;">
</g>
<g style="fill:#000000; fill-opacity:0.0; 
stroke:#000000; stroke-width:669.291; stroke-opacity:1; 
stroke-linecap:round; stroke-linejoin:round;">
<path d="M56348 30511
L56250 30511
" />
<path d="M56348 29527
L56250 29527
" />
<path d="M56348 28543
L56250 28543
" />
</g>
<g style="fill:#000000; fill-opacity:0.0; 
stroke:#000000; stroke-width:0; stroke-opacity:1; 
stroke-linecap:round; stroke-linejoin:round;">
</g>
<g style="fill:#000000; fill-opacity:1.0; 
stroke:#000000; stroke-width:0; stroke-opacity:1; 
stroke-linecap:round; stroke-linejoin:round;">
<path style="fill:#000000; fill-opacity:1.0; 
stroke:#000000; stroke-width:0; stroke-opacity:1; 
stroke-linecap:round; stroke-linejoin:round;fill-rule:evenodd;"
d="M 56594.3,27224.9
56603.8,27226.3
56613.2,27228.6
56622.3,27231.9
56631,27236
56639.3,27241
56647.1,27246.8
56654.2,27253.2
56660.7,27260.4
56666.5,27268.2
56671.4,27276.4
56675.6,27285.2
56678.8,27294.3
56681.2,27303.6
56682.6,27313.2
56683.1,27322.8
56683.1,27795.3
56682.6,27804.9
56681.2,27814.5
56678.8,27823.8
56675.6,27832.9
56671.4,27841.7
56666.5,27850
56660.7,27857.7
56654.2,27864.9
56647.1,27871.4
56639.3,27877.1
56631,27882.1
56622.3,27886.2
56613.2,27889.5
56603.8,27891.8
56594.3,27893.2
56584.6,27893.7
56013.8,27893.7
56004.1,27893.2
55994.6,27891.8
55985.2,27889.5
55976.1,27886.2
55967.4,27882.1
55959.1,27877.1
55951.3,27871.4
55944.2,27864.9
55937.7,27857.7
55931.9,27850
55927,27841.7
55922.8,27832.9
55919.6,27823.8
55917.2,27814.5
55915.8,27804.9
55915.4,27795.3
55915.4,27322.8
55915.8,27313.2
55917.2,27303.6
55919.6,27294.3
55922.8,27285.2
55927,27276.4
55931.9,27268.2
55937.7,27260.4
55944.2,27253.2
55951.3,27246.8
55959.1,27241
55967.4,27236
55976.1,27231.9
55985.2,27228.6
55994.6,27226.3
56004.1,27224.9
56013.8,27224.4
56584.6,27224.4
Z" /> 
</g>
<g >
</g>
<g style="fill:#000000; fill-opacity:1.0; 
stroke:#000000; stroke-width:0; stroke-opacity:1; 
stroke-linecap:round; stroke-linejoin:round;">
</g>
<g style="fill:#000000; fill-opacity:1.0; 
stroke:#000000; stroke-width:669.291; stroke-opacity:1; 
stroke-linecap:round; stroke-linejoin:round;">
</g>
<g style="fill:#000000; fill-opacity:0.0; 
stroke:#000000; stroke-width:669.291; stroke-opacity:1; 
stroke-linecap:round; stroke-linejoin:round;">
<path d="M56348 25000
L56250 25000
" />
<path d="M56348 24015
L56250 24015
" />
<path d="M56348 23031
L56250 23031
" />
</g>
<g style="fill:#000000; fill-opacity:0.0; 
stroke:#000000; stroke-width:0; stroke-opacity:1; 
stroke-linecap:round; stroke-linejoin:round;">
</g>
<g style="fill:#000000; fill-opacity:1.0; 
stroke:#000000; stroke-width:0; stroke-opacity:1; 
stroke-linecap:round; stroke-linejoin:round;">
<path style="fill:#000000; fill-opacity:1.0; 
stroke:#000000; stroke-width:0; stroke-opacity:1; 
stroke-linecap:round; stroke-linejoin:round;fill-rule:evenodd;"
d="M 56594.3,21713.1
56603.8,21714.5
56613.2,21716.8
56622.3,21720.1
56631,21724.2
56639.3,21729.2
56647.1,21734.9
56654.2,21741.4
56660.7,21748.6
56666.5,21756.3
56671.4,21764.6
56675.6,21773.4
56678.8,21782.5
56681.2,21791.8
56682.6,21801.4
56683.1,21811
56683.1,22283.5
56682.6,22293.1
56681.2,22302.7
56678.8,22312
56675.6,22321.1
56671.4,22329.9
56666.5,22338.1
56660.7,22345.9
56654.2,22353.1
56647.1,22359.5
56639.3,22365.3
56631,22370.3
56622.3,22374.4
56613.2,22377.7
56603.8,22380
56594.3,22381.4
56584.6,22381.9
56013.8,22381.9
56004.1,22381.4
55994.6,22380
55985.2,22377.7
55976.1,22374.4
55967.4,22370.3
55959.1,22365.3
55951.3,22359.5
55944.2,22353.1
55937.7,22345.9
55931.9,22338.1
55927,22329.9
55922.8,22321.1
55919.6,22312
55917.2,22302.7
55915.8,22293.1
55915.4,22283.5
55915.4,21811
55915.8,21801.4
55917.2,21791.8
55919.6,21782.5
55922.8,21773.4
55927,21764.6
55931.9,21756.3
55937.7,21748.6
55944.2,21741.4
55951.3,21734.9
55959.1,21729.2
55967.4,21724.2
55976.1,21720.1
55985.2,21716.8
55994.6,21714.5
56004.1,21713.1
56013.8,21712.6
56584.6,21712.6
Z" /> 
</g>
<g >
</g>
<g style="fill:#000000; fill-opacity:1.0; 
stroke:#000000; stroke-width:0; stroke-opacity:1; 
stroke-linecap:round; stroke-linejoin:round;">
</g>
<g style="fill:#000000; fill-opacity:1.0; 
stroke:#000000; stroke-width:669.291; stroke-opacity:1; 
stroke-linecap:round; stroke-linejoin:round;">
</g>
<g style="fill:#000000; fill-opacity:0.0; 
stroke:#000000; stroke-width:669.291; stroke-opacity:1; 
stroke-linecap:round; stroke-linejoin:round;">
<path d="M56348 55314
L56250 55314
" />
<path d="M56348 54330
L56250 54330
" />
<path d="M56348 53346
L56250 53346
" />
</g>
<g style="fill:#000000; fill-opacity:0.0; 
stroke:#000000; stroke-width:0; stroke-opacity:1; 
stroke-linecap:round; stroke-linejoin:round;">
</g>
<g style="fill:#000000; fill-opacity:1.0; 
stroke:#000000; stroke-width:0; stroke-opacity:1; 
stroke-linecap:round; stroke-linejoin:round;">
<path style="fill:#000000; fill-opacity:1.0; 
stroke:#000000; stroke-width:0; stroke-opacity:1; 
stroke-linecap:round; stroke-linejoin:round;fill-rule:evenodd;"
d="M 56594.3,52028
56603.8,52029.5
56613.2,52031.8
56622.3,52035.1
56631,52039.2
56639.3,52044.1
56647.1,52049.9
56654.2,52056.4
56660.7,52063.5
56666.5,52071.3
56671.4,52079.6
56675.6,52088.3
56678.8,52097.4
56681.2,52106.8
56682.6,52116.3
56683.1,52126
56683.1,52598.4
56682.6,52608.1
56681.2,52617.6
56678.8,52627
56675.6,52636.1
56671.4,52644.8
56666.5,52653.1
56660.7,52660.9
56654.2,52668
56647.1,52674.5
56639.3,52680.3
56631,52685.2
56622.3,52689.4
56613.2,52692.6
56603.8,52695
56594.3,52696.4
56584.6,52696.9
56013.8,52696.9
56004.1,52696.4
55994.6,52695
55985.2,52692.6
55976.1,52689.4
55967.4,52685.2
55959.1,52680.3
55951.3,52674.5
55944.2,52668
55937.7,52660.9
55931.9,52653.1
55927,52644.8
55922.8,52636.1
55919.6,52627
55917.2,52617.6
55915.8,52608.1
55915.4,52598.4
55915.4,52126
55915.8,52116.3
55917.2,52106.8
55919.6,52097.4
55922.8,52088.3
55927,52079.6
55931.9,52071.3
55937.7,52063.5
55944.2,52056.4
55951.3,52049.9
55959.1,52044.1
55967.4,52039.2
55976.1,52035.1
55985.2,52031.8
55994.6,52029.5
56004.1,52028
56013.8,52027.6
56584.6,52027.6
Z" /> 
</g>
<g >
</g>
<g style="fill:#000000; fill-opacity:1.0; 
stroke:#000000; stroke-width:0; stroke-opacity:1; 
stroke-linecap:round; stroke-linejoin:round;">
</g>
<g style="fill:#000000; fill-opacity:1.0; 
stroke:#000000; stroke-width:669.291; stroke-opacity:1; 
stroke-linecap:round; stroke-linejoin:round;">
</g>
<g style="fill:#000000; fill-opacity:0.0; 
stroke:#000000; stroke-width:669.291; stroke-opacity:1; 
stroke-linecap:round; stroke-linejoin:round;">
<path d="M56348 49803
L56250 49803
" />
<path d="M56348 48818
L56250 48818
" />
<path d="M56348 47834
L56250 47834
" />
</g>
<g style="fill:#000000; fill-opacity:0.0; 
stroke:#000000; stroke-width:0; stroke-opacity:1; 
stroke-linecap:round; stroke-linejoin:round;">
</g>
<g style="fill:#000000; fill-opacity:1.0; 
stroke:#000000; stroke-width:0; stroke-opacity:1; 
stroke-linecap:round; stroke-linejoin:round;">
<path style="fill:#000000; fill-opacity:1.0; 
stroke:#000000; stroke-width:0; stroke-opacity:1; 
stroke-linecap:round; stroke-linejoin:round;fill-rule:evenodd;"
d="M 56594.3,46516.2
56603.8,46517.6
56613.2,46520
56622.3,46523.2
56631,46527.4
56639.3,46532.3
56647.1,46538.1
56654.2,46544.6
56660.7,46551.7
56666.5,46559.5
56671.4,46567.8
56675.6,46576.5
56678.8,46585.6
56681.2,46595
56682.6,46604.5
56683.1,46614.2
56683.1,47086.6
56682.6,47096.3
56681.2,47105.8
56678.8,47115.2
56675.6,47124.3
56671.4,47133
56666.5,47141.3
56660.7,47149.1
56654.2,47156.2
56647.1,47162.7
56639.3,47168.5
56631,47173.4
56622.3,47177.5
56613.2,47180.8
56603.8,47183.1
56594.3,47184.6
56584.6,47185
56013.8,47185
56004.1,47184.6
55994.6,47183.1
55985.2,47180.8
55976.1,47177.5
55967.4,47173.4
55959.1,47168.5
55951.3,47162.7
55944.2,47156.2
55937.7,47149.1
55931.9,47141.3
55927,47133
55922.8,47124.3
55919.6,47115.2
55917.2,47105.8
55915.8,47096.3
55915.4,47086.6
55915.4,46614.2
55915.8,46604.5
55917.2,46595
55919.6,46585.6
55922.8,46576.5
55927,46567.8
55931.9,46559.5
55937.7,46551.7
55944.2,46544.6
55951.3,46538.1
55959.1,46532.3
55967.4,46527.4
55976.1,46523.2
55985.2,46520
55994.6,46517.6
56004.1,46516.2
56013.8,46515.7
56584.6,46515.7
Z" /> 
</g>
<g >
</g>
<g style="fill:#000000; fill-opacity:1.0; 
stroke:#000000; stroke-width:0; stroke-opacity:1; 
stroke-linecap:round; stroke-linejoin:round;">
</g>
<g style="fill:#000000; fill-opacity:1.0; 
stroke:#000000; stroke-width:669.291; stroke-opacity:1; 
stroke-linecap:round; stroke-linejoin:round;">
</g>
<g style="fill:#000000; fill-opacity:0.0; 
stroke:#000000; stroke-width:669.291; stroke-opacity:1; 
stroke-linecap:round; stroke-linejoin:round;">
<path d="M56348 44291
L56250 44291
" />
<path d="M56348 43307
L56250 43307
" />
<path d="M56348 42322
L56250 42322
" />
</g>
<g style="fill:#000000; fill-opacity:0.0; 
stroke:#000000; stroke-width:0; stroke-opacity:1; 
stroke-linecap:round; stroke-linejoin:round;">
</g>
<g style="fill:#000000; fill-opacity:1.0; 
stroke:#000000; stroke-width:0; stroke-opacity:1; 
stroke-linecap:round; stroke-linejoin:round;">
<path style="fill:#000000; fill-opacity:1.0; 
stroke:#000000; stroke-width:0; stroke-opacity:1; 
stroke-linecap:round; stroke-linejoin:round;fill-rule:evenodd;"
d="M 56594.3,41004.4
56603.8,41005.8
56613.2,41008.2
56622.3,41011.4
56631,41015.6
56639.3,41020.5
56647.1,41026.3
56654.2,41032.8
56660.7,41039.9
56666.5,41047.7
56671.4,41056
56675.6,41064.7
56678.8,41073.8
56681.2,41083.2
56682.6,41092.7
56683.1,41102.4
56683.1,41574.8
56682.6,41584.5
56681.2,41594
56678.8,41603.4
56675.6,41612.5
56671.4,41621.2
56666.5,41629.5
56660.7,41637.2
56654.2,41644.4
56647.1,41650.9
56639.3,41656.6
56631,41661.6
56622.3,41665.7
56613.2,41669
56603.8,41671.3
56594.3,41672.8
56584.6,41673.2
56013.8,41673.2
56004.1,41672.8
55994.6,41671.3
55985.2,41669
55976.1,41665.7
55967.4,41661.6
55959.1,41656.6
55951.3,41650.9
55944.2,41644.4
55937.7,41637.2
55931.9,41629.5
55927,41621.2
55922.8,41612.5
55919.6,41603.4
55917.2,41594
55915.8,41584.5
55915.4,41574.8
55915.4,41102.4
55915.8,41092.7
55917.2,41083.2
55919.6,41073.8
55922.8,41064.7
55927,41056
55931.9,41047.7
55937.7,41039.9
55944.2,41032.8
55951.3,41026.3
55959.1,41020.5
55967.4,41015.6
55976.1,41011.4
55985.2,41008.2
55994.6,41005.8
56004.1,41004.4
56013.8,41003.9
56584.6,41003.9
Z" /> 
</g>
<g >
</g>
<g style="fill:#000000; fill-opacity:1.0; 
stroke:#000000; stroke-width:0; stroke-opacity:1; 
stroke-linecap:round; stroke-linejoin:round;">
<circle cx="41338.6" cy="56692.9" r="1181.1" /> 
</g>
<g style="fill:#000000; fill-opacity:1.0; 
stroke:#000000; stroke-width:39.3701; stroke-opacity:1; 
stroke-linecap:round; stroke-linejoin:round;">
</g>
<g >
</g>
<g style="fill:#000000; fill-opacity:1.0; 
stroke:#000000; stroke-width:39.3701; stroke-opacity:1; 
stroke-linecap:round; stroke-linejoin:round;">
</g>
<g style="fill:#000000; fill-opacity:1.0; 
stroke:#000000; stroke-width:0; stroke-opacity:1; 
stroke-linecap:round; stroke-linejoin:round;">
<circle cx="77559.1" cy="56692.9" r="1181.1" /> 
</g>
<g style="fill:#000000; fill-opacity:1.0; 
stroke:#000000; stroke-width:39.3701; stroke-opacity:1; 
stroke-linecap:round; stroke-linejoin:round;">
</g>
<g >
</g>
<g style="fill:#000000; fill-opacity:1.0; 
stroke:#000000; stroke-width:39.3701; stroke-opacity:1; 
stroke-linecap:round; stroke-linejoin:round;">
</g>
<g style="fill:#000000; fill-opacity:1.0; 
stroke:#000000; stroke-width:0; stroke-opacity:1; 
stroke-linecap:round; stroke-linejoin:round;">
<circle cx="41338.6" cy="20472.4" r="1181.1" /> 
</g>
<g style="fill:#000000; fill-opacity:1.0; 
stroke:#000000; stroke-width:39.3701; stroke-opacity:1; 
stroke-linecap:round; stroke-linejoin:round;">
</g>
<g >
</g>
<g style="fill:#000000; fill-opacity:1.0; 
stroke:#000000; stroke-width:39.3701; stroke-opacity:1; 
stroke-linecap:round; stroke-linejoin:round;">
</g>
<g style="fill:#000000; fill-opacity:1.0; 
stroke:#000000; stroke-width:0; stroke-opacity:1; 
stroke-linecap:round; stroke-linejoin:round;">
<circle cx="77559.1" cy="20472.4" r="1181.1" /> 
</g>
<g style="fill:#000000; fill-opacity:1.0; 
stroke:#000000; stroke-width:39.3701; stroke-opacity:1; 
stroke-linecap:round; stroke-linejoin:round;">
</g>
<g >
</g>
<g >
</g>
<g >
</g>
<g style="fill:#000000; fill-opacity:1.0; 
stroke:#000000; stroke-width:39.3701; stroke-opacity:1; 
stroke-linecap:round; stroke-linejoin:round;">
<g >
</g>
<g style="fill:#000000; fill-opacity:1.0; 
stroke:#000000; stroke-width:100; stroke-opacity:1; 
stroke-linecap:round; stroke-linejoin:round;">
<path style="fill:#000000; fill-opacity:1.0; 
stroke:#000000; stroke-width:100; stroke-opacity:1; 
stroke-linecap:round; stroke-linejoin:round;fill-rule:evenodd;"
d="M 76233,19916.2
76149.9,20185.6
76121,20466
76147.4,20746.6
76228,21016.8
76359.8,21266
76367,21276.7
76551.7,21409.1
77488.3,20472.4
77482.8,20466.9
77553.5,20396.2
77559.1,20401.7
77564.6,20396.2
77635.3,20466.9
77629.8,20472.4
77635.3,20478
77564.6,20548.7
77559.1,20543.2
76622.4,21479.8
76754.8,21664.5
77002.8,21798.5
77272.2,21881.6
77552.6,21910.5
77833.3,21884.1
78103.4,21803.5
78296.5,21701.4
78296.5,55464.7
78115.3,55366.8
77845.9,55283.8
77565.5,55254.9
77284.8,55281.3
77014.7,55361.9
76765.5,55493.7
76754.8,55500.8
76622.4,55685.6
77559.1,56622.2
77564.6,56616.6
77635.3,56687.3
77629.8,56692.9
77635.3,56698.5
77564.6,56769.2
77559.1,56763.6
77553.5,56769.2
77482.8,56698.5
77488.3,56692.9
76551.7,55756.3
76367,55888.6
76233,56136.6
76149.9,56406
76121,56686.5
76147.4,56967.1
76228,57237.2
76330.1,57430.3
42566.8,57430.3
42664.7,57249.2
42747.7,56979.8
42776.6,56699.4
42750.2,56418.7
42669.6,56148.6
42537.8,55899.4
42530.7,55888.6
42345.9,55756.3
41409.3,56692.9
41414.9,56698.5
41344.2,56769.2
41338.6,56763.6
41333,56769.2
41262.3,56698.5
41267.9,56692.9
41262.3,56687.3
41333,56616.6
41338.6,56622.2
42275.2,55685.6
42142.9,55500.8
41894.9,55366.8
41625.5,55283.8
41345,55254.9
41064.4,55281.3
40794.2,55361.9
40601.2,55464
40601.2,53346.5
55662.5,53346.5
55673.8,53461.1
55707.2,53571.3
55761.5,53672.8
55834.6,53761.9
55923.6,53834.9
55930.5,53838.6
55923.6,53842.2
55834.6,53915.3
55761.5,54004.3
55707.2,54105.9
55673.8,54216.1
55662.5,54330.7
55673.8,54445.3
55707.2,54555.5
55761.5,54657.1
55834.6,54746.1
55923.6,54819.2
55930.5,54822.8
55923.6,54826.5
55834.6,54899.6
55761.5,54988.6
55707.2,55090.1
55673.8,55200.3
55662.5,55315
55673.8,55429.6
55707.2,55539.8
55761.5,55641.3
55834.6,55730.4
55923.6,55803.4
56025.2,55857.7
56135.4,55891.1
56221.3,55899.6
56377.1,55899.6
56463,55891.1
56573.2,55857.7
56674.8,55803.4
56763.8,55730.4
56836.9,55641.3
56891.2,55539.8
56924.6,55429.6
56935.9,55315
56924.6,55200.3
56891.2,55090.1
56836.9,54988.6
56763.8,54899.6
56674.8,54826.5
56668,54822.8
56674.8,54819.2
56763.8,54746.1
56836.9,54657.1
56891.2,54555.5
56924.6,54445.3
56935.9,54330.7
56924.6,54216.1
56891.2,54105.9
56836.9,54004.3
56763.8,53915.3
56674.8,53842.2
56668,53838.6
56674.8,53834.9
56763.8,53761.9
56836.9,53672.8
56891.2,53571.3
56924.6,53461.1
56935.9,53346.5
56924.6,53231.8
56891.2,53121.6
56836.9,53020.1
56763.8,52931
56738.8,52910.5
56778.9,52889.1
56831.9,52845.7
56875.4,52792.7
56907.7,52732.2
56927.6,52666.6
56934.3,52598.4
56934.3,52126
56927.6,52057.8
56907.7,51992.2
56875.4,51931.7
56831.9,51878.8
56778.9,51835.3
56718.4,51803
56652.9,51783.1
56584.6,51776.3
56013.8,51776.3
55945.6,51783.1
55880,51803
55819.5,51835.3
55766.6,51878.8
55723.1,51931.7
55690.8,51992.2
55670.9,52057.8
55664.1,52126
55664.1,52598.4
55670.9,52666.6
55690.8,52732.2
55723.1,52792.7
55766.6,52845.7
55819.5,52889.1
55859.6,52910.5
55834.6,52931
55761.5,53020.1
55707.2,53121.6
55673.8,53231.8
55662.5,53346.5
40601.2,53346.5
40601.2,48538.7
45335.1,48538.7
45365.7,48636.8
45469.6,48686.4
45581.3,48714.7
45696.3,48720.7
45810.2,48704.2
45918.8,48665.7
45972.9,48636.8
46003.5,48538.7
45669.3,48204.6
45335.1,48538.7
40601.2,48538.7
40601.2,48160.8
45082.4,48160.8
45099,48274.8
45137.4,48383.4
45166.3,48437.5
45264.4,48468
45598.6,48133.9
45264.4,47799.7
45166.3,47830.3
45116.8,47934.2
45088.4,48045.8
45082.4,48160.8
40601.2,48160.8
40601.2,41160.8
45082.4,41160.8
45099,41274.8
45137.4,41383.4
45166.3,41437.5
45264.4,41468
45598.6,41133.9
45264.4,40799.7
45166.3,40830.3
45116.8,40934.2
45088.4,41045.8
45082.4,41160.8
40601.2,41160.8
40601.2,33160.8
45082.4,33160.8
45099,33274.8
45137.4,33383.4
45166.3,33437.5
45264.4,33468
45598.6,33133.9
45264.4,32799.7
45166.3,32830.3
45116.8,32934.2
45088.4,33045.8
45082.4,33160.8
40601.2,33160.8
40601.2,28897.6
45083.4,28897.6
45083.4,29370.1
45090.2,29438.3
45110.1,29503.9
45142.4,29564.3
45185.8,29617.3
45238.8,29660.8
45288.8,29687.5
45215.2,29761.2
45151.2,29856.9
45107.1,29963.3
45084.6,30076.3
45084.6,30191.4
45107.1,30304.4
45151.2,30410.8
45215.2,30506.5
45296.6,30588
45365.3,30633.9
45296.6,30679.7
45215.2,30761.2
45151.2,30856.9
45107.1,30963.3
45084.6,31076.3
45084.6,31191.4
45107.1,31304.4
45151.2,31410.8
45215.2,31506.5
45296.6,31588
45365.3,31633.9
45296.6,31679.7
45215.2,31761.2
45151.2,31856.9
45107.1,31963.3
45084.6,32076.3
45084.6,32191.4
45107.1,32304.4
45151.2,32410.8
45215.2,32506.5
45296.6,32588
45364.9,32633.6
45335.1,32729
45669.3,33063.1
46003.5,32729
45973.7,32633.6
46042,32588
46123.4,32506.5
46169.3,32437.9
46215.2,32506.5
46296.6,32588
46365.3,32633.9
46296.6,32679.7
46215.2,32761.2
46169.6,32829.4
46074.2,32799.7
45740,33133.9
46074.2,33468
46169.6,33438.3
46215.2,33506.5
46296.6,33588
46365.3,33633.9
46296.6,33679.7
46215.2,33761.2
46169.3,33829.8
46123.4,33761.2
46042,33679.7
45973.7,33634.1
46003.5,33538.7
45669.3,33204.6
45335.1,33538.7
45364.9,33634.1
45296.6,33679.7
45215.2,33761.2
45151.2,33856.9
45107.1,33963.3
45084.6,34076.3
45084.6,34191.4
45107.1,34304.4
45151.2,34410.8
45215.2,34506.5
45296.6,34588
45365.3,34633.9
45296.6,34679.7
45215.2,34761.2
45151.2,34856.9
45107.1,34963.3
45084.6,35076.3
45084.6,35191.4
45107.1,35304.4
45151.2,35410.8
45215.2,35506.5
45296.6,35588
45365.3,35633.9
45296.6,35679.7
45215.2,35761.2
45151.2,35856.9
45107.1,35963.3
45084.6,36076.3
45084.6,36191.4
45107.1,36304.4
45151.2,36410.8
45215.2,36506.5
45296.6,36588
45365.3,36633.9
45296.6,36679.7
45215.2,36761.2
45151.2,36856.9
45107.1,36963.3
45084.6,37076.3
45084.6,37191.4
45107.1,37304.4
45151.2,37410.8
45215.2,37506.5
45296.6,37588
45365.3,37633.9
45296.6,37679.7
45215.2,37761.2
45151.2,37856.9
45107.1,37963.3
45084.6,38076.3
45084.6,38191.4
45107.1,38304.4
45151.2,38410.8
45215.2,38506.5
45296.6,38588
45365.3,38633.9
45296.6,38679.7
45215.2,38761.2
45151.2,38856.9
45107.1,38963.3
45084.6,39076.3
45084.6,39191.4
45107.1,39304.4
45151.2,39410.8
45215.2,39506.5
45296.6,39588
45365.3,39633.9
45296.6,39679.7
45215.2,39761.2
45151.2,39856.9
45107.1,39963.3
45084.6,40076.3
45084.6,40191.4
45107.1,40304.4
45151.2,40410.8
45215.2,40506.5
45296.6,40588
45364.9,40633.6
45335.1,40729
45669.3,41063.1
46003.5,40729
45973.7,40633.6
46042,40588
46123.4,40506.5
46169.3,40437.9
46215.2,40506.5
46296.6,40588
46365.3,40633.9
46296.6,40679.7
46215.2,40761.2
46169.6,40829.4
46074.2,40799.7
45740,41133.9
46074.2,41468
46169.6,41438.3
46215.2,41506.5
46296.6,41588
46365.3,41633.9
46296.6,41679.7
46215.2,41761.2
46169.3,41829.8
46123.4,41761.2
46042,41679.7
45973.7,41634.1
46003.5,41538.7
45669.3,41204.6
45335.1,41538.7
45364.9,41634.1
45296.6,41679.7
45215.2,41761.2
45151.2,41856.9
45107.1,41963.3
45084.6,42076.3
45084.6,42191.4
45107.1,42304.4
45151.2,42410.8
45215.2,42506.5
45296.6,42588
45365.3,42633.9
45296.6,42679.7
45215.2,42761.2
45151.2,42856.9
45107.1,42963.3
45084.6,43076.3
45084.6,43191.4
45107.1,43304.4
45151.2,43410.8
45215.2,43506.5
45296.6,43588
45365.3,43633.9
45296.6,43679.7
45215.2,43761.2
45151.2,43856.9
45107.1,43963.3
45084.6,44076.3
45084.6,44191.4
45107.1,44304.4
45151.2,44410.8
45215.2,44506.5
45296.6,44588
45365.3,44633.9
45296.6,44679.7
45215.2,44761.2
45151.2,44856.9
45107.1,44963.3
45084.6,45076.3
45084.6,45191.4
45107.1,45304.4
45151.2,45410.8
45215.2,45506.5
45296.6,45588
45365.3,45633.9
45296.6,45679.7
45215.2,45761.2
45151.2,45856.9
45107.1,45963.3
45084.6,46076.3
45084.6,46191.4
45107.1,46304.4
45151.2,46410.8
45215.2,46506.5
45296.6,46588
45365.3,46633.9
45296.6,46679.7
45215.2,46761.2
45151.2,46856.9
45107.1,46963.3
45084.6,47076.3
45084.6,47191.4
45107.1,47304.4
45151.2,47410.8
45215.2,47506.5
45296.6,47588
45364.9,47633.6
45335.1,47729
45669.3,48063.1
46003.5,47729
45973.7,47633.6
46042,47588
46123.4,47506.5
46169.3,47437.9
46215.2,47506.5
46296.6,47588
46365.3,47633.9
46296.6,47679.7
46215.2,47761.2
46169.6,47829.4
46074.2,47799.7
45740,48133.9
46074.2,48468
46169.6,48438.3
46215.2,48506.5
46296.6,48588
46392.4,48652
46498.8,48696
46611.7,48718.5
46726.9,48718.5
46839.8,48696
46946.2,48652
47042,48588
47123.4,48506.5
47187.4,48410.8
47231.5,48304.4
47253.9,48191.4
47253.9,48076.3
47231.5,47963.3
47187.4,47856.9
47172.5,47834.6
55662.5,47834.6
55673.8,47949.3
55707.2,48059.5
55761.5,48161
55834.6,48250.1
55923.6,48323.1
55930.5,48326.8
55923.6,48330.4
55834.6,48403.5
55761.5,48492.5
55707.2,48594.1
55673.8,48704.3
55662.5,48818.9
55673.8,48933.5
55707.2,49043.7
55761.5,49145.3
55834.6,49234.3
55923.6,49307.4
55930.5,49311
55923.6,49314.7
55834.6,49387.7
55761.5,49476.8
55707.2,49578.3
55673.8,49688.5
55662.5,49803.1
55673.8,49917.8
55707.2,50028
55761.5,50129.5
55834.6,50218.6
55923.6,50291.6
56025.2,50345.9
56135.4,50379.3
56221.3,50387.8
56377.1,50387.8
56463,50379.3
56573.2,50345.9
56674.8,50291.6
56763.8,50218.6
56836.9,50129.5
56891.2,50028
56924.6,49917.8
56935.9,49803.1
56924.6,49688.5
56891.2,49578.3
56836.9,49476.8
56763.8,49387.7
56674.8,49314.7
56668,49311
56674.8,49307.4
56763.8,49234.3
56836.9,49145.3
56891.2,49043.7
56924.6,48933.5
56935.9,48818.9
56924.6,48704.3
56891.2,48594.1
56836.9,48492.5
56763.8,48403.5
56674.8,48330.4
56668,48326.8
56674.8,48323.1
56763.8,48250.1
56836.9,48161
56891.2,48059.5
56924.6,47949.3
56935.9,47834.6
56924.6,47720
56891.2,47609.8
56836.9,47508.3
56763.8,47419.2
56738.8,47398.7
56778.9,47377.3
56831.9,47333.8
56875.4,47280.9
56907.7,47220.4
56927.6,47154.8
56934.3,47086.6
56934.3,46614.2
56927.6,46546
56907.7,46480.4
56875.4,46419.9
56831.9,46366.9
56778.9,46323.5
56718.4,46291.2
56652.9,46271.3
56584.6,46264.5
56013.8,46264.5
55945.6,46271.3
55880,46291.2
55819.5,46323.5
55766.6,46366.9
55723.1,46419.9
55690.8,46480.4
55670.9,46546
55664.1,46614.2
55664.1,47086.6
55670.9,47154.8
55690.8,47220.4
55723.1,47280.9
55766.6,47333.8
55819.5,47377.3
55859.6,47398.7
55834.6,47419.2
55761.5,47508.3
55707.2,47609.8
55673.8,47720
55662.5,47834.6
47172.5,47834.6
47123.4,47761.2
47042,47679.7
46973.3,47633.9
47042,47588
47123.4,47506.5
47187.4,47410.8
47231.5,47304.4
47253.9,47191.4
47253.9,47076.3
47231.5,46963.3
47187.4,46856.9
47123.4,46761.2
47042,46679.7
46973.3,46633.9
47042,46588
47123.4,46506.5
47187.4,46410.8
47231.5,46304.4
47253.9,46191.4
47253.9,46076.3
47231.5,45963.3
47187.4,45856.9
47123.4,45761.2
47042,45679.7
46973.7,45634.1
47003.5,45538.7
46669.3,45204.6
46335.1,45538.7
46364.9,45634.1
46296.6,45679.7
46215.2,45761.2
46169.3,45829.8
46123.4,45761.2
46042,45679.7
45973.3,45633.9
46042,45588
46123.4,45506.5
46169,45438.3
46264.4,45468
46598.6,45133.9
46740,45133.9
47074.2,45468
47172.2,45437.5
47221.8,45333.5
47250.1,45221.9
47256.1,45106.9
47239.6,44992.9
47201.1,44884.4
47172.2,44830.3
47074.2,44799.7
46740,45133.9
46598.6,45133.9
46264.4,44799.7
46169,44829.4
46123.4,44761.2
46042,44679.7
45973.3,44633.9
46042,44588
46123.4,44506.5
46169.3,44437.9
46215.2,44506.5
46296.6,44588
46364.9,44633.6
46335.1,44729
46669.3,45063.1
47003.5,44729
46973.7,44633.6
47042,44588
47123.4,44506.5
47187.4,44410.8
47231.5,44304.4
47253.9,44191.4
47253.9,44076.3
47231.5,43963.3
47187.4,43856.9
47123.4,43761.2
47042,43679.7
46973.7,43634.1
47003.5,43538.7
46669.3,43204.6
46335.1,43538.7
46364.9,43634.1
46296.6,43679.7
46215.2,43761.2
46169.3,43829.8
46123.4,43761.2
46042,43679.7
45973.3,43633.9
46042,43588
46123.4,43506.5
46169,43438.3
46264.4,43468
46598.6,43133.9
46740,43133.9
47074.2,43468
47172.2,43437.5
47221.8,43333.5
47250.1,43221.9
47256.1,43106.9
47239.6,42992.9
47201.1,42884.4
47172.2,42830.3
47074.2,42799.7
46740,43133.9
46598.6,43133.9
46264.4,42799.7
46169,42829.4
46123.4,42761.2
46042,42679.7
45973.3,42633.9
46042,42588
46123.4,42506.5
46169.3,42437.9
46215.2,42506.5
46296.6,42588
46364.9,42633.6
46335.1,42729
46669.3,43063.1
47003.5,42729
46973.7,42633.6
47042,42588
47123.4,42506.5
47187.4,42410.8
47223.8,42322.8
55662.5,42322.8
55673.8,42437.4
55707.2,42547.7
55761.5,42649.2
55834.6,42738.2
55923.6,42811.3
55930.5,42815
55923.6,42818.6
55834.6,42891.7
55761.5,42980.7
55707.2,43082.3
55673.8,43192.5
55662.5,43307.1
55673.8,43421.7
55707.2,43531.9
55761.5,43633.5
55834.6,43722.5
55923.6,43795.6
55930.5,43799.2
55923.6,43802.9
55834.6,43875.9
55761.5,43965
55707.2,44066.5
55673.8,44176.7
55662.5,44291.3
55673.8,44405.9
55707.2,44516.2
55761.5,44617.7
55834.6,44706.7
55923.6,44779.8
56025.2,44834.1
56135.4,44867.5
56221.3,44876
56377.1,44876
56463,44867.5
56573.2,44834.1
56674.8,44779.8
56763.8,44706.7
56836.9,44617.7
56891.2,44516.2
56924.6,44405.9
56935.9,44291.3
56924.6,44176.7
56891.2,44066.5
56836.9,43965
56763.8,43875.9
56674.8,43802.9
56668,43799.2
56674.8,43795.6
56763.8,43722.5
56836.9,43633.5
56891.2,43531.9
56924.6,43421.7
56935.9,43307.1
56924.6,43192.5
56891.2,43082.3
56836.9,42980.7
56763.8,42891.7
56674.8,42818.6
56668,42815
56674.8,42811.3
56763.8,42738.2
56836.9,42649.2
56891.2,42547.7
56924.6,42437.4
56935.9,42322.8
56924.6,42208.2
56891.2,42098
56836.9,41996.5
56763.8,41907.4
56738.8,41886.9
56778.9,41865.5
56831.9,41822
56875.4,41769
56907.7,41708.6
56927.6,41643
56934.3,41574.8
56934.3,41102.4
56927.6,41034.2
56907.7,40968.6
56875.4,40908.1
56831.9,40855.1
56778.9,40811.7
56718.4,40779.3
56652.9,40759.4
56584.6,40752.7
56013.8,40752.7
55945.6,40759.4
55880,40779.3
55819.5,40811.7
55766.6,40855.1
55723.1,40908.1
55690.8,40968.6
55670.9,41034.2
55664.1,41102.4
55664.1,41574.8
55670.9,41643
55690.8,41708.6
55723.1,41769
55766.6,41822
55819.5,41865.5
55859.6,41886.9
55834.6,41907.4
55761.5,41996.5
55707.2,42098
55673.8,42208.2
55662.5,42322.8
47223.8,42322.8
47231.5,42304.4
47253.9,42191.4
47253.9,42076.3
47231.5,41963.3
47187.4,41856.9
47123.4,41761.2
47042,41679.7
46973.3,41633.9
47042,41588
47123.4,41506.5
47187.4,41410.8
47231.5,41304.4
47253.9,41191.4
47253.9,41076.3
47231.5,40963.3
47187.4,40856.9
47123.4,40761.2
47042,40679.7
46973.3,40633.9
47042,40588
47123.4,40506.5
47187.4,40410.8
47231.5,40304.4
47253.9,40191.4
47253.9,40076.3
47231.5,39963.3
47187.4,39856.9
47123.4,39761.2
47042,39679.7
46973.3,39633.9
47042,39588
47123.4,39506.5
47187.4,39410.8
47231.5,39304.4
47253.9,39191.4
47253.9,39173.2
65111.3,39173.2
65122.6,39287.8
65156.1,39398
65210.4,39499.6
65283.4,39588.6
65308.4,39609.1
65268.4,39630.5
65215.4,39674
65171.9,39727
65139.6,39787.5
65119.7,39853
65113,39921.3
65113,40393.7
65119.7,40461.9
65139.6,40527.5
65171.9,40587.9
65215.4,40640.9
65268.4,40684.4
65328.8,40716.7
65394.4,40736.6
65462.6,40743.3
66033.5,40743.3
66101.7,40736.6
66167.3,40716.7
66227.7,40684.4
66280.7,40640.9
66324.2,40587.9
66356.5,40527.5
66376.4,40461.9
66383.1,40393.7
66383.1,39921.3
66376.4,39853
66356.5,39787.5
66324.2,39727
66280.7,39674
66227.7,39630.5
66187.7,39609.1
66212.7,39588.6
66285.7,39499.6
66340,39398
66373.4,39287.8
66384.7,39173.2
66373.4,39058.6
66340,38948.4
66285.7,38846.8
66212.7,38757.8
66123.6,38684.8
66113.5,38679.3
66194.7,38617.7
66270.7,38532
66328.5,38433
66364.8,38329.5
66317,38239
65798,38239
65798,38246.9
65698,38246.9
65698,38239
65179.1,38239
65131.3,38329.5
65167.6,38433
65225.4,38532
65301.4,38617.7
65382.6,38679.3
65372.4,38684.8
65283.4,38757.8
65210.4,38846.8
65156.1,38948.4
65122.6,39058.6
65111.3,39173.2
47253.9,39173.2
47253.9,39076.3
47231.5,38963.3
47187.4,38856.9
47123.4,38761.2
47042,38679.7
46973.7,38634.1
47003.5,38538.7
46669.3,38204.6
46335.1,38538.7
46364.9,38634.1
46296.6,38679.7
46215.2,38761.2
46169.3,38829.8
46123.4,38761.2
46042,38679.7
45973.3,38633.9
46042,38588
46123.4,38506.5
46169,38438.3
46264.4,38468
46598.6,38133.9
46740,38133.9
47074.2,38468
47172.2,38437.5
47221.8,38333.5
47250.1,38221.9
47256.1,38106.9
47239.6,37992.9
47201.1,37884.4
47172.2,37830.3
47074.2,37799.7
46740,38133.9
46598.6,38133.9
46264.4,37799.7
46169,37829.4
46123.4,37761.2
46042,37679.7
45973.3,37633.9
46042,37588
46123.4,37506.5
46169.3,37437.9
46215.2,37506.5
46296.6,37588
46364.9,37633.6
46335.1,37729
46669.3,38063.1
47003.5,37729
46973.7,37633.6
47042,37588
47123.4,37506.5
47187.4,37410.8
47214.6,37345.2
65131.3,37345.2
65167.6,37448.8
65225.4,37547.7
65301.4,37633.5
65384.9,37696.9
65301.4,37760.2
65225.4,37846
65167.6,37944.9
65131.3,38048.5
65179.1,38139
65698,38139
65698,37254.7
65798,37254.7
65798,38139
66317,38139
66364.8,38048.5
66328.5,37944.9
66270.7,37846
66194.7,37760.2
66111.2,37696.9
66194.7,37633.5
66270.7,37547.7
66328.5,37448.8
66364.8,37345.2
66317,37254.7
65798,37254.7
65698,37254.7
65179.1,37254.7
65131.3,37345.2
47214.6,37345.2
47231.5,37304.4
47253.9,37191.4
47253.9,37076.3
47251.5,37064.2
65131.3,37064.2
65179.1,37154.7
65698,37154.7
65698,36682.6
65798,36682.6
65798,37154.7
66317,37154.7
66364.8,37064.2
66328.5,36960.7
66270.7,36861.7
66194.7,36776
66103.4,36706.7
66000.3,36656.5
65889.5,36627.4
65798,36682.6
65698,36682.6
65606.6,36627.4
65495.7,36656.5
65392.7,36706.7
65301.4,36776
65225.4,36861.7
65167.6,36960.7
65131.3,37064.2
47251.5,37064.2
47231.5,36963.3
47187.4,36856.9
47123.4,36761.2
47042,36679.7
46973.3,36633.9
47042,36588
47123.4,36506.5
47187.4,36410.8
47231.5,36304.4
47253.9,36191.4
47253.9,36076.3
47231.5,35963.3
47187.4,35856.9
47123.4,35761.2
47042,35679.7
46973.7,35634.1
47003.5,35538.7
46669.3,35204.6
46335.1,35538.7
46364.9,35634.1
46296.6,35679.7
46215.2,35761.2
46169.3,35829.8
46123.4,35761.2
46042,35679.7
45973.3,35633.9
46042,35588
46123.4,35506.5
46169,35438.3
46264.4,35468
46598.6,35133.9
46740,35133.9
47074.2,35468
47172.2,35437.5
47221.8,35333.5
47250.1,35221.9
47256.1,35106.9
47239.6,34992.9
47201.1,34884.4
47172.2,34830.3
47074.2,34799.7
46740,35133.9
46598.6,35133.9
46264.4,34799.7
46169,34829.4
46123.4,34761.2
46042,34679.7
45973.3,34633.9
46042,34588
46123.4,34506.5
46169.3,34437.9
46215.2,34506.5
46296.6,34588
46364.9,34633.6
46335.1,34729
46669.3,35063.1
47003.5,34729
46973.7,34633.6
47042,34588
47123.4,34506.5
47187.4,34410.8
47231.5,34304.4
47253.9,34191.4
47253.9,34076.3
47249.7,34055.1
55662.5,34055.1
55673.8,34169.7
55707.2,34279.9
55761.5,34381.5
55834.6,34470.5
55923.6,34543.6
55930.5,34547.2
55923.6,34550.9
55834.6,34624
55761.5,34713
55707.2,34814.6
55673.8,34924.8
55662.5,35039.4
55673.8,35154
55707.2,35264.2
55761.5,35365.8
55834.6,35454.8
55923.6,35527.8
55930.5,35531.5
55923.6,35535.2
55834.6,35608.2
55761.5,35697.2
55707.2,35798.8
55673.8,35909
55662.5,36023.6
55673.8,36138.2
55707.2,36248.4
55761.5,36350
55834.6,36439
55923.6,36512.1
56025.2,36566.4
56135.4,36599.8
56221.3,36608.3
56377.1,36608.3
56463,36599.8
56573.2,36566.4
56674.8,36512.1
56763.8,36439
56836.9,36350
56891.2,36248.4
56924.6,36138.2
56935.9,36023.6
56924.6,35909
56891.2,35798.8
56836.9,35697.2
56763.8,35608.2
56674.8,35535.2
56668,35531.5
56674.8,35527.8
56763.8,35454.8
56836.9,35365.8
56891.2,35264.2
56924.6,35154
56935.9,35039.4
56924.6,34924.8
56891.2,34814.6
56836.9,34713
56763.8,34624
56674.8,34550.9
56668,34547.2
56674.8,34543.6
56763.8,34470.5
56836.9,34381.5
56891.2,34279.9
56924.6,34169.7
56935.9,34055.1
56924.6,33940.5
56891.2,33830.3
56836.9,33728.7
56763.8,33639.7
56738.8,33619.2
56778.9,33597.8
56831.9,33554.3
56875.4,33501.3
56907.7,33440.9
56927.6,33375.3
56934.3,33307.1
56934.3,32834.6
56927.6,32766.4
56907.7,32700.8
56875.4,32640.4
56831.9,32587.4
56778.9,32543.9
56718.4,32511.6
56652.9,32491.7
56584.6,32485
56013.8,32485
55945.6,32491.7
55880,32511.6
55819.5,32543.9
55766.6,32587.4
55723.1,32640.4
55690.8,32700.8
55670.9,32766.4
55664.1,32834.6
55664.1,33307.1
55670.9,33375.3
55690.8,33440.9
55723.1,33501.3
55766.6,33554.3
55819.5,33597.8
55859.6,33619.2
55834.6,33639.7
55761.5,33728.7
55707.2,33830.3
55673.8,33940.5
55662.5,34055.1
47249.7,34055.1
47231.5,33963.3
47187.4,33856.9
47123.4,33761.2
47042,33679.7
46973.3,33633.9
47042,33588
47123.4,33506.5
47187.4,33410.8
47231.5,33304.4
47253.9,33191.4
47253.9,33076.3
47231.5,32963.3
47187.4,32856.9
47123.4,32761.2
47042,32679.7
46973.3,32633.9
47042,32588
47123.4,32506.5
47187.4,32410.8
47231.5,32304.4
47253.9,32191.4
47253.9,32076.3
47231.5,31963.3
47187.4,31856.9
47123.4,31761.2
47042,31679.7
46973.7,31634.1
47003.5,31538.7
46669.3,31204.6
46335.1,31538.7
46364.9,31634.1
46296.6,31679.7
46215.2,31761.2
46169.3,31829.8
46123.4,31761.2
46042,31679.7
45973.3,31633.9
46042,31588
46123.4,31506.5
46169,31438.3
46264.4,31468
46598.6,31133.9
46740,31133.9
47074.2,31468
47172.2,31437.5
47221.8,31333.5
47250.1,31221.9
47256.1,31106.9
47239.6,30992.9
47201.1,30884.4
47172.2,30830.3
47074.2,30799.7
46740,31133.9
46598.6,31133.9
46264.4,30799.7
46169,30829.4
46123.4,30761.2
46042,30679.7
45973.3,30633.9
46042,30588
46123.4,30506.5
46169.3,30437.9
46215.2,30506.5
46296.6,30588
46364.9,30633.6
46335.1,30729
46669.3,31063.1
47003.5,30729
46973.7,30633.6
47042,30588
47123.4,30506.5
47187.4,30410.8
47231.5,30304.4
47253.9,30191.4
47253.9,30076.3
47231.5,29963.3
47187.4,29856.9
47123.4,29761.2
47042,29679.7
46973.3,29633.9
47042,29588
47123.4,29506.5
47187.4,29410.8
47231.5,29304.4
47253.9,29191.4
47253.9,29076.3
47231.5,28963.3
47187.4,28856.9
47123.4,28761.2
47042,28679.7
46946.2,28615.8
46839.8,28571.7
46726.9,28549.2
46611.7,28549.2
46498.8,28571.7
46392.4,28615.8
46296.6,28679.7
46222.9,28753.4
46196.2,28703.4
46152.7,28650.4
46099.8,28606.9
46039.3,28574.6
45973.7,28554.7
45905.5,28548
45433.1,28548
45364.9,28554.7
45299.3,28574.6
45238.8,28606.9
45185.8,28650.4
45142.4,28703.4
45110.1,28763.8
45090.2,28829.4
45083.4,28897.6
40601.2,28897.6
40601.2,28543.3
55662.5,28543.3
55673.8,28657.9
55707.2,28768.1
55761.5,28869.7
55834.6,28958.7
55923.6,29031.8
55930.5,29035.4
55923.6,29039.1
55834.6,29112.2
55761.5,29201.2
55707.2,29302.7
55673.8,29412.9
55662.5,29527.6
55673.8,29642.2
55707.2,29752.4
55761.5,29853.9
55834.6,29943
55923.6,30016
55930.5,30019.7
55923.6,30023.3
55834.6,30096.4
55761.5,30185.4
55707.2,30287
55673.8,30397.2
55662.5,30511.8
55673.8,30626.4
55707.2,30736.6
55761.5,30838.2
55834.6,30927.2
55923.6,31000.3
56025.2,31054.6
56135.4,31088
56221.3,31096.5
56377.1,31096.5
56463,31088
56573.2,31054.6
56674.8,31000.3
56763.8,30927.2
56836.9,30838.2
56891.2,30736.6
56924.6,30626.4
56935.9,30511.8
56924.6,30397.2
56891.2,30287
56836.9,30185.4
56763.8,30096.4
56674.8,30023.3
56668,30019.7
56674.8,30016
56763.8,29943
56836.9,29853.9
56891.2,29752.4
56924.6,29642.2
56935.9,29527.6
56924.6,29412.9
56891.2,29302.7
56836.9,29201.2
56763.8,29112.2
56674.8,29039.1
56668,29035.4
56674.8,29031.8
56763.8,28958.7
56836.9,28869.7
56891.2,28768.1
56924.6,28657.9
56935.9,28543.3
56924.6,28428.7
56891.2,28318.5
56836.9,28216.9
56763.8,28127.9
56738.8,28107.4
56778.9,28086
56831.9,28042.5
56875.4,27989.5
56907.7,27929.1
56927.6,27863.5
56934.3,27795.3
56934.3,27322.8
56927.6,27254.6
56907.7,27189
56875.4,27128.6
56831.9,27075.6
56778.9,27032.1
56718.4,26999.8
56652.9,26979.9
56584.6,26973.2
56013.8,26973.2
55945.6,26979.9
55880,26999.8
55819.5,27032.1
55766.6,27075.6
55723.1,27128.6
55690.8,27189
55670.9,27254.6
55664.1,27322.8
55664.1,27795.3
55670.9,27863.5
55690.8,27929.1
55723.1,27989.5
55766.6,28042.5
55819.5,28086
55859.6,28107.4
55834.6,28127.9
55761.5,28216.9
55707.2,28318.5
55673.8,28428.7
55662.5,28543.3
40601.2,28543.3
40601.2,23031.5
55662.5,23031.5
55673.8,23146.1
55707.2,23256.3
55761.5,23357.9
55834.6,23446.9
55923.6,23520
55930.5,23523.6
55923.6,23527.3
55834.6,23600.3
55761.5,23689.4
55707.2,23790.9
55673.8,23901.1
55662.5,24015.7
55673.8,24130.4
55707.2,24240.6
55761.5,24342.1
55834.6,24431.2
55923.6,24504.2
55930.5,24507.9
55923.6,24511.5
55834.6,24584.6
55761.5,24673.6
55707.2,24775.2
55673.8,24885.4
55662.5,25000
55673.8,25114.6
55707.2,25224.8
55761.5,25326.4
55834.6,25415.4
55923.6,25488.5
56025.2,25542.8
56135.4,25576.2
56221.3,25584.6
56377.1,25584.6
56463,25576.2
56573.2,25542.8
56674.8,25488.5
56763.8,25415.4
56836.9,25326.4
56891.2,25224.8
56924.6,25114.6
56935.9,25000
56924.6,24885.4
56891.2,24775.2
56836.9,24673.6
56763.8,24584.6
56674.8,24511.5
56668,24507.9
56674.8,24504.2
56763.8,24431.2
56836.9,24342.1
56891.2,24240.6
56924.6,24130.4
56935.9,24015.7
56924.6,23901.1
56891.2,23790.9
56836.9,23689.4
56763.8,23600.3
56674.8,23527.3
56668,23523.6
56674.8,23520
56763.8,23446.9
56836.9,23357.9
56891.2,23256.3
56924.6,23146.1
56935.9,23031.5
56924.6,22916.9
56891.2,22806.7
56836.9,22705.1
56763.8,22616.1
56738.8,22595.6
56778.9,22574.2
56831.9,22530.7
56875.4,22477.7
56907.7,22417.3
56927.6,22351.7
56934.3,22283.5
56934.3,21811
56927.6,21742.8
56907.7,21677.2
56875.4,21616.8
56831.9,21563.8
56778.9,21520.3
56718.4,21488
56652.9,21468.1
56584.6,21461.4
56013.8,21461.4
55945.6,21468.1
55880,21488
55819.5,21520.3
55766.6,21563.8
55723.1,21616.8
55690.8,21677.2
55670.9,21742.8
55664.1,21811
55664.1,22283.5
55670.9,22351.7
55690.8,22417.3
55723.1,22477.7
55766.6,22530.7
55819.5,22574.2
55859.6,22595.6
55834.6,22616.1
55761.5,22705.1
55707.2,22806.7
55673.8,22916.9
55662.5,23031.5
40601.2,23031.5
40601.2,21700.7
40782.3,21798.5
41051.7,21881.6
41332.1,21910.5
41612.8,21884.1
41882.9,21803.5
42132.1,21671.7
42142.9,21664.5
42275.2,21479.8
41338.6,20543.2
41333,20548.7
41262.3,20478
41267.9,20472.4
41262.3,20466.9
41333,20396.2
41338.6,20401.7
41344.2,20396.2
41414.9,20466.9
41409.3,20472.4
42345.9,21409.1
42530.7,21276.7
42664.7,21028.7
42747.7,20759.3
42776.6,20478.9
42750.2,20198.2
42669.6,19928.1
42567.5,19735
76330.8,19735
Z" /> 
</g>
</g>
</g> 
</svg>
