<?xml version="1.0" standalone="no"?>
 <!DOCTYPE svg PUBLIC "-//W3C//DTD SVG 1.1//EN" 
 "http://www.w3.org/Graphics/SVG/1.1/DTD/svg11.dtd"> 
<svg
  xmlns:svg="http://www.w3.org/2000/svg"
  xmlns="http://www.w3.org/2000/svg"
  xmlns:xlink="http://www.w3.org/1999/xlink"
  version="1.1"
  width="29.700220cm" height="21.000720cm" viewBox="0 0 116930 82680">
<title>SVG Picture created as rpi-arcade-hat-F_Cu.svg date 2021/09/26 16:06:12 </title>
  <desc>Picture generated by PCBNEW </desc>
<g style="fill:#000000; fill-opacity:1;stroke:#000000; stroke-opacity:1;
stroke-linecap:round; stroke-linejoin:round;"
 transform="translate(0 0) scale(1 1)">
</g>
<g style="fill:#000000; fill-opacity:0.0; 
stroke:#000000; stroke-width:-0.000393701; stroke-opacity:1; 
stroke-linecap:round; stroke-linejoin:round;">
<g >
</g>
<g >
</g>
<g style="fill:#000000; fill-opacity:0.0; 
stroke:#000000; stroke-width:-0.000393701; stroke-opacity:1; 
stroke-linecap:round; stroke-linejoin:round;">
</g>
<g style="fill:#000000; fill-opacity:0.0; 
stroke:#000000; stroke-width:669.291; stroke-opacity:1; 
stroke-linecap:round; stroke-linejoin:round;">
<path d="M65698 37204
L65797 37204
" />
<path d="M65698 38188
L65797 38188
" />
<path d="M65698 39173
L65797 39173
" />
</g>
<g style="fill:#000000; fill-opacity:0.0; 
stroke:#000000; stroke-width:0; stroke-opacity:1; 
stroke-linecap:round; stroke-linejoin:round;">
</g>
<g style="fill:#000000; fill-opacity:1.0; 
stroke:#000000; stroke-width:0; stroke-opacity:1; 
stroke-linecap:round; stroke-linejoin:round;">
<path style="fill:#000000; fill-opacity:1.0; 
stroke:#000000; stroke-width:0; stroke-opacity:1; 
stroke-linecap:round; stroke-linejoin:round;fill-rule:evenodd;"
d="M 66043.1,39823.3
66052.7,39824.7
66062,39827.1
66071.1,39830.3
66079.9,39834.5
66088.1,39839.4
66095.9,39845.2
66103.1,39851.7
66109.5,39858.8
66115.3,39866.6
66120.3,39874.9
66124.4,39883.6
66127.7,39892.7
66130,39902.1
66131.4,39911.6
66131.9,39921.3
66131.9,40393.7
66131.4,40403.3
66130,40412.9
66127.7,40422.3
66124.4,40431.4
66120.3,40440.1
66115.3,40448.4
66109.5,40456.1
66103.1,40463.3
66095.9,40469.8
66088.1,40475.5
66079.9,40480.5
66071.1,40484.6
66062,40487.9
66052.7,40490.2
66043.1,40491.7
66033.5,40492.1
65462.6,40492.1
65453,40491.7
65443.4,40490.2
65434,40487.9
65424.9,40484.6
65416.2,40480.5
65407.9,40475.5
65400.2,40469.8
65393,40463.3
65386.5,40456.1
65380.8,40448.4
65375.8,40440.1
65371.7,40431.4
65368.4,40422.3
65366.1,40412.9
65364.6,40403.3
65364.2,40393.7
65364.2,39921.3
65364.6,39911.6
65366.1,39902.1
65368.4,39892.7
65371.7,39883.6
65375.8,39874.9
65380.8,39866.6
65386.5,39858.8
65393,39851.7
65400.2,39845.2
65407.9,39839.4
65416.2,39834.5
65424.9,39830.3
65434,39827.1
65443.4,39824.7
65453,39823.3
65462.6,39822.8
66033.5,39822.8
Z" /> 
</g>
<g >
</g>
<g style="fill:#000000; fill-opacity:1.0; 
stroke:#000000; stroke-width:0; stroke-opacity:1; 
stroke-linecap:round; stroke-linejoin:round;">
<circle cx="46669.3" cy="48133.9" r="334.646" /> 
</g>
<g style="fill:#000000; fill-opacity:1.0; 
stroke:#000000; stroke-width:39.3701; stroke-opacity:1; 
stroke-linecap:round; stroke-linejoin:round;">
</g>
<g style="fill:#000000; fill-opacity:1.0; 
stroke:#000000; stroke-width:0; stroke-opacity:1; 
stroke-linecap:round; stroke-linejoin:round;">
<circle cx="46669.3" cy="47133.9" r="334.646" /> 
</g>
<g style="fill:#000000; fill-opacity:1.0; 
stroke:#000000; stroke-width:39.3701; stroke-opacity:1; 
stroke-linecap:round; stroke-linejoin:round;">
</g>
<g style="fill:#000000; fill-opacity:1.0; 
stroke:#000000; stroke-width:0; stroke-opacity:1; 
stroke-linecap:round; stroke-linejoin:round;">
<circle cx="46669.3" cy="46133.9" r="334.646" /> 
</g>
<g style="fill:#000000; fill-opacity:1.0; 
stroke:#000000; stroke-width:39.3701; stroke-opacity:1; 
stroke-linecap:round; stroke-linejoin:round;">
</g>
<g style="fill:#000000; fill-opacity:1.0; 
stroke:#000000; stroke-width:0; stroke-opacity:1; 
stroke-linecap:round; stroke-linejoin:round;">
<circle cx="46669.3" cy="45133.9" r="334.646" /> 
</g>
<g style="fill:#000000; fill-opacity:1.0; 
stroke:#000000; stroke-width:39.3701; stroke-opacity:1; 
stroke-linecap:round; stroke-linejoin:round;">
</g>
<g style="fill:#000000; fill-opacity:1.0; 
stroke:#000000; stroke-width:0; stroke-opacity:1; 
stroke-linecap:round; stroke-linejoin:round;">
<circle cx="46669.3" cy="44133.9" r="334.646" /> 
</g>
<g style="fill:#000000; fill-opacity:1.0; 
stroke:#000000; stroke-width:39.3701; stroke-opacity:1; 
stroke-linecap:round; stroke-linejoin:round;">
</g>
<g style="fill:#000000; fill-opacity:1.0; 
stroke:#000000; stroke-width:0; stroke-opacity:1; 
stroke-linecap:round; stroke-linejoin:round;">
<circle cx="46669.3" cy="43133.9" r="334.646" /> 
</g>
<g style="fill:#000000; fill-opacity:1.0; 
stroke:#000000; stroke-width:39.3701; stroke-opacity:1; 
stroke-linecap:round; stroke-linejoin:round;">
</g>
<g style="fill:#000000; fill-opacity:1.0; 
stroke:#000000; stroke-width:0; stroke-opacity:1; 
stroke-linecap:round; stroke-linejoin:round;">
<circle cx="46669.3" cy="42133.9" r="334.646" /> 
</g>
<g style="fill:#000000; fill-opacity:1.0; 
stroke:#000000; stroke-width:39.3701; stroke-opacity:1; 
stroke-linecap:round; stroke-linejoin:round;">
</g>
<g style="fill:#000000; fill-opacity:1.0; 
stroke:#000000; stroke-width:0; stroke-opacity:1; 
stroke-linecap:round; stroke-linejoin:round;">
<circle cx="46669.3" cy="41133.9" r="334.646" /> 
</g>
<g style="fill:#000000; fill-opacity:1.0; 
stroke:#000000; stroke-width:39.3701; stroke-opacity:1; 
stroke-linecap:round; stroke-linejoin:round;">
</g>
<g style="fill:#000000; fill-opacity:1.0; 
stroke:#000000; stroke-width:0; stroke-opacity:1; 
stroke-linecap:round; stroke-linejoin:round;">
<circle cx="46669.3" cy="40133.9" r="334.646" /> 
</g>
<g style="fill:#000000; fill-opacity:1.0; 
stroke:#000000; stroke-width:39.3701; stroke-opacity:1; 
stroke-linecap:round; stroke-linejoin:round;">
</g>
<g style="fill:#000000; fill-opacity:1.0; 
stroke:#000000; stroke-width:0; stroke-opacity:1; 
stroke-linecap:round; stroke-linejoin:round;">
<circle cx="46669.3" cy="39133.9" r="334.646" /> 
</g>
<g style="fill:#000000; fill-opacity:1.0; 
stroke:#000000; stroke-width:39.3701; stroke-opacity:1; 
stroke-linecap:round; stroke-linejoin:round;">
</g>
<g style="fill:#000000; fill-opacity:1.0; 
stroke:#000000; stroke-width:0; stroke-opacity:1; 
stroke-linecap:round; stroke-linejoin:round;">
<circle cx="46669.3" cy="38133.9" r="334.646" /> 
</g>
<g style="fill:#000000; fill-opacity:1.0; 
stroke:#000000; stroke-width:39.3701; stroke-opacity:1; 
stroke-linecap:round; stroke-linejoin:round;">
</g>
<g style="fill:#000000; fill-opacity:1.0; 
stroke:#000000; stroke-width:0; stroke-opacity:1; 
stroke-linecap:round; stroke-linejoin:round;">
<circle cx="46669.3" cy="37133.9" r="334.646" /> 
</g>
<g style="fill:#000000; fill-opacity:1.0; 
stroke:#000000; stroke-width:39.3701; stroke-opacity:1; 
stroke-linecap:round; stroke-linejoin:round;">
</g>
<g style="fill:#000000; fill-opacity:1.0; 
stroke:#000000; stroke-width:0; stroke-opacity:1; 
stroke-linecap:round; stroke-linejoin:round;">
<circle cx="46669.3" cy="36133.9" r="334.646" /> 
</g>
<g style="fill:#000000; fill-opacity:1.0; 
stroke:#000000; stroke-width:39.3701; stroke-opacity:1; 
stroke-linecap:round; stroke-linejoin:round;">
</g>
<g style="fill:#000000; fill-opacity:1.0; 
stroke:#000000; stroke-width:0; stroke-opacity:1; 
stroke-linecap:round; stroke-linejoin:round;">
<circle cx="46669.3" cy="35133.9" r="334.646" /> 
</g>
<g style="fill:#000000; fill-opacity:1.0; 
stroke:#000000; stroke-width:39.3701; stroke-opacity:1; 
stroke-linecap:round; stroke-linejoin:round;">
</g>
<g style="fill:#000000; fill-opacity:1.0; 
stroke:#000000; stroke-width:0; stroke-opacity:1; 
stroke-linecap:round; stroke-linejoin:round;">
<circle cx="46669.3" cy="34133.9" r="334.646" /> 
</g>
<g style="fill:#000000; fill-opacity:1.0; 
stroke:#000000; stroke-width:39.3701; stroke-opacity:1; 
stroke-linecap:round; stroke-linejoin:round;">
</g>
<g style="fill:#000000; fill-opacity:1.0; 
stroke:#000000; stroke-width:0; stroke-opacity:1; 
stroke-linecap:round; stroke-linejoin:round;">
<circle cx="46669.3" cy="33133.9" r="334.646" /> 
</g>
<g style="fill:#000000; fill-opacity:1.0; 
stroke:#000000; stroke-width:39.3701; stroke-opacity:1; 
stroke-linecap:round; stroke-linejoin:round;">
</g>
<g style="fill:#000000; fill-opacity:1.0; 
stroke:#000000; stroke-width:0; stroke-opacity:1; 
stroke-linecap:round; stroke-linejoin:round;">
<circle cx="46669.3" cy="32133.9" r="334.646" /> 
</g>
<g style="fill:#000000; fill-opacity:1.0; 
stroke:#000000; stroke-width:39.3701; stroke-opacity:1; 
stroke-linecap:round; stroke-linejoin:round;">
</g>
<g style="fill:#000000; fill-opacity:1.0; 
stroke:#000000; stroke-width:0; stroke-opacity:1; 
stroke-linecap:round; stroke-linejoin:round;">
<circle cx="46669.3" cy="31133.9" r="334.646" /> 
</g>
<g style="fill:#000000; fill-opacity:1.0; 
stroke:#000000; stroke-width:39.3701; stroke-opacity:1; 
stroke-linecap:round; stroke-linejoin:round;">
</g>
<g style="fill:#000000; fill-opacity:1.0; 
stroke:#000000; stroke-width:0; stroke-opacity:1; 
stroke-linecap:round; stroke-linejoin:round;">
<circle cx="46669.3" cy="30133.9" r="334.646" /> 
</g>
<g style="fill:#000000; fill-opacity:1.0; 
stroke:#000000; stroke-width:39.3701; stroke-opacity:1; 
stroke-linecap:round; stroke-linejoin:round;">
</g>
<g style="fill:#000000; fill-opacity:1.0; 
stroke:#000000; stroke-width:0; stroke-opacity:1; 
stroke-linecap:round; stroke-linejoin:round;">
<circle cx="46669.3" cy="29133.9" r="334.646" /> 
</g>
<g style="fill:#000000; fill-opacity:1.0; 
stroke:#000000; stroke-width:39.3701; stroke-opacity:1; 
stroke-linecap:round; stroke-linejoin:round;">
</g>
<g style="fill:#000000; fill-opacity:1.0; 
stroke:#000000; stroke-width:0; stroke-opacity:1; 
stroke-linecap:round; stroke-linejoin:round;">
<circle cx="45669.3" cy="48133.9" r="334.646" /> 
</g>
<g style="fill:#000000; fill-opacity:1.0; 
stroke:#000000; stroke-width:39.3701; stroke-opacity:1; 
stroke-linecap:round; stroke-linejoin:round;">
</g>
<g style="fill:#000000; fill-opacity:1.0; 
stroke:#000000; stroke-width:0; stroke-opacity:1; 
stroke-linecap:round; stroke-linejoin:round;">
<circle cx="45669.3" cy="47133.9" r="334.646" /> 
</g>
<g style="fill:#000000; fill-opacity:1.0; 
stroke:#000000; stroke-width:39.3701; stroke-opacity:1; 
stroke-linecap:round; stroke-linejoin:round;">
</g>
<g style="fill:#000000; fill-opacity:1.0; 
stroke:#000000; stroke-width:0; stroke-opacity:1; 
stroke-linecap:round; stroke-linejoin:round;">
<circle cx="45669.3" cy="46133.9" r="334.646" /> 
</g>
<g style="fill:#000000; fill-opacity:1.0; 
stroke:#000000; stroke-width:39.3701; stroke-opacity:1; 
stroke-linecap:round; stroke-linejoin:round;">
</g>
<g style="fill:#000000; fill-opacity:1.0; 
stroke:#000000; stroke-width:0; stroke-opacity:1; 
stroke-linecap:round; stroke-linejoin:round;">
<circle cx="45669.3" cy="45133.9" r="334.646" /> 
</g>
<g style="fill:#000000; fill-opacity:1.0; 
stroke:#000000; stroke-width:39.3701; stroke-opacity:1; 
stroke-linecap:round; stroke-linejoin:round;">
</g>
<g style="fill:#000000; fill-opacity:1.0; 
stroke:#000000; stroke-width:0; stroke-opacity:1; 
stroke-linecap:round; stroke-linejoin:round;">
<circle cx="45669.3" cy="44133.9" r="334.646" /> 
</g>
<g style="fill:#000000; fill-opacity:1.0; 
stroke:#000000; stroke-width:39.3701; stroke-opacity:1; 
stroke-linecap:round; stroke-linejoin:round;">
</g>
<g style="fill:#000000; fill-opacity:1.0; 
stroke:#000000; stroke-width:0; stroke-opacity:1; 
stroke-linecap:round; stroke-linejoin:round;">
<circle cx="45669.3" cy="43133.9" r="334.646" /> 
</g>
<g style="fill:#000000; fill-opacity:1.0; 
stroke:#000000; stroke-width:39.3701; stroke-opacity:1; 
stroke-linecap:round; stroke-linejoin:round;">
</g>
<g style="fill:#000000; fill-opacity:1.0; 
stroke:#000000; stroke-width:0; stroke-opacity:1; 
stroke-linecap:round; stroke-linejoin:round;">
<circle cx="45669.3" cy="42133.9" r="334.646" /> 
</g>
<g style="fill:#000000; fill-opacity:1.0; 
stroke:#000000; stroke-width:39.3701; stroke-opacity:1; 
stroke-linecap:round; stroke-linejoin:round;">
</g>
<g style="fill:#000000; fill-opacity:1.0; 
stroke:#000000; stroke-width:0; stroke-opacity:1; 
stroke-linecap:round; stroke-linejoin:round;">
<circle cx="45669.3" cy="41133.9" r="334.646" /> 
</g>
<g style="fill:#000000; fill-opacity:1.0; 
stroke:#000000; stroke-width:39.3701; stroke-opacity:1; 
stroke-linecap:round; stroke-linejoin:round;">
</g>
<g style="fill:#000000; fill-opacity:1.0; 
stroke:#000000; stroke-width:0; stroke-opacity:1; 
stroke-linecap:round; stroke-linejoin:round;">
<circle cx="45669.3" cy="40133.9" r="334.646" /> 
</g>
<g style="fill:#000000; fill-opacity:1.0; 
stroke:#000000; stroke-width:39.3701; stroke-opacity:1; 
stroke-linecap:round; stroke-linejoin:round;">
</g>
<g style="fill:#000000; fill-opacity:1.0; 
stroke:#000000; stroke-width:0; stroke-opacity:1; 
stroke-linecap:round; stroke-linejoin:round;">
<circle cx="45669.3" cy="39133.9" r="334.646" /> 
</g>
<g style="fill:#000000; fill-opacity:1.0; 
stroke:#000000; stroke-width:39.3701; stroke-opacity:1; 
stroke-linecap:round; stroke-linejoin:round;">
</g>
<g style="fill:#000000; fill-opacity:1.0; 
stroke:#000000; stroke-width:0; stroke-opacity:1; 
stroke-linecap:round; stroke-linejoin:round;">
<circle cx="45669.3" cy="38133.9" r="334.646" /> 
</g>
<g style="fill:#000000; fill-opacity:1.0; 
stroke:#000000; stroke-width:39.3701; stroke-opacity:1; 
stroke-linecap:round; stroke-linejoin:round;">
</g>
<g style="fill:#000000; fill-opacity:1.0; 
stroke:#000000; stroke-width:0; stroke-opacity:1; 
stroke-linecap:round; stroke-linejoin:round;">
<circle cx="45669.3" cy="37133.9" r="334.646" /> 
</g>
<g style="fill:#000000; fill-opacity:1.0; 
stroke:#000000; stroke-width:39.3701; stroke-opacity:1; 
stroke-linecap:round; stroke-linejoin:round;">
</g>
<g style="fill:#000000; fill-opacity:1.0; 
stroke:#000000; stroke-width:0; stroke-opacity:1; 
stroke-linecap:round; stroke-linejoin:round;">
<circle cx="45669.3" cy="36133.9" r="334.646" /> 
</g>
<g style="fill:#000000; fill-opacity:1.0; 
stroke:#000000; stroke-width:39.3701; stroke-opacity:1; 
stroke-linecap:round; stroke-linejoin:round;">
</g>
<g style="fill:#000000; fill-opacity:1.0; 
stroke:#000000; stroke-width:0; stroke-opacity:1; 
stroke-linecap:round; stroke-linejoin:round;">
<circle cx="45669.3" cy="35133.9" r="334.646" /> 
</g>
<g style="fill:#000000; fill-opacity:1.0; 
stroke:#000000; stroke-width:39.3701; stroke-opacity:1; 
stroke-linecap:round; stroke-linejoin:round;">
</g>
<g style="fill:#000000; fill-opacity:1.0; 
stroke:#000000; stroke-width:0; stroke-opacity:1; 
stroke-linecap:round; stroke-linejoin:round;">
<circle cx="45669.3" cy="34133.9" r="334.646" /> 
</g>
<g style="fill:#000000; fill-opacity:1.0; 
stroke:#000000; stroke-width:39.3701; stroke-opacity:1; 
stroke-linecap:round; stroke-linejoin:round;">
</g>
<g style="fill:#000000; fill-opacity:1.0; 
stroke:#000000; stroke-width:0; stroke-opacity:1; 
stroke-linecap:round; stroke-linejoin:round;">
<circle cx="45669.3" cy="33133.9" r="334.646" /> 
</g>
<g style="fill:#000000; fill-opacity:1.0; 
stroke:#000000; stroke-width:39.3701; stroke-opacity:1; 
stroke-linecap:round; stroke-linejoin:round;">
</g>
<g style="fill:#000000; fill-opacity:1.0; 
stroke:#000000; stroke-width:0; stroke-opacity:1; 
stroke-linecap:round; stroke-linejoin:round;">
<circle cx="45669.3" cy="32133.9" r="334.646" /> 
</g>
<g style="fill:#000000; fill-opacity:1.0; 
stroke:#000000; stroke-width:39.3701; stroke-opacity:1; 
stroke-linecap:round; stroke-linejoin:round;">
</g>
<g style="fill:#000000; fill-opacity:1.0; 
stroke:#000000; stroke-width:0; stroke-opacity:1; 
stroke-linecap:round; stroke-linejoin:round;">
<circle cx="45669.3" cy="31133.9" r="334.646" /> 
</g>
<g style="fill:#000000; fill-opacity:1.0; 
stroke:#000000; stroke-width:39.3701; stroke-opacity:1; 
stroke-linecap:round; stroke-linejoin:round;">
</g>
<g style="fill:#000000; fill-opacity:1.0; 
stroke:#000000; stroke-width:0; stroke-opacity:1; 
stroke-linecap:round; stroke-linejoin:round;">
<circle cx="45669.3" cy="30133.9" r="334.646" /> 
</g>
<g style="fill:#000000; fill-opacity:1.0; 
stroke:#000000; stroke-width:39.3701; stroke-opacity:1; 
stroke-linecap:round; stroke-linejoin:round;">
</g>
<g style="fill:#000000; fill-opacity:1.0; 
stroke:#000000; stroke-width:0; stroke-opacity:1; 
stroke-linecap:round; stroke-linejoin:round;">
<path style="fill:#000000; fill-opacity:1.0; 
stroke:#000000; stroke-width:0; stroke-opacity:1; 
stroke-linecap:round; stroke-linejoin:round;fill-rule:evenodd;"
d="M 45915.2,28799.7
45924.7,28801.1
45934.1,28803.5
45943.2,28806.7
45951.9,28810.8
45960.2,28815.8
45968,28821.6
45975.1,28828
45981.6,28835.2
45987.3,28843
45992.3,28851.2
45996.4,28860
45999.7,28869.1
46002,28878.4
46003.5,28888
46003.9,28897.6
46003.9,29370.1
46003.5,29379.7
46002,29389.3
45999.7,29398.6
45996.4,29407.7
45992.3,29416.5
45987.3,29424.8
45981.6,29432.5
45975.1,29439.7
45968,29446.2
45960.2,29451.9
45951.9,29456.9
45943.2,29461
45934.1,29464.3
45924.7,29466.6
45915.2,29468
45905.5,29468.5
45433.1,29468.5
45423.4,29468
45413.9,29466.6
45404.5,29464.3
45395.4,29461
45386.7,29456.9
45378.4,29451.9
45370.6,29446.2
45363.5,29439.7
45357,29432.5
45351.2,29424.8
45346.3,29416.5
45342.1,29407.7
45338.9,29398.6
45336.5,29389.3
45335.1,29379.7
45334.6,29370.1
45334.6,28897.6
45335.1,28888
45336.5,28878.4
45338.9,28869.1
45342.1,28860
45346.3,28851.2
45351.2,28843
45357,28835.2
45363.5,28828
45370.6,28821.6
45378.4,28815.8
45386.7,28810.8
45395.4,28806.7
45404.5,28803.5
45413.9,28801.1
45423.4,28799.7
45433.1,28799.2
45905.5,28799.2
Z" /> 
</g>
<g >
</g>
<g style="fill:#000000; fill-opacity:1.0; 
stroke:#000000; stroke-width:0; stroke-opacity:1; 
stroke-linecap:round; stroke-linejoin:round;">
</g>
<g style="fill:#000000; fill-opacity:1.0; 
stroke:#000000; stroke-width:669.291; stroke-opacity:1; 
stroke-linecap:round; stroke-linejoin:round;">
</g>
<g style="fill:#000000; fill-opacity:0.0; 
stroke:#000000; stroke-width:669.291; stroke-opacity:1; 
stroke-linecap:round; stroke-linejoin:round;">
<path d="M56348 36023
L56250 36023
" />
<path d="M56348 35039
L56250 35039
" />
<path d="M56348 34055
L56250 34055
" />
</g>
<g style="fill:#000000; fill-opacity:0.0; 
stroke:#000000; stroke-width:0; stroke-opacity:1; 
stroke-linecap:round; stroke-linejoin:round;">
</g>
<g style="fill:#000000; fill-opacity:1.0; 
stroke:#000000; stroke-width:0; stroke-opacity:1; 
stroke-linecap:round; stroke-linejoin:round;">
<path style="fill:#000000; fill-opacity:1.0; 
stroke:#000000; stroke-width:0; stroke-opacity:1; 
stroke-linecap:round; stroke-linejoin:round;fill-rule:evenodd;"
d="M 56594.3,32736.7
56603.8,32738.1
56613.2,32740.5
56622.3,32743.7
56631,32747.8
56639.3,32752.8
56647.1,32758.6
56654.2,32765
56660.7,32772.2
56666.5,32780
56671.4,32788.2
56675.6,32797
56678.8,32806.1
56681.2,32815.4
56682.6,32825
56683.1,32834.6
56683.1,33307.1
56682.6,33316.7
56681.2,33326.3
56678.8,33335.7
56675.6,33344.8
56671.4,33353.5
56666.5,33361.8
56660.7,33369.5
56654.2,33376.7
56647.1,33383.2
56639.3,33388.9
56631,33393.9
56622.3,33398
56613.2,33401.3
56603.8,33403.6
56594.3,33405
56584.6,33405.5
56013.8,33405.5
56004.1,33405
55994.6,33403.6
55985.2,33401.3
55976.1,33398
55967.4,33393.9
55959.1,33388.9
55951.3,33383.2
55944.2,33376.7
55937.7,33369.5
55931.9,33361.8
55927,33353.5
55922.8,33344.8
55919.6,33335.7
55917.2,33326.3
55915.8,33316.7
55915.4,33307.1
55915.4,32834.6
55915.8,32825
55917.2,32815.4
55919.6,32806.1
55922.8,32797
55927,32788.2
55931.9,32780
55937.7,32772.2
55944.2,32765
55951.3,32758.6
55959.1,32752.8
55967.4,32747.8
55976.1,32743.7
55985.2,32740.5
55994.6,32738.1
56004.1,32736.7
56013.8,32736.2
56584.6,32736.2
Z" /> 
</g>
<g >
</g>
<g style="fill:#000000; fill-opacity:1.0; 
stroke:#000000; stroke-width:0; stroke-opacity:1; 
stroke-linecap:round; stroke-linejoin:round;">
</g>
<g style="fill:#000000; fill-opacity:1.0; 
stroke:#000000; stroke-width:669.291; stroke-opacity:1; 
stroke-linecap:round; stroke-linejoin:round;">
</g>
<g style="fill:#000000; fill-opacity:0.0; 
stroke:#000000; stroke-width:669.291; stroke-opacity:1; 
stroke-linecap:round; stroke-linejoin:round;">
<path d="M56348 30511
L56250 30511
" />
<path d="M56348 29527
L56250 29527
" />
<path d="M56348 28543
L56250 28543
" />
</g>
<g style="fill:#000000; fill-opacity:0.0; 
stroke:#000000; stroke-width:0; stroke-opacity:1; 
stroke-linecap:round; stroke-linejoin:round;">
</g>
<g style="fill:#000000; fill-opacity:1.0; 
stroke:#000000; stroke-width:0; stroke-opacity:1; 
stroke-linecap:round; stroke-linejoin:round;">
<path style="fill:#000000; fill-opacity:1.0; 
stroke:#000000; stroke-width:0; stroke-opacity:1; 
stroke-linecap:round; stroke-linejoin:round;fill-rule:evenodd;"
d="M 56594.3,27224.9
56603.8,27226.3
56613.2,27228.6
56622.3,27231.9
56631,27236
56639.3,27241
56647.1,27246.8
56654.2,27253.2
56660.7,27260.4
56666.5,27268.2
56671.4,27276.4
56675.6,27285.2
56678.8,27294.3
56681.2,27303.6
56682.6,27313.2
56683.1,27322.8
56683.1,27795.3
56682.6,27804.9
56681.2,27814.5
56678.8,27823.8
56675.6,27832.9
56671.4,27841.7
56666.5,27850
56660.7,27857.7
56654.2,27864.9
56647.1,27871.4
56639.3,27877.1
56631,27882.1
56622.3,27886.2
56613.2,27889.5
56603.8,27891.8
56594.3,27893.2
56584.6,27893.7
56013.8,27893.7
56004.1,27893.2
55994.6,27891.8
55985.2,27889.5
55976.1,27886.2
55967.4,27882.1
55959.1,27877.1
55951.3,27871.4
55944.2,27864.9
55937.7,27857.7
55931.9,27850
55927,27841.7
55922.8,27832.9
55919.6,27823.8
55917.2,27814.5
55915.8,27804.9
55915.4,27795.3
55915.4,27322.8
55915.8,27313.2
55917.2,27303.6
55919.6,27294.3
55922.8,27285.2
55927,27276.4
55931.9,27268.2
55937.7,27260.4
55944.2,27253.2
55951.3,27246.8
55959.1,27241
55967.4,27236
55976.1,27231.9
55985.2,27228.6
55994.6,27226.3
56004.1,27224.9
56013.8,27224.4
56584.6,27224.4
Z" /> 
</g>
<g >
</g>
<g style="fill:#000000; fill-opacity:1.0; 
stroke:#000000; stroke-width:0; stroke-opacity:1; 
stroke-linecap:round; stroke-linejoin:round;">
</g>
<g style="fill:#000000; fill-opacity:1.0; 
stroke:#000000; stroke-width:669.291; stroke-opacity:1; 
stroke-linecap:round; stroke-linejoin:round;">
</g>
<g style="fill:#000000; fill-opacity:0.0; 
stroke:#000000; stroke-width:669.291; stroke-opacity:1; 
stroke-linecap:round; stroke-linejoin:round;">
<path d="M56348 25000
L56250 25000
" />
<path d="M56348 24015
L56250 24015
" />
<path d="M56348 23031
L56250 23031
" />
</g>
<g style="fill:#000000; fill-opacity:0.0; 
stroke:#000000; stroke-width:0; stroke-opacity:1; 
stroke-linecap:round; stroke-linejoin:round;">
</g>
<g style="fill:#000000; fill-opacity:1.0; 
stroke:#000000; stroke-width:0; stroke-opacity:1; 
stroke-linecap:round; stroke-linejoin:round;">
<path style="fill:#000000; fill-opacity:1.0; 
stroke:#000000; stroke-width:0; stroke-opacity:1; 
stroke-linecap:round; stroke-linejoin:round;fill-rule:evenodd;"
d="M 56594.3,21713.1
56603.8,21714.5
56613.2,21716.8
56622.3,21720.1
56631,21724.2
56639.3,21729.2
56647.1,21734.9
56654.2,21741.4
56660.7,21748.6
56666.5,21756.3
56671.4,21764.6
56675.6,21773.4
56678.8,21782.5
56681.2,21791.8
56682.6,21801.4
56683.1,21811
56683.1,22283.5
56682.6,22293.1
56681.2,22302.7
56678.8,22312
56675.6,22321.1
56671.4,22329.9
56666.5,22338.1
56660.7,22345.9
56654.2,22353.1
56647.1,22359.5
56639.3,22365.3
56631,22370.3
56622.3,22374.4
56613.2,22377.7
56603.8,22380
56594.3,22381.4
56584.6,22381.9
56013.8,22381.9
56004.1,22381.4
55994.6,22380
55985.2,22377.7
55976.1,22374.4
55967.4,22370.3
55959.1,22365.3
55951.3,22359.5
55944.2,22353.1
55937.7,22345.9
55931.9,22338.1
55927,22329.9
55922.8,22321.1
55919.6,22312
55917.2,22302.7
55915.8,22293.1
55915.4,22283.5
55915.4,21811
55915.8,21801.4
55917.2,21791.8
55919.6,21782.5
55922.8,21773.4
55927,21764.6
55931.9,21756.3
55937.7,21748.6
55944.2,21741.4
55951.3,21734.9
55959.1,21729.2
55967.4,21724.2
55976.1,21720.1
55985.2,21716.8
55994.6,21714.5
56004.1,21713.1
56013.8,21712.6
56584.6,21712.6
Z" /> 
</g>
<g >
</g>
<g style="fill:#000000; fill-opacity:1.0; 
stroke:#000000; stroke-width:0; stroke-opacity:1; 
stroke-linecap:round; stroke-linejoin:round;">
</g>
<g style="fill:#000000; fill-opacity:1.0; 
stroke:#000000; stroke-width:669.291; stroke-opacity:1; 
stroke-linecap:round; stroke-linejoin:round;">
</g>
<g style="fill:#000000; fill-opacity:0.0; 
stroke:#000000; stroke-width:669.291; stroke-opacity:1; 
stroke-linecap:round; stroke-linejoin:round;">
<path d="M56348 55314
L56250 55314
" />
<path d="M56348 54330
L56250 54330
" />
<path d="M56348 53346
L56250 53346
" />
</g>
<g style="fill:#000000; fill-opacity:0.0; 
stroke:#000000; stroke-width:0; stroke-opacity:1; 
stroke-linecap:round; stroke-linejoin:round;">
</g>
<g style="fill:#000000; fill-opacity:1.0; 
stroke:#000000; stroke-width:0; stroke-opacity:1; 
stroke-linecap:round; stroke-linejoin:round;">
<path style="fill:#000000; fill-opacity:1.0; 
stroke:#000000; stroke-width:0; stroke-opacity:1; 
stroke-linecap:round; stroke-linejoin:round;fill-rule:evenodd;"
d="M 56594.3,52028
56603.8,52029.5
56613.2,52031.8
56622.3,52035.1
56631,52039.2
56639.3,52044.1
56647.1,52049.9
56654.2,52056.4
56660.7,52063.5
56666.5,52071.3
56671.4,52079.6
56675.6,52088.3
56678.8,52097.4
56681.2,52106.8
56682.6,52116.3
56683.1,52126
56683.1,52598.4
56682.6,52608.1
56681.2,52617.6
56678.8,52627
56675.6,52636.1
56671.4,52644.8
56666.5,52653.1
56660.7,52660.9
56654.2,52668
56647.1,52674.5
56639.3,52680.3
56631,52685.2
56622.3,52689.4
56613.2,52692.6
56603.8,52695
56594.3,52696.4
56584.6,52696.9
56013.8,52696.9
56004.1,52696.4
55994.6,52695
55985.2,52692.6
55976.1,52689.4
55967.4,52685.2
55959.1,52680.3
55951.3,52674.5
55944.2,52668
55937.7,52660.9
55931.9,52653.1
55927,52644.8
55922.8,52636.1
55919.6,52627
55917.2,52617.6
55915.8,52608.1
55915.4,52598.4
55915.4,52126
55915.8,52116.3
55917.2,52106.8
55919.6,52097.4
55922.8,52088.3
55927,52079.6
55931.9,52071.3
55937.7,52063.5
55944.2,52056.4
55951.3,52049.9
55959.1,52044.1
55967.4,52039.2
55976.1,52035.1
55985.2,52031.8
55994.6,52029.5
56004.1,52028
56013.8,52027.6
56584.6,52027.6
Z" /> 
</g>
<g >
</g>
<g style="fill:#000000; fill-opacity:1.0; 
stroke:#000000; stroke-width:0; stroke-opacity:1; 
stroke-linecap:round; stroke-linejoin:round;">
</g>
<g style="fill:#000000; fill-opacity:1.0; 
stroke:#000000; stroke-width:669.291; stroke-opacity:1; 
stroke-linecap:round; stroke-linejoin:round;">
</g>
<g style="fill:#000000; fill-opacity:0.0; 
stroke:#000000; stroke-width:669.291; stroke-opacity:1; 
stroke-linecap:round; stroke-linejoin:round;">
<path d="M56348 49803
L56250 49803
" />
<path d="M56348 48818
L56250 48818
" />
<path d="M56348 47834
L56250 47834
" />
</g>
<g style="fill:#000000; fill-opacity:0.0; 
stroke:#000000; stroke-width:0; stroke-opacity:1; 
stroke-linecap:round; stroke-linejoin:round;">
</g>
<g style="fill:#000000; fill-opacity:1.0; 
stroke:#000000; stroke-width:0; stroke-opacity:1; 
stroke-linecap:round; stroke-linejoin:round;">
<path style="fill:#000000; fill-opacity:1.0; 
stroke:#000000; stroke-width:0; stroke-opacity:1; 
stroke-linecap:round; stroke-linejoin:round;fill-rule:evenodd;"
d="M 56594.3,46516.2
56603.8,46517.6
56613.2,46520
56622.3,46523.2
56631,46527.4
56639.3,46532.3
56647.1,46538.1
56654.2,46544.6
56660.7,46551.7
56666.5,46559.5
56671.4,46567.8
56675.6,46576.5
56678.8,46585.6
56681.2,46595
56682.6,46604.5
56683.1,46614.2
56683.1,47086.6
56682.6,47096.3
56681.2,47105.8
56678.8,47115.2
56675.6,47124.3
56671.4,47133
56666.5,47141.3
56660.7,47149.1
56654.2,47156.2
56647.1,47162.7
56639.3,47168.5
56631,47173.4
56622.3,47177.5
56613.2,47180.8
56603.8,47183.1
56594.3,47184.6
56584.6,47185
56013.8,47185
56004.1,47184.6
55994.6,47183.1
55985.2,47180.8
55976.1,47177.5
55967.4,47173.4
55959.1,47168.5
55951.3,47162.7
55944.2,47156.2
55937.7,47149.1
55931.9,47141.3
55927,47133
55922.8,47124.3
55919.6,47115.2
55917.2,47105.8
55915.8,47096.3
55915.4,47086.6
55915.4,46614.2
55915.8,46604.5
55917.2,46595
55919.6,46585.6
55922.8,46576.5
55927,46567.8
55931.9,46559.5
55937.7,46551.7
55944.2,46544.6
55951.3,46538.1
55959.1,46532.3
55967.4,46527.4
55976.1,46523.2
55985.2,46520
55994.6,46517.6
56004.1,46516.2
56013.8,46515.7
56584.6,46515.7
Z" /> 
</g>
<g >
</g>
<g style="fill:#000000; fill-opacity:1.0; 
stroke:#000000; stroke-width:0; stroke-opacity:1; 
stroke-linecap:round; stroke-linejoin:round;">
</g>
<g style="fill:#000000; fill-opacity:1.0; 
stroke:#000000; stroke-width:669.291; stroke-opacity:1; 
stroke-linecap:round; stroke-linejoin:round;">
</g>
<g style="fill:#000000; fill-opacity:0.0; 
stroke:#000000; stroke-width:669.291; stroke-opacity:1; 
stroke-linecap:round; stroke-linejoin:round;">
<path d="M56348 44291
L56250 44291
" />
<path d="M56348 43307
L56250 43307
" />
<path d="M56348 42322
L56250 42322
" />
</g>
<g style="fill:#000000; fill-opacity:0.0; 
stroke:#000000; stroke-width:0; stroke-opacity:1; 
stroke-linecap:round; stroke-linejoin:round;">
</g>
<g style="fill:#000000; fill-opacity:1.0; 
stroke:#000000; stroke-width:0; stroke-opacity:1; 
stroke-linecap:round; stroke-linejoin:round;">
<path style="fill:#000000; fill-opacity:1.0; 
stroke:#000000; stroke-width:0; stroke-opacity:1; 
stroke-linecap:round; stroke-linejoin:round;fill-rule:evenodd;"
d="M 56594.3,41004.4
56603.8,41005.8
56613.2,41008.2
56622.3,41011.4
56631,41015.6
56639.3,41020.5
56647.1,41026.3
56654.2,41032.8
56660.7,41039.9
56666.5,41047.7
56671.4,41056
56675.6,41064.7
56678.8,41073.8
56681.2,41083.2
56682.6,41092.7
56683.1,41102.4
56683.1,41574.8
56682.6,41584.5
56681.2,41594
56678.8,41603.4
56675.6,41612.5
56671.4,41621.2
56666.5,41629.5
56660.7,41637.2
56654.2,41644.4
56647.1,41650.9
56639.3,41656.6
56631,41661.6
56622.3,41665.7
56613.2,41669
56603.8,41671.3
56594.3,41672.8
56584.6,41673.2
56013.8,41673.2
56004.1,41672.8
55994.6,41671.3
55985.2,41669
55976.1,41665.7
55967.4,41661.6
55959.1,41656.6
55951.3,41650.9
55944.2,41644.4
55937.7,41637.2
55931.9,41629.5
55927,41621.2
55922.8,41612.5
55919.6,41603.4
55917.2,41594
55915.8,41584.5
55915.4,41574.8
55915.4,41102.4
55915.8,41092.7
55917.2,41083.2
55919.6,41073.8
55922.8,41064.7
55927,41056
55931.9,41047.7
55937.7,41039.9
55944.2,41032.8
55951.3,41026.3
55959.1,41020.5
55967.4,41015.6
55976.1,41011.4
55985.2,41008.2
55994.6,41005.8
56004.1,41004.4
56013.8,41003.9
56584.6,41003.9
Z" /> 
</g>
<g >
</g>
<g style="fill:#000000; fill-opacity:1.0; 
stroke:#000000; stroke-width:0; stroke-opacity:1; 
stroke-linecap:round; stroke-linejoin:round;">
<circle cx="41338.6" cy="56692.9" r="1181.1" /> 
</g>
<g style="fill:#000000; fill-opacity:1.0; 
stroke:#000000; stroke-width:39.3701; stroke-opacity:1; 
stroke-linecap:round; stroke-linejoin:round;">
</g>
<g >
</g>
<g style="fill:#000000; fill-opacity:1.0; 
stroke:#000000; stroke-width:39.3701; stroke-opacity:1; 
stroke-linecap:round; stroke-linejoin:round;">
</g>
<g style="fill:#000000; fill-opacity:1.0; 
stroke:#000000; stroke-width:0; stroke-opacity:1; 
stroke-linecap:round; stroke-linejoin:round;">
<circle cx="77559.1" cy="56692.9" r="1181.1" /> 
</g>
<g style="fill:#000000; fill-opacity:1.0; 
stroke:#000000; stroke-width:39.3701; stroke-opacity:1; 
stroke-linecap:round; stroke-linejoin:round;">
</g>
<g >
</g>
<g style="fill:#000000; fill-opacity:1.0; 
stroke:#000000; stroke-width:39.3701; stroke-opacity:1; 
stroke-linecap:round; stroke-linejoin:round;">
</g>
<g style="fill:#000000; fill-opacity:1.0; 
stroke:#000000; stroke-width:0; stroke-opacity:1; 
stroke-linecap:round; stroke-linejoin:round;">
<circle cx="41338.6" cy="20472.4" r="1181.1" /> 
</g>
<g style="fill:#000000; fill-opacity:1.0; 
stroke:#000000; stroke-width:39.3701; stroke-opacity:1; 
stroke-linecap:round; stroke-linejoin:round;">
</g>
<g >
</g>
<g style="fill:#000000; fill-opacity:1.0; 
stroke:#000000; stroke-width:39.3701; stroke-opacity:1; 
stroke-linecap:round; stroke-linejoin:round;">
</g>
<g style="fill:#000000; fill-opacity:1.0; 
stroke:#000000; stroke-width:0; stroke-opacity:1; 
stroke-linecap:round; stroke-linejoin:round;">
<circle cx="77559.1" cy="20472.4" r="1181.1" /> 
</g>
<g style="fill:#000000; fill-opacity:1.0; 
stroke:#000000; stroke-width:39.3701; stroke-opacity:1; 
stroke-linecap:round; stroke-linejoin:round;">
</g>
<g >
</g>
<g >
</g>
<g style="fill:#000000; fill-opacity:1.0; 
stroke:#000000; stroke-width:39.3701; stroke-opacity:1; 
stroke-linecap:round; stroke-linejoin:round;">
</g>
<g style="fill:#000000; fill-opacity:1.0; 
stroke:#000000; stroke-width:98.4252; stroke-opacity:1; 
stroke-linecap:round; stroke-linejoin:round;">
</g>
<g style="fill:#000000; fill-opacity:0.0; 
stroke:#000000; stroke-width:98.4252; stroke-opacity:1; 
stroke-linecap:round; stroke-linejoin:round;">
<path d="M49118 48133
L56299 55314
" />
<path d="M46669 48133
L49118 48133
" />
<path d="M49102 47133
L56299 54330
" />
<path d="M46669 47133
L49102 47133
" />
<path d="M49624 46671
L56299 53346
" />
<path d="M46131 46671
L49624 46671
" />
<path d="M45669 47133
L46131 46671
" />
<path d="M50070 46133
L56299 52362
" />
<path d="M46669 46133
L50070 46133
" />
<path d="M45669 46133
L46133 45669
" />
<path d="M52165 45669
L56299 49803
" />
<path d="M46133 45669
L52165 45669
" />
<path d="M52151 44671
L56299 48818
" />
<path d="M46131 44671
L52151 44671
" />
<path d="M45669 45133
L46131 44671
" />
<path d="M52598 44133
L56299 47834
" />
<path d="M46669 44133
L52598 44133
" />
<path d="M46131 43671
L53120 43671
" />
<path d="M53120 43671
L56299 46850
" />
<path d="M45669 44133
L46131 43671
" />
<path d="M46131 42671
L54679 42671
" />
<path d="M54679 42671
L56299 44291
" />
<path d="M45669 43133
L46131 42671
" />
<path d="M54125 41133
L56299 43307
" />
<path d="M46669 41133
L54125 41133
" />
<path d="M54110 40133
L56299 42322
" />
<path d="M46669 40133
L54110 40133
" />
<path d="M54631 39671
L56299 41338
" />
<path d="M46131 39671
L54631 39671
" />
<path d="M45669 40133
L46131 39671
" />
<path d="M65708 39133
L65748 39173
" />
<path d="M46669 39133
L65708 39133
" />
<path d="M66259 38981
L66259 39645
" />
<path d="M65949 38671
L66259 38981
" />
<path d="M66259 39645
L65748 40157
" />
<path d="M46131 38671
L65949 38671
" />
<path d="M45669 39133
L46131 38671
" />
<path d="M54651 37671
L56299 36023
" />
<path d="M46131 37671
L54651 37671
" />
<path d="M45669 38133
L46131 37671
" />
<path d="M54204 37133
L56299 35039
" />
<path d="M46669 37133
L54204 37133
" />
<path d="M54220 36133
L56299 34055
" />
<path d="M46669 36133
L54220 36133
" />
<path d="M53698 35671
L56299 33070
" />
<path d="M46131 35671
L53698 35671
" />
<path d="M45669 36133
L46131 35671
" />
<path d="M46131 34671
L52139 34671
" />
<path d="M52139 34671
L56299 30511
" />
<path d="M45669 35133
L46131 34671
" />
<path d="M51692 34133
L56299 29527
" />
<path d="M46669 34133
L51692 34133
" />
<path d="M51171 33671
L56299 28543
" />
<path d="M46131 33671
L51171 33671
" />
<path d="M45669 34133
L46131 33671
" />
<path d="M50724 33133
L56299 27559
" />
<path d="M46669 33133
L50724 33133
" />
<path d="M49165 32133
L56299 25000
" />
<path d="M46669 32133
L49165 32133
" />
<path d="M48643 31671
L56299 24015
" />
<path d="M46131 31671
L48643 31671
" />
<path d="M45669 32133
L46131 31671
" />
<path d="M48659 30671
L56299 23031
" />
<path d="M46131 30671
L48659 30671
" />
<path d="M45669 31133
L46131 30671
" />
<path d="M48749 29596
L56299 22047
" />
<path d="M46206 29596
L48749 29596
" />
<path d="M45669 30133
L46206 29596
" />
</g>
<g >
</g>
<g style="fill:#000000; fill-opacity:0.0; 
stroke:#000000; stroke-width:98.4252; stroke-opacity:1; 
stroke-linecap:round; stroke-linejoin:round;">
<g >
</g>
<g style="fill:#000000; fill-opacity:1.0; 
stroke:#000000; stroke-width:100; stroke-opacity:1; 
stroke-linecap:round; stroke-linejoin:round;">
<path style="fill:#000000; fill-opacity:1.0; 
stroke:#000000; stroke-width:100; stroke-opacity:1; 
stroke-linecap:round; stroke-linejoin:round;fill-rule:evenodd;"
d="M 76290.8,19794.6
76182.9,20055
76128,20331.5
76128,20613.4
76182.9,20889.9
76290.8,21150.3
76447.4,21384.7
76646.8,21584.1
76881.2,21740.7
77141.6,21848.5
77418.1,21903.5
77700,21903.5
77976.5,21848.5
78236.9,21740.7
78296.5,21700.9
78296.5,55464.5
78236.9,55424.7
77976.5,55316.8
77700,55261.8
77418.1,55261.8
77141.6,55316.8
76881.2,55424.7
76646.8,55581.3
76447.4,55780.6
76290.8,56015
76182.9,56275.5
76128,56552
76128,56833.9
76182.9,57110.4
76290.8,57370.8
76330.6,57430.3
42567,57430.3
42606.8,57370.8
42714.7,57110.4
42769.7,56833.9
42769.7,56552
42714.7,56275.5
42606.8,56015
42450.2,55780.6
42250.9,55581.3
42016.5,55424.7
41756,55316.8
41479.5,55261.8
41197.6,55261.8
40921.1,55316.8
40660.7,55424.7
40601.2,55464.5
40601.2,28897.6
45083.4,28897.6
45083.4,29370.1
45090.2,29438.3
45110.1,29503.9
45142.4,29564.3
45185.8,29617.3
45238.8,29660.8
45288.8,29687.5
45215.2,29761.2
45151.2,29856.9
45107.1,29963.3
45084.6,30076.3
45084.6,30191.4
45107.1,30304.4
45151.2,30410.8
45215.2,30506.5
45296.6,30588
45365.3,30633.9
45296.6,30679.7
45215.2,30761.2
45151.2,30856.9
45107.1,30963.3
45084.6,31076.3
45084.6,31191.4
45107.1,31304.4
45151.2,31410.8
45215.2,31506.5
45296.6,31588
45365.3,31633.9
45296.6,31679.7
45215.2,31761.2
45151.2,31856.9
45107.1,31963.3
45084.6,32076.3
45084.6,32191.4
45107.1,32304.4
45151.2,32410.8
45215.2,32506.5
45296.6,32588
45365.3,32633.9
45296.6,32679.7
45215.2,32761.2
45151.2,32856.9
45107.1,32963.3
45084.6,33076.3
45084.6,33191.4
45107.1,33304.4
45151.2,33410.8
45215.2,33506.5
45296.6,33588
45365.3,33633.9
45296.6,33679.7
45215.2,33761.2
45151.2,33856.9
45107.1,33963.3
45084.6,34076.3
45084.6,34191.4
45107.1,34304.4
45151.2,34410.8
45215.2,34506.5
45296.6,34588
45365.3,34633.9
45296.6,34679.7
45215.2,34761.2
45151.2,34856.9
45107.1,34963.3
45084.6,35076.3
45084.6,35191.4
45107.1,35304.4
45151.2,35410.8
45215.2,35506.5
45296.6,35588
45365.3,35633.9
45296.6,35679.7
45215.2,35761.2
45151.2,35856.9
45107.1,35963.3
45084.6,36076.3
45084.6,36191.4
45107.1,36304.4
45151.2,36410.8
45215.2,36506.5
45296.6,36588
45365.3,36633.9
45296.6,36679.7
45215.2,36761.2
45151.2,36856.9
45107.1,36963.3
45084.6,37076.3
45084.6,37191.4
45107.1,37304.4
45151.2,37410.8
45215.2,37506.5
45296.6,37588
45365.3,37633.9
45296.6,37679.7
45215.2,37761.2
45151.2,37856.9
45107.1,37963.3
45084.6,38076.3
45084.6,38191.4
45107.1,38304.4
45151.2,38410.8
45215.2,38506.5
45296.6,38588
45365.3,38633.9
45296.6,38679.7
45215.2,38761.2
45151.2,38856.9
45107.1,38963.3
45084.6,39076.3
45084.6,39191.4
45107.1,39304.4
45151.2,39410.8
45215.2,39506.5
45296.6,39588
45365.3,39633.9
45296.6,39679.7
45215.2,39761.2
45151.2,39856.9
45107.1,39963.3
45084.6,40076.3
45084.6,40191.4
45107.1,40304.4
45151.2,40410.8
45215.2,40506.5
45296.6,40588
45365.3,40633.9
45296.6,40679.7
45215.2,40761.2
45151.2,40856.9
45107.1,40963.3
45084.6,41076.3
45084.6,41191.4
45107.1,41304.4
45151.2,41410.8
45215.2,41506.5
45296.6,41588
45365.3,41633.9
45296.6,41679.7
45215.2,41761.2
45151.2,41856.9
45107.1,41963.3
45084.6,42076.3
45084.6,42191.4
45107.1,42304.4
45151.2,42410.8
45215.2,42506.5
45296.6,42588
45365.3,42633.9
45296.6,42679.7
45215.2,42761.2
45151.2,42856.9
45107.1,42963.3
45084.6,43076.3
45084.6,43191.4
45107.1,43304.4
45151.2,43410.8
45215.2,43506.5
45296.6,43588
45365.3,43633.9
45296.6,43679.7
45215.2,43761.2
45151.2,43856.9
45107.1,43963.3
45084.6,44076.3
45084.6,44191.4
45107.1,44304.4
45151.2,44410.8
45215.2,44506.5
45296.6,44588
45365.3,44633.9
45296.6,44679.7
45215.2,44761.2
45151.2,44856.9
45107.1,44963.3
45084.6,45076.3
45084.6,45191.4
45107.1,45304.4
45151.2,45410.8
45215.2,45506.5
45296.6,45588
45365.3,45633.9
45296.6,45679.7
45215.2,45761.2
45151.2,45856.9
45107.1,45963.3
45084.6,46076.3
45084.6,46191.4
45107.1,46304.4
45151.2,46410.8
45215.2,46506.5
45296.6,46588
45365.3,46633.9
45296.6,46679.7
45215.2,46761.2
45151.2,46856.9
45107.1,46963.3
45084.6,47076.3
45084.6,47191.4
45107.1,47304.4
45151.2,47410.8
45215.2,47506.5
45296.6,47588
45365.3,47633.9
45296.6,47679.7
45215.2,47761.2
45151.2,47856.9
45107.1,47963.3
45084.6,48076.3
45084.6,48191.4
45107.1,48304.4
45151.2,48410.8
45215.2,48506.5
45296.6,48588
45392.4,48652
45498.8,48696
45611.7,48718.5
45726.9,48718.5
45839.8,48696
45946.2,48652
46042,48588
46123.4,48506.5
46169.3,48437.9
46215.2,48506.5
46296.6,48588
46392.4,48652
46498.8,48696
46611.7,48718.5
46726.9,48718.5
46839.8,48696
46946.2,48652
47042,48588
47123.4,48506.5
47172.5,48433.1
48994.2,48433.1
55694.2,55133.1
55673.8,55200.3
55662.5,55315
55673.8,55429.6
55707.2,55539.8
55761.5,55641.3
55834.6,55730.4
55923.6,55803.4
56025.2,55857.7
56135.4,55891.1
56221.3,55899.6
56377.1,55899.6
56463,55891.1
56573.2,55857.7
56674.8,55803.4
56763.8,55730.4
56836.9,55641.3
56891.2,55539.8
56924.6,55429.6
56935.9,55315
56924.6,55200.3
56891.2,55090.1
56836.9,54988.6
56763.8,54899.6
56674.8,54826.5
56668,54822.8
56674.8,54819.2
56763.8,54746.1
56836.9,54657.1
56891.2,54555.5
56924.6,54445.3
56935.9,54330.7
56924.6,54216.1
56891.2,54105.9
56836.9,54004.3
56763.8,53915.3
56674.8,53842.2
56668,53838.6
56674.8,53834.9
56763.8,53761.9
56836.9,53672.8
56891.2,53571.3
56924.6,53461.1
56935.9,53346.5
56924.6,53231.8
56891.2,53121.6
56836.9,53020.1
56763.8,52931
56738.8,52910.5
56778.9,52889.1
56831.9,52845.7
56875.4,52792.7
56907.7,52732.2
56927.6,52666.6
56934.3,52598.4
56934.3,52126
56927.6,52057.8
56907.7,51992.2
56875.4,51931.7
56831.9,51878.8
56778.9,51835.3
56718.4,51803
56652.9,51783.1
56584.6,51776.3
56136.5,51776.3
50328.7,45968.5
52041.4,45968.5
55694.2,49621.3
55673.8,49688.5
55662.5,49803.1
55673.8,49917.8
55707.2,50028
55761.5,50129.5
55834.6,50218.6
55923.6,50291.6
56025.2,50345.9
56135.4,50379.3
56221.3,50387.8
56377.1,50387.8
56463,50379.3
56573.2,50345.9
56674.8,50291.6
56763.8,50218.6
56836.9,50129.5
56891.2,50028
56924.6,49917.8
56935.9,49803.1
56924.6,49688.5
56891.2,49578.3
56836.9,49476.8
56763.8,49387.7
56674.8,49314.7
56668,49311
56674.8,49307.4
56763.8,49234.3
56836.9,49145.3
56891.2,49043.7
56924.6,48933.5
56935.9,48818.9
56924.6,48704.3
56891.2,48594.1
56836.9,48492.5
56763.8,48403.5
56674.8,48330.4
56668,48326.8
56674.8,48323.1
56763.8,48250.1
56836.9,48161
56891.2,48059.5
56924.6,47949.3
56935.9,47834.6
56924.6,47720
56891.2,47609.8
56836.9,47508.3
56763.8,47419.2
56738.8,47398.7
56778.9,47377.3
56831.9,47333.8
56875.4,47280.9
56907.7,47220.4
56927.6,47154.8
56934.3,47086.6
56934.3,46614.2
56927.6,46546
56907.7,46480.4
56875.4,46419.9
56831.9,46366.9
56778.9,46323.5
56718.4,46291.2
56652.9,46271.3
56584.6,46264.5
56136.5,46264.5
53342,43470.1
53332.7,43458.7
53287.1,43421.3
53235.1,43393.5
53178.7,43376.4
53134.8,43372
53134.8,43372
53120.1,43370.6
53105.4,43372
47203.4,43372
47231.5,43304.4
47253.9,43191.4
47253.9,43076.3
47232.9,42970.5
54555.2,42970.5
55694.2,44109.5
55673.8,44176.7
55662.5,44291.3
55673.8,44405.9
55707.2,44516.2
55761.5,44617.7
55834.6,44706.7
55923.6,44779.8
56025.2,44834.1
56135.4,44867.5
56221.3,44876
56377.1,44876
56463,44867.5
56573.2,44834.1
56674.8,44779.8
56763.8,44706.7
56836.9,44617.7
56891.2,44516.2
56924.6,44405.9
56935.9,44291.3
56924.6,44176.7
56891.2,44066.5
56836.9,43965
56763.8,43875.9
56674.8,43802.9
56668,43799.2
56674.8,43795.6
56763.8,43722.5
56836.9,43633.5
56891.2,43531.9
56924.6,43421.7
56935.9,43307.1
56924.6,43192.5
56891.2,43082.3
56836.9,42980.7
56763.8,42891.7
56674.8,42818.6
56668,42815
56674.8,42811.3
56763.8,42738.2
56836.9,42649.2
56891.2,42547.7
56924.6,42437.4
56935.9,42322.8
56924.6,42208.2
56891.2,42098
56836.9,41996.5
56763.8,41907.4
56738.8,41886.9
56778.9,41865.5
56831.9,41822
56875.4,41769
56907.7,41708.6
56927.6,41643
56934.3,41574.8
56934.3,41102.4
56927.6,41034.2
56907.7,40968.6
56875.4,40908.1
56831.9,40855.1
56778.9,40811.7
56718.4,40779.3
56652.9,40759.4
56584.6,40752.7
56136.5,40752.7
54853.9,39470.1
54844.5,39458.7
54813.3,39433.1
65174.8,39433.1
65210.4,39499.6
65283.4,39588.6
65308.4,39609.1
65268.4,39630.5
65215.4,39674
65171.9,39727
65139.6,39787.5
65119.7,39853
65113,39921.3
65113,40393.7
65119.7,40461.9
65139.6,40527.5
65171.9,40587.9
65215.4,40640.9
65268.4,40684.4
65328.8,40716.7
65394.4,40736.6
65462.6,40743.3
66033.5,40743.3
66101.7,40736.6
66167.3,40716.7
66227.7,40684.4
66280.7,40640.9
66324.2,40587.9
66356.5,40527.5
66376.4,40461.9
66383.1,40393.7
66383.1,39945.6
66461,39867.6
66472.4,39858.3
66509.8,39812.7
66537.6,39760.7
66554.7,39704.3
66559.1,39660.4
66559.1,39660.4
66560.5,39645.7
66559.1,39631
66559.1,38996.3
66560.5,38981.6
66559.1,38966.9
66559.1,38966.9
66554.7,38923
66537.6,38866.6
66522.9,38839
66509.8,38814.6
66481.8,38780.4
66472.4,38769
66461,38759.6
66254.6,38553.2
66285.7,38515.4
66340,38413.8
66373.4,38303.6
66384.7,38189
66373.4,38074.4
66340,37964.2
66285.7,37862.6
66212.7,37773.6
66123.6,37700.5
66116.8,37696.9
66123.6,37693.2
66212.7,37620.1
66285.7,37531.1
66340,37429.5
66373.4,37319.3
66384.7,37204.7
66373.4,37090.1
66340,36979.9
66285.7,36878.3
66212.7,36789.3
66123.6,36716.3
66022.1,36662
65911.9,36628.5
65826,36620.1
65670.1,36620.1
65584.2,36628.5
65474,36662
65372.4,36716.3
65283.4,36789.3
65210.4,36878.3
65156.1,36979.9
65122.6,37090.1
65111.3,37204.7
65122.6,37319.3
65156.1,37429.5
65210.4,37531.1
65283.4,37620.1
65372.4,37693.2
65379.3,37696.9
65372.4,37700.5
65283.4,37773.6
65210.4,37862.6
65156.1,37964.2
65122.6,38074.4
65111.3,38189
65122.6,38303.6
65143.4,38372
47203.4,38372
47231.5,38304.4
47253.9,38191.4
47253.9,38076.3
47232.9,37970.5
54636.9,37970.5
54651.6,37971.9
54666.3,37970.5
54666.3,37970.5
54710.2,37966.1
54766.6,37949
54818.6,37921.2
54864.2,37883.9
54873.5,37872.4
56145.2,36600.8
56221.3,36608.3
56377.1,36608.3
56463,36599.8
56573.2,36566.4
56674.8,36512.1
56763.8,36439
56836.9,36350
56891.2,36248.4
56924.6,36138.2
56935.9,36023.6
56924.6,35909
56891.2,35798.8
56836.9,35697.2
56763.8,35608.2
56674.8,35535.2
56668,35531.5
56674.8,35527.8
56763.8,35454.8
56836.9,35365.8
56891.2,35264.2
56924.6,35154
56935.9,35039.4
56924.6,34924.8
56891.2,34814.6
56836.9,34713
56763.8,34624
56674.8,34550.9
56668,34547.2
56674.8,34543.6
56763.8,34470.5
56836.9,34381.5
56891.2,34279.9
56924.6,34169.7
56935.9,34055.1
56924.6,33940.5
56891.2,33830.3
56836.9,33728.7
56763.8,33639.7
56738.8,33619.2
56778.9,33597.8
56831.9,33554.3
56875.4,33501.3
56907.7,33440.9
56927.6,33375.3
56934.3,33307.1
56934.3,32834.6
56927.6,32766.4
56907.7,32700.8
56875.4,32640.4
56831.9,32587.4
56778.9,32543.9
56718.4,32511.6
56652.9,32491.7
56584.6,32485
56013.8,32485
55945.6,32491.7
55880,32511.6
55819.5,32543.9
55766.6,32587.4
55723.1,32640.4
55690.8,32700.8
55670.9,32766.4
55664.1,32834.6
55664.1,33282.8
53574.9,35372
47203.4,35372
47231.5,35304.4
47253.9,35191.4
47253.9,35076.3
47232.9,34970.5
52125.1,34970.5
52139.8,34971.9
52154.5,34970.5
52154.5,34970.5
52198.4,34966.1
52254.8,34949
52306.8,34921.2
52352.4,34883.9
52361.7,34872.4
56145.2,31089
56221.3,31096.5
56377.1,31096.5
56463,31088
56573.2,31054.6
56674.8,31000.3
56763.8,30927.2
56836.9,30838.2
56891.2,30736.6
56924.6,30626.4
56935.9,30511.8
56924.6,30397.2
56891.2,30287
56836.9,30185.4
56763.8,30096.4
56674.8,30023.3
56668,30019.7
56674.8,30016
56763.8,29943
56836.9,29853.9
56891.2,29752.4
56924.6,29642.2
56935.9,29527.6
56924.6,29412.9
56891.2,29302.7
56836.9,29201.2
56763.8,29112.2
56674.8,29039.1
56668,29035.4
56674.8,29031.8
56763.8,28958.7
56836.9,28869.7
56891.2,28768.1
56924.6,28657.9
56935.9,28543.3
56924.6,28428.7
56891.2,28318.5
56836.9,28216.9
56763.8,28127.9
56738.8,28107.4
56778.9,28086
56831.9,28042.5
56875.4,27989.5
56907.7,27929.1
56927.6,27863.5
56934.3,27795.3
56934.3,27322.8
56927.6,27254.6
56907.7,27189
56875.4,27128.6
56831.9,27075.6
56778.9,27032.1
56718.4,26999.8
56652.9,26979.9
56584.6,26973.2
56013.8,26973.2
55945.6,26979.9
55880,26999.8
55819.5,27032.1
55766.6,27075.6
55723.1,27128.6
55690.8,27189
55670.9,27254.6
55664.1,27322.8
55664.1,27771
50600.5,32834.6
47172.5,32834.6
47123.4,32761.2
47042,32679.7
46973.3,32633.9
47042,32588
47123.4,32506.5
47172.5,32433.1
49150.7,32433.1
49165.4,32434.5
49180,32433.1
49180.1,32433.1
49224,32428.7
49280.4,32411.6
49332.4,32383.8
49378,32346.5
49387.3,32335
56145.2,25577.2
56221.3,25584.6
56377.1,25584.6
56463,25576.2
56573.2,25542.8
56674.8,25488.5
56763.8,25415.4
56836.9,25326.4
56891.2,25224.8
56924.6,25114.6
56935.9,25000
56924.6,24885.4
56891.2,24775.2
56836.9,24673.6
56763.8,24584.6
56674.8,24511.5
56668,24507.9
56674.8,24504.2
56763.8,24431.2
56836.9,24342.1
56891.2,24240.6
56924.6,24130.4
56935.9,24015.7
56924.6,23901.1
56891.2,23790.9
56836.9,23689.4
56763.8,23600.3
56674.8,23527.3
56668,23523.6
56674.8,23520
56763.8,23446.9
56836.9,23357.9
56891.2,23256.3
56924.6,23146.1
56935.9,23031.5
56924.6,22916.9
56891.2,22806.7
56836.9,22705.1
56763.8,22616.1
56738.8,22595.6
56778.9,22574.2
56831.9,22530.7
56875.4,22477.7
56907.7,22417.3
56927.6,22351.7
56934.3,22283.5
56934.3,21811
56927.6,21742.8
56907.7,21677.2
56875.4,21616.8
56831.9,21563.8
56778.9,21520.3
56718.4,21488
56652.9,21468.1
56584.6,21461.4
56013.8,21461.4
55945.6,21468.1
55880,21488
55819.5,21520.3
55766.6,21563.8
55723.1,21616.8
55690.8,21677.2
55670.9,21742.8
55664.1,21811
55664.1,22259.2
48626.1,29297.2
47232.9,29297.2
47253.9,29191.4
47253.9,29076.3
47231.5,28963.3
47187.4,28856.9
47123.4,28761.2
47042,28679.7
46946.2,28615.8
46839.8,28571.7
46726.9,28549.2
46611.7,28549.2
46498.8,28571.7
46392.4,28615.8
46296.6,28679.7
46222.9,28753.4
46196.2,28703.4
46152.7,28650.4
46099.8,28606.9
46039.3,28574.6
45973.7,28554.7
45905.5,28548
45433.1,28548
45364.9,28554.7
45299.3,28574.6
45238.8,28606.9
45185.8,28650.4
45142.4,28703.4
45110.1,28763.8
45090.2,28829.4
45083.4,28897.6
40601.2,28897.6
40601.2,21700.9
40660.7,21740.7
40921.1,21848.5
41197.6,21903.5
41479.5,21903.5
41756,21848.5
42016.5,21740.7
42250.9,21584.1
42450.2,21384.7
42606.8,21150.3
42714.7,20889.9
42769.7,20613.4
42769.7,20331.5
42714.7,20055
42606.8,19794.6
42567,19735
76330.6,19735
Z" /> 
<path style="fill:#000000; fill-opacity:1.0; 
stroke:#000000; stroke-width:100; stroke-opacity:1; 
stroke-linecap:round; stroke-linejoin:round;fill-rule:evenodd;"
d="M 55694.2,54148.9
55673.8,54216.1
55669.3,54261.9
49340.1,47932.7
49330.7,47921.3
49285.1,47883.9
49233.2,47856.1
49176.8,47839
49132.8,47834.6
49132.8,47834.6
49118.1,47833.2
49103.4,47834.6
47172.5,47834.6
47123.4,47761.2
47042,47679.7
46973.3,47633.9
47042,47588
47123.4,47506.5
47172.5,47433.1
48978.4,47433.1
Z" /> 
<path style="fill:#000000; fill-opacity:1.0; 
stroke:#000000; stroke-width:100; stroke-opacity:1; 
stroke-linecap:round; stroke-linejoin:round;fill-rule:evenodd;"
d="M 55694.2,53164.6
55673.8,53231.8
55669.3,53277.6
49362.1,46970.5
49500.1,46970.5
Z" /> 
<path style="fill:#000000; fill-opacity:1.0; 
stroke:#000000; stroke-width:100; stroke-opacity:1; 
stroke-linecap:round; stroke-linejoin:round;fill-rule:evenodd;"
d="M 55664.1,52150.3
55664.1,52288.2
49846,46470.1
49836.6,46458.7
49805.4,46433.1
49946.9,46433.1
Z" /> 
<path style="fill:#000000; fill-opacity:1.0; 
stroke:#000000; stroke-width:100; stroke-opacity:1; 
stroke-linecap:round; stroke-linejoin:round;fill-rule:evenodd;"
d="M 55694.2,48637
55673.8,48704.3
55669.3,48750.1
52387.3,45468.1
52378,45456.7
52332.4,45419.3
52280.4,45391.5
52224,45374.4
52180.1,45370.1
52180,45370.1
52165.4,45368.6
52150.7,45370.1
47204.3,45370.1
47231.5,45304.4
47253.9,45191.4
47253.9,45076.3
47232.9,44970.5
52027.6,44970.5
Z" /> 
<path style="fill:#000000; fill-opacity:1.0; 
stroke:#000000; stroke-width:100; stroke-opacity:1; 
stroke-linecap:round; stroke-linejoin:round;fill-rule:evenodd;"
d="M 46215.2,47506.5
46296.6,47588
46365.3,47633.9
46296.6,47679.7
46215.2,47761.2
46169.3,47829.8
46123.4,47761.2
46042,47679.7
45973.3,47633.9
46042,47588
46123.4,47506.5
46169.3,47437.9
Z" /> 
<path style="fill:#000000; fill-opacity:1.0; 
stroke:#000000; stroke-width:100; stroke-opacity:1; 
stroke-linecap:round; stroke-linejoin:round;fill-rule:evenodd;"
d="M 55694.2,47652.8
55673.8,47720
55669.3,47765.8
52373.5,44470.1
52364.2,44458.7
52333,44433.1
52474.5,44433.1
Z" /> 
<path style="fill:#000000; fill-opacity:1.0; 
stroke:#000000; stroke-width:100; stroke-opacity:1; 
stroke-linecap:round; stroke-linejoin:round;fill-rule:evenodd;"
d="M 55664.1,46638.5
55664.1,46776.4
52858.2,43970.5
52996.1,43970.5
Z" /> 
<path style="fill:#000000; fill-opacity:1.0; 
stroke:#000000; stroke-width:100; stroke-opacity:1; 
stroke-linecap:round; stroke-linejoin:round;fill-rule:evenodd;"
d="M 55694.2,43125.2
55673.8,43192.5
55669.3,43238.3
54901.1,42470.1
54891.7,42458.7
54846.2,42421.3
54794.2,42393.5
54737.8,42376.4
54693.8,42372
54693.8,42372
54679.1,42370.6
54664.4,42372
47203.4,42372
47231.5,42304.4
47253.9,42191.4
47253.9,42076.3
47231.5,41963.3
47187.4,41856.9
47123.4,41761.2
47042,41679.7
46973.3,41633.9
47042,41588
47123.4,41506.5
47172.5,41433.1
54002,41433.1
Z" /> 
<path style="fill:#000000; fill-opacity:1.0; 
stroke:#000000; stroke-width:100; stroke-opacity:1; 
stroke-linecap:round; stroke-linejoin:round;fill-rule:evenodd;"
d="M 55694.2,42141
55673.8,42208.2
55669.3,42254
54348,40932.7
54338.6,40921.3
54293,40883.9
54241,40856.1
54184.6,40839
54140.7,40834.6
54140.7,40834.6
54126,40833.2
54111.3,40834.6
47172.5,40834.6
47123.4,40761.2
47042,40679.7
46973.3,40633.9
47042,40588
47123.4,40506.5
47172.5,40433.1
53986.3,40433.1
Z" /> 
<path style="fill:#000000; fill-opacity:1.0; 
stroke:#000000; stroke-width:100; stroke-opacity:1; 
stroke-linecap:round; stroke-linejoin:round;fill-rule:evenodd;"
d="M 46215.2,41506.5
46296.6,41588
46365.3,41633.9
46296.6,41679.7
46215.2,41761.2
46169.3,41829.8
46123.4,41761.2
46042,41679.7
45973.3,41633.9
46042,41588
46123.4,41506.5
46169.3,41437.9
Z" /> 
<path style="fill:#000000; fill-opacity:1.0; 
stroke:#000000; stroke-width:100; stroke-opacity:1; 
stroke-linecap:round; stroke-linejoin:round;fill-rule:evenodd;"
d="M 55664.1,41126.7
55664.1,41264.6
54370,39970.5
54508,39970.5
Z" /> 
<path style="fill:#000000; fill-opacity:1.0; 
stroke:#000000; stroke-width:100; stroke-opacity:1; 
stroke-linecap:round; stroke-linejoin:round;fill-rule:evenodd;"
d="M 46215.2,40506.5
46296.6,40588
46365.3,40633.9
46296.6,40679.7
46215.2,40761.2
46169.3,40829.8
46123.4,40761.2
46042,40679.7
45973.3,40633.9
46042,40588
46123.4,40506.5
46169.3,40437.9
Z" /> 
<path style="fill:#000000; fill-opacity:1.0; 
stroke:#000000; stroke-width:100; stroke-opacity:1; 
stroke-linecap:round; stroke-linejoin:round;fill-rule:evenodd;"
d="M 55673.8,36138.2
55694.2,36205.5
54527.6,37372
54386.1,37372
54417.3,37346.5
54426.7,37335
55669.3,36092.4
Z" /> 
<path style="fill:#000000; fill-opacity:1.0; 
stroke:#000000; stroke-width:100; stroke-opacity:1; 
stroke-linecap:round; stroke-linejoin:round;fill-rule:evenodd;"
d="M 55673.8,35154
55694.2,35221.2
54080.8,36834.6
47172.5,36834.6
47123.4,36761.2
47042,36679.7
46973.3,36633.9
47042,36588
47123.4,36506.5
47172.5,36433.1
54205.8,36433.1
54220.5,36434.5
54235.2,36433.1
54235.2,36433.1
54279.1,36428.7
54335.5,36411.6
54387.5,36383.8
54433.1,36346.5
54442.4,36335
55669.3,35108.2
Z" /> 
<path style="fill:#000000; fill-opacity:1.0; 
stroke:#000000; stroke-width:100; stroke-opacity:1; 
stroke-linecap:round; stroke-linejoin:round;fill-rule:evenodd;"
d="M 46215.2,36506.5
46296.6,36588
46365.3,36633.9
46296.6,36679.7
46215.2,36761.2
46169.3,36829.8
46123.4,36761.2
46042,36679.7
45973.3,36633.9
46042,36588
46123.4,36506.5
46169.3,36437.9
Z" /> 
<path style="fill:#000000; fill-opacity:1.0; 
stroke:#000000; stroke-width:100; stroke-opacity:1; 
stroke-linecap:round; stroke-linejoin:round;fill-rule:evenodd;"
d="M 55673.8,34169.7
55694.2,34237
54096.5,35834.6
53958.6,35834.6
55669.3,34123.9
Z" /> 
<path style="fill:#000000; fill-opacity:1.0; 
stroke:#000000; stroke-width:100; stroke-opacity:1; 
stroke-linecap:round; stroke-linejoin:round;fill-rule:evenodd;"
d="M 55673.8,30626.4
55694.2,30693.7
52015.8,34372
51874.3,34372
51905.5,34346.5
51914.9,34335
55669.3,30580.6
Z" /> 
<path style="fill:#000000; fill-opacity:1.0; 
stroke:#000000; stroke-width:100; stroke-opacity:1; 
stroke-linecap:round; stroke-linejoin:round;fill-rule:evenodd;"
d="M 55673.8,29642.2
55694.2,29709.4
51569,33834.6
51431,33834.6
55669.3,29596.4
Z" /> 
<path style="fill:#000000; fill-opacity:1.0; 
stroke:#000000; stroke-width:100; stroke-opacity:1; 
stroke-linecap:round; stroke-linejoin:round;fill-rule:evenodd;"
d="M 55673.8,28657.9
55694.2,28725.2
51047.3,33372
50905.8,33372
50937,33346.5
50946.4,33335
55669.3,28612.1
Z" /> 
<path style="fill:#000000; fill-opacity:1.0; 
stroke:#000000; stroke-width:100; stroke-opacity:1; 
stroke-linecap:round; stroke-linejoin:round;fill-rule:evenodd;"
d="M 46215.2,32506.5
46296.6,32588
46365.3,32633.9
46296.6,32679.7
46215.2,32761.2
46169.3,32829.8
46123.4,32761.2
46042,32679.7
45973.3,32633.9
46042,32588
46123.4,32506.5
46169.3,32437.9
Z" /> 
<path style="fill:#000000; fill-opacity:1.0; 
stroke:#000000; stroke-width:100; stroke-opacity:1; 
stroke-linecap:round; stroke-linejoin:round;fill-rule:evenodd;"
d="M 55673.8,25114.6
55694.2,25181.9
49041.4,31834.6
48903.5,31834.6
55669.3,25068.8
Z" /> 
<path style="fill:#000000; fill-opacity:1.0; 
stroke:#000000; stroke-width:100; stroke-opacity:1; 
stroke-linecap:round; stroke-linejoin:round;fill-rule:evenodd;"
d="M 55673.8,24130.4
55694.2,24197.6
48519.8,31372
47203.4,31372
47231.5,31304.4
47253.9,31191.4
47253.9,31076.3
47232.9,30970.5
48644.8,30970.5
48659.4,30971.9
48674.1,30970.5
48674.1,30970.5
48718.1,30966.1
48774.5,30949
48826.5,30921.2
48872,30883.9
48881.4,30872.4
55669.3,24084.6
Z" /> 
<path style="fill:#000000; fill-opacity:1.0; 
stroke:#000000; stroke-width:100; stroke-opacity:1; 
stroke-linecap:round; stroke-linejoin:round;fill-rule:evenodd;"
d="M 55673.8,23146.1
55694.2,23213.3
48535.5,30372
47203.4,30372
47231.5,30304.4
47253.9,30191.4
47253.9,30076.3
47231.5,29963.3
47203.4,29895.7
48735.3,29895.7
48750,29897.1
48764.7,29895.7
48764.7,29895.7
48808.7,29891.3
48865.1,29874.2
48917,29846.4
48962.6,29809.1
48972,29797.6
55669.3,23100.3
Z" /> 
</g>
</g>
</g> 
</svg>
