<?xml version="1.0" standalone="no"?>
 <!DOCTYPE svg PUBLIC "-//W3C//DTD SVG 1.1//EN" 
 "http://www.w3.org/Graphics/SVG/1.1/DTD/svg11.dtd"> 
<svg
  xmlns:svg="http://www.w3.org/2000/svg"
  xmlns="http://www.w3.org/2000/svg"
  xmlns:xlink="http://www.w3.org/1999/xlink"
  version="1.1"
  width="29.700220cm" height="21.000720cm" viewBox="0 0 116930 82680">
<title>SVG Picture created as rpi-arcade-hat-F_SilkS.svg date 2021/09/26 12:15:20 </title>
  <desc>Picture generated by PCBNEW </desc>
<g style="fill:#000000; fill-opacity:1;stroke:#000000; stroke-opacity:1;
stroke-linecap:round; stroke-linejoin:round;"
 transform="translate(0 0) scale(1 1)">
</g>
<g style="fill:#000000; fill-opacity:0.0; 
stroke:#000000; stroke-width:-0.000393701; stroke-opacity:1; 
stroke-linecap:round; stroke-linejoin:round;">
</g>
<g style="fill:#000000; fill-opacity:0.0; 
stroke:#000000; stroke-width:59.0551; stroke-opacity:1; 
stroke-linecap:round; stroke-linejoin:round;">
<text x="58000" y="49196.9"
textLength="5344.86" font-size="524.934" lengthAdjust="spacingAndGlyphs"
text-anchor="middle" opacity="0">Player 2 Controls</text>
<path d="M55459 49178
L55459 48784
L55609 48784
L55647 48803
L55665 48821
L55684 48859
L55684 48915
L55665 48953
L55647 48971
L55609 48990
L55459 48990
" />
<path d="M55909 49178
L55872 49159
L55853 49121
L55853 48784
" />
<path d="M56228 49178
L56228 48971
L56209 48934
L56172 48915
L56097 48915
L56059 48934
" />
<path d="M56228 49159
L56190 49178
L56097 49178
L56059 49159
L56040 49121
L56040 49084
L56059 49046
L56097 49028
L56190 49028
L56228 49009
" />
<path d="M56378 48915
L56472 49178
" />
<path d="M56565 48915
L56472 49178
L56434 49271
L56415 49290
L56378 49309
" />
<path d="M56865 49159
L56828 49178
L56753 49178
L56715 49159
L56697 49121
L56697 48971
L56715 48934
L56753 48915
L56828 48915
L56865 48934
L56884 48971
L56884 49009
L56697 49046
" />
<path d="M57053 49178
L57053 48915
" />
<path d="M57053 48990
L57071 48953
L57090 48934
L57128 48915
L57165 48915
" />
<path d="M57578 48821
L57596 48803
L57634 48784
L57728 48784
L57765 48803
L57784 48821
L57803 48859
L57803 48896
L57784 48953
L57559 49178
L57803 49178
" />
<path d="M58496 49140
L58478 49159
L58421 49178
L58384 49178
L58328 49159
L58290 49121
L58271 49084
L58253 49009
L58253 48953
L58271 48878
L58290 48840
L58328 48803
L58384 48784
L58421 48784
L58478 48803
L58496 48821
" />
<path d="M58721 49178
L58684 49159
L58665 49140
L58646 49103
L58646 48990
L58665 48953
L58684 48934
L58721 48915
L58778 48915
L58815 48934
L58834 48953
L58853 48990
L58853 49103
L58834 49140
L58815 49159
L58778 49178
L58721 49178
" />
<path d="M59021 48915
L59021 49178
" />
<path d="M59021 48953
L59040 48934
L59077 48915
L59134 48915
L59171 48934
L59190 48971
L59190 49178
" />
<path d="M59321 48915
L59471 48915
" />
<path d="M59377 48784
L59377 49121
L59396 49159
L59434 49178
L59471 49178
" />
<path d="M59602 49178
L59602 48915
" />
<path d="M59602 48990
L59621 48953
L59640 48934
L59677 48915
L59715 48915
" />
<path d="M59902 49178
L59865 49159
L59846 49140
L59827 49103
L59827 48990
L59846 48953
L59865 48934
L59902 48915
L59959 48915
L59996 48934
L60015 48953
L60034 48990
L60034 49103
L60015 49140
L59996 49159
L59959 49178
L59902 49178
" />
<path d="M60259 49178
L60221 49159
L60202 49121
L60202 48784
" />
<path d="M60390 49159
L60427 49178
L60502 49178
L60540 49159
L60559 49121
L60559 49103
L60540 49065
L60502 49046
L60446 49046
L60409 49028
L60390 48990
L60390 48971
L60409 48934
L60446 48915
L60502 48915
L60540 48934
" />
<text x="58000" y="25196.9"
textLength="5344.86" font-size="524.934" lengthAdjust="spacingAndGlyphs"
text-anchor="middle" opacity="0">Player 1 Controls</text>
<path d="M55459 25178
L55459 24784
L55609 24784
L55647 24803
L55665 24821
L55684 24859
L55684 24915
L55665 24953
L55647 24971
L55609 24990
L55459 24990
" />
<path d="M55909 25178
L55872 25159
L55853 25121
L55853 24784
" />
<path d="M56228 25178
L56228 24971
L56209 24934
L56172 24915
L56097 24915
L56059 24934
" />
<path d="M56228 25159
L56190 25178
L56097 25178
L56059 25159
L56040 25121
L56040 25084
L56059 25046
L56097 25028
L56190 25028
L56228 25009
" />
<path d="M56378 24915
L56472 25178
" />
<path d="M56565 24915
L56472 25178
L56434 25271
L56415 25290
L56378 25309
" />
<path d="M56865 25159
L56828 25178
L56753 25178
L56715 25159
L56697 25121
L56697 24971
L56715 24934
L56753 24915
L56828 24915
L56865 24934
L56884 24971
L56884 25009
L56697 25046
" />
<path d="M57053 25178
L57053 24915
" />
<path d="M57053 24990
L57071 24953
L57090 24934
L57128 24915
L57165 24915
" />
<path d="M57803 25178
L57578 25178
" />
<path d="M57690 25178
L57690 24784
L57653 24840
L57615 24878
L57578 24896
" />
<path d="M58496 25140
L58478 25159
L58421 25178
L58384 25178
L58328 25159
L58290 25121
L58271 25084
L58253 25009
L58253 24953
L58271 24878
L58290 24840
L58328 24803
L58384 24784
L58421 24784
L58478 24803
L58496 24821
" />
<path d="M58721 25178
L58684 25159
L58665 25140
L58646 25103
L58646 24990
L58665 24953
L58684 24934
L58721 24915
L58778 24915
L58815 24934
L58834 24953
L58853 24990
L58853 25103
L58834 25140
L58815 25159
L58778 25178
L58721 25178
" />
<path d="M59021 24915
L59021 25178
" />
<path d="M59021 24953
L59040 24934
L59077 24915
L59134 24915
L59171 24934
L59190 24971
L59190 25178
" />
<path d="M59321 24915
L59471 24915
" />
<path d="M59377 24784
L59377 25121
L59396 25159
L59434 25178
L59471 25178
" />
<path d="M59602 25178
L59602 24915
" />
<path d="M59602 24990
L59621 24953
L59640 24934
L59677 24915
L59715 24915
" />
<path d="M59902 25178
L59865 25159
L59846 25140
L59827 25103
L59827 24990
L59846 24953
L59865 24934
L59902 24915
L59959 24915
L59996 24934
L60015 24953
L60034 24990
L60034 25103
L60015 25140
L59996 25159
L59959 25178
L59902 25178
" />
<path d="M60259 25178
L60221 25159
L60202 25121
L60202 24784
" />
<path d="M60390 25159
L60427 25178
L60502 25178
L60540 25159
L60559 25121
L60559 25103
L60540 25065
L60502 25046
L60446 25046
L60409 25028
L60390 24990
L60390 24971
L60409 24934
L60446 24915
L60502 24915
L60540 24934
" />
</g>
<g style="fill:#000000; fill-opacity:0.0; 
stroke:#000000; stroke-width:47.2441; stroke-opacity:1; 
stroke-linecap:round; stroke-linejoin:round;">
<path d="M55000 25500
L61000 25500
" />
<path d="M61000 25500
L61000 36500
" />
<path d="M55000 36500
L55000 25500
" />
<path d="M55000 36500
L61000 36500
" />
<path d="M55000 48500
L55000 37500
" />
<path d="M61000 48500
L55000 48500
" />
<path d="M61000 37500
L61000 48500
" />
<path d="M55000 37500
L61000 37500
" />
<path d="M62031 40007
L64381 40007
" />
<path d="M64381 40007
L64381 35039
" />
<path d="M64381 35039
L62031 35039
" />
<path d="M62031 35039
L62031 40007
" />
<path d="M62035 38704
L62330 38704
" />
<path d="M62330 38704
L62330 36342
" />
<path d="M62330 36342
L62035 36342
" />
<path d="M62035 36342
L62035 38704
" />
<path d="M62035 40003
L62330 40003
" />
<path d="M62330 40003
L62330 39295
" />
<path d="M62330 39295
L62035 39295
" />
<path d="M62035 39295
L62035 40003
" />
<path d="M62035 35751
L62330 35751
" />
<path d="M62330 35751
L62330 35043
" />
<path d="M62330 35043
L62035 35043
" />
<path d="M62035 35043
L62035 35751
" />
<path d="M62921 40003
L62921 39708
" />
<path d="M62921 39708
L64082 39708
" />
<path d="M64082 39708
L64082 37523
" />
<path d="M62921 35043
L62921 35338
" />
<path d="M62921 35338
L64082 35338
" />
<path d="M64082 35338
L64082 37523
" />
<path d="M61917 39629
L61917 40122
" />
<path d="M61917 40122
L62409 40122
" />
<path d="M50704 25948
L54295 25948
" />
<path d="M54295 25948
L54295 49051
" />
<path d="M54295 49051
L50704 49051
" />
<path d="M50704 49051
L50704 25948
" />
<path d="M50704 36692
L51220 36692
" />
<path d="M51220 36692
L51220 26460
" />
<path d="M51220 26460
L53779 26460
" />
<path d="M53779 26460
L53779 48539
" />
<path d="M53779 48539
L51220 48539
" />
<path d="M51220 48539
L51220 38307
" />
</g>
<g style="fill:#000000; fill-opacity:1.0; 
stroke:#000000; stroke-width:0; stroke-opacity:1; 
stroke-linecap:round; stroke-linejoin:round;">
<circle cx="51220.5" cy="38307.1" r="23.622" /> 
</g>
<g style="fill:#000000; fill-opacity:1.0; 
stroke:#000000; stroke-width:47.2441; stroke-opacity:1; 
stroke-linecap:round; stroke-linejoin:round;">
</g>
<g style="fill:#000000; fill-opacity:0.0; 
stroke:#000000; stroke-width:47.2441; stroke-opacity:1; 
stroke-linecap:round; stroke-linejoin:round;">
<path d="M51220 38307
L50704 38307
" />
<path d="M50551 28000
L50157 27803
" />
<path d="M50157 27803
L50157 28196
" />
<path d="M50157 28196
L50551 28000
" />
<path d="M55492 33531
L55492 35881
" />
<path d="M55492 35881
L60460 35881
" />
<path d="M60460 35881
L60460 33531
" />
<path d="M60460 33531
L55492 33531
" />
<path d="M56795 33535
L56795 33830
" />
<path d="M56795 33830
L59157 33830
" />
<path d="M59157 33830
L59157 33535
" />
<path d="M59157 33535
L56795 33535
" />
<path d="M55496 33535
L55496 33830
" />
<path d="M55496 33830
L56204 33830
" />
<path d="M56204 33830
L56204 33535
" />
<path d="M56204 33535
L55496 33535
" />
<path d="M59748 33535
L59748 33830
" />
<path d="M59748 33830
L60456 33830
" />
<path d="M60456 33830
L60456 33535
" />
<path d="M60456 33535
L59748 33535
" />
<path d="M55496 34421
L55791 34421
" />
<path d="M55791 34421
L55791 35582
" />
<path d="M55791 35582
L57976 35582
" />
<path d="M60456 34421
L60161 34421
" />
<path d="M60161 34421
L60161 35582
" />
<path d="M60161 35582
L57976 35582
" />
<path d="M55870 33417
L55377 33417
" />
<path d="M55377 33417
L55377 33909
" />
<path d="M55492 30031
L55492 32381
" />
<path d="M55492 32381
L60460 32381
" />
<path d="M60460 32381
L60460 30031
" />
<path d="M60460 30031
L55492 30031
" />
<path d="M56795 30035
L56795 30330
" />
<path d="M56795 30330
L59157 30330
" />
<path d="M59157 30330
L59157 30035
" />
<path d="M59157 30035
L56795 30035
" />
<path d="M55496 30035
L55496 30330
" />
<path d="M55496 30330
L56204 30330
" />
<path d="M56204 30330
L56204 30035
" />
<path d="M56204 30035
L55496 30035
" />
<path d="M59748 30035
L59748 30330
" />
<path d="M59748 30330
L60456 30330
" />
<path d="M60456 30330
L60456 30035
" />
<path d="M60456 30035
L59748 30035
" />
<path d="M55496 30921
L55791 30921
" />
<path d="M55791 30921
L55791 32082
" />
<path d="M55791 32082
L57976 32082
" />
<path d="M60456 30921
L60161 30921
" />
<path d="M60161 30921
L60161 32082
" />
<path d="M60161 32082
L57976 32082
" />
<path d="M55870 29917
L55377 29917
" />
<path d="M55377 29917
L55377 30409
" />
<path d="M55492 26531
L55492 28881
" />
<path d="M55492 28881
L60460 28881
" />
<path d="M60460 28881
L60460 26531
" />
<path d="M60460 26531
L55492 26531
" />
<path d="M56795 26535
L56795 26830
" />
<path d="M56795 26830
L59157 26830
" />
<path d="M59157 26830
L59157 26535
" />
<path d="M59157 26535
L56795 26535
" />
<path d="M55496 26535
L55496 26830
" />
<path d="M55496 26830
L56204 26830
" />
<path d="M56204 26830
L56204 26535
" />
<path d="M56204 26535
L55496 26535
" />
<path d="M59748 26535
L59748 26830
" />
<path d="M59748 26830
L60456 26830
" />
<path d="M60456 26830
L60456 26535
" />
<path d="M60456 26535
L59748 26535
" />
<path d="M55496 27421
L55791 27421
" />
<path d="M55791 27421
L55791 28582
" />
<path d="M55791 28582
L57976 28582
" />
<path d="M60456 27421
L60161 27421
" />
<path d="M60161 27421
L60161 28582
" />
<path d="M60161 28582
L57976 28582
" />
<path d="M55870 26417
L55377 26417
" />
<path d="M55377 26417
L55377 26909
" />
<path d="M55492 45531
L55492 47881
" />
<path d="M55492 47881
L60460 47881
" />
<path d="M60460 47881
L60460 45531
" />
<path d="M60460 45531
L55492 45531
" />
<path d="M56795 45535
L56795 45830
" />
<path d="M56795 45830
L59157 45830
" />
<path d="M59157 45830
L59157 45535
" />
<path d="M59157 45535
L56795 45535
" />
<path d="M55496 45535
L55496 45830
" />
<path d="M55496 45830
L56204 45830
" />
<path d="M56204 45830
L56204 45535
" />
<path d="M56204 45535
L55496 45535
" />
<path d="M59748 45535
L59748 45830
" />
<path d="M59748 45830
L60456 45830
" />
<path d="M60456 45830
L60456 45535
" />
<path d="M60456 45535
L59748 45535
" />
<path d="M55496 46421
L55791 46421
" />
<path d="M55791 46421
L55791 47582
" />
<path d="M55791 47582
L57976 47582
" />
<path d="M60456 46421
L60161 46421
" />
<path d="M60161 46421
L60161 47582
" />
<path d="M60161 47582
L57976 47582
" />
<path d="M55870 45417
L55377 45417
" />
<path d="M55377 45417
L55377 45909
" />
<path d="M55492 42031
L55492 44381
" />
<path d="M55492 44381
L60460 44381
" />
<path d="M60460 44381
L60460 42031
" />
<path d="M60460 42031
L55492 42031
" />
<path d="M56795 42035
L56795 42330
" />
<path d="M56795 42330
L59157 42330
" />
<path d="M59157 42330
L59157 42035
" />
<path d="M59157 42035
L56795 42035
" />
<path d="M55496 42035
L55496 42330
" />
<path d="M55496 42330
L56204 42330
" />
<path d="M56204 42330
L56204 42035
" />
<path d="M56204 42035
L55496 42035
" />
<path d="M59748 42035
L59748 42330
" />
<path d="M59748 42330
L60456 42330
" />
<path d="M60456 42330
L60456 42035
" />
<path d="M60456 42035
L59748 42035
" />
<path d="M55496 42921
L55791 42921
" />
<path d="M55791 42921
L55791 44082
" />
<path d="M55791 44082
L57976 44082
" />
<path d="M60456 42921
L60161 42921
" />
<path d="M60161 42921
L60161 44082
" />
<path d="M60161 44082
L57976 44082
" />
<path d="M55870 41917
L55377 41917
" />
<path d="M55377 41917
L55377 42409
" />
<path d="M55492 38531
L55492 40881
" />
<path d="M55492 40881
L60460 40881
" />
<path d="M60460 40881
L60460 38531
" />
<path d="M60460 38531
L55492 38531
" />
<path d="M56795 38535
L56795 38830
" />
<path d="M56795 38830
L59157 38830
" />
<path d="M59157 38830
L59157 38535
" />
<path d="M59157 38535
L56795 38535
" />
<path d="M55496 38535
L55496 38830
" />
<path d="M55496 38830
L56204 38830
" />
<path d="M56204 38830
L56204 38535
" />
<path d="M56204 38535
L55496 38535
" />
<path d="M59748 38535
L59748 38830
" />
<path d="M59748 38830
L60456 38830
" />
<path d="M60456 38830
L60456 38535
" />
<path d="M60456 38535
L59748 38535
" />
<path d="M55496 39421
L55791 39421
" />
<path d="M55791 39421
L55791 40582
" />
<path d="M55791 40582
L57976 40582
" />
<path d="M60456 39421
L60161 39421
" />
<path d="M60161 39421
L60161 40582
" />
<path d="M60161 40582
L57976 40582
" />
<path d="M55870 38417
L55377 38417
" />
<path d="M55377 38417
L55377 38909
" />
</g>
<g style="fill:#000000; fill-opacity:0.0; 
stroke:#000000; stroke-width:59.0551; stroke-opacity:1; 
stroke-linecap:round; stroke-linejoin:round;">
<g transform="rotate(-90 61500 35500)">
<text x="61500" y="35696.9"
textLength="751.687" font-size="524.934" lengthAdjust="spacingAndGlyphs"
text-anchor="middle" opacity="0">J8</text>
</g>
<path d="M61284 35631
L61565 35631
L61621 35649
L61659 35687
L61678 35743
L61678 35781
" />
<path d="M61453 35387
L61434 35425
L61415 35443
L61378 35462
L61359 35462
L61321 35443
L61303 35425
L61284 35387
L61284 35312
L61303 35275
L61321 35256
L61359 35237
L61378 35237
L61415 35256
L61434 35275
L61453 35312
L61453 35387
L61471 35425
L61490 35443
L61528 35462
L61603 35462
L61640 35443
L61659 35425
L61678 35387
L61678 35312
L61659 35275
L61640 35256
L61603 35237
L61528 35237
L61490 35256
L61471 35275
L61453 35312
" />
<text x="52500" y="25795.3"
textLength="751.687" font-size="524.934" lengthAdjust="spacingAndGlyphs"
text-anchor="middle" opacity="0">J1</text>
<path d="M52368 25382
L52368 25664
L52350 25720
L52312 25757
L52256 25776
L52218 25776
" />
<path d="M52762 25776
L52537 25776
" />
<path d="M52649 25776
L52649 25382
L52612 25439
L52574 25476
L52537 25495
" />
<text x="60000" y="33299.2"
textLength="751.687" font-size="524.934" lengthAdjust="spacingAndGlyphs"
text-anchor="middle" opacity="0">J7</text>
<path d="M59868 32886
L59868 33167
L59850 33224
L59812 33261
L59756 33280
L59718 33280
" />
<path d="M60018 32886
L60281 32886
L60112 33280
" />
<text x="60000" y="29799.2"
textLength="751.687" font-size="524.934" lengthAdjust="spacingAndGlyphs"
text-anchor="middle" opacity="0">J6</text>
<path d="M59868 29386
L59868 29667
L59850 29724
L59812 29761
L59756 29780
L59718 29780
" />
<path d="M60224 29386
L60149 29386
L60112 29405
L60093 29424
L60056 29480
L60037 29555
L60037 29705
L60056 29742
L60074 29761
L60112 29780
L60187 29780
L60224 29761
L60243 29742
L60262 29705
L60262 29611
L60243 29574
L60224 29555
L60187 29536
L60112 29536
L60074 29555
L60056 29574
L60037 29611
" />
<text x="60000" y="26299.2"
textLength="751.687" font-size="524.934" lengthAdjust="spacingAndGlyphs"
text-anchor="middle" opacity="0">J5</text>
<path d="M59868 25886
L59868 26167
L59850 26224
L59812 26261
L59756 26280
L59718 26280
" />
<path d="M60243 25886
L60056 25886
L60037 26074
L60056 26055
L60093 26036
L60187 26036
L60224 26055
L60243 26074
L60262 26111
L60262 26205
L60243 26242
L60224 26261
L60187 26280
L60093 26280
L60056 26261
L60037 26242
" />
<text x="60000" y="45299.2"
textLength="751.687" font-size="524.934" lengthAdjust="spacingAndGlyphs"
text-anchor="middle" opacity="0">J4</text>
<path d="M59868 44886
L59868 45167
L59850 45224
L59812 45261
L59756 45280
L59718 45280
" />
<path d="M60224 45017
L60224 45280
" />
<path d="M60131 44868
L60037 45149
L60281 45149
" />
<text x="60000" y="41799.2"
textLength="751.687" font-size="524.934" lengthAdjust="spacingAndGlyphs"
text-anchor="middle" opacity="0">J3</text>
<path d="M59868 41386
L59868 41667
L59850 41724
L59812 41761
L59756 41780
L59718 41780
" />
<path d="M60018 41386
L60262 41386
L60131 41536
L60187 41536
L60224 41555
L60243 41574
L60262 41611
L60262 41705
L60243 41742
L60224 41761
L60187 41780
L60074 41780
L60037 41761
L60018 41742
" />
<text x="60000" y="38299.2"
textLength="751.687" font-size="524.934" lengthAdjust="spacingAndGlyphs"
text-anchor="middle" opacity="0">J2</text>
<path d="M59868 37886
L59868 38167
L59850 38224
L59812 38261
L59756 38280
L59718 38280
" />
<path d="M60037 37924
L60056 37905
L60093 37886
L60187 37886
L60224 37905
L60243 37924
L60262 37961
L60262 37999
L60243 38055
L60018 38280
L60262 38280
" />
<g >
</g>
</g> 
</svg>
