<?xml version="1.0" standalone="no"?>
 <!DOCTYPE svg PUBLIC "-//W3C//DTD SVG 1.1//EN" 
 "http://www.w3.org/Graphics/SVG/1.1/DTD/svg11.dtd"> 
<svg
  xmlns:svg="http://www.w3.org/2000/svg"
  xmlns="http://www.w3.org/2000/svg"
  xmlns:xlink="http://www.w3.org/1999/xlink"
  version="1.1"
  width="29.700220cm" height="21.000720cm" viewBox="0 0 116930 82680">
<title>SVG Picture created as rpi-arcade-hat-B_Mask.svg date 2021/09/26 12:15:20 </title>
  <desc>Picture generated by PCBNEW </desc>
<g style="fill:#000000; fill-opacity:1;stroke:#000000; stroke-opacity:1;
stroke-linecap:round; stroke-linejoin:round;"
 transform="translate(0 0) scale(1 1)">
</g>
<g style="fill:#000000; fill-opacity:0.0; 
stroke:#000000; stroke-width:-0.000393701; stroke-opacity:1; 
stroke-linecap:round; stroke-linejoin:round;">
<g >
</g>
<g style="fill:#000000; fill-opacity:0.0; 
stroke:#000000; stroke-width:669.291; stroke-opacity:1; 
stroke-linecap:round; stroke-linejoin:round;">
<path d="M62950 36047
L63049 36047
" />
<path d="M62950 37031
L63049 37031
" />
<path d="M62950 38015
L63049 38015
" />
</g>
<g style="fill:#000000; fill-opacity:0.0; 
stroke:#000000; stroke-width:0; stroke-opacity:1; 
stroke-linecap:round; stroke-linejoin:round;">
</g>
<g style="fill:#000000; fill-opacity:1.0; 
stroke:#000000; stroke-width:0; stroke-opacity:1; 
stroke-linecap:round; stroke-linejoin:round;">
<path style="fill:#000000; fill-opacity:1.0; 
stroke:#000000; stroke-width:0; stroke-opacity:1; 
stroke-linecap:round; stroke-linejoin:round;fill-rule:evenodd;"
d="M 63295.1,38665.8
63304.6,38667.2
63314,38669.6
63323.1,38672.8
63331.8,38677
63340.1,38681.9
63347.9,38687.7
63355,38694.2
63361.5,38701.3
63367.3,38709.1
63372.2,38717.4
63376.4,38726.1
63379.6,38735.2
63382,38744.6
63383.4,38754.1
63383.9,38763.8
63383.9,39236.2
63383.4,39245.9
63382,39255.4
63379.6,39264.8
63376.4,39273.9
63372.2,39282.6
63367.3,39290.9
63361.5,39298.7
63355,39305.8
63347.9,39312.3
63340.1,39318.1
63331.8,39323
63323.1,39327.2
63314,39330.4
63304.6,39332.8
63295.1,39334.2
63285.4,39334.6
62714.6,39334.6
62704.9,39334.2
62695.4,39332.8
62686,39330.4
62676.9,39327.2
62668.2,39323
62659.9,39318.1
62652.1,39312.3
62645,39305.8
62638.5,39298.7
62632.7,39290.9
62627.8,39282.6
62623.6,39273.9
62620.4,39264.8
62618,39255.4
62616.6,39245.9
62616.1,39236.2
62616.1,38763.8
62616.6,38754.1
62618,38744.6
62620.4,38735.2
62623.6,38726.1
62627.8,38717.4
62632.7,38709.1
62638.5,38701.3
62645,38694.2
62652.1,38687.7
62659.9,38681.9
62668.2,38677
62676.9,38672.8
62686,38669.6
62695.4,38667.2
62704.9,38665.8
62714.6,38665.4
63285.4,38665.4
Z" /> 
</g>
<g >
</g>
<g style="fill:#000000; fill-opacity:1.0; 
stroke:#000000; stroke-width:0; stroke-opacity:1; 
stroke-linecap:round; stroke-linejoin:round;">
<circle cx="53000" cy="47000" r="334.646" /> 
</g>
<g style="fill:#000000; fill-opacity:1.0; 
stroke:#000000; stroke-width:39.3701; stroke-opacity:1; 
stroke-linecap:round; stroke-linejoin:round;">
</g>
<g style="fill:#000000; fill-opacity:1.0; 
stroke:#000000; stroke-width:0; stroke-opacity:1; 
stroke-linecap:round; stroke-linejoin:round;">
<circle cx="53000" cy="46000" r="334.646" /> 
</g>
<g style="fill:#000000; fill-opacity:1.0; 
stroke:#000000; stroke-width:39.3701; stroke-opacity:1; 
stroke-linecap:round; stroke-linejoin:round;">
</g>
<g style="fill:#000000; fill-opacity:1.0; 
stroke:#000000; stroke-width:0; stroke-opacity:1; 
stroke-linecap:round; stroke-linejoin:round;">
<circle cx="53000" cy="45000" r="334.646" /> 
</g>
<g style="fill:#000000; fill-opacity:1.0; 
stroke:#000000; stroke-width:39.3701; stroke-opacity:1; 
stroke-linecap:round; stroke-linejoin:round;">
</g>
<g style="fill:#000000; fill-opacity:1.0; 
stroke:#000000; stroke-width:0; stroke-opacity:1; 
stroke-linecap:round; stroke-linejoin:round;">
<circle cx="53000" cy="44000" r="334.646" /> 
</g>
<g style="fill:#000000; fill-opacity:1.0; 
stroke:#000000; stroke-width:39.3701; stroke-opacity:1; 
stroke-linecap:round; stroke-linejoin:round;">
</g>
<g style="fill:#000000; fill-opacity:1.0; 
stroke:#000000; stroke-width:0; stroke-opacity:1; 
stroke-linecap:round; stroke-linejoin:round;">
<circle cx="53000" cy="43000" r="334.646" /> 
</g>
<g style="fill:#000000; fill-opacity:1.0; 
stroke:#000000; stroke-width:39.3701; stroke-opacity:1; 
stroke-linecap:round; stroke-linejoin:round;">
</g>
<g style="fill:#000000; fill-opacity:1.0; 
stroke:#000000; stroke-width:0; stroke-opacity:1; 
stroke-linecap:round; stroke-linejoin:round;">
<circle cx="53000" cy="42000" r="334.646" /> 
</g>
<g style="fill:#000000; fill-opacity:1.0; 
stroke:#000000; stroke-width:39.3701; stroke-opacity:1; 
stroke-linecap:round; stroke-linejoin:round;">
</g>
<g style="fill:#000000; fill-opacity:1.0; 
stroke:#000000; stroke-width:0; stroke-opacity:1; 
stroke-linecap:round; stroke-linejoin:round;">
<circle cx="53000" cy="41000" r="334.646" /> 
</g>
<g style="fill:#000000; fill-opacity:1.0; 
stroke:#000000; stroke-width:39.3701; stroke-opacity:1; 
stroke-linecap:round; stroke-linejoin:round;">
</g>
<g style="fill:#000000; fill-opacity:1.0; 
stroke:#000000; stroke-width:0; stroke-opacity:1; 
stroke-linecap:round; stroke-linejoin:round;">
<circle cx="53000" cy="40000" r="334.646" /> 
</g>
<g style="fill:#000000; fill-opacity:1.0; 
stroke:#000000; stroke-width:39.3701; stroke-opacity:1; 
stroke-linecap:round; stroke-linejoin:round;">
</g>
<g style="fill:#000000; fill-opacity:1.0; 
stroke:#000000; stroke-width:0; stroke-opacity:1; 
stroke-linecap:round; stroke-linejoin:round;">
<circle cx="53000" cy="39000" r="334.646" /> 
</g>
<g style="fill:#000000; fill-opacity:1.0; 
stroke:#000000; stroke-width:39.3701; stroke-opacity:1; 
stroke-linecap:round; stroke-linejoin:round;">
</g>
<g style="fill:#000000; fill-opacity:1.0; 
stroke:#000000; stroke-width:0; stroke-opacity:1; 
stroke-linecap:round; stroke-linejoin:round;">
<circle cx="53000" cy="38000" r="334.646" /> 
</g>
<g style="fill:#000000; fill-opacity:1.0; 
stroke:#000000; stroke-width:39.3701; stroke-opacity:1; 
stroke-linecap:round; stroke-linejoin:round;">
</g>
<g style="fill:#000000; fill-opacity:1.0; 
stroke:#000000; stroke-width:0; stroke-opacity:1; 
stroke-linecap:round; stroke-linejoin:round;">
<circle cx="53000" cy="37000" r="334.646" /> 
</g>
<g style="fill:#000000; fill-opacity:1.0; 
stroke:#000000; stroke-width:39.3701; stroke-opacity:1; 
stroke-linecap:round; stroke-linejoin:round;">
</g>
<g style="fill:#000000; fill-opacity:1.0; 
stroke:#000000; stroke-width:0; stroke-opacity:1; 
stroke-linecap:round; stroke-linejoin:round;">
<circle cx="53000" cy="36000" r="334.646" /> 
</g>
<g style="fill:#000000; fill-opacity:1.0; 
stroke:#000000; stroke-width:39.3701; stroke-opacity:1; 
stroke-linecap:round; stroke-linejoin:round;">
</g>
<g style="fill:#000000; fill-opacity:1.0; 
stroke:#000000; stroke-width:0; stroke-opacity:1; 
stroke-linecap:round; stroke-linejoin:round;">
<circle cx="53000" cy="35000" r="334.646" /> 
</g>
<g style="fill:#000000; fill-opacity:1.0; 
stroke:#000000; stroke-width:39.3701; stroke-opacity:1; 
stroke-linecap:round; stroke-linejoin:round;">
</g>
<g style="fill:#000000; fill-opacity:1.0; 
stroke:#000000; stroke-width:0; stroke-opacity:1; 
stroke-linecap:round; stroke-linejoin:round;">
<circle cx="53000" cy="34000" r="334.646" /> 
</g>
<g style="fill:#000000; fill-opacity:1.0; 
stroke:#000000; stroke-width:39.3701; stroke-opacity:1; 
stroke-linecap:round; stroke-linejoin:round;">
</g>
<g style="fill:#000000; fill-opacity:1.0; 
stroke:#000000; stroke-width:0; stroke-opacity:1; 
stroke-linecap:round; stroke-linejoin:round;">
<circle cx="53000" cy="33000" r="334.646" /> 
</g>
<g style="fill:#000000; fill-opacity:1.0; 
stroke:#000000; stroke-width:39.3701; stroke-opacity:1; 
stroke-linecap:round; stroke-linejoin:round;">
</g>
<g style="fill:#000000; fill-opacity:1.0; 
stroke:#000000; stroke-width:0; stroke-opacity:1; 
stroke-linecap:round; stroke-linejoin:round;">
<circle cx="53000" cy="32000" r="334.646" /> 
</g>
<g style="fill:#000000; fill-opacity:1.0; 
stroke:#000000; stroke-width:39.3701; stroke-opacity:1; 
stroke-linecap:round; stroke-linejoin:round;">
</g>
<g style="fill:#000000; fill-opacity:1.0; 
stroke:#000000; stroke-width:0; stroke-opacity:1; 
stroke-linecap:round; stroke-linejoin:round;">
<circle cx="53000" cy="31000" r="334.646" /> 
</g>
<g style="fill:#000000; fill-opacity:1.0; 
stroke:#000000; stroke-width:39.3701; stroke-opacity:1; 
stroke-linecap:round; stroke-linejoin:round;">
</g>
<g style="fill:#000000; fill-opacity:1.0; 
stroke:#000000; stroke-width:0; stroke-opacity:1; 
stroke-linecap:round; stroke-linejoin:round;">
<circle cx="53000" cy="30000" r="334.646" /> 
</g>
<g style="fill:#000000; fill-opacity:1.0; 
stroke:#000000; stroke-width:39.3701; stroke-opacity:1; 
stroke-linecap:round; stroke-linejoin:round;">
</g>
<g style="fill:#000000; fill-opacity:1.0; 
stroke:#000000; stroke-width:0; stroke-opacity:1; 
stroke-linecap:round; stroke-linejoin:round;">
<circle cx="53000" cy="29000" r="334.646" /> 
</g>
<g style="fill:#000000; fill-opacity:1.0; 
stroke:#000000; stroke-width:39.3701; stroke-opacity:1; 
stroke-linecap:round; stroke-linejoin:round;">
</g>
<g style="fill:#000000; fill-opacity:1.0; 
stroke:#000000; stroke-width:0; stroke-opacity:1; 
stroke-linecap:round; stroke-linejoin:round;">
<circle cx="53000" cy="28000" r="334.646" /> 
</g>
<g style="fill:#000000; fill-opacity:1.0; 
stroke:#000000; stroke-width:39.3701; stroke-opacity:1; 
stroke-linecap:round; stroke-linejoin:round;">
</g>
<g style="fill:#000000; fill-opacity:1.0; 
stroke:#000000; stroke-width:0; stroke-opacity:1; 
stroke-linecap:round; stroke-linejoin:round;">
<circle cx="52000" cy="47000" r="334.646" /> 
</g>
<g style="fill:#000000; fill-opacity:1.0; 
stroke:#000000; stroke-width:39.3701; stroke-opacity:1; 
stroke-linecap:round; stroke-linejoin:round;">
</g>
<g style="fill:#000000; fill-opacity:1.0; 
stroke:#000000; stroke-width:0; stroke-opacity:1; 
stroke-linecap:round; stroke-linejoin:round;">
<circle cx="52000" cy="46000" r="334.646" /> 
</g>
<g style="fill:#000000; fill-opacity:1.0; 
stroke:#000000; stroke-width:39.3701; stroke-opacity:1; 
stroke-linecap:round; stroke-linejoin:round;">
</g>
<g style="fill:#000000; fill-opacity:1.0; 
stroke:#000000; stroke-width:0; stroke-opacity:1; 
stroke-linecap:round; stroke-linejoin:round;">
<circle cx="52000" cy="45000" r="334.646" /> 
</g>
<g style="fill:#000000; fill-opacity:1.0; 
stroke:#000000; stroke-width:39.3701; stroke-opacity:1; 
stroke-linecap:round; stroke-linejoin:round;">
</g>
<g style="fill:#000000; fill-opacity:1.0; 
stroke:#000000; stroke-width:0; stroke-opacity:1; 
stroke-linecap:round; stroke-linejoin:round;">
<circle cx="52000" cy="44000" r="334.646" /> 
</g>
<g style="fill:#000000; fill-opacity:1.0; 
stroke:#000000; stroke-width:39.3701; stroke-opacity:1; 
stroke-linecap:round; stroke-linejoin:round;">
</g>
<g style="fill:#000000; fill-opacity:1.0; 
stroke:#000000; stroke-width:0; stroke-opacity:1; 
stroke-linecap:round; stroke-linejoin:round;">
<circle cx="52000" cy="43000" r="334.646" /> 
</g>
<g style="fill:#000000; fill-opacity:1.0; 
stroke:#000000; stroke-width:39.3701; stroke-opacity:1; 
stroke-linecap:round; stroke-linejoin:round;">
</g>
<g style="fill:#000000; fill-opacity:1.0; 
stroke:#000000; stroke-width:0; stroke-opacity:1; 
stroke-linecap:round; stroke-linejoin:round;">
<circle cx="52000" cy="42000" r="334.646" /> 
</g>
<g style="fill:#000000; fill-opacity:1.0; 
stroke:#000000; stroke-width:39.3701; stroke-opacity:1; 
stroke-linecap:round; stroke-linejoin:round;">
</g>
<g style="fill:#000000; fill-opacity:1.0; 
stroke:#000000; stroke-width:0; stroke-opacity:1; 
stroke-linecap:round; stroke-linejoin:round;">
<circle cx="52000" cy="41000" r="334.646" /> 
</g>
<g style="fill:#000000; fill-opacity:1.0; 
stroke:#000000; stroke-width:39.3701; stroke-opacity:1; 
stroke-linecap:round; stroke-linejoin:round;">
</g>
<g style="fill:#000000; fill-opacity:1.0; 
stroke:#000000; stroke-width:0; stroke-opacity:1; 
stroke-linecap:round; stroke-linejoin:round;">
<circle cx="52000" cy="40000" r="334.646" /> 
</g>
<g style="fill:#000000; fill-opacity:1.0; 
stroke:#000000; stroke-width:39.3701; stroke-opacity:1; 
stroke-linecap:round; stroke-linejoin:round;">
</g>
<g style="fill:#000000; fill-opacity:1.0; 
stroke:#000000; stroke-width:0; stroke-opacity:1; 
stroke-linecap:round; stroke-linejoin:round;">
<circle cx="52000" cy="39000" r="334.646" /> 
</g>
<g style="fill:#000000; fill-opacity:1.0; 
stroke:#000000; stroke-width:39.3701; stroke-opacity:1; 
stroke-linecap:round; stroke-linejoin:round;">
</g>
<g style="fill:#000000; fill-opacity:1.0; 
stroke:#000000; stroke-width:0; stroke-opacity:1; 
stroke-linecap:round; stroke-linejoin:round;">
<circle cx="52000" cy="38000" r="334.646" /> 
</g>
<g style="fill:#000000; fill-opacity:1.0; 
stroke:#000000; stroke-width:39.3701; stroke-opacity:1; 
stroke-linecap:round; stroke-linejoin:round;">
</g>
<g style="fill:#000000; fill-opacity:1.0; 
stroke:#000000; stroke-width:0; stroke-opacity:1; 
stroke-linecap:round; stroke-linejoin:round;">
<circle cx="52000" cy="37000" r="334.646" /> 
</g>
<g style="fill:#000000; fill-opacity:1.0; 
stroke:#000000; stroke-width:39.3701; stroke-opacity:1; 
stroke-linecap:round; stroke-linejoin:round;">
</g>
<g style="fill:#000000; fill-opacity:1.0; 
stroke:#000000; stroke-width:0; stroke-opacity:1; 
stroke-linecap:round; stroke-linejoin:round;">
<circle cx="52000" cy="36000" r="334.646" /> 
</g>
<g style="fill:#000000; fill-opacity:1.0; 
stroke:#000000; stroke-width:39.3701; stroke-opacity:1; 
stroke-linecap:round; stroke-linejoin:round;">
</g>
<g style="fill:#000000; fill-opacity:1.0; 
stroke:#000000; stroke-width:0; stroke-opacity:1; 
stroke-linecap:round; stroke-linejoin:round;">
<circle cx="52000" cy="35000" r="334.646" /> 
</g>
<g style="fill:#000000; fill-opacity:1.0; 
stroke:#000000; stroke-width:39.3701; stroke-opacity:1; 
stroke-linecap:round; stroke-linejoin:round;">
</g>
<g style="fill:#000000; fill-opacity:1.0; 
stroke:#000000; stroke-width:0; stroke-opacity:1; 
stroke-linecap:round; stroke-linejoin:round;">
<circle cx="52000" cy="34000" r="334.646" /> 
</g>
<g style="fill:#000000; fill-opacity:1.0; 
stroke:#000000; stroke-width:39.3701; stroke-opacity:1; 
stroke-linecap:round; stroke-linejoin:round;">
</g>
<g style="fill:#000000; fill-opacity:1.0; 
stroke:#000000; stroke-width:0; stroke-opacity:1; 
stroke-linecap:round; stroke-linejoin:round;">
<circle cx="52000" cy="33000" r="334.646" /> 
</g>
<g style="fill:#000000; fill-opacity:1.0; 
stroke:#000000; stroke-width:39.3701; stroke-opacity:1; 
stroke-linecap:round; stroke-linejoin:round;">
</g>
<g style="fill:#000000; fill-opacity:1.0; 
stroke:#000000; stroke-width:0; stroke-opacity:1; 
stroke-linecap:round; stroke-linejoin:round;">
<circle cx="52000" cy="32000" r="334.646" /> 
</g>
<g style="fill:#000000; fill-opacity:1.0; 
stroke:#000000; stroke-width:39.3701; stroke-opacity:1; 
stroke-linecap:round; stroke-linejoin:round;">
</g>
<g style="fill:#000000; fill-opacity:1.0; 
stroke:#000000; stroke-width:0; stroke-opacity:1; 
stroke-linecap:round; stroke-linejoin:round;">
<circle cx="52000" cy="31000" r="334.646" /> 
</g>
<g style="fill:#000000; fill-opacity:1.0; 
stroke:#000000; stroke-width:39.3701; stroke-opacity:1; 
stroke-linecap:round; stroke-linejoin:round;">
</g>
<g style="fill:#000000; fill-opacity:1.0; 
stroke:#000000; stroke-width:0; stroke-opacity:1; 
stroke-linecap:round; stroke-linejoin:round;">
<circle cx="52000" cy="30000" r="334.646" /> 
</g>
<g style="fill:#000000; fill-opacity:1.0; 
stroke:#000000; stroke-width:39.3701; stroke-opacity:1; 
stroke-linecap:round; stroke-linejoin:round;">
</g>
<g style="fill:#000000; fill-opacity:1.0; 
stroke:#000000; stroke-width:0; stroke-opacity:1; 
stroke-linecap:round; stroke-linejoin:round;">
<circle cx="52000" cy="29000" r="334.646" /> 
</g>
<g style="fill:#000000; fill-opacity:1.0; 
stroke:#000000; stroke-width:39.3701; stroke-opacity:1; 
stroke-linecap:round; stroke-linejoin:round;">
</g>
<g style="fill:#000000; fill-opacity:1.0; 
stroke:#000000; stroke-width:0; stroke-opacity:1; 
stroke-linecap:round; stroke-linejoin:round;">
<path style="fill:#000000; fill-opacity:1.0; 
stroke:#000000; stroke-width:0; stroke-opacity:1; 
stroke-linecap:round; stroke-linejoin:round;fill-rule:evenodd;"
d="M 52245.9,27665.8
52255.4,27667.2
52264.8,27669.6
52273.9,27672.8
52282.6,27677
52290.9,27681.9
52298.7,27687.7
52305.8,27694.2
52312.3,27701.3
52318.1,27709.1
52323,27717.4
52327.2,27726.1
52330.4,27735.2
52332.8,27744.6
52334.2,27754.1
52334.6,27763.8
52334.6,28236.2
52334.2,28245.9
52332.8,28255.4
52330.4,28264.8
52327.2,28273.9
52323,28282.6
52318.1,28290.9
52312.3,28298.7
52305.8,28305.8
52298.7,28312.3
52290.9,28318.1
52282.6,28323
52273.9,28327.2
52264.8,28330.4
52255.4,28332.8
52245.9,28334.2
52236.2,28334.6
51763.8,28334.6
51754.1,28334.2
51744.6,28332.8
51735.2,28330.4
51726.1,28327.2
51717.4,28323
51709.1,28318.1
51701.3,28312.3
51694.2,28305.8
51687.7,28298.7
51681.9,28290.9
51677,28282.6
51672.8,28273.9
51669.6,28264.8
51667.2,28255.4
51665.8,28245.9
51665.4,28236.2
51665.4,27763.8
51665.8,27754.1
51667.2,27744.6
51669.6,27735.2
51672.8,27726.1
51677,27717.4
51681.9,27709.1
51687.7,27701.3
51694.2,27694.2
51701.3,27687.7
51709.1,27681.9
51717.4,27677
51726.1,27672.8
51735.2,27669.6
51744.6,27667.2
51754.1,27665.8
51763.8,27665.4
52236.2,27665.4
Z" /> 
</g>
<g >
</g>
<g style="fill:#000000; fill-opacity:1.0; 
stroke:#000000; stroke-width:0; stroke-opacity:1; 
stroke-linecap:round; stroke-linejoin:round;">
</g>
<g style="fill:#000000; fill-opacity:1.0; 
stroke:#000000; stroke-width:669.291; stroke-opacity:1; 
stroke-linecap:round; stroke-linejoin:round;">
</g>
<g style="fill:#000000; fill-opacity:0.0; 
stroke:#000000; stroke-width:669.291; stroke-opacity:1; 
stroke-linecap:round; stroke-linejoin:round;">
<path d="M59452 34450
L59452 34549
" />
<path d="M58468 34450
L58468 34549
" />
<path d="M57484 34450
L57484 34549
" />
</g>
<g style="fill:#000000; fill-opacity:0.0; 
stroke:#000000; stroke-width:0; stroke-opacity:1; 
stroke-linecap:round; stroke-linejoin:round;">
</g>
<g style="fill:#000000; fill-opacity:1.0; 
stroke:#000000; stroke-width:0; stroke-opacity:1; 
stroke-linecap:round; stroke-linejoin:round;">
<path style="fill:#000000; fill-opacity:1.0; 
stroke:#000000; stroke-width:0; stroke-opacity:1; 
stroke-linecap:round; stroke-linejoin:round;fill-rule:evenodd;"
d="M 56745.9,34116.6
56755.4,34118
56764.8,34120.4
56773.9,34123.6
56782.6,34127.8
56790.9,34132.7
56798.7,34138.5
56805.8,34145
56812.3,34152.1
56818.1,34159.9
56823,34168.2
56827.2,34176.9
56830.4,34186
56832.8,34195.4
56834.2,34204.9
56834.6,34214.6
56834.6,34785.4
56834.2,34795.1
56832.8,34804.6
56830.4,34814
56827.2,34823.1
56823,34831.8
56818.1,34840.1
56812.3,34847.9
56805.8,34855
56798.7,34861.5
56790.9,34867.3
56782.6,34872.2
56773.9,34876.4
56764.8,34879.6
56755.4,34882
56745.9,34883.4
56736.2,34883.9
56263.8,34883.9
56254.1,34883.4
56244.6,34882
56235.2,34879.6
56226.1,34876.4
56217.4,34872.2
56209.1,34867.3
56201.3,34861.5
56194.2,34855
56187.7,34847.9
56181.9,34840.1
56177,34831.8
56172.8,34823.1
56169.6,34814
56167.2,34804.6
56165.8,34795.1
56165.4,34785.4
56165.4,34214.6
56165.8,34204.9
56167.2,34195.4
56169.6,34186
56172.8,34176.9
56177,34168.2
56181.9,34159.9
56187.7,34152.1
56194.2,34145
56201.3,34138.5
56209.1,34132.7
56217.4,34127.8
56226.1,34123.6
56235.2,34120.4
56244.6,34118
56254.1,34116.6
56263.8,34116.1
56736.2,34116.1
Z" /> 
</g>
<g >
</g>
<g style="fill:#000000; fill-opacity:1.0; 
stroke:#000000; stroke-width:0; stroke-opacity:1; 
stroke-linecap:round; stroke-linejoin:round;">
</g>
<g style="fill:#000000; fill-opacity:1.0; 
stroke:#000000; stroke-width:669.291; stroke-opacity:1; 
stroke-linecap:round; stroke-linejoin:round;">
</g>
<g style="fill:#000000; fill-opacity:0.0; 
stroke:#000000; stroke-width:669.291; stroke-opacity:1; 
stroke-linecap:round; stroke-linejoin:round;">
<path d="M59452 30950
L59452 31049
" />
<path d="M58468 30950
L58468 31049
" />
<path d="M57484 30950
L57484 31049
" />
</g>
<g style="fill:#000000; fill-opacity:0.0; 
stroke:#000000; stroke-width:0; stroke-opacity:1; 
stroke-linecap:round; stroke-linejoin:round;">
</g>
<g style="fill:#000000; fill-opacity:1.0; 
stroke:#000000; stroke-width:0; stroke-opacity:1; 
stroke-linecap:round; stroke-linejoin:round;">
<path style="fill:#000000; fill-opacity:1.0; 
stroke:#000000; stroke-width:0; stroke-opacity:1; 
stroke-linecap:round; stroke-linejoin:round;fill-rule:evenodd;"
d="M 56745.9,30616.6
56755.4,30618
56764.8,30620.4
56773.9,30623.6
56782.6,30627.8
56790.9,30632.7
56798.7,30638.5
56805.8,30645
56812.3,30652.1
56818.1,30659.9
56823,30668.2
56827.2,30676.9
56830.4,30686
56832.8,30695.4
56834.2,30704.9
56834.6,30714.6
56834.6,31285.4
56834.2,31295.1
56832.8,31304.6
56830.4,31314
56827.2,31323.1
56823,31331.8
56818.1,31340.1
56812.3,31347.9
56805.8,31355
56798.7,31361.5
56790.9,31367.3
56782.6,31372.2
56773.9,31376.4
56764.8,31379.6
56755.4,31382
56745.9,31383.4
56736.2,31383.9
56263.8,31383.9
56254.1,31383.4
56244.6,31382
56235.2,31379.6
56226.1,31376.4
56217.4,31372.2
56209.1,31367.3
56201.3,31361.5
56194.2,31355
56187.7,31347.9
56181.9,31340.1
56177,31331.8
56172.8,31323.1
56169.6,31314
56167.2,31304.6
56165.8,31295.1
56165.4,31285.4
56165.4,30714.6
56165.8,30704.9
56167.2,30695.4
56169.6,30686
56172.8,30676.9
56177,30668.2
56181.9,30659.9
56187.7,30652.1
56194.2,30645
56201.3,30638.5
56209.1,30632.7
56217.4,30627.8
56226.1,30623.6
56235.2,30620.4
56244.6,30618
56254.1,30616.6
56263.8,30616.1
56736.2,30616.1
Z" /> 
</g>
<g >
</g>
<g style="fill:#000000; fill-opacity:1.0; 
stroke:#000000; stroke-width:0; stroke-opacity:1; 
stroke-linecap:round; stroke-linejoin:round;">
</g>
<g style="fill:#000000; fill-opacity:1.0; 
stroke:#000000; stroke-width:669.291; stroke-opacity:1; 
stroke-linecap:round; stroke-linejoin:round;">
</g>
<g style="fill:#000000; fill-opacity:0.0; 
stroke:#000000; stroke-width:669.291; stroke-opacity:1; 
stroke-linecap:round; stroke-linejoin:round;">
<path d="M59452 27450
L59452 27549
" />
<path d="M58468 27450
L58468 27549
" />
<path d="M57484 27450
L57484 27549
" />
</g>
<g style="fill:#000000; fill-opacity:0.0; 
stroke:#000000; stroke-width:0; stroke-opacity:1; 
stroke-linecap:round; stroke-linejoin:round;">
</g>
<g style="fill:#000000; fill-opacity:1.0; 
stroke:#000000; stroke-width:0; stroke-opacity:1; 
stroke-linecap:round; stroke-linejoin:round;">
<path style="fill:#000000; fill-opacity:1.0; 
stroke:#000000; stroke-width:0; stroke-opacity:1; 
stroke-linecap:round; stroke-linejoin:round;fill-rule:evenodd;"
d="M 56745.9,27116.6
56755.4,27118
56764.8,27120.4
56773.9,27123.6
56782.6,27127.8
56790.9,27132.7
56798.7,27138.5
56805.8,27145
56812.3,27152.1
56818.1,27159.9
56823,27168.2
56827.2,27176.9
56830.4,27186
56832.8,27195.4
56834.2,27204.9
56834.6,27214.6
56834.6,27785.4
56834.2,27795.1
56832.8,27804.6
56830.4,27814
56827.2,27823.1
56823,27831.8
56818.1,27840.1
56812.3,27847.9
56805.8,27855
56798.7,27861.5
56790.9,27867.3
56782.6,27872.2
56773.9,27876.4
56764.8,27879.6
56755.4,27882
56745.9,27883.4
56736.2,27883.9
56263.8,27883.9
56254.1,27883.4
56244.6,27882
56235.2,27879.6
56226.1,27876.4
56217.4,27872.2
56209.1,27867.3
56201.3,27861.5
56194.2,27855
56187.7,27847.9
56181.9,27840.1
56177,27831.8
56172.8,27823.1
56169.6,27814
56167.2,27804.6
56165.8,27795.1
56165.4,27785.4
56165.4,27214.6
56165.8,27204.9
56167.2,27195.4
56169.6,27186
56172.8,27176.9
56177,27168.2
56181.9,27159.9
56187.7,27152.1
56194.2,27145
56201.3,27138.5
56209.1,27132.7
56217.4,27127.8
56226.1,27123.6
56235.2,27120.4
56244.6,27118
56254.1,27116.6
56263.8,27116.1
56736.2,27116.1
Z" /> 
</g>
<g >
</g>
<g style="fill:#000000; fill-opacity:1.0; 
stroke:#000000; stroke-width:0; stroke-opacity:1; 
stroke-linecap:round; stroke-linejoin:round;">
</g>
<g style="fill:#000000; fill-opacity:1.0; 
stroke:#000000; stroke-width:669.291; stroke-opacity:1; 
stroke-linecap:round; stroke-linejoin:round;">
</g>
<g style="fill:#000000; fill-opacity:0.0; 
stroke:#000000; stroke-width:669.291; stroke-opacity:1; 
stroke-linecap:round; stroke-linejoin:round;">
<path d="M59452 46450
L59452 46549
" />
<path d="M58468 46450
L58468 46549
" />
<path d="M57484 46450
L57484 46549
" />
</g>
<g style="fill:#000000; fill-opacity:0.0; 
stroke:#000000; stroke-width:0; stroke-opacity:1; 
stroke-linecap:round; stroke-linejoin:round;">
</g>
<g style="fill:#000000; fill-opacity:1.0; 
stroke:#000000; stroke-width:0; stroke-opacity:1; 
stroke-linecap:round; stroke-linejoin:round;">
<path style="fill:#000000; fill-opacity:1.0; 
stroke:#000000; stroke-width:0; stroke-opacity:1; 
stroke-linecap:round; stroke-linejoin:round;fill-rule:evenodd;"
d="M 56745.9,46116.6
56755.4,46118
56764.8,46120.4
56773.9,46123.6
56782.6,46127.8
56790.9,46132.7
56798.7,46138.5
56805.8,46145
56812.3,46152.1
56818.1,46159.9
56823,46168.2
56827.2,46176.9
56830.4,46186
56832.8,46195.4
56834.2,46204.9
56834.6,46214.6
56834.6,46785.4
56834.2,46795.1
56832.8,46804.6
56830.4,46814
56827.2,46823.1
56823,46831.8
56818.1,46840.1
56812.3,46847.9
56805.8,46855
56798.7,46861.5
56790.9,46867.3
56782.6,46872.2
56773.9,46876.4
56764.8,46879.6
56755.4,46882
56745.9,46883.4
56736.2,46883.9
56263.8,46883.9
56254.1,46883.4
56244.6,46882
56235.2,46879.6
56226.1,46876.4
56217.4,46872.2
56209.1,46867.3
56201.3,46861.5
56194.2,46855
56187.7,46847.9
56181.9,46840.1
56177,46831.8
56172.8,46823.1
56169.6,46814
56167.2,46804.6
56165.8,46795.1
56165.4,46785.4
56165.4,46214.6
56165.8,46204.9
56167.2,46195.4
56169.6,46186
56172.8,46176.9
56177,46168.2
56181.9,46159.9
56187.7,46152.1
56194.2,46145
56201.3,46138.5
56209.1,46132.7
56217.4,46127.8
56226.1,46123.6
56235.2,46120.4
56244.6,46118
56254.1,46116.6
56263.8,46116.1
56736.2,46116.1
Z" /> 
</g>
<g >
</g>
<g style="fill:#000000; fill-opacity:1.0; 
stroke:#000000; stroke-width:0; stroke-opacity:1; 
stroke-linecap:round; stroke-linejoin:round;">
</g>
<g style="fill:#000000; fill-opacity:1.0; 
stroke:#000000; stroke-width:669.291; stroke-opacity:1; 
stroke-linecap:round; stroke-linejoin:round;">
</g>
<g style="fill:#000000; fill-opacity:0.0; 
stroke:#000000; stroke-width:669.291; stroke-opacity:1; 
stroke-linecap:round; stroke-linejoin:round;">
<path d="M59452 42950
L59452 43049
" />
<path d="M58468 42950
L58468 43049
" />
<path d="M57484 42950
L57484 43049
" />
</g>
<g style="fill:#000000; fill-opacity:0.0; 
stroke:#000000; stroke-width:0; stroke-opacity:1; 
stroke-linecap:round; stroke-linejoin:round;">
</g>
<g style="fill:#000000; fill-opacity:1.0; 
stroke:#000000; stroke-width:0; stroke-opacity:1; 
stroke-linecap:round; stroke-linejoin:round;">
<path style="fill:#000000; fill-opacity:1.0; 
stroke:#000000; stroke-width:0; stroke-opacity:1; 
stroke-linecap:round; stroke-linejoin:round;fill-rule:evenodd;"
d="M 56745.9,42616.6
56755.4,42618
56764.8,42620.4
56773.9,42623.6
56782.6,42627.8
56790.9,42632.7
56798.7,42638.5
56805.8,42645
56812.3,42652.1
56818.1,42659.9
56823,42668.2
56827.2,42676.9
56830.4,42686
56832.8,42695.4
56834.2,42704.9
56834.6,42714.6
56834.6,43285.4
56834.2,43295.1
56832.8,43304.6
56830.4,43314
56827.2,43323.1
56823,43331.8
56818.1,43340.1
56812.3,43347.9
56805.8,43355
56798.7,43361.5
56790.9,43367.3
56782.6,43372.2
56773.9,43376.4
56764.8,43379.6
56755.4,43382
56745.9,43383.4
56736.2,43383.9
56263.8,43383.9
56254.1,43383.4
56244.6,43382
56235.2,43379.6
56226.1,43376.4
56217.4,43372.2
56209.1,43367.3
56201.3,43361.5
56194.2,43355
56187.7,43347.9
56181.9,43340.1
56177,43331.8
56172.8,43323.1
56169.6,43314
56167.2,43304.6
56165.8,43295.1
56165.4,43285.4
56165.4,42714.6
56165.8,42704.9
56167.2,42695.4
56169.6,42686
56172.8,42676.9
56177,42668.2
56181.9,42659.9
56187.7,42652.1
56194.2,42645
56201.3,42638.5
56209.1,42632.7
56217.4,42627.8
56226.1,42623.6
56235.2,42620.4
56244.6,42618
56254.1,42616.6
56263.8,42616.1
56736.2,42616.1
Z" /> 
</g>
<g >
</g>
<g style="fill:#000000; fill-opacity:1.0; 
stroke:#000000; stroke-width:0; stroke-opacity:1; 
stroke-linecap:round; stroke-linejoin:round;">
</g>
<g style="fill:#000000; fill-opacity:1.0; 
stroke:#000000; stroke-width:669.291; stroke-opacity:1; 
stroke-linecap:round; stroke-linejoin:round;">
</g>
<g style="fill:#000000; fill-opacity:0.0; 
stroke:#000000; stroke-width:669.291; stroke-opacity:1; 
stroke-linecap:round; stroke-linejoin:round;">
<path d="M59452 39450
L59452 39549
" />
<path d="M58468 39450
L58468 39549
" />
<path d="M57484 39450
L57484 39549
" />
</g>
<g style="fill:#000000; fill-opacity:0.0; 
stroke:#000000; stroke-width:0; stroke-opacity:1; 
stroke-linecap:round; stroke-linejoin:round;">
</g>
<g style="fill:#000000; fill-opacity:1.0; 
stroke:#000000; stroke-width:0; stroke-opacity:1; 
stroke-linecap:round; stroke-linejoin:round;">
<path style="fill:#000000; fill-opacity:1.0; 
stroke:#000000; stroke-width:0; stroke-opacity:1; 
stroke-linecap:round; stroke-linejoin:round;fill-rule:evenodd;"
d="M 56745.9,39116.6
56755.4,39118
56764.8,39120.4
56773.9,39123.6
56782.6,39127.8
56790.9,39132.7
56798.7,39138.5
56805.8,39145
56812.3,39152.1
56818.1,39159.9
56823,39168.2
56827.2,39176.9
56830.4,39186
56832.8,39195.4
56834.2,39204.9
56834.6,39214.6
56834.6,39785.4
56834.2,39795.1
56832.8,39804.6
56830.4,39814
56827.2,39823.1
56823,39831.8
56818.1,39840.1
56812.3,39847.9
56805.8,39855
56798.7,39861.5
56790.9,39867.3
56782.6,39872.2
56773.9,39876.4
56764.8,39879.6
56755.4,39882
56745.9,39883.4
56736.2,39883.9
56263.8,39883.9
56254.1,39883.4
56244.6,39882
56235.2,39879.6
56226.1,39876.4
56217.4,39872.2
56209.1,39867.3
56201.3,39861.5
56194.2,39855
56187.7,39847.9
56181.9,39840.1
56177,39831.8
56172.8,39823.1
56169.6,39814
56167.2,39804.6
56165.8,39795.1
56165.4,39785.4
56165.4,39214.6
56165.8,39204.9
56167.2,39195.4
56169.6,39186
56172.8,39176.9
56177,39168.2
56181.9,39159.9
56187.7,39152.1
56194.2,39145
56201.3,39138.5
56209.1,39132.7
56217.4,39127.8
56226.1,39123.6
56235.2,39120.4
56244.6,39118
56254.1,39116.6
56263.8,39116.1
56736.2,39116.1
Z" /> 
</g>
<g >
</g>
<g style="fill:#000000; fill-opacity:1.0; 
stroke:#000000; stroke-width:0; stroke-opacity:1; 
stroke-linecap:round; stroke-linejoin:round;">
<circle cx="50500" cy="50500" r="1181.1" /> 
</g>
<g style="fill:#000000; fill-opacity:1.0; 
stroke:#000000; stroke-width:39.3701; stroke-opacity:1; 
stroke-linecap:round; stroke-linejoin:round;">
</g>
<g >
</g>
<g style="fill:#000000; fill-opacity:1.0; 
stroke:#000000; stroke-width:39.3701; stroke-opacity:1; 
stroke-linecap:round; stroke-linejoin:round;">
</g>
<g style="fill:#000000; fill-opacity:1.0; 
stroke:#000000; stroke-width:0; stroke-opacity:1; 
stroke-linecap:round; stroke-linejoin:round;">
<circle cx="64000" cy="50500" r="1181.1" /> 
</g>
<g style="fill:#000000; fill-opacity:1.0; 
stroke:#000000; stroke-width:39.3701; stroke-opacity:1; 
stroke-linecap:round; stroke-linejoin:round;">
</g>
<g >
</g>
<g style="fill:#000000; fill-opacity:1.0; 
stroke:#000000; stroke-width:39.3701; stroke-opacity:1; 
stroke-linecap:round; stroke-linejoin:round;">
</g>
<g style="fill:#000000; fill-opacity:1.0; 
stroke:#000000; stroke-width:0; stroke-opacity:1; 
stroke-linecap:round; stroke-linejoin:round;">
<circle cx="50500" cy="24500" r="1181.1" /> 
</g>
<g style="fill:#000000; fill-opacity:1.0; 
stroke:#000000; stroke-width:39.3701; stroke-opacity:1; 
stroke-linecap:round; stroke-linejoin:round;">
</g>
<g >
</g>
<g style="fill:#000000; fill-opacity:1.0; 
stroke:#000000; stroke-width:39.3701; stroke-opacity:1; 
stroke-linecap:round; stroke-linejoin:round;">
</g>
<g style="fill:#000000; fill-opacity:1.0; 
stroke:#000000; stroke-width:0; stroke-opacity:1; 
stroke-linecap:round; stroke-linejoin:round;">
<circle cx="64000" cy="24500" r="1181.1" /> 
</g>
<g style="fill:#000000; fill-opacity:1.0; 
stroke:#000000; stroke-width:39.3701; stroke-opacity:1; 
stroke-linecap:round; stroke-linejoin:round;">
</g>
<g >
</g>
<g >
</g>
<g >
</g>
</g> 
</svg>
