<?xml version="1.0" standalone="no"?>
 <!DOCTYPE svg PUBLIC "-//W3C//DTD SVG 1.1//EN" 
 "http://www.w3.org/Graphics/SVG/1.1/DTD/svg11.dtd"> 
<svg
  xmlns:svg="http://www.w3.org/2000/svg"
  xmlns="http://www.w3.org/2000/svg"
  xmlns:xlink="http://www.w3.org/1999/xlink"
  version="1.1"
  width="29.700220cm" height="21.000720cm" viewBox="0 0 116930 82680">
<title>SVG Picture created as rpi-arcade-hat-B_Cu.svg date 2021/09/26 12:15:20 </title>
  <desc>Picture generated by PCBNEW </desc>
<g style="fill:#000000; fill-opacity:1;stroke:#000000; stroke-opacity:1;
stroke-linecap:round; stroke-linejoin:round;"
 transform="translate(0 0) scale(1 1)">
</g>
<g style="fill:#000000; fill-opacity:0.0; 
stroke:#000000; stroke-width:-0.000393701; stroke-opacity:1; 
stroke-linecap:round; stroke-linejoin:round;">
<g >
</g>
<g style="fill:#000000; fill-opacity:0.0; 
stroke:#000000; stroke-width:669.291; stroke-opacity:1; 
stroke-linecap:round; stroke-linejoin:round;">
<path d="M62950 36047
L63049 36047
" />
<path d="M62950 37031
L63049 37031
" />
<path d="M62950 38015
L63049 38015
" />
</g>
<g style="fill:#000000; fill-opacity:0.0; 
stroke:#000000; stroke-width:0; stroke-opacity:1; 
stroke-linecap:round; stroke-linejoin:round;">
</g>
<g style="fill:#000000; fill-opacity:1.0; 
stroke:#000000; stroke-width:0; stroke-opacity:1; 
stroke-linecap:round; stroke-linejoin:round;">
<path style="fill:#000000; fill-opacity:1.0; 
stroke:#000000; stroke-width:0; stroke-opacity:1; 
stroke-linecap:round; stroke-linejoin:round;fill-rule:evenodd;"
d="M 63295.1,38665.8
63304.6,38667.2
63314,38669.6
63323.1,38672.8
63331.8,38677
63340.1,38681.9
63347.9,38687.7
63355,38694.2
63361.5,38701.3
63367.3,38709.1
63372.2,38717.4
63376.4,38726.1
63379.6,38735.2
63382,38744.6
63383.4,38754.1
63383.9,38763.8
63383.9,39236.2
63383.4,39245.9
63382,39255.4
63379.6,39264.8
63376.4,39273.9
63372.2,39282.6
63367.3,39290.9
63361.5,39298.7
63355,39305.8
63347.9,39312.3
63340.1,39318.1
63331.8,39323
63323.1,39327.2
63314,39330.4
63304.6,39332.8
63295.1,39334.2
63285.4,39334.6
62714.6,39334.6
62704.9,39334.2
62695.4,39332.8
62686,39330.4
62676.9,39327.2
62668.2,39323
62659.9,39318.1
62652.1,39312.3
62645,39305.8
62638.5,39298.7
62632.7,39290.9
62627.8,39282.6
62623.6,39273.9
62620.4,39264.8
62618,39255.4
62616.6,39245.9
62616.1,39236.2
62616.1,38763.8
62616.6,38754.1
62618,38744.6
62620.4,38735.2
62623.6,38726.1
62627.8,38717.4
62632.7,38709.1
62638.5,38701.3
62645,38694.2
62652.1,38687.7
62659.9,38681.9
62668.2,38677
62676.9,38672.8
62686,38669.6
62695.4,38667.2
62704.9,38665.8
62714.6,38665.4
63285.4,38665.4
Z" /> 
</g>
<g >
</g>
<g style="fill:#000000; fill-opacity:1.0; 
stroke:#000000; stroke-width:0; stroke-opacity:1; 
stroke-linecap:round; stroke-linejoin:round;">
<circle cx="53000" cy="47000" r="334.646" /> 
</g>
<g style="fill:#000000; fill-opacity:1.0; 
stroke:#000000; stroke-width:39.3701; stroke-opacity:1; 
stroke-linecap:round; stroke-linejoin:round;">
</g>
<g style="fill:#000000; fill-opacity:1.0; 
stroke:#000000; stroke-width:0; stroke-opacity:1; 
stroke-linecap:round; stroke-linejoin:round;">
<circle cx="53000" cy="46000" r="334.646" /> 
</g>
<g style="fill:#000000; fill-opacity:1.0; 
stroke:#000000; stroke-width:39.3701; stroke-opacity:1; 
stroke-linecap:round; stroke-linejoin:round;">
</g>
<g style="fill:#000000; fill-opacity:1.0; 
stroke:#000000; stroke-width:0; stroke-opacity:1; 
stroke-linecap:round; stroke-linejoin:round;">
<circle cx="53000" cy="45000" r="334.646" /> 
</g>
<g style="fill:#000000; fill-opacity:1.0; 
stroke:#000000; stroke-width:39.3701; stroke-opacity:1; 
stroke-linecap:round; stroke-linejoin:round;">
</g>
<g style="fill:#000000; fill-opacity:1.0; 
stroke:#000000; stroke-width:0; stroke-opacity:1; 
stroke-linecap:round; stroke-linejoin:round;">
<circle cx="53000" cy="44000" r="334.646" /> 
</g>
<g style="fill:#000000; fill-opacity:1.0; 
stroke:#000000; stroke-width:39.3701; stroke-opacity:1; 
stroke-linecap:round; stroke-linejoin:round;">
</g>
<g style="fill:#000000; fill-opacity:1.0; 
stroke:#000000; stroke-width:0; stroke-opacity:1; 
stroke-linecap:round; stroke-linejoin:round;">
<circle cx="53000" cy="43000" r="334.646" /> 
</g>
<g style="fill:#000000; fill-opacity:1.0; 
stroke:#000000; stroke-width:39.3701; stroke-opacity:1; 
stroke-linecap:round; stroke-linejoin:round;">
</g>
<g style="fill:#000000; fill-opacity:1.0; 
stroke:#000000; stroke-width:0; stroke-opacity:1; 
stroke-linecap:round; stroke-linejoin:round;">
<circle cx="53000" cy="42000" r="334.646" /> 
</g>
<g style="fill:#000000; fill-opacity:1.0; 
stroke:#000000; stroke-width:39.3701; stroke-opacity:1; 
stroke-linecap:round; stroke-linejoin:round;">
</g>
<g style="fill:#000000; fill-opacity:1.0; 
stroke:#000000; stroke-width:0; stroke-opacity:1; 
stroke-linecap:round; stroke-linejoin:round;">
<circle cx="53000" cy="41000" r="334.646" /> 
</g>
<g style="fill:#000000; fill-opacity:1.0; 
stroke:#000000; stroke-width:39.3701; stroke-opacity:1; 
stroke-linecap:round; stroke-linejoin:round;">
</g>
<g style="fill:#000000; fill-opacity:1.0; 
stroke:#000000; stroke-width:0; stroke-opacity:1; 
stroke-linecap:round; stroke-linejoin:round;">
<circle cx="53000" cy="40000" r="334.646" /> 
</g>
<g style="fill:#000000; fill-opacity:1.0; 
stroke:#000000; stroke-width:39.3701; stroke-opacity:1; 
stroke-linecap:round; stroke-linejoin:round;">
</g>
<g style="fill:#000000; fill-opacity:1.0; 
stroke:#000000; stroke-width:0; stroke-opacity:1; 
stroke-linecap:round; stroke-linejoin:round;">
<circle cx="53000" cy="39000" r="334.646" /> 
</g>
<g style="fill:#000000; fill-opacity:1.0; 
stroke:#000000; stroke-width:39.3701; stroke-opacity:1; 
stroke-linecap:round; stroke-linejoin:round;">
</g>
<g style="fill:#000000; fill-opacity:1.0; 
stroke:#000000; stroke-width:0; stroke-opacity:1; 
stroke-linecap:round; stroke-linejoin:round;">
<circle cx="53000" cy="38000" r="334.646" /> 
</g>
<g style="fill:#000000; fill-opacity:1.0; 
stroke:#000000; stroke-width:39.3701; stroke-opacity:1; 
stroke-linecap:round; stroke-linejoin:round;">
</g>
<g style="fill:#000000; fill-opacity:1.0; 
stroke:#000000; stroke-width:0; stroke-opacity:1; 
stroke-linecap:round; stroke-linejoin:round;">
<circle cx="53000" cy="37000" r="334.646" /> 
</g>
<g style="fill:#000000; fill-opacity:1.0; 
stroke:#000000; stroke-width:39.3701; stroke-opacity:1; 
stroke-linecap:round; stroke-linejoin:round;">
</g>
<g style="fill:#000000; fill-opacity:1.0; 
stroke:#000000; stroke-width:0; stroke-opacity:1; 
stroke-linecap:round; stroke-linejoin:round;">
<circle cx="53000" cy="36000" r="334.646" /> 
</g>
<g style="fill:#000000; fill-opacity:1.0; 
stroke:#000000; stroke-width:39.3701; stroke-opacity:1; 
stroke-linecap:round; stroke-linejoin:round;">
</g>
<g style="fill:#000000; fill-opacity:1.0; 
stroke:#000000; stroke-width:0; stroke-opacity:1; 
stroke-linecap:round; stroke-linejoin:round;">
<circle cx="53000" cy="35000" r="334.646" /> 
</g>
<g style="fill:#000000; fill-opacity:1.0; 
stroke:#000000; stroke-width:39.3701; stroke-opacity:1; 
stroke-linecap:round; stroke-linejoin:round;">
</g>
<g style="fill:#000000; fill-opacity:1.0; 
stroke:#000000; stroke-width:0; stroke-opacity:1; 
stroke-linecap:round; stroke-linejoin:round;">
<circle cx="53000" cy="34000" r="334.646" /> 
</g>
<g style="fill:#000000; fill-opacity:1.0; 
stroke:#000000; stroke-width:39.3701; stroke-opacity:1; 
stroke-linecap:round; stroke-linejoin:round;">
</g>
<g style="fill:#000000; fill-opacity:1.0; 
stroke:#000000; stroke-width:0; stroke-opacity:1; 
stroke-linecap:round; stroke-linejoin:round;">
<circle cx="53000" cy="33000" r="334.646" /> 
</g>
<g style="fill:#000000; fill-opacity:1.0; 
stroke:#000000; stroke-width:39.3701; stroke-opacity:1; 
stroke-linecap:round; stroke-linejoin:round;">
</g>
<g style="fill:#000000; fill-opacity:1.0; 
stroke:#000000; stroke-width:0; stroke-opacity:1; 
stroke-linecap:round; stroke-linejoin:round;">
<circle cx="53000" cy="32000" r="334.646" /> 
</g>
<g style="fill:#000000; fill-opacity:1.0; 
stroke:#000000; stroke-width:39.3701; stroke-opacity:1; 
stroke-linecap:round; stroke-linejoin:round;">
</g>
<g style="fill:#000000; fill-opacity:1.0; 
stroke:#000000; stroke-width:0; stroke-opacity:1; 
stroke-linecap:round; stroke-linejoin:round;">
<circle cx="53000" cy="31000" r="334.646" /> 
</g>
<g style="fill:#000000; fill-opacity:1.0; 
stroke:#000000; stroke-width:39.3701; stroke-opacity:1; 
stroke-linecap:round; stroke-linejoin:round;">
</g>
<g style="fill:#000000; fill-opacity:1.0; 
stroke:#000000; stroke-width:0; stroke-opacity:1; 
stroke-linecap:round; stroke-linejoin:round;">
<circle cx="53000" cy="30000" r="334.646" /> 
</g>
<g style="fill:#000000; fill-opacity:1.0; 
stroke:#000000; stroke-width:39.3701; stroke-opacity:1; 
stroke-linecap:round; stroke-linejoin:round;">
</g>
<g style="fill:#000000; fill-opacity:1.0; 
stroke:#000000; stroke-width:0; stroke-opacity:1; 
stroke-linecap:round; stroke-linejoin:round;">
<circle cx="53000" cy="29000" r="334.646" /> 
</g>
<g style="fill:#000000; fill-opacity:1.0; 
stroke:#000000; stroke-width:39.3701; stroke-opacity:1; 
stroke-linecap:round; stroke-linejoin:round;">
</g>
<g style="fill:#000000; fill-opacity:1.0; 
stroke:#000000; stroke-width:0; stroke-opacity:1; 
stroke-linecap:round; stroke-linejoin:round;">
<circle cx="53000" cy="28000" r="334.646" /> 
</g>
<g style="fill:#000000; fill-opacity:1.0; 
stroke:#000000; stroke-width:39.3701; stroke-opacity:1; 
stroke-linecap:round; stroke-linejoin:round;">
</g>
<g style="fill:#000000; fill-opacity:1.0; 
stroke:#000000; stroke-width:0; stroke-opacity:1; 
stroke-linecap:round; stroke-linejoin:round;">
<circle cx="52000" cy="47000" r="334.646" /> 
</g>
<g style="fill:#000000; fill-opacity:1.0; 
stroke:#000000; stroke-width:39.3701; stroke-opacity:1; 
stroke-linecap:round; stroke-linejoin:round;">
</g>
<g style="fill:#000000; fill-opacity:1.0; 
stroke:#000000; stroke-width:0; stroke-opacity:1; 
stroke-linecap:round; stroke-linejoin:round;">
<circle cx="52000" cy="46000" r="334.646" /> 
</g>
<g style="fill:#000000; fill-opacity:1.0; 
stroke:#000000; stroke-width:39.3701; stroke-opacity:1; 
stroke-linecap:round; stroke-linejoin:round;">
</g>
<g style="fill:#000000; fill-opacity:1.0; 
stroke:#000000; stroke-width:0; stroke-opacity:1; 
stroke-linecap:round; stroke-linejoin:round;">
<circle cx="52000" cy="45000" r="334.646" /> 
</g>
<g style="fill:#000000; fill-opacity:1.0; 
stroke:#000000; stroke-width:39.3701; stroke-opacity:1; 
stroke-linecap:round; stroke-linejoin:round;">
</g>
<g style="fill:#000000; fill-opacity:1.0; 
stroke:#000000; stroke-width:0; stroke-opacity:1; 
stroke-linecap:round; stroke-linejoin:round;">
<circle cx="52000" cy="44000" r="334.646" /> 
</g>
<g style="fill:#000000; fill-opacity:1.0; 
stroke:#000000; stroke-width:39.3701; stroke-opacity:1; 
stroke-linecap:round; stroke-linejoin:round;">
</g>
<g style="fill:#000000; fill-opacity:1.0; 
stroke:#000000; stroke-width:0; stroke-opacity:1; 
stroke-linecap:round; stroke-linejoin:round;">
<circle cx="52000" cy="43000" r="334.646" /> 
</g>
<g style="fill:#000000; fill-opacity:1.0; 
stroke:#000000; stroke-width:39.3701; stroke-opacity:1; 
stroke-linecap:round; stroke-linejoin:round;">
</g>
<g style="fill:#000000; fill-opacity:1.0; 
stroke:#000000; stroke-width:0; stroke-opacity:1; 
stroke-linecap:round; stroke-linejoin:round;">
<circle cx="52000" cy="42000" r="334.646" /> 
</g>
<g style="fill:#000000; fill-opacity:1.0; 
stroke:#000000; stroke-width:39.3701; stroke-opacity:1; 
stroke-linecap:round; stroke-linejoin:round;">
</g>
<g style="fill:#000000; fill-opacity:1.0; 
stroke:#000000; stroke-width:0; stroke-opacity:1; 
stroke-linecap:round; stroke-linejoin:round;">
<circle cx="52000" cy="41000" r="334.646" /> 
</g>
<g style="fill:#000000; fill-opacity:1.0; 
stroke:#000000; stroke-width:39.3701; stroke-opacity:1; 
stroke-linecap:round; stroke-linejoin:round;">
</g>
<g style="fill:#000000; fill-opacity:1.0; 
stroke:#000000; stroke-width:0; stroke-opacity:1; 
stroke-linecap:round; stroke-linejoin:round;">
<circle cx="52000" cy="40000" r="334.646" /> 
</g>
<g style="fill:#000000; fill-opacity:1.0; 
stroke:#000000; stroke-width:39.3701; stroke-opacity:1; 
stroke-linecap:round; stroke-linejoin:round;">
</g>
<g style="fill:#000000; fill-opacity:1.0; 
stroke:#000000; stroke-width:0; stroke-opacity:1; 
stroke-linecap:round; stroke-linejoin:round;">
<circle cx="52000" cy="39000" r="334.646" /> 
</g>
<g style="fill:#000000; fill-opacity:1.0; 
stroke:#000000; stroke-width:39.3701; stroke-opacity:1; 
stroke-linecap:round; stroke-linejoin:round;">
</g>
<g style="fill:#000000; fill-opacity:1.0; 
stroke:#000000; stroke-width:0; stroke-opacity:1; 
stroke-linecap:round; stroke-linejoin:round;">
<circle cx="52000" cy="38000" r="334.646" /> 
</g>
<g style="fill:#000000; fill-opacity:1.0; 
stroke:#000000; stroke-width:39.3701; stroke-opacity:1; 
stroke-linecap:round; stroke-linejoin:round;">
</g>
<g style="fill:#000000; fill-opacity:1.0; 
stroke:#000000; stroke-width:0; stroke-opacity:1; 
stroke-linecap:round; stroke-linejoin:round;">
<circle cx="52000" cy="37000" r="334.646" /> 
</g>
<g style="fill:#000000; fill-opacity:1.0; 
stroke:#000000; stroke-width:39.3701; stroke-opacity:1; 
stroke-linecap:round; stroke-linejoin:round;">
</g>
<g style="fill:#000000; fill-opacity:1.0; 
stroke:#000000; stroke-width:0; stroke-opacity:1; 
stroke-linecap:round; stroke-linejoin:round;">
<circle cx="52000" cy="36000" r="334.646" /> 
</g>
<g style="fill:#000000; fill-opacity:1.0; 
stroke:#000000; stroke-width:39.3701; stroke-opacity:1; 
stroke-linecap:round; stroke-linejoin:round;">
</g>
<g style="fill:#000000; fill-opacity:1.0; 
stroke:#000000; stroke-width:0; stroke-opacity:1; 
stroke-linecap:round; stroke-linejoin:round;">
<circle cx="52000" cy="35000" r="334.646" /> 
</g>
<g style="fill:#000000; fill-opacity:1.0; 
stroke:#000000; stroke-width:39.3701; stroke-opacity:1; 
stroke-linecap:round; stroke-linejoin:round;">
</g>
<g style="fill:#000000; fill-opacity:1.0; 
stroke:#000000; stroke-width:0; stroke-opacity:1; 
stroke-linecap:round; stroke-linejoin:round;">
<circle cx="52000" cy="34000" r="334.646" /> 
</g>
<g style="fill:#000000; fill-opacity:1.0; 
stroke:#000000; stroke-width:39.3701; stroke-opacity:1; 
stroke-linecap:round; stroke-linejoin:round;">
</g>
<g style="fill:#000000; fill-opacity:1.0; 
stroke:#000000; stroke-width:0; stroke-opacity:1; 
stroke-linecap:round; stroke-linejoin:round;">
<circle cx="52000" cy="33000" r="334.646" /> 
</g>
<g style="fill:#000000; fill-opacity:1.0; 
stroke:#000000; stroke-width:39.3701; stroke-opacity:1; 
stroke-linecap:round; stroke-linejoin:round;">
</g>
<g style="fill:#000000; fill-opacity:1.0; 
stroke:#000000; stroke-width:0; stroke-opacity:1; 
stroke-linecap:round; stroke-linejoin:round;">
<circle cx="52000" cy="32000" r="334.646" /> 
</g>
<g style="fill:#000000; fill-opacity:1.0; 
stroke:#000000; stroke-width:39.3701; stroke-opacity:1; 
stroke-linecap:round; stroke-linejoin:round;">
</g>
<g style="fill:#000000; fill-opacity:1.0; 
stroke:#000000; stroke-width:0; stroke-opacity:1; 
stroke-linecap:round; stroke-linejoin:round;">
<circle cx="52000" cy="31000" r="334.646" /> 
</g>
<g style="fill:#000000; fill-opacity:1.0; 
stroke:#000000; stroke-width:39.3701; stroke-opacity:1; 
stroke-linecap:round; stroke-linejoin:round;">
</g>
<g style="fill:#000000; fill-opacity:1.0; 
stroke:#000000; stroke-width:0; stroke-opacity:1; 
stroke-linecap:round; stroke-linejoin:round;">
<circle cx="52000" cy="30000" r="334.646" /> 
</g>
<g style="fill:#000000; fill-opacity:1.0; 
stroke:#000000; stroke-width:39.3701; stroke-opacity:1; 
stroke-linecap:round; stroke-linejoin:round;">
</g>
<g style="fill:#000000; fill-opacity:1.0; 
stroke:#000000; stroke-width:0; stroke-opacity:1; 
stroke-linecap:round; stroke-linejoin:round;">
<circle cx="52000" cy="29000" r="334.646" /> 
</g>
<g style="fill:#000000; fill-opacity:1.0; 
stroke:#000000; stroke-width:39.3701; stroke-opacity:1; 
stroke-linecap:round; stroke-linejoin:round;">
</g>
<g style="fill:#000000; fill-opacity:1.0; 
stroke:#000000; stroke-width:0; stroke-opacity:1; 
stroke-linecap:round; stroke-linejoin:round;">
<path style="fill:#000000; fill-opacity:1.0; 
stroke:#000000; stroke-width:0; stroke-opacity:1; 
stroke-linecap:round; stroke-linejoin:round;fill-rule:evenodd;"
d="M 52245.9,27665.8
52255.4,27667.2
52264.8,27669.6
52273.9,27672.8
52282.6,27677
52290.9,27681.9
52298.7,27687.7
52305.8,27694.2
52312.3,27701.3
52318.1,27709.1
52323,27717.4
52327.2,27726.1
52330.4,27735.2
52332.8,27744.6
52334.2,27754.1
52334.6,27763.8
52334.6,28236.2
52334.2,28245.9
52332.8,28255.4
52330.4,28264.8
52327.2,28273.9
52323,28282.6
52318.1,28290.9
52312.3,28298.7
52305.8,28305.8
52298.7,28312.3
52290.9,28318.1
52282.6,28323
52273.9,28327.2
52264.8,28330.4
52255.4,28332.8
52245.9,28334.2
52236.2,28334.6
51763.8,28334.6
51754.1,28334.2
51744.6,28332.8
51735.2,28330.4
51726.1,28327.2
51717.4,28323
51709.1,28318.1
51701.3,28312.3
51694.2,28305.8
51687.7,28298.7
51681.9,28290.9
51677,28282.6
51672.8,28273.9
51669.6,28264.8
51667.2,28255.4
51665.8,28245.9
51665.4,28236.2
51665.4,27763.8
51665.8,27754.1
51667.2,27744.6
51669.6,27735.2
51672.8,27726.1
51677,27717.4
51681.9,27709.1
51687.7,27701.3
51694.2,27694.2
51701.3,27687.7
51709.1,27681.9
51717.4,27677
51726.1,27672.8
51735.2,27669.6
51744.6,27667.2
51754.1,27665.8
51763.8,27665.4
52236.2,27665.4
Z" /> 
</g>
<g >
</g>
<g style="fill:#000000; fill-opacity:1.0; 
stroke:#000000; stroke-width:0; stroke-opacity:1; 
stroke-linecap:round; stroke-linejoin:round;">
</g>
<g style="fill:#000000; fill-opacity:1.0; 
stroke:#000000; stroke-width:669.291; stroke-opacity:1; 
stroke-linecap:round; stroke-linejoin:round;">
</g>
<g style="fill:#000000; fill-opacity:0.0; 
stroke:#000000; stroke-width:669.291; stroke-opacity:1; 
stroke-linecap:round; stroke-linejoin:round;">
<path d="M59452 34450
L59452 34549
" />
<path d="M58468 34450
L58468 34549
" />
<path d="M57484 34450
L57484 34549
" />
</g>
<g style="fill:#000000; fill-opacity:0.0; 
stroke:#000000; stroke-width:0; stroke-opacity:1; 
stroke-linecap:round; stroke-linejoin:round;">
</g>
<g style="fill:#000000; fill-opacity:1.0; 
stroke:#000000; stroke-width:0; stroke-opacity:1; 
stroke-linecap:round; stroke-linejoin:round;">
<path style="fill:#000000; fill-opacity:1.0; 
stroke:#000000; stroke-width:0; stroke-opacity:1; 
stroke-linecap:round; stroke-linejoin:round;fill-rule:evenodd;"
d="M 56745.9,34116.6
56755.4,34118
56764.8,34120.4
56773.9,34123.6
56782.6,34127.8
56790.9,34132.7
56798.7,34138.5
56805.8,34145
56812.3,34152.1
56818.1,34159.9
56823,34168.2
56827.2,34176.9
56830.4,34186
56832.8,34195.4
56834.2,34204.9
56834.6,34214.6
56834.6,34785.4
56834.2,34795.1
56832.8,34804.6
56830.4,34814
56827.2,34823.1
56823,34831.8
56818.1,34840.1
56812.3,34847.9
56805.8,34855
56798.7,34861.5
56790.9,34867.3
56782.6,34872.2
56773.9,34876.4
56764.8,34879.6
56755.4,34882
56745.9,34883.4
56736.2,34883.9
56263.8,34883.9
56254.1,34883.4
56244.6,34882
56235.2,34879.6
56226.1,34876.4
56217.4,34872.2
56209.1,34867.3
56201.3,34861.5
56194.2,34855
56187.7,34847.9
56181.9,34840.1
56177,34831.8
56172.8,34823.1
56169.6,34814
56167.2,34804.6
56165.8,34795.1
56165.4,34785.4
56165.4,34214.6
56165.8,34204.9
56167.2,34195.4
56169.6,34186
56172.8,34176.9
56177,34168.2
56181.9,34159.9
56187.7,34152.1
56194.2,34145
56201.3,34138.5
56209.1,34132.7
56217.4,34127.8
56226.1,34123.6
56235.2,34120.4
56244.6,34118
56254.1,34116.6
56263.8,34116.1
56736.2,34116.1
Z" /> 
</g>
<g >
</g>
<g style="fill:#000000; fill-opacity:1.0; 
stroke:#000000; stroke-width:0; stroke-opacity:1; 
stroke-linecap:round; stroke-linejoin:round;">
</g>
<g style="fill:#000000; fill-opacity:1.0; 
stroke:#000000; stroke-width:669.291; stroke-opacity:1; 
stroke-linecap:round; stroke-linejoin:round;">
</g>
<g style="fill:#000000; fill-opacity:0.0; 
stroke:#000000; stroke-width:669.291; stroke-opacity:1; 
stroke-linecap:round; stroke-linejoin:round;">
<path d="M59452 30950
L59452 31049
" />
<path d="M58468 30950
L58468 31049
" />
<path d="M57484 30950
L57484 31049
" />
</g>
<g style="fill:#000000; fill-opacity:0.0; 
stroke:#000000; stroke-width:0; stroke-opacity:1; 
stroke-linecap:round; stroke-linejoin:round;">
</g>
<g style="fill:#000000; fill-opacity:1.0; 
stroke:#000000; stroke-width:0; stroke-opacity:1; 
stroke-linecap:round; stroke-linejoin:round;">
<path style="fill:#000000; fill-opacity:1.0; 
stroke:#000000; stroke-width:0; stroke-opacity:1; 
stroke-linecap:round; stroke-linejoin:round;fill-rule:evenodd;"
d="M 56745.9,30616.6
56755.4,30618
56764.8,30620.4
56773.9,30623.6
56782.6,30627.8
56790.9,30632.7
56798.7,30638.5
56805.8,30645
56812.3,30652.1
56818.1,30659.9
56823,30668.2
56827.2,30676.9
56830.4,30686
56832.8,30695.4
56834.2,30704.9
56834.6,30714.6
56834.6,31285.4
56834.2,31295.1
56832.8,31304.6
56830.4,31314
56827.2,31323.1
56823,31331.8
56818.1,31340.1
56812.3,31347.9
56805.8,31355
56798.7,31361.5
56790.9,31367.3
56782.6,31372.2
56773.9,31376.4
56764.8,31379.6
56755.4,31382
56745.9,31383.4
56736.2,31383.9
56263.8,31383.9
56254.1,31383.4
56244.6,31382
56235.2,31379.6
56226.1,31376.4
56217.4,31372.2
56209.1,31367.3
56201.3,31361.5
56194.2,31355
56187.7,31347.9
56181.9,31340.1
56177,31331.8
56172.8,31323.1
56169.6,31314
56167.2,31304.6
56165.8,31295.1
56165.4,31285.4
56165.4,30714.6
56165.8,30704.9
56167.2,30695.4
56169.6,30686
56172.8,30676.9
56177,30668.2
56181.9,30659.9
56187.7,30652.1
56194.2,30645
56201.3,30638.5
56209.1,30632.7
56217.4,30627.8
56226.1,30623.6
56235.2,30620.4
56244.6,30618
56254.1,30616.6
56263.8,30616.1
56736.2,30616.1
Z" /> 
</g>
<g >
</g>
<g style="fill:#000000; fill-opacity:1.0; 
stroke:#000000; stroke-width:0; stroke-opacity:1; 
stroke-linecap:round; stroke-linejoin:round;">
</g>
<g style="fill:#000000; fill-opacity:1.0; 
stroke:#000000; stroke-width:669.291; stroke-opacity:1; 
stroke-linecap:round; stroke-linejoin:round;">
</g>
<g style="fill:#000000; fill-opacity:0.0; 
stroke:#000000; stroke-width:669.291; stroke-opacity:1; 
stroke-linecap:round; stroke-linejoin:round;">
<path d="M59452 27450
L59452 27549
" />
<path d="M58468 27450
L58468 27549
" />
<path d="M57484 27450
L57484 27549
" />
</g>
<g style="fill:#000000; fill-opacity:0.0; 
stroke:#000000; stroke-width:0; stroke-opacity:1; 
stroke-linecap:round; stroke-linejoin:round;">
</g>
<g style="fill:#000000; fill-opacity:1.0; 
stroke:#000000; stroke-width:0; stroke-opacity:1; 
stroke-linecap:round; stroke-linejoin:round;">
<path style="fill:#000000; fill-opacity:1.0; 
stroke:#000000; stroke-width:0; stroke-opacity:1; 
stroke-linecap:round; stroke-linejoin:round;fill-rule:evenodd;"
d="M 56745.9,27116.6
56755.4,27118
56764.8,27120.4
56773.9,27123.6
56782.6,27127.8
56790.9,27132.7
56798.7,27138.5
56805.8,27145
56812.3,27152.1
56818.1,27159.9
56823,27168.2
56827.2,27176.9
56830.4,27186
56832.8,27195.4
56834.2,27204.9
56834.6,27214.6
56834.6,27785.4
56834.2,27795.1
56832.8,27804.6
56830.4,27814
56827.2,27823.1
56823,27831.8
56818.1,27840.1
56812.3,27847.9
56805.8,27855
56798.7,27861.5
56790.9,27867.3
56782.6,27872.2
56773.9,27876.4
56764.8,27879.6
56755.4,27882
56745.9,27883.4
56736.2,27883.9
56263.8,27883.9
56254.1,27883.4
56244.6,27882
56235.2,27879.6
56226.1,27876.4
56217.4,27872.2
56209.1,27867.3
56201.3,27861.5
56194.2,27855
56187.7,27847.9
56181.9,27840.1
56177,27831.8
56172.8,27823.1
56169.6,27814
56167.2,27804.6
56165.8,27795.1
56165.4,27785.4
56165.4,27214.6
56165.8,27204.9
56167.2,27195.4
56169.6,27186
56172.8,27176.9
56177,27168.2
56181.9,27159.9
56187.7,27152.1
56194.2,27145
56201.3,27138.5
56209.1,27132.7
56217.4,27127.8
56226.1,27123.6
56235.2,27120.4
56244.6,27118
56254.1,27116.6
56263.8,27116.1
56736.2,27116.1
Z" /> 
</g>
<g >
</g>
<g style="fill:#000000; fill-opacity:1.0; 
stroke:#000000; stroke-width:0; stroke-opacity:1; 
stroke-linecap:round; stroke-linejoin:round;">
</g>
<g style="fill:#000000; fill-opacity:1.0; 
stroke:#000000; stroke-width:669.291; stroke-opacity:1; 
stroke-linecap:round; stroke-linejoin:round;">
</g>
<g style="fill:#000000; fill-opacity:0.0; 
stroke:#000000; stroke-width:669.291; stroke-opacity:1; 
stroke-linecap:round; stroke-linejoin:round;">
<path d="M59452 46450
L59452 46549
" />
<path d="M58468 46450
L58468 46549
" />
<path d="M57484 46450
L57484 46549
" />
</g>
<g style="fill:#000000; fill-opacity:0.0; 
stroke:#000000; stroke-width:0; stroke-opacity:1; 
stroke-linecap:round; stroke-linejoin:round;">
</g>
<g style="fill:#000000; fill-opacity:1.0; 
stroke:#000000; stroke-width:0; stroke-opacity:1; 
stroke-linecap:round; stroke-linejoin:round;">
<path style="fill:#000000; fill-opacity:1.0; 
stroke:#000000; stroke-width:0; stroke-opacity:1; 
stroke-linecap:round; stroke-linejoin:round;fill-rule:evenodd;"
d="M 56745.9,46116.6
56755.4,46118
56764.8,46120.4
56773.9,46123.6
56782.6,46127.8
56790.9,46132.7
56798.7,46138.5
56805.8,46145
56812.3,46152.1
56818.1,46159.9
56823,46168.2
56827.2,46176.9
56830.4,46186
56832.8,46195.4
56834.2,46204.9
56834.6,46214.6
56834.6,46785.4
56834.2,46795.1
56832.8,46804.6
56830.4,46814
56827.2,46823.1
56823,46831.8
56818.1,46840.1
56812.3,46847.9
56805.8,46855
56798.7,46861.5
56790.9,46867.3
56782.6,46872.2
56773.9,46876.4
56764.8,46879.6
56755.4,46882
56745.9,46883.4
56736.2,46883.9
56263.8,46883.9
56254.1,46883.4
56244.6,46882
56235.2,46879.6
56226.1,46876.4
56217.4,46872.2
56209.1,46867.3
56201.3,46861.5
56194.2,46855
56187.7,46847.9
56181.9,46840.1
56177,46831.8
56172.8,46823.1
56169.6,46814
56167.2,46804.6
56165.8,46795.1
56165.4,46785.4
56165.4,46214.6
56165.8,46204.9
56167.2,46195.4
56169.6,46186
56172.8,46176.9
56177,46168.2
56181.9,46159.9
56187.7,46152.1
56194.2,46145
56201.3,46138.5
56209.1,46132.7
56217.4,46127.8
56226.1,46123.6
56235.2,46120.4
56244.6,46118
56254.1,46116.6
56263.8,46116.1
56736.2,46116.1
Z" /> 
</g>
<g >
</g>
<g style="fill:#000000; fill-opacity:1.0; 
stroke:#000000; stroke-width:0; stroke-opacity:1; 
stroke-linecap:round; stroke-linejoin:round;">
</g>
<g style="fill:#000000; fill-opacity:1.0; 
stroke:#000000; stroke-width:669.291; stroke-opacity:1; 
stroke-linecap:round; stroke-linejoin:round;">
</g>
<g style="fill:#000000; fill-opacity:0.0; 
stroke:#000000; stroke-width:669.291; stroke-opacity:1; 
stroke-linecap:round; stroke-linejoin:round;">
<path d="M59452 42950
L59452 43049
" />
<path d="M58468 42950
L58468 43049
" />
<path d="M57484 42950
L57484 43049
" />
</g>
<g style="fill:#000000; fill-opacity:0.0; 
stroke:#000000; stroke-width:0; stroke-opacity:1; 
stroke-linecap:round; stroke-linejoin:round;">
</g>
<g style="fill:#000000; fill-opacity:1.0; 
stroke:#000000; stroke-width:0; stroke-opacity:1; 
stroke-linecap:round; stroke-linejoin:round;">
<path style="fill:#000000; fill-opacity:1.0; 
stroke:#000000; stroke-width:0; stroke-opacity:1; 
stroke-linecap:round; stroke-linejoin:round;fill-rule:evenodd;"
d="M 56745.9,42616.6
56755.4,42618
56764.8,42620.4
56773.9,42623.6
56782.6,42627.8
56790.9,42632.7
56798.7,42638.5
56805.8,42645
56812.3,42652.1
56818.1,42659.9
56823,42668.2
56827.2,42676.9
56830.4,42686
56832.8,42695.4
56834.2,42704.9
56834.6,42714.6
56834.6,43285.4
56834.2,43295.1
56832.8,43304.6
56830.4,43314
56827.2,43323.1
56823,43331.8
56818.1,43340.1
56812.3,43347.9
56805.8,43355
56798.7,43361.5
56790.9,43367.3
56782.6,43372.2
56773.9,43376.4
56764.8,43379.6
56755.4,43382
56745.9,43383.4
56736.2,43383.9
56263.8,43383.9
56254.1,43383.4
56244.6,43382
56235.2,43379.6
56226.1,43376.4
56217.4,43372.2
56209.1,43367.3
56201.3,43361.5
56194.2,43355
56187.7,43347.9
56181.9,43340.1
56177,43331.8
56172.8,43323.1
56169.6,43314
56167.2,43304.6
56165.8,43295.1
56165.4,43285.4
56165.4,42714.6
56165.8,42704.9
56167.2,42695.4
56169.6,42686
56172.8,42676.9
56177,42668.2
56181.9,42659.9
56187.7,42652.1
56194.2,42645
56201.3,42638.5
56209.1,42632.7
56217.4,42627.8
56226.1,42623.6
56235.2,42620.4
56244.6,42618
56254.1,42616.6
56263.8,42616.1
56736.2,42616.1
Z" /> 
</g>
<g >
</g>
<g style="fill:#000000; fill-opacity:1.0; 
stroke:#000000; stroke-width:0; stroke-opacity:1; 
stroke-linecap:round; stroke-linejoin:round;">
</g>
<g style="fill:#000000; fill-opacity:1.0; 
stroke:#000000; stroke-width:669.291; stroke-opacity:1; 
stroke-linecap:round; stroke-linejoin:round;">
</g>
<g style="fill:#000000; fill-opacity:0.0; 
stroke:#000000; stroke-width:669.291; stroke-opacity:1; 
stroke-linecap:round; stroke-linejoin:round;">
<path d="M59452 39450
L59452 39549
" />
<path d="M58468 39450
L58468 39549
" />
<path d="M57484 39450
L57484 39549
" />
</g>
<g style="fill:#000000; fill-opacity:0.0; 
stroke:#000000; stroke-width:0; stroke-opacity:1; 
stroke-linecap:round; stroke-linejoin:round;">
</g>
<g style="fill:#000000; fill-opacity:1.0; 
stroke:#000000; stroke-width:0; stroke-opacity:1; 
stroke-linecap:round; stroke-linejoin:round;">
<path style="fill:#000000; fill-opacity:1.0; 
stroke:#000000; stroke-width:0; stroke-opacity:1; 
stroke-linecap:round; stroke-linejoin:round;fill-rule:evenodd;"
d="M 56745.9,39116.6
56755.4,39118
56764.8,39120.4
56773.9,39123.6
56782.6,39127.8
56790.9,39132.7
56798.7,39138.5
56805.8,39145
56812.3,39152.1
56818.1,39159.9
56823,39168.2
56827.2,39176.9
56830.4,39186
56832.8,39195.4
56834.2,39204.9
56834.6,39214.6
56834.6,39785.4
56834.2,39795.1
56832.8,39804.6
56830.4,39814
56827.2,39823.1
56823,39831.8
56818.1,39840.1
56812.3,39847.9
56805.8,39855
56798.7,39861.5
56790.9,39867.3
56782.6,39872.2
56773.9,39876.4
56764.8,39879.6
56755.4,39882
56745.9,39883.4
56736.2,39883.9
56263.8,39883.9
56254.1,39883.4
56244.6,39882
56235.2,39879.6
56226.1,39876.4
56217.4,39872.2
56209.1,39867.3
56201.3,39861.5
56194.2,39855
56187.7,39847.9
56181.9,39840.1
56177,39831.8
56172.8,39823.1
56169.6,39814
56167.2,39804.6
56165.8,39795.1
56165.4,39785.4
56165.4,39214.6
56165.8,39204.9
56167.2,39195.4
56169.6,39186
56172.8,39176.9
56177,39168.2
56181.9,39159.9
56187.7,39152.1
56194.2,39145
56201.3,39138.5
56209.1,39132.7
56217.4,39127.8
56226.1,39123.6
56235.2,39120.4
56244.6,39118
56254.1,39116.6
56263.8,39116.1
56736.2,39116.1
Z" /> 
</g>
<g >
</g>
<g style="fill:#000000; fill-opacity:1.0; 
stroke:#000000; stroke-width:0; stroke-opacity:1; 
stroke-linecap:round; stroke-linejoin:round;">
<circle cx="50500" cy="50500" r="1181.1" /> 
</g>
<g style="fill:#000000; fill-opacity:1.0; 
stroke:#000000; stroke-width:39.3701; stroke-opacity:1; 
stroke-linecap:round; stroke-linejoin:round;">
</g>
<g >
</g>
<g style="fill:#000000; fill-opacity:1.0; 
stroke:#000000; stroke-width:39.3701; stroke-opacity:1; 
stroke-linecap:round; stroke-linejoin:round;">
</g>
<g style="fill:#000000; fill-opacity:1.0; 
stroke:#000000; stroke-width:0; stroke-opacity:1; 
stroke-linecap:round; stroke-linejoin:round;">
<circle cx="64000" cy="50500" r="1181.1" /> 
</g>
<g style="fill:#000000; fill-opacity:1.0; 
stroke:#000000; stroke-width:39.3701; stroke-opacity:1; 
stroke-linecap:round; stroke-linejoin:round;">
</g>
<g >
</g>
<g style="fill:#000000; fill-opacity:1.0; 
stroke:#000000; stroke-width:39.3701; stroke-opacity:1; 
stroke-linecap:round; stroke-linejoin:round;">
</g>
<g style="fill:#000000; fill-opacity:1.0; 
stroke:#000000; stroke-width:0; stroke-opacity:1; 
stroke-linecap:round; stroke-linejoin:round;">
<circle cx="50500" cy="24500" r="1181.1" /> 
</g>
<g style="fill:#000000; fill-opacity:1.0; 
stroke:#000000; stroke-width:39.3701; stroke-opacity:1; 
stroke-linecap:round; stroke-linejoin:round;">
</g>
<g >
</g>
<g style="fill:#000000; fill-opacity:1.0; 
stroke:#000000; stroke-width:39.3701; stroke-opacity:1; 
stroke-linecap:round; stroke-linejoin:round;">
</g>
<g style="fill:#000000; fill-opacity:1.0; 
stroke:#000000; stroke-width:0; stroke-opacity:1; 
stroke-linecap:round; stroke-linejoin:round;">
<circle cx="64000" cy="24500" r="1181.1" /> 
</g>
<g style="fill:#000000; fill-opacity:1.0; 
stroke:#000000; stroke-width:39.3701; stroke-opacity:1; 
stroke-linecap:round; stroke-linejoin:round;">
</g>
<g >
</g>
<g >
</g>
<g style="fill:#000000; fill-opacity:1.0; 
stroke:#000000; stroke-width:39.3701; stroke-opacity:1; 
stroke-linecap:round; stroke-linejoin:round;">
</g>
<g style="fill:#000000; fill-opacity:1.0; 
stroke:#000000; stroke-width:98.4252; stroke-opacity:1; 
stroke-linecap:round; stroke-linejoin:round;">
</g>
<g style="fill:#000000; fill-opacity:0.0; 
stroke:#000000; stroke-width:98.4252; stroke-opacity:1; 
stroke-linecap:round; stroke-linejoin:round;">
<path d="M52502 44497
L53000 44000
" />
<path d="M52502 46497
L52502 44497
" />
<path d="M52000 47000
L52502 46497
" />
<path d="M53000 44000
L52500 43500
" />
<path d="M52500 42500
L53000 42000
" />
<path d="M52500 43500
L52500 42500
" />
<path d="M52502 40502
L52000 40000
" />
<path d="M52502 41502
L52502 40502
" />
<path d="M53000 42000
L52502 41502
" />
<path d="M52502 37497
L53000 37000
" />
<path d="M52502 39497
L52502 37497
" />
<path d="M52000 40000
L52502 39497
" />
<path d="M53000 37000
L52500 36500
" />
<path d="M52500 34500
L53000 34000
" />
<path d="M52500 36500
L52500 34500
" />
<path d="M52497 32497
L52000 32000
" />
<path d="M52497 33497
L52497 32497
" />
<path d="M53000 34000
L52497 33497
" />
<path d="M52497 30502
L53000 30000
" />
<path d="M52497 31502
L52497 30502
" />
<path d="M52000 32000
L52497 31502
" />
</g>
<g >
</g>
<g style="fill:#000000; fill-opacity:0.0; 
stroke:#000000; stroke-width:98.4252; stroke-opacity:1; 
stroke-linecap:round; stroke-linejoin:round;">
<g >
</g>
<g style="fill:#000000; fill-opacity:1.0; 
stroke:#000000; stroke-width:100; stroke-opacity:1; 
stroke-linecap:round; stroke-linejoin:round;">
<path style="fill:#000000; fill-opacity:1.0; 
stroke:#000000; stroke-width:100; stroke-opacity:1; 
stroke-linecap:round; stroke-linejoin:round;fill-rule:evenodd;"
d="M 62992.6,23563.4
62807.9,23695.7
62673.9,23943.7
62590.9,24213.1
62562,24493.5
62588.4,24774.2
62669,25044.3
62800.7,25293.5
62807.9,25304.3
62992.6,25436.6
63929.3,24500
63923.7,24494.4
63994.4,24423.7
64000,24429.3
64005.6,24423.7
64076.3,24494.4
64070.7,24500
64076.3,24505.6
64005.6,24576.3
64000,24570.7
63063.4,25507.4
63195.7,25692.1
63443.7,25826.1
63713.1,25909.1
63993.5,25938
64274.2,25911.6
64544.3,25831
64793.5,25699.3
64804.3,25692.1
64936.6,25507.4
64950,25520.7
64950,49479.3
64936.6,49492.6
64804.3,49307.9
64556.3,49173.9
64286.9,49090.9
64006.5,49062
63725.8,49088.4
63455.7,49169
63206.5,49300.7
63195.7,49307.9
63063.4,49492.6
64000,50429.3
64005.6,50423.7
64076.3,50494.4
64070.7,50500
64076.3,50505.6
64005.6,50576.3
64000,50570.7
63994.4,50576.3
63923.7,50505.6
63929.3,50500
62992.6,49563.4
62807.9,49695.7
62673.9,49943.7
62590.9,50213.1
62562,50493.5
62588.4,50774.2
62669,51044.3
62800.7,51293.5
62807.9,51304.3
62992.6,51436.6
62979.3,51450
51520.7,51450
51507.4,51436.6
51692.1,51304.3
51826.1,51056.3
51909.1,50786.9
51938,50506.5
51911.6,50225.8
51831,49955.7
51699.3,49706.5
51692.1,49695.7
51507.4,49563.4
50570.7,50500
50576.3,50505.6
50505.6,50576.3
50500,50570.7
50494.4,50576.3
50423.7,50505.6
50429.3,50500
50423.7,50494.4
50494.4,50423.7
50500,50429.3
51436.6,49492.6
51304.3,49307.9
51056.3,49173.9
50786.9,49090.9
50506.5,49062
50225.8,49088.4
49955.7,49169
49706.5,49300.7
49695.7,49307.9
49563.4,49492.6
49550,49479.3
49550,47404.9
51665.8,47404.9
51696.4,47502.9
51800.3,47552.5
51912,47580.8
52027,47586.9
52141,47570.3
52249.5,47531.9
52303.6,47502.9
52334.2,47404.9
52000,47070.7
51665.8,47404.9
49550,47404.9
49550,47027
51413.1,47027
51429.7,47141
51468.1,47249.5
51497.1,47303.6
51595.1,47334.2
51929.3,47000
51595.1,46665.8
51497.1,46696.4
51447.5,46800.3
51419.2,46912
51413.1,47027
49550,47027
49550,40027
51413.1,40027
51429.7,40141
51468.1,40249.5
51497.1,40303.6
51595.1,40334.2
51929.3,40000
51595.1,39665.8
51497.1,39696.4
51447.5,39800.3
51419.2,39912
51413.1,40027
49550,40027
49550,32027
51413.1,32027
51429.7,32141
51468.1,32249.5
51497.1,32303.6
51595.1,32334.2
51929.3,32000
51595.1,31665.8
51497.1,31696.4
51447.5,31800.3
51419.2,31912
51413.1,32027
49550,32027
49550,27763.8
51414.1,27763.8
51414.1,28236.2
51420.9,28304.4
51440.8,28370
51473.1,28430.5
51516.6,28483.4
51569.5,28526.9
51619.5,28553.7
51545.9,28627.3
51481.9,28723.1
51437.8,28829.5
51415.4,28942.4
51415.4,29057.6
51437.8,29170.5
51481.9,29276.9
51545.9,29372.7
51627.3,29454.1
51696,29500
51627.3,29545.9
51545.9,29627.3
51481.9,29723.1
51437.8,29829.5
51415.4,29942.4
51415.4,30057.6
51437.8,30170.5
51481.9,30276.9
51545.9,30372.7
51627.3,30454.1
51696,30500
51627.3,30545.9
51545.9,30627.3
51481.9,30723.1
51437.8,30829.5
51415.4,30942.4
51415.4,31057.6
51437.8,31170.5
51481.9,31276.9
51545.9,31372.7
51627.3,31454.1
51695.6,31499.7
51665.8,31595.1
52000,31929.3
52334.2,31595.1
52304.4,31499.7
52372.7,31454.1
52454.1,31372.7
52500,31304
52545.9,31372.7
52627.3,31454.1
52696,31500
52627.3,31545.9
52545.9,31627.3
52500.3,31695.6
52404.9,31665.8
52070.7,32000
52404.9,32334.2
52500.3,32304.4
52545.9,32372.7
52627.3,32454.1
52696,32500
52627.3,32545.9
52545.9,32627.3
52500,32696
52454.1,32627.3
52372.7,32545.9
52304.4,32500.3
52334.2,32404.9
52000,32070.7
51665.8,32404.9
51695.6,32500.3
51627.3,32545.9
51545.9,32627.3
51481.9,32723.1
51437.8,32829.5
51415.4,32942.4
51415.4,33057.6
51437.8,33170.5
51481.9,33276.9
51545.9,33372.7
51627.3,33454.1
51696,33500
51627.3,33545.9
51545.9,33627.3
51481.9,33723.1
51437.8,33829.5
51415.4,33942.4
51415.4,34057.6
51437.8,34170.5
51481.9,34276.9
51545.9,34372.7
51627.3,34454.1
51696,34500
51627.3,34545.9
51545.9,34627.3
51481.9,34723.1
51437.8,34829.5
51415.4,34942.4
51415.4,35057.6
51437.8,35170.5
51481.9,35276.9
51545.9,35372.7
51627.3,35454.1
51696,35500
51627.3,35545.9
51545.9,35627.3
51481.9,35723.1
51437.8,35829.5
51415.4,35942.4
51415.4,36057.6
51437.8,36170.5
51481.9,36276.9
51545.9,36372.7
51627.3,36454.1
51696,36500
51627.3,36545.9
51545.9,36627.3
51481.9,36723.1
51437.8,36829.5
51415.4,36942.4
51415.4,37057.6
51437.8,37170.5
51481.9,37276.9
51545.9,37372.7
51627.3,37454.1
51696,37500
51627.3,37545.9
51545.9,37627.3
51481.9,37723.1
51437.8,37829.5
51415.4,37942.4
51415.4,38057.6
51437.8,38170.5
51481.9,38276.9
51545.9,38372.7
51627.3,38454.1
51696,38500
51627.3,38545.9
51545.9,38627.3
51481.9,38723.1
51437.8,38829.5
51415.4,38942.4
51415.4,39057.6
51437.8,39170.5
51481.9,39276.9
51545.9,39372.7
51627.3,39454.1
51695.6,39499.7
51665.8,39595.1
52000,39929.3
52334.2,39595.1
52304.4,39499.7
52372.7,39454.1
52454.1,39372.7
52500,39304
52545.9,39372.7
52627.3,39454.1
52696,39500
52627.3,39545.9
52545.9,39627.3
52500.3,39695.6
52404.9,39665.8
52070.7,40000
52404.9,40334.2
52500.3,40304.4
52545.9,40372.7
52627.3,40454.1
52696,40500
52627.3,40545.9
52545.9,40627.3
52500,40696
52454.1,40627.3
52372.7,40545.9
52304.4,40500.3
52334.2,40404.9
52000,40070.7
51665.8,40404.9
51695.6,40500.3
51627.3,40545.9
51545.9,40627.3
51481.9,40723.1
51437.8,40829.5
51415.4,40942.4
51415.4,41057.6
51437.8,41170.5
51481.9,41276.9
51545.9,41372.7
51627.3,41454.1
51696,41500
51627.3,41545.9
51545.9,41627.3
51481.9,41723.1
51437.8,41829.5
51415.4,41942.4
51415.4,42057.6
51437.8,42170.5
51481.9,42276.9
51545.9,42372.7
51627.3,42454.1
51696,42500
51627.3,42545.9
51545.9,42627.3
51481.9,42723.1
51437.8,42829.5
51415.4,42942.4
51415.4,43057.6
51437.8,43170.5
51481.9,43276.9
51545.9,43372.7
51627.3,43454.1
51696,43500
51627.3,43545.9
51545.9,43627.3
51481.9,43723.1
51437.8,43829.5
51415.4,43942.4
51415.4,44057.6
51437.8,44170.5
51481.9,44276.9
51545.9,44372.7
51627.3,44454.1
51696,44500
51627.3,44545.9
51545.9,44627.3
51481.9,44723.1
51437.8,44829.5
51415.4,44942.4
51415.4,45057.6
51437.8,45170.5
51481.9,45276.9
51545.9,45372.7
51627.3,45454.1
51696,45500
51627.3,45545.9
51545.9,45627.3
51481.9,45723.1
51437.8,45829.5
51415.4,45942.4
51415.4,46057.6
51437.8,46170.5
51481.9,46276.9
51545.9,46372.7
51627.3,46454.1
51695.6,46499.7
51665.8,46595.1
52000,46929.3
52334.2,46595.1
52304.4,46499.7
52372.7,46454.1
52454.1,46372.7
52500,46304
52545.9,46372.7
52627.3,46454.1
52696,46500
52627.3,46545.9
52545.9,46627.3
52500.3,46695.6
52404.9,46665.8
52070.7,47000
52404.9,47334.2
52500.3,47304.4
52545.9,47372.7
52627.3,47454.1
52723.1,47518.1
52829.5,47562.2
52942.4,47584.6
53057.6,47584.6
53170.5,47562.2
53276.9,47518.1
53372.7,47454.1
53454.1,47372.7
53518.1,47276.9
53562.2,47170.5
53584.6,47057.6
53584.6,46942.4
53562.2,46829.5
53518.1,46723.1
53454.1,46627.3
53372.7,46545.9
53304,46500
53372.7,46454.1
53454.1,46372.7
53518.1,46276.9
53543.9,46214.6
55914.1,46214.6
55914.1,46785.4
55920.9,46853.6
55940.8,46919.2
55973.1,46979.7
56016.6,47032.7
56069.5,47076.1
56130,47108.5
56195.6,47128.3
56263.8,47135.1
56736.2,47135.1
56804.4,47128.3
56870,47108.5
56930.5,47076.1
56983.4,47032.7
57026.9,46979.7
57048.3,46939.6
57068.8,46964.6
57157.9,47037.7
57259.4,47092
57369.6,47125.4
57484.3,47136.7
57598.9,47125.4
57709.1,47092
57810.6,47037.7
57899.7,46964.6
57972.7,46875.6
57976.4,46868.8
57980,46875.6
58053.1,46964.6
58142.1,47037.7
58243.7,47092
58353.9,47125.4
58468.5,47136.7
58583.1,47125.4
58693.3,47092
58794.9,47037.7
58883.9,46964.6
58957,46875.6
58960.6,46868.8
58964.3,46875.6
59037.3,46964.6
59126.4,47037.7
59227.9,47092
59338.1,47125.4
59452.8,47136.7
59567.4,47125.4
59677.6,47092
59779.1,47037.7
59868.2,46964.6
59941.2,46875.6
59995.5,46774
60028.9,46663.8
60037.4,46577.9
60037.4,46422.1
60028.9,46336.2
59995.5,46226
59941.2,46124.4
59868.2,46035.4
59779.1,45962.3
59677.6,45908
59567.4,45874.6
59452.8,45863.3
59338.1,45874.6
59227.9,45908
59126.4,45962.3
59037.3,46035.4
58964.3,46124.4
58960.6,46131.2
58957,46124.4
58883.9,46035.4
58794.9,45962.3
58693.3,45908
58583.1,45874.6
58468.5,45863.3
58353.9,45874.6
58243.7,45908
58142.1,45962.3
58053.1,46035.4
57980,46124.4
57976.4,46131.2
57972.7,46124.4
57899.7,46035.4
57810.6,45962.3
57709.1,45908
57598.9,45874.6
57484.3,45863.3
57369.6,45874.6
57259.4,45908
57157.9,45962.3
57068.8,46035.4
57048.3,46060.4
57026.9,46020.3
56983.4,45967.3
56930.5,45923.9
56870,45891.5
56804.4,45871.7
56736.2,45864.9
56263.8,45864.9
56195.6,45871.7
56130,45891.5
56069.5,45923.9
56016.6,45967.3
55973.1,46020.3
55940.8,46080.8
55920.9,46146.4
55914.1,46214.6
53543.9,46214.6
53562.2,46170.5
53584.6,46057.6
53584.6,45942.4
53562.2,45829.5
53518.1,45723.1
53454.1,45627.3
53372.7,45545.9
53304,45500
53372.7,45454.1
53454.1,45372.7
53518.1,45276.9
53562.2,45170.5
53584.6,45057.6
53584.6,44942.4
53562.2,44829.5
53518.1,44723.1
53454.1,44627.3
53372.7,44545.9
53304.4,44500.3
53334.2,44404.9
53000,44070.7
52665.8,44404.9
52695.6,44500.3
52627.3,44545.9
52545.9,44627.3
52500,44696
52454.1,44627.3
52372.7,44545.9
52304,44500
52372.7,44454.1
52454.1,44372.7
52499.7,44304.4
52595.1,44334.2
52929.3,44000
53070.7,44000
53404.9,44334.2
53502.9,44303.6
53552.5,44199.7
53580.8,44088
53586.9,43973
53570.3,43859
53531.9,43750.5
53502.9,43696.4
53404.9,43665.8
53070.7,44000
52929.3,44000
52595.1,43665.8
52499.7,43695.6
52454.1,43627.3
52372.7,43545.9
52304,43500
52372.7,43454.1
52454.1,43372.7
52500,43304
52545.9,43372.7
52627.3,43454.1
52695.6,43499.7
52665.8,43595.1
53000,43929.3
53334.2,43595.1
53304.4,43499.7
53372.7,43454.1
53454.1,43372.7
53518.1,43276.9
53562.2,43170.5
53584.6,43057.6
53584.6,42942.4
53562.2,42829.5
53518.1,42723.1
53512.4,42714.6
55914.1,42714.6
55914.1,43285.4
55920.9,43353.6
55940.8,43419.2
55973.1,43479.7
56016.6,43532.7
56069.5,43576.1
56130,43608.5
56195.6,43628.3
56263.8,43635.1
56736.2,43635.1
56804.4,43628.3
56870,43608.5
56930.5,43576.1
56983.4,43532.7
57026.9,43479.7
57048.3,43439.6
57068.8,43464.6
57157.9,43537.7
57259.4,43592
57369.6,43625.4
57484.3,43636.7
57598.9,43625.4
57709.1,43592
57810.6,43537.7
57899.7,43464.6
57972.7,43375.6
57976.4,43368.8
57980,43375.6
58053.1,43464.6
58142.1,43537.7
58243.7,43592
58353.9,43625.4
58468.5,43636.7
58583.1,43625.4
58693.3,43592
58794.9,43537.7
58883.9,43464.6
58957,43375.6
58960.6,43368.8
58964.3,43375.6
59037.3,43464.6
59126.4,43537.7
59227.9,43592
59338.1,43625.4
59452.8,43636.7
59567.4,43625.4
59677.6,43592
59779.1,43537.7
59868.2,43464.6
59941.2,43375.6
59995.5,43274
60028.9,43163.8
60037.4,43077.9
60037.4,42922.1
60028.9,42836.2
59995.5,42726
59941.2,42624.4
59868.2,42535.4
59779.1,42462.3
59677.6,42408
59567.4,42374.6
59452.8,42363.3
59338.1,42374.6
59227.9,42408
59126.4,42462.3
59037.3,42535.4
58964.3,42624.4
58960.6,42631.2
58957,42624.4
58883.9,42535.4
58794.9,42462.3
58693.3,42408
58583.1,42374.6
58468.5,42363.3
58353.9,42374.6
58243.7,42408
58142.1,42462.3
58053.1,42535.4
57980,42624.4
57976.4,42631.2
57972.7,42624.4
57899.7,42535.4
57810.6,42462.3
57709.1,42408
57598.9,42374.6
57484.3,42363.3
57369.6,42374.6
57259.4,42408
57157.9,42462.3
57068.8,42535.4
57048.3,42560.4
57026.9,42520.3
56983.4,42467.3
56930.5,42423.9
56870,42391.5
56804.4,42371.7
56736.2,42364.9
56263.8,42364.9
56195.6,42371.7
56130,42391.5
56069.5,42423.9
56016.6,42467.3
55973.1,42520.3
55940.8,42580.8
55920.9,42646.4
55914.1,42714.6
53512.4,42714.6
53454.1,42627.3
53372.7,42545.9
53304.4,42500.3
53334.2,42404.9
53000,42070.7
52665.8,42404.9
52695.6,42500.3
52627.3,42545.9
52545.9,42627.3
52500,42696
52454.1,42627.3
52372.7,42545.9
52304,42500
52372.7,42454.1
52454.1,42372.7
52499.7,42304.4
52595.1,42334.2
52929.3,42000
53070.7,42000
53404.9,42334.2
53502.9,42303.6
53552.5,42199.7
53580.8,42088
53586.9,41973
53570.3,41859
53531.9,41750.5
53502.9,41696.4
53404.9,41665.8
53070.7,42000
52929.3,42000
52595.1,41665.8
52499.7,41695.6
52454.1,41627.3
52372.7,41545.9
52304,41500
52372.7,41454.1
52454.1,41372.7
52500,41304
52545.9,41372.7
52627.3,41454.1
52695.6,41499.7
52665.8,41595.1
53000,41929.3
53334.2,41595.1
53304.4,41499.7
53372.7,41454.1
53454.1,41372.7
53518.1,41276.9
53562.2,41170.5
53584.6,41057.6
53584.6,40942.4
53562.2,40829.5
53518.1,40723.1
53454.1,40627.3
53372.7,40545.9
53304,40500
53372.7,40454.1
53454.1,40372.7
53518.1,40276.9
53562.2,40170.5
53584.6,40057.6
53584.6,39942.4
53562.2,39829.5
53518.1,39723.1
53454.1,39627.3
53372.7,39545.9
53304,39500
53372.7,39454.1
53454.1,39372.7
53518.1,39276.9
53543.9,39214.6
55914.1,39214.6
55914.1,39785.4
55920.9,39853.6
55940.8,39919.2
55973.1,39979.7
56016.6,40032.7
56069.5,40076.1
56130,40108.5
56195.6,40128.3
56263.8,40135.1
56736.2,40135.1
56804.4,40128.3
56870,40108.5
56930.5,40076.1
56983.4,40032.7
57026.9,39979.7
57048.3,39939.6
57068.8,39964.6
57157.9,40037.7
57259.4,40092
57369.6,40125.4
57484.3,40136.7
57598.9,40125.4
57709.1,40092
57810.6,40037.7
57899.7,39964.6
57972.7,39875.6
57976.4,39868.8
57980,39875.6
58053.1,39964.6
58142.1,40037.7
58243.7,40092
58353.9,40125.4
58468.5,40136.7
58583.1,40125.4
58693.3,40092
58794.9,40037.7
58883.9,39964.6
58957,39875.6
58960.6,39868.8
58964.3,39875.6
59037.3,39964.6
59126.4,40037.7
59227.9,40092
59338.1,40125.4
59452.8,40136.7
59567.4,40125.4
59677.6,40092
59779.1,40037.7
59868.2,39964.6
59941.2,39875.6
59995.5,39774
60028.9,39663.8
60037.4,39577.9
60037.4,39422.1
60028.9,39336.2
59995.5,39226
59941.2,39124.4
59868.2,39035.4
59779.1,38962.3
59677.6,38908
59567.4,38874.6
59452.8,38863.3
59338.1,38874.6
59227.9,38908
59126.4,38962.3
59037.3,39035.4
58964.3,39124.4
58960.6,39131.2
58957,39124.4
58883.9,39035.4
58794.9,38962.3
58693.3,38908
58583.1,38874.6
58468.5,38863.3
58353.9,38874.6
58243.7,38908
58142.1,38962.3
58053.1,39035.4
57980,39124.4
57976.4,39131.2
57972.7,39124.4
57899.7,39035.4
57810.6,38962.3
57709.1,38908
57598.9,38874.6
57484.3,38863.3
57369.6,38874.6
57259.4,38908
57157.9,38962.3
57068.8,39035.4
57048.3,39060.4
57026.9,39020.3
56983.4,38967.3
56930.5,38923.9
56870,38891.5
56804.4,38871.7
56736.2,38864.9
56263.8,38864.9
56195.6,38871.7
56130,38891.5
56069.5,38923.9
56016.6,38967.3
55973.1,39020.3
55940.8,39080.8
55920.9,39146.4
55914.1,39214.6
53543.9,39214.6
53562.2,39170.5
53584.6,39057.6
53584.6,38942.4
53562.2,38829.5
53518.1,38723.1
53454.1,38627.3
53372.7,38545.9
53304,38500
53372.7,38454.1
53454.1,38372.7
53518.1,38276.9
53562.2,38170.5
53584.6,38057.6
53584.6,38015.7
62363.3,38015.7
62374.6,38130.4
62408,38240.6
62462.3,38342.1
62535.4,38431.2
62560.4,38451.7
62520.3,38473.1
62467.3,38516.6
62423.9,38569.5
62391.5,38630
62371.7,38695.6
62364.9,38763.8
62364.9,39236.2
62371.7,39304.4
62391.5,39370
62423.9,39430.5
62467.3,39483.4
62520.3,39526.9
62580.8,39559.2
62646.4,39579.1
62714.6,39585.9
63285.4,39585.9
63353.6,39579.1
63419.2,39559.2
63479.7,39526.9
63532.7,39483.4
63576.1,39430.5
63608.5,39370
63628.3,39304.4
63635.1,39236.2
63635.1,38763.8
63628.3,38695.6
63608.5,38630
63576.1,38569.5
63532.7,38516.6
63479.7,38473.1
63439.6,38451.7
63464.6,38431.2
63537.7,38342.1
63592,38240.6
63625.4,38130.4
63636.7,38015.7
63625.4,37901.1
63592,37790.9
63537.7,37689.4
63464.6,37600.3
63375.6,37527.3
63365.5,37521.9
63446.6,37460.3
63522.6,37374.5
63580.5,37275.5
63616.7,37172
63569,37081.5
63050,37081.5
63050,37089.4
62950,37089.4
62950,37081.5
62431,37081.5
62383.3,37172
62419.5,37275.5
62477.4,37374.5
62553.4,37460.3
62634.5,37521.9
62624.4,37527.3
62535.4,37600.3
62462.3,37689.4
62408,37790.9
62374.6,37901.1
62363.3,38015.7
53584.6,38015.7
53584.6,37942.4
53562.2,37829.5
53518.1,37723.1
53454.1,37627.3
53372.7,37545.9
53304.4,37500.3
53334.2,37404.9
53000,37070.7
52665.8,37404.9
52695.6,37500.3
52627.3,37545.9
52545.9,37627.3
52500,37696
52454.1,37627.3
52372.7,37545.9
52304,37500
52372.7,37454.1
52454.1,37372.7
52499.7,37304.4
52595.1,37334.2
52929.3,37000
53070.7,37000
53404.9,37334.2
53502.9,37303.6
53552.5,37199.7
53580.8,37088
53586.9,36973
53570.3,36859
53531.9,36750.5
53502.9,36696.4
53404.9,36665.8
53070.7,37000
52929.3,37000
52595.1,36665.8
52499.7,36695.6
52454.1,36627.3
52372.7,36545.9
52304,36500
52372.7,36454.1
52454.1,36372.7
52500,36304
52545.9,36372.7
52627.3,36454.1
52695.6,36499.7
52665.8,36595.1
53000,36929.3
53334.2,36595.1
53304.4,36499.7
53372.7,36454.1
53454.1,36372.7
53518.1,36276.9
53555,36187.8
62383.3,36187.8
62419.5,36291.3
62477.4,36390.2
62553.4,36476
62636.9,36539.4
62553.4,36602.7
62477.4,36688.5
62419.5,36787.5
62383.3,36891
62431,36981.5
62950,36981.5
62950,36097.2
63050,36097.2
63050,36981.5
63569,36981.5
63616.7,36891
63580.5,36787.5
63522.6,36688.5
63446.6,36602.7
63363.1,36539.4
63446.6,36476
63522.6,36390.2
63580.5,36291.3
63616.7,36187.8
63569,36097.2
63050,36097.2
62950,36097.2
62431,36097.2
62383.3,36187.8
53555,36187.8
53562.2,36170.5
53584.6,36057.6
53584.6,35942.4
53577.5,35906.7
62383.3,35906.7
62431,35997.2
62950,35997.2
62950,35525.1
63050,35525.1
63050,35997.2
63569,35997.2
63616.7,35906.7
63580.5,35803.2
63522.6,35704.3
63446.6,35618.5
63355.3,35549.2
63252.3,35499
63141.4,35470
63050,35525.1
62950,35525.1
62858.6,35470
62747.7,35499
62644.7,35549.2
62553.4,35618.5
62477.4,35704.3
62419.5,35803.2
62383.3,35906.7
53577.5,35906.7
53562.2,35829.5
53518.1,35723.1
53454.1,35627.3
53372.7,35545.9
53304,35500
53372.7,35454.1
53454.1,35372.7
53518.1,35276.9
53562.2,35170.5
53584.6,35057.6
53584.6,34942.4
53562.2,34829.5
53518.1,34723.1
53454.1,34627.3
53372.7,34545.9
53304.4,34500.3
53334.2,34404.9
53000,34070.7
52665.8,34404.9
52695.6,34500.3
52627.3,34545.9
52545.9,34627.3
52500,34696
52454.1,34627.3
52372.7,34545.9
52304,34500
52372.7,34454.1
52454.1,34372.7
52499.7,34304.4
52595.1,34334.2
52929.3,34000
53070.7,34000
53404.9,34334.2
53502.9,34303.6
53545.4,34214.6
55914.1,34214.6
55914.1,34785.4
55920.9,34853.6
55940.8,34919.2
55973.1,34979.7
56016.6,35032.7
56069.5,35076.1
56130,35108.5
56195.6,35128.3
56263.8,35135.1
56736.2,35135.1
56804.4,35128.3
56870,35108.5
56930.5,35076.1
56983.4,35032.7
57026.9,34979.7
57048.3,34939.6
57068.8,34964.6
57157.9,35037.7
57259.4,35092
57369.6,35125.4
57484.3,35136.7
57598.9,35125.4
57709.1,35092
57810.6,35037.7
57899.7,34964.6
57972.7,34875.6
57976.4,34868.8
57980,34875.6
58053.1,34964.6
58142.1,35037.7
58243.7,35092
58353.9,35125.4
58468.5,35136.7
58583.1,35125.4
58693.3,35092
58794.9,35037.7
58883.9,34964.6
58957,34875.6
58960.6,34868.8
58964.3,34875.6
59037.3,34964.6
59126.4,35037.7
59227.9,35092
59338.1,35125.4
59452.8,35136.7
59567.4,35125.4
59677.6,35092
59779.1,35037.7
59868.2,34964.6
59941.2,34875.6
59995.5,34774
60028.9,34663.8
60037.4,34577.9
60037.4,34422.1
60028.9,34336.2
59995.5,34226
59941.2,34124.4
59868.2,34035.4
59779.1,33962.3
59677.6,33908
59567.4,33874.6
59452.8,33863.3
59338.1,33874.6
59227.9,33908
59126.4,33962.3
59037.3,34035.4
58964.3,34124.4
58960.6,34131.2
58957,34124.4
58883.9,34035.4
58794.9,33962.3
58693.3,33908
58583.1,33874.6
58468.5,33863.3
58353.9,33874.6
58243.7,33908
58142.1,33962.3
58053.1,34035.4
57980,34124.4
57976.4,34131.2
57972.7,34124.4
57899.7,34035.4
57810.6,33962.3
57709.1,33908
57598.9,33874.6
57484.3,33863.3
57369.6,33874.6
57259.4,33908
57157.9,33962.3
57068.8,34035.4
57048.3,34060.4
57026.9,34020.3
56983.4,33967.3
56930.5,33923.9
56870,33891.5
56804.4,33871.7
56736.2,33864.9
56263.8,33864.9
56195.6,33871.7
56130,33891.5
56069.5,33923.9
56016.6,33967.3
55973.1,34020.3
55940.8,34080.8
55920.9,34146.4
55914.1,34214.6
53545.4,34214.6
53552.5,34199.7
53580.8,34088
53586.9,33973
53570.3,33859
53531.9,33750.5
53502.9,33696.4
53404.9,33665.8
53070.7,34000
52929.3,34000
52595.1,33665.8
52499.7,33695.6
52454.1,33627.3
52372.7,33545.9
52304,33500
52372.7,33454.1
52454.1,33372.7
52500,33304
52545.9,33372.7
52627.3,33454.1
52695.6,33499.7
52665.8,33595.1
53000,33929.3
53334.2,33595.1
53304.4,33499.7
53372.7,33454.1
53454.1,33372.7
53518.1,33276.9
53562.2,33170.5
53584.6,33057.6
53584.6,32942.4
53562.2,32829.5
53518.1,32723.1
53454.1,32627.3
53372.7,32545.9
53304,32500
53372.7,32454.1
53454.1,32372.7
53518.1,32276.9
53562.2,32170.5
53584.6,32057.6
53584.6,31942.4
53562.2,31829.5
53518.1,31723.1
53454.1,31627.3
53372.7,31545.9
53304,31500
53372.7,31454.1
53454.1,31372.7
53518.1,31276.9
53562.2,31170.5
53584.6,31057.6
53584.6,30942.4
53562.2,30829.5
53518.1,30723.1
53512.4,30714.6
55914.1,30714.6
55914.1,31285.4
55920.9,31353.6
55940.8,31419.2
55973.1,31479.7
56016.6,31532.7
56069.5,31576.1
56130,31608.5
56195.6,31628.3
56263.8,31635.1
56736.2,31635.1
56804.4,31628.3
56870,31608.5
56930.5,31576.1
56983.4,31532.7
57026.9,31479.7
57048.3,31439.6
57068.8,31464.6
57157.9,31537.7
57259.4,31592
57369.6,31625.4
57484.3,31636.7
57598.9,31625.4
57709.1,31592
57810.6,31537.7
57899.7,31464.6
57972.7,31375.6
57976.4,31368.8
57980,31375.6
58053.1,31464.6
58142.1,31537.7
58243.7,31592
58353.9,31625.4
58468.5,31636.7
58583.1,31625.4
58693.3,31592
58794.9,31537.7
58883.9,31464.6
58957,31375.6
58960.6,31368.8
58964.3,31375.6
59037.3,31464.6
59126.4,31537.7
59227.9,31592
59338.1,31625.4
59452.8,31636.7
59567.4,31625.4
59677.6,31592
59779.1,31537.7
59868.2,31464.6
59941.2,31375.6
59995.5,31274
60028.9,31163.8
60037.4,31077.9
60037.4,30922.1
60028.9,30836.2
59995.5,30726
59941.2,30624.4
59868.2,30535.4
59779.1,30462.3
59677.6,30408
59567.4,30374.6
59452.8,30363.3
59338.1,30374.6
59227.9,30408
59126.4,30462.3
59037.3,30535.4
58964.3,30624.4
58960.6,30631.2
58957,30624.4
58883.9,30535.4
58794.9,30462.3
58693.3,30408
58583.1,30374.6
58468.5,30363.3
58353.9,30374.6
58243.7,30408
58142.1,30462.3
58053.1,30535.4
57980,30624.4
57976.4,30631.2
57972.7,30624.4
57899.7,30535.4
57810.6,30462.3
57709.1,30408
57598.9,30374.6
57484.3,30363.3
57369.6,30374.6
57259.4,30408
57157.9,30462.3
57068.8,30535.4
57048.3,30560.4
57026.9,30520.3
56983.4,30467.3
56930.5,30423.9
56870,30391.5
56804.4,30371.7
56736.2,30364.9
56263.8,30364.9
56195.6,30371.7
56130,30391.5
56069.5,30423.9
56016.6,30467.3
55973.1,30520.3
55940.8,30580.8
55920.9,30646.4
55914.1,30714.6
53512.4,30714.6
53454.1,30627.3
53372.7,30545.9
53304.4,30500.3
53334.2,30404.9
53000,30070.7
52665.8,30404.9
52695.6,30500.3
52627.3,30545.9
52545.9,30627.3
52500,30696
52454.1,30627.3
52372.7,30545.9
52304,30500
52372.7,30454.1
52454.1,30372.7
52499.7,30304.4
52595.1,30334.2
52929.3,30000
53070.7,30000
53404.9,30334.2
53502.9,30303.6
53552.5,30199.7
53580.8,30088
53586.9,29973
53570.3,29859
53531.9,29750.5
53502.9,29696.4
53404.9,29665.8
53070.7,30000
52929.3,30000
52595.1,29665.8
52499.7,29695.6
52454.1,29627.3
52372.7,29545.9
52304,29500
52372.7,29454.1
52454.1,29372.7
52500,29304
52545.9,29372.7
52627.3,29454.1
52695.6,29499.7
52665.8,29595.1
53000,29929.3
53334.2,29595.1
53304.4,29499.7
53372.7,29454.1
53454.1,29372.7
53518.1,29276.9
53562.2,29170.5
53584.6,29057.6
53584.6,28942.4
53562.2,28829.5
53518.1,28723.1
53454.1,28627.3
53372.7,28545.9
53304,28500
53372.7,28454.1
53454.1,28372.7
53518.1,28276.9
53562.2,28170.5
53584.6,28057.6
53584.6,27942.4
53562.2,27829.5
53518.1,27723.1
53454.1,27627.3
53372.7,27545.9
53276.9,27481.9
53170.5,27437.8
53057.6,27415.4
52942.4,27415.4
52829.5,27437.8
52723.1,27481.9
52627.3,27545.9
52553.7,27619.5
52526.9,27569.5
52483.4,27516.6
52430.5,27473.1
52370,27440.8
52304.4,27420.9
52236.2,27414.1
51763.8,27414.1
51695.6,27420.9
51630,27440.8
51569.5,27473.1
51516.6,27516.6
51473.1,27569.5
51440.8,27630
51420.9,27695.6
51414.1,27763.8
49550,27763.8
49550,27214.6
55914.1,27214.6
55914.1,27785.4
55920.9,27853.6
55940.8,27919.2
55973.1,27979.7
56016.6,28032.7
56069.5,28076.1
56130,28108.5
56195.6,28128.3
56263.8,28135.1
56736.2,28135.1
56804.4,28128.3
56870,28108.5
56930.5,28076.1
56983.4,28032.7
57026.9,27979.7
57048.3,27939.6
57068.8,27964.6
57157.9,28037.7
57259.4,28092
57369.6,28125.4
57484.3,28136.7
57598.9,28125.4
57709.1,28092
57810.6,28037.7
57899.7,27964.6
57972.7,27875.6
57976.4,27868.8
57980,27875.6
58053.1,27964.6
58142.1,28037.7
58243.7,28092
58353.9,28125.4
58468.5,28136.7
58583.1,28125.4
58693.3,28092
58794.9,28037.7
58883.9,27964.6
58957,27875.6
58960.6,27868.8
58964.3,27875.6
59037.3,27964.6
59126.4,28037.7
59227.9,28092
59338.1,28125.4
59452.8,28136.7
59567.4,28125.4
59677.6,28092
59779.1,28037.7
59868.2,27964.6
59941.2,27875.6
59995.5,27774
60028.9,27663.8
60037.4,27577.9
60037.4,27422.1
60028.9,27336.2
59995.5,27226
59941.2,27124.4
59868.2,27035.4
59779.1,26962.3
59677.6,26908
59567.4,26874.6
59452.8,26863.3
59338.1,26874.6
59227.9,26908
59126.4,26962.3
59037.3,27035.4
58964.3,27124.4
58960.6,27131.2
58957,27124.4
58883.9,27035.4
58794.9,26962.3
58693.3,26908
58583.1,26874.6
58468.5,26863.3
58353.9,26874.6
58243.7,26908
58142.1,26962.3
58053.1,27035.4
57980,27124.4
57976.4,27131.2
57972.7,27124.4
57899.7,27035.4
57810.6,26962.3
57709.1,26908
57598.9,26874.6
57484.3,26863.3
57369.6,26874.6
57259.4,26908
57157.9,26962.3
57068.8,27035.4
57048.3,27060.4
57026.9,27020.3
56983.4,26967.3
56930.5,26923.9
56870,26891.5
56804.4,26871.7
56736.2,26864.9
56263.8,26864.9
56195.6,26871.7
56130,26891.5
56069.5,26923.9
56016.6,26967.3
55973.1,27020.3
55940.8,27080.8
55920.9,27146.4
55914.1,27214.6
49550,27214.6
49550,25520.7
49563.4,25507.4
49695.7,25692.1
49943.7,25826.1
50213.1,25909.1
50493.5,25938
50774.2,25911.6
51044.3,25831
51293.5,25699.3
51304.3,25692.1
51436.6,25507.4
50500,24570.7
50494.4,24576.3
50423.7,24505.6
50429.3,24500
50423.7,24494.4
50494.4,24423.7
50500,24429.3
50505.6,24423.7
50576.3,24494.4
50570.7,24500
51507.4,25436.6
51692.1,25304.3
51826.1,25056.3
51909.1,24786.9
51938,24506.5
51911.6,24225.8
51831,23955.7
51699.3,23706.5
51692.1,23695.7
51507.4,23563.4
51520.7,23550
62979.3,23550
Z" /> 
</g>
</g>
</g> 
</svg>
