<?xml version="1.0" standalone="no"?>
 <!DOCTYPE svg PUBLIC "-//W3C//DTD SVG 1.1//EN" 
 "http://www.w3.org/Graphics/SVG/1.1/DTD/svg11.dtd"> 
<svg
  xmlns:svg="http://www.w3.org/2000/svg"
  xmlns="http://www.w3.org/2000/svg"
  xmlns:xlink="http://www.w3.org/1999/xlink"
  version="1.1"
  width="29.700220cm" height="21.000720cm" viewBox="0 0 116930 82680">
<title>SVG Picture created as rpi-arcade-hat-F_SilkS.svg date 2021/09/26 16:06:12 </title>
  <desc>Picture generated by PCBNEW </desc>
<g style="fill:#000000; fill-opacity:1;stroke:#000000; stroke-opacity:1;
stroke-linecap:round; stroke-linejoin:round;"
 transform="translate(0 0) scale(1 1)">
</g>
<g style="fill:#000000; fill-opacity:0.0; 
stroke:#000000; stroke-width:-0.000393701; stroke-opacity:1; 
stroke-linecap:round; stroke-linejoin:round;">
</g>
<g style="fill:#000000; fill-opacity:0.0; 
stroke:#000000; stroke-width:59.0551; stroke-opacity:1; 
stroke-linecap:round; stroke-linejoin:round;">
<text x="57874" y="22155.5"
textLength="1614.08" font-size="1049.87" lengthAdjust="spacingAndGlyphs"
text-anchor="start" opacity="0">Up</text>
<path d="M58099 21330
L58099 21968
L58137 22043
L58174 22080
L58249 22118
L58399 22118
L58474 22080
L58512 22043
L58549 21968
L58549 21330
" />
<path d="M58924 21593
L58924 22380
" />
<path d="M58924 21630
L58999 21593
L59149 21593
L59224 21630
L59262 21668
L59299 21743
L59299 21968
L59262 22043
L59224 22080
L59149 22118
L58999 22118
L58924 22080
" />
<text x="57874" y="23395.7"
textLength="3113.89" font-size="1049.87" lengthAdjust="spacingAndGlyphs"
text-anchor="start" opacity="0">Down</text>
<path d="M58099 23358
L58099 22570
L58287 22570
L58399 22608
L58474 22683
L58512 22758
L58549 22908
L58549 23020
L58512 23170
L58474 23245
L58399 23320
L58287 23358
L58099 23358
" />
<path d="M58999 23358
L58924 23320
L58887 23283
L58849 23208
L58849 22983
L58887 22908
L58924 22870
L58999 22833
L59112 22833
L59187 22870
L59224 22908
L59262 22983
L59262 23208
L59224 23283
L59187 23320
L59112 23358
L58999 23358
" />
<path d="M59524 22833
L59674 23358
L59824 22983
L59974 23358
L60124 22833
" />
<path d="M60424 22833
L60424 23358
" />
<path d="M60424 22908
L60462 22870
L60537 22833
L60649 22833
L60724 22870
L60762 22945
L60762 23358
" />
<text x="57874" y="24635.8"
textLength="2289" font-size="1049.87" lengthAdjust="spacingAndGlyphs"
text-anchor="start" opacity="0">Left</text>
<path d="M58474 24598
L58099 24598
L58099 23810
" />
<path d="M59037 24560
L58962 24598
L58812 24598
L58737 24560
L58699 24485
L58699 24185
L58737 24110
L58812 24073
L58962 24073
L59037 24110
L59074 24185
L59074 24260
L58699 24335
" />
<path d="M59299 24073
L59599 24073
" />
<path d="M59412 24598
L59412 23923
L59449 23848
L59524 23810
L59599 23810
" />
<path d="M59749 24073
L60049 24073
" />
<path d="M59862 23810
L59862 24485
L59899 24560
L59974 24598
L60049 24598
" />
<text x="57874" y="25876"
textLength="3113.89" font-size="1049.87" lengthAdjust="spacingAndGlyphs"
text-anchor="start" opacity="0">Right</text>
<path d="M58549 25838
L58287 25463
" />
<path d="M58099 25838
L58099 25051
L58399 25051
L58474 25088
L58512 25126
L58549 25201
L58549 25313
L58512 25388
L58474 25426
L58399 25463
L58099 25463
" />
<path d="M58887 25838
L58887 25313
" />
<path d="M58887 25051
L58849 25088
L58887 25126
L58924 25088
L58887 25051
L58887 25126
" />
<path d="M59599 25313
L59599 25950
L59562 26025
L59524 26063
L59449 26100
L59337 26100
L59262 26063
" />
<path d="M59599 25800
L59524 25838
L59374 25838
L59299 25800
L59262 25763
L59224 25688
L59224 25463
L59262 25388
L59299 25351
L59374 25313
L59524 25313
L59599 25351
" />
<path d="M59974 25838
L59974 25051
" />
<path d="M60312 25838
L60312 25426
L60274 25351
L60199 25313
L60087 25313
L60012 25351
L59974 25388
" />
<path d="M60574 25313
L60874 25313
" />
<path d="M60687 25051
L60687 25726
L60724 25800
L60799 25838
L60874 25838
" />
<text x="57874" y="27667.3"
textLength="751.687" font-size="1049.87" lengthAdjust="spacingAndGlyphs"
text-anchor="start" opacity="0">A</text>
<path d="M58062 27404
L58437 27404
" />
<path d="M57987 27629
L58249 26842
L58512 27629
" />
<text x="57874" y="28907.5"
textLength="864.173" font-size="1049.87" lengthAdjust="spacingAndGlyphs"
text-anchor="start" opacity="0">B</text>
<path d="M58362 28457
L58474 28495
L58512 28532
L58549 28607
L58549 28720
L58512 28794
L58474 28832
L58399 28869
L58099 28869
L58099 28082
L58362 28082
L58437 28120
L58474 28157
L58512 28232
L58512 28307
L58474 28382
L58437 28420
L58362 28457
L58099 28457
" />
<text x="57874" y="30147.6"
textLength="826.678" font-size="1049.87" lengthAdjust="spacingAndGlyphs"
text-anchor="start" opacity="0">X</text>
<path d="M58024 29322
L58549 30110
" />
<path d="M58549 29322
L58024 30110
" />
<text x="57874" y="31387.8"
textLength="751.687" font-size="1049.87" lengthAdjust="spacingAndGlyphs"
text-anchor="start" opacity="0">Y</text>
<path d="M58249 30975
L58249 31350
" />
<path d="M57987 30562
L58249 30975
L58512 30562
" />
<text x="57874" y="33179.1"
textLength="2926.42" font-size="1049.87" lengthAdjust="spacingAndGlyphs"
text-anchor="start" opacity="0">Start</text>
<path d="M58062 33104
L58174 33141
L58362 33141
L58437 33104
L58474 33066
L58512 32991
L58512 32916
L58474 32841
L58437 32804
L58362 32766
L58212 32729
L58137 32691
L58099 32654
L58062 32579
L58062 32504
L58099 32429
L58137 32391
L58212 32354
L58399 32354
L58512 32391
" />
<path d="M58737 32616
L59037 32616
" />
<path d="M58849 32354
L58849 33029
L58887 33104
L58962 33141
L59037 33141
" />
<path d="M59637 33141
L59637 32729
L59599 32654
L59524 32616
L59374 32616
L59299 32654
" />
<path d="M59637 33104
L59562 33141
L59374 33141
L59299 33104
L59262 33029
L59262 32954
L59299 32879
L59374 32841
L59562 32841
L59637 32804
" />
<path d="M60012 33141
L60012 32616
" />
<path d="M60012 32766
L60049 32691
L60087 32654
L60162 32616
L60237 32616
" />
<path d="M60387 32616
L60687 32616
" />
<path d="M60499 32354
L60499 33029
L60537 33104
L60612 33141
L60687 33141
" />
<text x="57874" y="34419.3"
textLength="3713.82" font-size="1049.87" lengthAdjust="spacingAndGlyphs"
text-anchor="start" opacity="0">Select</text>
<path d="M58062 34344
L58174 34381
L58362 34381
L58437 34344
L58474 34306
L58512 34231
L58512 34156
L58474 34081
L58437 34044
L58362 34006
L58212 33969
L58137 33931
L58099 33894
L58062 33819
L58062 33744
L58099 33669
L58137 33631
L58212 33594
L58399 33594
L58512 33631
" />
<path d="M59149 34344
L59074 34381
L58924 34381
L58849 34344
L58812 34269
L58812 33969
L58849 33894
L58924 33856
L59074 33856
L59149 33894
L59187 33969
L59187 34044
L58812 34119
" />
<path d="M59637 34381
L59562 34344
L59524 34269
L59524 33594
" />
<path d="M60237 34344
L60162 34381
L60012 34381
L59937 34344
L59899 34269
L59899 33969
L59937 33894
L60012 33856
L60162 33856
L60237 33894
L60274 33969
L60274 34044
L59899 34119
" />
<path d="M60949 34344
L60874 34381
L60724 34381
L60649 34344
L60612 34306
L60574 34231
L60574 34006
L60612 33931
L60649 33894
L60724 33856
L60874 33856
L60949 33894
" />
<path d="M61174 33856
L61474 33856
" />
<path d="M61286 33594
L61286 34269
L61324 34344
L61399 34381
L61474 34381
" />
<text x="57874" y="35659.4"
textLength="1464.1" font-size="1049.87" lengthAdjust="spacingAndGlyphs"
text-anchor="start" opacity="0">L1</text>
<path d="M58474 35621
L58099 35621
L58099 34834
" />
<path d="M59149 35621
L58699 35621
" />
<path d="M58924 35621
L58924 34834
L58849 34947
L58774 35022
L58699 35059
" />
<text x="57874" y="36899.6"
textLength="1614.08" font-size="1049.87" lengthAdjust="spacingAndGlyphs"
text-anchor="start" opacity="0">R1</text>
<path d="M58549 36862
L58287 36487
" />
<path d="M58099 36862
L58099 36074
L58399 36074
L58474 36112
L58512 36149
L58549 36224
L58549 36337
L58512 36412
L58474 36449
L58399 36487
L58099 36487
" />
<path d="M59299 36862
L58849 36862
" />
<path d="M59074 36862
L59074 36074
L58999 36187
L58924 36262
L58849 36299
" />
<text x="57874" y="52470.5"
textLength="2926.42" font-size="1049.87" lengthAdjust="spacingAndGlyphs"
text-anchor="start" opacity="0">Start</text>
<path d="M58062 52395
L58174 52432
L58362 52432
L58437 52395
L58474 52357
L58512 52282
L58512 52208
L58474 52133
L58437 52095
L58362 52058
L58212 52020
L58137 51983
L58099 51945
L58062 51870
L58062 51795
L58099 51720
L58137 51683
L58212 51645
L58399 51645
L58512 51683
" />
<path d="M58737 51908
L59037 51908
" />
<path d="M58849 51645
L58849 52320
L58887 52395
L58962 52432
L59037 52432
" />
<path d="M59637 52432
L59637 52020
L59599 51945
L59524 51908
L59374 51908
L59299 51945
" />
<path d="M59637 52395
L59562 52432
L59374 52432
L59299 52395
L59262 52320
L59262 52245
L59299 52170
L59374 52133
L59562 52133
L59637 52095
" />
<path d="M60012 52432
L60012 51908
" />
<path d="M60012 52058
L60049 51983
L60087 51945
L60162 51908
L60237 51908
" />
<path d="M60387 51908
L60687 51908
" />
<path d="M60499 51645
L60499 52320
L60537 52395
L60612 52432
L60687 52432
" />
<text x="57874" y="53710.6"
textLength="3713.82" font-size="1049.87" lengthAdjust="spacingAndGlyphs"
text-anchor="start" opacity="0">Select</text>
<path d="M58062 53635
L58174 53673
L58362 53673
L58437 53635
L58474 53598
L58512 53523
L58512 53448
L58474 53373
L58437 53335
L58362 53298
L58212 53260
L58137 53223
L58099 53185
L58062 53110
L58062 53035
L58099 52960
L58137 52923
L58212 52885
L58399 52885
L58512 52923
" />
<path d="M59149 53635
L59074 53673
L58924 53673
L58849 53635
L58812 53560
L58812 53260
L58849 53185
L58924 53148
L59074 53148
L59149 53185
L59187 53260
L59187 53335
L58812 53410
" />
<path d="M59637 53673
L59562 53635
L59524 53560
L59524 52885
" />
<path d="M60237 53635
L60162 53673
L60012 53673
L59937 53635
L59899 53560
L59899 53260
L59937 53185
L60012 53148
L60162 53148
L60237 53185
L60274 53260
L60274 53335
L59899 53410
" />
<path d="M60949 53635
L60874 53673
L60724 53673
L60649 53635
L60612 53598
L60574 53523
L60574 53298
L60612 53223
L60649 53185
L60724 53148
L60874 53148
L60949 53185
" />
<path d="M61174 53148
L61474 53148
" />
<path d="M61286 52885
L61286 53560
L61324 53635
L61399 53673
L61474 53673
" />
<text x="57874" y="54950.8"
textLength="1464.1" font-size="1049.87" lengthAdjust="spacingAndGlyphs"
text-anchor="start" opacity="0">L1</text>
<path d="M58474 54913
L58099 54913
L58099 54125
" />
<path d="M59149 54913
L58699 54913
" />
<path d="M58924 54913
L58924 54125
L58849 54238
L58774 54313
L58699 54350
" />
<text x="57874" y="56190.9"
textLength="1614.08" font-size="1049.87" lengthAdjust="spacingAndGlyphs"
text-anchor="start" opacity="0">R1</text>
<path d="M58549 56153
L58287 55778
" />
<path d="M58099 56153
L58099 55366
L58399 55366
L58474 55403
L58512 55441
L58549 55516
L58549 55628
L58512 55703
L58474 55741
L58399 55778
L58099 55778
" />
<path d="M59299 56153
L58849 56153
" />
<path d="M59074 56153
L59074 55366
L58999 55478
L58924 55553
L58849 55591
" />
<text x="57874" y="46958.7"
textLength="751.687" font-size="1049.87" lengthAdjust="spacingAndGlyphs"
text-anchor="start" opacity="0">A</text>
<path d="M58062 46696
L58437 46696
" />
<path d="M57987 46921
L58249 46133
L58512 46921
" />
<text x="57874" y="48198.8"
textLength="864.173" font-size="1049.87" lengthAdjust="spacingAndGlyphs"
text-anchor="start" opacity="0">B</text>
<path d="M58362 47748
L58474 47786
L58512 47823
L58549 47898
L58549 48011
L58512 48086
L58474 48123
L58399 48161
L58099 48161
L58099 47373
L58362 47373
L58437 47411
L58474 47448
L58512 47523
L58512 47598
L58474 47673
L58437 47711
L58362 47748
L58099 47748
" />
<text x="57874" y="49439"
textLength="826.678" font-size="1049.87" lengthAdjust="spacingAndGlyphs"
text-anchor="start" opacity="0">X</text>
<path d="M58024 48614
L58549 49401
" />
<path d="M58549 48614
L58024 49401
" />
<text x="57874" y="50679.1"
textLength="751.687" font-size="1049.87" lengthAdjust="spacingAndGlyphs"
text-anchor="start" opacity="0">Y</text>
<path d="M58249 50266
L58249 50641
" />
<path d="M57987 49854
L58249 50266
L58512 49854
" />
<text x="57874" y="41446.9"
textLength="1614.08" font-size="1049.87" lengthAdjust="spacingAndGlyphs"
text-anchor="start" opacity="0">Up</text>
<path d="M58099 40621
L58099 41259
L58137 41334
L58174 41371
L58249 41409
L58399 41409
L58474 41371
L58512 41334
L58549 41259
L58549 40621
" />
<path d="M58924 40884
L58924 41671
" />
<path d="M58924 40921
L58999 40884
L59149 40884
L59224 40921
L59262 40959
L59299 41034
L59299 41259
L59262 41334
L59224 41371
L59149 41409
L58999 41409
L58924 41371
" />
<text x="57874" y="42687"
textLength="3113.89" font-size="1049.87" lengthAdjust="spacingAndGlyphs"
text-anchor="start" opacity="0">Down</text>
<path d="M58099 42649
L58099 41862
L58287 41862
L58399 41899
L58474 41974
L58512 42049
L58549 42199
L58549 42312
L58512 42462
L58474 42537
L58399 42612
L58287 42649
L58099 42649
" />
<path d="M58999 42649
L58924 42612
L58887 42574
L58849 42499
L58849 42274
L58887 42199
L58924 42162
L58999 42124
L59112 42124
L59187 42162
L59224 42199
L59262 42274
L59262 42499
L59224 42574
L59187 42612
L59112 42649
L58999 42649
" />
<path d="M59524 42124
L59674 42649
L59824 42274
L59974 42649
L60124 42124
" />
<path d="M60424 42124
L60424 42649
" />
<path d="M60424 42199
L60462 42162
L60537 42124
L60649 42124
L60724 42162
L60762 42237
L60762 42649
" />
<text x="57874" y="43927.2"
textLength="2289" font-size="1049.87" lengthAdjust="spacingAndGlyphs"
text-anchor="start" opacity="0">Left</text>
<path d="M58474 43889
L58099 43889
L58099 43102
" />
<path d="M59037 43852
L58962 43889
L58812 43889
L58737 43852
L58699 43777
L58699 43477
L58737 43402
L58812 43364
L58962 43364
L59037 43402
L59074 43477
L59074 43552
L58699 43627
" />
<path d="M59299 43364
L59599 43364
" />
<path d="M59412 43889
L59412 43214
L59449 43139
L59524 43102
L59599 43102
" />
<path d="M59749 43364
L60049 43364
" />
<path d="M59862 43102
L59862 43777
L59899 43852
L59974 43889
L60049 43889
" />
<text x="57874" y="45167.3"
textLength="3113.89" font-size="1049.87" lengthAdjust="spacingAndGlyphs"
text-anchor="start" opacity="0">Right</text>
<path d="M58549 45129
L58287 44754
" />
<path d="M58099 45129
L58099 44342
L58399 44342
L58474 44379
L58512 44417
L58549 44492
L58549 44604
L58512 44679
L58474 44717
L58399 44754
L58099 44754
" />
<path d="M58887 45129
L58887 44604
" />
<path d="M58887 44342
L58849 44379
L58887 44417
L58924 44379
L58887 44342
L58887 44417
" />
<path d="M59599 44604
L59599 45242
L59562 45317
L59524 45354
L59449 45392
L59337 45392
L59262 45354
" />
<path d="M59599 45092
L59524 45129
L59374 45129
L59299 45092
L59262 45054
L59224 44979
L59224 44754
L59262 44679
L59299 44642
L59374 44604
L59524 44604
L59599 44642
" />
<path d="M59974 45129
L59974 44342
" />
<path d="M60312 45129
L60312 44717
L60274 44642
L60199 44604
L60087 44604
L60012 44642
L59974 44679
" />
<path d="M60574 44604
L60874 44604
" />
<path d="M60687 44342
L60687 45017
L60724 45092
L60799 45129
L60874 45129
" />
<text x="67322.8" y="37116.1"
textLength="4201.26" font-size="1049.87" lengthAdjust="spacingAndGlyphs"
text-anchor="start" opacity="0">Ground</text>
<path d="M67961 36328
L67886 36291
L67773 36291
L67661 36328
L67586 36403
L67548 36478
L67511 36628
L67511 36741
L67548 36891
L67586 36966
L67661 37041
L67773 37078
L67848 37078
L67961 37041
L67998 37003
L67998 36741
L67848 36741
" />
<path d="M68336 37078
L68336 36553
" />
<path d="M68336 36703
L68373 36628
L68411 36591
L68486 36553
L68561 36553
" />
<path d="M68936 37078
L68861 37041
L68823 37003
L68786 36928
L68786 36703
L68823 36628
L68861 36591
L68936 36553
L69048 36553
L69123 36591
L69160 36628
L69198 36703
L69198 36928
L69160 37003
L69123 37041
L69048 37078
L68936 37078
" />
<path d="M69873 36553
L69873 37078
" />
<path d="M69535 36553
L69535 36966
L69573 37041
L69648 37078
L69760 37078
L69835 37041
L69873 37003
" />
<path d="M70248 36553
L70248 37078
" />
<path d="M70248 36628
L70285 36591
L70360 36553
L70473 36553
L70548 36591
L70585 36666
L70585 37078
" />
<path d="M71298 37078
L71298 36291
" />
<path d="M71298 37041
L71223 37078
L71073 37078
L70998 37041
L70960 37003
L70923 36928
L70923 36703
L70960 36628
L70998 36591
L71073 36553
L71223 36553
L71298 36591
" />
<text x="67322.8" y="38356.3"
textLength="4201.26" font-size="1049.87" lengthAdjust="spacingAndGlyphs"
text-anchor="start" opacity="0">Ground</text>
<path d="M67961 37568
L67886 37531
L67773 37531
L67661 37568
L67586 37643
L67548 37718
L67511 37868
L67511 37981
L67548 38131
L67586 38206
L67661 38281
L67773 38318
L67848 38318
L67961 38281
L67998 38243
L67998 37981
L67848 37981
" />
<path d="M68336 38318
L68336 37793
" />
<path d="M68336 37943
L68373 37868
L68411 37831
L68486 37793
L68561 37793
" />
<path d="M68936 38318
L68861 38281
L68823 38243
L68786 38168
L68786 37943
L68823 37868
L68861 37831
L68936 37793
L69048 37793
L69123 37831
L69160 37868
L69198 37943
L69198 38168
L69160 38243
L69123 38281
L69048 38318
L68936 38318
" />
<path d="M69873 37793
L69873 38318
" />
<path d="M69535 37793
L69535 38206
L69573 38281
L69648 38318
L69760 38318
L69835 38281
L69873 38243
" />
<path d="M70248 37793
L70248 38318
" />
<path d="M70248 37868
L70285 37831
L70360 37793
L70473 37793
L70548 37831
L70585 37906
L70585 38318
" />
<path d="M71298 38318
L71298 37531
" />
<path d="M71298 38281
L71223 38318
L71073 38318
L70998 38281
L70960 38243
L70923 38168
L70923 37943
L70960 37868
L70998 37831
L71073 37793
L71223 37793
L71298 37831
" />
<text x="67322.8" y="39596.5"
textLength="3976.28" font-size="1049.87" lengthAdjust="spacingAndGlyphs"
text-anchor="start" opacity="0">Hotkey</text>
<path d="M67548 39558
L67548 38771
" />
<path d="M67548 39146
L67998 39146
" />
<path d="M67998 39558
L67998 38771
" />
<path d="M68486 39558
L68411 39521
L68373 39483
L68336 39408
L68336 39184
L68373 39109
L68411 39071
L68486 39034
L68598 39034
L68673 39071
L68711 39109
L68748 39184
L68748 39408
L68711 39483
L68673 39521
L68598 39558
L68486 39558
" />
<path d="M68973 39034
L69273 39034
" />
<path d="M69086 38771
L69086 39446
L69123 39521
L69198 39558
L69273 39558
" />
<path d="M69535 39558
L69535 38771
" />
<path d="M69610 39258
L69835 39558
" />
<path d="M69835 39034
L69535 39333
" />
<path d="M70473 39521
L70398 39558
L70248 39558
L70173 39521
L70135 39446
L70135 39146
L70173 39071
L70248 39034
L70398 39034
L70473 39071
L70510 39146
L70510 39221
L70135 39296
" />
<path d="M70773 39034
L70960 39558
" />
<path d="M71148 39034
L70960 39558
L70885 39746
L70848 39783
L70773 39821
" />
<text x="67322.8" y="40836.6"
textLength="3976.28" font-size="1049.87" lengthAdjust="spacingAndGlyphs"
text-anchor="start" opacity="0">Hotkey</text>
<path d="M67548 40799
L67548 40011
" />
<path d="M67548 40386
L67998 40386
" />
<path d="M67998 40799
L67998 40011
" />
<path d="M68486 40799
L68411 40761
L68373 40724
L68336 40649
L68336 40424
L68373 40349
L68411 40311
L68486 40274
L68598 40274
L68673 40311
L68711 40349
L68748 40424
L68748 40649
L68711 40724
L68673 40761
L68598 40799
L68486 40799
" />
<path d="M68973 40274
L69273 40274
" />
<path d="M69086 40011
L69086 40686
L69123 40761
L69198 40799
L69273 40799
" />
<path d="M69535 40799
L69535 40011
" />
<path d="M69610 40499
L69835 40799
" />
<path d="M69835 40274
L69535 40574
" />
<path d="M70473 40761
L70398 40799
L70248 40799
L70173 40761
L70135 40686
L70135 40386
L70173 40311
L70248 40274
L70398 40274
L70473 40311
L70510 40386
L70510 40461
L70135 40536
" />
<path d="M70773 40274
L70960 40799
" />
<path d="M71148 40274
L70960 40799
L70885 40986
L70848 41024
L70773 41061
" />
<g transform="rotate(-90 63385.8 38582.7)">
<text x="63385.8" y="38779.5"
textLength="2270.25" font-size="524.934" lengthAdjust="spacingAndGlyphs"
text-anchor="middle" opacity="0">Globals</text>
</g>
<path d="M63188 39379
L63170 39416
L63170 39473
L63188 39529
L63226 39566
L63263 39585
L63338 39604
L63395 39604
L63470 39585
L63507 39566
L63545 39529
L63563 39473
L63563 39435
L63545 39379
L63526 39360
L63395 39360
L63395 39435
" />
<path d="M63563 39135
L63545 39173
L63507 39191
L63170 39191
" />
<path d="M63563 38929
L63545 38967
L63526 38985
L63488 39004
L63376 39004
L63338 38985
L63320 38967
L63301 38929
L63301 38873
L63320 38835
L63338 38817
L63376 38798
L63488 38798
L63526 38817
L63545 38835
L63563 38873
L63563 38929
" />
<path d="M63563 38629
L63170 38629
" />
<path d="M63320 38629
L63301 38592
L63301 38517
L63320 38479
L63338 38460
L63376 38442
L63488 38442
L63526 38460
L63545 38479
L63563 38517
L63563 38592
L63545 38629
" />
<path d="M63563 38104
L63357 38104
L63320 38123
L63301 38160
L63301 38235
L63320 38273
" />
<path d="M63545 38104
L63563 38142
L63563 38235
L63545 38273
L63507 38292
L63470 38292
L63432 38273
L63413 38235
L63413 38142
L63395 38104
" />
<path d="M63563 37860
L63545 37898
L63507 37917
L63170 37917
" />
<path d="M63545 37729
L63563 37692
L63563 37617
L63545 37579
L63507 37560
L63488 37560
L63451 37579
L63432 37617
L63432 37673
L63413 37710
L63376 37729
L63357 37729
L63320 37710
L63301 37673
L63301 37617
L63320 37579
" />
</g>
<g style="fill:#000000; fill-opacity:0.0; 
stroke:#000000; stroke-width:47.2441; stroke-opacity:1; 
stroke-linecap:round; stroke-linejoin:round;">
<path d="M63779 41732
L63779 35433
" />
<path d="M71653 41732
L63779 41732
" />
<path d="M71653 35433
L71653 41732
" />
<path d="M63779 35433
L71653 35433
" />
</g>
<g style="fill:#000000; fill-opacity:0.0; 
stroke:#000000; stroke-width:78.7402; stroke-opacity:1; 
stroke-linecap:round; stroke-linejoin:round;">
<g transform="rotate(-90 72913.4 49212.6)">
<text x="72913.4" y="49606.3"
textLength="10613" font-size="1049.87" lengthAdjust="spacingAndGlyphs"
text-anchor="middle" opacity="0">RecalBox Arcade </text>
</g>
<path d="M73269 53843
L72894 54105
" />
<path d="M73269 54293
L72482 54293
L72482 53993
L72519 53918
L72557 53880
L72632 53843
L72744 53843
L72819 53880
L72857 53918
L72894 53993
L72894 54293
" />
<path d="M73232 53205
L73269 53280
L73269 53430
L73232 53505
L73157 53543
L72857 53543
L72782 53505
L72744 53430
L72744 53280
L72782 53205
L72857 53168
L72932 53168
L73007 53543
" />
<path d="M73232 52493
L73269 52568
L73269 52718
L73232 52793
L73194 52830
L73119 52868
L72894 52868
L72819 52830
L72782 52793
L72744 52718
L72744 52568
L72782 52493
" />
<path d="M73269 51818
L72857 51818
L72782 51856
L72744 51931
L72744 52080
L72782 52155
" />
<path d="M73232 51818
L73269 51893
L73269 52080
L73232 52155
L73157 52193
L73082 52193
L73007 52155
L72969 52080
L72969 51893
L72932 51818
" />
<path d="M73269 51331
L73232 51406
L73157 51443
L72482 51443
" />
<path d="M72857 50768
L72894 50656
L72932 50618
L73007 50581
L73119 50581
L73194 50618
L73232 50656
L73269 50731
L73269 51031
L72482 51031
L72482 50768
L72519 50693
L72557 50656
L72632 50618
L72707 50618
L72782 50656
L72819 50693
L72857 50768
L72857 51031
" />
<path d="M73269 50131
L73232 50206
L73194 50243
L73119 50281
L72894 50281
L72819 50243
L72782 50206
L72744 50131
L72744 50018
L72782 49943
L72819 49906
L72894 49868
L73119 49868
L73194 49906
L73232 49943
L73269 50018
L73269 50131
" />
<path d="M73269 49606
L72744 49193
" />
<path d="M72744 49606
L73269 49193
" />
<path d="M73044 48331
L73044 47956
" />
<path d="M73269 48406
L72482 48143
L73269 47881
" />
<path d="M73269 47619
L72744 47619
" />
<path d="M72894 47619
L72819 47581
L72782 47544
L72744 47469
L72744 47394
" />
<path d="M73232 46794
L73269 46869
L73269 47019
L73232 47094
L73194 47131
L73119 47169
L72894 47169
L72819 47131
L72782 47094
L72744 47019
L72744 46869
L72782 46794
" />
<path d="M73269 46119
L72857 46119
L72782 46156
L72744 46231
L72744 46381
L72782 46456
" />
<path d="M73232 46119
L73269 46194
L73269 46381
L73232 46456
L73157 46494
L73082 46494
L73007 46456
L72969 46381
L72969 46194
L72932 46119
" />
<path d="M73269 45406
L72482 45406
" />
<path d="M73232 45406
L73269 45481
L73269 45631
L73232 45706
L73194 45744
L73119 45781
L72894 45781
L72819 45744
L72782 45706
L72744 45631
L72744 45481
L72782 45406
" />
<path d="M73232 44731
L73269 44806
L73269 44956
L73232 45031
L73157 45069
L72857 45069
L72782 45031
L72744 44956
L72744 44806
L72782 44731
L72857 44694
L72932 44694
L73007 45069
" />
<g transform="rotate(-90 74173.2 49212.6)">
<text x="74173.2" y="49606.3"
textLength="14913" font-size="1049.87" lengthAdjust="spacingAndGlyphs"
text-anchor="middle" opacity="0">Control Interface Module</text>
</g>
<path d="M74454 55980
L74491 56017
L74529 56130
L74529 56205
L74491 56317
L74416 56392
L74341 56430
L74191 56467
L74079 56467
L73929 56430
L73854 56392
L73779 56317
L73742 56205
L73742 56130
L73779 56017
L73817 55980
" />
<path d="M74529 55530
L74491 55605
L74454 55643
L74379 55680
L74154 55680
L74079 55643
L74041 55605
L74004 55530
L74004 55418
L74041 55343
L74079 55305
L74154 55268
L74379 55268
L74454 55305
L74491 55343
L74529 55418
L74529 55530
" />
<path d="M74004 54930
L74529 54930
" />
<path d="M74079 54930
L74041 54893
L74004 54818
L74004 54705
L74041 54630
L74116 54593
L74529 54593
" />
<path d="M74004 54330
L74004 54030
" />
<path d="M73742 54218
L74416 54218
L74491 54180
L74529 54105
L74529 54030
" />
<path d="M74529 53768
L74004 53768
" />
<path d="M74154 53768
L74079 53730
L74041 53693
L74004 53618
L74004 53543
" />
<path d="M74529 53168
L74491 53243
L74454 53280
L74379 53318
L74154 53318
L74079 53280
L74041 53243
L74004 53168
L74004 53055
L74041 52980
L74079 52943
L74154 52905
L74379 52905
L74454 52943
L74491 52980
L74529 53055
L74529 53168
" />
<path d="M74529 52455
L74491 52530
L74416 52568
L73742 52568
" />
<path d="M74529 51556
L73742 51556
" />
<path d="M74004 51181
L74529 51181
" />
<path d="M74079 51181
L74041 51143
L74004 51068
L74004 50956
L74041 50881
L74116 50843
L74529 50843
" />
<path d="M74004 50581
L74004 50281
" />
<path d="M73742 50468
L74416 50468
L74491 50431
L74529 50356
L74529 50281
" />
<path d="M74491 49718
L74529 49793
L74529 49943
L74491 50018
L74416 50056
L74116 50056
L74041 50018
L74004 49943
L74004 49793
L74041 49718
L74116 49681
L74191 49681
L74266 50056
" />
<path d="M74529 49343
L74004 49343
" />
<path d="M74154 49343
L74079 49306
L74041 49268
L74004 49193
L74004 49118
" />
<path d="M74004 48968
L74004 48668
" />
<path d="M74529 48856
L73854 48856
L73779 48818
L73742 48743
L73742 48668
" />
<path d="M74529 48068
L74116 48068
L74041 48106
L74004 48181
L74004 48331
L74041 48406
" />
<path d="M74491 48068
L74529 48143
L74529 48331
L74491 48406
L74416 48443
L74341 48443
L74266 48406
L74229 48331
L74229 48143
L74191 48068
" />
<path d="M74491 47356
L74529 47431
L74529 47581
L74491 47656
L74454 47694
L74379 47731
L74154 47731
L74079 47694
L74041 47656
L74004 47581
L74004 47431
L74041 47356
" />
<path d="M74491 46719
L74529 46794
L74529 46944
L74491 47019
L74416 47056
L74116 47056
L74041 47019
L74004 46944
L74004 46794
L74041 46719
L74116 46681
L74191 46681
L74266 47056
" />
<path d="M74529 45744
L73742 45744
L74304 45481
L73742 45219
L74529 45219
" />
<path d="M74529 44731
L74491 44806
L74454 44844
L74379 44881
L74154 44881
L74079 44844
L74041 44806
L74004 44731
L74004 44619
L74041 44544
L74079 44506
L74154 44469
L74379 44469
L74454 44506
L74491 44544
L74529 44619
L74529 44731
" />
<path d="M74529 43794
L73742 43794
" />
<path d="M74491 43794
L74529 43869
L74529 44019
L74491 44094
L74454 44131
L74379 44169
L74154 44169
L74079 44131
L74041 44094
L74004 44019
L74004 43869
L74041 43794
" />
<path d="M74004 43082
L74529 43082
" />
<path d="M74004 43419
L74416 43419
L74491 43382
L74529 43307
L74529 43194
L74491 43119
L74454 43082
" />
<path d="M74529 42594
L74491 42669
L74416 42707
L73742 42707
" />
<path d="M74491 41994
L74529 42069
L74529 42219
L74491 42294
L74416 42332
L74116 42332
L74041 42294
L74004 42219
L74004 42069
L74041 41994
L74116 41957
L74191 41957
L74266 42332
" />
<g transform="rotate(-90 75433.1 49212.6)">
<text x="75433.1" y="49606.3"
textLength="7451.44" font-size="1049.87" lengthAdjust="spacingAndGlyphs"
text-anchor="middle" opacity="0">Revision 1.0</text>
</g>
<path d="M75789 52249
L75414 52512
" />
<path d="M75789 52699
L75001 52699
L75001 52399
L75039 52324
L75076 52287
L75151 52249
L75264 52249
L75339 52287
L75376 52324
L75414 52399
L75414 52699
" />
<path d="M75751 51612
L75789 51687
L75789 51837
L75751 51912
L75676 51949
L75376 51949
L75301 51912
L75264 51837
L75264 51687
L75301 51612
L75376 51574
L75451 51574
L75526 51949
" />
<path d="M75264 51312
L75789 51124
L75264 50937
" />
<path d="M75789 50637
L75264 50637
" />
<path d="M75001 50637
L75039 50674
L75076 50637
L75039 50599
L75001 50637
L75076 50637
" />
<path d="M75751 50299
L75789 50224
L75789 50074
L75751 50000
L75676 49962
L75639 49962
L75564 50000
L75526 50074
L75526 50187
L75489 50262
L75414 50299
L75376 50299
L75301 50262
L75264 50187
L75264 50074
L75301 50000
" />
<path d="M75789 49625
L75264 49625
" />
<path d="M75001 49625
L75039 49662
L75076 49625
L75039 49587
L75001 49625
L75076 49625
" />
<path d="M75789 49137
L75751 49212
L75714 49250
L75639 49287
L75414 49287
L75339 49250
L75301 49212
L75264 49137
L75264 49025
L75301 48950
L75339 48912
L75414 48875
L75639 48875
L75714 48912
L75751 48950
L75789 49025
L75789 49137
" />
<path d="M75264 48537
L75789 48537
" />
<path d="M75339 48537
L75301 48500
L75264 48425
L75264 48312
L75301 48237
L75376 48200
L75789 48200
" />
<path d="M75789 46812
L75789 47262
" />
<path d="M75789 47037
L75001 47037
L75114 47112
L75189 47187
L75226 47262
" />
<path d="M75714 46475
L75751 46437
L75789 46475
L75751 46512
L75714 46475
L75789 46475
" />
<path d="M75001 45950
L75001 45875
L75039 45800
L75076 45763
L75151 45725
L75301 45688
L75489 45688
L75639 45725
L75714 45763
L75751 45800
L75789 45875
L75789 45950
L75751 46025
L75714 46062
L75639 46100
L75489 46137
L75301 46137
L75151 46100
L75076 46062
L75039 46025
L75001 45950
" />
<g transform="rotate(-90 76692.9 49212.6)">
<text x="76692.9" y="49606.3"
textLength="8951.26" font-size="1049.87" lengthAdjust="spacingAndGlyphs"
text-anchor="middle" opacity="0">by Royce Pope</text>
</g>
<path d="M77049 53449
L76261 53449
" />
<path d="M76561 53449
L76524 53374
L76524 53224
L76561 53149
L76599 53112
L76674 53074
L76899 53074
L76974 53112
L77011 53149
L77049 53224
L77049 53374
L77011 53449
" />
<path d="M76524 52812
L77049 52624
" />
<path d="M76524 52437
L77049 52624
L77236 52699
L77274 52737
L77311 52812
" />
<path d="M77049 51087
L76674 51349
" />
<path d="M77049 51537
L76261 51537
L76261 51237
L76299 51162
L76336 51124
L76411 51087
L76524 51087
L76599 51124
L76636 51162
L76674 51237
L76674 51537
" />
<path d="M77049 50637
L77011 50712
L76974 50749
L76899 50787
L76674 50787
L76599 50749
L76561 50712
L76524 50637
L76524 50524
L76561 50449
L76599 50412
L76674 50374
L76899 50374
L76974 50412
L77011 50449
L77049 50524
L77049 50637
" />
<path d="M76524 50112
L77049 49925
" />
<path d="M76524 49737
L77049 49925
L77236 50000
L77274 50037
L77311 50112
" />
<path d="M77011 49100
L77049 49175
L77049 49325
L77011 49400
L76974 49437
L76899 49475
L76674 49475
L76599 49437
L76561 49400
L76524 49325
L76524 49175
L76561 49100
" />
<path d="M77011 48462
L77049 48537
L77049 48687
L77011 48762
L76936 48800
L76636 48800
L76561 48762
L76524 48687
L76524 48537
L76561 48462
L76636 48425
L76711 48425
L76786 48800
" />
<path d="M77049 47487
L76261 47487
L76261 47187
L76299 47112
L76336 47075
L76411 47037
L76524 47037
L76599 47075
L76636 47112
L76674 47187
L76674 47487
" />
<path d="M77049 46587
L77011 46662
L76974 46700
L76899 46737
L76674 46737
L76599 46700
L76561 46662
L76524 46587
L76524 46475
L76561 46400
L76599 46362
L76674 46325
L76899 46325
L76974 46362
L77011 46400
L77049 46475
L77049 46587
" />
<path d="M76524 45988
L77311 45988
" />
<path d="M76561 45988
L76524 45913
L76524 45763
L76561 45688
L76599 45650
L76674 45613
L76899 45613
L76974 45650
L77011 45688
L77049 45763
L77049 45913
L77011 45988
" />
<path d="M77011 44975
L77049 45050
L77049 45200
L77011 45275
L76936 45313
L76636 45313
L76561 45275
L76524 45200
L76524 45050
L76561 44975
L76636 44938
L76711 44938
L76786 45313
" />
</g>
<g style="fill:#000000; fill-opacity:0.0; 
stroke:#000000; stroke-width:59.0551; stroke-opacity:1; 
stroke-linecap:round; stroke-linejoin:round;">
<g transform="rotate(-90 43700.8 38582.7)">
<text x="43700.8" y="38779.5"
textLength="5539.18" font-size="524.934" lengthAdjust="spacingAndGlyphs"
text-anchor="middle" opacity="0">RaspberryPi 40pin</text>
</g>
<path d="M43878 40982
L43691 41113
" />
<path d="M43878 41207
L43485 41207
L43485 41057
L43503 41019
L43522 41001
L43560 40982
L43616 40982
L43653 41001
L43672 41019
L43691 41057
L43691 41207
" />
<path d="M43878 40644
L43672 40644
L43635 40663
L43616 40701
L43616 40776
L43635 40813
" />
<path d="M43860 40644
L43878 40682
L43878 40776
L43860 40813
L43822 40832
L43785 40832
L43747 40813
L43728 40776
L43728 40682
L43710 40644
" />
<path d="M43860 40476
L43878 40438
L43878 40363
L43860 40326
L43822 40307
L43803 40307
L43766 40326
L43747 40363
L43747 40419
L43728 40457
L43691 40476
L43672 40476
L43635 40457
L43616 40419
L43616 40363
L43635 40326
" />
<path d="M43616 40138
L44010 40138
" />
<path d="M43635 40138
L43616 40101
L43616 40026
L43635 39988
L43653 39970
L43691 39951
L43803 39951
L43841 39970
L43860 39988
L43878 40026
L43878 40101
L43860 40138
" />
<path d="M43878 39782
L43485 39782
" />
<path d="M43635 39782
L43616 39745
L43616 39670
L43635 39632
L43653 39613
L43691 39595
L43803 39595
L43841 39613
L43860 39632
L43878 39670
L43878 39745
L43860 39782
" />
<path d="M43860 39276
L43878 39313
L43878 39388
L43860 39426
L43822 39445
L43672 39445
L43635 39426
L43616 39388
L43616 39313
L43635 39276
L43672 39257
L43710 39257
L43747 39445
" />
<path d="M43878 39088
L43616 39088
" />
<path d="M43691 39088
L43653 39070
L43635 39051
L43616 39013
L43616 38976
" />
<path d="M43878 38845
L43616 38845
" />
<path d="M43691 38845
L43653 38826
L43635 38807
L43616 38770
L43616 38732
" />
<path d="M43616 38638
L43878 38545
" />
<path d="M43616 38451
L43878 38545
L43972 38582
L43991 38601
L44010 38638
" />
<path d="M43878 38301
L43485 38301
L43485 38151
L43503 38113
L43522 38095
L43560 38076
L43616 38076
L43653 38095
L43672 38113
L43691 38151
L43691 38301
" />
<path d="M43878 37907
L43616 37907
" />
<path d="M43485 37907
L43503 37926
L43522 37907
L43503 37889
L43485 37907
L43522 37907
" />
<path d="M43616 37251
L43878 37251
" />
<path d="M43466 37345
L43747 37439
L43747 37195
" />
<path d="M43485 36970
L43485 36932
L43503 36895
L43522 36876
L43560 36857
L43635 36839
L43728 36839
L43803 36857
L43841 36876
L43860 36895
L43878 36932
L43878 36970
L43860 37007
L43841 37026
L43803 37045
L43728 37064
L43635 37064
L43560 37045
L43522 37026
L43503 37007
L43485 36970
" />
<path d="M43616 36670
L44010 36670
" />
<path d="M43635 36670
L43616 36632
L43616 36557
L43635 36520
L43653 36501
L43691 36482
L43803 36482
L43841 36501
L43860 36520
L43878 36557
L43878 36632
L43860 36670
" />
<path d="M43878 36314
L43616 36314
" />
<path d="M43485 36314
L43503 36332
L43522 36314
L43503 36295
L43485 36314
L43522 36314
" />
<path d="M43616 36126
L43878 36126
" />
<path d="M43653 36126
L43635 36107
L43616 36070
L43616 36014
L43635 35976
L43672 35958
L43878 35958
" />
</g>
<g style="fill:#000000; fill-opacity:0.0; 
stroke:#000000; stroke-width:47.2441; stroke-opacity:1; 
stroke-linecap:round; stroke-linejoin:round;">
<path d="M54330 20472
L54330 37401
" />
<path d="M61811 20472
L54330 20472
" />
<path d="M61811 37401
L61811 20472
" />
<path d="M54330 37401
L61811 37401
" />
<path d="M54330 56692
L54330 39763
" />
<path d="M61811 56692
L54330 56692
" />
<path d="M61811 39763
L61811 56692
" />
<path d="M54330 39763
L61811 39763
" />
</g>
<g style="fill:#000000; fill-opacity:0.0; 
stroke:#000000; stroke-width:59.0551; stroke-opacity:1; 
stroke-linecap:round; stroke-linejoin:round;">
<g transform="rotate(-90 53543.3 48425.2)">
<text x="53543.3" y="48818.9"
textLength="10613" font-size="1049.87" lengthAdjust="spacingAndGlyphs"
text-anchor="middle" opacity="0">Player 2 Controls</text>
</g>
<path d="M53899 53505
L53112 53505
L53112 53205
L53149 53130
L53187 53093
L53262 53055
L53374 53055
L53449 53093
L53487 53130
L53524 53205
L53524 53505
" />
<path d="M53899 52605
L53862 52680
L53787 52718
L53112 52718
" />
<path d="M53899 51968
L53487 51968
L53412 52005
L53374 52080
L53374 52230
L53412 52305
" />
<path d="M53862 51968
L53899 52043
L53899 52230
L53862 52305
L53787 52343
L53712 52343
L53637 52305
L53599 52230
L53599 52043
L53562 51968
" />
<path d="M53374 51668
L53899 51481
" />
<path d="M53374 51293
L53899 51481
L54086 51556
L54124 51593
L54161 51668
" />
<path d="M53862 50693
L53899 50768
L53899 50918
L53862 50993
L53787 51031
L53487 51031
L53412 50993
L53374 50918
L53374 50768
L53412 50693
L53487 50656
L53562 50656
L53637 51031
" />
<path d="M53899 50318
L53374 50318
" />
<path d="M53524 50318
L53449 50281
L53412 50243
L53374 50168
L53374 50093
" />
<path d="M53187 49268
L53149 49231
L53112 49156
L53112 48968
L53149 48893
L53187 48856
L53262 48818
L53337 48818
L53449 48856
L53899 49306
L53899 48818
" />
<path d="M53824 47431
L53862 47469
L53899 47581
L53899 47656
L53862 47769
L53787 47844
L53712 47881
L53562 47919
L53449 47919
L53299 47881
L53224 47844
L53149 47769
L53112 47656
L53112 47581
L53149 47469
L53187 47431
" />
<path d="M53899 46981
L53862 47056
L53824 47094
L53749 47131
L53524 47131
L53449 47094
L53412 47056
L53374 46981
L53374 46869
L53412 46794
L53449 46756
L53524 46719
L53749 46719
L53824 46756
L53862 46794
L53899 46869
L53899 46981
" />
<path d="M53374 46381
L53899 46381
" />
<path d="M53449 46381
L53412 46344
L53374 46269
L53374 46156
L53412 46081
L53487 46044
L53899 46044
" />
<path d="M53374 45781
L53374 45481
" />
<path d="M53112 45669
L53787 45669
L53862 45631
L53899 45556
L53899 45481
" />
<path d="M53899 45219
L53374 45219
" />
<path d="M53524 45219
L53449 45181
L53412 45144
L53374 45069
L53374 44994
" />
<path d="M53899 44619
L53862 44694
L53824 44731
L53749 44769
L53524 44769
L53449 44731
L53412 44694
L53374 44619
L53374 44506
L53412 44431
L53449 44394
L53524 44356
L53749 44356
L53824 44394
L53862 44431
L53899 44506
L53899 44619
" />
<path d="M53899 43907
L53862 43982
L53787 44019
L53112 44019
" />
<path d="M53862 43644
L53899 43569
L53899 43419
L53862 43344
L53787 43307
L53749 43307
L53674 43344
L53637 43419
L53637 43532
L53599 43607
L53524 43644
L53487 43644
L53412 43607
L53374 43532
L53374 43419
L53412 43344
" />
<g transform="rotate(-90 53543.3 28346.5)">
<text x="53543.3" y="28740.2"
textLength="10613" font-size="1049.87" lengthAdjust="spacingAndGlyphs"
text-anchor="middle" opacity="0">Player 1 Controls</text>
</g>
<path d="M53899 33427
L53112 33427
L53112 33127
L53149 33052
L53187 33014
L53262 32977
L53374 32977
L53449 33014
L53487 33052
L53524 33127
L53524 33427
" />
<path d="M53899 32527
L53862 32602
L53787 32639
L53112 32639
" />
<path d="M53899 31889
L53487 31889
L53412 31927
L53374 32002
L53374 32152
L53412 32227
" />
<path d="M53862 31889
L53899 31964
L53899 32152
L53862 32227
L53787 32264
L53712 32264
L53637 32227
L53599 32152
L53599 31964
L53562 31889
" />
<path d="M53374 31589
L53899 31402
" />
<path d="M53374 31214
L53899 31402
L54086 31477
L54124 31514
L54161 31589
" />
<path d="M53862 30614
L53899 30689
L53899 30839
L53862 30914
L53787 30952
L53487 30952
L53412 30914
L53374 30839
L53374 30689
L53412 30614
L53487 30577
L53562 30577
L53637 30952
" />
<path d="M53899 30239
L53374 30239
" />
<path d="M53524 30239
L53449 30202
L53412 30164
L53374 30089
L53374 30014
" />
<path d="M53899 28740
L53899 29190
" />
<path d="M53899 28965
L53112 28965
L53224 29040
L53299 29115
L53337 29190
" />
<path d="M53824 27352
L53862 27390
L53899 27502
L53899 27577
L53862 27690
L53787 27765
L53712 27802
L53562 27840
L53449 27840
L53299 27802
L53224 27765
L53149 27690
L53112 27577
L53112 27502
L53149 27390
L53187 27352
" />
<path d="M53899 26902
L53862 26977
L53824 27015
L53749 27052
L53524 27052
L53449 27015
L53412 26977
L53374 26902
L53374 26790
L53412 26715
L53449 26677
L53524 26640
L53749 26640
L53824 26677
L53862 26715
L53899 26790
L53899 26902
" />
<path d="M53374 26302
L53899 26302
" />
<path d="M53449 26302
L53412 26265
L53374 26190
L53374 26077
L53412 26002
L53487 25965
L53899 25965
" />
<path d="M53374 25703
L53374 25403
" />
<path d="M53112 25590
L53787 25590
L53862 25553
L53899 25478
L53899 25403
" />
<path d="M53899 25140
L53374 25140
" />
<path d="M53524 25140
L53449 25103
L53412 25065
L53374 24990
L53374 24915
" />
<path d="M53899 24540
L53862 24615
L53824 24653
L53749 24690
L53524 24690
L53449 24653
L53412 24615
L53374 24540
L53374 24428
L53412 24353
L53449 24315
L53524 24278
L53749 24278
L53824 24315
L53862 24353
L53899 24428
L53899 24540
" />
<path d="M53899 23828
L53862 23903
L53787 23940
L53112 23940
" />
<path d="M53862 23565
L53899 23490
L53899 23340
L53862 23265
L53787 23228
L53749 23228
L53674 23265
L53637 23340
L53637 23453
L53599 23528
L53524 23565
L53487 23565
L53412 23528
L53374 23453
L53374 23340
L53412 23265
" />
</g>
<g style="fill:#000000; fill-opacity:1.0; 
stroke:#000000; stroke-width:3.93701; stroke-opacity:1; 
stroke-linecap:round; stroke-linejoin:round;">
<path style="fill:#000000; fill-opacity:1.0; 
stroke:#000000; stroke-width:3.93701; stroke-opacity:1; 
stroke-linecap:round; stroke-linejoin:round;fill-rule:evenodd;"
d="M 72037.2,32223.4
72037.2,32016.2
72037.3,31919.8
72037.3,30376.3
72128.2,30376.3
72239,30366.5
72341.1,30337.2
72435.2,30288.1
72521.9,30218.8
72545.4,30195.3
72611.8,30111
72660.3,30018
72690.8,29919.1
72703.3,29817.1
72697.9,29714.7
72674.7,29614.7
72633.6,29519.9
72574.6,29433
72539,29393.9
72451.7,29321.2
72355.8,29267.8
72252.2,29234.4
72142.2,29221.2
72131.3,29221
72037.3,29220.3
72037.3,29179
72042.2,29142.3
72054.3,29108.8
72055.6,29106.6
72059.5,29099
72062.6,29092.1
72065.7,29085.7
72069.7,29079.9
72075.5,29074.7
72083.9,29069.9
72096,29065.7
72112.6,29061.9
72134.5,29058.6
72162.7,29055.7
72198,29053.2
72241.4,29051.1
72293.7,29049.2
72355.8,29047.8
72428.6,29046.6
72513,29045.6
72610,29044.9
72720.3,29044.5
72844.9,29044.2
72984.6,29044.1
73140.4,29044.1
73313.2,29044.2
73503.8,29044.5
73713.1,29044.8
73942.1,29045.1
74191.5,29045.5
74221.9,29045.5
74472.9,29045.8
74703.4,29046.1
74914.1,29046.3
75106,29046.6
75279.9,29046.9
75436.8,29047.3
75577.5,29047.7
75702.9,29048.3
75814,29049
75911.5,29050
75996.5,29051.1
76069.8,29052.4
76132.2,29054.1
76184.7,29056
76228.2,29058.2
76263.5,29060.8
76291.6,29063.8
76313.2,29067.2
76329.5,29071
76341.1,29075.3
76349,29080.1
76354.1,29085.4
76357.3,29091.3
76359.5,29097.7
76361.6,29104.8
76364.4,29112.5
76365.2,29114.3
76367.1,29120.2
76368.9,29130.1
76370.5,29144.9
76372,29165.3
76373.3,29192.3
76374.5,29226.7
76375.6,29269.4
76376.5,29321.3
76377.4,29383.2
76378.1,29456
76378.8,29540.5
76379.3,29637.7
76379.8,29748.3
76380.2,29873.3
76380.5,30013.4
76380.7,30169.6
76380.9,30342.8
76381,30533.7
76381.1,30743.3
76381.1,30972.3
76381.1,31221.8
76381.1,31302.6
76381.1,31557.6
76381,31792
76380.9,32006.6
76380.7,32202.3
76380.6,32380
76380.3,32540.6
76380,32684.9
76379.7,32813.8
76379.2,32928.2
76378.7,33029
76378.1,33117
76377.4,33193.1
76376.6,33258.1
76375.7,33313
76374.6,33358.7
76373.5,33395.9
76372.2,33425.6
76370.8,33448.6
76369.3,33465.9
76367.6,33478.2
76365.7,33486.6
76364,33491.1
76360.6,33499.1
76358.1,33506.5
76355.6,33513.3
76352.2,33519.4
76347,33525
76339.2,33530.1
76327.8,33534.6
76312,33538.6
76290.8,33542.2
76263.5,33545.3
76229,33548
76186.5,33550.4
76135.1,33552.4
76073.9,33554
76002.1,33555.4
75918.7,33556.5
75886.7,33556.8
75886.7,33269.8
75886.7,32255.5
75857.1,32275
75826.8,32294.4
75797.8,32310.9
75768.3,32324.6
75736.2,32335.8
75699.5,32344.7
75656.1,32351.6
75604,32356.7
75541.3,32360.2
75465.8,32362.3
75375.6,32363.4
75268.5,32363.6
75142.7,32363.2
75096,32362.9
74595.3,32360.1
75027.2,32042.9
75149.7,31953.1
75256.4,31875.2
75348.6,31808.5
75427.9,31752.2
75495.5,31705.3
75553,31667
75601.7,31636.6
75643.1,31613.2
75678.5,31595.8
75709.4,31583.8
75737.2,31576.1
75763.3,31572.1
75789.1,31570.9
75816,31571.5
75819.4,31571.7
75886.8,31575.2
75886.7,31019.4
75886.7,30463.6
75803.3,30546.3
75780.5,30568.7
75758.4,30590
75735.6,30611.1
75710.9,30632.8
75683.2,30656.3
75651.3,30682.3
75613.8,30711.8
75569.6,30745.8
75517.5,30785.2
75456.1,30830.9
75384.4,30883.8
75301.1,30945
75204.9,31015.2
75094.6,31095.6
74969.1,31186.9
74866.1,31261.7
74736.7,31355.7
74623.6,31437.6
74525.7,31508.3
74441.8,31568.5
74371,31618.9
74312.2,31660.3
74264.3,31693.4
74226.1,31719
74196.7,31737.8
74175,31750.6
74159.8,31758
74150.2,31760.9
74145.2,31760
74131.7,31749.6
74103.2,31727
74061.3,31693.6
74007.9,31650.8
73944.4,31599.9
73872.7,31542.4
73794.4,31479.5
73711.3,31412.6
73624.9,31343.2
73537.1,31272.5
73488.9,31233.6
73488.9,30268.3
73634,30188.1
75741.6,30188.1
75886.7,30268.3
75886.7,29793.7
75886.7,29680.4
75886.5,29586.9
75886.2,29511.2
75885.6,29451.7
75884.6,29406.5
75883.3,29373.9
75881.4,29352
75879,29339.1
75876,29333.4
75872.2,29333.1
75867.6,29336.4
75867.6,29336.5
75848,29350
75816.1,29368
75784.3,29383.8
75720,29413.9
74604.5,29417
73488.9,29420
73488.9,30268.3
73488.9,31233.6
73449.5,31202
73363.8,31132.9
73281.7,31066.7
73204.9,31004.7
73135.1,30948.3
73074,30898.8
73023.2,30857.6
72984.5,30826.1
72962,30807.6
72877.6,30735.8
72801.5,30666.7
72736.1,30602.8
72683.9,30546.4
72651.9,30506.4
72617.9,30459.1
72617.9,31547.2
72681.8,31546.9
72728.7,31549.9
72772.2,31561.3
72813.5,31579
72836.8,31590.6
72859.9,31602.9
72884.3,31617.3
72911.6,31634.8
72943.2,31656.5
72980.8,31683.6
73025.8,31717.3
73079.8,31758.6
73144.3,31808.6
73220.9,31868.6
73311.1,31939.6
73416.4,32022.8
73428.3,32032.2
73843,32360.1
73383.7,32363.3
73246.1,32363.9
73129.6,32363.8
73033.9,32362.9
72958.5,32361.2
72903,32358.7
72867.1,32355.4
72860.3,32354.3
72788.6,32336.8
72724,32314
72672,32288
72650,32272.3
72617.9,32245.3
72617.9,32757.7
72618,32879.9
72618.3,32982.1
72619,33065.8
72619.9,33132.4
72621.2,33183.5
72622.9,33220.5
72625,33245
72627.6,33258.4
72630.7,33262.2
72631.3,33261.9
72647.7,33251
72673.7,33232.9
72686.9,33223.5
72700,33213.8
72711.7,33205.1
72723.2,33197.3
72735.6,33190.4
72750.1,33184.3
72767.8,33178.9
72789.9,33174.3
72817.6,33170.3
72851.9,33166.9
72894.1,33164.1
72945.3,33161.7
73006.6,33159.8
73079.3,33158.3
73164.4,33157
73263.1,33156.1
73376.6,33155.3
73506.1,33154.7
73652.6,33154.3
73817.3,33153.8
74001.5,33153.4
74170.6,33153
74359.2,33152.6
74539.1,33152.4
74709.2,33152.3
74868.4,33152.5
75015.5,33152.8
75149.3,33153.3
75268.7,33154
75372.5,33154.8
75459.7,33155.7
75529,33156.9
75579.2,33158.1
75609.4,33159.5
75612.6,33159.7
75685.7,33169.3
75744.3,33184.1
75795.6,33206.7
75846.2,33239.5
75851.8,33243.6
75886.7,33269.8
75886.7,33556.8
75822.9,33557.4
75713.7,33558
75590.3,33558.5
75451.8,33558.8
75297.3,33559
75125.9,33559.1
74936.8,33559.1
74728.9,33559.1
74501.5,33559.1
74253.7,33559.1
74204.4,33559.1
73954,33559
73724.1,33559
73514,33558.9
73322.8,33558.8
73149.5,33558.6
72993.4,33558.3
72853.4,33558
72728.7,33557.6
72618.5,33557.2
72521.9,33556.6
72438,33556
72365.8,33555.2
72304.6,33554.4
72253.3,33553.4
72211.3,33552.3
72177.5,33551.1
72151.1,33549.7
72131.1,33548.2
72116.8,33546.6
72107.3,33544.8
72101.6,33542.8
72101.4,33542.7
72092.7,33538.7
72084.8,33535.3
72077.7,33531.6
72071.3,33526.5
72065.6,33518.9
72060.6,33507.9
72056.3,33492.4
72052.4,33471.3
72049.2,33443.7
72046.4,33408.5
72044.1,33364.7
72042.2,33311.1
72040.7,33246.9
72039.5,33170.9
72038.6,33082.2
72038,32979.6
72037.6,32862.2
72037.3,32728.9
72037.2,32578.7
72037.2,32410.5
Z" /> 
<path style="fill:#000000; fill-opacity:1.0; 
stroke:#000000; stroke-width:3.93701; stroke-opacity:1; 
stroke-linecap:round; stroke-linejoin:round;fill-rule:evenodd;"
d="M 72575.1,27214.5
72587.8,27098.5
72610.5,26986.2
72644.5,26872.9
72690.8,26754.1
72750.7,26625.2
72762.3,26602
72788.5,26548.7
72812.2,26498.4
72830.9,26456.2
72842.6,26426.9
72844,26422.4
72857,26379.2
73138,26572.4
73206.7,26619.6
73269.4,26662.8
73324.1,26700.4
73368.6,26731.1
73400.7,26753.3
73418.5,26765.6
73421.3,26767.6
73415.4,26775.8
73397.8,26795.7
73371.6,26824
73356.8,26839.6
73286.4,26928
73233,27027.3
73203.8,27112.8
73194.6,27164.2
73189,27228.5
73187.1,27298.1
73188.9,27365.6
73194.7,27423.4
73199.2,27446.5
73234.9,27550.3
73289.5,27643.9
73362.8,27727.2
73454.7,27800.1
73565.2,27862.5
73694.1,27914.3
73841.3,27955.5
73967.4,27980
74023,27986.4
74094.9,27990.7
74177.8,27993.1
74266.7,27993.5
74356.3,27992
74441.5,27988.6
74517.1,27983.4
74577.9,27976.4
74587.3,27974.9
74738.5,27941.6
74872.4,27896.3
74989.4,27838.5
75090.3,27768.2
75144.8,27718.3
75218.8,27628.5
75273.7,27530.1
75309.1,27424.7
75324.8,27313.9
75320.4,27199.4
75295.7,27082.9
75271.5,27014
75223,26918.7
75153.5,26820.5
75106.5,26765.4
75079.2,26734.5
75059.3,26710.2
75049.7,26696.4
75049.4,26694.7
75059.2,26688.5
75085.2,26672.6
75125.1,26648.1
75176.7,26616.6
75237.7,26579.3
75306,26537.7
75344.1,26514.6
75634.7,26337.6
75743.9,26558.5
75783.1,26638.4
75814.1,26703.1
75838.2,26756.6
75857.2,26802.9
75872.4,26845.8
75885.6,26889.4
75898.1,26937.6
75909,26983.8
75917.5,27024.8
75924,27067.8
75928.7,27116.9
75932,27176.5
75934.3,27250.9
75935.3,27301
75936,27372.5
75935.7,27441.1
75934.4,27502.2
75932.3,27551.3
75929.4,27583.8
75929.1,27585.7
75892.6,27754.6
75837.2,27913.2
75762.9,28061.5
75669.9,28199.3
75558,28326.7
75427.5,28443.6
75311.4,28528.2
75159.6,28618.3
74999.2,28691.2
74829,28747.1
74647.7,28786.5
74454,28809.6
74257.4,28816.9
74067.2,28810.9
73891.7,28792.1
73727.9,28759.8
73573,28713.4
73423.8,28652.4
73408.4,28645.2
73264,28564.9
73126.5,28466.4
72998.9,28352.3
72884,28225.5
72784.6,28088.8
72711.7,27961.4
72654.6,27832.7
72613.2,27703.7
72586.5,27569.5
72573.2,27425
72571.3,27338.6
Z" /> 
<path style="fill:#000000; fill-opacity:1.0; 
stroke:#000000; stroke-width:3.93701; stroke-opacity:1; 
stroke-linecap:round; stroke-linejoin:round;fill-rule:evenodd;"
d="M 73439.5,25078.4
73443.5,25025.1
73463.8,24872.7
73496.2,24737.7
73541,24619.5
73598.8,24517.4
73670.1,24430.7
73755.1,24358.9
73854.5,24301.3
73962,24259.1
73996.3,24248.5
74028.4,24239.1
74060.1,24231.1
74093,24224.2
74128.9,24218.4
74169.6,24213.5
74216.8,24209.5
74272.1,24206.2
74337.4,24203.4
74414.3,24201.2
74504.6,24199.4
74610,24197.9
74732.3,24196.5
74873.1,24195.2
74983.5,24194.3
75741.6,24188.1
75814.5,24147.8
75849.6,24128.7
75876.9,24114.5
75891.5,24107.7
75892.5,24107.4
75893.6,24117.8
75894.6,24147.3
75895.5,24193.6
75896.3,24254.4
75896.9,24327.3
75897.3,24409.9
75897.5,24499.9
75897.5,24510.7
75897.5,24913.9
75806.1,24913.9
75764.8,24914.6
75733.2,24916.4
75716.2,24919.1
75714.7,24920.2
75721.2,24930.9
75738.5,24952.9
75762.7,24981.4
75763.2,24982.1
75802,25034.2
75841,25099.9
75876.3,25172
75904.1,25242.9
75913.5,25274.1
75925.6,25336.2
75933.3,25412.4
75936.5,25495.8
75935.2,25579.3
75929.1,25655.9
75920.4,25709.6
75881.8,25841.2
75826.7,25959.6
75755.9,26064.2
75670,26154
75569.8,26228.5
75455.9,26286.8
75386.7,26311.9
75319.5,26327.6
75238.8,26338.1
75152.2,26342.9
75139.5,26342.7
75139.5,25615.5
75204,25609.5
75257.5,25589.4
75307.2,25552.3
75321.7,25538
75361.1,25487.4
75386.3,25428.8
75398.5,25358.6
75399.4,25284.7
75393.5,25214.6
75381.9,25161
75373.2,25137.7
75349.4,25095.7
75316,25051.2
75278.5,25010.6
75242.4,24980.3
75229.2,24972.2
75210.7,24966
75181.2,24961.5
75138,24958.7
75078.2,24957.2
75021.3,24956.9
74955,24957.1
74907,24957.9
74874.3,24959.7
74853.7,24962.7
74842,24967.3
74836.2,24973.7
74835.3,24975.7
74832.5,24993.1
74830.1,25027.3
74828.5,25073.8
74827.9,25127.9
74827.9,25139.7
74829,25212.1
74832.5,25268
74838.7,25312.4
74847.7,25349.1
74882.1,25440.1
74924.4,25511.4
74975.3,25563.8
75035.4,25597.7
75105.5,25613.9
75139.5,25615.5
75139.5,26342.7
75066.9,26341.8
74990.4,26334.5
74959.5,26328.9
74844.9,26292.6
74739.4,26237.5
74644.1,26164.6
74559.9,26074.9
74488,25969.5
74429.3,25849.4
74393.6,25747.2
74374.9,25679
74360.3,25613.7
74349.4,25547.1
74341.8,25475.1
74337,25393.3
74334.4,25297.6
74333.7,25211.1
74333,24954.5
74255.8,24959.4
74172.1,24973.4
74100.2,25003.1
74041.8,25047.2
73998.8,25104.6
73977.8,25155.1
73964.6,25227.5
73962.7,25313.6
73971.4,25409.5
73990.1,25511.1
74018,25614.4
74054.4,25715.3
74087.7,25788.7
74104.8,25823.9
74116.8,25850.8
74121.4,25864.5
74121.3,25865.3
74110.8,25870
74083.2,25881.8
74040.9,25899.5
73986.7,25922.1
73923.2,25948.5
73858.4,25975.3
73598.9,26082.3
73586.4,26006.2
73580.2,25973.2
73569.6,25923.5
73555.8,25861.6
73539.6,25791.5
73522,25717.5
73514.8,25688.1
73485.3,25560.7
73463.1,25449.2
73447.9,25349.3
73439.2,25257
73436.6,25168.1
Z" /> 
<path style="fill:#000000; fill-opacity:1.0; 
stroke:#000000; stroke-width:3.93701; stroke-opacity:1; 
stroke-linecap:round; stroke-linejoin:round;fill-rule:evenodd;"
d="M 72415.6,22200.4
72416,22109
72416.2,22077.9
72419,21650.5
74058.8,21645.1
74281.1,21644.4
74483,21643.7
74665.5,21643.1
74829.6,21642.6
74976.4,21641.9
75106.9,21641.2
75222.2,21640.4
75323.2,21639.4
75411.1,21638.2
75487,21636.7
75551.7,21635
75606.5,21633
75652.2,21630.5
75690.1,21627.7
75721,21624.5
75746.1,21620.7
75766.5,21616.4
75783,21611.6
75796.9,21606.1
75809.1,21600
75820.7,21593.2
75832.7,21585.7
75846.2,21577.4
75849.1,21575.7
75897.7,21547.2
75894.9,21959.1
75892.1,22370.9
75801.6,22376.3
75758.2,22379.2
75733.1,22382.2
75723.2,22386.4
75725.2,22392.6
75730.9,22397.8
75751.8,22420.4
75778.7,22457.3
75808.3,22503.2
75837.5,22553
75863,22601.5
75879.7,22638.7
75907.3,22725.9
75926.9,22825.9
75937.6,22931.4
75938.8,23035
75929.7,23129.2
75929.5,23130.8
75897.1,23259.7
75845.6,23380.5
75775.9,23491.8
75689.3,23592.6
75586.8,23681.6
75469.5,23757.7
75338.5,23819.8
75241.6,23853.5
75160.4,23875.8
75081.8,23892.4
75001.1,23903.6
74913.3,23910.2
74813.8,23912.4
74732.5,23911.4
74732.5,23118
74868.8,23114.2
74986,23102.4
75085.2,23082.1
75167.5,23053
75233.9,23014.7
75285.4,22966.8
75321.8,22911.6
75335.4,22882.9
75343.5,22857.9
75347.3,22830.1
75347.6,22792.8
75346.2,22752.6
75339.2,22673.5
75325.5,22611
75318.7,22591.3
75298.5,22546.4
75273.1,22499.1
75260.4,22478.4
75225.1,22424.6
74107.4,22424.6
74071.9,22483.8
74031.9,22566.3
74008.2,22650.5
74000.7,22733.5
74009.3,22812.1
74033.9,22883.2
74074.3,22943.8
74093.7,22963.4
74157.2,23010.5
74234,23048.7
74325.6,23078.2
74433.2,23099.3
74558,23112.4
74701.6,23117.8
74732.5,23118
74732.5,23911.4
74698.7,23911
74521.7,23901.9
74362.1,23883.7
74217.4,23855.8
74085.5,23817.8
73963.9,23769.3
73927.9,23751.9
73810.4,23682.1
73705.9,23597.7
73616.2,23500.7
73543,23393.1
73487.9,23276.9
73465.2,23207.3
73451.7,23138.9
73443.7,23056.6
73441.2,22967.3
73444,22877.9
73452.4,22795.3
73465.5,22729
73491.1,22650.1
73524.1,22573.5
73561.1,22506.6
73586.2,22471
73604.9,22446.4
73616.3,22429.2
73617.9,22425.3
73607.5,22424.1
73577.7,22422.9
73530.6,22421.9
73468.3,22421
73392.9,22420.3
73306.5,22419.7
73211.3,22419.4
73114.2,22419.3
72990,22419.3
72885.2,22419.6
72797.9,22420.4
72726.1,22421.7
72667.8,22423.9
72621,22427
72583.6,22431.2
72553.8,22436.8
72529.4,22443.9
72508.5,22452.7
72489,22463.3
72469,22476
72466.5,22477.7
72440.6,22494.1
72422.8,22504
72419.1,22505.3
72417.9,22494.9
72416.9,22465.3
72416.2,22418.8
72415.7,22357.6
72415.5,22284.1
Z" /> 
<path style="fill:#000000; fill-opacity:1.0; 
stroke:#000000; stroke-width:3.93701; stroke-opacity:1; 
stroke-linecap:round; stroke-linejoin:round;fill-rule:evenodd;"
d="M 71694.8,29694
71722.8,29613.3
71766.9,29538.1
71827,29471
71903.2,29414.3
71951.2,29388.9
72018.4,29366.9
72095.9,29356.2
72175.7,29357.4
72247.9,29370.5
72336.2,29406.4
72412.8,29458.4
72476.1,29523.9
72524.8,29600.2
72557.2,29684.8
72571.9,29775
72567.4,29868
72557.6,29913.9
72522.9,30003.3
72469.8,30082.7
72400.1,30150.2
72315.3,30203.9
72306.1,30208.4
72271.3,30224.1
72242.1,30234
72211.2,30239.3
72171.7,30241.5
72128.7,30241.9
72076.9,30241.3
72039.6,30238.5
72009.4,30232.4
71979.1,30221.4
71949.3,30207.8
71864.6,30157.2
71796.1,30094.9
71743.7,30023.3
71707.3,29945
71687.1,29862.4
71682.9,29777.9
Z" /> 
<path style="fill:#000000; fill-opacity:1.0; 
stroke:#000000; stroke-width:3.93701; stroke-opacity:1; 
stroke-linecap:round; stroke-linejoin:round;fill-rule:evenodd;"
d="M 76739,32319.8
76739.3,32288.6
76741.5,32197.1
76748.1,32120.5
76759.7,32056.1
76777.1,32001.4
76800.9,31953.7
76831.9,31910.4
76845.4,31894.9
76876.9,31869.3
76919.6,31846.2
76967,31828.4
77012.4,31818.6
77029.2,31817.6
77075.7,31824
77126.5,31841
77174.6,31865.6
77213,31894.7
77217.6,31899.4
77250.2,31939.6
77275.6,31983.5
77294.5,32033.8
77307.6,32092.9
77315.6,32163.5
77319.1,32248
77319.4,32286.7
77319.1,32336
77318.2,32370.6
77316,32393.8
77312.2,32409
77306.5,32419.3
77301.5,32424.8
77295.5,32430
77287.8,32434.1
77276.3,32437.2
77258.9,32439.4
77233.5,32440.9
77198.1,32441.9
77150.7,32442.4
77089,32442.6
77029.2,32442.6
76949.4,32442.8
76885.6,32442.8
76855.1,32442
76855.1,32326.6
77203.3,32326.6
77203.2,32252.9
77202,32208.6
77198.7,32162.1
77194.1,32123.4
77193.9,32122.2
77178.8,32059.6
77155.2,32011.1
77121.7,31974.2
77085.4,31950.7
77045.1,31936.2
77007.2,31937.3
76966.7,31954.1
76924.8,31987
76893.7,32032.4
76872.9,32091.6
76865.5,32131.1
76860.4,32175.9
76856.6,32223.5
76855.1,32263.9
76855.1,32266.3
76855.1,32326.6
76855.1,32442
76836.1,32441.5
76799.1,32438.2
76772.8,32431.7
76755.4,32421.2
76745.1,32405.7
76740.1,32384.3
76738.7,32356
Z" /> 
<path style="fill:#000000; fill-opacity:1.0; 
stroke:#000000; stroke-width:3.93701; stroke-opacity:1; 
stroke-linecap:round; stroke-linejoin:round;fill-rule:evenodd;"
d="M 76739.1,31205.8
76739.4,31150.9
76740.1,31109.4
76741.3,31079.3
76743.2,31058.2
76746.1,31043.9
76749.9,31034.3
76754.9,31027.2
76757.2,31024.7
76781.8,31009
76810,31006.2
76835.1,31016.5
76840.1,31021.3
76845,31028.9
76848.8,31041.3
76851.7,31060.7
76853.8,31089.4
76855.3,31129.7
76856.5,31183.8
76857.1,31233.3
76859.6,31429.2
76910.9,31431.9
76962.2,31434.6
76962.2,31301.6
76962.7,31243.9
76964.8,31201.6
76969.4,31172.4
76977.3,31154
76989.4,31143.8
77006.7,31139.7
77022.7,31139.1
77042.4,31141
77056.8,31148.4
77066.9,31163.5
77073.3,31188.6
77076.8,31226
77078.2,31277.9
77078.3,31306.2
77078.3,31433.7
77203.3,31433.7
77203.3,31237.3
77203.4,31172.9
77203.8,31123.9
77204.7,31088.1
77206.3,31062.8
77208.9,31045.8
77212.5,31034.7
77217.5,31026.9
77221.2,31023
77242.4,31009.5
77261.3,31005.1
77284.4,31011.3
77301.5,31023
77306.9,31029.2
77311.1,31037.2
77314.2,31049.2
77316.4,31067.3
77317.9,31093.7
77318.8,31130.5
77319.2,31180
77319.4,31244.1
77319.4,31277.4
77319.3,31348.8
77319,31404.4
77318.4,31446.5
77317.2,31477.2
77315.3,31498.6
77312.6,31513
77308.9,31522.5
77304,31529.3
77301.5,31531.9
77295.5,31537.1
77287.8,31541.2
77276.2,31544.3
77258.7,31546.6
77233.3,31548.1
77197.8,31549
77150.2,31549.5
77088.3,31549.7
77030.8,31549.8
76957,31549.7
76899.1,31549.6
76854.8,31549.1
76822.1,31548.1
76799,31546.5
76783.2,31544.1
76772.9,31540.7
76765.7,31536.2
76759.8,31530.5
76758.4,31529.1
76752.6,31522.3
76748,31514.3
76744.6,31503
76742.2,31486.2
76740.6,31461.7
76739.6,31427.2
76739.2,31380.6
76739,31319.6
76739,31276.3
Z" /> 
<path style="fill:#000000; fill-opacity:1.0; 
stroke:#000000; stroke-width:3.93701; stroke-opacity:1; 
stroke-linecap:round; stroke-linejoin:round;fill-rule:evenodd;"
d="M 76740,30398.2
76744.2,30339
76750.6,30284
76759.2,30236.3
76769.6,30199.1
76781.5,30175.7
76785.1,30172.1
76812.4,30159.6
76840.5,30163.4
76864.5,30182.8
76865.2,30183.7
76872.6,30195.1
76876.5,30207
76877,30223.6
76874.1,30249.1
76868,30287.7
76867.5,30290.8
76860.4,30348.4
76856.9,30410.4
76856.9,30472.7
76860.2,30530.8
76866.7,30580.3
76876.2,30617
76877.2,30619.4
76892.1,30646
76907.2,30655.3
76922,30648
76936.2,30624.6
76949.2,30585.8
76960.7,30532
76966.3,30496.2
76976.9,30421.7
76986.7,30362.5
76996.4,30315.9
77006.8,30279.6
77018.9,30250.9
77033.4,30227.4
77051.2,30206.6
77068.8,30189.8
77093.2,30169.9
77114.1,30160.1
77140,30157
77149.5,30156.9
77180.9,30159.2
77204.2,30168.4
77225,30184.3
77256.7,30216.7
77280.9,30252.7
77298.3,30295.2
77309.8,30346.8
77316.1,30410.1
77318.1,30487.8
77318.1,30500.7
77317,30552.5
77314.5,30603.9
77311.1,30649.3
77307,30683.1
77306.5,30685.8
77298.5,30719.4
77288.5,30747.8
77279.3,30763.9
77255.1,30778.9
77226.9,30780
77201.8,30767
77198.9,30764.1
77190.5,30752.2
77186.8,30737.2
77187.5,30714.1
77190.7,30686
77193.6,30654.6
77196,30610.6
77197.7,30559.3
77198.6,30505.8
77198.7,30491.7
77198.5,30438
77197.4,30398.8
77195.2,30370.4
77191.4,30349.5
77185.7,30332.7
77181,30322.6
77167.8,30300.3
77155.9,30286.1
77152.5,30284.1
77138.6,30288.4
77125.1,30309.2
77112.6,30345
77101.9,30394.3
77099.5,30408.8
77087.6,30484.7
77077.6,30545.2
77068.9,30592.8
77060.7,30629.7
77052.2,30658.3
77042.8,30681
77031.8,30700
77018.4,30717.7
77001.9,30736.4
76996.1,30742.8
76974.4,30764.9
76957.3,30776.6
76937.7,30781.2
76913,30781.9
76864.5,30773.8
76823.3,30749.4
76789.6,30708.9
76763.3,30652.5
76751.6,30612.3
76744,30568.5
76739.7,30516.1
76738.5,30458.3
Z" /> 
<path style="fill:#000000; fill-opacity:1.0; 
stroke:#000000; stroke-width:3.93701; stroke-opacity:1; 
stroke-linecap:round; stroke-linejoin:round;fill-rule:evenodd;"
d="M 76756.9,29790.8
76762.9,29785.6
76770.6,29781.6
76782.1,29778.5
76799.5,29776.2
76824.9,29774.7
76860.3,29773.7
76907.7,29773.2
76969.4,29773
77029.2,29773
77103.4,29773
77161.9,29773.3
77206.6,29773.9
77239.7,29774.9
77263.2,29776.6
77279.1,29779
77289.7,29782.3
77296.9,29786.6
77301.5,29790.8
77317.1,29816.9
77315.7,29844.8
77298.7,29869.6
77292.1,29875.4
77284.4,29879.8
77273.5,29883.2
77257.3,29885.6
77233.7,29887.3
77200.5,29888.3
77155.6,29888.8
77096.9,29889
77030.5,29889.1
76782.9,29889.1
76760.9,29867.1
76742.5,29840.1
76741.8,29813.9
Z" /> 
<path style="fill:#000000; fill-opacity:1.0; 
stroke:#000000; stroke-width:3.93701; stroke-opacity:1; 
stroke-linecap:round; stroke-linejoin:round;fill-rule:evenodd;"
d="M 76743.4,29020.7
76752.5,28966.5
76766.6,28924.9
76785.2,28897.8
76795.9,28890.4
76820.6,28882.9
76842.9,28888
76864.1,28903.9
76874,28928.7
76873.2,28964.6
76867.8,28992.4
76857.6,29054.2
76856.6,29117.3
76864.9,29187.9
76868.4,29207.5
76887,29273.2
76914.5,29324.6
76950.6,29361.1
76994.8,29382.2
77017.7,29386.6
77064,29383.7
77105.1,29365.3
77139.9,29332.9
77167.9,29288.3
77188.1,29233.2
77199.7,29169.2
77202,29098
77194.2,29021.3
77193.5,29017
77187.8,28986.5
77182.3,28969.6
77174.2,28962.3
77160.5,28960.5
77153.3,28960.5
77123,28960.5
77123,29014.6
77119.7,29062.5
77109.2,29095.1
77090.7,29114.1
77063.2,29121
77059.6,29121.1
77036.1,29117
77019.3,29103.2
77008.2,29077.5
77001.7,29037.8
76999.3,28999.4
76997.9,28943.5
77000,28902.9
77007.7,28875.3
77023.2,28858.1
77048.6,28848.8
77086.1,28845.1
77135.3,28844.4
77190.2,28845.5
77227.6,28848.9
77247.5,28854.5
77249.1,28855.6
77274,28886.4
77293.8,28931.5
77307.9,28988.1
77316,29053.3
77317.7,29124.3
77312.4,29198.3
77306,29241.7
77286.7,29309.9
77255.2,29373.3
77214.2,29426.3
77206,29434.4
77171.6,29460.6
77129,29484.3
77084.3,29502.6
77043.7,29512.8
77028.1,29514
76995.6,29508.8
76955.1,29494.8
76912.5,29474.8
76873.6,29451.5
76847.6,29430.9
76808.9,29382.7
76778.2,29320.4
76756,29246.2
76743.1,29162.3
76739.9,29085.5
Z" /> 
<path style="fill:#000000; fill-opacity:1.0; 
stroke:#000000; stroke-width:3.93701; stroke-opacity:1; 
stroke-linecap:round; stroke-linejoin:round;fill-rule:evenodd;"
d="M 76742.5,28506.6
76753.4,28488
76771.3,28463.6
76797,28432.2
76831.3,28392.6
76875.1,28343.5
76929.1,28283.5
76991.3,28214.9
77120.9,28072.1
76947,28067.6
76887.1,28066
76842.6,28064.5
76810.7,28062.6
76789,28060.1
76774.8,28056.7
76765.7,28051.9
76758.9,28045.5
76756.1,28042.1
76741.1,28014.8
76743.3,27988.8
76756.1,27968.2
76773.1,27947.1
77022.2,27944.5
77095.5,27943.7
77153,27943.4
77197,27943.5
77229.6,27944.2
77252.9,27945.7
77269.1,27948
77280.3,27951.3
77288.6,27955.8
77295.4,27960.7
77307.8,27971.4
77316.1,27982.1
77319.2,27994.1
77316.4,28009.1
77306.8,28028.4
77289.3,28053.6
77263.3,28086
77227.7,28127.3
77181.8,28178.9
77129,28237.3
76938.6,28447.1
77112,28451.6
77171.7,28453.2
77216.2,28454.7
77247.9,28456.6
77269.6,28459.1
77283.7,28462.5
77292.8,28467.3
77299.6,28473.8
77302.3,28477.1
77317.4,28506.3
77315.1,28534
77295.9,28558
77288.1,28563.6
77279,28567.8
77266.5,28571.1
77248.3,28573.4
77222.3,28574.9
77186.2,28575.9
77138,28576.4
77075.5,28576.5
77029.2,28576.6
76956.8,28576.5
76900.1,28576.2
76856.9,28575.6
76825,28574.4
76802.2,28572.6
76786.5,28569.9
76775.6,28566.3
76767.3,28561.6
76762.5,28558
76751.4,28549.1
76742.9,28540.8
76738.1,28531.8
76737.7,28520.8
Z" /> 
<path style="fill:#000000; fill-opacity:1.0; 
stroke:#000000; stroke-width:3.93701; stroke-opacity:1; 
stroke-linecap:round; stroke-linejoin:round;fill-rule:evenodd;"
d="M 76739.2,27296.2
76739.9,27235.8
76741.6,27189.5
76744.6,27155.4
76749.5,27131.8
76756.4,27116.6
76766,27108.1
76778.5,27104.3
76794.3,27103.3
76796.2,27103.3
76814.1,27104.1
76827.9,27107.9
76838.3,27116.6
76845.7,27132.4
76850.7,27157.3
76853.8,27193.4
76855.7,27242.7
76856.9,27307.3
76857.1,27327.1
76859.6,27518.5
76910.9,27521.2
76962.2,27523.9
76962.2,27390.9
76962.4,27338.9
76963.2,27301.8
76965,27276.6
76968.1,27260.2
76972.9,27249.7
76979.7,27242
76979.8,27242
77006.4,27228.1
77035.1,27228.6
77059.6,27243.2
77062.1,27246.1
77068.6,27256.3
77073.1,27270.3
77076,27291.2
77077.6,27322.2
77078.2,27366.3
77078.3,27394.5
77078.3,27523
77203.3,27523
77203.3,27327.9
77203.4,27263.5
77203.9,27214.6
77204.9,27178.9
77206.6,27153.9
77209.2,27137.3
77212.9,27126.7
77217.8,27119.8
77219.6,27118.1
77244.6,27105.3
77273,27104.4
77297.6,27114.9
77305.5,27123.2
77309.8,27131.8
77313.2,27145.2
77315.7,27165.4
77317.4,27194.6
77318.6,27234.9
77319.2,27288.4
77319.4,27357.3
77319.4,27372.8
77319.3,27442.8
77319.1,27497.1
77318.4,27538
77317.3,27567.6
77315.3,27588.1
77312.5,27601.8
77308.7,27610.8
77303.5,27617.3
77299.8,27620.8
77293.3,27626.2
77285.2,27630.4
77273.5,27633.6
77255.9,27635.9
77230.4,27637.4
77194.9,27638.4
77147.3,27638.8
77085.3,27639
77033.2,27639.1
76960.1,27639
76902.8,27638.7
76859,27638.1
76826.6,27637
76803.4,27635.2
76787.3,27632.6
76776.2,27629.1
76767.8,27624.5
76762.5,27620.5
76739,27602
76739,27372.5
Z" /> 
<path style="fill:#000000; fill-opacity:1.0; 
stroke:#000000; stroke-width:3.93701; stroke-opacity:1; 
stroke-linecap:round; stroke-linejoin:round;fill-rule:evenodd;"
d="M 76739.2,26672.9
76742.6,26570.9
76753.1,26484.2
76771.2,26411.2
76797.6,26350.6
76832.8,26301
76877.6,26261
76932.5,26229
76933.8,26228.3
76983,26209.2
77026.5,26202.4
77070.3,26207.9
77120.2,26225.8
77127.9,26229.2
77172.4,26252.3
77206.8,26278.2
77236,26311.7
77265,26357.5
77266.6,26360.1
77285.7,26399.9
77300,26444.9
77309.9,26498
77316,26562
77318.7,26639.9
77318.9,26667.4
77319.4,26798.5
77295.9,26817
77288.1,26822.5
77279.1,26826.7
77266.6,26830
77248.5,26832.3
77222.5,26833.8
77203.3,26834.4
77203.3,26710.5
77203.3,26636.2
77202,26592.8
77198.7,26548.2
77194,26511.6
77193.6,26509.4
77176.1,26444.3
77149.9,26393.9
77113.7,26356.5
77066.4,26330.4
77053.8,26325.9
77034.2,26321.4
77014.9,26323.4
76989.2,26332.7
76976.6,26338.4
76943,26356.8
76919.5,26379.1
76903.1,26403.5
76881.8,26452.5
76866.3,26515.3
76857.4,26588.4
76855.4,26641.3
76855.1,26710.5
77203.3,26710.5
77203.3,26834.4
77186.6,26834.8
77138.6,26835.3
77076.3,26835.5
77027.6,26835.5
76782.9,26835.5
76760.9,26813.6
76752.1,26803.8
76746,26793.3
76742.2,26778.6
76740.1,26756.4
76739.3,26723.2
76739.2,26675.8
Z" /> 
<path style="fill:#000000; fill-opacity:1.0; 
stroke:#000000; stroke-width:3.93701; stroke-opacity:1; 
stroke-linecap:round; stroke-linejoin:round;fill-rule:evenodd;"
d="M 76740.6,24516.6
76746.1,24501.1
76746.4,24500.5
76762.4,24479.5
76779,24467.9
76786.7,24465.6
76797,24465.7
76811.6,24468.9
76832.5,24475.9
76861.4,24487.4
76900.1,24504
76950.4,24526.5
77014.3,24555.6
77049.2,24571.6
77111.5,24600.5
77168.8,24627.6
77219,24652
77260,24672.4
77289.7,24688.1
77306,24697.8
77308.2,24699.7
77318.2,24724.2
77316.8,24752
77304.7,24774.2
77303.8,24775.1
77290.4,24783.9
77264.3,24798.8
77228.8,24817.8
77187.4,24839.1
77172.2,24846.8
77056.2,24904.7
77182.2,24967.8
77225.7,24990.3
77263.5,25011.2
77292.5,25028.8
77310,25041.3
77313.8,25045.5
77318.8,25078.5
77308.2,25105.7
77296.9,25113.7
77271.8,25127.6
77235.3,25146.1
77190,25168.3
77138.3,25192.9
77082.6,25218.8
77025.5,25245
76969.4,25270.2
76916.8,25293.3
76870.1,25313.3
76831.9,25328.9
76804.5,25339.1
76790.6,25342.7
76790.1,25342.6
76772.5,25333.9
76754.6,25316.4
76753.8,25315.4
76741.7,25293.9
76741.8,25274.1
76744.1,25266.6
76749,25257.6
76758.8,25247.9
76775.3,25236.6
76800.6,25222.4
76836.8,25204.1
76885.8,25180.7
76931.1,25159.6
76983.5,25135.3
77030.7,25113.5
77070.1,25095.4
77099.4,25082
77115.9,25074.6
77118.5,25073.5
77114.3,25068.7
77096.5,25057.5
77067.9,25041.5
77031,25022.1
77015.8,25014.4
76964.4,24988.4
76926.9,24968.3
76901.3,24952.5
76885.2,24939.3
76876.7,24927.2
76873.3,24914.5
76873,24906.2
76874.2,24891.5
76879.6,24878.7
76891.3,24865.9
76911.4,24851.5
76942.3,24833.7
76986.1,24810.8
77011,24798.2
77050.7,24777.7
77083.6,24759.8
77106.9,24746.1
77118,24738.2
77118.4,24737.2
77109.7,24732.1
77087.2,24720.6
77053.2,24704
77010,24683.4
76960,24659.9
76935.2,24648.3
76871.1,24618.2
76821.8,24593.9
76785.7,24574.3
76761.1,24558
76746.5,24543.8
76740.2,24530.4
Z" /> 
<path style="fill:#000000; fill-opacity:1.0; 
stroke:#000000; stroke-width:3.93701; stroke-opacity:1; 
stroke-linecap:round; stroke-linejoin:round;fill-rule:evenodd;"
d="M 76744.4,24165.5
76756.1,24146.7
76773.2,24125.7
77027.5,24125.7
77101.9,24125.7
77160.5,24126
77205.4,24126.7
77238.6,24127.8
77262.4,24129.5
77278.6,24132
77289.4,24135.3
77296.9,24139.6
77300.6,24142.7
77316.8,24167.5
77316.1,24195.8
77302.3,24220.7
77285.2,24241.7
76773.2,24241.7
76756.1,24220.7
76743.7,24200.3
76739,24183.7
Z" /> 
<path style="fill:#000000; fill-opacity:1.0; 
stroke:#000000; stroke-width:3.93701; stroke-opacity:1; 
stroke-linecap:round; stroke-linejoin:round;fill-rule:evenodd;"
d="M 76739.1,23553
76739.4,23490.7
76740,23442.4
76741.1,23406.1
76742.7,23379.7
76744.9,23361.4
76747.9,23349.2
76751.7,23341.2
76754.6,23337.2
76780.4,23317
76807.1,23314.5
76831.4,23327
76841.1,23335.2
76847.7,23344.1
76851.8,23356.8
76854,23376.9
76854.9,23407.6
76855.1,23452.4
76855.1,23461.1
76855.1,23576.6
77069.4,23576.6
77136.9,23576.6
77188.9,23577
77227.6,23577.8
77255.3,23579.2
77274.2,23581.4
77286.8,23584.6
77295.1,23588.9
77301.5,23594.4
77317.2,23620.5
77316,23647.6
77298.1,23672.3
77295.9,23674.1
77287.5,23680
77277.6,23684.5
77264,23687.8
77244.2,23690
77215.8,23691.5
77176.4,23692.2
77123.7,23692.6
77063.7,23692.6
76855.1,23692.6
76855.1,23802.8
76854.8,23850.1
76853.5,23882.9
76850.9,23904.4
76846.5,23917.9
76839.9,23926.8
76838.8,23927.8
76812.5,23940.8
76782.8,23939.6
76756.9,23924.8
76751.9,23919
76747.9,23911.6
76744.8,23900.5
76742.6,23883.9
76741,23859.6
76739.9,23825.7
76739.4,23780.3
76739.1,23721.4
76739,23647
76739,23631.1
Z" /> 
<path style="fill:#000000; fill-opacity:1.0; 
stroke:#000000; stroke-width:3.93701; stroke-opacity:1; 
stroke-linecap:round; stroke-linejoin:round;fill-rule:evenodd;"
d="M 76743.3,22551.9
76760.9,22527
76782.9,22505.1
77027.6,22505.1
77100.3,22505.2
77157.2,22505.5
77200.7,22506.1
77232.8,22507.2
77255.7,22509
77271.6,22511.7
77282.6,22515.3
77290.9,22519.9
77295.9,22523.6
77315.3,22547.9
77317.4,22575.8
77305.5,22601.4
77298.4,22609.8
77289.1,22615.4
77274,22618.8
77249.9,22620.5
77213.3,22621.1
77184.9,22621.2
77078.3,22621.2
77078.3,23014.1
77175.3,23014.1
77219.7,23014.5
77250.2,23016.1
77270.8,23019.5
77285.4,23025.4
77295.9,23032.6
77315.2,23057
77317.5,23084.6
77303.8,23111.1
77296.5,23118.3
77287,23123.4
77272,23126.8
77248.8,23128.8
77214.3,23129.9
77165.4,23130.3
77154.2,23130.4
77062.2,23130.8
76986.3,23131
76925,23130.9
76876.5,23130.5
76839.2,23129.7
76811.4,23128.4
76791.4,23126.5
76777.6,23124
76768.3,23120.7
76761.8,23116.7
76756.9,23112.3
76741.2,23087.1
76743.3,23060.8
76760.9,23036
76772.3,23025.9
76784.8,23019.5
76802.7,23016
76830,23014.4
76870.9,23014.1
76872.5,23014.1
76962.2,23014.1
76962.2,22621.2
76868.5,22621.2
76825.3,22620.8
76796.1,22619.2
76777.2,22615.8
76764.6,22609.9
76756.9,22603.3
76741.2,22578.1
Z" /> 
</g>
<g style="fill:#000000; fill-opacity:1.0; 
stroke:#000000; stroke-width:47.2441; stroke-opacity:1; 
stroke-linecap:round; stroke-linejoin:round;">
</g>
<g style="fill:#000000; fill-opacity:0.0; 
stroke:#000000; stroke-width:47.2441; stroke-opacity:1; 
stroke-linecap:round; stroke-linejoin:round;">
<path d="M64665 41279
L65157 41279
" />
<path d="M64665 40787
L64665 41279
" />
<path d="M66830 36496
L66830 38681
" />
<path d="M65669 36496
L66830 36496
" />
<path d="M65669 36200
L65669 36496
" />
<path d="M66830 40866
L66830 38681
" />
<path d="M65669 40866
L66830 40866
" />
<path d="M65669 41161
L65669 40866
" />
<path d="M64783 36200
L64783 36909
" />
<path d="M65078 36200
L64783 36200
" />
<path d="M65078 36909
L65078 36200
" />
<path d="M64783 36909
L65078 36909
" />
<path d="M64783 40452
L64783 41161
" />
<path d="M65078 40452
L64783 40452
" />
<path d="M65078 41161
L65078 40452
" />
<path d="M64783 41161
L65078 41161
" />
<path d="M64783 37500
L64783 39862
" />
<path d="M65078 37500
L64783 37500
" />
<path d="M65078 39862
L65078 37500
" />
<path d="M64783 39862
L65078 39862
" />
<path d="M64779 36196
L64779 41165
" />
<path d="M67129 36196
L64779 36196
" />
<path d="M67129 41165
L67129 36196
" />
<path d="M64779 41165
L67129 41165
" />
<path d="M43826 29330
L44220 29133
" />
<path d="M43826 28937
L43826 29330
" />
<path d="M44220 29133
L43826 28937
" />
<path d="M44889 39440
L44374 39440
" />
</g>
<g style="fill:#000000; fill-opacity:1.0; 
stroke:#000000; stroke-width:0; stroke-opacity:1; 
stroke-linecap:round; stroke-linejoin:round;">
<circle cx="44889.8" cy="39440.9" r="23.622" /> 
</g>
<g style="fill:#000000; fill-opacity:1.0; 
stroke:#000000; stroke-width:47.2441; stroke-opacity:1; 
stroke-linecap:round; stroke-linejoin:round;">
</g>
<g style="fill:#000000; fill-opacity:0.0; 
stroke:#000000; stroke-width:47.2441; stroke-opacity:1; 
stroke-linecap:round; stroke-linejoin:round;">
<path d="M44889 49673
L44889 39440
" />
<path d="M47448 49673
L44889 49673
" />
<path d="M47448 27594
L47448 49673
" />
<path d="M44889 27594
L47448 27594
" />
<path d="M44889 37826
L44889 27594
" />
<path d="M44374 37826
L44889 37826
" />
<path d="M44374 50185
L44374 27082
" />
<path d="M47964 50185
L44374 50185
" />
<path d="M47964 27082
L47964 50185
" />
<path d="M44374 27082
L47964 27082
" />
<path d="M57381 31948
L56889 31948
" />
<path d="M57381 32440
L57381 31948
" />
<path d="M55216 36732
L55216 34547
" />
<path d="M56377 36732
L55216 36732
" />
<path d="M56377 37027
L56377 36732
" />
<path d="M55216 32362
L55216 34547
" />
<path d="M56377 32362
L55216 32362
" />
<path d="M56377 32066
L56377 32362
" />
<path d="M57263 37027
L57263 36318
" />
<path d="M56968 37027
L57263 37027
" />
<path d="M56968 36318
L56968 37027
" />
<path d="M57263 36318
L56968 36318
" />
<path d="M57263 32775
L57263 32066
" />
<path d="M56968 32775
L57263 32775
" />
<path d="M56968 32066
L56968 32775
" />
<path d="M57263 32066
L56968 32066
" />
<path d="M57263 35728
L57263 33366
" />
<path d="M56968 35728
L57263 35728
" />
<path d="M56968 33366
L56968 35728
" />
<path d="M57263 33366
L56968 33366
" />
<path d="M57267 37031
L57267 32062
" />
<path d="M54917 37031
L57267 37031
" />
<path d="M54917 32062
L54917 37031
" />
<path d="M57267 32062
L54917 32062
" />
<path d="M57381 26437
L56889 26437
" />
<path d="M57381 26929
L57381 26437
" />
<path d="M55216 31220
L55216 29035
" />
<path d="M56377 31220
L55216 31220
" />
<path d="M56377 31515
L56377 31220
" />
<path d="M55216 26850
L55216 29035
" />
<path d="M56377 26850
L55216 26850
" />
<path d="M56377 26555
L56377 26850
" />
<path d="M57263 31515
L57263 30807
" />
<path d="M56968 31515
L57263 31515
" />
<path d="M56968 30807
L56968 31515
" />
<path d="M57263 30807
L56968 30807
" />
<path d="M57263 27263
L57263 26555
" />
<path d="M56968 27263
L57263 27263
" />
<path d="M56968 26555
L56968 27263
" />
<path d="M57263 26555
L56968 26555
" />
<path d="M57263 30216
L57263 27854
" />
<path d="M56968 30216
L57263 30216
" />
<path d="M56968 27854
L56968 30216
" />
<path d="M57263 27854
L56968 27854
" />
<path d="M57267 31519
L57267 26551
" />
<path d="M54917 31519
L57267 31519
" />
<path d="M54917 26551
L54917 31519
" />
<path d="M57267 26551
L54917 26551
" />
<path d="M57381 20925
L56889 20925
" />
<path d="M57381 21417
L57381 20925
" />
<path d="M55216 25708
L55216 23523
" />
<path d="M56377 25708
L55216 25708
" />
<path d="M56377 26003
L56377 25708
" />
<path d="M55216 21338
L55216 23523
" />
<path d="M56377 21338
L55216 21338
" />
<path d="M56377 21043
L56377 21338
" />
<path d="M57263 26003
L57263 25295
" />
<path d="M56968 26003
L57263 26003
" />
<path d="M56968 25295
L56968 26003
" />
<path d="M57263 25295
L56968 25295
" />
<path d="M57263 21751
L57263 21043
" />
<path d="M56968 21751
L57263 21751
" />
<path d="M56968 21043
L56968 21751
" />
<path d="M57263 21043
L56968 21043
" />
<path d="M57263 24704
L57263 22342
" />
<path d="M56968 24704
L57263 24704
" />
<path d="M56968 22342
L56968 24704
" />
<path d="M57263 22342
L56968 22342
" />
<path d="M57267 26007
L57267 21039
" />
<path d="M54917 26007
L57267 26007
" />
<path d="M54917 21039
L54917 26007
" />
<path d="M57267 21039
L54917 21039
" />
<path d="M57381 51240
L56889 51240
" />
<path d="M57381 51732
L57381 51240
" />
<path d="M55216 56023
L55216 53838
" />
<path d="M56377 56023
L55216 56023
" />
<path d="M56377 56318
L56377 56023
" />
<path d="M55216 51653
L55216 53838
" />
<path d="M56377 51653
L55216 51653
" />
<path d="M56377 51358
L56377 51653
" />
<path d="M57263 56318
L57263 55610
" />
<path d="M56968 56318
L57263 56318
" />
<path d="M56968 55610
L56968 56318
" />
<path d="M57263 55610
L56968 55610
" />
<path d="M57263 52066
L57263 51358
" />
<path d="M56968 52066
L57263 52066
" />
<path d="M56968 51358
L56968 52066
" />
<path d="M57263 51358
L56968 51358
" />
<path d="M57263 55019
L57263 52657
" />
<path d="M56968 55019
L57263 55019
" />
<path d="M56968 52657
L56968 55019
" />
<path d="M57263 52657
L56968 52657
" />
<path d="M57267 56322
L57267 51354
" />
<path d="M54917 56322
L57267 56322
" />
<path d="M54917 51354
L54917 56322
" />
<path d="M57267 51354
L54917 51354
" />
<path d="M57381 45728
L56889 45728
" />
<path d="M57381 46220
L57381 45728
" />
<path d="M55216 50511
L55216 48326
" />
<path d="M56377 50511
L55216 50511
" />
<path d="M56377 50807
L56377 50511
" />
<path d="M55216 46141
L55216 48326
" />
<path d="M56377 46141
L55216 46141
" />
<path d="M56377 45846
L56377 46141
" />
<path d="M57263 50807
L57263 50098
" />
<path d="M56968 50807
L57263 50807
" />
<path d="M56968 50098
L56968 50807
" />
<path d="M57263 50098
L56968 50098
" />
<path d="M57263 46555
L57263 45846
" />
<path d="M56968 46555
L57263 46555
" />
<path d="M56968 45846
L56968 46555
" />
<path d="M57263 45846
L56968 45846
" />
<path d="M57263 49507
L57263 47145
" />
<path d="M56968 49507
L57263 49507
" />
<path d="M56968 47145
L56968 49507
" />
<path d="M57263 47145
L56968 47145
" />
<path d="M57267 50811
L57267 45842
" />
<path d="M54917 50811
L57267 50811
" />
<path d="M54917 45842
L54917 50811
" />
<path d="M57267 45842
L54917 45842
" />
<path d="M57381 40216
L56889 40216
" />
<path d="M57381 40708
L57381 40216
" />
<path d="M55216 45000
L55216 42814
" />
<path d="M56377 45000
L55216 45000
" />
<path d="M56377 45295
L56377 45000
" />
<path d="M55216 40629
L55216 42814
" />
<path d="M56377 40629
L55216 40629
" />
<path d="M56377 40334
L56377 40629
" />
<path d="M57263 45295
L57263 44586
" />
<path d="M56968 45295
L57263 45295
" />
<path d="M56968 44586
L56968 45295
" />
<path d="M57263 44586
L56968 44586
" />
<path d="M57263 41043
L57263 40334
" />
<path d="M56968 41043
L57263 41043
" />
<path d="M56968 40334
L56968 41043
" />
<path d="M57263 40334
L56968 40334
" />
<path d="M57263 43996
L57263 41633
" />
<path d="M56968 43996
L57263 43996
" />
<path d="M56968 41633
L56968 43996
" />
<path d="M57263 41633
L56968 41633
" />
<path d="M57267 45299
L57267 40330
" />
<path d="M54917 45299
L57267 45299
" />
<path d="M54917 40330
L54917 45299
" />
<path d="M57267 40330
L54917 40330
" />
</g>
<g style="fill:#000000; fill-opacity:0.0; 
stroke:#000000; stroke-width:59.0551; stroke-opacity:1; 
stroke-linecap:round; stroke-linejoin:round;">
<g transform="rotate(-90 64248 36657.5)">
<text x="64248" y="36854.3"
textLength="751.687" font-size="524.934" lengthAdjust="spacingAndGlyphs"
text-anchor="middle" opacity="0">J8</text>
</g>
<path d="M64032 36788
L64313 36788
L64369 36807
L64407 36844
L64426 36901
L64426 36938
" />
<path d="M64201 36544
L64182 36582
L64163 36601
L64126 36619
L64107 36619
L64069 36601
L64051 36582
L64032 36544
L64032 36470
L64051 36432
L64069 36413
L64107 36395
L64126 36395
L64163 36413
L64182 36432
L64201 36470
L64201 36544
L64219 36582
L64238 36601
L64276 36619
L64351 36619
L64388 36601
L64407 36582
L64426 36544
L64426 36470
L64407 36432
L64388 36413
L64351 36395
L64276 36395
L64238 36413
L64219 36432
L64201 36470
" />
<text x="46169.3" y="26929.1"
textLength="751.687" font-size="524.934" lengthAdjust="spacingAndGlyphs"
text-anchor="middle" opacity="0">J1</text>
<path d="M46038 26516
L46038 26797
L46019 26854
L45981 26891
L45925 26910
L45888 26910
" />
<path d="M46431 26910
L46206 26910
" />
<path d="M46319 26910
L46319 26516
L46281 26572
L46244 26610
L46206 26629
" />
<text x="57874" y="32086.6"
textLength="751.687" font-size="524.934" lengthAdjust="spacingAndGlyphs"
text-anchor="middle" opacity="0">J7</text>
<path d="M57742 31674
L57742 31955
L57724 32011
L57686 32049
L57630 32067
L57592 32067
" />
<path d="M57892 31674
L58155 31674
L57986 32067
" />
<text x="57874" y="26574.8"
textLength="751.687" font-size="524.934" lengthAdjust="spacingAndGlyphs"
text-anchor="middle" opacity="0">J6</text>
<path d="M57742 26162
L57742 26443
L57724 26499
L57686 26537
L57630 26556
L57592 26556
" />
<path d="M58098 26162
L58023 26162
L57986 26181
L57967 26199
L57930 26256
L57911 26331
L57911 26481
L57930 26518
L57949 26537
L57986 26556
L58061 26556
L58098 26537
L58117 26518
L58136 26481
L58136 26387
L58117 26349
L58098 26331
L58061 26312
L57986 26312
L57949 26331
L57930 26349
L57911 26387
" />
<text x="57874" y="21063"
textLength="751.687" font-size="524.934" lengthAdjust="spacingAndGlyphs"
text-anchor="middle" opacity="0">J5</text>
<path d="M57742 20650
L57742 20931
L57724 20988
L57686 21025
L57630 21044
L57592 21044
" />
<path d="M58117 20650
L57930 20650
L57911 20838
L57930 20819
L57967 20800
L58061 20800
L58098 20819
L58117 20838
L58136 20875
L58136 20969
L58117 21006
L58098 21025
L58061 21044
L57967 21044
L57930 21025
L57911 21006
" />
<text x="57874" y="51378"
textLength="751.687" font-size="524.934" lengthAdjust="spacingAndGlyphs"
text-anchor="middle" opacity="0">J4</text>
<path d="M57742 50965
L57742 51246
L57724 51302
L57686 51340
L57630 51359
L57592 51359
" />
<path d="M58098 51096
L58098 51359
" />
<path d="M58005 50946
L57911 51227
L58155 51227
" />
<text x="57874" y="45866.1"
textLength="751.687" font-size="524.934" lengthAdjust="spacingAndGlyphs"
text-anchor="middle" opacity="0">J3</text>
<path d="M57742 45453
L57742 45734
L57724 45791
L57686 45828
L57630 45847
L57592 45847
" />
<path d="M57892 45453
L58136 45453
L58005 45603
L58061 45603
L58098 45622
L58117 45641
L58136 45678
L58136 45772
L58117 45809
L58098 45828
L58061 45847
L57949 45847
L57911 45828
L57892 45809
" />
<text x="57874" y="40354.3"
textLength="751.687" font-size="524.934" lengthAdjust="spacingAndGlyphs"
text-anchor="middle" opacity="0">J2</text>
<path d="M57742 39941
L57742 40223
L57724 40279
L57686 40316
L57630 40335
L57592 40335
" />
<path d="M57911 39979
L57930 39960
L57967 39941
L58061 39941
L58098 39960
L58117 39979
L58136 40016
L58136 40054
L58117 40110
L57892 40335
L58136 40335
" />
<g >
</g>
</g> 
</svg>
