<?xml version="1.0" standalone="no"?>
 <!DOCTYPE svg PUBLIC "-//W3C//DTD SVG 1.1//EN" 
 "http://www.w3.org/Graphics/SVG/1.1/DTD/svg11.dtd"> 
<svg
  xmlns:svg="http://www.w3.org/2000/svg"
  xmlns="http://www.w3.org/2000/svg"
  xmlns:xlink="http://www.w3.org/1999/xlink"
  version="1.1"
  width="29.700220cm" height="21.000720cm" viewBox="0 0 116930 82680">
<title>SVG Picture created as rpi-arcade-hat-F_Cu.svg date 2021/09/26 12:15:20 </title>
  <desc>Picture generated by PCBNEW </desc>
<g style="fill:#000000; fill-opacity:1;stroke:#000000; stroke-opacity:1;
stroke-linecap:round; stroke-linejoin:round;"
 transform="translate(0 0) scale(1 1)">
</g>
<g style="fill:#000000; fill-opacity:0.0; 
stroke:#000000; stroke-width:-0.000393701; stroke-opacity:1; 
stroke-linecap:round; stroke-linejoin:round;">
<g >
</g>
<g style="fill:#000000; fill-opacity:0.0; 
stroke:#000000; stroke-width:669.291; stroke-opacity:1; 
stroke-linecap:round; stroke-linejoin:round;">
<path d="M62950 36047
L63049 36047
" />
<path d="M62950 37031
L63049 37031
" />
<path d="M62950 38015
L63049 38015
" />
</g>
<g style="fill:#000000; fill-opacity:0.0; 
stroke:#000000; stroke-width:0; stroke-opacity:1; 
stroke-linecap:round; stroke-linejoin:round;">
</g>
<g style="fill:#000000; fill-opacity:1.0; 
stroke:#000000; stroke-width:0; stroke-opacity:1; 
stroke-linecap:round; stroke-linejoin:round;">
<path style="fill:#000000; fill-opacity:1.0; 
stroke:#000000; stroke-width:0; stroke-opacity:1; 
stroke-linecap:round; stroke-linejoin:round;fill-rule:evenodd;"
d="M 63295.1,38665.8
63304.6,38667.2
63314,38669.6
63323.1,38672.8
63331.8,38677
63340.1,38681.9
63347.9,38687.7
63355,38694.2
63361.5,38701.3
63367.3,38709.1
63372.2,38717.4
63376.4,38726.1
63379.6,38735.2
63382,38744.6
63383.4,38754.1
63383.9,38763.8
63383.9,39236.2
63383.4,39245.9
63382,39255.4
63379.6,39264.8
63376.4,39273.9
63372.2,39282.6
63367.3,39290.9
63361.5,39298.7
63355,39305.8
63347.9,39312.3
63340.1,39318.1
63331.8,39323
63323.1,39327.2
63314,39330.4
63304.6,39332.8
63295.1,39334.2
63285.4,39334.6
62714.6,39334.6
62704.9,39334.2
62695.4,39332.8
62686,39330.4
62676.9,39327.2
62668.2,39323
62659.9,39318.1
62652.1,39312.3
62645,39305.8
62638.5,39298.7
62632.7,39290.9
62627.8,39282.6
62623.6,39273.9
62620.4,39264.8
62618,39255.4
62616.6,39245.9
62616.1,39236.2
62616.1,38763.8
62616.6,38754.1
62618,38744.6
62620.4,38735.2
62623.6,38726.1
62627.8,38717.4
62632.7,38709.1
62638.5,38701.3
62645,38694.2
62652.1,38687.7
62659.9,38681.9
62668.2,38677
62676.9,38672.8
62686,38669.6
62695.4,38667.2
62704.9,38665.8
62714.6,38665.4
63285.4,38665.4
Z" /> 
</g>
<g >
</g>
<g style="fill:#000000; fill-opacity:1.0; 
stroke:#000000; stroke-width:0; stroke-opacity:1; 
stroke-linecap:round; stroke-linejoin:round;">
<circle cx="53000" cy="47000" r="334.646" /> 
</g>
<g style="fill:#000000; fill-opacity:1.0; 
stroke:#000000; stroke-width:39.3701; stroke-opacity:1; 
stroke-linecap:round; stroke-linejoin:round;">
</g>
<g style="fill:#000000; fill-opacity:1.0; 
stroke:#000000; stroke-width:0; stroke-opacity:1; 
stroke-linecap:round; stroke-linejoin:round;">
<circle cx="53000" cy="46000" r="334.646" /> 
</g>
<g style="fill:#000000; fill-opacity:1.0; 
stroke:#000000; stroke-width:39.3701; stroke-opacity:1; 
stroke-linecap:round; stroke-linejoin:round;">
</g>
<g style="fill:#000000; fill-opacity:1.0; 
stroke:#000000; stroke-width:0; stroke-opacity:1; 
stroke-linecap:round; stroke-linejoin:round;">
<circle cx="53000" cy="45000" r="334.646" /> 
</g>
<g style="fill:#000000; fill-opacity:1.0; 
stroke:#000000; stroke-width:39.3701; stroke-opacity:1; 
stroke-linecap:round; stroke-linejoin:round;">
</g>
<g style="fill:#000000; fill-opacity:1.0; 
stroke:#000000; stroke-width:0; stroke-opacity:1; 
stroke-linecap:round; stroke-linejoin:round;">
<circle cx="53000" cy="44000" r="334.646" /> 
</g>
<g style="fill:#000000; fill-opacity:1.0; 
stroke:#000000; stroke-width:39.3701; stroke-opacity:1; 
stroke-linecap:round; stroke-linejoin:round;">
</g>
<g style="fill:#000000; fill-opacity:1.0; 
stroke:#000000; stroke-width:0; stroke-opacity:1; 
stroke-linecap:round; stroke-linejoin:round;">
<circle cx="53000" cy="43000" r="334.646" /> 
</g>
<g style="fill:#000000; fill-opacity:1.0; 
stroke:#000000; stroke-width:39.3701; stroke-opacity:1; 
stroke-linecap:round; stroke-linejoin:round;">
</g>
<g style="fill:#000000; fill-opacity:1.0; 
stroke:#000000; stroke-width:0; stroke-opacity:1; 
stroke-linecap:round; stroke-linejoin:round;">
<circle cx="53000" cy="42000" r="334.646" /> 
</g>
<g style="fill:#000000; fill-opacity:1.0; 
stroke:#000000; stroke-width:39.3701; stroke-opacity:1; 
stroke-linecap:round; stroke-linejoin:round;">
</g>
<g style="fill:#000000; fill-opacity:1.0; 
stroke:#000000; stroke-width:0; stroke-opacity:1; 
stroke-linecap:round; stroke-linejoin:round;">
<circle cx="53000" cy="41000" r="334.646" /> 
</g>
<g style="fill:#000000; fill-opacity:1.0; 
stroke:#000000; stroke-width:39.3701; stroke-opacity:1; 
stroke-linecap:round; stroke-linejoin:round;">
</g>
<g style="fill:#000000; fill-opacity:1.0; 
stroke:#000000; stroke-width:0; stroke-opacity:1; 
stroke-linecap:round; stroke-linejoin:round;">
<circle cx="53000" cy="40000" r="334.646" /> 
</g>
<g style="fill:#000000; fill-opacity:1.0; 
stroke:#000000; stroke-width:39.3701; stroke-opacity:1; 
stroke-linecap:round; stroke-linejoin:round;">
</g>
<g style="fill:#000000; fill-opacity:1.0; 
stroke:#000000; stroke-width:0; stroke-opacity:1; 
stroke-linecap:round; stroke-linejoin:round;">
<circle cx="53000" cy="39000" r="334.646" /> 
</g>
<g style="fill:#000000; fill-opacity:1.0; 
stroke:#000000; stroke-width:39.3701; stroke-opacity:1; 
stroke-linecap:round; stroke-linejoin:round;">
</g>
<g style="fill:#000000; fill-opacity:1.0; 
stroke:#000000; stroke-width:0; stroke-opacity:1; 
stroke-linecap:round; stroke-linejoin:round;">
<circle cx="53000" cy="38000" r="334.646" /> 
</g>
<g style="fill:#000000; fill-opacity:1.0; 
stroke:#000000; stroke-width:39.3701; stroke-opacity:1; 
stroke-linecap:round; stroke-linejoin:round;">
</g>
<g style="fill:#000000; fill-opacity:1.0; 
stroke:#000000; stroke-width:0; stroke-opacity:1; 
stroke-linecap:round; stroke-linejoin:round;">
<circle cx="53000" cy="37000" r="334.646" /> 
</g>
<g style="fill:#000000; fill-opacity:1.0; 
stroke:#000000; stroke-width:39.3701; stroke-opacity:1; 
stroke-linecap:round; stroke-linejoin:round;">
</g>
<g style="fill:#000000; fill-opacity:1.0; 
stroke:#000000; stroke-width:0; stroke-opacity:1; 
stroke-linecap:round; stroke-linejoin:round;">
<circle cx="53000" cy="36000" r="334.646" /> 
</g>
<g style="fill:#000000; fill-opacity:1.0; 
stroke:#000000; stroke-width:39.3701; stroke-opacity:1; 
stroke-linecap:round; stroke-linejoin:round;">
</g>
<g style="fill:#000000; fill-opacity:1.0; 
stroke:#000000; stroke-width:0; stroke-opacity:1; 
stroke-linecap:round; stroke-linejoin:round;">
<circle cx="53000" cy="35000" r="334.646" /> 
</g>
<g style="fill:#000000; fill-opacity:1.0; 
stroke:#000000; stroke-width:39.3701; stroke-opacity:1; 
stroke-linecap:round; stroke-linejoin:round;">
</g>
<g style="fill:#000000; fill-opacity:1.0; 
stroke:#000000; stroke-width:0; stroke-opacity:1; 
stroke-linecap:round; stroke-linejoin:round;">
<circle cx="53000" cy="34000" r="334.646" /> 
</g>
<g style="fill:#000000; fill-opacity:1.0; 
stroke:#000000; stroke-width:39.3701; stroke-opacity:1; 
stroke-linecap:round; stroke-linejoin:round;">
</g>
<g style="fill:#000000; fill-opacity:1.0; 
stroke:#000000; stroke-width:0; stroke-opacity:1; 
stroke-linecap:round; stroke-linejoin:round;">
<circle cx="53000" cy="33000" r="334.646" /> 
</g>
<g style="fill:#000000; fill-opacity:1.0; 
stroke:#000000; stroke-width:39.3701; stroke-opacity:1; 
stroke-linecap:round; stroke-linejoin:round;">
</g>
<g style="fill:#000000; fill-opacity:1.0; 
stroke:#000000; stroke-width:0; stroke-opacity:1; 
stroke-linecap:round; stroke-linejoin:round;">
<circle cx="53000" cy="32000" r="334.646" /> 
</g>
<g style="fill:#000000; fill-opacity:1.0; 
stroke:#000000; stroke-width:39.3701; stroke-opacity:1; 
stroke-linecap:round; stroke-linejoin:round;">
</g>
<g style="fill:#000000; fill-opacity:1.0; 
stroke:#000000; stroke-width:0; stroke-opacity:1; 
stroke-linecap:round; stroke-linejoin:round;">
<circle cx="53000" cy="31000" r="334.646" /> 
</g>
<g style="fill:#000000; fill-opacity:1.0; 
stroke:#000000; stroke-width:39.3701; stroke-opacity:1; 
stroke-linecap:round; stroke-linejoin:round;">
</g>
<g style="fill:#000000; fill-opacity:1.0; 
stroke:#000000; stroke-width:0; stroke-opacity:1; 
stroke-linecap:round; stroke-linejoin:round;">
<circle cx="53000" cy="30000" r="334.646" /> 
</g>
<g style="fill:#000000; fill-opacity:1.0; 
stroke:#000000; stroke-width:39.3701; stroke-opacity:1; 
stroke-linecap:round; stroke-linejoin:round;">
</g>
<g style="fill:#000000; fill-opacity:1.0; 
stroke:#000000; stroke-width:0; stroke-opacity:1; 
stroke-linecap:round; stroke-linejoin:round;">
<circle cx="53000" cy="29000" r="334.646" /> 
</g>
<g style="fill:#000000; fill-opacity:1.0; 
stroke:#000000; stroke-width:39.3701; stroke-opacity:1; 
stroke-linecap:round; stroke-linejoin:round;">
</g>
<g style="fill:#000000; fill-opacity:1.0; 
stroke:#000000; stroke-width:0; stroke-opacity:1; 
stroke-linecap:round; stroke-linejoin:round;">
<circle cx="53000" cy="28000" r="334.646" /> 
</g>
<g style="fill:#000000; fill-opacity:1.0; 
stroke:#000000; stroke-width:39.3701; stroke-opacity:1; 
stroke-linecap:round; stroke-linejoin:round;">
</g>
<g style="fill:#000000; fill-opacity:1.0; 
stroke:#000000; stroke-width:0; stroke-opacity:1; 
stroke-linecap:round; stroke-linejoin:round;">
<circle cx="52000" cy="47000" r="334.646" /> 
</g>
<g style="fill:#000000; fill-opacity:1.0; 
stroke:#000000; stroke-width:39.3701; stroke-opacity:1; 
stroke-linecap:round; stroke-linejoin:round;">
</g>
<g style="fill:#000000; fill-opacity:1.0; 
stroke:#000000; stroke-width:0; stroke-opacity:1; 
stroke-linecap:round; stroke-linejoin:round;">
<circle cx="52000" cy="46000" r="334.646" /> 
</g>
<g style="fill:#000000; fill-opacity:1.0; 
stroke:#000000; stroke-width:39.3701; stroke-opacity:1; 
stroke-linecap:round; stroke-linejoin:round;">
</g>
<g style="fill:#000000; fill-opacity:1.0; 
stroke:#000000; stroke-width:0; stroke-opacity:1; 
stroke-linecap:round; stroke-linejoin:round;">
<circle cx="52000" cy="45000" r="334.646" /> 
</g>
<g style="fill:#000000; fill-opacity:1.0; 
stroke:#000000; stroke-width:39.3701; stroke-opacity:1; 
stroke-linecap:round; stroke-linejoin:round;">
</g>
<g style="fill:#000000; fill-opacity:1.0; 
stroke:#000000; stroke-width:0; stroke-opacity:1; 
stroke-linecap:round; stroke-linejoin:round;">
<circle cx="52000" cy="44000" r="334.646" /> 
</g>
<g style="fill:#000000; fill-opacity:1.0; 
stroke:#000000; stroke-width:39.3701; stroke-opacity:1; 
stroke-linecap:round; stroke-linejoin:round;">
</g>
<g style="fill:#000000; fill-opacity:1.0; 
stroke:#000000; stroke-width:0; stroke-opacity:1; 
stroke-linecap:round; stroke-linejoin:round;">
<circle cx="52000" cy="43000" r="334.646" /> 
</g>
<g style="fill:#000000; fill-opacity:1.0; 
stroke:#000000; stroke-width:39.3701; stroke-opacity:1; 
stroke-linecap:round; stroke-linejoin:round;">
</g>
<g style="fill:#000000; fill-opacity:1.0; 
stroke:#000000; stroke-width:0; stroke-opacity:1; 
stroke-linecap:round; stroke-linejoin:round;">
<circle cx="52000" cy="42000" r="334.646" /> 
</g>
<g style="fill:#000000; fill-opacity:1.0; 
stroke:#000000; stroke-width:39.3701; stroke-opacity:1; 
stroke-linecap:round; stroke-linejoin:round;">
</g>
<g style="fill:#000000; fill-opacity:1.0; 
stroke:#000000; stroke-width:0; stroke-opacity:1; 
stroke-linecap:round; stroke-linejoin:round;">
<circle cx="52000" cy="41000" r="334.646" /> 
</g>
<g style="fill:#000000; fill-opacity:1.0; 
stroke:#000000; stroke-width:39.3701; stroke-opacity:1; 
stroke-linecap:round; stroke-linejoin:round;">
</g>
<g style="fill:#000000; fill-opacity:1.0; 
stroke:#000000; stroke-width:0; stroke-opacity:1; 
stroke-linecap:round; stroke-linejoin:round;">
<circle cx="52000" cy="40000" r="334.646" /> 
</g>
<g style="fill:#000000; fill-opacity:1.0; 
stroke:#000000; stroke-width:39.3701; stroke-opacity:1; 
stroke-linecap:round; stroke-linejoin:round;">
</g>
<g style="fill:#000000; fill-opacity:1.0; 
stroke:#000000; stroke-width:0; stroke-opacity:1; 
stroke-linecap:round; stroke-linejoin:round;">
<circle cx="52000" cy="39000" r="334.646" /> 
</g>
<g style="fill:#000000; fill-opacity:1.0; 
stroke:#000000; stroke-width:39.3701; stroke-opacity:1; 
stroke-linecap:round; stroke-linejoin:round;">
</g>
<g style="fill:#000000; fill-opacity:1.0; 
stroke:#000000; stroke-width:0; stroke-opacity:1; 
stroke-linecap:round; stroke-linejoin:round;">
<circle cx="52000" cy="38000" r="334.646" /> 
</g>
<g style="fill:#000000; fill-opacity:1.0; 
stroke:#000000; stroke-width:39.3701; stroke-opacity:1; 
stroke-linecap:round; stroke-linejoin:round;">
</g>
<g style="fill:#000000; fill-opacity:1.0; 
stroke:#000000; stroke-width:0; stroke-opacity:1; 
stroke-linecap:round; stroke-linejoin:round;">
<circle cx="52000" cy="37000" r="334.646" /> 
</g>
<g style="fill:#000000; fill-opacity:1.0; 
stroke:#000000; stroke-width:39.3701; stroke-opacity:1; 
stroke-linecap:round; stroke-linejoin:round;">
</g>
<g style="fill:#000000; fill-opacity:1.0; 
stroke:#000000; stroke-width:0; stroke-opacity:1; 
stroke-linecap:round; stroke-linejoin:round;">
<circle cx="52000" cy="36000" r="334.646" /> 
</g>
<g style="fill:#000000; fill-opacity:1.0; 
stroke:#000000; stroke-width:39.3701; stroke-opacity:1; 
stroke-linecap:round; stroke-linejoin:round;">
</g>
<g style="fill:#000000; fill-opacity:1.0; 
stroke:#000000; stroke-width:0; stroke-opacity:1; 
stroke-linecap:round; stroke-linejoin:round;">
<circle cx="52000" cy="35000" r="334.646" /> 
</g>
<g style="fill:#000000; fill-opacity:1.0; 
stroke:#000000; stroke-width:39.3701; stroke-opacity:1; 
stroke-linecap:round; stroke-linejoin:round;">
</g>
<g style="fill:#000000; fill-opacity:1.0; 
stroke:#000000; stroke-width:0; stroke-opacity:1; 
stroke-linecap:round; stroke-linejoin:round;">
<circle cx="52000" cy="34000" r="334.646" /> 
</g>
<g style="fill:#000000; fill-opacity:1.0; 
stroke:#000000; stroke-width:39.3701; stroke-opacity:1; 
stroke-linecap:round; stroke-linejoin:round;">
</g>
<g style="fill:#000000; fill-opacity:1.0; 
stroke:#000000; stroke-width:0; stroke-opacity:1; 
stroke-linecap:round; stroke-linejoin:round;">
<circle cx="52000" cy="33000" r="334.646" /> 
</g>
<g style="fill:#000000; fill-opacity:1.0; 
stroke:#000000; stroke-width:39.3701; stroke-opacity:1; 
stroke-linecap:round; stroke-linejoin:round;">
</g>
<g style="fill:#000000; fill-opacity:1.0; 
stroke:#000000; stroke-width:0; stroke-opacity:1; 
stroke-linecap:round; stroke-linejoin:round;">
<circle cx="52000" cy="32000" r="334.646" /> 
</g>
<g style="fill:#000000; fill-opacity:1.0; 
stroke:#000000; stroke-width:39.3701; stroke-opacity:1; 
stroke-linecap:round; stroke-linejoin:round;">
</g>
<g style="fill:#000000; fill-opacity:1.0; 
stroke:#000000; stroke-width:0; stroke-opacity:1; 
stroke-linecap:round; stroke-linejoin:round;">
<circle cx="52000" cy="31000" r="334.646" /> 
</g>
<g style="fill:#000000; fill-opacity:1.0; 
stroke:#000000; stroke-width:39.3701; stroke-opacity:1; 
stroke-linecap:round; stroke-linejoin:round;">
</g>
<g style="fill:#000000; fill-opacity:1.0; 
stroke:#000000; stroke-width:0; stroke-opacity:1; 
stroke-linecap:round; stroke-linejoin:round;">
<circle cx="52000" cy="30000" r="334.646" /> 
</g>
<g style="fill:#000000; fill-opacity:1.0; 
stroke:#000000; stroke-width:39.3701; stroke-opacity:1; 
stroke-linecap:round; stroke-linejoin:round;">
</g>
<g style="fill:#000000; fill-opacity:1.0; 
stroke:#000000; stroke-width:0; stroke-opacity:1; 
stroke-linecap:round; stroke-linejoin:round;">
<circle cx="52000" cy="29000" r="334.646" /> 
</g>
<g style="fill:#000000; fill-opacity:1.0; 
stroke:#000000; stroke-width:39.3701; stroke-opacity:1; 
stroke-linecap:round; stroke-linejoin:round;">
</g>
<g style="fill:#000000; fill-opacity:1.0; 
stroke:#000000; stroke-width:0; stroke-opacity:1; 
stroke-linecap:round; stroke-linejoin:round;">
<path style="fill:#000000; fill-opacity:1.0; 
stroke:#000000; stroke-width:0; stroke-opacity:1; 
stroke-linecap:round; stroke-linejoin:round;fill-rule:evenodd;"
d="M 52245.9,27665.8
52255.4,27667.2
52264.8,27669.6
52273.9,27672.8
52282.6,27677
52290.9,27681.9
52298.7,27687.7
52305.8,27694.2
52312.3,27701.3
52318.1,27709.1
52323,27717.4
52327.2,27726.1
52330.4,27735.2
52332.8,27744.6
52334.2,27754.1
52334.6,27763.8
52334.6,28236.2
52334.2,28245.9
52332.8,28255.4
52330.4,28264.8
52327.2,28273.9
52323,28282.6
52318.1,28290.9
52312.3,28298.7
52305.8,28305.8
52298.7,28312.3
52290.9,28318.1
52282.6,28323
52273.9,28327.2
52264.8,28330.4
52255.4,28332.8
52245.9,28334.2
52236.2,28334.6
51763.8,28334.6
51754.1,28334.2
51744.6,28332.8
51735.2,28330.4
51726.1,28327.2
51717.4,28323
51709.1,28318.1
51701.3,28312.3
51694.2,28305.8
51687.7,28298.7
51681.9,28290.9
51677,28282.6
51672.8,28273.9
51669.6,28264.8
51667.2,28255.4
51665.8,28245.9
51665.4,28236.2
51665.4,27763.8
51665.8,27754.1
51667.2,27744.6
51669.6,27735.2
51672.8,27726.1
51677,27717.4
51681.9,27709.1
51687.7,27701.3
51694.2,27694.2
51701.3,27687.7
51709.1,27681.9
51717.4,27677
51726.1,27672.8
51735.2,27669.6
51744.6,27667.2
51754.1,27665.8
51763.8,27665.4
52236.2,27665.4
Z" /> 
</g>
<g >
</g>
<g style="fill:#000000; fill-opacity:1.0; 
stroke:#000000; stroke-width:0; stroke-opacity:1; 
stroke-linecap:round; stroke-linejoin:round;">
</g>
<g style="fill:#000000; fill-opacity:1.0; 
stroke:#000000; stroke-width:669.291; stroke-opacity:1; 
stroke-linecap:round; stroke-linejoin:round;">
</g>
<g style="fill:#000000; fill-opacity:0.0; 
stroke:#000000; stroke-width:669.291; stroke-opacity:1; 
stroke-linecap:round; stroke-linejoin:round;">
<path d="M59452 34450
L59452 34549
" />
<path d="M58468 34450
L58468 34549
" />
<path d="M57484 34450
L57484 34549
" />
</g>
<g style="fill:#000000; fill-opacity:0.0; 
stroke:#000000; stroke-width:0; stroke-opacity:1; 
stroke-linecap:round; stroke-linejoin:round;">
</g>
<g style="fill:#000000; fill-opacity:1.0; 
stroke:#000000; stroke-width:0; stroke-opacity:1; 
stroke-linecap:round; stroke-linejoin:round;">
<path style="fill:#000000; fill-opacity:1.0; 
stroke:#000000; stroke-width:0; stroke-opacity:1; 
stroke-linecap:round; stroke-linejoin:round;fill-rule:evenodd;"
d="M 56745.9,34116.6
56755.4,34118
56764.8,34120.4
56773.9,34123.6
56782.6,34127.8
56790.9,34132.7
56798.7,34138.5
56805.8,34145
56812.3,34152.1
56818.1,34159.9
56823,34168.2
56827.2,34176.9
56830.4,34186
56832.8,34195.4
56834.2,34204.9
56834.6,34214.6
56834.6,34785.4
56834.2,34795.1
56832.8,34804.6
56830.4,34814
56827.2,34823.1
56823,34831.8
56818.1,34840.1
56812.3,34847.9
56805.8,34855
56798.7,34861.5
56790.9,34867.3
56782.6,34872.2
56773.9,34876.4
56764.8,34879.6
56755.4,34882
56745.9,34883.4
56736.2,34883.9
56263.8,34883.9
56254.1,34883.4
56244.6,34882
56235.2,34879.6
56226.1,34876.4
56217.4,34872.2
56209.1,34867.3
56201.3,34861.5
56194.2,34855
56187.7,34847.9
56181.9,34840.1
56177,34831.8
56172.8,34823.1
56169.6,34814
56167.2,34804.6
56165.8,34795.1
56165.4,34785.4
56165.4,34214.6
56165.8,34204.9
56167.2,34195.4
56169.6,34186
56172.8,34176.9
56177,34168.2
56181.9,34159.9
56187.7,34152.1
56194.2,34145
56201.3,34138.5
56209.1,34132.7
56217.4,34127.8
56226.1,34123.6
56235.2,34120.4
56244.6,34118
56254.1,34116.6
56263.8,34116.1
56736.2,34116.1
Z" /> 
</g>
<g >
</g>
<g style="fill:#000000; fill-opacity:1.0; 
stroke:#000000; stroke-width:0; stroke-opacity:1; 
stroke-linecap:round; stroke-linejoin:round;">
</g>
<g style="fill:#000000; fill-opacity:1.0; 
stroke:#000000; stroke-width:669.291; stroke-opacity:1; 
stroke-linecap:round; stroke-linejoin:round;">
</g>
<g style="fill:#000000; fill-opacity:0.0; 
stroke:#000000; stroke-width:669.291; stroke-opacity:1; 
stroke-linecap:round; stroke-linejoin:round;">
<path d="M59452 30950
L59452 31049
" />
<path d="M58468 30950
L58468 31049
" />
<path d="M57484 30950
L57484 31049
" />
</g>
<g style="fill:#000000; fill-opacity:0.0; 
stroke:#000000; stroke-width:0; stroke-opacity:1; 
stroke-linecap:round; stroke-linejoin:round;">
</g>
<g style="fill:#000000; fill-opacity:1.0; 
stroke:#000000; stroke-width:0; stroke-opacity:1; 
stroke-linecap:round; stroke-linejoin:round;">
<path style="fill:#000000; fill-opacity:1.0; 
stroke:#000000; stroke-width:0; stroke-opacity:1; 
stroke-linecap:round; stroke-linejoin:round;fill-rule:evenodd;"
d="M 56745.9,30616.6
56755.4,30618
56764.8,30620.4
56773.9,30623.6
56782.6,30627.8
56790.9,30632.7
56798.7,30638.5
56805.8,30645
56812.3,30652.1
56818.1,30659.9
56823,30668.2
56827.2,30676.9
56830.4,30686
56832.8,30695.4
56834.2,30704.9
56834.6,30714.6
56834.6,31285.4
56834.2,31295.1
56832.8,31304.6
56830.4,31314
56827.2,31323.1
56823,31331.8
56818.1,31340.1
56812.3,31347.9
56805.8,31355
56798.7,31361.5
56790.9,31367.3
56782.6,31372.2
56773.9,31376.4
56764.8,31379.6
56755.4,31382
56745.9,31383.4
56736.2,31383.9
56263.8,31383.9
56254.1,31383.4
56244.6,31382
56235.2,31379.6
56226.1,31376.4
56217.4,31372.2
56209.1,31367.3
56201.3,31361.5
56194.2,31355
56187.7,31347.9
56181.9,31340.1
56177,31331.8
56172.8,31323.1
56169.6,31314
56167.2,31304.6
56165.8,31295.1
56165.4,31285.4
56165.4,30714.6
56165.8,30704.9
56167.2,30695.4
56169.6,30686
56172.8,30676.9
56177,30668.2
56181.9,30659.9
56187.7,30652.1
56194.2,30645
56201.3,30638.5
56209.1,30632.7
56217.4,30627.8
56226.1,30623.6
56235.2,30620.4
56244.6,30618
56254.1,30616.6
56263.8,30616.1
56736.2,30616.1
Z" /> 
</g>
<g >
</g>
<g style="fill:#000000; fill-opacity:1.0; 
stroke:#000000; stroke-width:0; stroke-opacity:1; 
stroke-linecap:round; stroke-linejoin:round;">
</g>
<g style="fill:#000000; fill-opacity:1.0; 
stroke:#000000; stroke-width:669.291; stroke-opacity:1; 
stroke-linecap:round; stroke-linejoin:round;">
</g>
<g style="fill:#000000; fill-opacity:0.0; 
stroke:#000000; stroke-width:669.291; stroke-opacity:1; 
stroke-linecap:round; stroke-linejoin:round;">
<path d="M59452 27450
L59452 27549
" />
<path d="M58468 27450
L58468 27549
" />
<path d="M57484 27450
L57484 27549
" />
</g>
<g style="fill:#000000; fill-opacity:0.0; 
stroke:#000000; stroke-width:0; stroke-opacity:1; 
stroke-linecap:round; stroke-linejoin:round;">
</g>
<g style="fill:#000000; fill-opacity:1.0; 
stroke:#000000; stroke-width:0; stroke-opacity:1; 
stroke-linecap:round; stroke-linejoin:round;">
<path style="fill:#000000; fill-opacity:1.0; 
stroke:#000000; stroke-width:0; stroke-opacity:1; 
stroke-linecap:round; stroke-linejoin:round;fill-rule:evenodd;"
d="M 56745.9,27116.6
56755.4,27118
56764.8,27120.4
56773.9,27123.6
56782.6,27127.8
56790.9,27132.7
56798.7,27138.5
56805.8,27145
56812.3,27152.1
56818.1,27159.9
56823,27168.2
56827.2,27176.9
56830.4,27186
56832.8,27195.4
56834.2,27204.9
56834.6,27214.6
56834.6,27785.4
56834.2,27795.1
56832.8,27804.6
56830.4,27814
56827.2,27823.1
56823,27831.8
56818.1,27840.1
56812.3,27847.9
56805.8,27855
56798.7,27861.5
56790.9,27867.3
56782.6,27872.2
56773.9,27876.4
56764.8,27879.6
56755.4,27882
56745.9,27883.4
56736.2,27883.9
56263.8,27883.9
56254.1,27883.4
56244.6,27882
56235.2,27879.6
56226.1,27876.4
56217.4,27872.2
56209.1,27867.3
56201.3,27861.5
56194.2,27855
56187.7,27847.9
56181.9,27840.1
56177,27831.8
56172.8,27823.1
56169.6,27814
56167.2,27804.6
56165.8,27795.1
56165.4,27785.4
56165.4,27214.6
56165.8,27204.9
56167.2,27195.4
56169.6,27186
56172.8,27176.9
56177,27168.2
56181.9,27159.9
56187.7,27152.1
56194.2,27145
56201.3,27138.5
56209.1,27132.7
56217.4,27127.8
56226.1,27123.6
56235.2,27120.4
56244.6,27118
56254.1,27116.6
56263.8,27116.1
56736.2,27116.1
Z" /> 
</g>
<g >
</g>
<g style="fill:#000000; fill-opacity:1.0; 
stroke:#000000; stroke-width:0; stroke-opacity:1; 
stroke-linecap:round; stroke-linejoin:round;">
</g>
<g style="fill:#000000; fill-opacity:1.0; 
stroke:#000000; stroke-width:669.291; stroke-opacity:1; 
stroke-linecap:round; stroke-linejoin:round;">
</g>
<g style="fill:#000000; fill-opacity:0.0; 
stroke:#000000; stroke-width:669.291; stroke-opacity:1; 
stroke-linecap:round; stroke-linejoin:round;">
<path d="M59452 46450
L59452 46549
" />
<path d="M58468 46450
L58468 46549
" />
<path d="M57484 46450
L57484 46549
" />
</g>
<g style="fill:#000000; fill-opacity:0.0; 
stroke:#000000; stroke-width:0; stroke-opacity:1; 
stroke-linecap:round; stroke-linejoin:round;">
</g>
<g style="fill:#000000; fill-opacity:1.0; 
stroke:#000000; stroke-width:0; stroke-opacity:1; 
stroke-linecap:round; stroke-linejoin:round;">
<path style="fill:#000000; fill-opacity:1.0; 
stroke:#000000; stroke-width:0; stroke-opacity:1; 
stroke-linecap:round; stroke-linejoin:round;fill-rule:evenodd;"
d="M 56745.9,46116.6
56755.4,46118
56764.8,46120.4
56773.9,46123.6
56782.6,46127.8
56790.9,46132.7
56798.7,46138.5
56805.8,46145
56812.3,46152.1
56818.1,46159.9
56823,46168.2
56827.2,46176.9
56830.4,46186
56832.8,46195.4
56834.2,46204.9
56834.6,46214.6
56834.6,46785.4
56834.2,46795.1
56832.8,46804.6
56830.4,46814
56827.2,46823.1
56823,46831.8
56818.1,46840.1
56812.3,46847.9
56805.8,46855
56798.7,46861.5
56790.9,46867.3
56782.6,46872.2
56773.9,46876.4
56764.8,46879.6
56755.4,46882
56745.9,46883.4
56736.2,46883.9
56263.8,46883.9
56254.1,46883.4
56244.6,46882
56235.2,46879.6
56226.1,46876.4
56217.4,46872.2
56209.1,46867.3
56201.3,46861.5
56194.2,46855
56187.7,46847.9
56181.9,46840.1
56177,46831.8
56172.8,46823.1
56169.6,46814
56167.2,46804.6
56165.8,46795.1
56165.4,46785.4
56165.4,46214.6
56165.8,46204.9
56167.2,46195.4
56169.6,46186
56172.8,46176.9
56177,46168.2
56181.9,46159.9
56187.7,46152.1
56194.2,46145
56201.3,46138.5
56209.1,46132.7
56217.4,46127.8
56226.1,46123.6
56235.2,46120.4
56244.6,46118
56254.1,46116.6
56263.8,46116.1
56736.2,46116.1
Z" /> 
</g>
<g >
</g>
<g style="fill:#000000; fill-opacity:1.0; 
stroke:#000000; stroke-width:0; stroke-opacity:1; 
stroke-linecap:round; stroke-linejoin:round;">
</g>
<g style="fill:#000000; fill-opacity:1.0; 
stroke:#000000; stroke-width:669.291; stroke-opacity:1; 
stroke-linecap:round; stroke-linejoin:round;">
</g>
<g style="fill:#000000; fill-opacity:0.0; 
stroke:#000000; stroke-width:669.291; stroke-opacity:1; 
stroke-linecap:round; stroke-linejoin:round;">
<path d="M59452 42950
L59452 43049
" />
<path d="M58468 42950
L58468 43049
" />
<path d="M57484 42950
L57484 43049
" />
</g>
<g style="fill:#000000; fill-opacity:0.0; 
stroke:#000000; stroke-width:0; stroke-opacity:1; 
stroke-linecap:round; stroke-linejoin:round;">
</g>
<g style="fill:#000000; fill-opacity:1.0; 
stroke:#000000; stroke-width:0; stroke-opacity:1; 
stroke-linecap:round; stroke-linejoin:round;">
<path style="fill:#000000; fill-opacity:1.0; 
stroke:#000000; stroke-width:0; stroke-opacity:1; 
stroke-linecap:round; stroke-linejoin:round;fill-rule:evenodd;"
d="M 56745.9,42616.6
56755.4,42618
56764.8,42620.4
56773.9,42623.6
56782.6,42627.8
56790.9,42632.7
56798.7,42638.5
56805.8,42645
56812.3,42652.1
56818.1,42659.9
56823,42668.2
56827.2,42676.9
56830.4,42686
56832.8,42695.4
56834.2,42704.9
56834.6,42714.6
56834.6,43285.4
56834.2,43295.1
56832.8,43304.6
56830.4,43314
56827.2,43323.1
56823,43331.8
56818.1,43340.1
56812.3,43347.9
56805.8,43355
56798.7,43361.5
56790.9,43367.3
56782.6,43372.2
56773.9,43376.4
56764.8,43379.6
56755.4,43382
56745.9,43383.4
56736.2,43383.9
56263.8,43383.9
56254.1,43383.4
56244.6,43382
56235.2,43379.6
56226.1,43376.4
56217.4,43372.2
56209.1,43367.3
56201.3,43361.5
56194.2,43355
56187.7,43347.9
56181.9,43340.1
56177,43331.8
56172.8,43323.1
56169.6,43314
56167.2,43304.6
56165.8,43295.1
56165.4,43285.4
56165.4,42714.6
56165.8,42704.9
56167.2,42695.4
56169.6,42686
56172.8,42676.9
56177,42668.2
56181.9,42659.9
56187.7,42652.1
56194.2,42645
56201.3,42638.5
56209.1,42632.7
56217.4,42627.8
56226.1,42623.6
56235.2,42620.4
56244.6,42618
56254.1,42616.6
56263.8,42616.1
56736.2,42616.1
Z" /> 
</g>
<g >
</g>
<g style="fill:#000000; fill-opacity:1.0; 
stroke:#000000; stroke-width:0; stroke-opacity:1; 
stroke-linecap:round; stroke-linejoin:round;">
</g>
<g style="fill:#000000; fill-opacity:1.0; 
stroke:#000000; stroke-width:669.291; stroke-opacity:1; 
stroke-linecap:round; stroke-linejoin:round;">
</g>
<g style="fill:#000000; fill-opacity:0.0; 
stroke:#000000; stroke-width:669.291; stroke-opacity:1; 
stroke-linecap:round; stroke-linejoin:round;">
<path d="M59452 39450
L59452 39549
" />
<path d="M58468 39450
L58468 39549
" />
<path d="M57484 39450
L57484 39549
" />
</g>
<g style="fill:#000000; fill-opacity:0.0; 
stroke:#000000; stroke-width:0; stroke-opacity:1; 
stroke-linecap:round; stroke-linejoin:round;">
</g>
<g style="fill:#000000; fill-opacity:1.0; 
stroke:#000000; stroke-width:0; stroke-opacity:1; 
stroke-linecap:round; stroke-linejoin:round;">
<path style="fill:#000000; fill-opacity:1.0; 
stroke:#000000; stroke-width:0; stroke-opacity:1; 
stroke-linecap:round; stroke-linejoin:round;fill-rule:evenodd;"
d="M 56745.9,39116.6
56755.4,39118
56764.8,39120.4
56773.9,39123.6
56782.6,39127.8
56790.9,39132.7
56798.7,39138.5
56805.8,39145
56812.3,39152.1
56818.1,39159.9
56823,39168.2
56827.2,39176.9
56830.4,39186
56832.8,39195.4
56834.2,39204.9
56834.6,39214.6
56834.6,39785.4
56834.2,39795.1
56832.8,39804.6
56830.4,39814
56827.2,39823.1
56823,39831.8
56818.1,39840.1
56812.3,39847.9
56805.8,39855
56798.7,39861.5
56790.9,39867.3
56782.6,39872.2
56773.9,39876.4
56764.8,39879.6
56755.4,39882
56745.9,39883.4
56736.2,39883.9
56263.8,39883.9
56254.1,39883.4
56244.6,39882
56235.2,39879.6
56226.1,39876.4
56217.4,39872.2
56209.1,39867.3
56201.3,39861.5
56194.2,39855
56187.7,39847.9
56181.9,39840.1
56177,39831.8
56172.8,39823.1
56169.6,39814
56167.2,39804.6
56165.8,39795.1
56165.4,39785.4
56165.4,39214.6
56165.8,39204.9
56167.2,39195.4
56169.6,39186
56172.8,39176.9
56177,39168.2
56181.9,39159.9
56187.7,39152.1
56194.2,39145
56201.3,39138.5
56209.1,39132.7
56217.4,39127.8
56226.1,39123.6
56235.2,39120.4
56244.6,39118
56254.1,39116.6
56263.8,39116.1
56736.2,39116.1
Z" /> 
</g>
<g >
</g>
<g style="fill:#000000; fill-opacity:1.0; 
stroke:#000000; stroke-width:0; stroke-opacity:1; 
stroke-linecap:round; stroke-linejoin:round;">
<circle cx="50500" cy="50500" r="1181.1" /> 
</g>
<g style="fill:#000000; fill-opacity:1.0; 
stroke:#000000; stroke-width:39.3701; stroke-opacity:1; 
stroke-linecap:round; stroke-linejoin:round;">
</g>
<g >
</g>
<g style="fill:#000000; fill-opacity:1.0; 
stroke:#000000; stroke-width:39.3701; stroke-opacity:1; 
stroke-linecap:round; stroke-linejoin:round;">
</g>
<g style="fill:#000000; fill-opacity:1.0; 
stroke:#000000; stroke-width:0; stroke-opacity:1; 
stroke-linecap:round; stroke-linejoin:round;">
<circle cx="64000" cy="50500" r="1181.1" /> 
</g>
<g style="fill:#000000; fill-opacity:1.0; 
stroke:#000000; stroke-width:39.3701; stroke-opacity:1; 
stroke-linecap:round; stroke-linejoin:round;">
</g>
<g >
</g>
<g style="fill:#000000; fill-opacity:1.0; 
stroke:#000000; stroke-width:39.3701; stroke-opacity:1; 
stroke-linecap:round; stroke-linejoin:round;">
</g>
<g style="fill:#000000; fill-opacity:1.0; 
stroke:#000000; stroke-width:0; stroke-opacity:1; 
stroke-linecap:round; stroke-linejoin:round;">
<circle cx="50500" cy="24500" r="1181.1" /> 
</g>
<g style="fill:#000000; fill-opacity:1.0; 
stroke:#000000; stroke-width:39.3701; stroke-opacity:1; 
stroke-linecap:round; stroke-linejoin:round;">
</g>
<g >
</g>
<g style="fill:#000000; fill-opacity:1.0; 
stroke:#000000; stroke-width:39.3701; stroke-opacity:1; 
stroke-linecap:round; stroke-linejoin:round;">
</g>
<g style="fill:#000000; fill-opacity:1.0; 
stroke:#000000; stroke-width:0; stroke-opacity:1; 
stroke-linecap:round; stroke-linejoin:round;">
<circle cx="64000" cy="24500" r="1181.1" /> 
</g>
<g style="fill:#000000; fill-opacity:1.0; 
stroke:#000000; stroke-width:39.3701; stroke-opacity:1; 
stroke-linecap:round; stroke-linejoin:round;">
</g>
<g >
</g>
<g >
</g>
<g style="fill:#000000; fill-opacity:1.0; 
stroke:#000000; stroke-width:39.3701; stroke-opacity:1; 
stroke-linecap:round; stroke-linejoin:round;">
</g>
<g style="fill:#000000; fill-opacity:1.0; 
stroke:#000000; stroke-width:98.4252; stroke-opacity:1; 
stroke-linecap:round; stroke-linejoin:round;">
</g>
<g style="fill:#000000; fill-opacity:0.0; 
stroke:#000000; stroke-width:98.4252; stroke-opacity:1; 
stroke-linecap:round; stroke-linejoin:round;">
<path d="M58618 47334
L59452 46500
" />
<path d="M53334 47334
L58618 47334
" />
<path d="M53000 47000
L53334 47334
" />
<path d="M53000 46000
L54157 47157
" />
<path d="M54157 47157
L57811 47157
" />
<path d="M57811 47157
L58468 46500
" />
<path d="M55000 45000
L56500 46500
" />
<path d="M53000 45000
L55000 45000
" />
<path d="M52000 45000
L52500 44500
" />
<path d="M57952 44500
L59452 43000
" />
<path d="M52500 44500
L57952 44500
" />
<path d="M55500 44000
L57468 44000
" />
<path d="M55000 43500
L55500 44000
" />
<path d="M57468 44000
L58468 43000
" />
<path d="M52500 43500
L55000 43500
" />
<path d="M52000 44000
L52500 43500
" />
<path d="M53000 43000
L55500 43000
" />
<path d="M56972 43511
L57484 43000
" />
<path d="M56011 43511
L56972 43511
" />
<path d="M55500 43000
L56011 43511
" />
<path d="M52000 43000
L52500 42500
" />
<path d="M52500 42500
L56000 42500
" />
<path d="M56000 42500
L56500 43000
" />
<path d="M57452 41500
L59452 39500
" />
<path d="M52500 41500
L57452 41500
" />
<path d="M52000 42000
L52500 41500
" />
<path d="M57633 40334
L58468 39500
" />
<path d="M53334 40334
L57633 40334
" />
<path d="M53000 40000
L53334 40334
" />
<path d="M53011 38988
L56972 38988
" />
<path d="M56972 38988
L57484 39500
" />
<path d="M53000 39000
L53011 38988
" />
<path d="M52500 39500
L52000 39000
" />
<path d="M56500 39500
L52500 39500
" />
<path d="M62984 38000
L63000 38015
" />
<path d="M53000 38000
L62984 38000
" />
<path d="M62537 38537
L63000 39000
" />
<path d="M52537 38537
L62537 38537
" />
<path d="M52000 38000
L52537 38537
" />
<path d="M52000 37000
L52462 36537
" />
<path d="M52462 36537
L57415 36537
" />
<path d="M57415 36537
L59452 34500
" />
<path d="M58187 34500
L58468 34500
" />
<path d="M56687 36000
L58187 34500
" />
<path d="M53000 36000
L56687 36000
" />
<path d="M56649 35334
L57484 34500
" />
<path d="M53334 35334
L56649 35334
" />
<path d="M53000 35000
L53334 35334
" />
<path d="M52500 34500
L56500 34500
" />
<path d="M52000 35000
L52500 34500
" />
<path d="M56952 33500
L59452 31000
" />
<path d="M52500 33500
L56952 33500
" />
<path d="M52000 34000
L52500 33500
" />
<path d="M56468 33000
L58468 31000
" />
<path d="M53000 33000
L56468 33000
" />
<path d="M55946 32537
L57484 31000
" />
<path d="M52462 32537
L55946 32537
" />
<path d="M52000 33000
L52462 32537
" />
<path d="M53000 32000
L53500 32000
" />
<path d="M54500 31000
L56500 31000
" />
<path d="M53500 32000
L54500 31000
" />
<path d="M52537 31462
L53000 31000
" />
<path d="M51777 31462
L52537 31462
" />
<path d="M51537 31222
L51777 31462
" />
<path d="M51537 27670
L51537 31222
" />
<path d="M58940 26988
L52219 26988
" />
<path d="M52219 26988
L51537 27670
" />
<path d="M59452 27500
L58940 26988
" />
<path d="M55505 30462
L58468 27500
" />
<path d="M52537 30462
L55505 30462
" />
<path d="M52000 31000
L52537 30462
" />
<path d="M55521 29462
L57484 27500
" />
<path d="M52537 29462
L55521 29462
" />
<path d="M52000 30000
L52537 29462
" />
<path d="M55462 28537
L56500 27500
" />
<path d="M52462 28537
L55462 28537
" />
<path d="M52000 29000
L52462 28537
" />
</g>
<g >
</g>
<g style="fill:#000000; fill-opacity:0.0; 
stroke:#000000; stroke-width:98.4252; stroke-opacity:1; 
stroke-linecap:round; stroke-linejoin:round;">
<g >
</g>
<g style="fill:#000000; fill-opacity:1.0; 
stroke:#000000; stroke-width:100; stroke-opacity:1; 
stroke-linecap:round; stroke-linejoin:round;">
<path style="fill:#000000; fill-opacity:1.0; 
stroke:#000000; stroke-width:100; stroke-opacity:1; 
stroke-linecap:round; stroke-linejoin:round;fill-rule:evenodd;"
d="M 62888.4,23587.7
62731.8,23822.1
62623.9,24082.6
62568.9,24359
62568.9,24641
62623.9,24917.4
62731.8,25177.9
62888.4,25412.3
63087.7,25611.6
63322.1,25768.2
63582.6,25876.1
63859,25931.1
64141,25931.1
64417.4,25876.1
64677.9,25768.2
64912.3,25611.6
64950,25573.9
64950,49426.1
64912.3,49388.4
64677.9,49231.8
64417.4,49123.9
64141,49068.9
63859,49068.9
63582.6,49123.9
63322.1,49231.8
63087.7,49388.4
62888.4,49587.7
62731.8,49822.1
62623.9,50082.6
62568.9,50359
62568.9,50641
62623.9,50917.4
62731.8,51177.9
62888.4,51412.3
62926.1,51450
51573.9,51450
51611.6,51412.3
51768.2,51177.9
51876.1,50917.4
51931.1,50641
51931.1,50359
51876.1,50082.6
51768.2,49822.1
51611.6,49587.7
51412.3,49388.4
51177.9,49231.8
50917.4,49123.9
50641,49068.9
50359,49068.9
50082.6,49123.9
49822.1,49231.8
49587.7,49388.4
49550,49426.1
49550,27670
51236.7,27670
51238.2,27684.7
51238.2,31207.3
51236.7,31222
51238.2,31236.7
51242.5,31280.7
51247.7,31297.8
51259.6,31337.1
51287.4,31389.1
51315.4,31423.2
51324.8,31434.6
51336.2,31444
51535.3,31643.1
51481.9,31723.1
51437.8,31829.5
51415.4,31942.4
51415.4,32057.6
51437.8,32170.5
51481.9,32276.9
51545.9,32372.7
51627.3,32454.1
51696,32500
51627.3,32545.9
51545.9,32627.3
51481.9,32723.1
51437.8,32829.5
51415.4,32942.4
51415.4,33057.6
51437.8,33170.5
51481.9,33276.9
51545.9,33372.7
51627.3,33454.1
51696,33500
51627.3,33545.9
51545.9,33627.3
51481.9,33723.1
51437.8,33829.5
51415.4,33942.4
51415.4,34057.6
51437.8,34170.5
51481.9,34276.9
51545.9,34372.7
51627.3,34454.1
51696,34500
51627.3,34545.9
51545.9,34627.3
51481.9,34723.1
51437.8,34829.5
51415.4,34942.4
51415.4,35057.6
51437.8,35170.5
51481.9,35276.9
51545.9,35372.7
51627.3,35454.1
51696,35500
51627.3,35545.9
51545.9,35627.3
51481.9,35723.1
51437.8,35829.5
51415.4,35942.4
51415.4,36057.6
51437.8,36170.5
51481.9,36276.9
51545.9,36372.7
51627.3,36454.1
51696,36500
51627.3,36545.9
51545.9,36627.3
51481.9,36723.1
51437.8,36829.5
51415.4,36942.4
51415.4,37057.6
51437.8,37170.5
51481.9,37276.9
51545.9,37372.7
51627.3,37454.1
51696,37500
51627.3,37545.9
51545.9,37627.3
51481.9,37723.1
51437.8,37829.5
51415.4,37942.4
51415.4,38057.6
51437.8,38170.5
51481.9,38276.9
51545.9,38372.7
51627.3,38454.1
51696,38500
51627.3,38545.9
51545.9,38627.3
51481.9,38723.1
51437.8,38829.5
51415.4,38942.4
51415.4,39057.6
51437.8,39170.5
51481.9,39276.9
51545.9,39372.7
51627.3,39454.1
51696,39500
51627.3,39545.9
51545.9,39627.3
51481.9,39723.1
51437.8,39829.5
51415.4,39942.4
51415.4,40057.6
51437.8,40170.5
51481.9,40276.9
51545.9,40372.7
51627.3,40454.1
51696,40500
51627.3,40545.9
51545.9,40627.3
51481.9,40723.1
51437.8,40829.5
51415.4,40942.4
51415.4,41057.6
51437.8,41170.5
51481.9,41276.9
51545.9,41372.7
51627.3,41454.1
51696,41500
51627.3,41545.9
51545.9,41627.3
51481.9,41723.1
51437.8,41829.5
51415.4,41942.4
51415.4,42057.6
51437.8,42170.5
51481.9,42276.9
51545.9,42372.7
51627.3,42454.1
51696,42500
51627.3,42545.9
51545.9,42627.3
51481.9,42723.1
51437.8,42829.5
51415.4,42942.4
51415.4,43057.6
51437.8,43170.5
51481.9,43276.9
51545.9,43372.7
51627.3,43454.1
51696,43500
51627.3,43545.9
51545.9,43627.3
51481.9,43723.1
51437.8,43829.5
51415.4,43942.4
51415.4,44057.6
51437.8,44170.5
51481.9,44276.9
51545.9,44372.7
51627.3,44454.1
51696,44500
51627.3,44545.9
51545.9,44627.3
51481.9,44723.1
51437.8,44829.5
51415.4,44942.4
51415.4,45057.6
51437.8,45170.5
51481.9,45276.9
51545.9,45372.7
51627.3,45454.1
51696,45500
51627.3,45545.9
51545.9,45627.3
51481.9,45723.1
51437.8,45829.5
51415.4,45942.4
51415.4,46057.6
51437.8,46170.5
51481.9,46276.9
51545.9,46372.7
51627.3,46454.1
51696,46500
51627.3,46545.9
51545.9,46627.3
51481.9,46723.1
51437.8,46829.5
51415.4,46942.4
51415.4,47057.6
51437.8,47170.5
51481.9,47276.9
51545.9,47372.7
51627.3,47454.1
51723.1,47518.1
51829.5,47562.2
51942.4,47584.6
52057.6,47584.6
52170.5,47562.2
52276.9,47518.1
52372.7,47454.1
52454.1,47372.7
52500,47304
52545.9,47372.7
52627.3,47454.1
52723.1,47518.1
52829.5,47562.2
52942.4,47584.6
53057.6,47584.6
53146.2,47567
53167.6,47584.6
53219.6,47612.4
53276,47629.5
53319.9,47633.9
53320,47633.9
53334.6,47635.3
53349.3,47633.9
58603.4,47633.9
58618.1,47635.3
58632.8,47633.9
58632.8,47633.9
58676.8,47629.5
58733.2,47612.4
58785.1,47584.6
58830.7,47547.2
58840.1,47535.8
59270.9,47105
59338.1,47125.4
59452.8,47136.7
59567.4,47125.4
59677.6,47092
59779.1,47037.7
59868.2,46964.6
59941.2,46875.6
59995.5,46774
60028.9,46663.8
60037.4,46577.9
60037.4,46422.1
60028.9,46336.2
59995.5,46226
59941.2,46124.4
59868.2,46035.4
59779.1,45962.3
59677.6,45908
59567.4,45874.6
59452.8,45863.3
59338.1,45874.6
59227.9,45908
59126.4,45962.3
59037.3,46035.4
58964.3,46124.4
58960.6,46131.2
58957,46124.4
58883.9,46035.4
58794.9,45962.3
58693.3,45908
58583.1,45874.6
58468.5,45863.3
58353.9,45874.6
58243.7,45908
58142.1,45962.3
58053.1,46035.4
57980,46124.4
57976.4,46131.2
57972.7,46124.4
57899.7,46035.4
57810.6,45962.3
57709.1,45908
57598.9,45874.6
57484.3,45863.3
57369.6,45874.6
57259.4,45908
57157.9,45962.3
57068.8,46035.4
57048.3,46060.4
57026.9,46020.3
56983.4,45967.3
56930.5,45923.9
56870,45891.5
56804.4,45871.7
56736.2,45864.9
56288.1,45864.9
55222.4,44799.2
57938.1,44799.2
57952.8,44800.7
57967.4,44799.2
57967.5,44799.2
58011.4,44794.9
58067.8,44777.8
58119.8,44750
58165.4,44712.6
58174.7,44701.2
59270.9,43605
59338.1,43625.4
59452.8,43636.7
59567.4,43625.4
59677.6,43592
59779.1,43537.7
59868.2,43464.6
59941.2,43375.6
59995.5,43274
60028.9,43163.8
60037.4,43077.9
60037.4,42922.1
60028.9,42836.2
59995.5,42726
59941.2,42624.4
59868.2,42535.4
59779.1,42462.3
59677.6,42408
59567.4,42374.6
59452.8,42363.3
59338.1,42374.6
59227.9,42408
59126.4,42462.3
59037.3,42535.4
58964.3,42624.4
58960.6,42631.2
58957,42624.4
58883.9,42535.4
58794.9,42462.3
58693.3,42408
58583.1,42374.6
58468.5,42363.3
58353.9,42374.6
58243.7,42408
58142.1,42462.3
58053.1,42535.4
57980,42624.4
57976.4,42631.2
57972.7,42624.4
57899.7,42535.4
57810.6,42462.3
57709.1,42408
57598.9,42374.6
57484.3,42363.3
57369.6,42374.6
57259.4,42408
57157.9,42462.3
57068.8,42535.4
57048.3,42560.4
57026.9,42520.3
56983.4,42467.3
56930.5,42423.9
56870,42391.5
56804.4,42371.7
56736.2,42364.9
56288.1,42364.9
56222,42298.8
56212.6,42287.4
56167,42250
56115.1,42222.2
56058.7,42205.1
56014.7,42200.8
56014.7,42200.8
56000,42199.3
55985.3,42200.8
53549.6,42200.8
53562.2,42170.5
53584.6,42057.6
53584.6,41942.4
53562.2,41829.5
53549.6,41799.2
57438.1,41799.2
57452.8,41800.7
57467.4,41799.2
57467.5,41799.2
57511.4,41794.9
57567.8,41777.8
57619.8,41750
57665.4,41712.6
57674.7,41701.2
59270.9,40105
59338.1,40125.4
59452.8,40136.7
59567.4,40125.4
59677.6,40092
59779.1,40037.7
59868.2,39964.6
59941.2,39875.6
59995.5,39774
60028.9,39663.8
60037.4,39577.9
60037.4,39422.1
60028.9,39336.2
59995.5,39226
59941.2,39124.4
59868.2,39035.4
59779.1,38962.3
59677.6,38908
59567.4,38874.6
59452.8,38863.3
59338.1,38874.6
59227.9,38908
59126.4,38962.3
59037.3,39035.4
58964.3,39124.4
58960.6,39131.2
58957,39124.4
58883.9,39035.4
58794.9,38962.3
58693.3,38908
58583.1,38874.6
58468.5,38863.3
58353.9,38874.6
58243.7,38908
58142.1,38962.3
58053.1,39035.4
57980,39124.4
57976.4,39131.2
57972.7,39124.4
57899.7,39035.4
57810.6,38962.3
57709.1,38908
57598.9,38874.6
57484.3,38863.3
57369.6,38874.6
57302.4,38895
57244,38836.6
62364.9,38836.6
62364.9,39236.2
62371.7,39304.4
62391.5,39370
62423.9,39430.5
62467.3,39483.4
62520.3,39526.9
62580.8,39559.2
62646.4,39579.1
62714.6,39585.9
63285.4,39585.9
63353.6,39579.1
63419.2,39559.2
63479.7,39526.9
63532.7,39483.4
63576.1,39430.5
63608.5,39370
63628.3,39304.4
63635.1,39236.2
63635.1,38763.8
63628.3,38695.6
63608.5,38630
63576.1,38569.5
63532.7,38516.6
63479.7,38473.1
63439.6,38451.7
63464.6,38431.2
63537.7,38342.1
63592,38240.6
63625.4,38130.4
63636.7,38015.7
63625.4,37901.1
63592,37790.9
63537.7,37689.4
63464.6,37600.3
63375.6,37527.3
63368.8,37523.6
63375.6,37520
63464.6,37446.9
63537.7,37357.9
63592,37256.3
63625.4,37146.1
63636.7,37031.5
63625.4,36916.9
63592,36806.7
63537.7,36705.1
63464.6,36616.1
63375.6,36543
63368.8,36539.4
63375.6,36535.7
63464.6,36462.7
63537.7,36373.6
63592,36272.1
63625.4,36161.9
63636.7,36047.2
63625.4,35932.6
63592,35822.4
63537.7,35720.9
63464.6,35631.8
63375.6,35558.8
63274,35504.5
63163.8,35471.1
63077.9,35462.6
62922.1,35462.6
62836.2,35471.1
62726,35504.5
62624.4,35558.8
62535.4,35631.8
62462.3,35720.9
62408,35822.4
62374.6,35932.6
62363.3,36047.2
62374.6,36161.9
62408,36272.1
62462.3,36373.6
62535.4,36462.7
62624.4,36535.7
62631.2,36539.4
62624.4,36543
62535.4,36616.1
62462.3,36705.1
62408,36806.7
62374.6,36916.9
62363.3,37031.5
62374.6,37146.1
62408,37256.3
62462.3,37357.9
62535.4,37446.9
62624.4,37520
62631.2,37523.6
62624.4,37527.3
62535.4,37600.3
62462.3,37689.4
62456.2,37700.8
53503.2,37700.8
53454.1,37627.3
53372.7,37545.9
53304,37500
53372.7,37454.1
53454.1,37372.7
53518.1,37276.9
53562.2,37170.5
53584.6,37057.6
53584.6,36942.4
53563.6,36836.6
57400.7,36836.6
57415.4,36838.1
57430,36836.6
57430.1,36836.6
57474,36832.3
57530.4,36815.2
57582.4,36787.4
57628,36750
57637.3,36738.6
59270.9,35105
59338.1,35125.4
59452.8,35136.7
59567.4,35125.4
59677.6,35092
59779.1,35037.7
59868.2,34964.6
59941.2,34875.6
59995.5,34774
60028.9,34663.8
60037.4,34577.9
60037.4,34422.1
60028.9,34336.2
59995.5,34226
59941.2,34124.4
59868.2,34035.4
59779.1,33962.3
59677.6,33908
59567.4,33874.6
59452.8,33863.3
59338.1,33874.6
59227.9,33908
59126.4,33962.3
59037.3,34035.4
58964.3,34124.4
58960.6,34131.2
58957,34124.4
58883.9,34035.4
58794.9,33962.3
58693.3,33908
58583.1,33874.6
58468.5,33863.3
58353.9,33874.6
58243.7,33908
58142.1,33962.3
58053.1,34035.4
57980,34124.4
57976.4,34131.2
57972.7,34124.4
57899.7,34035.4
57810.6,33962.3
57709.1,33908
57598.9,33874.6
57484.3,33863.3
57369.6,33874.6
57259.4,33908
57157.9,33962.3
57068.8,34035.4
57048.3,34060.4
57026.9,34020.3
56983.4,33967.3
56930.5,33923.9
56870,33891.5
56804.4,33871.7
56736.2,33864.9
56263.8,33864.9
56195.6,33871.7
56130,33891.5
56069.5,33923.9
56016.6,33967.3
55973.1,34020.3
55940.8,34080.8
55920.9,34146.4
55915.5,34200.8
53549.6,34200.8
53562.2,34170.5
53584.6,34057.6
53584.6,33942.4
53562.2,33829.5
53549.6,33799.2
56938.1,33799.2
56952.8,33800.7
56967.4,33799.2
56967.5,33799.2
57011.4,33794.9
57067.8,33777.8
57119.8,33750
57165.4,33712.6
57174.7,33701.2
59270.9,31605
59338.1,31625.4
59452.8,31636.7
59567.4,31625.4
59677.6,31592
59779.1,31537.7
59868.2,31464.6
59941.2,31375.6
59995.5,31274
60028.9,31163.8
60037.4,31077.9
60037.4,30922.1
60028.9,30836.2
59995.5,30726
59941.2,30624.4
59868.2,30535.4
59779.1,30462.3
59677.6,30408
59567.4,30374.6
59452.8,30363.3
59338.1,30374.6
59227.9,30408
59126.4,30462.3
59037.3,30535.4
58964.3,30624.4
58960.6,30631.2
58957,30624.4
58883.9,30535.4
58794.9,30462.3
58693.3,30408
58583.1,30374.6
58468.5,30363.3
58353.9,30374.6
58243.7,30408
58142.1,30462.3
58053.1,30535.4
57980,30624.4
57976.4,30631.2
57972.7,30624.4
57899.7,30535.4
57810.6,30462.3
57709.1,30408
57598.9,30374.6
57484.3,30363.3
57369.6,30374.6
57259.4,30408
57157.9,30462.3
57070.9,30533.7
57066.7,30520
57043.5,30476.6
57012.3,30438.5
56974.2,30407.3
56930.8,30384.1
56883.7,30369.8
56834.6,30364.9
56612.5,30366.1
56550,30428.6
56550,30950
56557.9,30950
56557.9,31050
56550,31050
56550,31057.9
56450,31057.9
56450,31050
55977.9,31050
55915.4,31112.5
55914.1,31383.9
55919,31432.9
55933.3,31480
55956.5,31523.4
55987.7,31561.5
56025.8,31592.7
56069.2,31615.9
56116.3,31630.2
56165.4,31635.1
56387.5,31633.9
56450,31571.4
56450,31611.1
55822.9,32238.2
53534.1,32238.2
53552.5,32199.7
53580.8,32088
53586.9,31973
53570.3,31859
53531.9,31750.5
53502.9,31696.4
53404.9,31665.8
53070.7,32000
53076.3,32005.6
53005.6,32076.3
53000,32070.7
52994.4,32076.3
52923.7,32005.6
52929.3,32000
52923.7,31994.4
52994.4,31923.7
53000,31929.3
53334.2,31595.1
53304.4,31499.7
53372.7,31454.1
53454.1,31372.7
53518.1,31276.9
53562.2,31170.5
53584.6,31057.6
53584.6,30942.4
53562.2,30829.5
53534.2,30761.8
55491.2,30761.8
55505.9,30763.3
55520.6,30761.8
55520.6,30761.8
55564.6,30757.5
55621,30740.4
55672.9,30712.6
55718.5,30675.2
55727.9,30663.8
55775.5,30616.1
55914.1,30616.1
55915.4,30887.5
55977.9,30950
56450,30950
56450,30428.6
56387.5,30366.1
56165.4,30364.9
56116.3,30369.8
56069.2,30384.1
56025.8,30407.3
55987.7,30438.5
55956.5,30476.6
55933.3,30520
55919,30567.1
55914.1,30616.1
55775.5,30616.1
58286.7,28105
58353.9,28125.4
58468.5,28136.7
58583.1,28125.4
58693.3,28092
58794.9,28037.7
58883.9,27964.6
58957,27875.6
58960.6,27868.8
58964.3,27875.6
59037.3,27964.6
59126.4,28037.7
59227.9,28092
59338.1,28125.4
59452.8,28136.7
59567.4,28125.4
59677.6,28092
59779.1,28037.7
59868.2,27964.6
59941.2,27875.6
59995.5,27774
60028.9,27663.8
60037.4,27577.9
60037.4,27422.1
60028.9,27336.2
59995.5,27226
59941.2,27124.4
59868.2,27035.4
59779.1,26962.3
59677.6,26908
59567.4,26874.6
59452.8,26863.3
59338.1,26874.6
59270.9,26895
59162.9,26787
59153.5,26775.6
59108,26738.2
59056,26710.4
58999.6,26693.3
58955.6,26689
58955.6,26689
58940.9,26687.5
58926.2,26689
52233.9,26689
52219.2,26687.5
52204.5,26689
52204.5,26689
52160.6,26693.3
52104.2,26710.4
52052.2,26738.2
52006.6,26775.6
51997.3,26787
51336.2,27448
51324.8,27457.4
51311.9,27473.1
51287.4,27503
51280.2,27516.6
51259.6,27554.9
51242.5,27611.3
51238.2,27655.3
51238.2,27655.3
51236.7,27670
49550,27670
49550,25573.9
49587.7,25611.6
49822.1,25768.2
50082.6,25876.1
50359,25931.1
50641,25931.1
50917.4,25876.1
51177.9,25768.2
51412.3,25611.6
51611.6,25412.3
51768.2,25177.9
51876.1,24917.4
51931.1,24641
51931.1,24359
51876.1,24082.6
51768.2,23822.1
51611.6,23587.7
51573.9,23550
62926.1,23550
Z" /> 
</g>
</g>
</g> 
</svg>
