M48
; DRILL file {KiCad (5.1.9-0-10_14)} date Sunday, September 26, 2021 at 12:18:09 PM
; FORMAT={-:-/ absolute / inch / decimal}
; #@! TF.CreationDate,2021-09-26T12:18:09-07:00
; #@! TF.GenerationSoftware,Kicad,Pcbnew,(5.1.9-0-10_14)
; #@! TF.FileFunction,Plated,1,2,PTH
FMAT,2
INCH
T1C0.0374
T2C0.0394
T3C0.1181
%
G90
G05
T1
X5.65Y-2.75
X5.65Y-3.1
X5.65Y-3.45
X5.65Y-3.95
X5.65Y-4.3
X5.65Y-4.65
X5.7484Y-2.75
X5.7484Y-3.1
X5.7484Y-3.45
X5.7484Y-3.95
X5.7484Y-4.3
X5.7484Y-4.65
X5.8469Y-2.75
X5.8469Y-3.1
X5.8469Y-3.45
X5.8469Y-3.95
X5.8469Y-4.3
X5.8469Y-4.65
X5.9453Y-2.75
X5.9453Y-3.1
X5.9453Y-3.45
X5.9453Y-3.95
X5.9453Y-4.3
X5.9453Y-4.65
X6.3Y-3.6047
X6.3Y-3.7031
X6.3Y-3.8016
X6.3Y-3.9
T2
X5.2Y-2.8
X5.2Y-2.9
X5.2Y-3.0
X5.2Y-3.1
X5.2Y-3.2
X5.2Y-3.3
X5.2Y-3.4
X5.2Y-3.5
X5.2Y-3.6
X5.2Y-3.7
X5.2Y-3.8
X5.2Y-3.9
X5.2Y-4.0
X5.2Y-4.1
X5.2Y-4.2
X5.2Y-4.3
X5.2Y-4.4
X5.2Y-4.5
X5.2Y-4.6
X5.2Y-4.7
X5.3Y-2.8
X5.3Y-2.9
X5.3Y-3.0
X5.3Y-3.1
X5.3Y-3.2
X5.3Y-3.3
X5.3Y-3.4
X5.3Y-3.5
X5.3Y-3.6
X5.3Y-3.7
X5.3Y-3.8
X5.3Y-3.9
X5.3Y-4.0
X5.3Y-4.1
X5.3Y-4.2
X5.3Y-4.3
X5.3Y-4.4
X5.3Y-4.5
X5.3Y-4.6
X5.3Y-4.7
T3
X5.05Y-2.45
X5.05Y-5.05
X6.4Y-2.45
X6.4Y-5.05
T0
M30
