M48
; DRILL file {KiCad (5.1.9-0-10_14)} date Sunday, September 26, 2021 at 04:04:17 PM
; FORMAT={-:-/ absolute / inch / decimal}
; #@! TF.CreationDate,2021-09-26T16:04:17-07:00
; #@! TF.GenerationSoftware,Kicad,Pcbnew,(5.1.9-0-10_14)
; #@! TF.FileFunction,Plated,1,2,PTH
FMAT,2
INCH
T1C0.0374
T2C0.0394
T3C0.1181
%
G90
G05
T1
X5.6299Y-2.2047
X5.6299Y-2.3031
X5.6299Y-2.4016
X5.6299Y-2.5
X5.6299Y-2.7559
X5.6299Y-2.8543
X5.6299Y-2.9528
X5.6299Y-3.0512
X5.6299Y-3.3071
X5.6299Y-3.4055
X5.6299Y-3.5039
X5.6299Y-3.6024
X5.6299Y-4.1339
X5.6299Y-4.2323
X5.6299Y-4.3307
X5.6299Y-4.4291
X5.6299Y-4.685
X5.6299Y-4.7835
X5.6299Y-4.8819
X5.6299Y-4.9803
X5.6299Y-5.2362
X5.6299Y-5.3346
X5.6299Y-5.4331
X5.6299Y-5.5315
X6.5748Y-3.7205
X6.5748Y-3.8189
X6.5748Y-3.9173
X6.5748Y-4.0157
T2
X4.5669Y-2.9134
X4.5669Y-3.0134
X4.5669Y-3.1134
X4.5669Y-3.2134
X4.5669Y-3.3134
X4.5669Y-3.4134
X4.5669Y-3.5134
X4.5669Y-3.6134
X4.5669Y-3.7134
X4.5669Y-3.8134
X4.5669Y-3.9134
X4.5669Y-4.0134
X4.5669Y-4.1134
X4.5669Y-4.2134
X4.5669Y-4.3134
X4.5669Y-4.4134
X4.5669Y-4.5134
X4.5669Y-4.6134
X4.5669Y-4.7134
X4.5669Y-4.8134
X4.6669Y-2.9134
X4.6669Y-3.0134
X4.6669Y-3.1134
X4.6669Y-3.2134
X4.6669Y-3.3134
X4.6669Y-3.4134
X4.6669Y-3.5134
X4.6669Y-3.6134
X4.6669Y-3.7134
X4.6669Y-3.8134
X4.6669Y-3.9134
X4.6669Y-4.0134
X4.6669Y-4.1134
X4.6669Y-4.2134
X4.6669Y-4.3134
X4.6669Y-4.4134
X4.6669Y-4.5134
X4.6669Y-4.6134
X4.6669Y-4.7134
X4.6669Y-4.8134
T3
X4.1339Y-2.0472
X4.1339Y-5.6693
X7.7559Y-2.0472
X7.7559Y-5.6693
T0
M30
